<svg xmlns="http://www.w3.org/2000/svg" viewBox="-664 -684 1328 1388"><style>
text {
    font-family: "Open Sans";
}
.legend, .sources {
    font-size: 10pt;
}
.title {
    font-size: 20pt;
    font-weight: bold;
}
.label_all {
    font-size: 18pt;
}
.label {
}
.small-label-9 {
   font-size: 9pt;
}
.small-label-8 {
   font-size: 8pt;
}
.small-label-7 {
   font-size: 7pt;
}
.small-label-6 {
   font-size: 6pt;
}
.small-label-5 {
   font-size: 5pt;
}
.small-label-4 {
   font-size: 4pt;
}
a {
    text-decoration: underline;
}
</style><style type="text/css">
@font-face{
  font-family:'Open Sans';src:local('Open Sans')
             , local('OpenSans')
             , url(https://fonts.gstatic.com/s/opensans/v18/mem5YaGs126MiZpBA-UN_r8OUuhp.woff2) format('woff2');
  }
</style><defs><pattern id="diagonalHatch" width="10" height="10" patternTransform="rotate(45 0 0)" patternUnits="userSpaceOnUse">
  <line x1="0" y1="0" x2="0" y2="10" style="stroke:#444; stroke-width:1"/>
</pattern></defs><circle cx="0" cy="0" r="199.0" stroke="#aaa" stroke-width="2" fill="none"/><path d="M2.4554168322904432e-14 -401.0A401.0 401.0 0 0 1 347.3353305244691 -200.39752535761963" stroke="#aaa" stroke-width="2" fill="none"/><path d="M347.3353305244691 -200.39752535761963A401.0 401.0 0 0 1 400.2596814109332 24.35543957349719" stroke="#aaa" stroke-width="2" fill="none"/><path d="M400.2596814109332 24.35543957349719A401.0 401.0 0 0 1 348.29238139011255 198.72950728466168" stroke="#aaa" stroke-width="2" fill="none"/><path d="M348.29238139011255 198.72950728466168A401.0 401.0 0 0 1 272.6212812858934 294.07250294789173" stroke="#aaa" stroke-width="2" fill="none"/><path d="M272.6212812858934 294.07250294789173A401.0 401.0 0 0 1 174.44076744463746 361.0698251769675" stroke="#aaa" stroke-width="2" fill="none"/><path d="M174.44076744463746 361.0698251769675A401.0 401.0 0 0 1 70.8436224947449 394.69251468937443" stroke="#aaa" stroke-width="2" fill="none"/><path d="M70.8436224947449 394.69251468937443A401.0 401.0 0 0 1 -22.403440026771328 400.3736827951693" stroke="#aaa" stroke-width="2" fill="none"/><path d="M-22.403440026771328 400.3736827951693A401.0 401.0 0 0 1 -110.21123605513931 385.5573672583606" stroke="#aaa" stroke-width="2" fill="none"/><path d="M-110.21123605513931 385.5573672583606A401.0 401.0 0 0 1 -192.07371314756756 352.0066600473717" stroke="#aaa" stroke-width="2" fill="none"/><path d="M-192.07371314756756 352.0066600473717A401.0 401.0 0 0 1 -253.5602254930351 310.6577088177939" stroke="#aaa" stroke-width="2" fill="none"/><path d="M-253.5602254930351 310.6577088177939A401.0 401.0 0 0 1 -301.9730347919425 263.84329868038014" stroke="#aaa" stroke-width="2" fill="none"/><path d="M-301.9730347919425 263.84329868038014A401.0 401.0 0 0 1 -340.016823022065 212.5783621678879" stroke="#aaa" stroke-width="2" fill="none"/><path d="M-340.016823022065 212.5783621678879A401.0 401.0 0 0 1 -369.10927517566637 156.71420796881893" stroke="#aaa" stroke-width="2" fill="none"/><path d="M-369.10927517566637 156.71420796881893A401.0 401.0 0 0 1 -387.45507829611455 103.34196776988392" stroke="#aaa" stroke-width="2" fill="none"/><path d="M-387.45507829611455 103.34196776988392A401.0 401.0 0 0 1 -397.83337657984083 50.295173516775364" stroke="#aaa" stroke-width="2" fill="none"/><path d="M-397.83337657984083 50.295173516775364A401.0 401.0 0 0 1 -400.9862028319231 -3.32643028423062" stroke="#aaa" stroke-width="2" fill="none"/><path d="M-400.9862028319231 -3.32643028423062A401.0 401.0 0 0 1 -397.46820687083266 -53.103903122887154" stroke="#aaa" stroke-width="2" fill="none"/><path d="M-397.46820687083266 -53.103903122887154A401.0 401.0 0 0 1 -389.5696216171259 -95.06055918775856" stroke="#aaa" stroke-width="2" fill="none"/><path d="M-389.5696216171259 -95.06055918775856A401.0 401.0 0 0 1 -377.68520854897866 -134.7400580499894" stroke="#aaa" stroke-width="2" fill="none"/><path d="M-377.68520854897866 -134.7400580499894A401.0 401.0 0 0 1 -362.7999584927684 -170.81331949717958" stroke="#aaa" stroke-width="2" fill="none"/><path d="M-362.7999584927684 -170.81331949717958A401.0 401.0 0 0 1 -345.21607150327947 -204.02662565420874" stroke="#aaa" stroke-width="2" fill="none"/><path d="M-345.21607150327947 -204.02662565420874A401.0 401.0 0 0 1 -326.5999821757409 -232.6659658024906" stroke="#aaa" stroke-width="2" fill="none"/><path d="M-326.5999821757409 -232.6659658024906A401.0 401.0 0 0 1 -305.9756847085883 -259.1908184467779" stroke="#aaa" stroke-width="2" fill="none"/><path d="M-305.9756847085883 -259.1908184467779A401.0 401.0 0 0 1 -283.98356654042533 -283.1154074489409" stroke="#aaa" stroke-width="2" fill="none"/><path d="M-283.98356654042533 -283.1154074489409A401.0 401.0 0 0 1 -262.03770361523925 -303.5411699984897" stroke="#aaa" stroke-width="2" fill="none"/><path d="M-262.03770361523925 -303.5411699984897A401.0 401.0 0 0 1 -241.16651862938542 -320.374328391309" stroke="#aaa" stroke-width="2" fill="none"/><path d="M-241.16651862938542 -320.374328391309A401.0 401.0 0 0 1 -219.58414353476394 -335.5351008584708" stroke="#aaa" stroke-width="2" fill="none"/><path d="M-219.58414353476394 -335.5351008584708A401.0 401.0 0 0 1 -198.4786748806046 -348.43538226999743" stroke="#aaa" stroke-width="2" fill="none"/><path d="M-198.4786748806046 -348.43538226999743A401.0 401.0 0 0 1 -176.9668242870918 -359.83849585854705" stroke="#aaa" stroke-width="2" fill="none"/><path d="M-176.9668242870918 -359.83849585854705A401.0 401.0 0 0 1 -155.38831793833145 -369.6694072388139" stroke="#aaa" stroke-width="2" fill="none"/><path d="M-155.38831793833145 -369.6694072388139A401.0 401.0 0 0 1 -134.3048893485799 -377.84017348220885" stroke="#aaa" stroke-width="2" fill="none"/><path d="M-134.3048893485799 -377.84017348220885A401.0 401.0 0 0 1 -118.31808281193658 -383.1472710064731" stroke="#aaa" stroke-width="2" fill="none"/><path d="M-118.31808281193658 -383.1472710064731A401.0 401.0 0 0 1 -102.76968712980431 -387.6072643891522" stroke="#aaa" stroke-width="2" fill="none"/><path d="M-102.76968712980431 -387.6072643891522A401.0 401.0 0 0 1 -89.34669916359934 -390.9196430835489" stroke="#aaa" stroke-width="2" fill="none"/><path d="M-89.34669916359934 -390.9196430835489A401.0 401.0 0 0 1 -78.35533316084702 -393.2701892659201" stroke="#aaa" stroke-width="2" fill="none"/><path d="M-78.35533316084702 -393.2701892659201A401.0 401.0 0 0 1 -68.23617860616893 -395.1516467499876" stroke="#aaa" stroke-width="2" fill="none"/><path d="M-68.23617860616893 -395.1516467499876A401.0 401.0 0 0 1 -58.58361890524528 -396.6975669146018" stroke="#aaa" stroke-width="2" fill="none"/><path d="M-58.58361890524528 -396.6975669146018A401.0 401.0 0 0 1 -49.18194777195677 -397.97253173222464" stroke="#aaa" stroke-width="2" fill="none"/><path d="M-49.18194777195677 -397.97253173222464A401.0 401.0 0 0 1 -42.07256243547821 -398.78678449782257" stroke="#aaa" stroke-width="2" fill="none"/><path d="M-42.07256243547821 -398.78678449782257A401.0 401.0 0 0 1 -36.95667262336965 -399.2933812982743" stroke="#aaa" stroke-width="2" fill="none"/><path d="M-36.95667262336965 -399.2933812982743A401.0 401.0 0 0 1 -32.033579641013496 -399.71846314047446" stroke="#aaa" stroke-width="2" fill="none"/><path d="M-32.033579641013496 -399.71846314047446A401.0 401.0 0 0 1 -27.283436330405447 -400.0707613685418" stroke="#aaa" stroke-width="2" fill="none"/><path d="M-27.283436330405447 -400.0707613685418A401.0 401.0 0 0 1 -22.76434579125565 -400.35332465298217" stroke="#aaa" stroke-width="2" fill="none"/><path d="M-22.76434579125565 -400.35332465298217A401.0 401.0 0 0 1 -18.48006540996877 -400.573947208806" stroke="#aaa" stroke-width="2" fill="none"/><path d="M-18.48006540996877 -400.573947208806A401.0 401.0 0 0 1 -14.47876921346158 -400.7385247790176" stroke="#aaa" stroke-width="2" fill="none"/><path d="M-14.47876921346158 -400.7385247790176A401.0 401.0 0 0 1 -11.599424831062127 -400.8322009813939" stroke="#aaa" stroke-width="2" fill="none"/><path d="M-11.599424831062127 -400.8322009813939A401.0 401.0 0 0 1 -9.070020240379165 -400.8974117312796" stroke="#aaa" stroke-width="2" fill="none"/><path d="M-9.070020240379165 -400.8974117312796A401.0 401.0 0 0 1 -6.741027089200347 -400.9433358390967" stroke="#aaa" stroke-width="2" fill="none"/><path d="M-6.741027089200347 -400.9433358390967A401.0 401.0 0 0 1 -4.749909175476949 -400.9718672959797" stroke="#aaa" stroke-width="2" fill="none"/><path d="M-4.749909175476949 -400.9718672959797A401.0 401.0 0 0 1 -2.984667036337806 -400.9888923183312" stroke="#aaa" stroke-width="2" fill="none"/><path d="M-2.984667036337806 -400.9888923183312A401.0 401.0 0 0 1 -1.7689242689376092 -400.99609836871326" stroke="#aaa" stroke-width="2" fill="none"/><path d="M-1.7689242689376092 -400.99609836871326A401.0 401.0 0 0 1 -0.6524554582959285 -400.99946920398156" stroke="#aaa" stroke-width="2" fill="none"/><path d="M-0.6524554582959285 -400.99946920398156A401.0 401.0 0 0 1 -0.2086406223981436 -400.9999457220545" stroke="#aaa" stroke-width="2" fill="none"/><path d="M-0.2086406223981436 -400.9999457220545A401.0 401.0 0 0 1 -0.012110515220570214 -400.9999998171265" stroke="#aaa" stroke-width="2" fill="none"/><path d="M-0.012110515220570214 -400.9999998171265A401.0 401.0 0 0 1 -4.298220512684635e-13 -401.0" stroke="#aaa" stroke-width="2" fill="none"/><g><circle fill="#279ee3" r="38.63274685558793"/><path d="M0.5000000000000009 -199.99937499902342L0.5000000000000142 -202.41530629652604A202.41592383781582 202.41592383781582 0 0 1 175.07677943400677 -101.58901282192186L172.9841652301602 -100.38166455894542A200 200 0 0 0 0.5000000000000009 -199.99937499902342" fill="#008cf9"/><path d="M173.4839096824236 -99.51549166486942L174.68166141028968 -100.20654282253525A201.38280477117127 201.38280477117127 0 0 1 201.0407644743234 11.732223876286216L199.6605083273856 11.64823653820562A200 200 0 0 0 173.4839096824236 -99.51549166486942" fill="#006e00"/><path d="M199.59977157034444 12.646390357185503L199.68225824465654 12.651409596707067A200.08263898316955 200.08263898316955 0 0 1 174.03093757291467 98.72332647333978L173.95916047029013 98.6823717209505A200 200 0 0 0 199.59977157034444 12.646390357185503" fill="#00bbad"/><path d="M173.46357566409395 99.55093127553934L174.94024812649872 100.3934946118468A201.70013429579032 201.70013429579032 0 0 1 137.49280884382785 147.5759861602641L136.33696289298152 146.32919240232886A200 200 0 0 0 173.46357566409395 99.55093127553934" fill="#d163e6"/><path d="M135.6036150053309 147.0090459716204L159.73424988701828 173.03840128793507A235.49377679092254 235.49377679092254 0 0 1 102.89316077616236 211.8261465748354L87.45281639866825 179.8666308794959A200 200 0 0 0 135.6036150053309 147.0090459716204" fill="#b24502"/><path d="M86.5523928944863 180.30164526215083L88.54908498091346 184.43453961442606A204.58993096861423 204.58993096861423 0 0 1 36.63639603275137 201.2829211321063L35.82550244129781 196.76517317561195A200 200 0 0 0 86.5523928944863 180.30164526215083" fill="#ff9287"/><path d="M34.84123183109989 196.9418405633794L35.251237482604495 199.22611338753123A202.32077006465855 202.32077006465855 0 0 1 -10.804190911122518 202.0320852199285L-10.674531575523169 199.71493278080925A200 200 0 0 0 34.84123183109989 196.9418405633794" fill="#5954d6"/><path d="M-11.672969687231797 199.6590638530617L-11.86003033278303 203.00203972979668A203.34819510866697 203.34819510866697 0 0 1 -55.40750498982275 195.6540233288221L-54.48728091089408 192.43475834406144A200 200 0 0 0 -11.672969687231797 199.6590638530617" fill="#00c6f8"/><path d="M-55.448770604805176 192.15991735639275L-62.68700226063801 217.4817778192661A226.33599787893633 226.33599787893633 0 0 1 -107.97278335077529 198.92174841213418L-95.3581527512008 175.8033637444934A200 200 0 0 0 -55.448770604805176 192.15991735639275" fill="#878500"/><path d="M-96.2359748460821 175.324376928664L-147.46936426581215 269.217986819414A306.96178560866656 306.96178560866656 0 0 1 -193.71039268881273 238.12144294121632L-126.07620391224327 155.2571763464686A200 200 0 0 0 -96.2359748460821 175.324376928664" fill="#00a76c"/><path d="M-126.8509114155296 154.62485658214678L-132.09994539939436 161.05588442874003A208.3012085506146 208.3012085506146 0 0 1 -156.53178362966 137.43068870293834L-150.28054008879465 131.9687814243209A200 200 0 0 0 -126.8509114155296 154.62485658214678" fill="#bdbdbd"/><path d="M-150.93850342714975 131.21573146224617L-161.54543489347884 140.48333970707242A214.08525467714006 214.08525467714006 0 0 1 -181.2620958627681 113.91465609662608L-169.31886013087936 106.44775058205653A200 200 0 0 0 -150.93850342714975 131.21573146224617" fill="#ebac23"/><path d="M-169.84898073478934 105.59982833013113L-173.072765151243 107.61533687215294A203.8019694880407 203.8019694880407 0 0 1 -187.39803925963813 80.10753802762508L-183.89842203863194 78.62169148333817A200 200 0 0 0 -169.84898073478934 105.59982833013113" fill="#b80058"/><path d="M-184.28923053730733 77.70121947541874L-185.12361595561424 78.05547784486362A200.90647278291397 200.90647278291397 0 0 1 -193.99082566389166 52.25868697463943L-193.11496886667246 52.02507856432439A200 200 0 0 0 -184.28923053730733 77.70121947541874" fill="#008cf9"/><path d="M-193.37267950949015 51.058856423935005L-194.23053149177605 51.2876625923677A200.8878386009625 200.8878386009625 0 0 1 -199.238134689161 25.692204719527194L-198.35730444628655 25.580847773347738A200 200 0 0 0 -193.37267950949015 51.058856423935005" fill="#006e00"/><path d="M-198.48272881914636 24.5887445898568L-201.46809448270355 24.966162606792597A203.00911893262423 203.00911893262423 0 0 1 -203.00566597062218 -1.1840412258625401L-199.99664130862436 -1.1590794922892098A200 200 0 0 0 -198.48272881914636 24.5887445898568" fill="#00bbad"/><path d="M-199.98834597125722 -2.159045085386341L-201.0300394609552 -2.167686581643672A201.04172609383718 201.04172609383718 0 0 1 -199.3366563528568 -26.12801302917099L-198.30410201424073 -25.990058182420672A200 200 0 0 0 -199.98834597125722 -2.159045085386341" fill="#d163e6"/><path d="M-198.1716733281487 -26.981250718258227L-199.58128423083448 -27.169582362206587A201.42213190452998 201.42213190452998 0 0 1 -195.7985841113647 -47.26298425777528L-194.41698534071102 -46.92585439850577A200 200 0 0 0 -198.1716733281487 -26.981250718258227" fill="#b24502"/><path d="M-194.1799265896193 -47.89734971425926L-195.38466937337023 -48.19132418338081A201.24008734019398 201.24008734019398 0 0 1 -189.70708175939518 -67.14756796059748L-188.53909148428068 -66.73088477071201A200 200 0 0 0 -194.1799265896193 -47.89734971425926" fill="#ff9287"/><path d="M-188.20308136445524 -67.67274314614593L-194.83966991452118 -70.04036122132878A207.04624887308097 207.04624887308097 0 0 1 -187.53505766459665 -87.74252856597079L-181.16002894756588 -84.74104030348634A200 200 0 0 0 -188.20308136445524 -67.67274314614593" fill="#5954d6"/><path d="M-180.7340605697674 -85.64577835459056L-184.87474766723918 -87.59529486241115A204.57665557696976 204.57665557696976 0 0 1 -176.37145072037768 -103.65673821728862L-172.43145100523986 -101.32815356172024A200 200 0 0 0 -180.7340605697674 -85.64577835459056" fill="#00c6f8"/><path d="M-171.92265642754853 -102.18904152058134L-180.20883490434832 -107.0862672691627A209.6251244846982 209.6251244846982 0 0 1 -171.0216961359255 -121.21993345162494L-163.18235733850779 -115.63528117943743A200 200 0 0 0 -171.92265642754853 -102.18904152058134" fill="#878500"/><path d="M-162.6021429599479 -116.44974497538693L-162.86030476749968 -116.63365639475442A200.31697050667603 200.31697050667603 0 0 1 -153.17088949190207 -129.09518691737517L-152.92903021406312 -128.89030885906888A200 200 0 0 0 -162.6021429599479 -116.44974497538693" fill="#00a76c"/><path d="M-152.28266907080427 -129.65334049175868L-153.9556208041847 -131.07049143108836A202.19249961655086 202.19249961655086 0 0 1 -143.54296585334342 -142.39811745670937L-141.99025815911003 -140.85015650651326A200 200 0 0 0 -152.28266907080427 -129.65334049175868" fill="#bdbdbd"/><path d="M-141.28423469913758 -141.55834495175128L-167.48974395095013 -167.68374199361767A237.00348448437836 237.00348448437836 0 0 1 -155.25057656966092 -179.07515219182372L-131.07019335218567 -151.06490133257515A200 200 0 0 0 -141.28423469913758 -141.55834495175128" fill="#ebac23"/><path d="M-130.31323282849863 -151.7183619400945L-136.46833628772956 -158.84835613444145A209.41921367380593 209.41921367380593 0 0 1 -126.34649852915794 -167.01188390404042L-120.68164628619225 -159.48648923860097A200 200 0 0 0 -130.31323282849863 -151.7183619400945" fill="#b80058"/><path d="M-119.88270781140089 -160.08790200326283L-133.45134445367037 -178.11296981183855A222.56120810169298 222.56120810169298 0 0 1 -122.29066455709348 -185.95290993654692L-109.93630677575533 -167.07485882833183A200 200 0 0 0 -119.88270781140089 -160.08790200326283" fill="#008cf9"/><path d="M-109.09956088832766 -167.62245020871782L-109.65509373095584 -168.47133103126177A201.01449937899926 201.01449937899926 0 0 1 -99.9281439809663 -174.41672798533105L-99.42600652840473 -173.53521033442644A200 200 0 0 0 -109.09956088832766 -167.62245020871782" fill="#006e00"/><path d="M-98.55709036314283 -174.03016962340553L-197.54910283415649 -347.8136742128174A400 400 0 0 1 -176.97404902895698 -358.7202056900284L-88.71115586261757 -179.24935376597142A200 200 0 0 0 -98.55709036314283 -174.03016962340553" fill="url(#diagonalHatch)"/><path d="M-87.81380300511489 -179.6906675422485L-117.5202717408588 -240.09481996009077A267.3135552898762 267.3135552898762 0 0 1 -104.04530114752288 -246.2338566299017L-77.9611001831303 -184.17944200761366A200 200 0 0 0 -87.81380300511489 -179.6906675422485" fill="#d163e6"/><path d="M-77.03923133714817 -184.56694404736012L-77.16095978332959 -184.8565364899646A200.31413529192147 200.31413529192147 0 0 1 -67.56110736416304 -188.57690624643902L-67.45589530117232 -188.2809129707982A200 200 0 0 0 -77.03923133714817 -184.56694404736012" fill="#b24502"/><path d="M-66.51365047952086 -188.6158378818919L-69.2737342697989 -196.38078630039172A208.24087852206836 208.24087852206836 0 0 1 -61.92060878513004 -198.82178375450138L-59.48906795255178 -190.94776980665858A200 200 0 0 0 -66.51365047952086 -188.6158378818919" fill="#ff9287"/><path d="M-58.53358847373258 -191.24282736978066L-58.967387189789235 -192.64758977188416A201.47021267896324 201.47021267896324 0 0 1 -52.116634894651 -194.6126999046165L-51.7398424613482 -193.19158548465526A200 200 0 0 0 -58.53358847373258 -191.24282736978066" fill="#5954d6"/><path d="M-50.773240804517336 -193.44786899370717L-52.24475742787449 -198.99785701850502A205.7417356217615 205.7417356217615 0 0 1 -46.328554853292665 -200.4577930185311L-45.049236440118264 -194.8603764138885A200 200 0 0 0 -50.773240804517336 -193.44786899370717" fill="#00c6f8"/><path d="M-44.074374487291394 -195.08318613748855L-45.378284381827804 -200.78819813409203A205.85210517109957 205.85210517109957 0 0 1 -40.71371021754321 -201.78573538210117L-39.570206370679884 -196.0464199310505A200 200 0 0 0 -44.074374487291394 -195.08318613748855" fill="#878500"/><path d="M-38.589482706675035 -196.24181976436935L-38.89823567294341 -197.79146970627576A201.58010374795535 201.58010374795535 0 0 1 -34.7944874633191 -198.5544808590362L-34.52560822177189 -196.99741718336492A200 200 0 0 0 -38.589482706675035 -196.24181976436935" fill="#00a76c"/><path d="M-33.540192643841685 -197.16758221729552L-33.642770598419325 -197.76160504359638A200.60281264966667 200.60281264966667 0 0 1 -29.80137408043585 -198.37682965980477L-29.713306607699113 -197.78048288553867A200 200 0 0 0 -33.540192643841685 -197.16758221729552" fill="#bdbdbd"/><path d="M-28.72403586726363 -197.92657669827L-28.921121658812083 -199.2611383972861A201.34903166736663 201.34903166736663 0 0 1 -25.191255093387884 -199.7669472665738L-25.02579820820971 -198.42809635745127A200 200 0 0 0 -28.72403586726363 -197.92657669827" fill="#ebac23"/><path d="M-24.033348004388632 -198.55074460625914L-48.56303609364582 -397.04109551199764A400 400 0 0 1 -42.4648509195991 -397.7395334089588L-21.480996468708124 -198.84307076363348A200 200 0 0 0 -24.033348004388632 -198.55074460625914" fill="url(#diagonalHatch)"/><path d="M-20.486515709361868 -198.9479898719514L-22.149627413359596 -214.71187327494232A215.85132503597364 215.85132503597364 0 0 1 -20.39095272718487 -214.88602459597797L-18.930070118121197 -199.10211562241878A200 200 0 0 0 -20.486515709361868 -198.9479898719514" fill="#008cf9"/><path d="M-17.93432602510798 -199.19427690078132L-19.693490198862424 -218.20092878082707A219.08783370380988 219.08783370380988 0 0 1 -18.000021257351875 -218.34715045487343L-16.475199847267806 -199.32026437367725A200 200 0 0 0 -17.93432602510798 -199.19427690078132" fill="#006e00"/><path d="M-15.47839569978526 -199.4001486121835L-17.561360118532686 -225.39160337835634A226.07471385070707 226.07471385070707 0 0 1 -15.880586923982886 -225.5162592844004L-14.106497742122254 -199.50189653597656A200 200 0 0 0 -15.47839569978526 -199.4001486121835" fill="#00bbad"/><path d="M-13.108815045442531 -199.5699350305661L-13.655414111229526 -207.5849922896481A208.03364958208667 208.03364958208667 0 0 1 -12.309009773882343 -207.66917835063754L-11.852946615559311 -199.648460190728A200 200 0 0 0 -13.108815045442531 -199.5699350305661" fill="#d163e6"/><path d="M-10.854559272284975 -199.70522913285083L-11.105627268779573 -204.1207264211235A204.42261594970407 204.42261594970407 0 0 1 -9.920246851509809 -204.18176856449577L-9.71643018837716 -199.76383802979555A200 200 0 0 0 -10.854559272284975 -199.70522913285083" fill="#b24502"/><path d="M-8.71749266416561 -199.80992298094262L-8.73800074027326 -200.2544560934537A200.44500453296908 200.44500453296908 0 0 1 -7.737050358750329 -200.29562624772453L-7.720982682885137 -199.85091049682657A200 200 0 0 0 -8.71749266416561 -199.80992298094262" fill="#ff9287"/><path d="M-6.721634740792758 -199.88701715321926L-7.8304052030517335 -230.57519463663883A230.7081178185281 230.7081178185281 0 0 1 -7.173294978426506 -230.59657297219385L-6.285021987659074 -199.90122185373116A200 200 0 0 0 -6.721634740792758 -199.88701715321926" fill="#5954d6"/><path d="M-5.285440439076978 -199.93014810019264L-9.25851413817392 -337.22453111180863A337.3516036239134 337.3516036239134 0 0 1 -8.130252414245877 -337.2536189032026L-5.023558815885233 -199.9368996879349A200 200 0 0 0 -5.285440439076978 -199.93014810019264" fill="#00c6f8"/><path d="M-4.023814646979233 -199.959518192275L-4.933559227541161 -240.17048112487643A240.22114813314477 240.22114813314477 0 0 1 -4.538168147532861 -240.1782776195029L-3.8620271137434345 -199.96270838977128A200 200 0 0 0 -4.023814646979233 -199.959518192275" fill="#878500"/><path d="M-2.8621684208777904 -199.9795189311409L-2.9909740606646547 -207.64063083703155A207.66217156774601 207.66217156774601 0 0 1 -2.959749447921291 -207.64107826592866L-2.868989526298054 -199.9794211890263A200 200 0 0 0 -2.8621684208777904 -199.9795189311409" fill="#00a76c"/><path d="M-1.869059682667116 -199.99126634906492L-2.438895153815356 -248.09492148786504A248.10690896797135 248.10690896797135 0 0 1 -2.3466569953161023 -248.09581108633728L-1.9885934863015653 -199.99011349550818A200 200 0 0 0 -1.869059682667116 -199.99126634906492" fill="#bdbdbd"/><path d="M-0.9886211862557854 -199.99755655544917L-2.477235500416964 -399.99232905679014A400 400 0 0 1 -2.264506743068058 -399.9935899601525L-1.382248871302983 -199.995223413105A200 200 0 0 0 -0.9886211862557854 -199.99755655544917" fill="url(#diagonalHatch)"/><path d="M-0.38225860105674914 -199.9996346955712L-0.5831286067810634 -245.53470365765142A245.53539610252275 245.53539610252275 0 0 1 -0.8995020245238178 -245.53374846511554L-0.8254125149024717 -199.99829672819777A200 200 0 0 0 -0.38225860105674914 -199.9996346955712" fill="#b80058"/><path d="M0.17458616141675048 -199.99992379916608L0.14920765309614065 -215.59756841432755A215.59762004506078 215.59762004506078 0 0 1 -0.612175245706137 -215.5967509276588L-0.6040597679303653 -199.99908777741155A200 200 0 0 0 0.17458616141675048 -199.99992379916608" fill="#008cf9"/><path d="M0.39594009671322833 -199.99960807821552L0.31635715271446907 -352.9552303200737A352.9553720970179 352.9553720970179 0 0 1 -0.5106595187668376 -352.95500268306193L-0.5060401381137324 -199.99935980742194A200 200 0 0 0 0.39594009671322833 -199.99960807821552" fill="#006e00"/><path d="M0.49395986143029 -199.99939000820802L0.4900054545409597 -330.9366072096817A330.936969975856 330.936969975856 0 0 1 -0.5000000000002862 -330.9365922602102L-0.5000000000002475 -199.99937499902342A200 200 0 0 0 0.49395986143029 -199.99939000820802" fill="#00bbad"/></g><g><defs><path d="M50.01277575463141 -86.59516303649386L250.06387877315706 -432.9758151824693" stroke="#aaa" stroke-width="2" fill="none" id="textpath--8758372578225684012"/></defs><text text-anchor="middle" dominant-baseline="middle" class="label"><textPath href="#textpath--8758372578225684012" startOffset="50%"><tspan>Nigeria | 0.8%</tspan></textPath></text><defs><path d="M97.33772751350268 -22.920881364099056L486.6886375675134 -114.60440682049527" stroke="#aaa" stroke-width="2" fill="none" id="textpath-3477846734816357078"/></defs><text text-anchor="middle" dominant-baseline="middle" class="label"><textPath href="#textpath-3477846734816357078" startOffset="50%"><tspan>Ethiopia | 0.5%</tspan></textPath></text><defs><path d="M95.83464463483624 28.560827854154592L479.1732231741812 142.80413927077296" stroke="#aaa" stroke-width="2" fill="none" id="textpath--1275246445269257359"/></defs><text text-anchor="middle" dominant-baseline="middle" class="label"><textPath href="#textpath--1275246445269257359" startOffset="50%"><tspan>Democratic Republic of Congo | 0.0%</tspan></textPath></text><defs><path d="M78.3280678477949 62.166822238483775L391.64033923897443 310.8341111924189" stroke="#aaa" stroke-width="2" fill="none" id="textpath-376230758795771704"/></defs><text text-anchor="middle" dominant-baseline="middle" class="label"><textPath href="#textpath-376230758795771704" startOffset="50%"><tspan>Tanzania | 0.6%</tspan></textPath></text><defs><path d="M56.365876466099394 82.6007746344332L281.82938233049697 413.003873172166" stroke="#aaa" stroke-width="2" fill="none" id="textpath-252205035969798503"/></defs><text text-anchor="middle" dominant-baseline="middle" class="label"><textPath href="#textpath-252205035969798503" startOffset="50%"><tspan>South Africa | 12.9%</tspan></textPath></text><defs><path d="M30.87008768429139 95.11591710310195L154.35043842145697 475.57958551550973" stroke="#aaa" stroke-width="2" fill="none" id="textpath--6112938554548705421"/></defs><text text-anchor="middle" dominant-baseline="middle" class="label"><textPath href="#textpath--6112938554548705421" startOffset="50%"><tspan>Kenya | 1.5%</tspan></textPath></text><defs><path d="M6.081321000044201 99.81491639476747L30.406605000221003 499.0745819738374" stroke="#aaa" stroke-width="2" fill="none" id="textpath-1407000360350006941"/></defs><text text-anchor="middle" dominant-baseline="middle" class="label"><textPath href="#textpath-1407000360350006941" startOffset="50%"><tspan>Uganda | 0.8%</tspan></textPath></text><defs><path d="M-83.1918842692732 493.03053697689745L-16.63837685385464 98.6061073953795" stroke="#aaa" stroke-width="2" fill="none" id="textpath-8678770165641503204"/></defs><text text-anchor="middle" dominant-baseline="middle" class="label"><textPath href="#textpath-8678770165641503204" startOffset="50%"><tspan>Sudan | 1.1%</tspan></textPath></text><defs><path d="M-189.6141846708205 462.6515545976475L-37.9228369341641 92.53031091952948" stroke="#aaa" stroke-width="2" fill="none" id="textpath--5093355697527230784"/></defs><text text-anchor="middle" dominant-baseline="middle" class="label"><textPath href="#textpath--5093355697527230784" startOffset="50%"><tspan>Algeria | 9.4%</tspan></textPath></text><defs><path d="M-279.02004118062376 414.90699755434713L-55.80400823612476 82.98139951086942" stroke="#aaa" stroke-width="2" fill="none" id="textpath-1289418228383009687"/></defs><text text-anchor="middle" dominant-baseline="middle" class="label"><textPath href="#textpath-1289418228383009687" startOffset="50%"><tspan>Morocco | 45.2%</tspan></textPath></text><defs><path d="M-347.5700000414726 359.43719210895625L-69.51400000829452 71.88743842179124" stroke="#aaa" stroke-width="2" fill="none" id="textpath-941766735438680806"/></defs><text text-anchor="middle" dominant-baseline="middle" class="label"><textPath href="#textpath-941766735438680806" startOffset="50%"><tspan>Angola | 2.8%</tspan></textPath></text><defs><path d="M-401.51710694802034 297.96646258948675L-80.30342138960407 59.59329251789735" stroke="#aaa" stroke-width="2" fill="none" id="textpath--2293066098129309441"/></defs><text text-anchor="middle" dominant-baseline="middle" class="label"><textPath href="#textpath--2293066098129309441" startOffset="50%"><tspan>Mozambique | 4.9%</tspan></textPath></text><defs><path d="M-443.4682993825937 230.94559411842042L-88.69365987651875 46.18911882368408" stroke="#aaa" stroke-width="2" fill="none" id="textpath--5192457409497719970"/></defs><text text-anchor="middle" dominant-baseline="middle" class="label"><textPath href="#textpath--5192457409497719970" startOffset="50%"><tspan>Ghana | 1.3%</tspan></textPath></text><defs><path d="M-472.8457629407377 162.5327181492751L-94.56915258814755 32.50654362985502" stroke="#aaa" stroke-width="2" fill="none" id="textpath--1943163599223515887"/></defs><text text-anchor="middle" dominant-baseline="middle" class="label"><textPath href="#textpath--1943163599223515887" startOffset="50%"><tspan>Madagascar | 0.3%</tspan></textPath></text><defs><path d="M-490.69706358466544 96.0020405480361L-98.1394127169331 19.20040810960722" stroke="#aaa" stroke-width="2" fill="none" id="textpath--216598523425789948"/></defs><text text-anchor="middle" dominant-baseline="middle" class="label"><textPath href="#textpath--216598523425789948" startOffset="50%"><tspan>Cameroon | 0.3%</tspan></textPath></text><defs><path d="M-499.1379425794882 29.34815628818226L-99.82758851589763 5.869631257636452" stroke="#aaa" stroke-width="2" fill="none" id="textpath--1645924731532567574"/></defs><text text-anchor="middle" dominant-baseline="middle" class="label"><textPath href="#textpath--1645924731532567574" startOffset="50%"><tspan>Cote d'Ivoire | 1.0%</tspan></textPath></text><defs><path d="M-498.7559387295422 -35.24930612101663L-99.75118774590844 -7.049861224203326" stroke="#aaa" stroke-width="2" fill="none" id="textpath--6206242136432171916"/></defs><text text-anchor="middle" dominant-baseline="middle" class="label"><textPath href="#textpath--6206242136432171916" startOffset="50%"><tspan>Niger | 0.3%</tspan></textPath></text><defs><path d="M-491.36869134111095 -92.50302248966808L-98.27373826822219 -18.50060449793362" stroke="#aaa" stroke-width="2" fill="none" id="textpath--4515902128316842553"/></defs><text text-anchor="middle" dominant-baseline="middle" class="label"><textPath href="#textpath--4515902128316842553" startOffset="50%"><tspan>Burkina Faso | 0.5%</tspan></textPath></text><defs><path d="M-478.9776691659488 -143.45867851181015L-95.79553383318977 -28.69173570236203" stroke="#aaa" stroke-width="2" fill="none" id="textpath-4786735638918633714"/></defs><text text-anchor="middle" dominant-baseline="middle" class="label"><textPath href="#textpath-4786735638918633714" startOffset="50%"><tspan>Mali | 0.4%</tspan></textPath></text><defs><path d="M-462.1965795714347 -190.72053332681935L-92.43931591428695 -38.14410666536387" stroke="#aaa" stroke-width="2" fill="none" id="textpath--5286652108661492859"/></defs><text text-anchor="middle" dominant-baseline="middle" class="label"><textPath href="#textpath--5286652108661492859" startOffset="50%"><tspan>Malawi | 2.4%</tspan></textPath></text><defs><path d="M-441.89191173113426 -233.94772567093585L-88.37838234622684 -46.78954513418717" stroke="#aaa" stroke-width="2" fill="none" id="textpath--1697630686152929352"/></defs><text text-anchor="middle" dominant-baseline="middle" class="label"><textPath href="#textpath--1697630686152929352" startOffset="50%"><tspan>Zambia | 1.5%</tspan></textPath></text><defs><path d="M-419.218341850551 -272.49950799235324L-83.8436683701102 -54.49990159847064" stroke="#aaa" stroke-width="2" fill="none" id="textpath--3905522898875739777"/></defs><text text-anchor="middle" dominant-baseline="middle" class="label"><textPath href="#textpath--3905522898875739777" startOffset="50%"><tspan>Senegal | 3.3%</tspan></textPath></text><defs><path d="M-394.7204091076519 -306.9133405928911L-78.94408182153038 -61.38266811857821" stroke="#aaa" stroke-width="2" fill="none" id="textpath--182180096725279457"/></defs><text text-anchor="middle" dominant-baseline="middle" class="label"><textPath href="#textpath--182180096725279457" startOffset="50%"><tspan>Chad | 0.1%</tspan></textPath></text><defs><path d="M-368.1073306229168 -338.37404324455895L-73.62146612458335 -67.67480864891179" stroke="#aaa" stroke-width="2" fill="none" id="textpath-5957052676393477332"/></defs><text text-anchor="middle" dominant-baseline="middle" class="label"><textPath href="#textpath-5957052676393477332" startOffset="50%"><tspan>Somalia | 0.7%</tspan></textPath></text><defs><path d="M-340.6503639487479 -366.00181630913477L-68.13007278974958 -73.20036326182695" stroke="#aaa" stroke-width="2" fill="none" id="textpath--2166230696103807314"/></defs><text text-anchor="middle" dominant-baseline="middle" class="label"><textPath href="#textpath--2166230696103807314" startOffset="50%"><tspan>Zimbabwe | 13.5%</tspan></textPath></text><defs><path d="M-313.89382446419086 -389.1923264444505L-62.77876489283817 -77.8384652888901" stroke="#aaa" stroke-width="2" fill="none" id="textpath--4282711377648706929"/></defs><text text-anchor="middle" dominant-baseline="middle" class="label"><textPath href="#textpath--4282711377648706929" startOffset="50%"><tspan>Guinea | 3.2%</tspan></textPath></text><defs><path d="M-287.4064984681073 -409.14240141826144L-57.481299693621466 -81.8284802836523" stroke="#aaa" stroke-width="2" fill="none" id="textpath-4393316220811597992"/></defs><text text-anchor="middle" dominant-baseline="middle" class="label"><textPath href="#textpath-4393316220811597992" startOffset="50%"><tspan>Rwanda | 7.9%</tspan></textPath></text><defs><path d="M-260.76172372605777 -426.6184752673226L-52.15234474521155 -85.32369505346452" stroke="#aaa" stroke-width="2" fill="none" id="textpath-2583378485892124261"/></defs><text text-anchor="middle" dominant-baseline="middle" class="label"><textPath href="#textpath-2583378485892124261" startOffset="50%"><tspan>Benin | 0.3%</tspan></textPath></text><defs><path d="M-234.17620211467516 -441.7708754129756L-46.83524042293503 -88.35417508259512" stroke="#aaa" stroke-width="2" fill="none" id="textpath-7061241410521566057"/></defs><text text-anchor="middle" dominant-baseline="middle" class="label"><textPath href="#textpath-7061241410521566057" startOffset="50%"><tspan>Burundi | (n/a)</tspan></textPath></text><defs><path d="M-207.29458063674514 -455.00434815354896L-41.45891612734903 -91.00086963070979" stroke="#aaa" stroke-width="2" fill="none" id="textpath-3285809828006389053"/></defs><text text-anchor="middle" dominant-baseline="middle" class="label"><textPath href="#textpath-3285809828006389053" startOffset="50%"><tspan>Tunisia | 26.2%</tspan></textPath></text><defs><path d="M-180.6785612082811 -466.2137466009614L-36.13571224165622 -93.24274932019227" stroke="#aaa" stroke-width="2" fill="none" id="textpath--2460180831644845531"/></defs><text text-anchor="middle" dominant-baseline="middle" class="label"><textPath href="#textpath--2460180831644845531" startOffset="50%"><tspan>South Sudan | 0.1%</tspan></textPath></text><defs><path d="M-157.5303688914754 -474.5357551090494L-31.50607377829508 -94.90715102180988" stroke="#aaa" stroke-width="2" fill="none" id="textpath--2103100496328847859"/></defs><text text-anchor="middle" dominant-baseline="middle" class="small-label-8"><textPath href="#textpath--2103100496328847859" startOffset="50%"><tspan>Togo | 2.8%</tspan></textPath></text><defs><path d="M-137.8633110887393 -480.6180473678132L-27.572662217747855 -96.12360947356264" stroke="#aaa" stroke-width="2" fill="none" id="textpath--3126669447138250657"/></defs><text text-anchor="middle" dominant-baseline="middle" class="small-label-8"><textPath href="#textpath--3126669447138250657" startOffset="50%"><tspan>Sierra Leone | 0.5%</tspan></textPath></text><defs><path d="M-119.79110934841152 -485.43803942529775L-23.958221869682305 -97.08760788505954" stroke="#aaa" stroke-width="2" fill="none" id="textpath--112475607497498233"/></defs><text text-anchor="middle" dominant-baseline="middle" class="small-label-6"><textPath href="#textpath--112475607497498233" startOffset="50%"><tspan>Libya | 1.9%</tspan></textPath></text><defs><path d="M-104.56265859407246 -488.9444246821303L-20.912531718814492 -97.78888493642607" stroke="#aaa" stroke-width="2" fill="none" id="textpath-2441956077247125817"/></defs><text text-anchor="middle" dominant-baseline="middle" class="small-label-5"><textPath href="#textpath-2441956077247125817" startOffset="50%"><tspan>Congo | 2.0%</tspan></textPath></text><defs><path d="M-91.39874391347202 -491.5752939388223L-18.2797487826944 -98.31505878776447" stroke="#aaa" stroke-width="2" fill="none" id="textpath--5416258163739406740"/></defs><text text-anchor="middle" dominant-baseline="middle" class="small-label-5"><textPath href="#textpath--5416258163739406740" startOffset="50%"><tspan>Liberia | 0.5%</tspan></textPath></text><defs><path d="M-79.0705857011018 -493.70825643985813L-15.81411714022036 -98.74165128797162" stroke="#aaa" stroke-width="2" fill="none" id="textpath-5274969270716118402"/></defs><text text-anchor="middle" dominant-baseline="middle" class="small-label-4"><textPath href="#textpath-5274969270716118402" startOffset="50%"><tspan>Central African Republic | 0.2%</tspan></textPath></text><defs><path d="M-67.19021721376953 -495.4649076481264L-13.438043442753905 -99.09298152962529" stroke="#aaa" stroke-width="2" fill="none" id="textpath--4873388442414034240"/></defs><text text-anchor="middle" dominant-baseline="middle" class="small-label-4"><textPath href="#textpath--4873388442414034240" startOffset="50%"><tspan>Mauritania | 0.5%</tspan></textPath></text></g><text y="654" class="legend">
            <tspan x="-654">* Showing percentage of population fully vaccinated, having received all shots according to each countries chosen vaccine(s).</tspan>
            <tspan x="-654" dy="1.2em">Countries where no data was available are not counted towards a region's percentage.</tspan>
            </text><text y="-654" class="title" text-anchor="middle">
                <tspan x="0">Covid Vaccinations* by Country</tspan>
            </text><text xmlns:xlink="http://www.w3.org/1999/xlink" y="654" class="sources" text-anchor="end">
    <tspan x="654">Data source:
        <a xlink:href="https://github.com/owid/covid-19-data/tree/master/public/data/vaccinations">
            <tspan>https://github.com/owid/covid-19-data/tree/master/public/data/vaccinations</tspan>
        </a>
    </tspan>
    <tspan x="654" dy="1.2em">Code source:
        <a xlink:href="https://github.com/WorldSEnder/vis_covid_vacc">
            <tspan>https://github.com/WorldSEnder/vis_covid_vacc</tspan>
        </a>
    </tspan>
    <tspan x="654" dy="1.2em">Timestamp: Sun Sep 19 02:00:22 2021 +0000</tspan>
</text><text text-anchor="middle" dominant-baseline="middle" class="label_all" x="0" y="0">
    <tspan>Africa | 3.8%</tspan>
</text></svg>