<svg xmlns="http://www.w3.org/2000/svg" viewBox="-664 -684 1328 1388"><style>
text {
    font-family: "Open Sans";
}
.legend, .sources {
    font-size: 10pt;
}
.title {
    font-size: 20pt;
    font-weight: bold;
}
.label_all {
    font-size: 18pt;
}
.label {
}
.small-label-9 {
   font-size: 9pt;
}
.small-label-8 {
   font-size: 8pt;
}
.small-label-7 {
   font-size: 7pt;
}
.small-label-6 {
   font-size: 6pt;
}
.small-label-5 {
   font-size: 5pt;
}
.small-label-4 {
   font-size: 4pt;
}
a {
    text-decoration: underline;
}
</style><style type="text/css">
@font-face{
  font-family:'Open Sans';src:local('Open Sans')
             , local('OpenSans')
             , url(https://fonts.gstatic.com/s/opensans/v18/mem5YaGs126MiZpBA-UN_r8OUuhp.woff2) format('woff2');
  }
</style><defs><pattern id="diagonalHatch" width="10" height="10" patternTransform="rotate(45 0 0)" patternUnits="userSpaceOnUse">
  <line x1="0" y1="0" x2="0" y2="10" style="stroke:#444; stroke-width:1"/>
</pattern></defs><circle cx="0" cy="0" r="199.0" stroke="#aaa" stroke-width="2" fill="none"/><path d="M2.4554168322904432e-14 -401.0A401.0 401.0 0 0 1 347.3353305244691 -200.39752535761963" stroke="#aaa" stroke-width="2" fill="none"/><path d="M347.3353305244691 -200.39752535761963A401.0 401.0 0 0 1 400.2596814109332 24.35543957349719" stroke="#aaa" stroke-width="2" fill="none"/><path d="M400.2596814109332 24.35543957349719A401.0 401.0 0 0 1 348.29238139011255 198.72950728466168" stroke="#aaa" stroke-width="2" fill="none"/><path d="M348.29238139011255 198.72950728466168A401.0 401.0 0 0 1 272.6212812858934 294.07250294789173" stroke="#aaa" stroke-width="2" fill="none"/><path d="M272.6212812858934 294.07250294789173A401.0 401.0 0 0 1 174.44076744463746 361.0698251769675" stroke="#aaa" stroke-width="2" fill="none"/><path d="M174.44076744463746 361.0698251769675A401.0 401.0 0 0 1 70.8436224947449 394.69251468937443" stroke="#aaa" stroke-width="2" fill="none"/><path d="M70.8436224947449 394.69251468937443A401.0 401.0 0 0 1 -22.403440026771328 400.3736827951693" stroke="#aaa" stroke-width="2" fill="none"/><path d="M-22.403440026771328 400.3736827951693A401.0 401.0 0 0 1 -110.21123605513931 385.5573672583606" stroke="#aaa" stroke-width="2" fill="none"/><path d="M-110.21123605513931 385.5573672583606A401.0 401.0 0 0 1 -192.07371314756756 352.0066600473717" stroke="#aaa" stroke-width="2" fill="none"/><path d="M-192.07371314756756 352.0066600473717A401.0 401.0 0 0 1 -253.5602254930351 310.6577088177939" stroke="#aaa" stroke-width="2" fill="none"/><path d="M-253.5602254930351 310.6577088177939A401.0 401.0 0 0 1 -301.9730347919425 263.84329868038014" stroke="#aaa" stroke-width="2" fill="none"/><path d="M-301.9730347919425 263.84329868038014A401.0 401.0 0 0 1 -340.016823022065 212.5783621678879" stroke="#aaa" stroke-width="2" fill="none"/><path d="M-340.016823022065 212.5783621678879A401.0 401.0 0 0 1 -369.10927517566637 156.71420796881893" stroke="#aaa" stroke-width="2" fill="none"/><path d="M-369.10927517566637 156.71420796881893A401.0 401.0 0 0 1 -387.45507829611455 103.34196776988392" stroke="#aaa" stroke-width="2" fill="none"/><path d="M-387.45507829611455 103.34196776988392A401.0 401.0 0 0 1 -397.83337657984083 50.295173516775364" stroke="#aaa" stroke-width="2" fill="none"/><path d="M-397.83337657984083 50.295173516775364A401.0 401.0 0 0 1 -400.9862028319231 -3.32643028423062" stroke="#aaa" stroke-width="2" fill="none"/><path d="M-400.9862028319231 -3.32643028423062A401.0 401.0 0 0 1 -397.46820687083266 -53.103903122887154" stroke="#aaa" stroke-width="2" fill="none"/><path d="M-397.46820687083266 -53.103903122887154A401.0 401.0 0 0 1 -389.5696216171259 -95.06055918775856" stroke="#aaa" stroke-width="2" fill="none"/><path d="M-389.5696216171259 -95.06055918775856A401.0 401.0 0 0 1 -377.68520854897866 -134.7400580499894" stroke="#aaa" stroke-width="2" fill="none"/><path d="M-377.68520854897866 -134.7400580499894A401.0 401.0 0 0 1 -362.7999584927684 -170.81331949717958" stroke="#aaa" stroke-width="2" fill="none"/><path d="M-362.7999584927684 -170.81331949717958A401.0 401.0 0 0 1 -345.21607150327947 -204.02662565420874" stroke="#aaa" stroke-width="2" fill="none"/><path d="M-345.21607150327947 -204.02662565420874A401.0 401.0 0 0 1 -326.5999821757409 -232.6659658024906" stroke="#aaa" stroke-width="2" fill="none"/><path d="M-326.5999821757409 -232.6659658024906A401.0 401.0 0 0 1 -305.9756847085883 -259.1908184467779" stroke="#aaa" stroke-width="2" fill="none"/><path d="M-305.9756847085883 -259.1908184467779A401.0 401.0 0 0 1 -283.98356654042533 -283.1154074489409" stroke="#aaa" stroke-width="2" fill="none"/><path d="M-283.98356654042533 -283.1154074489409A401.0 401.0 0 0 1 -262.03770361523925 -303.5411699984897" stroke="#aaa" stroke-width="2" fill="none"/><path d="M-262.03770361523925 -303.5411699984897A401.0 401.0 0 0 1 -241.16651862938542 -320.374328391309" stroke="#aaa" stroke-width="2" fill="none"/><path d="M-241.16651862938542 -320.374328391309A401.0 401.0 0 0 1 -219.58414353476394 -335.5351008584708" stroke="#aaa" stroke-width="2" fill="none"/><path d="M-219.58414353476394 -335.5351008584708A401.0 401.0 0 0 1 -198.4786748806046 -348.43538226999743" stroke="#aaa" stroke-width="2" fill="none"/><path d="M-198.4786748806046 -348.43538226999743A401.0 401.0 0 0 1 -176.9668242870918 -359.83849585854705" stroke="#aaa" stroke-width="2" fill="none"/><path d="M-176.9668242870918 -359.83849585854705A401.0 401.0 0 0 1 -155.38831793833145 -369.6694072388139" stroke="#aaa" stroke-width="2" fill="none"/><path d="M-155.38831793833145 -369.6694072388139A401.0 401.0 0 0 1 -134.3048893485799 -377.84017348220885" stroke="#aaa" stroke-width="2" fill="none"/><path d="M-134.3048893485799 -377.84017348220885A401.0 401.0 0 0 1 -118.31808281193658 -383.1472710064731" stroke="#aaa" stroke-width="2" fill="none"/><path d="M-118.31808281193658 -383.1472710064731A401.0 401.0 0 0 1 -102.76968712980431 -387.6072643891522" stroke="#aaa" stroke-width="2" fill="none"/><path d="M-102.76968712980431 -387.6072643891522A401.0 401.0 0 0 1 -89.34669916359934 -390.9196430835489" stroke="#aaa" stroke-width="2" fill="none"/><path d="M-89.34669916359934 -390.9196430835489A401.0 401.0 0 0 1 -78.35533316084702 -393.2701892659201" stroke="#aaa" stroke-width="2" fill="none"/><path d="M-78.35533316084702 -393.2701892659201A401.0 401.0 0 0 1 -68.23617860616893 -395.1516467499876" stroke="#aaa" stroke-width="2" fill="none"/><path d="M-68.23617860616893 -395.1516467499876A401.0 401.0 0 0 1 -58.58361890524528 -396.6975669146018" stroke="#aaa" stroke-width="2" fill="none"/><path d="M-58.58361890524528 -396.6975669146018A401.0 401.0 0 0 1 -49.18194777195677 -397.97253173222464" stroke="#aaa" stroke-width="2" fill="none"/><path d="M-49.18194777195677 -397.97253173222464A401.0 401.0 0 0 1 -42.07256243547821 -398.78678449782257" stroke="#aaa" stroke-width="2" fill="none"/><path d="M-42.07256243547821 -398.78678449782257A401.0 401.0 0 0 1 -36.95667262336965 -399.2933812982743" stroke="#aaa" stroke-width="2" fill="none"/><path d="M-36.95667262336965 -399.2933812982743A401.0 401.0 0 0 1 -32.033579641013496 -399.71846314047446" stroke="#aaa" stroke-width="2" fill="none"/><path d="M-32.033579641013496 -399.71846314047446A401.0 401.0 0 0 1 -27.283436330405447 -400.0707613685418" stroke="#aaa" stroke-width="2" fill="none"/><path d="M-27.283436330405447 -400.0707613685418A401.0 401.0 0 0 1 -22.76434579125565 -400.35332465298217" stroke="#aaa" stroke-width="2" fill="none"/><path d="M-22.76434579125565 -400.35332465298217A401.0 401.0 0 0 1 -18.48006540996877 -400.573947208806" stroke="#aaa" stroke-width="2" fill="none"/><path d="M-18.48006540996877 -400.573947208806A401.0 401.0 0 0 1 -14.47876921346158 -400.7385247790176" stroke="#aaa" stroke-width="2" fill="none"/><path d="M-14.47876921346158 -400.7385247790176A401.0 401.0 0 0 1 -11.599424831062127 -400.8322009813939" stroke="#aaa" stroke-width="2" fill="none"/><path d="M-11.599424831062127 -400.8322009813939A401.0 401.0 0 0 1 -9.070020240379165 -400.8974117312796" stroke="#aaa" stroke-width="2" fill="none"/><path d="M-9.070020240379165 -400.8974117312796A401.0 401.0 0 0 1 -6.741027089200347 -400.9433358390967" stroke="#aaa" stroke-width="2" fill="none"/><path d="M-6.741027089200347 -400.9433358390967A401.0 401.0 0 0 1 -4.749909175476949 -400.9718672959797" stroke="#aaa" stroke-width="2" fill="none"/><path d="M-4.749909175476949 -400.9718672959797A401.0 401.0 0 0 1 -2.984667036337806 -400.9888923183312" stroke="#aaa" stroke-width="2" fill="none"/><path d="M-2.984667036337806 -400.9888923183312A401.0 401.0 0 0 1 -1.7689242689376092 -400.99609836871326" stroke="#aaa" stroke-width="2" fill="none"/><path d="M-1.7689242689376092 -400.99609836871326A401.0 401.0 0 0 1 -0.6524554582959285 -400.99946920398156" stroke="#aaa" stroke-width="2" fill="none"/><path d="M-0.6524554582959285 -400.99946920398156A401.0 401.0 0 0 1 -0.2086406223981436 -400.9999457220545" stroke="#aaa" stroke-width="2" fill="none"/><path d="M-0.2086406223981436 -400.9999457220545A401.0 401.0 0 0 1 -0.012110515220570214 -400.9999998171265" stroke="#aaa" stroke-width="2" fill="none"/><path d="M-0.012110515220570214 -400.9999998171265A401.0 401.0 0 0 1 -4.298220512684635e-13 -401.0" stroke="#aaa" stroke-width="2" fill="none"/><g><circle fill="#279ee3" r="48.53498012504643"/><path d="M0.5000000000000009 -199.99937499902342L0.5000000000000121 -204.42437876298004A204.42499023512346 204.42499023512346 0 0 1 176.8169835466836 -102.59303564122735L172.9841652301602 -100.38166455894542A200 200 0 0 0 0.5000000000000009 -199.99937499902342" fill="#008cf9"/><path d="M173.4839096824236 -99.51549166486942L176.52799030525915 -101.27179507023911A203.5143922133326 203.5143922133326 0 0 1 203.1684231094654 11.86168997973826L199.6605083273856 11.64823653820562A200 200 0 0 0 173.4839096824236 -99.51549166486942" fill="#006e00"/><path d="M199.59977157034444 12.646390357185503L199.72867847442635 12.654234225700826A200.12914492641914 200.12914492641914 0 0 1 174.071330880365 98.74637418416012L173.95916047029013 98.6823717209505A200 200 0 0 0 199.59977157034444 12.646390357185503" fill="#00bbad"/><path d="M173.46357566409395 99.55093127553934L177.5084806679049 101.85888293159421A204.65701244057138 204.65701244057138 0 0 1 139.50305909186312 149.74441306810857L136.33696289298152 146.32919240232886A200 200 0 0 0 173.46357566409395 99.55093127553934" fill="#d163e6"/><path d="M135.6036150053309 147.0090459716204L175.12214467240776 189.63709348574946A258.12786130208144 258.12786130208144 0 0 1 112.73933332387968 232.20645017327524L87.45281639866825 179.8666308794959A200 200 0 0 0 135.6036150053309 147.0090459716204" fill="#b24502"/><path d="M86.5523928944863 180.30164526215083L91.24920795364083 190.02344491449242A210.79688700106064 210.79688700106064 0 0 1 37.732965919317536 207.39226324110922L35.82550244129781 196.76517317561195A200 200 0 0 0 86.5523928944863 180.30164526215083" fill="#ff9287"/><path d="M34.84123183109989 196.9418405633794L35.305483786981625 199.5283369262667A202.62782242820117 202.62782242820117 0 0 1 -10.821345649742478 202.33865893675244L-10.674531575523169 199.71493278080925A200 200 0 0 0 34.84123183109989 196.9418405633794" fill="#5954d6"/><path d="M-11.672969687231797 199.6590638530617L-11.88805183666754 203.5028142847002A203.84975152858166 203.84975152858166 0 0 1 -55.54535366732717 196.1362661116909L-54.48728091089408 192.43475834406144A200 200 0 0 0 -11.672969687231797 199.6590638530617" fill="#00c6f8"/><path d="M-55.448770604805176 192.15991735639275L-63.85612045046873 221.5717612675913A230.58978622264962 230.58978622264962 0 0 1 -110.01029676471431 202.65582675054458L-95.3581527512008 175.8033637444934A200 200 0 0 0 -55.448770604805176 192.15991735639275" fill="#878500"/><path d="M-96.2359748460821 175.324376928664L-160.3859764376103 292.8898023698778A333.92828237529056 333.92828237529056 0 0 1 -210.76186236270294 259.0126157999198L-126.07620391224327 155.2571763464686A200 200 0 0 0 -96.2359748460821 175.324376928664" fill="#00a76c"/><path d="M-126.8509114155296 154.62485658214678L-137.45972599578027 167.62259715587103A216.7775619110853 216.7775619110853 0 0 1 -162.9149188763751 143.00783389597416L-150.28054008879465 131.9687814243209A200 200 0 0 0 -126.8509114155296 154.62485658214678" fill="#bdbdbd"/><path d="M-150.93850342714975 131.21573146224617L-168.2145294751491 146.3103365276715A222.94134318557045 222.94134318557045 0 0 1 -188.7713900408245 118.60946338063079L-169.31886013087936 106.44775058205653A200 200 0 0 0 -150.93850342714975 131.21573146224617" fill="#ebac23"/><path d="M-169.84898073478934 105.59982833013113L-176.42317439782937 109.71001120003243A207.75327439565942 207.75327439565942 0 0 1 -191.03511555944544 81.65174612528183L-183.89842203863194 78.62169148333817A200 200 0 0 0 -169.84898073478934 105.59982833013113" fill="#b80058"/><path d="M-184.28923053730733 77.70121947541874L-186.07408914387196 78.459024065214A201.93906285804994 201.93906285804994 0 0 1 -194.98854013042595 52.52479724656452L-193.11496886667246 52.02507856432439A200 200 0 0 0 -184.28923053730733 77.70121947541874" fill="#008cf9"/><path d="M-193.37267950949015 51.058856423935005L-195.1669540155555 51.53742508534362A201.85699424131272 201.85699424131272 0 0 1 -200.19964004916014 25.813760832627093L-198.35730444628655 25.580847773347738A200 200 0 0 0 -193.37267950949015 51.058856423935005" fill="#006e00"/><path d="M-198.48272881914636 24.5887445898568L-209.76170936823553 26.014663874673083A211.3687239247953 211.3687239247953 0 0 1 -211.36500768621696 -1.2533871715399731L-199.99664130862436 -1.1590794922892098A200 200 0 0 0 -198.48272881914636 24.5887445898568" fill="#00bbad"/><path d="M-199.98834597125722 -2.159045085386341L-204.675016726812 -2.1979239381333713A204.68681770392197 204.68681770392197 0 0 1 -202.9496549241625 -26.610729188091582L-198.30410201424073 -25.990058182420672A200 200 0 0 0 -199.98834597125722 -2.159045085386341" fill="#d163e6"/><path d="M-198.1716733281487 -26.981250718258227L-202.2413487643819 -27.524981377393782A204.10582487979667 204.10582487979667 0 0 1 -198.40578719301385 -47.899179097169636L-194.41698534071102 -46.92585439850577A200 200 0 0 0 -198.1716733281487 -26.981250718258227" fill="#b24502"/><path d="M-194.1799265896193 -47.89734971425926L-197.94072460088108 -48.815038214863385A203.8711318736432 203.8711318736432 0 0 1 -192.1851606395136 -68.03162824308093L-188.53909148428068 -66.73088477071201A200 200 0 0 0 -194.1799265896193 -47.89734971425926" fill="#ff9287"/><path d="M-188.20308136445524 -67.67274314614593L-196.23820214198437 -70.53929077760434A208.5311092459006 208.5311092459006 0 0 1 -188.8784712338592 -88.37503396144163L-181.16002894756588 -84.74104030348634A200 200 0 0 0 -188.20308136445524 -67.67274314614593" fill="#5954d6"/><path d="M-180.7340605697674 -85.64577835459056L-188.64446358045225 -89.37015087775468A208.7432813468956 208.7432813468956 0 0 1 -179.9584591744284 -105.77670102170323L-172.43145100523986 -101.32815356172024A200 200 0 0 0 -180.7340605697674 -85.64577835459056" fill="#00c6f8"/><path d="M-171.92265642754853 -102.18904152058134L-184.65450512669372 -109.7137089473174A214.7891621906488 214.7891621906488 0 0 1 -175.2276295649648 -124.21619069833176L-163.18235733850779 -115.63528117943743A200 200 0 0 0 -171.92265642754853 -102.18904152058134" fill="#878500"/><path d="M-162.6021429599479 -116.44974497538693L-163.52143990057192 -117.104641246736A201.12871080152405 201.12871080152405 0 0 1 -153.79027493607472 -129.61986593022556L-152.92903021406312 -128.89030885906888A200 200 0 0 0 -162.6021429599479 -116.44974497538693" fill="#00a76c"/><path d="M-152.28266907080427 -129.65334049175868L-156.70299280558237 -133.39777962164573A205.79308919934985 205.79308919934985 0 0 1 -146.09286945209922 -144.94022580865345L-141.99025815911003 -140.85015650651326A200 200 0 0 0 -152.28266907080427 -129.65334049175868" fill="#bdbdbd"/><path d="M-141.28423469913758 -141.55834495175128L-175.07321662167772 -175.2440314188346A247.71173110328542 247.71173110328542 0 0 1 -162.24800880940117 -187.18088941868734L-131.07019335218567 -151.06490133257515A200 200 0 0 0 -141.28423469913758 -141.55834495175128" fill="#ebac23"/><path d="M-130.31323282849863 -151.7183619400945L-141.1388982683053 -164.25867620889977A216.56662096059773 216.56662096059773 0 0 1 -130.6450523531229 -172.72223831904503L-120.68164628619225 -159.48648923860097A200 200 0 0 0 -130.31323282849863 -151.7183619400945" fill="#b80058"/><path d="M-119.88270781140089 -160.08790200326283L-147.54349100641983 -196.83348712530147A245.99289297105256 245.99289297105256 0 0 1 -135.1216825148856 -205.55932065127618L-109.93630677575533 -167.07485882833183A200 200 0 0 0 -119.88270781140089 -160.08790200326283" fill="#008cf9"/><path d="M-109.09956088832766 -167.62245020871782L-112.54826081217011 -172.89222906501243A206.2979250572167 206.2979250572167 0 0 1 -102.54323248072724 -179.00759580340866L-99.42600652840473 -173.53521033442644A200 200 0 0 0 -109.09956088832766 -167.62245020871782" fill="#006e00"/><path d="M-98.55709036314283 -174.03016962340553L-98.55887141678812 -174.03329631753584A200.00359837287482 200.00359837287482 0 0 1 -88.71274387910191 -179.25258278624352L-88.71115586261757 -179.24935376597142A200 200 0 0 0 -98.55709036314283 -174.03016962340553" fill="#00bbad"/><path d="M-87.81380300511489 -179.6906675422485L-130.08673827506033 -265.6470579806367A295.78863887717495 295.78863887717495 0 0 1 -115.07947156361244 -272.48419057525433L-77.9611001831303 -184.17944200761366A200 200 0 0 0 -87.81380300511489 -179.6906675422485" fill="#d163e6"/><path d="M-77.03923133714817 -184.56694404736012L-77.71456904935395 -186.1735750674357A201.74279242619033 201.74279242619033 0 0 1 -68.03960170789645 -189.92305519696058L-67.45589530117232 -188.2809129707982A200 200 0 0 0 -77.03923133714817 -184.56694404736012" fill="#b24502"/><path d="M-66.51365047952086 -188.6158378818919L-71.78298912357326 -203.44007724549235A215.7328499722908 215.7328499722908 0 0 1 -64.1311777750241 -205.98022864914773L-59.48906795255178 -190.94776980665858A200 200 0 0 0 -66.51365047952086 -188.6158378818919" fill="#ff9287"/><path d="M-58.53358847373258 -191.24282736978066L-61.73759132096848 -201.61829084958242A210.8588755239431 210.8588755239431 0 0 1 -54.52280143387324 -203.68782366902585L-51.7398424613482 -193.19158548465526A200 200 0 0 0 -58.53358847373258 -191.24282736978066" fill="#5954d6"/><path d="M-50.773240804517336 -193.44786899370717L-56.11654696304233 -213.60074033877243A220.8491410812526 220.8491410812526 0 0 1 -49.69464094817844 -215.18546832292986L-45.049236440118264 -194.8603764138885A200 200 0 0 0 -50.773240804517336 -193.44786899370717" fill="#00c6f8"/><path d="M-44.074374487291394 -195.08318613748855L-45.53264944464296 -201.46359337336992A206.54491429313694 206.54491429313694 0 0 1 -40.8490854025082 -202.4651916802932L-39.570206370679884 -196.0464199310505A200 200 0 0 0 -44.074374487291394 -195.08318613748855" fill="#878500"/><path d="M-38.589482706675035 -196.24181976436935L-42.59029028398552 -216.3221166589733A220.4749214361865 220.4749214361865 0 0 1 -38.00973379946369 -217.17378091930553L-34.52560822177189 -196.99741718336492A200 200 0 0 0 -38.589482706675035 -196.24181976436935" fill="#00a76c"/><path d="M-33.540192643841685 -197.16758221729552L-36.73027236890963 -215.64114393152627A218.74692195409634 218.74692195409634 0 0 1 -32.452123738262024 -216.3263172368726L-29.713306607699113 -197.78048288553867A200 200 0 0 0 -33.540192643841685 -197.16758221729552" fill="#bdbdbd"/><path d="M-28.72403586726363 -197.92657669827L-34.28366093893796 -235.57344420329406A238.05507140403157 238.05507140403157 0 0 1 -29.693198328181783 -236.19595888630658L-25.02579820820971 -198.42809635745127A200 200 0 0 0 -28.72403586726363 -197.92657669827" fill="#ebac23"/><path d="M-24.033348004388632 -198.55074460625914L-48.56303609364582 -397.04109551199764A400 400 0 0 1 -42.4648509195991 -397.7395334089588L-21.480996468708124 -198.84307076363348A200 200 0 0 0 -24.033348004388632 -198.55074460625914" fill="url(#diagonalHatch)"/><path d="M-20.486515709361868 -198.9479898719514L-23.595206195676926 -228.4138605314283A229.62932181733083 229.62932181733083 0 0 1 -21.660753726145323 -228.605418103558L-18.930070118121197 -199.10211562241878A200 200 0 0 0 -20.486515709361868 -198.9479898719514" fill="#008cf9"/><path d="M-17.93432602510798 -199.19427690078132L-20.25733400381142 -224.29290306911207A225.20583018232915 225.20583018232915 0 0 1 -18.488753985403218 -224.44561016909933L-16.475199847267806 -199.32026437367725A200 200 0 0 0 -17.93432602510798 -199.19427690078132" fill="#006e00"/><path d="M-15.47839569978526 -199.4001486121835L-18.72054268964709 -239.85600857495402A240.58546000975062 240.58546000975062 0 0 1 -16.867878517015697 -239.99341291468502L-14.106497742122254 -199.50189653597656A200 200 0 0 0 -15.47839569978526 -199.4001486121835" fill="#00bbad"/><path d="M-13.108815045442531 -199.5699350305661L-14.020343965179427 -212.93614244345505A213.39721367347167 213.39721367347167 0 0 1 -12.613494490699628 -213.02410793225823L-11.852946615559311 -199.648460190728A200 200 0 0 0 -13.108815045442531 -199.5699350305661" fill="#d163e6"/><path d="M-10.854559272284975 -199.70522913285083L-13.274658050109787 -242.26716350932227A242.6305732202767 242.6305732202767 0 0 1 -11.681063133373181 -242.34922699541295L-9.71643018837716 -199.76383802979555A200 200 0 0 0 -10.854559272284975 -199.70522913285083" fill="#b24502"/><path d="M-8.71749266416561 -199.80992298094262L-8.838565762133554 -202.43430377602454A202.62716399835273 202.62716399835273 0 0 1 -7.815841083250316 -202.47636953031508L-7.720982682885137 -199.85091049682657A200 200 0 0 0 -8.71749266416561 -199.80992298094262" fill="#ff9287"/><path d="M-6.721634740792758 -199.88701715321926L-8.048237769567383 -236.60429145193802A236.7411347118813 236.7411347118813 0 0 1 -7.347807911384098 -236.62707914261742L-6.285021987659074 -199.90122185373116A200 200 0 0 0 -6.721634740792758 -199.88701715321926" fill="#5954d6"/><path d="M-5.285440439076978 -199.93014810019264L-9.556593530644603 -347.52502623906156A347.6563998294442 347.6563998294442 0 0 1 -8.36333174036149 -347.55578980153825L-5.023558815885233 -199.9368996879349A200 200 0 0 0 -5.285440439076978 -199.93014810019264" fill="#00c6f8"/><path d="M-4.023814646979233 -199.959518192275L-5.2479142998152595 -254.06506255902173A254.11925668397865 254.11925668397865 0 0 1 -4.7718033546952 -254.07445072333022L-3.8620271137434345 -199.96270838977128A200 200 0 0 0 -4.023814646979233 -199.959518192275" fill="#878500"/><path d="M-2.8621684208777904 -199.9795189311409L-2.9909740606646547 -207.64063083703155A207.66217156774601 207.66217156774601 0 0 1 -2.959749447921291 -207.64107826592866L-2.868989526298054 -199.9794211890263A200 200 0 0 0 -2.8621684208777904 -199.9795189311409" fill="#00a76c"/><path d="M-1.869059682667116 -199.99126634906492L-2.501139598959578 -253.34939488435663A253.3617405757293 253.3617405757293 0 0 1 -2.3857690997278067 -253.3505075845832L-1.9885934863015653 -199.99011349550818A200 200 0 0 0 -1.869059682667116 -199.99126634906492" fill="#bdbdbd"/><path d="M-0.9886211862557854 -199.99755655544917L-2.477235500416964 -399.99232905679014A400 400 0 0 1 -2.264506743068058 -399.9935899601525L-1.382248871302983 -199.995223413105A200 200 0 0 0 -0.9886211862557854 -199.99755655544917" fill="url(#diagonalHatch)"/><path d="M-0.38225860105674914 -199.9996346955712L-0.8189755420287577 -298.9986661953559A298.999787805176 298.999787805176 0 0 1 -0.9864925322163699 -298.9981604291641L-0.8254125149024717 -199.99829672819777A200 200 0 0 0 -0.38225860105674914 -199.9996346955712" fill="#b80058"/><path d="M0.17458616141675048 -199.99992379916608L0.11722643355939649 -235.253242829652A235.253272036552 235.253272036552 0 0 1 -0.6224021224445153 -235.25244870033112L-0.6040597679303653 -199.99908777741155A200 200 0 0 0 0.17458616141675048 -199.99992379916608" fill="#008cf9"/><path d="M0.39594009671322833 -199.99960807821552L0.3101289791613185 -364.92556106439855A364.9256928446527 364.9256928446527 0 0 1 -0.5110210322140776 -364.9253350421898L-0.5060401381137324 -199.99935980742194A200 200 0 0 0 0.39594009671322833 -199.99960807821552" fill="#006e00"/><path d="M0.49395986143029 -199.99939000820802L0.4900054545409597 -330.9366072096817A330.936969975856 330.936969975856 0 0 1 -0.5000000000002862 -330.9365922602102L-0.5000000000002475 -199.99937499902342A200 200 0 0 0 0.49395986143029 -199.99939000820802" fill="#00bbad"/></g><g><defs><path d="M50.01277575463141 -86.59516303649386L250.06387877315706 -432.9758151824693" stroke="#aaa" stroke-width="2" fill="none" id="textpath--8758372578225684012"/></defs><text text-anchor="middle" dominant-baseline="middle" class="label"><textPath href="#textpath--8758372578225684012" startOffset="50%"><tspan>Nigeria | 1.5%</tspan></textPath></text><defs><path d="M97.33772751350268 -22.920881364099056L486.6886375675134 -114.60440682049527" stroke="#aaa" stroke-width="2" fill="none" id="textpath-3477846734816357078"/></defs><text text-anchor="middle" dominant-baseline="middle" class="label"><textPath href="#textpath-3477846734816357078" startOffset="50%"><tspan>Ethiopia | 1.2%</tspan></textPath></text><defs><path d="M95.83464463483624 28.560827854154592L479.1732231741812 142.80413927077296" stroke="#aaa" stroke-width="2" fill="none" id="textpath--1275246445269257359"/></defs><text text-anchor="middle" dominant-baseline="middle" class="label"><textPath href="#textpath--1275246445269257359" startOffset="50%"><tspan>Democratic Republic of Congo | 0.0%</tspan></textPath></text><defs><path d="M78.3280678477949 62.166822238483775L391.64033923897443 310.8341111924189" stroke="#aaa" stroke-width="2" fill="none" id="textpath-376230758795771704"/></defs><text text-anchor="middle" dominant-baseline="middle" class="label"><textPath href="#textpath-376230758795771704" startOffset="50%"><tspan>Tanzania | 1.6%</tspan></textPath></text><defs><path d="M56.365876466099394 82.6007746344332L281.82938233049697 413.003873172166" stroke="#aaa" stroke-width="2" fill="none" id="textpath-252205035969798503"/></defs><text text-anchor="middle" dominant-baseline="middle" class="label"><textPath href="#textpath-252205035969798503" startOffset="50%"><tspan>South Africa | 22.2%</tspan></textPath></text><defs><path d="M30.87008768429139 95.11591710310195L154.35043842145697 475.57958551550973" stroke="#aaa" stroke-width="2" fill="none" id="textpath--6112938554548705421"/></defs><text text-anchor="middle" dominant-baseline="middle" class="label"><textPath href="#textpath--6112938554548705421" startOffset="50%"><tspan>Kenya | 3.7%</tspan></textPath></text><defs><path d="M6.081321000044201 99.81491639476747L30.406605000221003 499.0745819738374" stroke="#aaa" stroke-width="2" fill="none" id="textpath-1407000360350006941"/></defs><text text-anchor="middle" dominant-baseline="middle" class="label"><textPath href="#textpath-1407000360350006941" startOffset="50%"><tspan>Uganda | 0.9%</tspan></textPath></text><defs><path d="M-83.1918842692732 493.03053697689745L-16.63837685385464 98.6061073953795" stroke="#aaa" stroke-width="2" fill="none" id="textpath-8678770165641503204"/></defs><text text-anchor="middle" dominant-baseline="middle" class="label"><textPath href="#textpath-8678770165641503204" startOffset="50%"><tspan>Sudan | 1.3%</tspan></textPath></text><defs><path d="M-189.6141846708205 462.6515545976475L-37.9228369341641 92.53031091952948" stroke="#aaa" stroke-width="2" fill="none" id="textpath--5093355697527230784"/></defs><text text-anchor="middle" dominant-baseline="middle" class="label"><textPath href="#textpath--5093355697527230784" startOffset="50%"><tspan>Algeria | 11.0%</tspan></textPath></text><defs><path d="M-279.02004118062376 414.90699755434713L-55.80400823612476 82.98139951086942" stroke="#aaa" stroke-width="2" fill="none" id="textpath-1289418228383009687"/></defs><text text-anchor="middle" dominant-baseline="middle" class="label"><textPath href="#textpath-1289418228383009687" startOffset="50%"><tspan>Morocco | 59.6%</tspan></textPath></text><defs><path d="M-347.5700000414726 359.43719210895625L-69.51400000829452 71.88743842179124" stroke="#aaa" stroke-width="2" fill="none" id="textpath-941766735438680806"/></defs><text text-anchor="middle" dominant-baseline="middle" class="label"><textPath href="#textpath-941766735438680806" startOffset="50%"><tspan>Angola | 5.8%</tspan></textPath></text><defs><path d="M-401.51710694802034 297.96646258948675L-80.30342138960407 59.59329251789735" stroke="#aaa" stroke-width="2" fill="none" id="textpath--2293066098129309441"/></defs><text text-anchor="middle" dominant-baseline="middle" class="label"><textPath href="#textpath--2293066098129309441" startOffset="50%"><tspan>Mozambique | 8.1%</tspan></textPath></text><defs><path d="M-443.4682993825937 230.94559411842042L-88.69365987651875 46.18911882368408" stroke="#aaa" stroke-width="2" fill="none" id="textpath--5192457409497719970"/></defs><text text-anchor="middle" dominant-baseline="middle" class="label"><textPath href="#textpath--5192457409497719970" startOffset="50%"><tspan>Ghana | 2.6%</tspan></textPath></text><defs><path d="M-472.8457629407377 162.5327181492751L-94.56915258814755 32.50654362985502" stroke="#aaa" stroke-width="2" fill="none" id="textpath--1943163599223515887"/></defs><text text-anchor="middle" dominant-baseline="middle" class="label"><textPath href="#textpath--1943163599223515887" startOffset="50%"><tspan>Madagascar | 0.6%</tspan></textPath></text><defs><path d="M-490.69706358466544 96.0020405480361L-98.1394127169331 19.20040810960722" stroke="#aaa" stroke-width="2" fill="none" id="textpath--216598523425789948"/></defs><text text-anchor="middle" dominant-baseline="middle" class="label"><textPath href="#textpath--216598523425789948" startOffset="50%"><tspan>Cameroon | 0.6%</tspan></textPath></text><defs><path d="M-499.1379425794882 29.34815628818226L-99.82758851589763 5.869631257636452" stroke="#aaa" stroke-width="2" fill="none" id="textpath--1645924731532567574"/></defs><text text-anchor="middle" dominant-baseline="middle" class="label"><textPath href="#textpath--1645924731532567574" startOffset="50%"><tspan>Cote d'Ivoire | 3.9%</tspan></textPath></text><defs><path d="M-498.7559387295422 -35.24930612101663L-99.75118774590844 -7.049861224203326" stroke="#aaa" stroke-width="2" fill="none" id="textpath--6206242136432171916"/></defs><text text-anchor="middle" dominant-baseline="middle" class="label"><textPath href="#textpath--6206242136432171916" startOffset="50%"><tspan>Niger | 1.6%</tspan></textPath></text><defs><path d="M-491.36869134111095 -92.50302248966808L-98.27373826822219 -18.50060449793362" stroke="#aaa" stroke-width="2" fill="none" id="textpath--4515902128316842553"/></defs><text text-anchor="middle" dominant-baseline="middle" class="label"><textPath href="#textpath--4515902128316842553" startOffset="50%"><tspan>Burkina Faso | 1.4%</tspan></textPath></text><defs><path d="M-478.9776691659488 -143.45867851181015L-95.79553383318977 -28.69173570236203" stroke="#aaa" stroke-width="2" fill="none" id="textpath-4786735638918633714"/></defs><text text-anchor="middle" dominant-baseline="middle" class="label"><textPath href="#textpath-4786735638918633714" startOffset="50%"><tspan>Mali | 1.3%</tspan></textPath></text><defs><path d="M-462.1965795714347 -190.72053332681935L-92.43931591428695 -38.14410666536387" stroke="#aaa" stroke-width="2" fill="none" id="textpath--5286652108661492859"/></defs><text text-anchor="middle" dominant-baseline="middle" class="label"><textPath href="#textpath--5286652108661492859" startOffset="50%"><tspan>Malawi | 2.9%</tspan></textPath></text><defs><path d="M-441.89191173113426 -233.94772567093585L-88.37838234622684 -46.78954513418717" stroke="#aaa" stroke-width="2" fill="none" id="textpath--1697630686152929352"/></defs><text text-anchor="middle" dominant-baseline="middle" class="label"><textPath href="#textpath--1697630686152929352" startOffset="50%"><tspan>Zambia | 3.0%</tspan></textPath></text><defs><path d="M-419.218341850551 -272.49950799235324L-83.8436683701102 -54.49990159847064" stroke="#aaa" stroke-width="2" fill="none" id="textpath--3905522898875739777"/></defs><text text-anchor="middle" dominant-baseline="middle" class="label"><textPath href="#textpath--3905522898875739777" startOffset="50%"><tspan>Senegal | 5.1%</tspan></textPath></text><defs><path d="M-394.7204091076519 -306.9133405928911L-78.94408182153038 -61.38266811857821" stroke="#aaa" stroke-width="2" fill="none" id="textpath--182180096725279457"/></defs><text text-anchor="middle" dominant-baseline="middle" class="label"><textPath href="#textpath--182180096725279457" startOffset="50%"><tspan>Chad | 0.4%</tspan></textPath></text><defs><path d="M-368.1073306229168 -338.37404324455895L-73.62146612458335 -67.67480864891179" stroke="#aaa" stroke-width="2" fill="none" id="textpath-5957052676393477332"/></defs><text text-anchor="middle" dominant-baseline="middle" class="label"><textPath href="#textpath-5957052676393477332" startOffset="50%"><tspan>Somalia | 2.0%</tspan></textPath></text><defs><path d="M-340.6503639487479 -366.00181630913477L-68.13007278974958 -73.20036326182695" stroke="#aaa" stroke-width="2" fill="none" id="textpath--2166230696103807314"/></defs><text text-anchor="middle" dominant-baseline="middle" class="label"><textPath href="#textpath--2166230696103807314" startOffset="50%"><tspan>Zimbabwe | 17.8%</tspan></textPath></text><defs><path d="M-313.89382446419086 -389.1923264444505L-62.77876489283817 -77.8384652888901" stroke="#aaa" stroke-width="2" fill="none" id="textpath--4282711377648706929"/></defs><text text-anchor="middle" dominant-baseline="middle" class="label"><textPath href="#textpath--4282711377648706929" startOffset="50%"><tspan>Guinea | 5.8%</tspan></textPath></text><defs><path d="M-287.4064984681073 -409.14240141826144L-57.481299693621466 -81.8284802836523" stroke="#aaa" stroke-width="2" fill="none" id="textpath-4393316220811597992"/></defs><text text-anchor="middle" dominant-baseline="middle" class="label"><textPath href="#textpath-4393316220811597992" startOffset="50%"><tspan>Rwanda | 17.1%</tspan></textPath></text><defs><path d="M-260.76172372605777 -426.6184752673226L-52.15234474521155 -85.32369505346452" stroke="#aaa" stroke-width="2" fill="none" id="textpath-2583378485892124261"/></defs><text text-anchor="middle" dominant-baseline="middle" class="label"><textPath href="#textpath-2583378485892124261" startOffset="50%"><tspan>Benin | 2.1%</tspan></textPath></text><defs><path d="M-234.17620211467516 -441.7708754129756L-46.83524042293503 -88.35417508259512" stroke="#aaa" stroke-width="2" fill="none" id="textpath-7061241410521566057"/></defs><text text-anchor="middle" dominant-baseline="middle" class="label"><textPath href="#textpath-7061241410521566057" startOffset="50%"><tspan>Burundi | 0.0%</tspan></textPath></text><defs><path d="M-207.29458063674514 -455.00434815354896L-41.45891612734903 -91.00086963070979" stroke="#aaa" stroke-width="2" fill="none" id="textpath-3285809828006389053"/></defs><text text-anchor="middle" dominant-baseline="middle" class="label"><textPath href="#textpath-3285809828006389053" startOffset="50%"><tspan>Tunisia | 39.6%</tspan></textPath></text><defs><path d="M-180.6785612082811 -466.2137466009614L-36.13571224165622 -93.24274932019227" stroke="#aaa" stroke-width="2" fill="none" id="textpath--2460180831644845531"/></defs><text text-anchor="middle" dominant-baseline="middle" class="label"><textPath href="#textpath--2460180831644845531" startOffset="50%"><tspan>South Sudan | 0.6%</tspan></textPath></text><defs><path d="M-157.5303688914754 -474.5357551090494L-31.50607377829508 -94.90715102180988" stroke="#aaa" stroke-width="2" fill="none" id="textpath--2103100496328847859"/></defs><text text-anchor="middle" dominant-baseline="middle" class="small-label-8"><textPath href="#textpath--2103100496328847859" startOffset="50%"><tspan>Togo | 5.5%</tspan></textPath></text><defs><path d="M-137.8633110887393 -480.6180473678132L-27.572662217747855 -96.12360947356264" stroke="#aaa" stroke-width="2" fill="none" id="textpath--3126669447138250657"/></defs><text text-anchor="middle" dominant-baseline="middle" class="small-label-8"><textPath href="#textpath--3126669447138250657" startOffset="50%"><tspan>Sierra Leone | 3.7%</tspan></textPath></text><defs><path d="M-119.79110934841152 -485.43803942529775L-23.958221869682305 -97.08760788505954" stroke="#aaa" stroke-width="2" fill="none" id="textpath--112475607497498233"/></defs><text text-anchor="middle" dominant-baseline="middle" class="small-label-6"><textPath href="#textpath--112475607497498233" startOffset="50%"><tspan>Libya | 7.3%</tspan></textPath></text><defs><path d="M-104.56265859407246 -488.9444246821303L-20.912531718814492 -97.78888493642607" stroke="#aaa" stroke-width="2" fill="none" id="textpath-2441956077247125817"/></defs><text text-anchor="middle" dominant-baseline="middle" class="small-label-5"><textPath href="#textpath-2441956077247125817" startOffset="50%"><tspan>Congo | 2.2%</tspan></textPath></text><defs><path d="M-91.39874391347202 -491.5752939388223L-18.2797487826944 -98.31505878776447" stroke="#aaa" stroke-width="2" fill="none" id="textpath--5416258163739406740"/></defs><text text-anchor="middle" dominant-baseline="middle" class="small-label-5"><textPath href="#textpath--5416258163739406740" startOffset="50%"><tspan>Liberia | 7.2%</tspan></textPath></text><defs><path d="M-79.0705857011018 -493.70825643985813L-15.81411714022036 -98.74165128797162" stroke="#aaa" stroke-width="2" fill="none" id="textpath-5274969270716118402"/></defs><text text-anchor="middle" dominant-baseline="middle" class="small-label-4"><textPath href="#textpath-5274969270716118402" startOffset="50%"><tspan>Central African Republic | 6.5%</tspan></textPath></text><defs><path d="M-67.19021721376953 -495.4649076481264L-13.438043442753905 -99.09298152962529" stroke="#aaa" stroke-width="2" fill="none" id="textpath--4873388442414034240"/></defs><text text-anchor="middle" dominant-baseline="middle" class="small-label-4"><textPath href="#textpath--4873388442414034240" startOffset="50%"><tspan>Mauritania | 13.9%</tspan></textPath></text></g><text y="654" class="legend">
            <tspan x="-654">* Showing percentage of population fully vaccinated, having received all shots according to each countries chosen vaccine(s).</tspan>
            <tspan x="-654" dy="1.2em">Countries where no data was available are not counted towards a region's percentage.</tspan>
            </text><text y="-654" class="title" text-anchor="middle">
                <tspan x="0">Covid Vaccinations* by Country</tspan>
            </text><text xmlns:xlink="http://www.w3.org/1999/xlink" y="654" class="sources" text-anchor="end">
    <tspan x="654">Data source:
        <a xlink:href="https://github.com/owid/covid-19-data/tree/master/public/data/vaccinations">
            <tspan>https://github.com/owid/covid-19-data/tree/master/public/data/vaccinations</tspan>
        </a>
    </tspan>
    <tspan x="654" dy="1.2em">Code source:
        <a xlink:href="https://github.com/WorldSEnder/vis_covid_vacc">
            <tspan>https://github.com/WorldSEnder/vis_covid_vacc</tspan>
        </a>
    </tspan>
    <tspan x="654" dy="1.2em">Timestamp: Sat Nov 13 22:00:15 2021 +0000</tspan>
</text><text text-anchor="middle" dominant-baseline="middle" class="label_all" x="0" y="0">
    <tspan>Africa | 6.0%</tspan>
</text></svg>