<svg xmlns="http://www.w3.org/2000/svg" viewBox="-664 -684 1328 1388"><style>
text {
    font-family: "Open Sans";
}
.legend, .sources {
    font-size: 10pt;
}
.title {
    font-size: 20pt;
    font-weight: bold;
}
.label_all {
    font-size: 18pt;
}
.label {
}
.small-label-9 {
   font-size: 9pt;
}
.small-label-8 {
   font-size: 8pt;
}
.small-label-7 {
   font-size: 7pt;
}
.small-label-6 {
   font-size: 6pt;
}
.small-label-5 {
   font-size: 5pt;
}
.small-label-4 {
   font-size: 4pt;
}
a {
    text-decoration: underline;
}
</style><style type="text/css">
@font-face{
  font-family:'Open Sans';src:local('Open Sans')
             , local('OpenSans')
             , url(https://fonts.gstatic.com/s/opensans/v18/mem5YaGs126MiZpBA-UN_r8OUuhp.woff2) format('woff2');
  }
</style><defs><pattern id="diagonalHatch" width="10" height="10" patternTransform="rotate(45 0 0)" patternUnits="userSpaceOnUse">
  <line x1="0" y1="0" x2="0" y2="10" style="stroke:#444; stroke-width:1"/>
</pattern></defs><circle cx="0" cy="0" r="199.0" stroke="#aaa" stroke-width="2" fill="none"/><path d="M2.4554168322904432e-14 -401.0A401.0 401.0 0 0 1 346.80622317536546 201.3118068242362" stroke="#aaa" stroke-width="2" fill="none"/><path d="M346.80622317536546 201.3118068242362A401.0 401.0 0 0 1 -332.6074821787049 223.9938900924364" stroke="#aaa" stroke-width="2" fill="none"/><path d="M-332.6074821787049 223.9938900924364A401.0 401.0 0 0 1 -393.6729649178609 76.30594139895452" stroke="#aaa" stroke-width="2" fill="none"/><path d="M-393.6729649178609 76.30594139895452A401.0 401.0 0 0 1 -397.3248352802921 -54.16618197259923" stroke="#aaa" stroke-width="2" fill="none"/><path d="M-397.3248352802921 -54.16618197259923A401.0 401.0 0 0 1 -372.8488289123116 -147.5965811891244" stroke="#aaa" stroke-width="2" fill="none"/><path d="M-372.8488289123116 -147.5965811891244A401.0 401.0 0 0 1 -339.7628822857054 -212.98399897858496" stroke="#aaa" stroke-width="2" fill="none"/><path d="M-339.7628822857054 -212.98399897858496A401.0 401.0 0 0 1 -301.1682930662936 -264.76151391683635" stroke="#aaa" stroke-width="2" fill="none"/><path d="M-301.1682930662936 -264.76151391683635A401.0 401.0 0 0 1 -260.50770741316376 -304.85526791961047" stroke="#aaa" stroke-width="2" fill="none"/><path d="M-260.50770741316376 -304.85526791961047A401.0 401.0 0 0 1 -228.25889016733848 -329.6951304759822" stroke="#aaa" stroke-width="2" fill="none"/><path d="M-228.25889016733848 -329.6951304759822A401.0 401.0 0 0 1 -201.3311365707586 -346.795002050385" stroke="#aaa" stroke-width="2" fill="none"/><path d="M-201.3311365707586 -346.795002050385A401.0 401.0 0 0 1 -174.96552758934618 -360.81583135358926" stroke="#aaa" stroke-width="2" fill="none"/><path d="M-174.96552758934618 -360.81583135358926A401.0 401.0 0 0 1 -153.8173316563833 -370.32584095916155" stroke="#aaa" stroke-width="2" fill="none"/><path d="M-153.8173316563833 -370.32584095916155A401.0 401.0 0 0 1 -135.39268462349764 -377.45174651926317" stroke="#aaa" stroke-width="2" fill="none"/><path d="M-135.39268462349764 -377.45174651926317A401.0 401.0 0 0 1 -117.28517601561731 -383.4647147874047" stroke="#aaa" stroke-width="2" fill="none"/><path d="M-117.28517601561731 -383.4647147874047A401.0 401.0 0 0 1 -100.66084238135808 -388.1602694906775" stroke="#aaa" stroke-width="2" fill="none"/><path d="M-100.66084238135808 -388.1602694906775A401.0 401.0 0 0 1 -86.00489006621589 -391.6684297779158" stroke="#aaa" stroke-width="2" fill="none"/><path d="M-86.00489006621589 -391.6684297779158A401.0 401.0 0 0 1 -72.39135369770442 -394.41157679486776" stroke="#aaa" stroke-width="2" fill="none"/><path d="M-72.39135369770442 -394.41157679486776A401.0 401.0 0 0 1 -60.04847012306477 -396.4784751230253" stroke="#aaa" stroke-width="2" fill="none"/><path d="M-60.04847012306477 -396.4784751230253A401.0 401.0 0 0 1 -49.09327307470471 -397.98348023355504" stroke="#aaa" stroke-width="2" fill="none"/><path d="M-49.09327307470471 -397.98348023355504A401.0 401.0 0 0 1 -39.28777537267376 -399.0707590218385" stroke="#aaa" stroke-width="2" fill="none"/><path d="M-39.28777537267376 -399.0707590218385A401.0 401.0 0 0 1 -33.36049671913514 -399.60990635700284" stroke="#aaa" stroke-width="2" fill="none"/><path d="M-33.36049671913514 -399.60990635700284A401.0 401.0 0 0 1 -27.701005350610746 -400.0420656663064" stroke="#aaa" stroke-width="2" fill="none"/><path d="M-27.701005350610746 -400.0420656663064A401.0 401.0 0 0 1 -23.312859910029083 -400.3217587926184" stroke="#aaa" stroke-width="2" fill="none"/><path d="M-23.312859910029083 -400.3217587926184A401.0 401.0 0 0 1 -19.02277242091022 -400.5485415395021" stroke="#aaa" stroke-width="2" fill="none"/><path d="M-19.02277242091022 -400.5485415395021A401.0 401.0 0 0 1 -15.1674194981485 -400.7130511797278" stroke="#aaa" stroke-width="2" fill="none"/><path d="M-15.1674194981485 -400.7130511797278A401.0 401.0 0 0 1 -11.607692319397733 -400.8319616485419" stroke="#aaa" stroke-width="2" fill="none"/><path d="M-11.607692319397733 -400.8319616485419A401.0 401.0 0 0 1 -8.175829282081487 -400.91664447307534" stroke="#aaa" stroke-width="2" fill="none"/><path d="M-8.175829282081487 -400.91664447307534A401.0 401.0 0 0 1 -5.859252074650828 -400.95719118769483" stroke="#aaa" stroke-width="2" fill="none"/><path d="M-5.859252074650828 -400.95719118769483A401.0 401.0 0 0 1 -3.921164227933665 -400.98082805926964" stroke="#aaa" stroke-width="2" fill="none"/><path d="M-3.921164227933665 -400.98082805926964A401.0 401.0 0 0 1 -2.1932377382179395 -400.9940020850981" stroke="#aaa" stroke-width="2" fill="none"/><path d="M-2.1932377382179395 -400.9940020850981A401.0 401.0 0 0 1 -1.410871654157826 -400.997517998772" stroke="#aaa" stroke-width="2" fill="none"/><path d="M-1.410871654157826 -400.997517998772A401.0 401.0 0 0 1 -0.9568332388457519 -400.9988584399625" stroke="#aaa" stroke-width="2" fill="none"/><path d="M-0.9568332388457519 -400.9988584399625A401.0 401.0 0 0 1 -0.5735333678654881 -400.99958984951087" stroke="#aaa" stroke-width="2" fill="none"/><path d="M-0.5735333678654881 -400.99958984951087A401.0 401.0 0 0 1 -0.2570500836168605 -400.99991761252835" stroke="#aaa" stroke-width="2" fill="none"/><path d="M-0.2570500836168605 -400.99991761252835A401.0 401.0 0 0 1 -4.298220512684635e-13 -401.0" stroke="#aaa" stroke-width="2" fill="none"/><g><circle fill="#279ee3" r="116.57818097327785"/><path d="M0.5000000000000009 -199.99937499902342L0.5000000000000312 -352.2106237128752A352.21097861397305 352.21097861397305 0 0 1 304.8615762481651 176.38592002678902L173.22115656921957 99.97215070619376A200 200 0 0 0 0.5000000000000009 -199.99937499902342" fill="#d163e6"/><path d="M172.71913211329877 100.83700413057124L205.27309472382348 119.73371530377163A237.64091818948276 237.64091818948276 0 0 1 -196.83036300158724 133.15785443827124L-165.6092060117047 112.1320243470738A200 200 0 0 0 172.71913211329877 100.83700413057124" fill="#b24502"/><path d="M-166.16779426629935 111.30257925435876L-202.02259986045834 135.44893137769643A243.22735015976056 243.22735015976056 0 0 1 -238.68747331225157 46.77428726931038L-196.24986026654656 38.54857124928168A200 200 0 0 0 -166.16779426629935 111.30257925435876" fill="#ff9287"/><path d="M-196.4401493972173 37.56684315721713L-225.61559485437033 43.221942769674456A229.71837753709733 229.71837753709733 0 0 1 -227.68000848971366 -30.534352988073913L-198.2339197472186 -26.520050181952758A200 200 0 0 0 -196.4401493972173 37.56684315721713" fill="#5954d6"/><path d="M-198.09884198668843 -27.510885182651805L-222.1977478914779 -30.796221528814247A224.32174756027683 224.32174756027683 0 0 1 -208.75733517010903 -82.10128769496443L-186.1429701799868 -73.1491261230956A200 200 0 0 0 -198.09884198668843 -27.510885182651805" fill="#00c6f8"/><path d="M-185.77489890520093 -74.0789237014306L-299.63552584194065 -119.15198807698074A322.4571981042961 322.4571981042961 0 0 1 -273.4796691585501 -170.8435400189402L-169.72283317829715 -105.80245695602686A200 200 0 0 0 -185.77489890520093 -74.0789237014306" fill="#878500"/><path d="M-169.1917010112682 -106.64974593928305L-206.2829720707255 -129.90080616192054A243.77629911016487 243.77629911016487 0 0 1 -183.4162549157256 -160.5782097313896L-150.53828214398968 -131.67469616117046A200 200 0 0 0 -169.1917010112682 -106.64974593928305" fill="#00a76c"/><path d="M-149.87802899207733 -132.4257392860241L-163.0462528137063 -144.0021201829427A217.5331955674207 217.5331955674207 0 0 1 -141.69913217721657 -165.05164983724765L-130.30874388783297 -151.72221744482627A200 200 0 0 0 -149.87802899207733 -132.4257392860241" fill="#bdbdbd"/><path d="M-129.54850631197354 -152.37186260047014L-164.61854398666947 -193.41205230324127A253.98324157401166 253.98324157401166 0 0 1 -144.9842096468158 -208.53552683782905L-114.25556842063949 -164.15134810557169A200 200 0 0 0 -129.54850631197354 -152.37186260047014" fill="#ebac23"/><path d="M-113.43338605037513 -164.72057227057755L-123.11625160316719 -178.70641798930836A217.0105878508783 217.0105878508783 0 0 1 -109.38720656428522 -187.42474297553716L-100.84663088034903 -172.71351145779715A200 200 0 0 0 -113.43338605037513 -164.72057227057755" fill="#b80058"/><path d="M-99.98180543882681 -173.21558411757465L-150.40792838813985 -260.0751117071082A300.43569803117043 300.43569803117043 0 0 1 -131.5367220243014 -270.1105318394273L-87.71422463820558 -179.739296749816A200 200 0 0 0 -99.98180543882681 -173.21558411757465" fill="#008cf9"/><path d="M-86.81443453507936 -180.17561976126078L-88.2185424831799 -183.0711865828185A203.2180370801218 203.2180370801218 0 0 1 -78.41277933906454 -187.48068335436835L-77.17838682237843 -184.50879818451835A200 200 0 0 0 -86.81443453507936 -180.17561976126078" fill="#006e00"/><path d="M-76.25488098457498 -184.89238255273878L-86.86481079702071 -210.43652077175963A227.65988805524225 227.65988805524225 0 0 1 -77.33699490951433 -214.12149319414712L-67.99795056707995 -188.08582806441572A200 200 0 0 0 -76.25488098457498 -184.89238255273878" fill="#00bbad"/><path d="M-67.05667439122138 -188.42346568193068L-109.6621530507846 -307.2002842084345A326.18676004626036 326.18676004626036 0 0 1 -95.88169321146046 -311.7763675078341L-58.974299893186114 -191.1073833008776A200 200 0 0 0 -67.05667439122138 -188.42346568193068" fill="#d163e6"/><path d="M-58.01802878399053 -191.3998650365774L-72.5079825717082 -238.77487171048062A249.54127293290708 249.54127293290708 0 0 1 -63.12484901270536 -241.42514437004854L-50.688742388758556 -193.47002712318536A200 200 0 0 0 -58.01802878399053 -191.3998650365774" fill="#b24502"/><path d="M-49.7207616668366 -193.72105166777726L-99.92574903060455 -387.3174985469578A400 400 0 0 1 -86.27871163300902 -390.58415728105007L-43.38343759349594 -195.23800178902476A200 200 0 0 0 -49.7207616668366 -193.72105166777726" fill="url(#diagonalHatch)"/><path d="M-42.40670834217937 -195.45247782410263L-46.47246253403028 -213.96802454428502A218.95662881347212 218.95662881347212 0 0 1 -40.019279854828376 -215.2683500686098L-36.59708549444283 -196.62312512345144A200 200 0 0 0 -42.40670834217937 -195.45247782410263" fill="#5954d6"/><path d="M-35.613515477497955 -196.80365219002925L-56.78550118707506 -312.15549797071526A317.27850235780636 317.27850235780636 0 0 1 -48.00574625794522 -313.62572659880806L-30.44363025392023 -197.66938401523538A200 200 0 0 0 -35.613515477497955 -196.80365219002925" fill="#00c6f8"/><path d="M-29.45490587705476 -197.81913082352233L-41.40314674702231 -276.7090727457527A279.78944136684237 279.78944136684237 0 0 1 -34.7499981431606 -277.6230702398849L-24.981585216244685 -198.43366750650836A200 200 0 0 0 -29.45490587705476 -197.81913082352233" fill="#878500"/><path d="M-23.989107709427774 -198.55609462140785L-40.40687571693682 -331.64969462140874A334.1021334078513 334.1021334078513 0 0 1 -33.23104800336031 -332.4453834786641L-20.092433663709993 -198.98817580316026A200 200 0 0 0 -23.989107709427774 -198.55609462140785" fill="#00a76c"/><path d="M-19.097244738468437 -199.08615030533653L-26.861096292503223 -277.9484962440301A279.2434154252392 279.2434154252392 0 0 1 -23.729399161770417 -278.2333565081191L-17.13686645052996 -199.26446699865156A200 200 0 0 0 -19.097244738468437 -199.08615030533653" fill="#bdbdbd"/><path d="M-16.14033301821817 -199.3476602573028L-19.141781647953007 -235.30062030947502A236.07793146052776 236.07793146052776 0 0 1 -16.806988548794646 -235.47890533676755L-14.314725161595812 -199.48706385013534A200 200 0 0 0 -16.14033301821817 -199.3476602573028" fill="#ebac23"/><path d="M-13.31711402527079 -199.55614366397728L-21.608842854695542 -319.3005459657819A320.03090591935853 320.03090591935853 0 0 1 -19.104706858508816 -319.46015544886933L-12.126479528284111 -199.63203273585657A200 200 0 0 0 -13.31711402527079 -199.55614366397728" fill="#b80058"/><path d="M-11.128170902866044 -199.69016954361226L-14.910174345929752 -264.6336503490579A265.05335726244533 265.05335726244533 0 0 1 -13.07310472360096 -264.7307615842542L-9.98707447805603 -199.75049022059937A200 200 0 0 0 -11.128170902866044 -199.69016954361226" fill="#008cf9"/><path d="M-8.98820030962828 -199.7979285558136L-10.123008015419618 -223.69274059608466A223.92167712543483 223.92167712543483 0 0 1 -8.969232095629597 -223.74197273261495L-8.064416323111171 -199.83734683328726A200 200 0 0 0 -8.98820030962828 -199.7979285558136" fill="#006e00"/><path d="M-7.065131906204051 -199.87517082206068L-7.083199699692092 -200.35250980892906A200.47767931797975 200.47767931797975 0 0 1 -6.302972473120629 -200.37857281337696L-6.289145111932158 -199.90109217750927A200 200 0 0 0 -7.065131906204051 -199.87517082206068" fill="#00bbad"/><path d="M-5.289564160190092 -199.9300390411487L-10.036044671277182 -363.83351286136934A363.9719045114445 363.9719045114445 0 0 1 -7.920767254724251 -363.8857083203249L-4.577603662722102 -199.94760699920124A200 200 0 0 0 -5.289564160190092 -199.9300390411487" fill="#d163e6"/><path d="M-3.5778115318664865 -199.96799560090219L-4.509195932927564 -245.6401220488334A245.68150603602075 245.68150603602075 0 0 1 -4.0897393726028834 -245.6474637361263L-3.4222577268971515 -199.97071823657257A200 200 0 0 0 -3.5778115318664865 -199.96799560090219" fill="#b24502"/><path d="M-2.4223644820399906 -199.98532983775624L-4.486160915098274 -341.2139389570356A341.24342891597456 341.24342891597456 0 0 1 -3.8368092373067966 -341.2218584340814L-2.455662865049649 -199.98492373149836A200 200 0 0 0 -2.4223644820399906 -199.98532983775624" fill="#ff9287"/><path d="M-1.4557106753755937 -199.9947021959072L-1.5713326436040163 -211.81828056882284A211.82410880116882 211.82410880116882 0 0 1 -1.658544478981037 -211.81761564992806L-1.593873261622 -199.99364881922097A200 200 0 0 0 -1.4557106753755937 -199.9947021959072" fill="#5954d6"/><path d="M-0.5938882190157041 -199.99911824001452L-0.8500883727019115 -246.8407000581831A246.84216385264352 246.84216385264352 0 0 1 -1.3684804403214486 -246.83837043040893L-1.2036713417326752 -199.9963779054538A200 200 0 0 0 -0.5938882190157041 -199.99911824001452" fill="#00c6f8"/><path d="M-0.20367753126185598 -199.99989628863125L-0.6863070442268853 -337.1727115773789A337.1734100574974 337.1734100574974 0 0 1 -1.3045331683088026 -337.17088641075475L-0.9772206458040802 -199.99761258527414A200 200 0 0 0 -0.20367753126185598 -199.99989628863125" fill="#878500"/><path d="M0.02277650741284986 -199.99999870307676L-0.23183059768137906 -306.70318829607237A306.7032759140372 306.7032759140372 0 0 1 -0.9386636507372436 -306.7018395232621L-0.7860501497230707 -199.99845530694012A200 200 0 0 0 0.02277650741284986 -199.99999870307676" fill="#00a76c"/><path d="M0.21394882745782068 -199.99988556471533L0.019531624367595007 -335.93132925563253A335.9313298234336 335.9313298234336 0 0 1 -0.7153392508193561 -335.9305681933348L-0.6282040271149533 -199.99901339681733A200 200 0 0 0 0.21394882745782068 -199.99988556471533" fill="#bdbdbd"/><path d="M0.37179576743007137 -199.99965441946975L0.3182579685884629 -283.51899284013865A283.51917146680074 283.51917146680074 0 0 1 -0.5000000000003786 -283.518730579165L-0.5000000000002475 -199.99937499902342A200 200 0 0 0 0.37179576743007137 -199.99965441946975" fill="#ebac23"/></g><g><defs><path d="M86.66096168173962 -49.89867453546293L433.30480840869814 -249.49337267731468" stroke="#aaa" stroke-width="2" fill="none" id="textpath-5109994065820825875"/></defs><text text-anchor="middle" dominant-baseline="middle" class="label"><textPath href="#textpath-5109994065820825875" startOffset="50%"><tspan>China | 70.0%</tspan></textPath></text><defs><path d="M3.336620023142166 99.94431933242213L16.68310011571083 499.72159666211064" stroke="#aaa" stroke-width="2" fill="none" id="textpath--7526740979406167193"/></defs><text text-anchor="middle" dominant-baseline="middle" class="label"><textPath href="#textpath--7526740979406167193" startOffset="50%"><tspan>India | 13.7%</tspan></textPath></text><defs><path d="M-462.0600982250106 191.05095034648105L-92.41201964500212 38.21019006929621" stroke="#aaa" stroke-width="2" fill="none" id="textpath-4186301741914126136"/></defs><text text-anchor="middle" dominant-baseline="middle" class="label"><textPath href="#textpath-4186301741914126136" startOffset="50%"><tspan>Indonesia | 16.0%</tspan></textPath></text><defs><path d="M-499.804259737145 13.989351257457072L-99.96085194742899 2.7978702514914144" stroke="#aaa" stroke-width="2" fill="none" id="textpath--5968016505238413027"/></defs><text text-anchor="middle" dominant-baseline="middle" class="label"><textPath href="#textpath--5968016505238413027" startOffset="50%"><tspan>Pakistan | 10.6%</tspan></textPath></text><defs><path d="M-483.6783203568587 -126.70944091411654L-96.73566407137174 -25.341888182823308" stroke="#aaa" stroke-width="2" fill="none" id="textpath-3366310799161590070"/></defs><text text-anchor="middle" dominant-baseline="middle" class="label"><textPath href="#textpath-3366310799161590070" startOffset="50%"><tspan>Bangladesh | 8.6%</tspan></textPath></text><defs><path d="M-446.1379762729414 -225.74522392973097L-89.22759525458828 -45.149044785946195" stroke="#aaa" stroke-width="2" fill="none" id="textpath-2252398373911266193"/></defs><text text-anchor="middle" dominant-baseline="middle" class="label"><textPath href="#textpath-2252398373911266193" startOffset="50%"><tspan>Japan | 53.3%</tspan></textPath></text><defs><path d="M-400.8847836779085 -298.8166498298187L-80.17695673558171 -59.76332996596374" stroke="#aaa" stroke-width="2" fill="none" id="textpath--7460896243309339595"/></defs><text text-anchor="middle" dominant-baseline="middle" class="label"><textPath href="#textpath--7460896243309339595" startOffset="50%"><tspan>Philippines | 16.2%</tspan></textPath></text><defs><path d="M-351.06307696719455 -356.02628553286013L-70.21261539343891 -71.20525710657203" stroke="#aaa" stroke-width="2" fill="none" id="textpath--1839212017984048727"/></defs><text text-anchor="middle" dominant-baseline="middle" class="label"><textPath href="#textpath--1839212017984048727" startOffset="50%"><tspan>Vietnam | 6.1%</tspan></textPath></text><defs><path d="M-305.11059248807226 -396.11554671784535L-61.02211849761445 -79.22310934356906" stroke="#aaa" stroke-width="2" fill="none" id="textpath-6872212515873448816"/></defs><text text-anchor="middle" dominant-baseline="middle" class="label"><textPath href="#textpath-6872212515873448816" startOffset="50%"><tspan>Thailand | 20.4%</tspan></textPath></text><defs><path d="M-268.0362986515363 -422.0859422027515L-53.607259730307256 -84.41718844055029" stroke="#aaa" stroke-width="2" fill="none" id="textpath--8825384644339709474"/></defs><text text-anchor="middle" dominant-baseline="middle" class="label"><textPath href="#textpath--8825384644339709474" startOffset="50%"><tspan>Myanmar | 5.9%</tspan></textPath></text><defs><path d="M-234.76170941638588 -441.46000927818636L-46.95234188327718 -88.29200185563727" stroke="#aaa" stroke-width="2" fill="none" id="textpath-1090021507096357942"/></defs><text text-anchor="middle" dominant-baseline="middle" class="label"><textPath href="#textpath-1090021507096357942" startOffset="50%"><tspan>South Korea | 41.9%</tspan></textPath></text><defs><path d="M-205.0625738800036 -456.01462782865644L-41.01251477600073 -91.20292556573129" stroke="#aaa" stroke-width="2" fill="none" id="textpath--5426772133040732564"/></defs><text text-anchor="middle" dominant-baseline="middle" class="label"><textPath href="#textpath--5426772133040732564" startOffset="50%"><tspan>Afghanistan | 1.1%</tspan></textPath></text><defs><path d="M-180.36021901022363 -466.33699338416653L-36.07204380204473 -93.2673986768333" stroke="#aaa" stroke-width="2" fill="none" id="textpath--6913900718962714508"/></defs><text text-anchor="middle" dominant-baseline="middle" class="small-label-9"><textPath href="#textpath--6913900718962714508" startOffset="50%"><tspan>Uzbekistan | 9.9%</tspan></textPath></text><defs><path d="M-157.57443624394568 -474.52112391589344L-31.514887248789137 -94.90422478317869" stroke="#aaa" stroke-width="2" fill="none" id="textpath--1707455128326026012"/></defs><text text-anchor="middle" dominant-baseline="middle" class="small-label-9"><textPath href="#textpath--1707455128326026012" startOffset="50%"><tspan>Malaysia | 55.3%</tspan></textPath></text><defs><path d="M-135.90810124554997 -481.1745920306156L-27.181620249109994 -96.23491840612311" stroke="#aaa" stroke-width="2" fill="none" id="textpath--3814467914243644202"/></defs><text text-anchor="middle" dominant-baseline="middle" class="small-label-8"><textPath href="#textpath--3814467914243644202" startOffset="50%"><tspan>Nepal | 18.6%</tspan></textPath></text><defs><path d="M-116.39569537773171 -486.2633464466906L-23.279139075546343 -97.25266928933813" stroke="#aaa" stroke-width="2" fill="none" id="textpath--8701409914728674591"/></defs><text text-anchor="middle" dominant-baseline="middle" class="small-label-7"><textPath href="#textpath--8701409914728674591" startOffset="50%"><tspan>North Korea | (n/a)</tspan></textPath></text><defs><path d="M-98.7655830717282 -490.14830368012247L-19.75311661434564 -98.0296607360245" stroke="#aaa" stroke-width="2" fill="none" id="textpath--5096897644586100285"/></defs><text text-anchor="middle" dominant-baseline="middle" class="small-label-6"><textPath href="#textpath--5096897644586100285" startOffset="50%"><tspan>Taiwan | 6.6%</tspan></textPath></text><defs><path d="M-82.57852317808467 -493.13364061857163L-16.51570463561693 -98.62672812371433" stroke="#aaa" stroke-width="2" fill="none" id="textpath-1830862783485637641"/></defs><text text-anchor="middle" dominant-baseline="middle" class="small-label-6"><textPath href="#textpath-1830862783485637641" startOffset="50%"><tspan>Sri Lanka | 50.6%</tspan></textPath></text><defs><path d="M-68.04994969098992 -495.3475591411082L-13.609989938197984 -99.06951182822165" stroke="#aaa" stroke-width="2" fill="none" id="textpath--6270520305633850988"/></defs><text text-anchor="middle" dominant-baseline="middle" class="small-label-5"><textPath href="#textpath--6270520305633850988" startOffset="50%"><tspan>Kazakhstan | 31.9%</tspan></textPath></text><defs><path d="M-55.1045736528977 -496.9542091204504L-11.02091473057954 -99.39084182409007" stroke="#aaa" stroke-width="2" fill="none" id="textpath--7833750136083736945"/></defs><text text-anchor="middle" dominant-baseline="middle" class="small-label-4"><textPath href="#textpath--7833750136083736945" startOffset="50%"><tspan>Cambodia | 59.7%</tspan></textPath></text></g><text y="654" class="legend">
            <tspan x="-654">* Showing percentage of population fully vaccinated, having received all shots according to each countries chosen vaccine(s).</tspan>
            <tspan x="-654" dy="1.2em">Countries where no data was available are not counted towards a region's percentage.</tspan>
            </text><text y="-654" class="title" text-anchor="middle">
                <tspan x="0">Covid Vaccinations* by Country</tspan>
            </text><text xmlns:xlink="http://www.w3.org/1999/xlink" y="654" class="sources" text-anchor="end">
    <tspan x="654">Data source:
        <a xlink:href="https://github.com/owid/covid-19-data/tree/master/public/data/vaccinations">
            <tspan>https://github.com/owid/covid-19-data/tree/master/public/data/vaccinations</tspan>
        </a>
    </tspan>
    <tspan x="654" dy="1.2em">Code source:
        <a xlink:href="https://github.com/WorldSEnder/vis_covid_vacc">
            <tspan>https://github.com/WorldSEnder/vis_covid_vacc</tspan>
        </a>
    </tspan>
    <tspan x="654" dy="1.2em">Timestamp: Sun Sep 19 02:00:22 2021 +0000</tspan>
</text><text text-anchor="middle" dominant-baseline="middle" class="label_all" x="0" y="0">
    <tspan>Asia | 34.7%</tspan>
</text></svg>