<svg xmlns="http://www.w3.org/2000/svg" viewBox="-664 -684 1328 1388"><style>
text {
    font-family: "Open Sans";
}
.legend, .sources {
    font-size: 10pt;
}
.title {
    font-size: 20pt;
    font-weight: bold;
}
.label_all {
    font-size: 18pt;
}
.label {
}
.small-label-9 {
   font-size: 9pt;
}
.small-label-8 {
   font-size: 8pt;
}
.small-label-7 {
   font-size: 7pt;
}
.small-label-6 {
   font-size: 6pt;
}
.small-label-5 {
   font-size: 5pt;
}
.small-label-4 {
   font-size: 4pt;
}
a {
    text-decoration: underline;
}
</style><style type="text/css">
@font-face{
  font-family:'Open Sans';src:local('Open Sans')
             , local('OpenSans')
             , url(https://fonts.gstatic.com/s/opensans/v18/mem5YaGs126MiZpBA-UN_r8OUuhp.woff2) format('woff2');
  }
</style><defs><pattern id="diagonalHatch" width="10" height="10" patternTransform="rotate(45 0 0)" patternUnits="userSpaceOnUse">
  <line x1="0" y1="0" x2="0" y2="10" style="stroke:#444; stroke-width:1"/>
</pattern></defs><circle cx="0" cy="0" r="199.0" stroke="#aaa" stroke-width="2" fill="none"/><path d="M2.4554168322904432e-14 -401.0A401.0 401.0 0 0 1 346.7629962009263 201.38625689395082" stroke="#aaa" stroke-width="2" fill="none"/><path d="M346.7629962009263 201.38625689395082A401.0 401.0 0 0 1 -332.7019378974649 223.85356936906638" stroke="#aaa" stroke-width="2" fill="none"/><path d="M-332.7019378974649 223.85356936906638A401.0 401.0 0 0 1 -393.7082449795664 76.12370087633488" stroke="#aaa" stroke-width="2" fill="none"/><path d="M-393.7082449795664 76.12370087633488A401.0 401.0 0 0 1 -397.29789935052275 -54.363399191569" stroke="#aaa" stroke-width="2" fill="none"/><path d="M-397.29789935052275 -54.363399191569A401.0 401.0 0 0 1 -372.7718655708022 -147.79085302840554" stroke="#aaa" stroke-width="2" fill="none"/><path d="M-372.7718655708022 -147.79085302840554A401.0 401.0 0 0 1 -339.6478557617088 -213.16738511431208" stroke="#aaa" stroke-width="2" fill="none"/><path d="M-339.6478557617088 -213.16738511431208A401.0 401.0 0 0 1 -301.02094739940617 -264.9290267727641" stroke="#aaa" stroke-width="2" fill="none"/><path d="M-301.02094739940617 -264.9290267727641A401.0 401.0 0 0 1 -260.333611115033 -305.0039523085017" stroke="#aaa" stroke-width="2" fill="none"/><path d="M-260.333611115033 -305.0039523085017A401.0 401.0 0 0 1 -228.0671874075357 -329.8277702498927" stroke="#aaa" stroke-width="2" fill="none"/><path d="M-228.0671874075357 -329.8277702498927A401.0 401.0 0 0 1 -201.1266712400105 -346.9136234221895" stroke="#aaa" stroke-width="2" fill="none"/><path d="M-201.1266712400105 -346.9136234221895A401.0 401.0 0 0 1 -174.75004916435373 -360.92024093566147" stroke="#aaa" stroke-width="2" fill="none"/><path d="M-174.75004916435373 -360.92024093566147A401.0 401.0 0 0 1 -153.5939849811791 -370.4185305537526" stroke="#aaa" stroke-width="2" fill="none"/><path d="M-153.5939849811791 -370.4185305537526A401.0 401.0 0 0 1 -135.16313961810397 -377.5340060028725" stroke="#aaa" stroke-width="2" fill="none"/><path d="M-135.16313961810397 -377.5340060028725A401.0 401.0 0 0 1 -117.05010931283263 -383.53653269258973" stroke="#aaa" stroke-width="2" fill="none"/><path d="M-117.05010931283263 -383.53653269258973A401.0 401.0 0 0 1 -100.42118811284818 -388.22233961739494" stroke="#aaa" stroke-width="2" fill="none"/><path d="M-100.42118811284818 -388.22233961739494A401.0 401.0 0 0 1 -85.76156537262727 -391.7217812489326" stroke="#aaa" stroke-width="2" fill="none"/><path d="M-85.76156537262727 -391.7217812489326A401.0 401.0 0 0 1 -72.14492877421144 -394.4567267168402" stroke="#aaa" stroke-width="2" fill="none"/><path d="M-72.14492877421144 -394.4567267168402A401.0 401.0 0 0 1 -59.799489181966706 -396.51610445677466" stroke="#aaa" stroke-width="2" fill="none"/><path d="M-59.799489181966706 -396.51610445677466A401.0 401.0 0 0 1 -48.84222536932126 -398.0143678574587" stroke="#aaa" stroke-width="2" fill="none"/><path d="M-48.84222536932126 -398.0143678574587A401.0 401.0 0 0 1 -39.03503841378961 -399.0955597047328" stroke="#aaa" stroke-width="2" fill="none"/><path d="M-39.03503841378961 -399.0955597047328A401.0 401.0 0 0 1 -33.106812179436105 -399.6310035361565" stroke="#aaa" stroke-width="2" fill="none"/><path d="M-33.106812179436105 -399.6310035361565A401.0 401.0 0 0 1 -27.446467800637315 -400.0596098149232" stroke="#aaa" stroke-width="2" fill="none"/><path d="M-27.446467800637315 -400.0596098149232A401.0 401.0 0 0 1 -23.05769581411797 -400.33653675844226" stroke="#aaa" stroke-width="2" fill="none"/><path d="M-23.05769581411797 -400.33653675844226A401.0 401.0 0 0 1 -18.767025248509245 -400.56060560584564" stroke="#aaa" stroke-width="2" fill="none"/><path d="M-18.767025248509245 -400.56060560584564A401.0 401.0 0 0 1 -14.911173234028723 -400.7226683290886" stroke="#aaa" stroke-width="2" fill="none"/><path d="M-14.911173234028723 -400.7226683290886A401.0 401.0 0 0 1 -11.351006201194355 -400.8393127653779" stroke="#aaa" stroke-width="2" fill="none"/><path d="M-11.351006201194355 -400.8393127653779A401.0 401.0 0 0 1 -8.176666297579807 -400.9166274030774" stroke="#aaa" stroke-width="2" fill="none"/><path d="M-8.176666297579807 -400.9166274030774A401.0 401.0 0 0 1 -5.8598519667652305 -400.95718242092585" stroke="#aaa" stroke-width="2" fill="none"/><path d="M-5.8598519667652305 -400.95718242092585A401.0 401.0 0 0 1 -3.921565707154914 -400.98082413303064" stroke="#aaa" stroke-width="2" fill="none"/><path d="M-3.921565707154914 -400.98082413303064A401.0 401.0 0 0 1 -2.19346230383569 -400.99400085677297" stroke="#aaa" stroke-width="2" fill="none"/><path d="M-2.19346230383569 -400.99400085677297A401.0 401.0 0 0 1 -1.4110161141545199 -400.99751749047726" stroke="#aaa" stroke-width="2" fill="none"/><path d="M-1.4110161141545199 -400.99751749047726A401.0 401.0 0 0 1 -0.9569312097943938 -400.9988582061796" stroke="#aaa" stroke-width="2" fill="none"/><path d="M-0.9569312097943938 -400.9988582061796A401.0 401.0 0 0 1 -0.573592092493725 -400.9995897655151" stroke="#aaa" stroke-width="2" fill="none"/><path d="M-0.573592092493725 -400.9995897655151A401.0 401.0 0 0 1 -0.2570764032338495 -400.999917595656" stroke="#aaa" stroke-width="2" fill="none"/><path d="M-0.2570764032338495 -400.999917595656A401.0 401.0 0 0 1 2.824970413310369e-13 -401.0" stroke="#aaa" stroke-width="2" fill="none"/><g><circle fill="#279ee3" r="153.90142123037293"/><path d="M0.5000000000000009 -199.99937499902342L0.5000000000000153 -368.7460185365678A368.746357523123 368.746357523123 0 0 1 319.12261185373956 184.75560827812055L173.1996898788553 100.00933669347249A200 200 0 0 0 0.5000000000000009 -199.99937499902342" fill="#ff9287"/><path d="M172.69747976191277 100.87408231990875L279.31579018629253 162.7937873863681A323.29418160398586 323.29418160398586 0 0 1 -267.9514845596009 180.88982774411878L-165.6564909121505 112.06215694279939A200 200 0 0 0 172.69747976191277 100.87408231990875" fill="#5954d6"/><path d="M-166.21472923975418 111.2324762996635L-257.4160056612845 172.59590383781727A309.92312916625553 309.92312916625553 0 0 1 -304.19219605830415 59.32498503522576L-196.2676834848816 38.45772249468674A200 200 0 0 0 -166.21472923975418 111.2324762996635" fill="#00c6f8"/><path d="M-196.45751815040865 37.47590642241843L-280.38129440529485 53.70261368980373A285.4779167807992 285.4779167807992 0 0 1 -282.9096867473547 -38.206676301643085L-198.22073131702058 -26.618446163244247A200 200 0 0 0 -196.45751815040865 37.47590642241843" fill="#878500"/><path d="M-198.08516174297677 -27.60921399204861L-273.63484658455076 -37.94689179642109A276.25349927622625 276.25349927622625 0 0 1 -256.99067094544006 -101.34984415070636L-186.1048268276674 -73.24611546999557A200 200 0 0 0 -198.08516174297677 -27.60921399204861" fill="#00a76c"/><path d="M-185.73627108445442 -74.17572111979813L-340.53332367587876 -135.5472745060455A366.51876917800274 366.51876917800274 0 0 1 -310.70768554730097 -194.4138428754434L-169.6656921811905 -105.89406450164012A200 200 0 0 0 -185.73627108445442 -74.17572111979813" fill="#bdbdbd"/><path d="M-169.13410269212733 -106.74106663570926L-232.63924417288754 -146.59771439934343A274.97619496320743 274.97619496320743 0 0 1 -206.74793614422214 -181.29312920391803L-150.46500213187414 -131.7584271819268A200 200 0 0 0 -169.13410269212733 -106.74106663570926" fill="#ebac23"/><path d="M-149.80433124216646 -132.50910286122712L-257.3645103432076 -227.17299191919918A343.2842254484169 343.2842254484169 0 0 1 -223.24396316883815 -260.77996922768045L-130.2220984797997 -151.7965910932039A200 200 0 0 0 -149.80433124216646 -132.50910286122712" fill="#b80058"/><path d="M-129.4614901199281 -152.44580209349078L-221.5608203878065 -260.348349199698A341.8632183519101 341.8632183519101 0 0 1 -194.8444218988692 -280.90231632512615L-114.16012175665149 -164.21774143041458A200 200 0 0 0 -129.4614901199281 -152.44580209349078" fill="#008cf9"/><path d="M-113.33760861388362 -164.78648753367534L-150.54456076953574 -218.59469294362071A265.41911114388176 265.41911114388176 0 0 1 -133.5566693222285 -229.36852582680385L-100.74480138490588 -172.77292899617075A200 200 0 0 0 -113.33760861388362 -164.78648753367534" fill="#006e00"/><path d="M-99.87968012948892 -173.27449176734288L-185.89805324578816 -321.64340432716494A371.50042496307054 371.50042496307054 0 0 1 -162.3444360313668 -334.1509387049503L-87.606884624407 -179.79163986794782A200 200 0 0 0 -99.87968012948892 -173.27449176734288" fill="#00bbad"/><path d="M-86.70683414825817 -180.2274255267118L-96.33954564437738 -200.1223587222571A222.1041794193095 222.1041794193095 0 0 1 -85.53363795665766 -204.9738112379829L-77.06710789307257 -184.55530575141293A200 200 0 0 0 -86.70683414825817 -180.2274255267118" fill="#d163e6"/><path d="M-76.14337090914793 -184.938333145381L-116.81433783408276 -283.02342291227984A306.1827027129365 306.1827027129365 0 0 1 -103.67413271233808 -288.09637562271234L-67.88356720580545 -188.127141325793A200 200 0 0 0 -76.14337090914793 -184.938333145381" fill="#b24502"/><path d="M-66.94208589407752 -188.4642065118731L-122.70682931965933 -344.2247714015799A365.44173161826217 365.44173161826217 0 0 1 -107.14893481924199 -349.3805446433098L-58.85714955730725 -191.14349569365098A200 200 0 0 0 -66.94208589407752 -188.4642065118731" fill="#ff9287"/><path d="M-57.900699351091255 -191.43539122809696L-79.63564179793782 -262.6539873770078A274.4612040518857 274.4612040518857 0 0 1 -69.21642303227311 -265.5899834561316L-50.56929184298681 -193.50128351641192A200 200 0 0 0 -57.900699351091255 -191.43539122809696" fill="#5954d6"/><path d="M-49.60115633271892 -193.7517104194365L-99.68661519625209 -387.37911501617424A400 400 0 0 1 -86.03606044682212 -390.6376790618012L-43.26214554635367 -195.26491431572163A200 200 0 0 0 -49.60115633271892 -193.7517104194365" fill="url(#diagonalHatch)"/><path d="M-42.28528324897473 -195.4787835560524L-76.49997667877726 -351.7567222454281A359.9792189511788 359.9792189511788 0 0 1 -65.25655467083972 -354.0149998929317L-36.474236976433374 -196.6459509804028A200 200 0 0 0 -42.28528324897473 -195.4787835560524" fill="#878500"/><path d="M-35.49055436616687 -196.82586352098687L-63.97807862983433 -352.58311166355634A358.3406831152738 358.3406831152738 0 0 1 -53.93223689718099 -354.2588869722077L-30.31949754085438 -197.68846215414325A200 200 0 0 0 -35.49055436616687 -196.82586352098687" fill="#00a76c"/><path d="M-29.33067932525138 -197.8375880623277L-45.15539096448184 -302.76746454079847A306.11623105875793 306.11623105875793 0 0 1 -37.781509192470544 -303.77574702526556L-24.856413295148233 -198.44938578413584A200 200 0 0 0 -29.33067932525138 -197.8375880623277" fill="#bdbdbd"/><path d="M-23.863858761837793 -198.57118684490723L-44.989368150227136 -370.7225620393713A373.442447040494 373.442447040494 0 0 1 -36.850062292925806 -371.61987858643903L-19.96641163509519 -199.00086031577337A200 200 0 0 0 -23.863858761837793 -198.57118684490723" fill="#ebac23"/><path d="M-18.971160862764123 -199.0982045512192L-30.10593819279277 -312.94054649049303A314.3853577255733 314.3853577255733 0 0 1 -26.454113038993512 -313.2703833041943L-17.010367196671744 -199.27530556452396A200 200 0 0 0 -18.971160862764123 -199.0982045512192" fill="#b80058"/><path d="M-16.013781152940613 -199.35786619340035L-21.87172601017073 -270.0688838916971A270.9530853213725 270.9530853213725 0 0 1 -19.044195198631314 -270.28298702361457L-14.187796037321093 -199.4961314000935A200 200 0 0 0 -16.013781152940613 -199.35786619340035" fill="#008cf9"/><path d="M-13.190141150002017 -199.56457645695295L-22.62176447658456 -337.03988203584765A337.79820353396224 337.79820353396224 0 0 1 -19.922713116378294 -337.21018936689126L-11.999234464140716 -199.63972142906476A200 200 0 0 0 -13.190141150002017 -199.56457645695295" fill="#006e00"/><path d="M-11.000888985940046 -199.69722191737927L-17.024964613140284 -304.2895278097829A304.7654280832708 304.7654280832708 0 0 1 -14.76262615756971 -304.4076724126893L-9.859535219689969 -199.7568260792399A200 200 0 0 0 -11.000888985940046 -199.69722191737927" fill="#00bbad"/><path d="M-8.860630966308742 -199.80362664095688L-10.84758392358964 -242.21285609206322A242.45564075363117 242.45564075363117 0 0 1 -9.515340916267249 -242.2688507020683L-7.936625090953788 -199.84246291057775A200 200 0 0 0 -8.860630966308742 -199.80362664095688" fill="#d163e6"/><path d="M-6.937316691130559 -199.87964788123617L-12.689590428973151 -354.4661747098055A354.6932403058415 354.6932403058415 0 0 1 -10.540002060658793 -354.53660329395996L-6.161131676388062 -199.90507861599266A200 200 0 0 0 -6.937316691130559 -199.87964788123617" fill="#b24502"/><path d="M-5.161532392683811 -199.9333853646241L-10.269136698397665 -380.29877002668485A380.4373925527559 380.4373925527559 0 0 1 -8.257269908042858 -380.3477713172583L-4.5780211042221755 -199.947597441853A200 200 0 0 0 -5.161532392683811 -199.9333853646241" fill="#ff9287"/><path d="M-3.578229015935133 -199.9679881308744L-4.9890554036622685 -269.1433386507166A269.18957523253965 269.18957523253965 0 0 1 -4.433633246896165 -269.15306111970403L-3.422556913093069 -199.9707131161377A200 200 0 0 0 -3.578229015935133 -199.9679881308744" fill="#5954d6"/><path d="M-2.422663690098175 -199.98532621331165L-4.590554891673066 -348.32210210944885A348.35235037553394 348.35235037553394 0 0 1 -3.9066724092811045 -348.3304435774245L-2.4558630985414336 -199.984921272683A200 200 0 0 0 -2.422663690098175 -199.98532621331165" fill="#00c6f8"/><path d="M-1.455910918658498 -199.9947007382869L-1.9628770135894538 -251.83207839130048A251.83972798796577 251.83972798796577 0 0 1 -1.8775482834358588 -251.83272901967283L-1.593985262542284 -199.99364792658488A200 200 0 0 0 -1.455910918658498 -199.9947007382869" fill="#878500"/><path d="M-0.5940002229991429 -199.99911790739247L-1.1631905855057976 -304.0546652999831A304.0568902409925 304.0568902409925 0 0 1 -1.5698936419341547 -304.0528374098423L-1.203743390747398 -199.99637747181632A200 200 0 0 0 -0.5940002229991429 -199.99911790739247" fill="#00a76c"/><path d="M-0.2037495815441466 -199.99989621524313L-0.771239555936687 -361.27521309456404A361.27603630323347 361.27603630323347 0 0 1 -1.3621331982495593 -361.2734684420176L-0.9772695086759132 -199.99761234651632A200 200 0 0 0 -0.2037495815441466 -199.99989621524313" fill="#bdbdbd"/><path d="M0.022727643958017275 -199.9999987086355L-0.3427688776774636 -353.1601071406702A353.16027348232865 353.16027348232865 0 0 1 -1.005160927964675 -353.15884304038326L-0.7860794386181992 -199.99845519182438A200 200 0 0 0 0.022727643958017275 -199.9999987086355" fill="#ebac23"/><path d="M0.2139195383532264 -199.99988559604503L-0.01014348921989338 -356.6428786119578A356.6428787562063 356.6428787562063 0 0 1 -0.7286392448991663 -356.64213443221325L-0.6282171540439104 -199.99901335558474A200 200 0 0 0 0.2139195383532264 -199.99988559604503" fill="#b80058"/><path d="M0.3717826404590385 -199.99965444387212L0.25822892497118805 -377.12610393707683A377.12619234539596 377.12619234539596 0 0 1 -0.49999999999973394 -377.1258608912104L-0.4999999999998922 -199.99937499902342A200 200 0 0 0 0.3717826404590385 -199.99965444387212" fill="#008cf9"/></g><g><defs><path d="M86.66631747520258 -49.889371766814186L433.3315873760129 -249.44685883407092" stroke="#aaa" stroke-width="2" fill="none" id="textpath-5109994065820825875"/></defs><text text-anchor="middle" dominant-baseline="middle" class="label"><textPath href="#textpath-5109994065820825875" startOffset="50%"><tspan>China | 80.0%</tspan></textPath></text><defs><path d="M3.3048121897265545 99.9453761631354L16.524060948632773 499.726880815677" stroke="#aaa" stroke-width="2" fill="none" id="textpath--7526740979406167193"/></defs><text text-anchor="middle" dominant-baseline="middle" class="label"><textPath href="#textpath--7526740979406167193" startOffset="50%"><tspan>India | 53.8%</tspan></textPath></text><defs><path d="M-462.14456667740916 190.84653387093442L-92.42891333548184 38.169306774186886" stroke="#aaa" stroke-width="2" fill="none" id="textpath-4186301741914126136"/></defs><text text-anchor="middle" dominant-baseline="middle" class="label"><textPath href="#textpath-4186301741914126136" startOffset="50%"><tspan>Indonesia | 46.7%</tspan></textPath></text><defs><path d="M-499.810912114599 13.749622946560917L-99.9621824229198 2.7499245893121835" stroke="#aaa" stroke-width="2" fill="none" id="textpath--5968016505238413027"/></defs><text text-anchor="middle" dominant-baseline="middle" class="label"><textPath href="#textpath--5968016505238413027" startOffset="50%"><tspan>Pakistan | 34.6%</tspan></textPath></text><defs><path d="M-483.61379557714287 -126.95549112767618L-96.72275911542857 -25.391098225535234" stroke="#aaa" stroke-width="2" fill="none" id="textpath-3366310799161590070"/></defs><text text-anchor="middle" dominant-baseline="middle" class="label"><textPath href="#textpath-3366310799161590070" startOffset="50%"><tspan>Bangladesh | 30.3%</tspan></textPath></text><defs><path d="M-446.01816246644313 -225.9818549133039L-89.20363249328864 -45.196370982660774" stroke="#aaa" stroke-width="2" fill="none" id="textpath-2252398373911266193"/></defs><text text-anchor="middle" dominant-baseline="middle" class="label"><textPath href="#textpath-2252398373911266193" startOffset="50%"><tspan>Japan | 78.6%</tspan></textPath></text><defs><path d="M-400.7209443089 -299.0363268771596L-80.14418886178001 -59.80726537543192" stroke="#aaa" stroke-width="2" fill="none" id="textpath--7460896243309339595"/></defs><text text-anchor="middle" dominant-baseline="middle" class="label"><textPath href="#textpath--7460896243309339595" startOffset="50%"><tspan>Philippines | 29.7%</tspan></textPath></text><defs><path d="M-350.86234957852844 -356.22410312643717L-70.17246991570568 -71.24482062528743" stroke="#aaa" stroke-width="2" fill="none" id="textpath--1839212017984048727"/></defs><text text-anchor="middle" dominant-baseline="middle" class="label"><textPath href="#textpath--1839212017984048727" startOffset="50%"><tspan>Vietnam | 64.9%</tspan></textPath></text><defs><path d="M-304.8823244535682 -396.29126691839826L-60.976464890713636 -79.25825338367966" stroke="#aaa" stroke-width="2" fill="none" id="textpath-6872212515873448816"/></defs><text text-anchor="middle" dominant-baseline="middle" class="label"><textPath href="#textpath-6872212515873448816" startOffset="50%"><tspan>Thailand | 64.1%</tspan></textPath></text><defs><path d="M-267.78915889570317 -422.2427813212818L-53.55783177914063 -84.44855626425637" stroke="#aaa" stroke-width="2" fill="none" id="textpath--8825384644339709474"/></defs><text text-anchor="middle" dominant-baseline="middle" class="label"><textPath href="#textpath--8825384644339709474" startOffset="50%"><tspan>Myanmar | 25.4%</tspan></textPath></text><defs><path d="M-234.4997507414121 -441.59921524184756L-46.89995014828242 -88.3198430483695" stroke="#aaa" stroke-width="2" fill="none" id="textpath-1090021507096357942"/></defs><text text-anchor="middle" dominant-baseline="middle" class="label"><textPath href="#textpath-1090021507096357942" startOffset="50%"><tspan>South Korea | 81.7%</tspan></textPath></text><defs><path d="M-204.78889526395747 -456.1375980738355L-40.957779052791494 -91.22751961476709" stroke="#aaa" stroke-width="2" fill="none" id="textpath--5426772133040732564"/></defs><text text-anchor="middle" dominant-baseline="middle" class="label"><textPath href="#textpath--5426772133040732564" startOffset="50%"><tspan>Afghanistan | 7.8%</tspan></textPath></text><defs><path d="M-180.07779308702632 -466.44612597480767L-36.01555861740526 -93.28922519496153" stroke="#aaa" stroke-width="2" fill="none" id="textpath--6913900718962714508"/></defs><text text-anchor="middle" dominant-baseline="middle" class="small-label-9"><textPath href="#textpath--6913900718962714508" startOffset="50%"><tspan>Uzbekistan | 44.8%</tspan></textPath></text><defs><path d="M-157.28470518593312 -474.6172368494154L-31.456941037186624 -94.92344736988308" stroke="#aaa" stroke-width="2" fill="none" id="textpath--1707455128326026012"/></defs><text text-anchor="middle" dominant-baseline="middle" class="small-label-9"><textPath href="#textpath--1707455128326026012" startOffset="50%"><tspan>Malaysia | 78.0%</tspan></textPath></text><defs><path d="M-135.6120783048924 -481.25810561259925L-27.122415660978483 -96.25162112251985" stroke="#aaa" stroke-width="2" fill="none" id="textpath--3814467914243644202"/></defs><text text-anchor="middle" dominant-baseline="middle" class="small-label-8"><textPath href="#textpath--3814467914243644202" startOffset="50%"><tspan>Nepal | 29.4%</tspan></textPath></text><defs><path d="M-116.09453732516022 -486.33533534307065L-23.218907465032043 -97.26706706861414" stroke="#aaa" stroke-width="2" fill="none" id="textpath--8701409914728674591"/></defs><text text-anchor="middle" dominant-baseline="middle" class="small-label-7"><textPath href="#textpath--8701409914728674591" startOffset="50%"><tspan>North Korea | (n/a)</tspan></textPath></text><defs><path d="M-98.46021012581787 -490.2097377877961L-19.692042025163573 -98.04194755755921" stroke="#aaa" stroke-width="2" fill="none" id="textpath--5096897644586100285"/></defs><text text-anchor="middle" dominant-baseline="middle" class="small-label-6"><textPath href="#textpath--5096897644586100285" startOffset="50%"><tspan>Taiwan | 74.7%</tspan></textPath></text><defs><path d="M-82.26963109577913 -493.18526721645327L-16.453926219155825 -98.63705344329065" stroke="#aaa" stroke-width="2" fill="none" id="textpath-1830862783485637641"/></defs><text text-anchor="middle" dominant-baseline="middle" class="small-label-6"><textPath href="#textpath-1830862783485637641" startOffset="50%"><tspan>Sri Lanka | 73.7%</tspan></textPath></text><defs><path d="M-67.73818281516198 -495.39028915482356L-13.547636563032395 -99.07805783096471" stroke="#aaa" stroke-width="2" fill="none" id="textpath--6270520305633850988"/></defs><text text-anchor="middle" dominant-baseline="middle" class="small-label-5"><textPath href="#textpath--6270520305633850988" startOffset="50%"><tspan>Kazakhstan | 44.8%</tspan></textPath></text><defs><path d="M-54.79047052122503 -496.9889378447601L-10.958094104245006 -99.39778756895201" stroke="#aaa" stroke-width="2" fill="none" id="textpath--7833750136083736945"/></defs><text text-anchor="middle" dominant-baseline="middle" class="small-label-4"><textPath href="#textpath--7833750136083736945" startOffset="50%"><tspan>Cambodia | 82.9%</tspan></textPath></text></g><text y="654" class="legend">
            <tspan x="-654">* Showing percentage of population vaccinated, having received at least one shot of a countries chosen vaccine(s).</tspan>
            <tspan x="-654" dy="1.2em">Countries where no data was available are not counted towards a region's percentage.</tspan>
            </text><text y="-654" class="title" text-anchor="middle">
            <tspan x="0">Partial Covid Vaccinations* by Country</tspan>
            </text><text xmlns:xlink="http://www.w3.org/1999/xlink" y="654" class="sources" text-anchor="end">
    <tspan x="654">Data source:
        <a xlink:href="https://github.com/owid/covid-19-data/tree/master/public/data/vaccinations">
            <tspan>https://github.com/owid/covid-19-data/tree/master/public/data/vaccinations</tspan>
        </a>
    </tspan>
    <tspan x="654" dy="1.2em">Code source:
        <a xlink:href="https://github.com/WorldSEnder/vis_covid_vacc">
            <tspan>https://github.com/WorldSEnder/vis_covid_vacc</tspan>
        </a>
    </tspan>
    <tspan x="654" dy="1.2em">Timestamp: Sat Nov 13 22:00:15 2021 +0000</tspan>
</text><text text-anchor="middle" dominant-baseline="middle" class="label_all" x="0" y="0">
    <tspan>Asia | 60.4%</tspan>
</text></svg>