<svg xmlns="http://www.w3.org/2000/svg" viewBox="-664 -684 1328 1388"><style>
text {
    font-family: "Open Sans";
}
.legend, .sources {
    font-size: 10pt;
}
.title {
    font-size: 20pt;
    font-weight: bold;
}
.label_all {
    font-size: 18pt;
}
.label {
}
.small-label-9 {
   font-size: 9pt;
}
.small-label-8 {
   font-size: 8pt;
}
.small-label-7 {
   font-size: 7pt;
}
.small-label-6 {
   font-size: 6pt;
}
.small-label-5 {
   font-size: 5pt;
}
.small-label-4 {
   font-size: 4pt;
}
a {
    text-decoration: underline;
}
</style><style type="text/css">
@font-face{
  font-family:'Open Sans';src:local('Open Sans')
             , local('OpenSans')
             , url(https://fonts.gstatic.com/s/opensans/v18/mem5YaGs126MiZpBA-UN_r8OUuhp.woff2) format('woff2');
  }
</style><defs><pattern id="diagonalHatch" width="10" height="10" patternTransform="rotate(45 0 0)" patternUnits="userSpaceOnUse">
  <line x1="0" y1="0" x2="0" y2="10" style="stroke:#444; stroke-width:1"/>
</pattern></defs><circle cx="0" cy="0" r="199.0" stroke="#aaa" stroke-width="2" fill="none"/><path d="M2.4554168322904432e-14 -401.0A401.0 401.0 0 0 1 346.80622317536546 201.3118068242362" stroke="#aaa" stroke-width="2" fill="none"/><path d="M346.80622317536546 201.3118068242362A401.0 401.0 0 0 1 -332.6074821787049 223.9938900924364" stroke="#aaa" stroke-width="2" fill="none"/><path d="M-332.6074821787049 223.9938900924364A401.0 401.0 0 0 1 -393.6729649178609 76.30594139895452" stroke="#aaa" stroke-width="2" fill="none"/><path d="M-393.6729649178609 76.30594139895452A401.0 401.0 0 0 1 -397.3248352802921 -54.16618197259923" stroke="#aaa" stroke-width="2" fill="none"/><path d="M-397.3248352802921 -54.16618197259923A401.0 401.0 0 0 1 -372.8488289123116 -147.5965811891244" stroke="#aaa" stroke-width="2" fill="none"/><path d="M-372.8488289123116 -147.5965811891244A401.0 401.0 0 0 1 -339.7628822857054 -212.98399897858496" stroke="#aaa" stroke-width="2" fill="none"/><path d="M-339.7628822857054 -212.98399897858496A401.0 401.0 0 0 1 -301.1682930662936 -264.76151391683635" stroke="#aaa" stroke-width="2" fill="none"/><path d="M-301.1682930662936 -264.76151391683635A401.0 401.0 0 0 1 -260.50770741316376 -304.85526791961047" stroke="#aaa" stroke-width="2" fill="none"/><path d="M-260.50770741316376 -304.85526791961047A401.0 401.0 0 0 1 -228.25889016733848 -329.6951304759822" stroke="#aaa" stroke-width="2" fill="none"/><path d="M-228.25889016733848 -329.6951304759822A401.0 401.0 0 0 1 -201.3311365707586 -346.795002050385" stroke="#aaa" stroke-width="2" fill="none"/><path d="M-201.3311365707586 -346.795002050385A401.0 401.0 0 0 1 -174.96552758934618 -360.81583135358926" stroke="#aaa" stroke-width="2" fill="none"/><path d="M-174.96552758934618 -360.81583135358926A401.0 401.0 0 0 1 -153.8173316563833 -370.32584095916155" stroke="#aaa" stroke-width="2" fill="none"/><path d="M-153.8173316563833 -370.32584095916155A401.0 401.0 0 0 1 -135.39268462349764 -377.45174651926317" stroke="#aaa" stroke-width="2" fill="none"/><path d="M-135.39268462349764 -377.45174651926317A401.0 401.0 0 0 1 -117.28517601561731 -383.4647147874047" stroke="#aaa" stroke-width="2" fill="none"/><path d="M-117.28517601561731 -383.4647147874047A401.0 401.0 0 0 1 -100.66084238135808 -388.1602694906775" stroke="#aaa" stroke-width="2" fill="none"/><path d="M-100.66084238135808 -388.1602694906775A401.0 401.0 0 0 1 -86.00489006621589 -391.6684297779158" stroke="#aaa" stroke-width="2" fill="none"/><path d="M-86.00489006621589 -391.6684297779158A401.0 401.0 0 0 1 -72.39135369770442 -394.41157679486776" stroke="#aaa" stroke-width="2" fill="none"/><path d="M-72.39135369770442 -394.41157679486776A401.0 401.0 0 0 1 -60.04847012306477 -396.4784751230253" stroke="#aaa" stroke-width="2" fill="none"/><path d="M-60.04847012306477 -396.4784751230253A401.0 401.0 0 0 1 -49.09327307470471 -397.98348023355504" stroke="#aaa" stroke-width="2" fill="none"/><path d="M-49.09327307470471 -397.98348023355504A401.0 401.0 0 0 1 -39.28777537267376 -399.0707590218385" stroke="#aaa" stroke-width="2" fill="none"/><path d="M-39.28777537267376 -399.0707590218385A401.0 401.0 0 0 1 -33.36049671913514 -399.60990635700284" stroke="#aaa" stroke-width="2" fill="none"/><path d="M-33.36049671913514 -399.60990635700284A401.0 401.0 0 0 1 -27.701005350610746 -400.0420656663064" stroke="#aaa" stroke-width="2" fill="none"/><path d="M-27.701005350610746 -400.0420656663064A401.0 401.0 0 0 1 -23.312859910029083 -400.3217587926184" stroke="#aaa" stroke-width="2" fill="none"/><path d="M-23.312859910029083 -400.3217587926184A401.0 401.0 0 0 1 -19.02277242091022 -400.5485415395021" stroke="#aaa" stroke-width="2" fill="none"/><path d="M-19.02277242091022 -400.5485415395021A401.0 401.0 0 0 1 -15.1674194981485 -400.7130511797278" stroke="#aaa" stroke-width="2" fill="none"/><path d="M-15.1674194981485 -400.7130511797278A401.0 401.0 0 0 1 -11.607692319397733 -400.8319616485419" stroke="#aaa" stroke-width="2" fill="none"/><path d="M-11.607692319397733 -400.8319616485419A401.0 401.0 0 0 1 -8.175829282081487 -400.91664447307534" stroke="#aaa" stroke-width="2" fill="none"/><path d="M-8.175829282081487 -400.91664447307534A401.0 401.0 0 0 1 -5.859252074650828 -400.95719118769483" stroke="#aaa" stroke-width="2" fill="none"/><path d="M-5.859252074650828 -400.95719118769483A401.0 401.0 0 0 1 -3.921164227933665 -400.98082805926964" stroke="#aaa" stroke-width="2" fill="none"/><path d="M-3.921164227933665 -400.98082805926964A401.0 401.0 0 0 1 -2.1932377382179395 -400.9940020850981" stroke="#aaa" stroke-width="2" fill="none"/><path d="M-2.1932377382179395 -400.9940020850981A401.0 401.0 0 0 1 -1.410871654157826 -400.997517998772" stroke="#aaa" stroke-width="2" fill="none"/><path d="M-1.410871654157826 -400.997517998772A401.0 401.0 0 0 1 -0.9568332388457519 -400.9988584399625" stroke="#aaa" stroke-width="2" fill="none"/><path d="M-0.9568332388457519 -400.9988584399625A401.0 401.0 0 0 1 -0.5735333678654881 -400.99958984951087" stroke="#aaa" stroke-width="2" fill="none"/><path d="M-0.5735333678654881 -400.99958984951087A401.0 401.0 0 0 1 -0.2570500836168605 -400.99991761252835" stroke="#aaa" stroke-width="2" fill="none"/><path d="M-0.2570500836168605 -400.99991761252835A401.0 401.0 0 0 1 -4.298220512684635e-13 -401.0" stroke="#aaa" stroke-width="2" fill="none"/><g><circle fill="#279ee3" r="139.59091411454074"/><path d="M0.5000000000000009 -199.99937499902342L0.5000000000000302 -361.91623858683084A361.9165839704501 361.9165839704501 0 0 1 313.25551050759447 181.25837605326333L173.22115656921957 99.97215070619376A200 200 0 0 0 0.5000000000000009 -199.99937499902342" fill="#ff9287"/><path d="M172.71913211329877 100.83700413057124L259.8887470527965 151.43665174638053A300.7909911164677 300.7909911164677 0 0 1 -249.20997269360143 168.43280513867057L-165.6092060117047 112.1320243470738A200 200 0 0 0 172.71913211329877 100.83700413057124" fill="#5954d6"/><path d="M-166.16779426629935 111.30257925435876L-225.3257439067659 151.14239038266334A271.3221572922544 271.3221572922544 0 0 1 -266.2689869586851 52.12043382127995L-196.24986026654656 38.54857124928168A200 200 0 0 0 -166.16779426629935 111.30257925435876" fill="#00c6f8"/><path d="M-196.4401493972173 37.56684315721713L-257.98709223434037 49.496535648024164A262.6923044184701 262.6923044184701 0 0 1 -260.3517970311408 -34.98840641329413L-198.2339197472186 -26.520050181952758A200 200 0 0 0 -196.4401493972173 37.56684315721713" fill="#878500"/><path d="M-198.09884198668843 -27.510885182651805L-233.47632165023765 -32.333797900493565A235.7046186607195 235.7046186607195 0 0 1 -219.34112617524002 -86.29100547665804L-186.1429701799868 -73.1491261230956A200 200 0 0 0 -198.09884198668843 -27.510885182651805" fill="#00a76c"/><path d="M-185.77489890520093 -74.0789237014306L-320.16983141516033 -127.2807337365595A344.5418786286061 344.5418786286061 0 0 1 -292.1917967187881 -182.57343744141852L-169.72283317829715 -105.80245695602686A200 200 0 0 0 -185.77489890520093 -74.0789237014306" fill="#bdbdbd"/><path d="M-169.1917010112682 -106.64974593928305L-207.6310496717511 -130.74586303354928A245.36734397262566 245.36734397262566 0 0 1 -184.61120071819383 -161.62870431197413L-150.53828214398968 -131.67469616117046A200 200 0 0 0 -169.1917010112682 -106.64974593928305" fill="#ebac23"/><path d="M-149.87802899207733 -132.4257392860241L-201.41661276749915 -177.73407279810044A268.6225093549183 268.6225093549183 0 0 1 -174.88912838302616 -203.89174898842415L-130.30874388783297 -151.72221744482627A200 200 0 0 0 -149.87802899207733 -132.4257392860241" fill="#b80058"/><path d="M-129.54850631197354 -152.37186260047014L-193.18956745382775 -226.84686734310498A297.96259865355137 297.96259865355137 0 0 1 -170.01836380800296 -244.69463860989453L-114.25556842063949 -164.15134810557169A200 200 0 0 0 -129.54850631197354 -152.37186260047014" fill="#008cf9"/><path d="M-113.43338605037513 -164.72057227057755L-127.91869007789712 -185.6430178228055A225.44738041858807 225.44738041858807 0 0 1 -113.62310027129357 -194.7211144748898L-100.84663088034903 -172.71351145779715A200 200 0 0 0 -113.43338605037513 -164.72057227057755" fill="#006e00"/><path d="M-99.98180543882681 -173.21558411757465L-175.53123555983754 -303.3502727702318A350.47482455511295 350.47482455511295 0 0 1 -153.36997031841395 -315.13529610544424L-87.71422463820558 -179.739296749816A200 200 0 0 0 -99.98180543882681 -173.21558411757465" fill="#00bbad"/><path d="M-86.81443453507936 -180.17561976126078L-89.31855332937766 -185.339641023172A205.73912244259998 205.73912244259998 0 0 1 -79.37983116628143 -189.80892736503148L-77.17838682237843 -184.50879818451835A200 200 0 0 0 -86.81443453507936 -180.17561976126078" fill="#d163e6"/><path d="M-76.25488098457498 -184.89238255273878L-104.31432023302152 -252.4474189366525A273.15046537294256 273.15046537294256 0 0 1 -92.69635592860264 -256.9407759212479L-67.99795056707995 -188.08582806441572A200 200 0 0 0 -76.25488098457498 -184.89238255273878" fill="#b24502"/><path d="M-67.05667439122138 -188.42346568193068L-116.51380983272452 -326.3015364369829A346.4796683253895 346.4796683253895 0 0 1 -101.8170048119583 -331.18191087979665L-58.974299893186114 -191.1073833008776A200 200 0 0 0 -67.05667439122138 -188.42346568193068" fill="#ff9287"/><path d="M-58.01802878399053 -191.3998650365774L-73.85988300677302 -243.1949197708095A254.16343427036207 254.16343427036207 0 0 1 -64.28512724421229 -245.89931625626798L-50.688742388758556 -193.47002712318536A200 200 0 0 0 -58.01802878399053 -191.3998650365774" fill="#5954d6"/><path d="M-49.7207616668366 -193.72105166777726L-99.92574903060455 -387.3174985469578A400 400 0 0 1 -86.27871163300902 -390.58415728105007L-43.38343759349594 -195.23800178902476A200 200 0 0 0 -49.7207616668366 -193.72105166777726" fill="url(#diagonalHatch)"/><path d="M-42.40670834217937 -195.45247782410263L-66.76184552955854 -306.3663843689773A313.55622380975404 313.55622380975404 0 0 1 -57.09709833243656 -308.31384472943904L-36.59708549444283 -196.62312512345144A200 200 0 0 0 -42.40670834217937 -195.45247782410263" fill="#878500"/><path d="M-35.613515477497955 -196.80365219002925L-61.10466263016357 -335.6876905349522A341.2037593166815 341.2037593166815 0 0 1 -51.588481261838744 -337.2812386909963L-30.44363025392023 -197.66938401523538A200 200 0 0 0 -35.613515477497955 -196.80365219002925" fill="#00a76c"/><path d="M-29.45490587705476 -197.81913082352233L-43.33381717526281 -289.45659596799527A292.6823203754514 292.6823203754514 0 0 1 -36.32843853234316 -290.41898218635805L-24.981585216244685 -198.43366750650836A200 200 0 0 0 -29.45490587705476 -197.81913082352233" fill="#bdbdbd"/><path d="M-23.989107709427774 -198.55609462140785L-42.300492847455686 -347.0006437155346A349.5694186197257 349.5694186197257 0 0 1 -34.74644919391593 -347.8382708997784L-20.092433663709993 -198.98817580316026A200 200 0 0 0 -23.989107709427774 -198.55609462140785" fill="#ebac23"/><path d="M-19.097244738468437 -199.08615030533653L-29.485039755003328 -304.6015479701076A306.02527770617235 306.02527770617235 0 0 1 -25.957472816783994 -304.92241669005875L-17.13686645052996 -199.26446699865156A200 200 0 0 0 -19.097244738468437 -199.08615030533653" fill="#b80058"/><path d="M-16.14033301821817 -199.3476602573028L-20.98597357679002 -257.39133946726776A258.2454505305369 258.2454505305369 0 0 1 -18.33831977921251 -257.59351456780763L-14.314725161595812 -199.48706385013534A200 200 0 0 0 -16.14033301821817 -199.3476602573028" fill="#008cf9"/><path d="M-13.31711402527079 -199.55614366397728L-22.381670033854547 -330.46127378922216A331.21834585043683 331.21834585043683 0 0 1 -19.755109670044295 -330.6286863988425L-12.126479528284111 -199.63203273585657A200 200 0 0 0 -13.31711402527079 -199.55614366397728" fill="#006e00"/><path d="M-11.128170902866044 -199.69016954361226L-16.260825838094483 -287.82665124838854A288.2856146702404 288.2856146702404 0 0 1 -14.175206141212138 -287.9369013458547L-9.98707447805603 -199.75049022059937A200 200 0 0 0 -11.128170902866044 -199.69016954361226" fill="#00bbad"/><path d="M-8.98820030962828 -199.7979285558136L-10.504575212626913 -231.7271207042499A231.9650934306275 231.9650934306275 0 0 1 -9.273466915808367 -231.77965264802936L-8.064416323111171 -199.83734683328726A200 200 0 0 0 -8.98820030962828 -199.7979285558136" fill="#d163e6"/><path d="M-7.065131906204051 -199.87517082206068L-7.124694535772565 -201.44877554985092A201.57472669648416 201.57472669648416 0 0 1 -6.334728652220503 -201.47516386806842L-6.289145111932158 -199.90109217750927A200 200 0 0 0 -7.065131906204051 -199.87517082206068" fill="#b24502"/><path d="M-5.289564160190092 -199.9300390411487L-10.125356645057904 -366.9175964728387A367.0572781577754 367.0572781577754 0 0 1 -7.983673767955724 -366.97044349887545L-4.577603662722102 -199.94760699920124A200 200 0 0 0 -5.289564160190092 -199.9300390411487" fill="#ff9287"/><path d="M-3.5778115318664865 -199.96799560090219L-4.824424273566927 -261.0979165075496A261.1424842383076 261.1424842383076 0 0 1 -4.315649460149426 -261.1068215192622L-3.4222577268971515 -199.97071823657257A200 200 0 0 0 -3.5778115318664865 -199.96799560090219" fill="#5954d6"/><path d="M-2.4223644820399906 -199.98532983775624L-4.583673180516188 -347.8868459339275A347.91704130968054 347.91704130968054 0 0 1 -3.9020669872840466 -347.895158786248L-2.455662865049649 -199.98492373149836A200 200 0 0 0 -2.4223644820399906 -199.98532983775624" fill="#00c6f8"/><path d="M-1.4557106753755937 -199.9947021959072L-1.6580168391858043 -220.68266331423538A220.68889167174498 220.68889167174498 0 0 1 -1.7070298363915914 -220.68228963023031L-1.593873261622 -199.99364881922097A200 200 0 0 0 -1.4557106753755937 -199.9947021959072" fill="#878500"/><path d="M-0.5938882190157041 -199.99911824001452L-1.012909793754688 -276.60966313748133A276.61151770539345 276.61151770539345 0 0 1 -1.473220625870003 -276.60759452384656L-1.2036713417326752 -199.9963779054538A200 200 0 0 0 -0.5938882190157041 -199.99911824001452" fill="#00a76c"/><path d="M-0.20367753126185598 -199.99989628863125L-0.7552109098785438 -356.7565475878666A356.75734693252235 356.75734693252235 0 0 1 -1.351262797291276 -356.75478788543927L-0.9772206458040802 -199.99761258527414A200 200 0 0 0 -0.20367753126185598 -199.99989628863125" fill="#bdbdbd"/><path d="M0.02277650741284986 -199.99999870307676L-0.26089431587255857 -318.8834903002407A318.8835970254785 318.8835970254785 0 0 1 -0.956084671977381 -318.88216374392556L-0.7860501497230707 -199.99845530694012A200 200 0 0 0 0.02277650741284986 -199.99999870307676" fill="#ebac23"/><path d="M0.21394882745782068 -199.99988556471533L-0.00815774615229164 -355.2910157948466A355.29101588850057 355.29101588850057 0 0 1 -0.7277492611277425 -355.2902705564785L-0.6282040271149533 -199.99901339681733A200 200 0 0 0 0.21394882745782068 -199.99988556471533" fill="#b80058"/><path d="M0.37179576743007137 -199.99965441946975L0.2928633490447504 -323.13477588699925A323.13490860085426 323.13490860085426 0 0 1 -0.5000000000002034 -323.13452176528966L-0.5000000000002475 -199.99937499902342A200 200 0 0 0 0.37179576743007137 -199.99965441946975" fill="#008cf9"/></g><g><defs><path d="M86.66096168173962 -49.89867453546293L433.30480840869814 -249.49337267731468" stroke="#aaa" stroke-width="2" fill="none" id="textpath-5109994065820825875"/></defs><text text-anchor="middle" dominant-baseline="middle" class="label"><textPath href="#textpath-5109994065820825875" startOffset="50%"><tspan>China | 75.8%</tspan></textPath></text><defs><path d="M3.336620023142166 99.94431933242213L16.68310011571083 499.72159666211064" stroke="#aaa" stroke-width="2" fill="none" id="textpath--7526740979406167193"/></defs><text text-anchor="middle" dominant-baseline="middle" class="label"><textPath href="#textpath--7526740979406167193" startOffset="50%"><tspan>India | 42.1%</tspan></textPath></text><defs><path d="M-462.0600982250106 191.05095034648105L-92.41201964500212 38.21019006929621" stroke="#aaa" stroke-width="2" fill="none" id="textpath-4186301741914126136"/></defs><text text-anchor="middle" dominant-baseline="middle" class="label"><textPath href="#textpath-4186301741914126136" startOffset="50%"><tspan>Indonesia | 28.0%</tspan></textPath></text><defs><path d="M-499.804259737145 13.989351257457072L-99.96085194742899 2.7978702514914144" stroke="#aaa" stroke-width="2" fill="none" id="textpath--5968016505238413027"/></defs><text text-anchor="middle" dominant-baseline="middle" class="label"><textPath href="#textpath--5968016505238413027" startOffset="50%"><tspan>Pakistan | 24.2%</tspan></textPath></text><defs><path d="M-483.6783203568587 -126.70944091411654L-96.73566407137174 -25.341888182823308" stroke="#aaa" stroke-width="2" fill="none" id="textpath-3366310799161590070"/></defs><text text-anchor="middle" dominant-baseline="middle" class="label"><textPath href="#textpath-3366310799161590070" startOffset="50%"><tspan>Bangladesh | 13.0%</tspan></textPath></text><defs><path d="M-446.1379762729414 -225.74522392973097L-89.22759525458828 -45.149044785946195" stroke="#aaa" stroke-width="2" fill="none" id="textpath-2252398373911266193"/></defs><text text-anchor="middle" dominant-baseline="middle" class="label"><textPath href="#textpath-2252398373911266193" startOffset="50%"><tspan>Japan | 65.6%</tspan></textPath></text><defs><path d="M-400.8847836779085 -298.8166498298187L-80.17695673558171 -59.76332996596374" stroke="#aaa" stroke-width="2" fill="none" id="textpath--7460896243309339595"/></defs><text text-anchor="middle" dominant-baseline="middle" class="label"><textPath href="#textpath--7460896243309339595" startOffset="50%"><tspan>Philippines | 16.8%</tspan></textPath></text><defs><path d="M-351.06307696719455 -356.02628553286013L-70.21261539343891 -71.20525710657203" stroke="#aaa" stroke-width="2" fill="none" id="textpath--1839212017984048727"/></defs><text text-anchor="middle" dominant-baseline="middle" class="label"><textPath href="#textpath--1839212017984048727" startOffset="50%"><tspan>Vietnam | 26.8%</tspan></textPath></text><defs><path d="M-305.11059248807226 -396.11554671784535L-61.02211849761445 -79.22310934356906" stroke="#aaa" stroke-width="2" fill="none" id="textpath-6872212515873448816"/></defs><text text-anchor="middle" dominant-baseline="middle" class="label"><textPath href="#textpath-6872212515873448816" startOffset="50%"><tspan>Thailand | 40.7%</tspan></textPath></text><defs><path d="M-268.0362986515363 -422.0859422027515L-53.607259730307256 -84.41718844055029" stroke="#aaa" stroke-width="2" fill="none" id="textpath--8825384644339709474"/></defs><text text-anchor="middle" dominant-baseline="middle" class="label"><textPath href="#textpath--8825384644339709474" startOffset="50%"><tspan>Myanmar | 9.0%</tspan></textPath></text><defs><path d="M-234.76170941638588 -441.46000927818636L-46.95234188327718 -88.29200185563727" stroke="#aaa" stroke-width="2" fill="none" id="textpath-1090021507096357942"/></defs><text text-anchor="middle" dominant-baseline="middle" class="label"><textPath href="#textpath-1090021507096357942" startOffset="50%"><tspan>South Korea | 69.0%</tspan></textPath></text><defs><path d="M-205.0625738800036 -456.01462782865644L-41.01251477600073 -91.20292556573129" stroke="#aaa" stroke-width="2" fill="none" id="textpath--5426772133040732564"/></defs><text text-anchor="middle" dominant-baseline="middle" class="label"><textPath href="#textpath--5426772133040732564" startOffset="50%"><tspan>Afghanistan | 1.9%</tspan></textPath></text><defs><path d="M-180.36021901022363 -466.33699338416653L-36.07204380204473 -93.2673986768333" stroke="#aaa" stroke-width="2" fill="none" id="textpath--6913900718962714508"/></defs><text text-anchor="middle" dominant-baseline="middle" class="small-label-9"><textPath href="#textpath--6913900718962714508" startOffset="50%"><tspan>Uzbekistan | 28.8%</tspan></textPath></text><defs><path d="M-157.57443624394568 -474.52112391589344L-31.514887248789137 -94.90422478317869" stroke="#aaa" stroke-width="2" fill="none" id="textpath--1707455128326026012"/></defs><text text-anchor="middle" dominant-baseline="middle" class="small-label-9"><textPath href="#textpath--1707455128326026012" startOffset="50%"><tspan>Malaysia | 66.7%</tspan></textPath></text><defs><path d="M-135.90810124554997 -481.1745920306156L-27.181620249109994 -96.23491840612311" stroke="#aaa" stroke-width="2" fill="none" id="textpath--3814467914243644202"/></defs><text text-anchor="middle" dominant-baseline="middle" class="small-label-8"><textPath href="#textpath--3814467914243644202" startOffset="50%"><tspan>Nepal | 20.5%</tspan></textPath></text><defs><path d="M-116.39569537773171 -486.2633464466906L-23.279139075546343 -97.25266928933813" stroke="#aaa" stroke-width="2" fill="none" id="textpath--8701409914728674591"/></defs><text text-anchor="middle" dominant-baseline="middle" class="small-label-7"><textPath href="#textpath--8701409914728674591" startOffset="50%"><tspan>North Korea | (n/a)</tspan></textPath></text><defs><path d="M-98.7655830717282 -490.14830368012247L-19.75311661434564 -98.0296607360245" stroke="#aaa" stroke-width="2" fill="none" id="textpath--5096897644586100285"/></defs><text text-anchor="middle" dominant-baseline="middle" class="small-label-6"><textPath href="#textpath--5096897644586100285" startOffset="50%"><tspan>Taiwan | 48.6%</tspan></textPath></text><defs><path d="M-82.57852317808467 -493.13364061857163L-16.51570463561693 -98.62672812371433" stroke="#aaa" stroke-width="2" fill="none" id="textpath-1830862783485637641"/></defs><text text-anchor="middle" dominant-baseline="middle" class="small-label-6"><textPath href="#textpath-1830862783485637641" startOffset="50%"><tspan>Sri Lanka | 63.7%</tspan></textPath></text><defs><path d="M-68.04994969098992 -495.3475591411082L-13.609989938197984 -99.06951182822165" stroke="#aaa" stroke-width="2" fill="none" id="textpath--6270520305633850988"/></defs><text text-anchor="middle" dominant-baseline="middle" class="small-label-5"><textPath href="#textpath--6270520305633850988" startOffset="50%"><tspan>Kazakhstan | 38.1%</tspan></textPath></text><defs><path d="M-55.1045736528977 -496.9542091204504L-11.02091473057954 -99.39084182409007" stroke="#aaa" stroke-width="2" fill="none" id="textpath--7833750136083736945"/></defs><text text-anchor="middle" dominant-baseline="middle" class="small-label-4"><textPath href="#textpath--7833750136083736945" startOffset="50%"><tspan>Cambodia | 68.5%</tspan></textPath></text></g><text y="654" class="legend">
            <tspan x="-654">* Showing percentage of population vaccinated, having received at least one shot of a countries chosen vaccine(s).</tspan>
            <tspan x="-654" dy="1.2em">Countries where no data was available are not counted towards a region's percentage.</tspan>
            </text><text y="-654" class="title" text-anchor="middle">
            <tspan x="0">Partial Covid Vaccinations* by Country</tspan>
            </text><text xmlns:xlink="http://www.w3.org/1999/xlink" y="654" class="sources" text-anchor="end">
    <tspan x="654">Data source:
        <a xlink:href="https://github.com/owid/covid-19-data/tree/master/public/data/vaccinations">
            <tspan>https://github.com/owid/covid-19-data/tree/master/public/data/vaccinations</tspan>
        </a>
    </tspan>
    <tspan x="654" dy="1.2em">Code source:
        <a xlink:href="https://github.com/WorldSEnder/vis_covid_vacc">
            <tspan>https://github.com/WorldSEnder/vis_covid_vacc</tspan>
        </a>
    </tspan>
    <tspan x="654" dy="1.2em">Timestamp: Sun Sep 19 02:00:22 2021 +0000</tspan>
</text><text text-anchor="middle" dominant-baseline="middle" class="label_all" x="0" y="0">
    <tspan>Asia | 49.7%</tspan>
</text></svg>