<svg xmlns="http://www.w3.org/2000/svg" viewBox="-664 -684 1328 1388"><style>
text {
    font-family: "Open Sans";
}
.legend, .sources {
    font-size: 10pt;
}
.title {
    font-size: 20pt;
    font-weight: bold;
}
.label_all {
    font-size: 18pt;
}
.label {
}
.small-label-9 {
   font-size: 9pt;
}
.small-label-8 {
   font-size: 8pt;
}
.small-label-7 {
   font-size: 7pt;
}
.small-label-6 {
   font-size: 6pt;
}
.small-label-5 {
   font-size: 5pt;
}
.small-label-4 {
   font-size: 4pt;
}
a {
    text-decoration: underline;
}
</style><style type="text/css">
@font-face{
  font-family:'Open Sans';src:local('Open Sans')
             , local('OpenSans')
             , url(https://fonts.gstatic.com/s/opensans/v18/mem5YaGs126MiZpBA-UN_r8OUuhp.woff2) format('woff2');
  }
</style><defs><pattern id="diagonalHatch" width="10" height="10" patternTransform="rotate(45 0 0)" patternUnits="userSpaceOnUse">
  <line x1="0" y1="0" x2="0" y2="10" style="stroke:#444; stroke-width:1"/>
</pattern></defs><circle cx="0" cy="0" r="199.0" stroke="#aaa" stroke-width="2" fill="none"/><path d="M2.4554168322904432e-14 -401.0A401.0 401.0 0 0 1 377.125988024757 -136.2974290159239" stroke="#aaa" stroke-width="2" fill="none"/><path d="M377.125988024757 -136.2974290159239A401.0 401.0 0 0 1 375.71666021543444 140.1356173018116" stroke="#aaa" stroke-width="2" fill="none"/><path d="M375.71666021543444 140.1356173018116A401.0 401.0 0 0 1 240.00130291906532 321.2481511186501" stroke="#aaa" stroke-width="2" fill="none"/><path d="M240.00130291906532 321.2481511186501A401.0 401.0 0 0 1 29.994475107534818 399.8766453083044" stroke="#aaa" stroke-width="2" fill="none"/><path d="M29.994475107534818 399.8766453083044A401.0 401.0 0 0 1 -167.7216793615427 364.23953419713223" stroke="#aaa" stroke-width="2" fill="none"/><path d="M-167.7216793615427 364.23953419713223A401.0 401.0 0 0 1 -294.1867253027977 272.4980195443927" stroke="#aaa" stroke-width="2" fill="none"/><path d="M-294.1867253027977 272.4980195443927A401.0 401.0 0 0 1 -372.018565626821 149.67694154064841" stroke="#aaa" stroke-width="2" fill="none"/><path d="M-372.018565626821 149.67694154064841A401.0 401.0 0 0 1 -400.14123775344365 26.229560597579948" stroke="#aaa" stroke-width="2" fill="none"/><path d="M-400.14123775344365 26.229560597579948A401.0 401.0 0 0 1 -399.19194582417117 -38.03669792597691" stroke="#aaa" stroke-width="2" fill="none"/><path d="M-399.19194582417117 -38.03669792597691A401.0 401.0 0 0 1 -389.5964279517996 -94.95063626536803" stroke="#aaa" stroke-width="2" fill="none"/><path d="M-389.5964279517996 -94.95063626536803A401.0 401.0 0 0 1 -378.49266089455347 -132.45491930827092" stroke="#aaa" stroke-width="2" fill="none"/><path d="M-378.49266089455347 -132.45491930827092A401.0 401.0 0 0 1 -365.06198431700716 -165.9239211401695" stroke="#aaa" stroke-width="2" fill="none"/><path d="M-365.06198431700716 -165.9239211401695A401.0 401.0 0 0 1 -349.2649530470437 -197.01520898917005" stroke="#aaa" stroke-width="2" fill="none"/><path d="M-349.2649530470437 -197.01520898917005A401.0 401.0 0 0 1 -331.21135151928263 -226.0531809658297" stroke="#aaa" stroke-width="2" fill="none"/><path d="M-331.21135151928263 -226.0531809658297A401.0 401.0 0 0 1 -310.7661166400722 -253.4273480673486" stroke="#aaa" stroke-width="2" fill="none"/><path d="M-310.7661166400722 -253.4273480673486A401.0 401.0 0 0 1 -289.2929120271258 -277.68797426403916" stroke="#aaa" stroke-width="2" fill="none"/><path d="M-289.2929120271258 -277.68797426403916A401.0 401.0 0 0 1 -266.4125442173597 -299.7087857965351" stroke="#aaa" stroke-width="2" fill="none"/><path d="M-266.4125442173597 -299.7087857965351A401.0 401.0 0 0 1 -242.93275075295423 -319.03711165255214" stroke="#aaa" stroke-width="2" fill="none"/><path d="M-242.93275075295423 -319.03711165255214A401.0 401.0 0 0 1 -218.97960279745692 -335.92995335139136" stroke="#aaa" stroke-width="2" fill="none"/><path d="M-218.97960279745692 -335.92995335139136A401.0 401.0 0 0 1 -199.18951895240278 -348.02950383481914" stroke="#aaa" stroke-width="2" fill="none"/><path d="M-199.18951895240278 -348.02950383481914A401.0 401.0 0 0 1 -178.80854022305627 -358.92688105420535" stroke="#aaa" stroke-width="2" fill="none"/><path d="M-178.80854022305627 -358.92688105420535A401.0 401.0 0 0 1 -161.09975002592654 -367.21638109101826" stroke="#aaa" stroke-width="2" fill="none"/><path d="M-161.09975002592654 -367.21638109101826A401.0 401.0 0 0 1 -143.84019042763862 -374.3140387665692" stroke="#aaa" stroke-width="2" fill="none"/><path d="M-143.84019042763862 -374.3140387665692A401.0 401.0 0 0 1 -126.53320375076949 -380.5132696090456" stroke="#aaa" stroke-width="2" fill="none"/><path d="M-126.53320375076949 -380.5132696090456A401.0 401.0 0 0 1 -108.97614906058018 -385.9082778795063" stroke="#aaa" stroke-width="2" fill="none"/><path d="M-108.97614906058018 -385.9082778795063A401.0 401.0 0 0 1 -92.7549209941851 -390.12501154291874" stroke="#aaa" stroke-width="2" fill="none"/><path d="M-92.7549209941851 -390.12501154291874A401.0 401.0 0 0 1 -79.34558252232154 -393.0715946671719" stroke="#aaa" stroke-width="2" fill="none"/><path d="M-79.34558252232154 -393.0715946671719A401.0 401.0 0 0 1 -66.03445869763429 -395.5255368045285" stroke="#aaa" stroke-width="2" fill="none"/><path d="M-66.03445869763429 -395.5255368045285A401.0 401.0 0 0 1 -55.183266538088276 -397.1848525487677" stroke="#aaa" stroke-width="2" fill="none"/><path d="M-55.183266538088276 -397.1848525487677A401.0 401.0 0 0 1 -45.596096981002646 -398.39929209286885" stroke="#aaa" stroke-width="2" fill="none"/><path d="M-45.596096981002646 -398.39929209286885A401.0 401.0 0 0 1 -36.595739762637095 -399.32662299329024" stroke="#aaa" stroke-width="2" fill="none"/><path d="M-36.595739762637095 -399.32662299329024A401.0 401.0 0 0 1 -29.614060261528884 -399.90499801181096" stroke="#aaa" stroke-width="2" fill="none"/><path d="M-29.614060261528884 -399.90499801181096A401.0 401.0 0 0 1 -22.636567788365667 -400.36056973528594" stroke="#aaa" stroke-width="2" fill="none"/><path d="M-22.636567788365667 -400.36056973528594A401.0 401.0 0 0 1 -16.364043303184808 -400.6659682163828" stroke="#aaa" stroke-width="2" fill="none"/><path d="M-16.364043303184808 -400.6659682163828A401.0 401.0 0 0 1 -11.909151103803156 -400.82311824542603" stroke="#aaa" stroke-width="2" fill="none"/><path d="M-11.909151103803156 -400.82311824542603A401.0 401.0 0 0 1 -8.896178296894826 -400.9013070715907" stroke="#aaa" stroke-width="2" fill="none"/><path d="M-8.896178296894826 -400.9013070715907A401.0 401.0 0 0 1 -6.761191519123217 -400.94299630900366" stroke="#aaa" stroke-width="2" fill="none"/><path d="M-6.761191519123217 -400.94299630900366A401.0 401.0 0 0 1 -4.648760964699464 -400.97305273732934" stroke="#aaa" stroke-width="2" fill="none"/><path d="M-4.648760964699464 -400.97305273732934A401.0 401.0 0 0 1 -2.912775024477873 -400.98942098471474" stroke="#aaa" stroke-width="2" fill="none"/><path d="M-2.912775024477873 -400.98942098471474A401.0 401.0 0 0 1 -1.757795797968702 -400.99614730559773" stroke="#aaa" stroke-width="2" fill="none"/><path d="M-1.757795797968702 -400.99614730559773A401.0 401.0 0 0 1 -1.4178076901800802 -400.99749353500164" stroke="#aaa" stroke-width="2" fill="none"/><path d="M-1.4178076901800802 -400.99749353500164A401.0 401.0 0 0 1 -1.130505783770337 -400.99840642660024" stroke="#aaa" stroke-width="2" fill="none"/><path d="M-1.130505783770337 -400.99840642660024A401.0 401.0 0 0 1 -0.8703021216347585 -400.99905557771217" stroke="#aaa" stroke-width="2" fill="none"/><path d="M-0.8703021216347585 -400.99905557771217A401.0 401.0 0 0 1 -0.657087153634161 -400.99946164112555" stroke="#aaa" stroke-width="2" fill="none"/><path d="M-0.657087153634161 -400.99946164112555A401.0 401.0 0 0 1 -0.49208215079026235 -400.999698073648" stroke="#aaa" stroke-width="2" fill="none"/><path d="M-0.49208215079026235 -400.999698073648A401.0 401.0 0 0 1 -0.35914429276355064 -400.99983917126076" stroke="#aaa" stroke-width="2" fill="none"/><path d="M-0.35914429276355064 -400.99983917126076A401.0 401.0 0 0 1 -0.2304649832352931 -400.99993377292657" stroke="#aaa" stroke-width="2" fill="none"/><path d="M-0.2304649832352931 -400.99993377292657A401.0 401.0 0 0 1 -0.11606167651834255 -400.9999832040985" stroke="#aaa" stroke-width="2" fill="none"/><path d="M-0.11606167651834255 -400.9999832040985A401.0 401.0 0 0 1 -0.0027314170549096735 -400.99999999069746" stroke="#aaa" stroke-width="2" fill="none"/><path d="M-0.0027314170549096735 -400.99999999069746A401.0 401.0 0 0 1 -7.366250496871329e-14 -401.0" stroke="#aaa" stroke-width="2" fill="none"/><g><circle fill="#279ee3" r="154.28409707536989"/><path d="M0.5000000000000009 -199.99937499902342L0.5000000000000042 -299.11960333920905A299.12002123195595 299.12002123195595 0 0 1 281.1412150433034 -102.13914188880186L187.92222739733825 -68.44878706027662A200 200 0 0 0 0.5000000000000009 -199.99937499902342" fill="#ff9287"/><path d="M188.26212123528322 -67.50832324974107L330.3710893920196 -118.86804815577815A351.1049267362026 351.1049267362026 0 0 1 329.14190649588755 122.23041751825355L187.56400256473378 69.42438290612702A200 200 0 0 0 188.26212123528322 -67.50832324974107" fill="#5954d6"/><path d="M187.21453718492876 70.36133218347224L336.126352933219 125.90278518013932A358.9323563741547 358.9323563741547 0 0 1 215.22387452235478 287.2474896111172L120.10158268908651 159.92376257322275A200 200 0 0 0 187.21453718492876 70.36133218347224" fill="#00c6f8"/><path d="M119.30046510524946 160.52226956304585L216.56785987865325 290.7172741527547A362.5164429694575 362.5164429694575 0 0 1 27.61450973794359 361.4631520295823L15.458390517668025 199.40170050078126A200 200 0 0 0 119.30046510524946 160.52226956304585" fill="#878500"/><path d="M14.461191900939111 199.47649969057562L26.78872882130834 363.8232365799033A364.8081461087977 364.8081461087977 0 0 1 -152.12981963559696 331.5742774175624L-83.1972849850289 181.8741646609542A200 200 0 0 0 14.461191900939111 199.47649969057562" fill="#00a76c"/><path d="M-84.1056130004831 181.4559061089304L-155.78590638143228 337.1232996836769A371.3776619786045 371.3776619786045 0 0 1 -272.11478852757625 252.73486043932897L-146.38631467280982 136.27562832918113A200 200 0 0 0 -84.1056130004831 181.4559061089304" fill="#bdbdbd"/><path d="M-147.0658608562123 135.54199559775265L-199.18635806627452 183.81994645631895A271.04423615880506 271.04423615880506 0 0 1 -251.26802473572522 101.63344774392469L-185.35820983198766 75.11547142820069A200 200 0 0 0 -147.0658608562123 135.54199559775265" fill="#ebac23"/><path d="M-185.73146903782472 74.18774433187438L-300.73612868635064 120.45840743738675A323.9636507690403 323.9636507690403 0 0 1 -323.2367756425404 21.689488048792583L-199.53836080230815 13.580963453595352A200 200 0 0 0 -185.73146903782472 74.18774433187438" fill="#b80058"/><path d="M-199.60377117786322 12.583105005332332L-292.65564381903005 18.6827255939598A293.2513769699133 293.2513769699133 0 0 1 -291.9761495743911 -27.318458493534663L-199.14503246494075 -18.473116806259185A200 200 0 0 0 -199.60377117786322 12.583105005332332" fill="#008cf9"/><path d="M-199.05017785664654 -19.46860794297788L-361.0404709972131 -34.90372859504153A362.7237129934102 362.7237129934102 0 0 1 -352.5266931994439 -85.40153716175705L-194.4302179809094 -46.87099674528006A200 200 0 0 0 -199.05017785664654 -19.46860794297788" fill="#006e00"/><path d="M-194.1934333518187 -47.84255890974845L-350.64758377933646 -85.97283953770206A361.0333186126486 361.0333186126486 0 0 1 -340.93405947122966 -118.78141370151432L-188.93896029995548 -65.59016146322438A200 200 0 0 0 -194.1934333518187 -47.84255890974845" fill="#00bbad"/><path d="M-188.60864878048346 -66.53403343553005L-315.26881667449913 -110.85923191711387A334.1918551799122 334.1918551799122 0 0 1 -304.44779852492474 -137.82501239585739L-182.28212134632128 -82.29962477122852A200 200 0 0 0 -188.60864878048346 -66.53403343553005" fill="#d163e6"/><path d="M-181.8683459818819 -83.21000378448795L-313.1471831445896 -142.87740373441875A344.20213655536656 344.20213655536656 0 0 1 -300.0402090486884 -168.67419412375614L-174.442094570989 -97.82615009130289A200 200 0 0 0 -181.8683459818819 -83.21000378448795" fill="#b24502"/><path d="M-173.95078482288633 -98.69713501161976L-333.31201457808277 -188.5904544273879A382.96639351675327 382.96639351675327 0 0 1 -316.5978435571089 -215.47404488294436L-165.47403961825762 -112.33139459837267A200 200 0 0 0 -173.95078482288633 -98.69713501161976" fill="#ff9287"/><path d="M-164.91031597495126 -113.15735806849561L-292.8376123058205 -200.4682915111488A354.88223833036926 354.88223833036926 0 0 1 -275.34159422305504 -223.89374616786307L-155.3110792342188 -126.00979591723103A200 200 0 0 0 -164.91031597495126 -113.15735806849561" fill="#5954d6"/><path d="M-154.6790908350483 -126.78477376421382L-262.0754474786145 -214.36566627122065A338.5796494874144 338.5796494874144 0 0 1 -244.60705719837875 -234.1016160041819L-144.6315351227049 -138.13659561481086A200 200 0 0 0 -154.6790908350483 -126.78477376421382" fill="#00c6f8"/><path d="M-143.93904640882943 -138.858024323108L-203.1214178844348 -195.66630466445875A282.0347730057909 282.0347730057909 0 0 1 -187.7489719474733 -210.46124754237982L-133.24737338720678 -149.14803882522324A200 200 0 0 0 -143.93904640882943 -138.858024323108" fill="#878500"/><path d="M-132.49996993135503 -149.81240925968052L-230.4695678400641 -260.0262481780083A347.46204316718837 347.46204316718837 0 0 1 -210.89611244189575 -276.13891648735853L-121.56088995813134 -158.81734802151522A200 200 0 0 0 -132.49996993135503 -149.81240925968052" fill="#00a76c"/><path d="M-120.7652861884242 -159.42316535506376L-209.04539202771932 -275.35907723214035A345.7204034218384 345.7204034218384 0 0 1 -189.21097860802206 -289.3472013280124L-109.63528347556482 -167.2725459160365A200 200 0 0 0 -120.7652861884242 -159.42316535506376" fill="#bdbdbd"/><path d="M-108.79755291857876 -167.81862971353644L-140.58500685824805 -216.58279670761686A258.20970543925444 258.20970543925444 0 0 1 -128.6947265310269 -223.85244994444608L-99.78003503429952 -173.33189149303703A200 200 0 0 0 -108.79755291857876 -167.81862971353644" fill="#ebac23"/><path d="M-98.91213103471138 -173.82862346049941L-153.30577809408737 -268.86672635568476A309.5027918101163 309.5027918101163 0 0 1 -138.4566923265897 -276.80629055033467L-89.62857787936687 -178.79238805755202A200 200 0 0 0 -98.91213103471138 -173.82862346049941" fill="#b80058"/><path d="M-88.73349837549098 -179.23829464164945L-162.2163032933895 -326.7421775512365A364.79388652374195 364.79388652374195 0 0 1 -147.01186263880518 -333.8593893970421L-80.80662720256792 -182.94886990671796A200 200 0 0 0 -88.73349837549098 -179.23829464164945" fill="#008cf9"/><path d="M-79.89087562877481 -183.35061491925146L-145.5272015890121 -332.9643423356489A363.37779193195087 363.37779193195087 0 0 1 -130.81156690218705 -339.01586044598974L-72.20724489938038 -186.51035838269388A200 200 0 0 0 -79.89087562877481 -183.35061491925146" fill="#006e00"/><path d="M-71.27379343113451 -186.86906209947105L-130.1676031548366 -340.12789546509276A364.18482970133186 364.18482970133186 0 0 1 -115.39073931181615 -345.4208555742698L-63.58308803387162 -189.62381421139312A200 200 0 0 0 -71.27379343113451 -186.86906209947105" fill="#00bbad"/><path d="M-62.634177137090894 -189.93935836039753L-97.15465870078931 -293.75006510701877A309.3996258201432 309.3996258201432 0 0 1 -84.56381509803451 -297.6190343941564L-54.83320658567635 -192.33647458434018A200 200 0 0 0 -62.634177137090894 -189.93935836039753" fill="#d163e6"/><path d="M-53.870841802934386 -192.6082355545661L-98.35148355594532 -350.1238754982874A363.6753256843192 363.6753256843192 0 0 1 -84.60774744651307 -353.69658124389997L-46.74810157778626 -194.4598030413303A200 200 0 0 0 -53.870841802934386 -192.6082355545661" fill="#b24502"/><path d="M-45.775221249748995 -194.691112071241L-72.48071438207522 -307.01378675888634A315.45351356002817 315.45351356002817 0 0 1 -62.908596379978995 -309.1171747393984L-40.063847158931026 -195.94613584050543A200 200 0 0 0 -45.775221249748995 -194.691112071241" fill="#ff9287"/><path d="M-39.083618743302104 -196.14400512360353L-50.48917364048955 -252.6462010743384A257.64172715651966 257.64172715651966 0 0 1 -42.92010653652754 -254.04157932725826L-33.427963182862754 -197.1866407174816A200 200 0 0 0 -39.083618743302104 -196.14400512360353" fill="#5954d6"/><path d="M-32.44161521078157 -197.3513151780742L-43.273813953478204 -262.23276203139517A265.7793153288919 265.7793153288919 0 0 1 -37.07016775770066 -263.18139584535703L-28.017983152859287 -198.0277571959196A200 200 0 0 0 -32.44161521078157 -197.3513151780742" fill="#00c6f8"/><path d="M-27.02749723627876 -198.1653713269373L-39.27802209944649 -286.33925476429937A289.02064258287663 289.02064258287663 0 0 1 -33.36008272983928 -287.08890037630715L-23.23788165746094 -198.64541488812128A200 200 0 0 0 -27.02749723627876 -198.1653713269373" fill="#878500"/><path d="M-22.244367213339004 -198.75912086563002L-39.21395016359485 -347.03211531315895A349.2406375927042 349.2406375927042 0 0 1 -32.36999925447575 -347.7372658982983L-18.750095739778025 -199.11914501059198A200 200 0 0 0 -22.244367213339004 -198.75912086563002" fill="#00a76c"/><path d="M-17.754268749769754 -199.21040620700754L-26.747694392837655 -297.3451703757624A298.545791296953 298.545791296953 0 0 1 -22.546366967569355 -297.6932159752511L-15.268693372805764 -199.4163157885714A200 200 0 0 0 -17.754268749769754 -199.21040620700754" fill="#bdbdbd"/><path d="M-14.271424051080484 -199.4901663129144L-23.956885248350194 -330.28156427158166A331.14927759016103 331.14927759016103 0 0 1 -19.192655387534984 -330.5926285137962L-11.789226171231459 -199.65223301101233A200 200 0 0 0 -14.271424051080484 -199.4901663129144" fill="#ebac23"/><path d="M-10.790820760420207 -199.7086833047489L-18.961867809437305 -344.22551476360945A344.7473820714154 344.7473820714154 0 0 1 -14.568050223530124 -344.43944222138555L-8.661175603995314 -199.81237208230314A200 200 0 0 0 -10.790820760420207 -199.7086833047489" fill="#b80058"/><path d="M-7.662008600961874 -199.853180170341L-13.259739564672405 -336.9110120787515A337.1718415782249 337.1718415782249 0 0 1 -10.513310606816255 -337.00789464541657L-6.439487123821166 -199.8963056326508A200 200 0 0 0 -7.662008600961874 -199.853180170341" fill="#008cf9"/><path d="M-5.439928225453454 -199.92600426383237L-9.855778388684652 -348.5490939117297A348.6884099512552 348.6884099512552 0 0 1 -8.23551553457281 -348.5911409060971L-4.936859732654989 -199.9390592555144A200 200 0 0 0 -5.439928225453454 -199.92600426383237" fill="#006e00"/><path d="M-3.9371058496833755 -199.9612442387984L-7.316386537047447 -352.2466413287999A352.3226161338209 352.3226161338209 0 0 1 -6.440373525086999 -352.26374696842856L-3.872083731241537 -199.96251390592752A200 200 0 0 0 -3.9371058496833755 -199.9612442387984" fill="#00bbad"/><path d="M-2.8722258850843545 -199.9793747326585L-4.571075258249642 -300.7222328558154A300.7569717609283 300.7569717609283 0 0 1 -3.98661312828469 -300.7305487950455L-2.818543176629496 -199.98013854971066A200 200 0 0 0 -2.8722258850843545 -199.9793747326585" fill="#d163e6"/><path d="M-1.8186103767857158 -199.99173146982216L-3.8475244505604316 -374.993172946565A375.01291071232475 375.01291071232475 0 0 1 -3.223994962044909 -374.99905207535494L-1.9527378925204748 -199.99046680960348A200 200 0 0 0 -1.8186103767857158 -199.99173146982216" fill="#b24502"/><path d="M-0.9527642741046612 -199.9977305877194L-2.209491490779322 -373.00605245097506A373.0125963257908 373.0125963257908 0 0 1 -2.135105882817127 -373.00648565484295L-1.376698590080953 -199.99526169635138A200 200 0 0 0 -0.9527642741046612 -199.9977305877194" fill="#ff9287"/><path d="M-0.3767081977976008 -199.99964522701964L-1.103943266997698 -365.8997237638696A365.9013890944018 365.9013890944018 0 0 1 -1.793705899547285 -365.8969925544056L-1.2071306700058333 -199.99635705568622A200 200 0 0 0 -0.3767081977976008 -199.99964522701964" fill="#5954d6"/><path d="M-0.20713692054192273 -199.99989273571163L-0.8026294729268983 -368.4226080157595A368.4234823015558 368.4234823015558 0 0 1 -1.5386625867078485 -368.42026929669476L-1.0638395346637455 -199.99717059359736A200 200 0 0 0 -0.20713692054192273 -199.99989273571163" fill="#00c6f8"/><path d="M-0.06384350866218243 -199.99998981001573L-0.49802142148614453 -354.0059698301573A354.00632014234793 354.00632014234793 0 0 1 -1.268308408917913 -354.0040481329365L-0.9340633620352746 -199.9978188021952A200 200 0 0 0 -0.06384350866218243 -199.99998981001573" fill="#878500"/><path d="M0.06593428279699143 -199.9999891316756L-0.19456225799802104 -320.0259711939169A320.02603033672426 320.02603033672426 0 0 1 -1.0244001684025645 -320.02439078510395L-0.8277225707413854 -199.99828718103035A200 200 0 0 0 0.06593428279699143 -199.9999891316756" fill="#00a76c"/><path d="M0.17227608671784672 -199.9999258023611L-0.10950303037765365 -371.9607891856525A371.96080530417055 371.96080530417055 0 0 1 -0.9564462761917724 -371.959575616824L-0.7454263631996633 -199.99861084401823A200 200 0 0 0 0.17227608671784672 -199.9999258023611" fill="#bdbdbd"/><path d="M0.25457288386685684 -199.99983798155137L0.07316103201239677 -347.8330761995983A347.83308389371496 347.83308389371496 0 0 1 -0.8115263277692568 -347.83213720993564L-0.6791235752439403 -199.99884697460018A200 200 0 0 0 0.25457288386685684 -199.99983798155137" fill="#ebac23"/><path d="M0.3208760236869506 -199.9997425962779L0.18996131834061125 -346.1715650274373A346.1716171479801 346.1716171479801 0 0 1 -0.6989534154856504 -346.1709115205532L-0.6149446870142035 -199.99905460534535A200 200 0 0 0 0.3208760236869506 -199.9997425962779" fill="#b80058"/><path d="M0.38505514783106615 -199.99962933098934L0.29372263788016617 -358.91457566035797A358.9146958463011 358.9146958463011 0 0 1 -0.6038807793216785 -358.9141878255124L-0.5578859211148873 -199.999221906734A200 200 0 0 0 0.38505514783106615 -199.99962933098934" fill="#008cf9"/><path d="M0.44211403700013757 -199.99951133734874L0.3754477005512891 -430.33566189285386A430.3358256730858 430.3358256730858 0 0 1 -0.5029312364477136 -430.33553178642813L-0.5013622985017596 -199.99937158862684A200 200 0 0 0 0.44211403700013757 -199.99951133734874" fill="#006e00"/><path d="M0.49863770147510816 -199.9993784001407L0.4972753965757958 -399.9996908963555A400 400 0 0 1 -0.49999999999992656 -399.9996874998779L-0.5000000000000698 -199.99937499902342A200 200 0 0 0 0.49863770147510816 -199.9993784001407" fill="url(#diagonalHatch)"/></g><g><defs><path d="M57.45024639003095 -81.85028521468168L287.2512319501547 -409.25142607340837" stroke="#aaa" stroke-width="2" fill="none" id="textpath-4924287163778445243"/></defs><text text-anchor="middle" dominant-baseline="middle" class="label"><textPath href="#textpath-4924287163778445243" startOffset="50%"><tspan>Russia | 41.2%</tspan></textPath></text><defs><path d="M99.9987004120913 0.5098194708055631L499.9935020604565 2.5490973540278157" stroke="#aaa" stroke-width="2" fill="none" id="textpath--7946676994533809008"/></defs><text text-anchor="middle" dominant-baseline="middle" class="label"><textPath href="#textpath--7946676994533809008" startOffset="50%"><tspan>Germany | 69.4%</tspan></textPath></text><defs><path d="M80.02524073368157 59.96633093258509L400.12620366840787 299.8316546629254" stroke="#aaa" stroke-width="2" fill="none" id="textpath--8248789862878560299"/></defs><text text-anchor="middle" dominant-baseline="middle" class="label"><textPath href="#textpath--8248789862878560299" startOffset="50%"><tspan>United Kingdom | 74.0%</tspan></textPath></text><defs><path d="M35.063834037759314 93.6510947216981L175.3191701887966 468.2554736084905" stroke="#aaa" stroke-width="2" fill="none" id="textpath--6830558939517196573"/></defs><text text-anchor="middle" dominant-baseline="middle" class="label"><textPath href="#textpath--6830558939517196573" startOffset="50%"><tspan>France | 76.2%</tspan></textPath></text><defs><path d="M-88.69269885184754 492.0707318774156L-17.738539770369506 98.41414637548313" stroke="#aaa" stroke-width="2" fill="none" id="textpath-4757336222922107403"/></defs><text text-anchor="middle" dominant-baseline="middle" class="label"><textPath href="#textpath-4757336222922107403" startOffset="50%"><tspan>Italy | 77.6%</tspan></textPath></text><defs><path d="M-293.5977962675028 404.72253955872765L-58.71955925350056 80.94450791174553" stroke="#aaa" stroke-width="2" fill="none" id="textpath--9200279737292483553"/></defs><text text-anchor="middle" dominant-baseline="middle" class="label"><textPath href="#textpath--9200279737292483553" startOffset="50%"><tspan>Spain | 81.6%</tspan></textPath></text><defs><path d="M-422.3393326093937 267.63685869299076L-84.46786652187875 53.52737173859815" stroke="#aaa" stroke-width="2" fill="none" id="textpath-2369808227528159293"/></defs><text text-anchor="middle" dominant-baseline="middle" class="label"><textPath href="#textpath-2369808227528159293" startOffset="50%"><tspan>Ukraine | 27.9%</tspan></textPath></text><defs><path d="M-487.50965322729866 111.06006487571945L-97.50193064545974 22.21201297514389" stroke="#aaa" stroke-width="2" fill="none" id="textpath--5021209226214331580"/></defs><text text-anchor="middle" dominant-baseline="middle" class="label"><textPath href="#textpath--5021209226214331580" startOffset="50%"><tspan>Poland | 54.1%</tspan></textPath></text><defs><path d="M-499.94546158771504 -7.384811293902436L-99.989092317543 -1.4769622587804871" stroke="#aaa" stroke-width="2" fill="none" id="textpath-922264279559682058"/></defs><text text-anchor="middle" dominant-baseline="middle" class="label"><textPath href="#textpath-922264279559682058" startOffset="50%"><tspan>Romania | 38.3%</tspan></textPath></text><defs><path d="M-493.04175916661757 -83.1253494301653L-98.60835183332351 -16.62506988603306" stroke="#aaa" stroke-width="2" fill="none" id="textpath--545448321643151831"/></defs><text text-anchor="middle" dominant-baseline="middle" class="label"><textPath href="#textpath--545448321643151831" startOffset="50%"><tspan>Netherlands | 76.3%</tspan></textPath></text><defs><path d="M-479.42903616850293 -141.942943743394L-95.88580723370058 -28.3885887486788" stroke="#aaa" stroke-width="2" fill="none" id="textpath--1250225196155910669"/></defs><text text-anchor="middle" dominant-baseline="middle" class="label"><textPath href="#textpath--1250225196155910669" startOffset="50%"><tspan>Belgium | 75.3%</tspan></textPath></text><defs><path d="M-464.0321197722649 -186.21007443116076L-92.80642395445298 -37.24201488623215" stroke="#aaa" stroke-width="2" fill="none" id="textpath--7572331829341965238"/></defs><text text-anchor="middle" dominant-baseline="middle" class="label"><textPath href="#textpath--7572331829341965238" startOffset="50%"><tspan>Czechia | 59.7%</tspan></textPath></text><defs><path d="M-445.7626221219149 -226.48550664224615L-89.15252442438297 -45.29710132844923" stroke="#aaa" stroke-width="2" fill="none" id="textpath--5326633648423755307"/></defs><text text-anchor="middle" dominant-baseline="middle" class="label"><textPath href="#textpath--5326633648423755307" startOffset="50%"><tspan>Greece | 65.4%</tspan></textPath></text><defs><path d="M-424.62318678112325 -263.99838872205885L-84.92463735622465 -52.79967774441177" stroke="#aaa" stroke-width="2" fill="none" id="textpath--9056374680053735798"/></defs><text text-anchor="middle" dominant-baseline="middle" class="label"><textPath href="#textpath--9056374680053735798" startOffset="50%"><tspan>Portugal | 88.9%</tspan></textPath></text><defs><path d="M-400.59901847959804 -299.1996430365228L-80.11980369591961 -59.83992860730456" stroke="#aaa" stroke-width="2" fill="none" id="textpath-2292256108630800495"/></defs><text text-anchor="middle" dominant-baseline="middle" class="label"><textPath href="#textpath-2292256108630800495" startOffset="50%"><tspan>Sweden | 71.6%</tspan></textPath></text><defs><path d="M-374.40727045923376 -331.38979439214205L-74.88145409184675 -66.27795887842841" stroke="#aaa" stroke-width="2" fill="none" id="textpath-1778907109666247639"/></defs><text text-anchor="middle" dominant-baseline="middle" class="label"><textPath href="#textpath-1778907109666247639" startOffset="50%"><tspan>Hungary | 62.2%</tspan></textPath></text><defs><path d="M-346.7216907103731 -360.2555609438116L-69.34433814207462 -72.05111218876232" stroke="#aaa" stroke-width="2" fill="none" id="textpath-6881604585411103159"/></defs><text text-anchor="middle" dominant-baseline="middle" class="label"><textPath href="#textpath-6881604585411103159" startOffset="50%"><tspan>Belarus | 33.0%</tspan></textPath></text><defs><path d="M-317.77549428087207 -386.02944866233645L-63.55509885617441 -77.2058897324673" stroke="#aaa" stroke-width="2" fill="none" id="textpath--264531210600180507"/></defs><text text-anchor="middle" dominant-baseline="middle" class="label"><textPath href="#textpath--264531210600180507" startOffset="50%"><tspan>Austria | 67.3%</tspan></textPath></text><defs><path d="M-288.16779854767765 -408.6065587826327L-57.63355970953553 -81.72131175652653" stroke="#aaa" stroke-width="2" fill="none" id="textpath-7718369163722078826"/></defs><text text-anchor="middle" dominant-baseline="middle" class="label"><textPath href="#textpath-7718369163722078826" startOffset="50%"><tspan>Switzerland | 66.3%</tspan></textPath></text><defs><path d="M-260.81305041785305 -426.58709864661216L-52.16261008357061 -85.31741972932242" stroke="#aaa" stroke-width="2" fill="none" id="textpath-5002370636774551060"/></defs><text text-anchor="middle" dominant-baseline="middle" class="label"><textPath href="#textpath-5002370636774551060" startOffset="50%"><tspan>Bulgaria | 22.2%</tspan></textPath></text><defs><path d="M-235.75754851647312 -440.9289946436986L-47.15150970329462 -88.18579892873973" stroke="#aaa" stroke-width="2" fill="none" id="textpath--1932332586906702143"/></defs><text text-anchor="middle" dominant-baseline="middle" class="label"><textPath href="#textpath--1932332586906702143" startOffset="50%"><tspan>Serbia | 46.5%</tspan></textPath></text><defs><path d="M-211.97590720196607 -452.8423729797196L-42.395181440393216 -90.56847459594391" stroke="#aaa" stroke-width="2" fill="none" id="textpath--3983042564630645706"/></defs><text text-anchor="middle" dominant-baseline="middle" class="small-label-9"><textPath href="#textpath--3983042564630645706" startOffset="50%"><tspan>Denmark | 77.6%</tspan></textPath></text><defs><path d="M-190.16367229537403 -462.42597000940333L-38.03273445907481 -92.48519400188067" stroke="#aaa" stroke-width="2" fill="none" id="textpath-6284691767897739536"/></defs><text text-anchor="middle" dominant-baseline="middle" class="small-label-9"><textPath href="#textpath-6284691767897739536" startOffset="50%"><tspan>Finland | 76.7%</tspan></textPath></text><defs><path d="M-168.60626812963193 -470.71427251295313L-33.72125362592639 -94.14285450259062" stroke="#aaa" stroke-width="2" fill="none" id="textpath-4668958373659826861"/></defs><text text-anchor="middle" dominant-baseline="middle" class="small-label-9"><textPath href="#textpath-4668958373659826861" startOffset="50%"><tspan>Norway | 77.2%</tspan></textPath></text><defs><path d="M-146.86479967166514 -477.94427564037386L-29.372959934333025 -95.58885512807477" stroke="#aaa" stroke-width="2" fill="none" id="textpath-5260519741777867746"/></defs><text text-anchor="middle" dominant-baseline="middle" class="small-label-9"><textPath href="#textpath-5260519741777867746" startOffset="50%"><tspan>Slovakia | 46.4%</tspan></textPath></text><defs><path d="M-125.79497250741673 -483.9169607400202L-25.158994501483345 -96.78339214800404" stroke="#aaa" stroke-width="2" fill="none" id="textpath--2812245626681170936"/></defs><text text-anchor="middle" dominant-baseline="middle" class="small-label-8"><textPath href="#textpath--2812245626681170936" startOffset="50%"><tspan>Ireland | 76.9%</tspan></textPath></text><defs><path d="M-107.31030319483733 -488.34874713490575L-21.46206063896747 -97.66974942698114" stroke="#aaa" stroke-width="2" fill="none" id="textpath-3535113316719841774"/></defs><text text-anchor="middle" dominant-baseline="middle" class="small-label-6"><textPath href="#textpath-3535113316719841774" startOffset="50%"><tspan>Croatia | 49.6%</tspan></textPath></text><defs><path d="M-90.64884688332138 -491.71413093252073L-18.129769376664274 -98.34282618650415" stroke="#aaa" stroke-width="2" fill="none" id="textpath-422458861845642352"/></defs><text text-anchor="middle" dominant-baseline="middle" class="small-label-6"><textPath href="#textpath-422458861845642352" startOffset="50%"><tspan>Moldova | 22.0%</tspan></textPath></text><defs><path d="M-75.57922796741481 -494.2547726626922L-15.115845593482963 -98.85095453253844" stroke="#aaa" stroke-width="2" fill="none" id="textpath--2015304695030017179"/></defs><text text-anchor="middle" dominant-baseline="middle" class="small-label-5"><textPath href="#textpath--2015304695030017179" startOffset="50%"><tspan>Bosnia and Herzegovina | 25.5%</tspan></textPath></text><defs><path d="M-62.83458886672 -496.03610195423306L-12.566917773343999 -99.2072203908466" stroke="#aaa" stroke-width="2" fill="none" id="textpath-8231665693904073735"/></defs><text text-anchor="middle" dominant-baseline="middle" class="small-label-4"><textPath href="#textpath-8231665693904073735" startOffset="50%"><tspan>Albania | 36.3%</tspan></textPath></text><defs><path d="M-51.24505479494216 -497.3670117318431L-10.249010958988434 -99.47340234636862" stroke="#aaa" stroke-width="2" fill="none" id="textpath-1781645800587481457"/></defs><text text-anchor="middle" dominant-baseline="middle" class="small-label-4"><textPath href="#textpath-1781645800587481457" startOffset="50%"><tspan>Lithuania | 68.3%</tspan></textPath></text></g><text y="654" class="legend">
            <tspan x="-654">* Showing percentage of population vaccinated, having received at least one shot of a countries chosen vaccine(s).</tspan>
            <tspan x="-654" dy="1.2em">Countries where no data was available are not counted towards a region's percentage.</tspan>
            </text><text y="-654" class="title" text-anchor="middle">
            <tspan x="0">Partial Covid Vaccinations* by Country</tspan>
            </text><text xmlns:xlink="http://www.w3.org/1999/xlink" y="654" class="sources" text-anchor="end">
    <tspan x="654">Data source:
        <a xlink:href="https://github.com/owid/covid-19-data/tree/master/public/data/vaccinations">
            <tspan>https://github.com/owid/covid-19-data/tree/master/public/data/vaccinations</tspan>
        </a>
    </tspan>
    <tspan x="654" dy="1.2em">Code source:
        <a xlink:href="https://github.com/WorldSEnder/vis_covid_vacc">
            <tspan>https://github.com/WorldSEnder/vis_covid_vacc</tspan>
        </a>
    </tspan>
    <tspan x="654" dy="1.2em">Timestamp: Sat Nov 13 22:00:15 2021 +0000</tspan>
</text><text text-anchor="middle" dominant-baseline="middle" class="label_all" x="0" y="0">
    <tspan>Europe | 60.7%</tspan>
</text></svg>