<svg xmlns="http://www.w3.org/2000/svg" viewBox="-664 -684 1328 1388"><style>
text {
    font-family: "Open Sans";
}
.legend, .sources {
    font-size: 10pt;
}
.title {
    font-size: 20pt;
    font-weight: bold;
}
.label_all {
    font-size: 18pt;
}
.label {
}
.small-label-9 {
   font-size: 9pt;
}
.small-label-8 {
   font-size: 8pt;
}
.small-label-7 {
   font-size: 7pt;
}
.small-label-6 {
   font-size: 6pt;
}
.small-label-5 {
   font-size: 5pt;
}
.small-label-4 {
   font-size: 4pt;
}
a {
    text-decoration: underline;
}
</style><style type="text/css">
@font-face{
  font-family:'Open Sans';src:local('Open Sans')
             , local('OpenSans')
             , url(https://fonts.gstatic.com/s/opensans/v18/mem5YaGs126MiZpBA-UN_r8OUuhp.woff2) format('woff2');
  }
</style><defs><pattern id="diagonalHatch" width="10" height="10" patternTransform="rotate(45 0 0)" patternUnits="userSpaceOnUse">
  <line x1="0" y1="0" x2="0" y2="10" style="stroke:#444; stroke-width:1"/>
</pattern></defs><circle cx="0" cy="0" r="199.0" stroke="#aaa" stroke-width="2" fill="none"/><path d="M2.4554168322904432e-14 -401.0A401.0 401.0 0 0 1 377.14220595727244 -136.25254671264787" stroke="#aaa" stroke-width="2" fill="none"/><path d="M377.14220595727244 -136.25254671264787A401.0 401.0 0 0 1 375.69038661836873 140.2060391086654" stroke="#aaa" stroke-width="2" fill="none"/><path d="M375.69038661836873 140.2060391086654A401.0 401.0 0 0 1 239.92320972932177 321.3064789779065" stroke="#aaa" stroke-width="2" fill="none"/><path d="M239.92320972932177 321.3064789779065A401.0 401.0 0 0 1 29.875239446835824 399.88557121755997" stroke="#aaa" stroke-width="2" fill="none"/><path d="M29.875239446835824 399.88557121755997A401.0 401.0 0 0 1 -167.84821141961726 364.18124323368914" stroke="#aaa" stroke-width="2" fill="none"/><path d="M-167.84821141961726 364.18124323368914A401.0 401.0 0 0 1 -294.2917626226074 272.3845782207188" stroke="#aaa" stroke-width="2" fill="none"/><path d="M-294.2917626226074 272.3845782207188A401.0 401.0 0 0 1 -372.081545683451 149.52031086716602" stroke="#aaa" stroke-width="2" fill="none"/><path d="M-372.081545683451 149.52031086716602A401.0 401.0 0 0 1 -400.1530479910749 26.04876548807077" stroke="#aaa" stroke-width="2" fill="none"/><path d="M-400.1530479910749 26.04876548807077A401.0 401.0 0 0 1 -399.17412300530515 -38.223285088353364" stroke="#aaa" stroke-width="2" fill="none"/><path d="M-399.17412300530515 -38.223285088353364A401.0 401.0 0 0 1 -389.55067078607135 -95.13818838995124" stroke="#aaa" stroke-width="2" fill="none"/><path d="M-389.55067078607135 -95.13818838995124A401.0 401.0 0 0 1 -378.4275909342081 -132.6407117733151" stroke="#aaa" stroke-width="2" fill="none"/><path d="M-378.4275909342081 -132.6407117733151A401.0 401.0 0 0 1 -364.97903253221375 -166.10630876595042" stroke="#aaa" stroke-width="2" fill="none"/><path d="M-364.97903253221375 -166.10630876595042A401.0 401.0 0 0 1 -349.1648000758103 -197.19265297677657" stroke="#aaa" stroke-width="2" fill="none"/><path d="M-349.1648000758103 -197.19265297677657A401.0 401.0 0 0 1 -331.09456992436515 -226.22419359255028" stroke="#aaa" stroke-width="2" fill="none"/><path d="M-331.09456992436515 -226.22419359255028A401.0 401.0 0 0 1 -310.63309986818615 -253.59037297634447" stroke="#aaa" stroke-width="2" fill="none"/><path d="M-310.63309986818615 -253.59037297634447A401.0 401.0 0 0 1 -289.1449853729374 -277.8420008452354" stroke="#aaa" stroke-width="2" fill="none"/><path d="M-289.1449853729374 -277.8420008452354A401.0 401.0 0 0 1 -266.25058399790373 -299.8526746933821" stroke="#aaa" stroke-width="2" fill="none"/><path d="M-266.25058399790373 -299.8526746933821A401.0 401.0 0 0 1 -242.7579974938574 -319.1701030058617" stroke="#aaa" stroke-width="2" fill="none"/><path d="M-242.7579974938574 -319.1701030058617A401.0 401.0 0 0 1 -218.79321314062847 -336.05137982695373" stroke="#aaa" stroke-width="2" fill="none"/><path d="M-218.79321314062847 -336.05137982695373A401.0 401.0 0 0 1 -198.99446184810324 -348.1410693293507" stroke="#aaa" stroke-width="2" fill="none"/><path d="M-198.99446184810324 -348.1410693293507A401.0 401.0 0 0 1 -178.80699726557802 -358.92764971351477" stroke="#aaa" stroke-width="2" fill="none"/><path d="M-178.80699726557802 -358.92764971351477A401.0 401.0 0 0 1 -161.09643029060112 -367.2178374584022" stroke="#aaa" stroke-width="2" fill="none"/><path d="M-161.09643029060112 -367.2178374584022A401.0 401.0 0 0 1 -143.83511261590158 -374.31599001214323" stroke="#aaa" stroke-width="2" fill="none"/><path d="M-143.83511261590158 -374.31599001214323A401.0 401.0 0 0 1 -126.52634555272974 -380.5155501172997" stroke="#aaa" stroke-width="2" fill="none"/><path d="M-126.52634555272974 -380.5155501172997A401.0 401.0 0 0 1 -108.96747482898733 -385.9107272795018" stroke="#aaa" stroke-width="2" fill="none"/><path d="M-108.96747482898733 -385.9107272795018A401.0 401.0 0 0 1 -92.74456644595118 -390.1274732632304" stroke="#aaa" stroke-width="2" fill="none"/><path d="M-92.74456644595118 -390.1274732632304A401.0 401.0 0 0 1 -79.3338411961331 -393.07396459326424" stroke="#aaa" stroke-width="2" fill="none"/><path d="M-79.3338411961331 -393.07396459326424A401.0 401.0 0 0 1 -66.02134592403074 -395.5277258074072" stroke="#aaa" stroke-width="2" fill="none"/><path d="M-66.02134592403074 -395.5277258074072A401.0 401.0 0 0 1 -55.16904154986242 -397.186828651794" stroke="#aaa" stroke-width="2" fill="none"/><path d="M-55.16904154986242 -397.186828651794A401.0 401.0 0 0 1 -45.58089496149905 -398.40103164337916" stroke="#aaa" stroke-width="2" fill="none"/><path d="M-45.58089496149905 -398.40103164337916A401.0 401.0 0 0 1 -36.5796262761868 -399.328099363787" stroke="#aaa" stroke-width="2" fill="none"/><path d="M-36.5796262761868 -399.328099363787A401.0 401.0 0 0 1 -29.597244137123752 -399.9062429363757" stroke="#aaa" stroke-width="2" fill="none"/><path d="M-29.597244137123752 -399.9062429363757A401.0 401.0 0 0 1 -22.6190537204223 -400.3615596043065" stroke="#aaa" stroke-width="2" fill="none"/><path d="M-22.6190537204223 -400.3615596043065A401.0 401.0 0 0 1 -16.345905782157217 -400.66670857978806" stroke="#aaa" stroke-width="2" fill="none"/><path d="M-16.345905782157217 -400.66670857978806A401.0 401.0 0 0 1 -11.89057324282697 -400.8236697950321" stroke="#aaa" stroke-width="2" fill="none"/><path d="M-11.89057324282697 -400.8236697950321A401.0 401.0 0 0 1 -8.904210349734285 -400.9011287562654" stroke="#aaa" stroke-width="2" fill="none"/><path d="M-8.904210349734285 -400.9011287562654A401.0 401.0 0 0 1 -6.769016812465401 -400.9428642729442" stroke="#aaa" stroke-width="2" fill="none"/><path d="M-6.769016812465401 -400.9428642729442A401.0 401.0 0 0 1 -4.656381446091622 -400.972964315337" stroke="#aaa" stroke-width="2" fill="none"/><path d="M-4.656381446091622 -400.972964315337A401.0 401.0 0 0 1 -2.925394207626047 -400.98932912077595" stroke="#aaa" stroke-width="2" fill="none"/><path d="M-2.925394207626047 -400.98932912077595A401.0 401.0 0 0 1 -1.7703028937948053 -400.9960922847805" stroke="#aaa" stroke-width="2" fill="none"/><path d="M-1.7703028937948053 -400.9960922847805A401.0 401.0 0 0 1 -1.4302817710393076 -400.9974492363454" stroke="#aaa" stroke-width="2" fill="none"/><path d="M-1.4302817710393076 -400.9974492363454A401.0 401.0 0 0 1 -1.142951958750736 -400.9983711448464" stroke="#aaa" stroke-width="2" fill="none"/><path d="M-1.142951958750736 -400.9983711448464A401.0 401.0 0 0 1 -0.8827230172479281 -400.99902842784394" stroke="#aaa" stroke-width="2" fill="none"/><path d="M-0.8827230172479281 -400.99902842784394A401.0 401.0 0 0 1 -0.657151042213894 -400.99946153643117" stroke="#aaa" stroke-width="2" fill="none"/><path d="M-0.657151042213894 -400.99946153643117A401.0 401.0 0 0 1 -0.49212999595334567 -400.99969801493256" stroke="#aaa" stroke-width="2" fill="none"/><path d="M-0.49212999595334567 -400.99969801493256A401.0 401.0 0 0 1 -0.3591792123826998 -400.99983913998443" stroke="#aaa" stroke-width="2" fill="none"/><path d="M-0.3591792123826998 -400.99983913998443A401.0 401.0 0 0 1 -0.2304873913616892 -400.99993376004744" stroke="#aaa" stroke-width="2" fill="none"/><path d="M-0.2304873913616892 -400.99993376004744A401.0 401.0 0 0 1 -0.11607296120408378 -400.99998320083216" stroke="#aaa" stroke-width="2" fill="none"/><path d="M-0.11607296120408378 -400.99998320083216A401.0 401.0 0 0 1 -0.002731682630617759 -400.99999999069564" stroke="#aaa" stroke-width="2" fill="none"/><path d="M-0.002731682630617759 -400.99999999069564A401.0 401.0 0 0 1 2.824970413310369e-13 -401.0" stroke="#aaa" stroke-width="2" fill="none"/><g><circle fill="#279ee3" r="147.39543843480186"/><path d="M0.5000000000000009 -199.99937499902342L0.5000000000000474 -280.07771165227365A280.07815795662134 280.07815795662134 0 0 1 263.24438837567834 -95.63559250137548L187.93037207942928 -68.42642216342507A200 200 0 0 0 0.5000000000000009 -199.99937499902342" fill="#ff9287"/><path d="M188.2701539914309 -67.48591790916754L325.52307084279784 -117.07214604629822A345.93519195191885 345.93519195191885 0 0 1 324.2755443318616 120.48455659994683L187.55098637498645 69.45953865215095A200 200 0 0 0 188.2701539914309 -67.48591790916754" fill="#5954d6"/><path d="M187.20134537970299 70.396422409304L331.5653059617359 124.27243261397048A354.08923963500126 354.08923963500126 0 0 1 212.2563477456234 283.4191815438439L120.06270631698983 159.95295105699128A200 200 0 0 0 187.20134537970299 70.396422409304" fill="#00c6f8"/><path d="M119.26144327714468 160.5512633007053L213.89616920209255 287.28660753975885A358.16918637849574 358.16918637849574 0 0 1 27.182849288699014 357.1361907950264L15.398932675616237 199.40630098482805A200 200 0 0 0 119.26144327714468 160.5512633007053" fill="#878500"/><path d="M14.401711799761996 199.48080282883512L26.127109553124196 356.4274069456083A357.3837185373324 357.3837185373324 0 0 1 -149.13732822457973 324.77866248509184L-83.26046572820584 181.8452497227306A200 200 0 0 0 14.401711799761996 199.48080282883512" fill="#00a76c"/><path d="M-84.16864837966149 181.42667562941483L-154.80128011898492 334.67870865458025A368.74554146887505 368.74554146887505 0 0 1 -270.2805070020475 250.84202576101558L-146.43884364781067 136.2191802614157A200 200 0 0 0 -84.16864837966149 181.42667562941483" fill="#bdbdbd"/><path d="M-147.11810693514417 135.48528559153382L-175.93716403101917 162.15904173687727A239.26855310362046 239.26855310362046 0 0 1 -221.82657987953743 89.67947905316602L-185.38981653348426 75.03743016442553A200 200 0 0 0 -147.11810693514417 135.48528559153382" fill="#ebac23"/><path d="M-185.76268513913809 74.10954601060139L-296.86543162702765 118.75598813003397A319.73750047787985 319.73750047787985 0 0 1 -319.0293130980535 21.2689114913385L-199.54447660704534 13.490806336922285A200 200 0 0 0 -185.76268513913809 74.10954601060139" fill="#b80058"/><path d="M-199.60943612197818 12.492918436695097L-270.6522816407136 17.11759499935887A271.19304861276635 271.19304861276635 0 0 1 -270.0054239343761 -25.352330502423055L-199.13637595857483 -18.56619966727556A200 200 0 0 0 -199.60943612197818 12.492918436695097" fill="#008cf9"/><path d="M-199.04105604563628 -19.56164635806192L-350.9556226342445 -34.10836532890272A352.6091740780437 352.6091740780437 0 0 1 -342.6597787675424 -83.17154356496596L-194.4076303787022 -46.96459571355747A200 200 0 0 0 -199.04105604563628 -19.56164635806192" fill="#006e00"/><path d="M-194.17037803857764 -47.93604377038066L-347.22840262436546 -85.316708905041A357.5562954381533 357.5562954381533 0 0 1 -337.59440290607364 -117.79865675782382L-188.90673821724286 -65.6829068793554A200 200 0 0 0 -194.17037803857764 -47.93604377038066" fill="#00bbad"/><path d="M-188.57596337491537 -66.62661658243329L-309.37344602213045 -108.96672196216203A328.0025542564984 328.0025542564984 0 0 1 -298.7455585620896 -135.4133185407264L-182.24097643035904 -82.3906943150094A200 200 0 0 0 -188.57596337491537 -66.62661658243329" fill="#d163e6"/><path d="M-181.82674623393518 -83.30086646596261L-306.3812800627707 -139.9871196757151A336.84697185518075 336.84697185518075 0 0 1 -293.5500557091528 -165.2097068611836L-174.3923643723427 -97.91477543570252A200 200 0 0 0 -181.82674623393518 -83.30086646596261" fill="#b24502"/><path d="M-173.90061212053024 -98.7855105979864L-330.6421635515206 -187.30612422130145A380.01029524058436 380.01029524058436 0 0 1 -314.045756749438 -213.96982767789694L-165.41600784847822 -112.41683302545124A200 200 0 0 0 -173.90061212053024 -98.7855105979864" fill="#ff9287"/><path d="M-164.8518577397686 -113.24250526965172L-289.8895509071342 -198.67595502970588A351.4371733782664 351.4371733782664 0 0 1 -272.55536976340426 -221.85954395797273L-155.24494018487442 -126.09127070100755A200 200 0 0 0 -164.8518577397686 -113.24250526965172" fill="#5954d6"/><path d="M-154.61254523979622 -126.86591683534223L-260.00204080801444 -212.90234212380645A336.04831275597076 336.04831275597076 0 0 1 -242.65710205345252 -232.47795450140012L-144.55794852646352 -138.21360105944825A200 200 0 0 0 -154.61254523979622 -126.86591683534223" fill="#00c6f8"/><path d="M-143.86507570640057 -138.9346608733459L-179.56440923424458 -173.2384695436722A249.50940742480452 249.50940742480452 0 0 1 -166.03944735658624 -186.24136574616426L-133.16677488791132 -149.22000558220188A200 200 0 0 0 -143.86507570640057 -138.9346608733459" fill="#878500"/><path d="M-132.4190126068804 -149.88397212583757L-224.63746619933033 -253.74083339755356A338.8899552269738 338.8899552269738 0 0 1 -205.55546736043573 -269.4315341454544L-121.47389732241625 -158.8838955630906A200 200 0 0 0 -132.4190126068804 -149.88397212583757" fill="#00a76c"/><path d="M-120.67796190344895 -159.48927710297556L-202.7175009746654 -267.3521216075162A335.5168283848868 335.5168283848868 0 0 1 -183.48316489139285 -280.9011753818263L-109.54247274829751 -167.33333996603454A200 200 0 0 0 -120.67796190344895 -159.48927710297556" fill="#bdbdbd"/><path d="M-108.70443938214547 -167.87895895142267L-132.05432307891596 -203.74277996517185A242.79510833574705 242.79510833574705 0 0 1 -120.9198254548391 -210.54182587727882L-99.68288910860934 -173.3877781706678A200 200 0 0 0 -108.70443938214547 -167.87895895142267" fill="#ebac23"/><path d="M-98.81470689083037 -173.88402371143613L-150.68687019172557 -264.634440744575A304.5290135214901 304.5290135214901 0 0 1 -136.23767809960006 -272.3549433045078L-89.6278092853478 -178.79277335146776A200 200 0 0 0 -98.81470689083037 -173.88402371143613" fill="#b80058"/><path d="M-88.73272786461578 -179.23867608779094L-161.3457445130065 -324.99818104443824A362.84468709717913 362.84468709717913 0 0 1 -146.2257787088429 -332.0757272003516L-80.80497329531966 -182.9496004115414A200 200 0 0 0 -88.73272786461578 -179.23867608779094" fill="#008cf9"/><path d="M-79.88921808968767 -183.3513371454332L-143.58621877670973 -328.54806684751424A358.55380970201924 358.55380970201924 0 0 1 -129.07664700285713 -334.5146538648668L-72.20471476583677 -186.51133790090122A200 200 0 0 0 -79.88921808968767 -183.3513371454332" fill="#006e00"/><path d="M-71.27125843164185 -186.87002895480623L-128.28897840597872 -335.2527424124207A358.960253058049 358.960253058049 0 0 1 -113.73601679088003 -340.4652431013234L-63.579670340436614 -189.62496016980836A200 200 0 0 0 -71.27125843164185 -186.87002895480623" fill="#00bbad"/><path d="M-62.63075375660287 -189.94048721607453L-95.78502540077679 -289.6487010138375A305.0756317538831 305.0756317538831 0 0 1 -83.38212453855037 -293.45964355847735L-54.82888335326446 -192.33770704215573A200 200 0 0 0 -62.63075375660287 -189.94048721607453" fill="#d163e6"/><path d="M-53.86651246229307 -192.6094463808814L-97.57267680999168 -347.39579612871364A360.8382829298602 360.8382829298602 0 0 1 -83.94219879273193 -350.9387036073555L-46.74294030019268 -194.46104373908062A200 200 0 0 0 -53.86651246229307 -192.6094463808814" fill="#b24502"/><path d="M-45.77005383320201 -194.69232694717527L-69.74282260332735 -295.5331208158166A303.6509291996572 303.6509291996572 0 0 1 -60.56433645919021 -297.5497403007995L-40.05799410921457 -195.94733248489538A200 200 0 0 0 -45.77005383320201 -194.69232694717527" fill="#ff9287"/><path d="M-39.07775978354551 -196.14517248787826L-46.77963076374623 -234.30549493449706A238.92969428451556 238.92969428451556 0 0 1 -39.83089606133071 -235.58628680346305L-33.421425896020416 -197.1877488361709A200 200 0 0 0 -39.07775978354551 -196.14517248787826" fill="#5954d6"/><path d="M-32.43507246507919 -197.35239059657997L-40.934679796395656 -248.272745384256A251.62472873441726 251.62472873441726 0 0 1 -35.11336938257331 -249.16270868906534L-28.010890881779428 -198.028760517277A200 200 0 0 0 -32.43507246507919 -197.35239059657997" fill="#00c6f8"/><path d="M-27.020400037261172 -198.16633917450858L-37.94487651212538 -276.81657568098683A279.40513636164235 279.40513636164235 0 0 1 -32.25615036426912 -277.53697229188333L-23.230301795555235 -198.6463014467861A200 200 0 0 0 -27.020400037261172 -198.16633917450858" fill="#878500"/><path d="M-22.236783013402103 -198.7599695140218L-38.34229998565378 -339.53067141258725A341.6887601283837 341.6887601283837 0 0 1 -31.66707684792984 -340.2181727097767L-18.74206095415741 -199.1199014443073A200 200 0 0 0 -22.236783013402103 -198.7599695140218" fill="#00a76c"/><path d="M-17.746230282427202 -199.21112245746485L-25.97674822207636 -289.06105861603305A290.225924163254 290.225924163254 0 0 1 -21.919770339997655 -289.39697773932716L-15.260307856824095 -199.41695766437454A200 200 0 0 0 -17.746230282427202 -199.21112245746485" fill="#bdbdbd"/><path d="M-14.26303543054878 -199.4907662532452L-23.105632434200146 -318.96843549662077A319.8042105622537 319.8042105622537 0 0 1 -18.538255754475117 -319.26645011170206L-11.780492236797912 -199.65274854771909A200 200 0 0 0 -14.26303543054878 -199.4907662532452" fill="#ebac23"/><path d="M-10.782084357485362 -199.70915516547575L-17.08082877546578 -311.19813122527717A311.6665390922831 311.6665390922831 0 0 1 -13.203986737884998 -311.38671507305406L-8.652130410260037 -199.81276395506833A200 200 0 0 0 -10.782084357485362 -199.70915516547575" fill="#b80058"/><path d="M-7.652961560933816 -199.85352681238044L-12.863987837069352 -327.5848850012341A327.83736679082824 327.83736679082824 0 0 1 -10.220901552968332 -327.6780008419677L-6.4302220744215335 -199.8966038832917A200 200 0 0 0 -7.652961560933816 -199.85352681238044" fill="#008cf9"/><path d="M-5.430661800618394 -199.92625618564287L-9.755250731377041 -345.70540157943657A345.843012937997 345.843012937997 0 0 1 -8.179317409633494 -345.74627744162916L-4.940865509189124 -199.93896030543948A200 200 0 0 0 -5.430661800618394 -199.92625618564287" fill="#006e00"/><path d="M-3.941112070894132 -199.96116531878047L-7.153946529822264 -344.6150886315627A344.6893358714356 344.6893358714356 0 0 1 -6.318396226867178 -344.63142069842047L-3.875986443858971 -199.96243829551344A200 200 0 0 0 -3.941112070894132 -199.96116531878047" fill="#00bbad"/><path d="M-2.8761289269687698 -199.97931863669166L-4.387517271157321 -289.501975846194A289.53522121955217 289.53522121955217 0 0 1 -3.8620222043643846 -289.5094629043203L-2.822343793349264 -199.98008494725704A200 200 0 0 0 -2.8761289269687698 -199.97931863669166" fill="#d163e6"/><path d="M-1.8224112140092057 -199.99169687106274L-3.8064588707359492 -370.84313579867677A370.86267067221854 370.86267067221854 0 0 1 -3.205519169973154 -370.84881710069044L-1.959031615240334 -199.99040525767853A200 200 0 0 0 -1.8224112140092057 -199.99169687106274" fill="#b24502"/><path d="M-0.9590582259116496 -199.99770050507908L-2.2125800662326847 -371.820315207127A371.8268983159728 371.8268983159728 0 0 1 -2.141505449089357 -371.820731355432L-1.3829364550132845 -199.99521865975046A200 200 0 0 0 -0.9590582259116496 -199.99770050507908" fill="#ff9287"/><path d="M-0.38294619993895285 -199.99963338018384L-1.0991013337104325 -362.2178679651295A362.21953549877145 362.21953549877145 0 0 1 -1.791955685221053 -362.2151029316254L-1.2133520820412567 -199.99631940794563A200 200 0 0 0 -0.38294619993895285 -199.99963338018384" fill="#5954d6"/><path d="M-0.21335844304781024 -199.99988619540457L-0.795528418054252 -363.21854683029585A363.2194180202591 363.2194180202591 0 0 1 -1.5352646820798828 -363.2161733586924L-1.070047039841629 -199.99713747784625A200 200 0 0 0 -0.21335844304781024 -199.99988619540457" fill="#00c6f8"/><path d="M-0.07005110182448963 -199.99998773210746L-0.48754735822330275 -346.4762394180881A346.47658244638524 346.47658244638524 0 0 1 -1.2626983790832556 -346.4742815513588L-0.9402582692288605 -199.9977897737551A200 200 0 0 0 -0.07005110182448963 -199.99998773210746" fill="#878500"/><path d="M0.05973930789799862 -199.9999910780375L-0.19263561954712521 -314.6476197538228A314.6476787221355 314.6476787221355 0 0 1 -1.0156372062449983 -314.64603955284974L-0.8277544351395624 -199.99828704915225A200 200 0 0 0 0.05973930789799862 -199.9999910780375" fill="#00a76c"/><path d="M0.17224422205858644 -199.99992582980616L-0.09518182075827213 -363.185696347761A363.1857088201394 363.1857088201394 0 0 1 -0.9457213492262883 -363.18447750739114L-0.7454502259761112 -199.99861075507647A200 200 0 0 0 0.17224422205858644 -199.99992582980616" fill="#bdbdbd"/><path d="M0.2545490209439862 -199.99983801192425L0.07311953040943321 -347.833076208325A347.83308389371496 347.83308389371496 0 0 1 -0.8115566174715757 -347.83213713926546L-0.6791409914194189 -199.9988469154604A200 200 0 0 0 0.2545490209439862 -199.99983801192425" fill="#ebac23"/><path d="M0.3208586074334764 -199.9997426242195L0.19712070734849704 -338.1449256385543A338.14498309405195 338.14498309405195 0 0 1 -0.6943591938465458 -338.14427018210233L-0.61495586308611 -199.99905457098154A200 200 0 0 0 0.3208586074334764 -199.9997426242195" fill="#b80058"/><path d="M0.38504397172704197 -199.99962935250613L0.2961010333742165 -354.7417702444535A354.741893821396 354.741893821396 0 0 1 -0.6026830243862992 -354.7413818617201L-0.5578915493654165 -199.99922189103424A200 200 0 0 0 0.38504397172704197 -199.99962935250613" fill="#008cf9"/><path d="M0.44210840874146307 -199.99951134979034L0.3765498195751766 -426.48630794371843A426.4864741738369 426.4864741738369 0 0 1 -0.5029052989734469 -426.48617766522176L-0.5013624309580557 -199.99937158829482A200 200 0 0 0 0.44210840874146307 -199.99951134979034" fill="#006e00"/><path d="M0.4986375690188076 -199.99937840047096L0.497275131662576 -399.99969089668485A400 400 0 0 1 -0.4999999999995713 -399.9996874998779L-0.4999999999998922 -199.99937499902342A200 200 0 0 0 0.4986375690188076 -199.99937840047096" fill="url(#diagonalHatch)"/></g><g><defs><path d="M57.45511674334952 -81.84686652528659L287.27558371674763 -409.23433262643294" stroke="#aaa" stroke-width="2" fill="none" id="textpath-4924287163778445243"/></defs><text text-anchor="middle" dominant-baseline="middle" class="label"><textPath href="#textpath-4924287163778445243" startOffset="50%"><tspan>Russia | 32.0%</tspan></textPath></text><defs><path d="M99.99862112146295 0.5251417009767853L499.99310560731476 2.625708504883926" stroke="#aaa" stroke-width="2" fill="none" id="textpath--7946676994533809008"/></defs><text text-anchor="middle" dominant-baseline="middle" class="label"><textPath href="#textpath--7946676994533809008" startOffset="50%"><tspan>Germany | 66.4%</tspan></textPath></text><defs><path d="M80.01233080301276 59.983555408705605L400.0616540150638 299.917777043528" stroke="#aaa" stroke-width="2" fill="none" id="textpath--8248789862878560299"/></defs><text text-anchor="middle" dominant-baseline="middle" class="label"><textPath href="#textpath--8248789862878560299" startOffset="50%"><tspan>United Kingdom | 71.1%</tspan></textPath></text><defs><path d="M35.03848848514078 93.66058042034896L175.1924424257039 468.30290210174485" stroke="#aaa" stroke-width="2" fill="none" id="textpath--6830558939517196573"/></defs><text text-anchor="middle" dominant-baseline="middle" class="label"><textPath href="#textpath--6830558939517196573" startOffset="50%"><tspan>France | 73.6%</tspan></textPath></text><defs><path d="M-88.85153281894108 492.0420765704135L-17.770306563788214 98.4084153140827" stroke="#aaa" stroke-width="2" fill="none" id="textpath-4757336222922107403"/></defs><text text-anchor="middle" dominant-baseline="middle" class="label"><textPath href="#textpath-4757336222922107403" startOffset="50%"><tspan>Italy | 73.1%</tspan></textPath></text><defs><path d="M-293.7460984226225 404.6149152731359L-58.7492196845245 80.92298305462718" stroke="#aaa" stroke-width="2" fill="none" id="textpath--9200279737292483553"/></defs><text text-anchor="middle" dominant-baseline="middle" class="label"><textPath href="#textpath--9200279737292483553" startOffset="50%"><tspan>Spain | 80.0%</tspan></textPath></text><defs><path d="M-422.44722746448593 267.4665212836345L-84.48944549289719 53.4933042567269" stroke="#aaa" stroke-width="2" fill="none" id="textpath-2369808227528159293"/></defs><text text-anchor="middle" dominant-baseline="middle" class="label"><textPath href="#textpath-2369808227528159293" startOffset="50%"><tspan>Ukraine | 14.4%</tspan></textPath></text><defs><path d="M-487.55807425328317 110.8473014124837L-97.51161485065664 22.169460282496743" stroke="#aaa" stroke-width="2" fill="none" id="textpath--5021209226214331580"/></defs><text text-anchor="middle" dominant-baseline="middle" class="label"><textPath href="#textpath--5021209226214331580" startOffset="50%"><tspan>Poland | 51.9%</tspan></textPath></text><defs><path d="M-499.9420145582762 -7.614596470751104L-99.98840291165524 -1.5229192941502208" stroke="#aaa" stroke-width="2" fill="none" id="textpath-922264279559682058"/></defs><text text-anchor="middle" dominant-baseline="middle" class="label"><textPath href="#textpath-922264279559682058" startOffset="50%"><tspan>Romania | 28.0%</tspan></textPath></text><defs><path d="M-493.00226685967374 -83.35925186338355L-98.60045337193475 -16.67185037267671" stroke="#aaa" stroke-width="2" fill="none" id="textpath--545448321643151831"/></defs><text text-anchor="middle" dominant-baseline="middle" class="label"><textPath href="#textpath--545448321643151831" startOffset="50%"><tspan>Netherlands | 70.3%</tspan></textPath></text><defs><path d="M-479.35997067229545 -142.17601245307182L-95.87199413445909 -28.435202490614365" stroke="#aaa" stroke-width="2" fill="none" id="textpath--1250225196155910669"/></defs><text text-anchor="middle" dominant-baseline="middle" class="label"><textPath href="#textpath--1250225196155910669" startOffset="50%"><tspan>Belgium | 73.2%</tspan></textPath></text><defs><path d="M-463.93983478684237 -186.43988226223865L-92.78796695736847 -37.28797645244773" stroke="#aaa" stroke-width="2" fill="none" id="textpath--7572331829341965238"/></defs><text text-anchor="middle" dominant-baseline="middle" class="label"><textPath href="#textpath--7572331829341965238" startOffset="50%"><tspan>Czechia | 56.3%</tspan></textPath></text><defs><path d="M-445.64844099725815 -226.71009469521488L-89.12968819945164 -45.34201893904298" stroke="#aaa" stroke-width="2" fill="none" id="textpath--5326633648423755307"/></defs><text text-anchor="middle" dominant-baseline="middle" class="label"><textPath href="#textpath--5326633648423755307" startOffset="50%"><tspan>Greece | 61.2%</tspan></textPath></text><defs><path d="M-424.4878928233592 -264.2158754624414L-84.89757856467183 -52.84317509248827" stroke="#aaa" stroke-width="2" fill="none" id="textpath--9056374680053735798"/></defs><text text-anchor="middle" dominant-baseline="middle" class="label"><textPath href="#textpath--9056374680053735798" startOffset="50%"><tspan>Portugal | 87.0%</tspan></textPath></text><defs><path d="M-400.4432130752121 -299.40813800229324L-80.08864261504242 -59.88162760045866" stroke="#aaa" stroke-width="2" fill="none" id="textpath-2292256108630800495"/></defs><text text-anchor="middle" dominant-baseline="middle" class="label"><textPath href="#textpath-2292256108630800495" startOffset="50%"><tspan>Sweden | 69.6%</tspan></textPath></text><defs><path d="M-374.23203505144556 -331.58767157609105L-74.84640701028911 -66.31753431521821" stroke="#aaa" stroke-width="2" fill="none" id="textpath-1778907109666247639"/></defs><text text-anchor="middle" dominant-baseline="middle" class="label"><textPath href="#textpath-1778907109666247639" startOffset="50%"><tspan>Hungary | 60.8%</tspan></textPath></text><defs><path d="M-346.52839566073334 -360.44149456021046L-69.30567913214666 -72.08829891204209" stroke="#aaa" stroke-width="2" fill="none" id="textpath-6881604585411103159"/></defs><text text-anchor="middle" dominant-baseline="middle" class="label"><textPath href="#textpath-6881604585411103159" startOffset="50%"><tspan>Belarus | 18.5%</tspan></textPath></text><defs><path d="M-317.5654665139989 -386.20224556279607L-63.51309330279978 -77.24044911255922" stroke="#aaa" stroke-width="2" fill="none" id="textpath--264531210600180507"/></defs><text text-anchor="middle" dominant-baseline="middle" class="label"><textPath href="#textpath--264531210600180507" startOffset="50%"><tspan>Austria | 62.4%</tspan></textPath></text><defs><path d="M-287.94253401676843 -408.76533256136355L-57.58850680335369 -81.75306651227271" stroke="#aaa" stroke-width="2" fill="none" id="textpath-7718369163722078826"/></defs><text text-anchor="middle" dominant-baseline="middle" class="label"><textPath href="#textpath-7718369163722078826" startOffset="50%"><tspan>Switzerland | 60.5%</tspan></textPath></text><defs><path d="M-260.57516239532526 -426.732451007244L-52.11503247906505 -85.3464902014488" stroke="#aaa" stroke-width="2" fill="none" id="textpath-5002370636774551060"/></defs><text text-anchor="middle" dominant-baseline="middle" class="label"><textPath href="#textpath-5002370636774551060" startOffset="50%"><tspan>Bulgaria | 15.8%</tspan></textPath></text><defs><path d="M-235.6330493513621 -440.9955397205039L-47.126609870272425 -88.19910794410079" stroke="#aaa" stroke-width="2" fill="none" id="textpath--1932332586906702143"/></defs><text text-anchor="middle" dominant-baseline="middle" class="label"><textPath href="#textpath--1932332586906702143" startOffset="50%"><tspan>Serbia | 43.9%</tspan></textPath></text><defs><path d="M-211.97288695259815 -452.84378674878724L-42.39457739051963 -90.56875734975745" stroke="#aaa" stroke-width="2" fill="none" id="textpath--3983042564630645706"/></defs><text text-anchor="middle" dominant-baseline="middle" class="small-label-9"><textPath href="#textpath--3983042564630645706" startOffset="50%"><tspan>Denmark | 76.4%</tspan></textPath></text><defs><path d="M-190.15844551417547 -462.42811938682144L-38.031689102835095 -92.48562387736429" stroke="#aaa" stroke-width="2" fill="none" id="textpath-6284691767897739536"/></defs><text text-anchor="middle" dominant-baseline="middle" class="small-label-9"><textPath href="#textpath-6284691767897739536" startOffset="50%"><tspan>Finland | 73.8%</tspan></textPath></text><defs><path d="M-168.59883338810653 -470.716935514508L-33.7197666776213 -94.1433871029016" stroke="#aaa" stroke-width="2" fill="none" id="textpath-4668958373659826861"/></defs><text text-anchor="middle" dominant-baseline="middle" class="small-label-9"><textPath href="#textpath-4668958373659826861" startOffset="50%"><tspan>Norway | 74.0%</tspan></textPath></text><defs><path d="M-146.85512106364985 -477.94724961796857L-29.371024212729967 -95.58944992359372" stroke="#aaa" stroke-width="2" fill="none" id="textpath-5260519741777867746"/></defs><text text-anchor="middle" dominant-baseline="middle" class="small-label-9"><textPath href="#textpath-5260519741777867746" startOffset="50%"><tspan>Slovakia | 44.2%</tspan></textPath></text><defs><path d="M-125.78311192996917 -483.92004376055024L-25.15662238599383 -96.78400875211005" stroke="#aaa" stroke-width="2" fill="none" id="textpath--2812245626681170936"/></defs><text text-anchor="middle" dominant-baseline="middle" class="small-label-8"><textPath href="#textpath--2812245626681170936" startOffset="50%"><tspan>Ireland | 75.2%</tspan></textPath></text><defs><path d="M-107.29652875111941 -488.35177374302657L-21.45930575022388 -97.67035474860532" stroke="#aaa" stroke-width="2" fill="none" id="textpath-3535113316719841774"/></defs><text text-anchor="middle" dominant-baseline="middle" class="small-label-6"><textPath href="#textpath-3535113316719841774" startOffset="50%"><tspan>Croatia | 43.5%</tspan></textPath></text><defs><path d="M-90.63335211204479 -491.71698718361773L-18.126670422408957 -98.34339743672355" stroke="#aaa" stroke-width="2" fill="none" id="textpath-422458861845642352"/></defs><text text-anchor="middle" dominant-baseline="middle" class="small-label-6"><textPath href="#textpath-422458861845642352" startOffset="50%"><tspan>Moldova | 14.2%</tspan></textPath></text><defs><path d="M-75.56218425491723 -494.25737861019934L-15.112436850983446 -98.85147572203988" stroke="#aaa" stroke-width="2" fill="none" id="textpath--2015304695030017179"/></defs><text text-anchor="middle" dominant-baseline="middle" class="small-label-5"><textPath href="#textpath--2015304695030017179" startOffset="50%"><tspan>Bosnia and Herzegovina | 19.4%</tspan></textPath></text><defs><path d="M-62.816242406839 -496.0384256183035L-12.5632484813678 -99.20768512366071" stroke="#aaa" stroke-width="2" fill="none" id="textpath-8231665693904073735"/></defs><text text-anchor="middle" dominant-baseline="middle" class="small-label-4"><textPath href="#textpath-8231665693904073735" startOffset="50%"><tspan>Albania | 31.7%</tspan></textPath></text><defs><path d="M-51.22553080361946 -497.3690229536691L-10.245106160723893 -99.47380459073383" stroke="#aaa" stroke-width="2" fill="none" id="textpath-1781645800587481457"/></defs><text text-anchor="middle" dominant-baseline="middle" class="small-label-4"><textPath href="#textpath-1781645800587481457" startOffset="50%"><tspan>Lithuania | 64.0%</tspan></textPath></text></g><text y="654" class="legend">
            <tspan x="-654">* Showing percentage of population vaccinated, having received at least one shot of a countries chosen vaccine(s).</tspan>
            <tspan x="-654" dy="1.2em">Countries where no data was available are not counted towards a region's percentage.</tspan>
            </text><text y="-654" class="title" text-anchor="middle">
            <tspan x="0">Partial Covid Vaccinations* by Country</tspan>
            </text><text xmlns:xlink="http://www.w3.org/1999/xlink" y="654" class="sources" text-anchor="end">
    <tspan x="654">Data source:
        <a xlink:href="https://github.com/owid/covid-19-data/tree/master/public/data/vaccinations">
            <tspan>https://github.com/owid/covid-19-data/tree/master/public/data/vaccinations</tspan>
        </a>
    </tspan>
    <tspan x="654" dy="1.2em">Code source:
        <a xlink:href="https://github.com/WorldSEnder/vis_covid_vacc">
            <tspan>https://github.com/WorldSEnder/vis_covid_vacc</tspan>
        </a>
    </tspan>
    <tspan x="654" dy="1.2em">Timestamp: Sun Sep 19 02:00:22 2021 +0000</tspan>
</text><text text-anchor="middle" dominant-baseline="middle" class="label_all" x="0" y="0">
    <tspan>Europe | 55.4%</tspan>
</text></svg>