<svg xmlns="http://www.w3.org/2000/svg" viewBox="-664 -684 1328 1388"><style>
text {
    font-family: "Open Sans";
}
.legend, .sources {
    font-size: 10pt;
}
.title {
    font-size: 20pt;
    font-weight: bold;
}
.label_all {
    font-size: 18pt;
}
.label {
}
.small-label-9 {
   font-size: 9pt;
}
.small-label-8 {
   font-size: 8pt;
}
.small-label-7 {
   font-size: 7pt;
}
.small-label-6 {
   font-size: 6pt;
}
.small-label-5 {
   font-size: 5pt;
}
.small-label-4 {
   font-size: 4pt;
}
a {
    text-decoration: underline;
}
</style><style type="text/css">
@font-face{
  font-family:'Open Sans';src:local('Open Sans')
             , local('OpenSans')
             , url(https://fonts.gstatic.com/s/opensans/v18/mem5YaGs126MiZpBA-UN_r8OUuhp.woff2) format('woff2');
  }
</style><defs><pattern id="diagonalHatch" width="10" height="10" patternTransform="rotate(45 0 0)" patternUnits="userSpaceOnUse">
  <line x1="0" y1="0" x2="0" y2="10" style="stroke:#444; stroke-width:1"/>
</pattern></defs><circle cx="0" cy="0" r="199.0" stroke="#aaa" stroke-width="2" fill="none"/><path d="M2.4554168322904432e-14 -401.0A401.0 401.0 0 0 1 377.14220595727244 -136.25254671264787" stroke="#aaa" stroke-width="2" fill="none"/><path d="M377.14220595727244 -136.25254671264787A401.0 401.0 0 0 1 375.69038661836873 140.2060391086654" stroke="#aaa" stroke-width="2" fill="none"/><path d="M375.69038661836873 140.2060391086654A401.0 401.0 0 0 1 239.92320972932177 321.3064789779065" stroke="#aaa" stroke-width="2" fill="none"/><path d="M239.92320972932177 321.3064789779065A401.0 401.0 0 0 1 29.875239446835824 399.88557121755997" stroke="#aaa" stroke-width="2" fill="none"/><path d="M29.875239446835824 399.88557121755997A401.0 401.0 0 0 1 -167.84821141961726 364.18124323368914" stroke="#aaa" stroke-width="2" fill="none"/><path d="M-167.84821141961726 364.18124323368914A401.0 401.0 0 0 1 -294.2917626226074 272.3845782207188" stroke="#aaa" stroke-width="2" fill="none"/><path d="M-294.2917626226074 272.3845782207188A401.0 401.0 0 0 1 -372.081545683451 149.52031086716602" stroke="#aaa" stroke-width="2" fill="none"/><path d="M-372.081545683451 149.52031086716602A401.0 401.0 0 0 1 -400.1530479910749 26.04876548807077" stroke="#aaa" stroke-width="2" fill="none"/><path d="M-400.1530479910749 26.04876548807077A401.0 401.0 0 0 1 -399.17412300530515 -38.223285088353364" stroke="#aaa" stroke-width="2" fill="none"/><path d="M-399.17412300530515 -38.223285088353364A401.0 401.0 0 0 1 -389.55067078607135 -95.13818838995124" stroke="#aaa" stroke-width="2" fill="none"/><path d="M-389.55067078607135 -95.13818838995124A401.0 401.0 0 0 1 -378.4275909342081 -132.6407117733151" stroke="#aaa" stroke-width="2" fill="none"/><path d="M-378.4275909342081 -132.6407117733151A401.0 401.0 0 0 1 -364.97903253221375 -166.10630876595042" stroke="#aaa" stroke-width="2" fill="none"/><path d="M-364.97903253221375 -166.10630876595042A401.0 401.0 0 0 1 -349.1648000758103 -197.19265297677657" stroke="#aaa" stroke-width="2" fill="none"/><path d="M-349.1648000758103 -197.19265297677657A401.0 401.0 0 0 1 -331.09456992436515 -226.22419359255028" stroke="#aaa" stroke-width="2" fill="none"/><path d="M-331.09456992436515 -226.22419359255028A401.0 401.0 0 0 1 -310.63309986818615 -253.59037297634447" stroke="#aaa" stroke-width="2" fill="none"/><path d="M-310.63309986818615 -253.59037297634447A401.0 401.0 0 0 1 -289.1449853729374 -277.8420008452354" stroke="#aaa" stroke-width="2" fill="none"/><path d="M-289.1449853729374 -277.8420008452354A401.0 401.0 0 0 1 -266.25058399790373 -299.8526746933821" stroke="#aaa" stroke-width="2" fill="none"/><path d="M-266.25058399790373 -299.8526746933821A401.0 401.0 0 0 1 -242.7579974938574 -319.1701030058617" stroke="#aaa" stroke-width="2" fill="none"/><path d="M-242.7579974938574 -319.1701030058617A401.0 401.0 0 0 1 -218.79321314062847 -336.05137982695373" stroke="#aaa" stroke-width="2" fill="none"/><path d="M-218.79321314062847 -336.05137982695373A401.0 401.0 0 0 1 -198.99446184810324 -348.1410693293507" stroke="#aaa" stroke-width="2" fill="none"/><path d="M-198.99446184810324 -348.1410693293507A401.0 401.0 0 0 1 -178.80699726557802 -358.92764971351477" stroke="#aaa" stroke-width="2" fill="none"/><path d="M-178.80699726557802 -358.92764971351477A401.0 401.0 0 0 1 -161.09643029060112 -367.2178374584022" stroke="#aaa" stroke-width="2" fill="none"/><path d="M-161.09643029060112 -367.2178374584022A401.0 401.0 0 0 1 -143.83511261590158 -374.31599001214323" stroke="#aaa" stroke-width="2" fill="none"/><path d="M-143.83511261590158 -374.31599001214323A401.0 401.0 0 0 1 -126.52634555272974 -380.5155501172997" stroke="#aaa" stroke-width="2" fill="none"/><path d="M-126.52634555272974 -380.5155501172997A401.0 401.0 0 0 1 -108.96747482898733 -385.9107272795018" stroke="#aaa" stroke-width="2" fill="none"/><path d="M-108.96747482898733 -385.9107272795018A401.0 401.0 0 0 1 -92.74456644595118 -390.1274732632304" stroke="#aaa" stroke-width="2" fill="none"/><path d="M-92.74456644595118 -390.1274732632304A401.0 401.0 0 0 1 -79.3338411961331 -393.07396459326424" stroke="#aaa" stroke-width="2" fill="none"/><path d="M-79.3338411961331 -393.07396459326424A401.0 401.0 0 0 1 -66.02134592403074 -395.5277258074072" stroke="#aaa" stroke-width="2" fill="none"/><path d="M-66.02134592403074 -395.5277258074072A401.0 401.0 0 0 1 -55.16904154986242 -397.186828651794" stroke="#aaa" stroke-width="2" fill="none"/><path d="M-55.16904154986242 -397.186828651794A401.0 401.0 0 0 1 -45.58089496149905 -398.40103164337916" stroke="#aaa" stroke-width="2" fill="none"/><path d="M-45.58089496149905 -398.40103164337916A401.0 401.0 0 0 1 -36.5796262761868 -399.328099363787" stroke="#aaa" stroke-width="2" fill="none"/><path d="M-36.5796262761868 -399.328099363787A401.0 401.0 0 0 1 -29.597244137123752 -399.9062429363757" stroke="#aaa" stroke-width="2" fill="none"/><path d="M-29.597244137123752 -399.9062429363757A401.0 401.0 0 0 1 -22.6190537204223 -400.3615596043065" stroke="#aaa" stroke-width="2" fill="none"/><path d="M-22.6190537204223 -400.3615596043065A401.0 401.0 0 0 1 -16.345905782157217 -400.66670857978806" stroke="#aaa" stroke-width="2" fill="none"/><path d="M-16.345905782157217 -400.66670857978806A401.0 401.0 0 0 1 -11.89057324282697 -400.8236697950321" stroke="#aaa" stroke-width="2" fill="none"/><path d="M-11.89057324282697 -400.8236697950321A401.0 401.0 0 0 1 -8.904210349734285 -400.9011287562654" stroke="#aaa" stroke-width="2" fill="none"/><path d="M-8.904210349734285 -400.9011287562654A401.0 401.0 0 0 1 -6.769016812465401 -400.9428642729442" stroke="#aaa" stroke-width="2" fill="none"/><path d="M-6.769016812465401 -400.9428642729442A401.0 401.0 0 0 1 -4.656381446091622 -400.972964315337" stroke="#aaa" stroke-width="2" fill="none"/><path d="M-4.656381446091622 -400.972964315337A401.0 401.0 0 0 1 -2.925394207626047 -400.98932912077595" stroke="#aaa" stroke-width="2" fill="none"/><path d="M-2.925394207626047 -400.98932912077595A401.0 401.0 0 0 1 -1.7703028937948053 -400.9960922847805" stroke="#aaa" stroke-width="2" fill="none"/><path d="M-1.7703028937948053 -400.9960922847805A401.0 401.0 0 0 1 -1.4302817710393076 -400.9974492363454" stroke="#aaa" stroke-width="2" fill="none"/><path d="M-1.4302817710393076 -400.9974492363454A401.0 401.0 0 0 1 -1.142951958750736 -400.9983711448464" stroke="#aaa" stroke-width="2" fill="none"/><path d="M-1.142951958750736 -400.9983711448464A401.0 401.0 0 0 1 -0.8827230172479281 -400.99902842784394" stroke="#aaa" stroke-width="2" fill="none"/><path d="M-0.8827230172479281 -400.99902842784394A401.0 401.0 0 0 1 -0.657151042213894 -400.99946153643117" stroke="#aaa" stroke-width="2" fill="none"/><path d="M-0.657151042213894 -400.99946153643117A401.0 401.0 0 0 1 -0.49212999595334567 -400.99969801493256" stroke="#aaa" stroke-width="2" fill="none"/><path d="M-0.49212999595334567 -400.99969801493256A401.0 401.0 0 0 1 -0.3591792123826998 -400.99983913998443" stroke="#aaa" stroke-width="2" fill="none"/><path d="M-0.3591792123826998 -400.99983913998443A401.0 401.0 0 0 1 -0.2304873913616892 -400.99993376004744" stroke="#aaa" stroke-width="2" fill="none"/><path d="M-0.2304873913616892 -400.99993376004744A401.0 401.0 0 0 1 -0.11607296120408378 -400.99998320083216" stroke="#aaa" stroke-width="2" fill="none"/><path d="M-0.11607296120408378 -400.99998320083216A401.0 401.0 0 0 1 -0.002731682630617759 -400.99999999069564" stroke="#aaa" stroke-width="2" fill="none"/><path d="M-0.002731682630617759 -400.99999999069564A401.0 401.0 0 0 1 2.824970413310369e-13 -401.0" stroke="#aaa" stroke-width="2" fill="none"/><g><circle fill="#279ee3" r="140.75303770520097"/><path d="M0.5000000000000009 -199.99937499902342L0.5000000000000425 -270.7878120963495A270.78827371200526 270.78827371200526 0 0 1 254.50719832170648 -92.47905266796062L187.93037207942928 -68.42642216342507A200 200 0 0 0 0.5000000000000009 -199.99937499902342" fill="#d163e6"/><path d="M188.2701539914309 -67.48591790916754L318.7276191386107 -114.61711029020152A338.7098716793526 338.7098716793526 0 0 1 317.5062519067074 117.9582857335505L187.55098637498645 69.45953865215095A200 200 0 0 0 188.2701539914309 -67.48591790916754" fill="#b24502"/><path d="M187.20134537970299 70.396422409304L321.56727970167407 120.54121214424993A343.4176745596239 343.4176745596239 0 0 1 205.87141313799728 274.86844208185084L120.06270631698983 159.95295105699128A200 200 0 0 0 187.20134537970299 70.396422409304" fill="#ff9287"/><path d="M119.26144327714468 160.5512633007053L203.76964783699276 273.7251145612948A341.2440588804529 341.2440588804529 0 0 1 25.921894790436145 340.258083065898L15.398932675616237 199.40630098482805A200 200 0 0 0 119.26144327714468 160.5512633007053" fill="#5954d6"/><path d="M14.401711799761996 199.48080282883512L25.128814164481422 343.06503967683153A343.9841257235267 343.9841257235267 0 0 1 -143.52860010876583 312.6093723812467L-83.26046572820584 181.8452497227306A200 200 0 0 0 14.401711799761996 199.48080282883512" fill="#00c6f8"/><path d="M-84.16864837966149 181.42667562941483L-152.4506996586068 329.5786405207518A363.1298612258508 363.1298612258508 0 0 1 -266.15918535661433 247.02749677760383L-146.43884364781067 136.2191802614157A200 200 0 0 0 -84.16864837966149 181.42667562941483" fill="#878500"/><path d="M-147.11810693514417 135.48528559153382L-171.0680030282264 157.65234282619366A232.63388157930257 232.63388157930257 0 0 1 -215.6703594812655 87.20561277735904L-185.38981653348426 75.03743016442553A200 200 0 0 0 -147.11810693514417 135.48528559153382" fill="#00a76c"/><path d="M-185.76268513913809 74.10954601060139L-294.9692362963852 117.99400539105733A317.69393395137024 317.69393395137024 0 0 1 -316.99006027848856 21.136162237685664L-199.54447660704534 13.490806336922285A200 200 0 0 0 -185.76268513913809 74.10954601060139" fill="#bdbdbd"/><path d="M-199.60943612197818 12.492918436695097L-269.3802669881509 17.034790653500778A269.9183438286773 269.9183438286773 0 0 1 -268.7365211084805 -25.230825545893072L-199.13637595857483 -18.56619966727556A200 200 0 0 0 -199.60943612197818 12.492918436695097" fill="#ebac23"/><path d="M-199.04105604563628 -19.56164635806192L-339.48290438905144 -33.00978464706195A341.08399003012624 341.08399003012624 0 0 1 -331.463649483142 -80.43716383729634L-194.4076303787022 -46.96459571355747A200 200 0 0 0 -199.04105604563628 -19.56164635806192" fill="#b80058"/><path d="M-194.17037803857764 -47.93604377038066L-344.15668649629083 -84.56651764729396A354.39430126216234 354.39430126216234 0 0 1 -334.6103953775141 -116.75274760107341L-188.90673821724286 -65.6829068793554A200 200 0 0 0 -194.17037803857764 -47.93604377038066" fill="#008cf9"/><path d="M-188.57596337491537 -66.62661658243329L-306.97952816405575 -108.12764210585982A325.4658472085807 325.4658472085807 0 0 1 -296.43671574847576 -134.36253665161513L-182.24097643035904 -82.3906943150094A200 200 0 0 0 -188.57596337491537 -66.62661658243329" fill="#006e00"/><path d="M-181.82674623393518 -83.30086646596261L-299.6014254888834 -136.90152703379A329.39799978013605 329.39799978013605 0 0 1 -287.06396649353337 -161.54665394292158L-174.3923643723427 -97.91477543570252A200 200 0 0 0 -181.82674623393518 -83.30086646596261" fill="#00bbad"/><path d="M-173.90061212053024 -98.7855105979864L-323.43316376905403 -183.2348037671636A371.7310919700566 371.7310919700566 0 0 1 -307.209842355884 -209.2991101197603L-165.41600784847822 -112.41683302545124A200 200 0 0 0 -173.90061212053024 -98.7855105979864" fill="#d163e6"/><path d="M-164.8518577397686 -113.24250526965172L-279.46517714820266 -191.55338111416154A338.8118697075761 338.8118697075761 0 0 1 -262.7752168129611 -213.87535735480327L-155.24494018487442 -126.09127070100755A200 200 0 0 0 -164.8518577397686 -113.24250526965172" fill="#b24502"/><path d="M-154.61254523979622 -126.86591683534223L-255.7982981509629 -209.47054857459796A330.621656969219 330.621656969219 0 0 1 -238.7441542394541 -228.71796797269704L-144.55794852646352 -138.21360105944825A200 200 0 0 0 -154.61254523979622 -126.86591683534223" fill="#ff9287"/><path d="M-143.86507570640057 -138.9346608733459L-174.04436059713308 -167.93420546964757A241.85395763225932 241.85395763225932 0 0 1 -160.95647428882884 -180.51689728913544L-133.16677488791132 -149.22000558220188A200 200 0 0 0 -143.86507570640057 -138.9346608733459" fill="#5954d6"/><path d="M-132.4190126068804 -149.88397212583757L-220.5725873414535 -249.16294748445242A332.7678480346969 332.7678480346969 0 0 1 -201.84925257293662 -264.5587267912173L-121.47389732241625 -158.8838955630906A200 200 0 0 0 -132.4190126068804 -149.88397212583757" fill="#00c6f8"/><path d="M-120.67796190344895 -159.48927710297556L-194.05110469960658 -255.95783338485865A321.2012510968921 321.2012510968921 0 0 1 -175.67230507649379 -268.90423004356035L-109.54247274829751 -167.33333996603454A200 200 0 0 0 -120.67796190344895 -159.48927710297556" fill="#878500"/><path d="M-108.70443938214547 -167.87895895142267L-135.59674931243975 -209.1837038705478A249.28758570996203 249.28758570996203 0 0 1 -124.14169505425657 -216.178490923953L-99.68288910860934 -173.3877781706678A200 200 0 0 0 -108.70443938214547 -167.87895895142267" fill="#00a76c"/><path d="M-98.81470689083037 -173.88402371143613L-148.71468559497356 -261.1841012323513A300.5548077275806 300.5548077275806 0 0 1 -134.46556644119673 -268.7977006780584L-89.6278092853478 -178.79277335146776A200 200 0 0 0 -98.81470689083037 -173.88402371143613" fill="#bdbdbd"/><path d="M-88.73272786461578 -179.23867608779094L-159.8461698115648 -321.9880146002307A359.48168179981855 359.48168179981855 0 0 1 -144.87473464988156 -328.99603464138045L-80.80497329531966 -182.9496004115414A200 200 0 0 0 -88.73272786461578 -179.23867608779094" fill="#ebac23"/><path d="M-79.88921808968767 -183.3513371454332L-132.80317001300847 -303.96820594636426A331.7127555457513 331.7127555457513 0 0 1 -119.44899088116745 -309.4596755139935L-72.20471476583677 -186.51133790090122A200 200 0 0 0 -79.88921808968767 -183.3513371454332" fill="#b80058"/><path d="M-71.27125843164185 -186.87002895480623L-122.59950397164266 -320.44647420151233A343.0985007286877 343.0985007286877 0 0 1 -108.73119985014772 -325.413747990801L-63.579670340436614 -189.62496016980836A200 200 0 0 0 -71.27125843164185 -186.87002895480623" fill="#008cf9"/><path d="M-62.63075375660287 -189.94048721607453L-93.55530467552506 -282.94303505414604A298.0089866406415 298.0089866406415 0 0 1 -81.46183642825105 -286.6589006542775L-54.82888335326446 -192.33770704215573A200 200 0 0 0 -62.63075375660287 -189.94048721607453" fill="#006e00"/><path d="M-53.86651246229307 -192.6094463808814L-96.03828060697498 -341.9616979671259A355.19171473797627 355.19171473797627 0 0 1 -82.63624111289745 -345.4452284707881L-46.74294030019268 -194.46104373908062A200 200 0 0 0 -53.86651246229307 -192.6094463808814" fill="#00bbad"/><path d="M-45.77005383320201 -194.69232694717527L-68.48012055056513 -290.221599287324A298.19138754080745 298.19138754080745 0 0 1 -59.48421923000214 -292.1981027763683L-40.05799410921457 -195.94733248489538A200 200 0 0 0 -45.77005383320201 -194.69232694717527" fill="#d163e6"/><path d="M-39.07775978354551 -196.14517248787826L-48.9231345172553 -244.92587465907556A249.7642031366918 249.7642031366918 0 0 1 -41.61471240838003 -246.27296416715026L-33.421425896020416 -197.1877488361709A200 200 0 0 0 -39.07775978354551 -196.14517248787826" fill="#b24502"/><path d="M-32.43507246507919 -197.35239059657997L-38.35220576905083 -232.8013843464523A235.93934864913103 235.93934864913103 0 0 1 -32.955391308633814 -233.62645061009474L-28.010890881779428 -198.028760517277A200 200 0 0 0 -32.43507246507919 -197.35239059657997" fill="#ff9287"/><path d="M-27.020400037261172 -198.16633917450858L-35.94127446896976 -262.3917403196199A264.84184072463444 264.84184072463444 0 0 1 -30.60076590030004 -263.06804010507943L-23.230301795555235 -198.6463014467861A200 200 0 0 0 -27.020400037261172 -198.16633917450858" fill="#5954d6"/><path d="M-22.236783013402103 -198.7599695140218L-37.405252102492675 -331.34037932494897A333.445047730585 333.445047730585 0 0 1 -30.915076225785864 -332.00882204845993L-18.74206095415741 -199.1199014443073A200 200 0 0 0 -22.236783013402103 -198.7599695140218" fill="#00c6f8"/><path d="M-17.746230282427202 -199.21112245746485L-25.056008767212244 -279.009639999995A280.13243794367946 280.13243794367946 0 0 1 -21.174783219939435 -279.331006771282L-15.260307856824095 -199.41695766437454A200 200 0 0 0 -17.746230282427202 -199.21112245746485" fill="#878500"/><path d="M-14.26303543054878 -199.4907662532452L-22.336966348219153 -308.58252371736285A309.389906120769 309.389906120769 0 0 1 -17.950819322511148 -308.8687133638964L-11.780492236797912 -199.65274854771909A200 200 0 0 0 -14.26303543054878 -199.4907662532452" fill="#00a76c"/><path d="M-10.782084357485362 -199.70915516547575L-16.573048443573473 -302.2103226226047A302.6644099235519 302.6644099235519 0 0 1 -12.83703374481425 -302.39205611094735L-8.652130410260037 -199.81276395506833A200 200 0 0 0 -10.782084357485362 -199.70915516547575" fill="#bdbdbd"/><path d="M-7.652961560933816 -199.85352681238044L-11.904982705046804 -304.0779937417752A304.31095098801575 304.31095098801575 0 0 1 -9.52328828426813 -304.16190075597115L-6.4302220744215335 -199.8966038832917A200 200 0 0 0 -7.652961560933816 -199.85352681238044" fill="#ebac23"/><path d="M-5.430661800618394 -199.92625618564287L-9.470139419145362 -336.0944803786691A336.22787404024916 336.22787404024916 0 0 1 -7.965812892622059 -336.13349893544586L-4.940865509189124 -199.93896030543948A200 200 0 0 0 -5.430661800618394 -199.92625618564287" fill="#b80058"/><path d="M-3.941112070894132 -199.96116531878047L-4.321927766843236 -217.10692405062193A217.14993790085302 217.14993790085302 0 0 1 -4.165484080042685 -217.10998197393695L-3.875986443858971 -199.96243829551344A200 200 0 0 0 -3.941112070894132 -199.96116531878047" fill="#008cf9"/><path d="M-2.8761289269687698 -199.97931863669166L-4.23686706814107 -280.57865277371775A280.6106402737921 280.6106402737921 0 0 1 -3.7583904909841697 -280.58546992990364L-2.822343793349264 -199.98008494725704A200 200 0 0 0 -2.8761289269687698 -199.97931863669166" fill="#006e00"/><path d="M-1.8224112140092057 -199.99169687106274L-3.8042129641923292 -370.64973501852626A370.6692570278531 370.6692570278531 0 0 1 -3.2041081683038746 -370.6554084273241L-1.959031615240334 -199.99040525767853A200 200 0 0 0 -1.8224112140092057 -199.99169687106274" fill="#00bbad"/><path d="M-0.9590582259116496 -199.99770050507908L-2.1885912258928086 -368.53211939094206A368.53861799590777 368.53861799590777 0 0 1 -2.1269885975276077 -368.5324800798969L-1.3829364550132845 -199.99521865975046A200 200 0 0 0 -0.9590582259116496 -199.99770050507908" fill="#d163e6"/><path d="M-0.38294619993895285 -199.99963338018384L-1.0753601960452146 -356.84019871793265A356.84181904676603 356.84181904676603 0 0 1 -1.7727744950724007 -356.8374154866534L-1.2133520820412567 -199.99631940794563A200 200 0 0 0 -0.38294619993895285 -199.99963338018384" fill="#b24502"/><path d="M-0.21335844304781024 -199.99988619540457L-0.7820407354407242 -359.43710569499973A359.4379564516111 359.4379564516111 0 0 1 -1.5244865448107898 -359.4347235297182L-1.070047039841629 -199.99713747784625A200 200 0 0 0 -0.21335844304781024 -199.99988619540457" fill="#ff9287"/><path d="M-0.07005110182448963 -199.99998773210746L-0.42311741405600656 -323.8713499770443A323.87162636498306 323.87162636498306 0 0 1 -1.2129379370272655 -323.8693550582705L-0.9402582692288605 -199.9977897737551A200 200 0 0 0 -0.07005110182448963 -199.99998773210746" fill="#5954d6"/><path d="M0.05973930789799862 -199.9999910780375L-0.058505046399196785 -253.71544911389873A253.7154558593303 253.7154558593303 0 0 1 -0.9157825018649942 -253.71380310167805L-0.8277544351395624 -199.99828704915225A200 200 0 0 0 0.05973930789799862 -199.9999910780375" fill="#00c6f8"/><path d="M0.17224422205858644 -199.99992582980616L-0.08444388938597922 -356.63331428990375A356.63332428724567 356.63332428724567 0 0 1 -0.9376798826785209 -356.6320915854452L-0.7454502259761112 -199.99861075507647A200 200 0 0 0 0.17224422205858644 -199.99992582980616" fill="#878500"/><path d="M0.2545490209439862 -199.99983801192425L0.09153685141749451 -332.8261873309123A332.82619991855614 332.82619991855614 0 0 1 -0.7981148055349997 -332.82524298043245L-0.6791409914194189 -199.9988469154604A200 200 0 0 0 0.2545490209439862 -199.99983801192425" fill="#00a76c"/><path d="M0.3208586074334764 -199.9997426242195L0.2069008761427253 -327.226013914154A327.22607932455304 327.22607932455304 0 0 1 -0.6880832026011081 -327.22535588127175L-0.61495586308611 -199.99905457098154A200 200 0 0 0 0.3208586074334764 -199.9997426242195" fill="#bdbdbd"/><path d="M0.38504397172704197 -199.99962935250613L0.2961010333742165 -354.7417702444535A354.741893821396 354.741893821396 0 0 1 -0.6026830243862992 -354.7413818617201L-0.5578915493654165 -199.99922189103424A200 200 0 0 0 0.38504397172704197 -199.99962935250613" fill="#ebac23"/><path d="M0.44210840874146307 -199.99951134979034L0.37704031813714856 -424.79177105037934A424.7919383786837 424.7919383786837 0 0 1 -0.5028937554892547 -424.7916407009325L-0.5013624309580557 -199.99937158829482A200 200 0 0 0 0.44210840874146307 -199.99951134979034" fill="#b80058"/><path d="M0.4986375690188076 -199.99937840047096L0.497275131662576 -399.99969089668485A400 400 0 0 1 -0.4999999999995713 -399.9996874998779L-0.4999999999998922 -199.99937499902342A200 200 0 0 0 0.4986375690188076 -199.99937840047096" fill="url(#diagonalHatch)"/></g><g><defs><path d="M57.45511674334952 -81.84686652528659L287.27558371674763 -409.23433262643294" stroke="#aaa" stroke-width="2" fill="none" id="textpath-4924287163778445243"/></defs><text text-anchor="middle" dominant-baseline="middle" class="label"><textPath href="#textpath-4924287163778445243" startOffset="50%"><tspan>Russia | 27.8%</tspan></textPath></text><defs><path d="M99.99862112146295 0.5251417009767853L499.99310560731476 2.625708504883926" stroke="#aaa" stroke-width="2" fill="none" id="textpath--7946676994533809008"/></defs><text text-anchor="middle" dominant-baseline="middle" class="label"><textPath href="#textpath--7946676994533809008" startOffset="50%"><tspan>Germany | 62.3%</tspan></textPath></text><defs><path d="M80.01233080301276 59.983555408705605L400.0616540150638 299.917777043528" stroke="#aaa" stroke-width="2" fill="none" id="textpath--8248789862878560299"/></defs><text text-anchor="middle" dominant-baseline="middle" class="label"><textPath href="#textpath--8248789862878560299" startOffset="50%"><tspan>United Kingdom | 64.9%</tspan></textPath></text><defs><path d="M35.03848848514078 93.66058042034896L175.1924424257039 468.30290210174485" stroke="#aaa" stroke-width="2" fill="none" id="textpath--6830558939517196573"/></defs><text text-anchor="middle" dominant-baseline="middle" class="label"><textPath href="#textpath--6830558939517196573" startOffset="50%"><tspan>France | 63.7%</tspan></textPath></text><defs><path d="M-88.85153281894108 492.0420765704135L-17.770306563788214 98.4084153140827" stroke="#aaa" stroke-width="2" fill="none" id="textpath-4757336222922107403"/></defs><text text-anchor="middle" dominant-baseline="middle" class="label"><textPath href="#textpath-4757336222922107403" startOffset="50%"><tspan>Italy | 65.3%</tspan></textPath></text><defs><path d="M-293.7460984226225 404.6149152731359L-58.7492196845245 80.92298305462718" stroke="#aaa" stroke-width="2" fill="none" id="textpath--9200279737292483553"/></defs><text text-anchor="middle" dominant-baseline="middle" class="label"><textPath href="#textpath--9200279737292483553" startOffset="50%"><tspan>Spain | 76.6%</tspan></textPath></text><defs><path d="M-422.44722746448593 267.4665212836345L-84.48944549289719 53.4933042567269" stroke="#aaa" stroke-width="2" fill="none" id="textpath-2369808227528159293"/></defs><text text-anchor="middle" dominant-baseline="middle" class="label"><textPath href="#textpath-2369808227528159293" startOffset="50%"><tspan>Ukraine | 11.8%</tspan></textPath></text><defs><path d="M-487.55807425328317 110.8473014124837L-97.51161485065664 22.169460282496743" stroke="#aaa" stroke-width="2" fill="none" id="textpath--5021209226214331580"/></defs><text text-anchor="middle" dominant-baseline="middle" class="label"><textPath href="#textpath--5021209226214331580" startOffset="50%"><tspan>Poland | 50.8%</tspan></textPath></text><defs><path d="M-499.9420145582762 -7.614596470751104L-99.98840291165524 -1.5229192941502208" stroke="#aaa" stroke-width="2" fill="none" id="textpath-922264279559682058"/></defs><text text-anchor="middle" dominant-baseline="middle" class="label"><textPath href="#textpath-922264279559682058" startOffset="50%"><tspan>Romania | 27.4%</tspan></textPath></text><defs><path d="M-493.00226685967374 -83.35925186338355L-98.60045337193475 -16.67185037267671" stroke="#aaa" stroke-width="2" fill="none" id="textpath--545448321643151831"/></defs><text text-anchor="middle" dominant-baseline="middle" class="label"><textPath href="#textpath--545448321643151831" startOffset="50%"><tspan>Netherlands | 63.6%</tspan></textPath></text><defs><path d="M-479.35997067229545 -142.17601245307182L-95.87199413445909 -28.435202490614365" stroke="#aaa" stroke-width="2" fill="none" id="textpath--1250225196155910669"/></defs><text text-anchor="middle" dominant-baseline="middle" class="label"><textPath href="#textpath--1250225196155910669" startOffset="50%"><tspan>Belgium | 71.3%</tspan></textPath></text><defs><path d="M-463.93983478684237 -186.43988226223865L-92.78796695736847 -37.28797645244773" stroke="#aaa" stroke-width="2" fill="none" id="textpath--7572331829341965238"/></defs><text text-anchor="middle" dominant-baseline="middle" class="label"><textPath href="#textpath--7572331829341965238" startOffset="50%"><tspan>Czechia | 54.9%</tspan></textPath></text><defs><path d="M-445.64844099725815 -226.71009469521488L-89.12968819945164 -45.34201893904298" stroke="#aaa" stroke-width="2" fill="none" id="textpath--5326633648423755307"/></defs><text text-anchor="middle" dominant-baseline="middle" class="label"><textPath href="#textpath--5326633648423755307" startOffset="50%"><tspan>Greece | 57.1%</tspan></textPath></text><defs><path d="M-424.4878928233592 -264.2158754624414L-84.89757856467183 -52.84317509248827" stroke="#aaa" stroke-width="2" fill="none" id="textpath--9056374680053735798"/></defs><text text-anchor="middle" dominant-baseline="middle" class="label"><textPath href="#textpath--9056374680053735798" startOffset="50%"><tspan>Portugal | 81.8%</tspan></textPath></text><defs><path d="M-400.4432130752121 -299.40813800229324L-80.08864261504242 -59.88162760045866" stroke="#aaa" stroke-width="2" fill="none" id="textpath-2292256108630800495"/></defs><text text-anchor="middle" dominant-baseline="middle" class="label"><textPath href="#textpath-2292256108630800495" startOffset="50%"><tspan>Sweden | 62.3%</tspan></textPath></text><defs><path d="M-374.23203505144556 -331.58767157609105L-74.84640701028911 -66.31753431521821" stroke="#aaa" stroke-width="2" fill="none" id="textpath-1778907109666247639"/></defs><text text-anchor="middle" dominant-baseline="middle" class="label"><textPath href="#textpath-1778907109666247639" startOffset="50%"><tspan>Hungary | 57.8%</tspan></textPath></text><defs><path d="M-346.52839566073334 -360.44149456021046L-69.30567913214666 -72.08829891204209" stroke="#aaa" stroke-width="2" fill="none" id="textpath-6881604585411103159"/></defs><text text-anchor="middle" dominant-baseline="middle" class="label"><textPath href="#textpath-6881604585411103159" startOffset="50%"><tspan>Belarus | 15.4%</tspan></textPath></text><defs><path d="M-317.5654665139989 -386.20224556279607L-63.51309330279978 -77.24044911255922" stroke="#aaa" stroke-width="2" fill="none" id="textpath--264531210600180507"/></defs><text text-anchor="middle" dominant-baseline="middle" class="label"><textPath href="#textpath--264531210600180507" startOffset="50%"><tspan>Austria | 58.9%</tspan></textPath></text><defs><path d="M-287.94253401676843 -408.76533256136355L-57.58850680335369 -81.75306651227271" stroke="#aaa" stroke-width="2" fill="none" id="textpath-7718369163722078826"/></defs><text text-anchor="middle" dominant-baseline="middle" class="label"><textPath href="#textpath-7718369163722078826" startOffset="50%"><tspan>Switzerland | 52.6%</tspan></textPath></text><defs><path d="M-260.57516239532526 -426.732451007244L-52.11503247906505 -85.3464902014488" stroke="#aaa" stroke-width="2" fill="none" id="textpath-5002370636774551060"/></defs><text text-anchor="middle" dominant-baseline="middle" class="label"><textPath href="#textpath-5002370636774551060" startOffset="50%"><tspan>Bulgaria | 18.5%</tspan></textPath></text><defs><path d="M-235.6330493513621 -440.9955397205039L-47.126609870272425 -88.19910794410079" stroke="#aaa" stroke-width="2" fill="none" id="textpath--1932332586906702143"/></defs><text text-anchor="middle" dominant-baseline="middle" class="label"><textPath href="#textpath--1932332586906702143" startOffset="50%"><tspan>Serbia | 41.9%</tspan></textPath></text><defs><path d="M-211.97288695259815 -452.84378674878724L-42.39457739051963 -90.56875734975745" stroke="#aaa" stroke-width="2" fill="none" id="textpath--3983042564630645706"/></defs><text text-anchor="middle" dominant-baseline="middle" class="small-label-9"><textPath href="#textpath--3983042564630645706" startOffset="50%"><tspan>Denmark | 74.4%</tspan></textPath></text><defs><path d="M-190.15844551417547 -462.42811938682144L-38.031689102835095 -92.48562387736429" stroke="#aaa" stroke-width="2" fill="none" id="textpath-6284691767897739536"/></defs><text text-anchor="middle" dominant-baseline="middle" class="small-label-9"><textPath href="#textpath-6284691767897739536" startOffset="50%"><tspan>Finland | 58.4%</tspan></textPath></text><defs><path d="M-168.59883338810653 -470.716935514508L-33.7197666776213 -94.1433871029016" stroke="#aaa" stroke-width="2" fill="none" id="textpath-4668958373659826861"/></defs><text text-anchor="middle" dominant-baseline="middle" class="small-label-9"><textPath href="#textpath-4668958373659826861" startOffset="50%"><tspan>Norway | 64.8%</tspan></textPath></text><defs><path d="M-146.85512106364985 -477.94724961796857L-29.371024212729967 -95.58944992359372" stroke="#aaa" stroke-width="2" fill="none" id="textpath-5260519741777867746"/></defs><text text-anchor="middle" dominant-baseline="middle" class="small-label-9"><textPath href="#textpath-5260519741777867746" startOffset="50%"><tspan>Slovakia | 40.7%</tspan></textPath></text><defs><path d="M-125.78311192996917 -483.92004376055024L-25.15662238599383 -96.78400875211005" stroke="#aaa" stroke-width="2" fill="none" id="textpath--2812245626681170936"/></defs><text text-anchor="middle" dominant-baseline="middle" class="small-label-8"><textPath href="#textpath--2812245626681170936" startOffset="50%"><tspan>Ireland | 71.8%</tspan></textPath></text><defs><path d="M-107.29652875111941 -488.35177374302657L-21.45930575022388 -97.67035474860532" stroke="#aaa" stroke-width="2" fill="none" id="textpath-3535113316719841774"/></defs><text text-anchor="middle" dominant-baseline="middle" class="small-label-6"><textPath href="#textpath-3535113316719841774" startOffset="50%"><tspan>Croatia | 40.8%</tspan></textPath></text><defs><path d="M-90.63335211204479 -491.71698718361773L-18.126670422408957 -98.34339743672355" stroke="#aaa" stroke-width="2" fill="none" id="textpath-422458861845642352"/></defs><text text-anchor="middle" dominant-baseline="middle" class="small-label-6"><textPath href="#textpath-422458861845642352" startOffset="50%"><tspan>Moldova | 18.7%</tspan></textPath></text><defs><path d="M-75.56218425491723 -494.25737861019934L-15.112436850983446 -98.85147572203988" stroke="#aaa" stroke-width="2" fill="none" id="textpath--2015304695030017179"/></defs><text text-anchor="middle" dominant-baseline="middle" class="small-label-5"><textPath href="#textpath--2015304695030017179" startOffset="50%"><tspan>Bosnia and Herzegovina | 13.1%</tspan></textPath></text><defs><path d="M-62.816242406839 -496.0384256183035L-12.5632484813678 -99.20768512366071" stroke="#aaa" stroke-width="2" fill="none" id="textpath-8231665693904073735"/></defs><text text-anchor="middle" dominant-baseline="middle" class="small-label-4"><textPath href="#textpath-8231665693904073735" startOffset="50%"><tspan>Albania | 25.1%</tspan></textPath></text><defs><path d="M-51.22553080361946 -497.3690229536691L-10.245106160723893 -99.47380459073383" stroke="#aaa" stroke-width="2" fill="none" id="textpath-1781645800587481457"/></defs><text text-anchor="middle" dominant-baseline="middle" class="small-label-4"><textPath href="#textpath-1781645800587481457" startOffset="50%"><tspan>Lithuania | 59.3%</tspan></textPath></text></g><text y="654" class="legend">
            <tspan x="-654">* Showing percentage of population fully vaccinated, having received all shots according to each countries chosen vaccine(s).</tspan>
            <tspan x="-654" dy="1.2em">Countries where no data was available are not counted towards a region's percentage.</tspan>
            </text><text y="-654" class="title" text-anchor="middle">
                <tspan x="0">Covid Vaccinations* by Country</tspan>
            </text><text xmlns:xlink="http://www.w3.org/1999/xlink" y="654" class="sources" text-anchor="end">
    <tspan x="654">Data source:
        <a xlink:href="https://github.com/owid/covid-19-data/tree/master/public/data/vaccinations">
            <tspan>https://github.com/owid/covid-19-data/tree/master/public/data/vaccinations</tspan>
        </a>
    </tspan>
    <tspan x="654" dy="1.2em">Code source:
        <a xlink:href="https://github.com/WorldSEnder/vis_covid_vacc">
            <tspan>https://github.com/WorldSEnder/vis_covid_vacc</tspan>
        </a>
    </tspan>
    <tspan x="654" dy="1.2em">Timestamp: Sun Sep 19 02:00:22 2021 +0000</tspan>
</text><text text-anchor="middle" dominant-baseline="middle" class="label_all" x="0" y="0">
    <tspan>Europe | 50.5%</tspan>
</text></svg>