<svg xmlns="http://www.w3.org/2000/svg" viewBox="-664 -684 1328 1388"><style>
text {
    font-family: "Open Sans";
}
.legend, .sources {
    font-size: 10pt;
}
.title {
    font-size: 20pt;
    font-weight: bold;
}
.label_all {
    font-size: 18pt;
}
.label {
}
.small-label-9 {
   font-size: 9pt;
}
.small-label-8 {
   font-size: 8pt;
}
.small-label-7 {
   font-size: 7pt;
}
.small-label-6 {
   font-size: 6pt;
}
.small-label-5 {
   font-size: 5pt;
}
.small-label-4 {
   font-size: 4pt;
}
a {
    text-decoration: underline;
}
</style><style type="text/css">
@font-face{
  font-family:'Open Sans';src:local('Open Sans')
             , local('OpenSans')
             , url(https://fonts.gstatic.com/s/opensans/v18/mem5YaGs126MiZpBA-UN_r8OUuhp.woff2) format('woff2');
  }
</style><defs><pattern id="diagonalHatch" width="10" height="10" patternTransform="rotate(45 0 0)" patternUnits="userSpaceOnUse">
  <line x1="0" y1="0" x2="0" y2="10" style="stroke:#444; stroke-width:1"/>
</pattern></defs><circle cx="0" cy="0" r="199.0" stroke="#aaa" stroke-width="2" fill="none"/><path d="M2.4554168322904432e-14 -401.0A401.0 401.0 0 0 1 377.125988024757 -136.2974290159239" stroke="#aaa" stroke-width="2" fill="none"/><path d="M377.125988024757 -136.2974290159239A401.0 401.0 0 0 1 375.71666021543444 140.1356173018116" stroke="#aaa" stroke-width="2" fill="none"/><path d="M375.71666021543444 140.1356173018116A401.0 401.0 0 0 1 240.00130291906532 321.2481511186501" stroke="#aaa" stroke-width="2" fill="none"/><path d="M240.00130291906532 321.2481511186501A401.0 401.0 0 0 1 29.994475107534818 399.8766453083044" stroke="#aaa" stroke-width="2" fill="none"/><path d="M29.994475107534818 399.8766453083044A401.0 401.0 0 0 1 -167.7216793615427 364.23953419713223" stroke="#aaa" stroke-width="2" fill="none"/><path d="M-167.7216793615427 364.23953419713223A401.0 401.0 0 0 1 -294.1867253027977 272.4980195443927" stroke="#aaa" stroke-width="2" fill="none"/><path d="M-294.1867253027977 272.4980195443927A401.0 401.0 0 0 1 -372.018565626821 149.67694154064841" stroke="#aaa" stroke-width="2" fill="none"/><path d="M-372.018565626821 149.67694154064841A401.0 401.0 0 0 1 -400.14123775344365 26.229560597579948" stroke="#aaa" stroke-width="2" fill="none"/><path d="M-400.14123775344365 26.229560597579948A401.0 401.0 0 0 1 -399.19194582417117 -38.03669792597691" stroke="#aaa" stroke-width="2" fill="none"/><path d="M-399.19194582417117 -38.03669792597691A401.0 401.0 0 0 1 -389.5964279517996 -94.95063626536803" stroke="#aaa" stroke-width="2" fill="none"/><path d="M-389.5964279517996 -94.95063626536803A401.0 401.0 0 0 1 -378.49266089455347 -132.45491930827092" stroke="#aaa" stroke-width="2" fill="none"/><path d="M-378.49266089455347 -132.45491930827092A401.0 401.0 0 0 1 -365.06198431700716 -165.9239211401695" stroke="#aaa" stroke-width="2" fill="none"/><path d="M-365.06198431700716 -165.9239211401695A401.0 401.0 0 0 1 -349.2649530470437 -197.01520898917005" stroke="#aaa" stroke-width="2" fill="none"/><path d="M-349.2649530470437 -197.01520898917005A401.0 401.0 0 0 1 -331.21135151928263 -226.0531809658297" stroke="#aaa" stroke-width="2" fill="none"/><path d="M-331.21135151928263 -226.0531809658297A401.0 401.0 0 0 1 -310.7661166400722 -253.4273480673486" stroke="#aaa" stroke-width="2" fill="none"/><path d="M-310.7661166400722 -253.4273480673486A401.0 401.0 0 0 1 -289.2929120271258 -277.68797426403916" stroke="#aaa" stroke-width="2" fill="none"/><path d="M-289.2929120271258 -277.68797426403916A401.0 401.0 0 0 1 -266.4125442173597 -299.7087857965351" stroke="#aaa" stroke-width="2" fill="none"/><path d="M-266.4125442173597 -299.7087857965351A401.0 401.0 0 0 1 -242.93275075295423 -319.03711165255214" stroke="#aaa" stroke-width="2" fill="none"/><path d="M-242.93275075295423 -319.03711165255214A401.0 401.0 0 0 1 -218.97960279745692 -335.92995335139136" stroke="#aaa" stroke-width="2" fill="none"/><path d="M-218.97960279745692 -335.92995335139136A401.0 401.0 0 0 1 -199.18951895240278 -348.02950383481914" stroke="#aaa" stroke-width="2" fill="none"/><path d="M-199.18951895240278 -348.02950383481914A401.0 401.0 0 0 1 -178.80854022305627 -358.92688105420535" stroke="#aaa" stroke-width="2" fill="none"/><path d="M-178.80854022305627 -358.92688105420535A401.0 401.0 0 0 1 -161.09975002592654 -367.21638109101826" stroke="#aaa" stroke-width="2" fill="none"/><path d="M-161.09975002592654 -367.21638109101826A401.0 401.0 0 0 1 -143.84019042763862 -374.3140387665692" stroke="#aaa" stroke-width="2" fill="none"/><path d="M-143.84019042763862 -374.3140387665692A401.0 401.0 0 0 1 -126.53320375076949 -380.5132696090456" stroke="#aaa" stroke-width="2" fill="none"/><path d="M-126.53320375076949 -380.5132696090456A401.0 401.0 0 0 1 -108.97614906058018 -385.9082778795063" stroke="#aaa" stroke-width="2" fill="none"/><path d="M-108.97614906058018 -385.9082778795063A401.0 401.0 0 0 1 -92.7549209941851 -390.12501154291874" stroke="#aaa" stroke-width="2" fill="none"/><path d="M-92.7549209941851 -390.12501154291874A401.0 401.0 0 0 1 -79.34558252232154 -393.0715946671719" stroke="#aaa" stroke-width="2" fill="none"/><path d="M-79.34558252232154 -393.0715946671719A401.0 401.0 0 0 1 -66.03445869763429 -395.5255368045285" stroke="#aaa" stroke-width="2" fill="none"/><path d="M-66.03445869763429 -395.5255368045285A401.0 401.0 0 0 1 -55.183266538088276 -397.1848525487677" stroke="#aaa" stroke-width="2" fill="none"/><path d="M-55.183266538088276 -397.1848525487677A401.0 401.0 0 0 1 -45.596096981002646 -398.39929209286885" stroke="#aaa" stroke-width="2" fill="none"/><path d="M-45.596096981002646 -398.39929209286885A401.0 401.0 0 0 1 -36.595739762637095 -399.32662299329024" stroke="#aaa" stroke-width="2" fill="none"/><path d="M-36.595739762637095 -399.32662299329024A401.0 401.0 0 0 1 -29.614060261528884 -399.90499801181096" stroke="#aaa" stroke-width="2" fill="none"/><path d="M-29.614060261528884 -399.90499801181096A401.0 401.0 0 0 1 -22.636567788365667 -400.36056973528594" stroke="#aaa" stroke-width="2" fill="none"/><path d="M-22.636567788365667 -400.36056973528594A401.0 401.0 0 0 1 -16.364043303184808 -400.6659682163828" stroke="#aaa" stroke-width="2" fill="none"/><path d="M-16.364043303184808 -400.6659682163828A401.0 401.0 0 0 1 -11.909151103803156 -400.82311824542603" stroke="#aaa" stroke-width="2" fill="none"/><path d="M-11.909151103803156 -400.82311824542603A401.0 401.0 0 0 1 -8.896178296894826 -400.9013070715907" stroke="#aaa" stroke-width="2" fill="none"/><path d="M-8.896178296894826 -400.9013070715907A401.0 401.0 0 0 1 -6.761191519123217 -400.94299630900366" stroke="#aaa" stroke-width="2" fill="none"/><path d="M-6.761191519123217 -400.94299630900366A401.0 401.0 0 0 1 -4.648760964699464 -400.97305273732934" stroke="#aaa" stroke-width="2" fill="none"/><path d="M-4.648760964699464 -400.97305273732934A401.0 401.0 0 0 1 -2.912775024477873 -400.98942098471474" stroke="#aaa" stroke-width="2" fill="none"/><path d="M-2.912775024477873 -400.98942098471474A401.0 401.0 0 0 1 -1.757795797968702 -400.99614730559773" stroke="#aaa" stroke-width="2" fill="none"/><path d="M-1.757795797968702 -400.99614730559773A401.0 401.0 0 0 1 -1.4178076901800802 -400.99749353500164" stroke="#aaa" stroke-width="2" fill="none"/><path d="M-1.4178076901800802 -400.99749353500164A401.0 401.0 0 0 1 -1.130505783770337 -400.99840642660024" stroke="#aaa" stroke-width="2" fill="none"/><path d="M-1.130505783770337 -400.99840642660024A401.0 401.0 0 0 1 -0.8703021216347585 -400.99905557771217" stroke="#aaa" stroke-width="2" fill="none"/><path d="M-0.8703021216347585 -400.99905557771217A401.0 401.0 0 0 1 -0.657087153634161 -400.99946164112555" stroke="#aaa" stroke-width="2" fill="none"/><path d="M-0.657087153634161 -400.99946164112555A401.0 401.0 0 0 1 -0.49208215079026235 -400.999698073648" stroke="#aaa" stroke-width="2" fill="none"/><path d="M-0.49208215079026235 -400.999698073648A401.0 401.0 0 0 1 -0.35914429276355064 -400.99983917126076" stroke="#aaa" stroke-width="2" fill="none"/><path d="M-0.35914429276355064 -400.99983917126076A401.0 401.0 0 0 1 -0.2304649832352931 -400.99993377292657" stroke="#aaa" stroke-width="2" fill="none"/><path d="M-0.2304649832352931 -400.99993377292657A401.0 401.0 0 0 1 -0.11606167651834255 -400.9999832040985" stroke="#aaa" stroke-width="2" fill="none"/><path d="M-0.11606167651834255 -400.9999832040985A401.0 401.0 0 0 1 -0.0027314170549096735 -400.99999999069746" stroke="#aaa" stroke-width="2" fill="none"/><path d="M-0.0027314170549096735 -400.99999999069746A401.0 401.0 0 0 1 -7.366250496871329e-14 -401.0" stroke="#aaa" stroke-width="2" fill="none"/><g><circle fill="#279ee3" r="148.23468326321253"/><path d="M0.5000000000000009 -199.99937499902342L0.5000000000000018 -285.6628357120001A285.663273290462 285.663273290462 0 0 1 268.48561208312697 -97.56526949365647L187.92222739733825 -68.44878706027662A200 200 0 0 0 0.5000000000000009 -199.99937499902342" fill="#d163e6"/><path d="M188.26212123528322 -67.50832324974107L326.3585342397015 -117.41786713295868A346.83836061361427 346.83836061361427 0 0 1 325.144346347208 120.73939883727434L187.56400256473378 69.42438290612702A200 200 0 0 0 188.26212123528322 -67.50832324974107" fill="#b24502"/><path d="M187.21453718492876 70.36133218347224L325.56474450251426 121.96349349078979A347.66003021265664 347.66003021265664 0 0 1 208.4773017650097 278.2170218664674L120.10158268908651 159.92376257322275A200 200 0 0 0 187.21453718492876 70.36133218347224" fill="#ff9287"/><path d="M119.30046510524946 160.52226956304585L208.8670961270229 280.40959628882655A349.64983274041145 349.64983274041145 0 0 1 26.652096768314077 348.63257345413115L15.458390517668025 199.40170050078126A200 200 0 0 0 119.30046510524946 160.52226956304585" fill="#5954d6"/><path d="M14.461191900939111 199.47649969057562L26.150557691156468 355.31534538517985A356.27636230003833 356.27636230003833 0 0 1 -148.5613246615929 323.824611709087L-83.1972849850289 181.8741646609542A200 200 0 0 0 14.461191900939111 199.47649969057562" fill="#00c6f8"/><path d="M-84.1056130004831 181.4559061089304L-154.77667129797007 334.9315537025073A368.9647186976763 368.9647186976763 0 0 1 -270.3445727427436 251.09515254619873L-146.38631467280982 136.27562832918113A200 200 0 0 0 -84.1056130004831 181.4559061089304" fill="#878500"/><path d="M-147.0658608562123 135.54199559775265L-185.5899707041073 171.22594302079492A252.51130824046655 252.51130824046655 0 0 1 -234.0744939298265 94.71584915317773L-185.35820983198766 75.11547142820069A200 200 0 0 0 -147.0658608562123 135.54199559775265" fill="#00a76c"/><path d="M-185.73146903782472 74.18774433187438L-299.25953944003 119.86432052151291A322.3720324096724 322.3720324096724 0 0 1 -321.64856391530947 21.58537956955884L-199.53836080230815 13.580963453595352A200 200 0 0 0 -185.73146903782472 74.18774433187438" fill="#bdbdbd"/><path d="M-199.60377117786322 12.583105005332332L-285.6264167520336 18.221954446394367A286.2070746338267 286.2070746338267 0 0 1 -284.9635985904727 -26.650272959592858L-199.14503246494075 -18.473116806259185A200 200 0 0 0 -199.60377117786322 12.583105005332332" fill="#ebac23"/><path d="M-199.05017785664654 -19.46860794297788L-355.8954658941678 -34.41349073583807A357.5554096761121 357.5554096761121 0 0 1 -347.5053604022558 -84.1777611982562L-194.4302179809094 -46.87099674528006A200 200 0 0 0 -199.05017785664654 -19.46860794297788" fill="#b80058"/><path d="M-194.1934333518187 -47.84255890974845L-348.64103997204035 -85.48381397810245A358.96804482436687 358.96804482436687 0 0 1 -338.98470354715795 -118.0992293204071L-188.93896029995548 -65.59016146322438A200 200 0 0 0 -194.1934333518187 -47.84255890974845" fill="#008cf9"/><path d="M-188.60864878048346 -66.53403343553005L-311.67298608787183 -109.6008575827946A330.3822002466458 330.3822002466458 0 0 1 -300.97956469941425 -136.24866925282566L-182.28212134632128 -82.29962477122852A200 200 0 0 0 -188.60864878048346 -66.53403343553005" fill="#006e00"/><path d="M-181.8683459818819 -83.21000378448795L-308.1049172500437 -140.58564900619177A338.6634977970735 338.6634977970735 0 0 1 -295.21613303813336 -165.95300399257482L-174.442094570989 -97.82615009130289A200 200 0 0 0 -181.8683459818819 -83.21000378448795" fill="#00bbad"/><path d="M-173.95078482288633 -98.69713501161976L-331.49524304086253 -187.5656403973275A380.88051356873075 380.88051356873075 0 0 1 -314.87498144055576 -214.29818403147925L-165.47403961825762 -112.33139459837267A200 200 0 0 0 -173.95078482288633 -98.69713501161976" fill="#d163e6"/><path d="M-164.91031597495126 -113.15735806849561L-288.52241474831675 -197.52315050105003A349.6578024241132 349.6578024241132 0 0 1 -271.29276805411837 -220.59195995682728L-155.3110792342188 -126.00979591723103A200 200 0 0 0 -164.91031597495126 -113.15735806849561" fill="#b24502"/><path d="M-154.6790908350483 -126.78477376421382L-258.87419649780804 -211.75507102571856A334.4488895444158 334.4488895444158 0 0 1 -241.62700509881304 -231.24110820628547L-144.6315351227049 -138.13659561481086A200 200 0 0 0 -154.6790908350483 -126.78477376421382" fill="#ff9287"/><path d="M-143.93904640882943 -138.858024323108L-189.4344936617159 -182.52842916422583A263.0628343989901 263.0628343989901 0 0 1 -175.1445556168622 -196.28153117347125L-133.24737338720678 -149.14803882522324A200 200 0 0 0 -143.93904640882943 -138.858024323108" fill="#5954d6"/><path d="M-132.49996993135503 -149.81240925968052L-225.87614516461764 -254.85873950549953A340.5481024125072 340.5481024125072 0 0 1 -206.70752286479706 -270.6381533484496L-121.56088995813134 -158.81734802151522A200 200 0 0 0 -132.49996993135503 -149.81240925968052" fill="#00c6f8"/><path d="M-120.7652861884242 -159.42316535506376L-207.03710506771455 -272.72164745330866A342.4054027968406 342.4054027968406 0 0 1 -187.40070856644857 -286.57012107555744L-109.63528347556482 -167.2725459160365A200 200 0 0 0 -120.7652861884242 -159.42316535506376" fill="#878500"/><path d="M-108.79755291857876 -167.81862971353644L-142.0907112497447 -218.89265205274842A260.96697750126145 260.96697750126145 0 0 1 -130.06435424792517 -226.24550183421135L-99.78003503429952 -173.33189149303703A200 200 0 0 0 -108.79755291857876 -167.81862971353644" fill="#00a76c"/><path d="M-98.91213103471138 -173.82862346049941L-151.02411029767978 -264.8801325063897A304.9094398141985 304.9094398141985 0 0 1 -136.40848371553753 -272.6948698788378L-89.62857787936687 -178.79238805755202A200 200 0 0 0 -98.91213103471138 -173.82862346049941" fill="#bdbdbd"/><path d="M-88.73349837549098 -179.23829464164945L-161.16649851872427 -324.6348780172414A362.4395732671243 362.4395732671243 0 0 1 -146.06602813580204 -331.70342128878656L-80.80662720256792 -182.94886990671796A200 200 0 0 0 -88.73349837549098 -179.23829464164945" fill="#ebac23"/><path d="M-79.89087562877481 -183.35061491925146L-141.97110470728808 -324.8584512495017A354.52617381518195 354.52617381518195 0 0 1 -127.6364555034172 -330.75329650142083L-72.20724489938038 -186.51035838269388A200 200 0 0 0 -79.89087562877481 -183.35061491925146" fill="#b80058"/><path d="M-71.27379343113451 -186.86906209947105L-125.24173538197333 -327.30935389469533A350.4524296226966 350.4524296226966 0 0 1 -111.05755657130364 -332.3900187383232L-63.58308803387162 -189.62381421139312A200 200 0 0 0 -71.27379343113451 -186.86906209947105" fill="#008cf9"/><path d="M-62.634177137090894 -189.93935836039753L-94.73182688188118 -286.4640751075767A301.72137039264896 301.72137039264896 0 0 1 -82.47716215936353 -290.2297418834881L-54.83320658567635 -192.33647458434018A200 200 0 0 0 -62.634177137090894 -189.93935836039753" fill="#006e00"/><path d="M-53.870841802934386 -192.6082355545661L-97.74162110817443 -347.9642197480024A361.43121437099205 361.43121437099205 0 0 1 -84.08866374197841 -351.5133274170106L-46.74810157778626 -194.4598030413303A200 200 0 0 0 -53.870841802934386 -192.6082355545661" fill="#00bbad"/><path d="M-45.775221249748995 -194.691112071241L-70.59538907077392 -299.0841529351488A307.3028465455363 307.3028465455363 0 0 1 -61.29582766144747 -301.12764902327973L-40.063847158931026 -195.94613584050543A200 200 0 0 0 -45.775221249748995 -194.691112071241" fill="#d163e6"/><path d="M-39.083618743302104 -196.14400512360353L-50.61517654188478 -253.27040925089543A258.2785246560043 258.2785246560043 0 0 1 -43.02497101824744 -254.6696844293824L-33.427963182862754 -197.1866407174816A200 200 0 0 0 -39.083618743302104 -196.14400512360353" fill="#b24502"/><path d="M-32.44161521078157 -197.3513151780742L-41.97186327545217 -254.4344889634329A257.87312089649146 257.87312089649146 0 0 1 -35.98216169689657 -255.35040732396507L-28.017983152859287 -198.0277571959196A200 200 0 0 0 -32.44161521078157 -197.3513151780742" fill="#ff9287"/><path d="M-27.02749723627876 -198.1653713269373L-38.00680350765429 -277.18958312262896A279.78309831826203 279.78309831826203 0 0 1 -32.3097171057707 -277.9112525341702L-23.23788165746094 -198.64541488812128A200 200 0 0 0 -27.02749723627876 -198.1653713269373" fill="#5954d6"/><path d="M-22.244367213339004 -198.75912086563002L-38.56139975508675 -341.3304075351239A343.50171565680046 343.50171565680046 0 0 1 -31.846257826744974 -342.02228658611983L-18.750095739778025 -199.11914501059198A200 200 0 0 0 -22.244367213339004 -198.75912086563002" fill="#00c6f8"/><path d="M-17.754268749769754 -199.21040620700754L-26.104142610339544 -290.32284040803734A291.49404440573335 291.49404440573335 0 0 1 -22.025591014086288 -290.66071503471505L-15.268693372805764 -199.4163157885714A200 200 0 0 0 -17.754268749769754 -199.21040620700754" fill="#878500"/><path d="M-14.271424051080484 -199.4901663129144L-23.464084009967472 -323.626830793118A324.4763301808381 324.4763301808381 0 0 1 -18.815965107974453 -323.93031396379024L-11.789226171231459 -199.65223301101233A200 200 0 0 0 -14.271424051080484 -199.4901663129144" fill="#00a76c"/><path d="M-10.790820760420207 -199.7086833047489L-18.3125586111966 -332.74153879284995A333.24507714461765 333.24507714461765 0 0 1 -14.098662640725586 -332.94670617512526L-8.661175603995314 -199.81237208230314A200 200 0 0 0 -10.790820760420207 -199.7086833047489" fill="#bdbdbd"/><path d="M-7.662008600961874 -199.853180170341L-13.035278578158884 -331.41518951082486A331.6714433382925 331.6714433382925 0 0 1 -10.349956125544933 -331.5099164946736L-6.439487123821166 -199.8963056326508A200 200 0 0 0 -7.662008600961874 -199.853180170341" fill="#ebac23"/><path d="M-5.439928225453454 -199.92600426383237L-9.65521811557928 -341.7988903614061A341.93523464122256 341.93523464122256 0 0 1 -8.085696296134515 -341.83962058918013L-4.936859732654989 -199.9390592555144A200 200 0 0 0 -5.439928225453454 -199.92600426383237" fill="#b80058"/><path d="M-3.9371058496833755 -199.9612442387984L-7.1562770652780925 -345.0313973931781A345.105603386158 345.105603386158 0 0 1 -6.3186885985341785 -345.0477527283998L-3.872083731241537 -199.96251390592752A200 200 0 0 0 -3.9371058496833755 -199.9612442387984" fill="#008cf9"/><path d="M-2.8722258850843545 -199.9793747326585L-4.4860523114269375 -295.6803175428543A295.7143467057086 295.7143467057086 0 0 1 -3.928154296705142 -295.68825551821516L-2.818543176629496 -199.98013854971066A200 200 0 0 0 -2.8722258850843545 -199.9793747326585" fill="#006e00"/><path d="M-1.8186103767857158 -199.99173146982216L-3.8382639229257243 -374.19441773762554A374.2141025348225 374.2141025348225 0 0 1 -3.21819259151799 -374.20026426017733L-1.9527378925204748 -199.99046680960348A200 200 0 0 0 -1.8186103767857158 -199.99173146982216" fill="#00bbad"/><path d="M-0.9527642741046612 -199.9977305877194L-2.1954114024997877 -371.06770623502916A371.0742007223786 371.0742007223786 0 0 1 -2.126608858568942 -371.0681069244766L-1.376698590080953 -199.99526169635138A200 200 0 0 0 -0.9527642741046612 -199.9977305877194" fill="#d163e6"/><path d="M-0.3767081977976008 -199.99964522701964L-1.072782696565765 -358.79123669981743A358.79284050172805 358.79284050172805 0 0 1 -1.768572322347767 -358.7884816256496L-1.2071306700058333 -199.99635705568622A200 200 0 0 0 -0.3767081977976008 -199.99964522701964" fill="#b24502"/><path d="M-0.20713692054192273 -199.99989273571163L-0.7793651586192422 -361.84277931915597A361.84361864687054 361.84361864687054 0 0 1 -1.5201125096685004 -361.84042562076974L-1.0638395346637455 -199.99717059359736A200 200 0 0 0 -0.20713692054192273 -199.99989273571163" fill="#ff9287"/><path d="M-0.06384350866218243 -199.99998981001573L-0.46367873658015396 -341.82437631922096A341.82469080508963 341.82469080508963 0 0 1 -1.241870232337926 -341.82243490198414L-0.9340633620352746 -199.9978188021952A200 200 0 0 0 -0.06384350866218243 -199.99998981001573" fill="#5954d6"/><path d="M0.06593428279699143 -199.9999891316756L-0.056644124879800084 -256.4790261128098A256.47903236781804 256.47903236781804 0 0 1 -0.9202705434452658 -256.4773813544951L-0.8277225707413854 -199.99828718103035A200 200 0 0 0 0.06593428279699143 -199.9999891316756" fill="#00c6f8"/><path d="M0.17227608671784672 -199.9999258023611L-0.0982832984085479 -365.1137424058859A365.11375563410144 365.11375563410144 0 0 1 -0.9480439968168637 -365.11252479998336L-0.7454263631996633 -199.99861084401823A200 200 0 0 0 0.17227608671784672 -199.9999258023611" fill="#878500"/><path d="M0.25457288386685684 -199.99983798155137L0.09157656247784851 -332.82618731998826A332.82619991855614 332.82619991855614 0 0 1 -0.7980858226537252 -332.8252430499321L-0.6791235752439403 -199.99884697460018A200 200 0 0 0 0.25457288386685684 -199.99983798155137" fill="#00a76c"/><path d="M0.3208760236869506 -199.9997425962779L0.19272493379752714 -343.08587112657847A343.08592525719166 343.08592525719166 0 0 1 -0.6971799873602061 -343.08521689173455L-0.6149446870142035 -199.99905460534535A200 200 0 0 0 0.3208760236869506 -199.9997425962779" fill="#bdbdbd"/><path d="M0.38505514783106615 -199.99962933098934L0.30191973143017387 -344.65195786644927A344.6520901092883 344.6520901092883 0 0 1 -0.599752740403548 -344.651568273454L-0.5578859211148873 -199.999221906734A200 200 0 0 0 0.38505514783106615 -199.99962933098934" fill="#ebac23"/><path d="M0.44211403700013757 -199.99951133734874L0.3765896220443294 -426.3902553362196A426.3904216389364 426.3904216389364 0 0 1 -0.5029043622552234 -426.39012506463183L-0.5013622985017596 -199.99937158862684A200 200 0 0 0 0.44211403700013757 -199.99951133734874" fill="#b80058"/><path d="M0.49863770147510816 -199.9993784001407L0.4972753965757958 -399.9996908963555A400 400 0 0 1 -0.49999999999992656 -399.9996874998779L-0.5000000000000698 -199.99937499902342A200 200 0 0 0 0.49863770147510816 -199.9993784001407" fill="url(#diagonalHatch)"/></g><g><defs><path d="M57.45024639003095 -81.85028521468168L287.2512319501547 -409.25142607340837" stroke="#aaa" stroke-width="2" fill="none" id="textpath-4924287163778445243"/></defs><text text-anchor="middle" dominant-baseline="middle" class="label"><textPath href="#textpath-4924287163778445243" startOffset="50%"><tspan>Russia | 34.7%</tspan></textPath></text><defs><path d="M99.9987004120913 0.5098194708055631L499.9935020604565 2.5490973540278157" stroke="#aaa" stroke-width="2" fill="none" id="textpath--7946676994533809008"/></defs><text text-anchor="middle" dominant-baseline="middle" class="label"><textPath href="#textpath--7946676994533809008" startOffset="50%"><tspan>Germany | 66.9%</tspan></textPath></text><defs><path d="M80.02524073368157 59.96633093258509L400.12620366840787 299.8316546629254" stroke="#aaa" stroke-width="2" fill="none" id="textpath--8248789862878560299"/></defs><text text-anchor="middle" dominant-baseline="middle" class="label"><textPath href="#textpath--8248789862878560299" startOffset="50%"><tspan>United Kingdom | 67.4%</tspan></textPath></text><defs><path d="M35.063834037759314 93.6510947216981L175.3191701887966 468.2554736084905" stroke="#aaa" stroke-width="2" fill="none" id="textpath--6830558939517196573"/></defs><text text-anchor="middle" dominant-baseline="middle" class="label"><textPath href="#textpath--6830558939517196573" startOffset="50%"><tspan>France | 68.5%</tspan></textPath></text><defs><path d="M-88.69269885184754 492.0707318774156L-17.738539770369506 98.41414637548313" stroke="#aaa" stroke-width="2" fill="none" id="textpath-4757336222922107403"/></defs><text text-anchor="middle" dominant-baseline="middle" class="label"><textPath href="#textpath-4757336222922107403" startOffset="50%"><tspan>Italy | 72.4%</tspan></textPath></text><defs><path d="M-293.5977962675028 404.72253955872765L-58.71955925350056 80.94450791174553" stroke="#aaa" stroke-width="2" fill="none" id="textpath--9200279737292483553"/></defs><text text-anchor="middle" dominant-baseline="middle" class="label"><textPath href="#textpath--9200279737292483553" startOffset="50%"><tspan>Spain | 80.1%</tspan></textPath></text><defs><path d="M-422.3393326093937 267.63685869299076L-84.46786652187875 53.52737173859815" stroke="#aaa" stroke-width="2" fill="none" id="textpath-2369808227528159293"/></defs><text text-anchor="middle" dominant-baseline="middle" class="label"><textPath href="#textpath-2369808227528159293" startOffset="50%"><tspan>Ukraine | 19.8%</tspan></textPath></text><defs><path d="M-487.50965322729866 111.06006487571945L-97.50193064545974 22.21201297514389" stroke="#aaa" stroke-width="2" fill="none" id="textpath--5021209226214331580"/></defs><text text-anchor="middle" dominant-baseline="middle" class="label"><textPath href="#textpath--5021209226214331580" startOffset="50%"><tspan>Poland | 53.3%</tspan></textPath></text><defs><path d="M-499.94546158771504 -7.384811293902436L-99.989092317543 -1.4769622587804871" stroke="#aaa" stroke-width="2" fill="none" id="textpath-922264279559682058"/></defs><text text-anchor="middle" dominant-baseline="middle" class="label"><textPath href="#textpath-922264279559682058" startOffset="50%"><tspan>Romania | 34.9%</tspan></textPath></text><defs><path d="M-493.04175916661757 -83.1253494301653L-98.60835183332351 -16.62506988603306" stroke="#aaa" stroke-width="2" fill="none" id="textpath--545448321643151831"/></defs><text text-anchor="middle" dominant-baseline="middle" class="label"><textPath href="#textpath--545448321643151831" startOffset="50%"><tspan>Netherlands | 73.2%</tspan></textPath></text><defs><path d="M-479.42903616850293 -141.942943743394L-95.88580723370058 -28.3885887486788" stroke="#aaa" stroke-width="2" fill="none" id="textpath--1250225196155910669"/></defs><text text-anchor="middle" dominant-baseline="middle" class="label"><textPath href="#textpath--1250225196155910669" startOffset="50%"><tspan>Belgium | 74.0%</tspan></textPath></text><defs><path d="M-464.0321197722649 -186.21007443116076L-92.80642395445298 -37.24201488623215" stroke="#aaa" stroke-width="2" fill="none" id="textpath--7572331829341965238"/></defs><text text-anchor="middle" dominant-baseline="middle" class="label"><textPath href="#textpath--7572331829341965238" startOffset="50%"><tspan>Czechia | 57.6%</tspan></textPath></text><defs><path d="M-445.7626221219149 -226.48550664224615L-89.15252442438297 -45.29710132844923" stroke="#aaa" stroke-width="2" fill="none" id="textpath--5326633648423755307"/></defs><text text-anchor="middle" dominant-baseline="middle" class="label"><textPath href="#textpath--5326633648423755307" startOffset="50%"><tspan>Greece | 62.2%</tspan></textPath></text><defs><path d="M-424.62318678112325 -263.99838872205885L-84.92463735622465 -52.79967774441177" stroke="#aaa" stroke-width="2" fill="none" id="textpath--9056374680053735798"/></defs><text text-anchor="middle" dominant-baseline="middle" class="label"><textPath href="#textpath--9056374680053735798" startOffset="50%"><tspan>Portugal | 87.6%</tspan></textPath></text><defs><path d="M-400.59901847959804 -299.1996430365228L-80.11980369591961 -59.83992860730456" stroke="#aaa" stroke-width="2" fill="none" id="textpath-2292256108630800495"/></defs><text text-anchor="middle" dominant-baseline="middle" class="label"><textPath href="#textpath-2292256108630800495" startOffset="50%"><tspan>Sweden | 68.6%</tspan></textPath></text><defs><path d="M-374.40727045923376 -331.38979439214205L-74.88145409184675 -66.27795887842841" stroke="#aaa" stroke-width="2" fill="none" id="textpath-1778907109666247639"/></defs><text text-anchor="middle" dominant-baseline="middle" class="label"><textPath href="#textpath-1778907109666247639" startOffset="50%"><tspan>Hungary | 59.9%</tspan></textPath></text><defs><path d="M-346.7216907103731 -360.2555609438116L-69.34433814207462 -72.05111218876232" stroke="#aaa" stroke-width="2" fill="none" id="textpath-6881604585411103159"/></defs><text text-anchor="middle" dominant-baseline="middle" class="label"><textPath href="#textpath-6881604585411103159" startOffset="50%"><tspan>Belarus | 24.3%</tspan></textPath></text><defs><path d="M-317.77549428087207 -386.02944866233645L-63.55509885617441 -77.2058897324673" stroke="#aaa" stroke-width="2" fill="none" id="textpath--264531210600180507"/></defs><text text-anchor="middle" dominant-baseline="middle" class="label"><textPath href="#textpath--264531210600180507" startOffset="50%"><tspan>Austria | 63.3%</tspan></textPath></text><defs><path d="M-288.16779854767765 -408.6065587826327L-57.63355970953553 -81.72131175652653" stroke="#aaa" stroke-width="2" fill="none" id="textpath-7718369163722078826"/></defs><text text-anchor="middle" dominant-baseline="middle" class="label"><textPath href="#textpath-7718369163722078826" startOffset="50%"><tspan>Switzerland | 64.4%</tspan></textPath></text><defs><path d="M-260.81305041785305 -426.58709864661216L-52.16261008357061 -85.31741972932242" stroke="#aaa" stroke-width="2" fill="none" id="textpath-5002370636774551060"/></defs><text text-anchor="middle" dominant-baseline="middle" class="label"><textPath href="#textpath-5002370636774551060" startOffset="50%"><tspan>Bulgaria | 23.4%</tspan></textPath></text><defs><path d="M-235.75754851647312 -440.9289946436986L-47.15150970329462 -88.18579892873973" stroke="#aaa" stroke-width="2" fill="none" id="textpath--1932332586906702143"/></defs><text text-anchor="middle" dominant-baseline="middle" class="label"><textPath href="#textpath--1932332586906702143" startOffset="50%"><tspan>Serbia | 44.1%</tspan></textPath></text><defs><path d="M-211.97590720196607 -452.8423729797196L-42.395181440393216 -90.56847459594391" stroke="#aaa" stroke-width="2" fill="none" id="textpath--3983042564630645706"/></defs><text text-anchor="middle" dominant-baseline="middle" class="small-label-9"><textPath href="#textpath--3983042564630645706" startOffset="50%"><tspan>Denmark | 76.1%</tspan></textPath></text><defs><path d="M-190.16367229537403 -462.42597000940333L-38.03273445907481 -92.48519400188067" stroke="#aaa" stroke-width="2" fill="none" id="textpath-6284691767897739536"/></defs><text text-anchor="middle" dominant-baseline="middle" class="small-label-9"><textPath href="#textpath-6284691767897739536" startOffset="50%"><tspan>Finland | 71.4%</tspan></textPath></text><defs><path d="M-168.60626812963193 -470.71427251295313L-33.72125362592639 -94.14285450259062" stroke="#aaa" stroke-width="2" fill="none" id="textpath-4668958373659826861"/></defs><text text-anchor="middle" dominant-baseline="middle" class="small-label-9"><textPath href="#textpath-4668958373659826861" startOffset="50%"><tspan>Norway | 69.0%</tspan></textPath></text><defs><path d="M-146.86479967166514 -477.94427564037386L-29.372959934333025 -95.58885512807477" stroke="#aaa" stroke-width="2" fill="none" id="textpath-5260519741777867746"/></defs><text text-anchor="middle" dominant-baseline="middle" class="small-label-9"><textPath href="#textpath-5260519741777867746" startOffset="50%"><tspan>Slovakia | 42.5%</tspan></textPath></text><defs><path d="M-125.79497250741673 -483.9169607400202L-25.158994501483345 -96.78339214800404" stroke="#aaa" stroke-width="2" fill="none" id="textpath--2812245626681170936"/></defs><text text-anchor="middle" dominant-baseline="middle" class="small-label-8"><textPath href="#textpath--2812245626681170936" startOffset="50%"><tspan>Ireland | 75.5%</tspan></textPath></text><defs><path d="M-107.31030319483733 -488.34874713490575L-21.46206063896747 -97.66974942698114" stroke="#aaa" stroke-width="2" fill="none" id="textpath-3535113316719841774"/></defs><text text-anchor="middle" dominant-baseline="middle" class="small-label-6"><textPath href="#textpath-3535113316719841774" startOffset="50%"><tspan>Croatia | 45.4%</tspan></textPath></text><defs><path d="M-90.64884688332138 -491.71413093252073L-18.129769376664274 -98.34282618650415" stroke="#aaa" stroke-width="2" fill="none" id="textpath-422458861845642352"/></defs><text text-anchor="middle" dominant-baseline="middle" class="small-label-6"><textPath href="#textpath-422458861845642352" startOffset="50%"><tspan>Moldova | 22.3%</tspan></textPath></text><defs><path d="M-75.57922796741481 -494.2547726626922L-15.115845593482963 -98.85095453253844" stroke="#aaa" stroke-width="2" fill="none" id="textpath--2015304695030017179"/></defs><text text-anchor="middle" dominant-baseline="middle" class="small-label-5"><textPath href="#textpath--2015304695030017179" startOffset="50%"><tspan>Bosnia and Herzegovina | 22.1%</tspan></textPath></text><defs><path d="M-62.83458886672 -496.03610195423306L-12.566917773343999 -99.2072203908466" stroke="#aaa" stroke-width="2" fill="none" id="textpath-8231665693904073735"/></defs><text text-anchor="middle" dominant-baseline="middle" class="small-label-4"><textPath href="#textpath-8231665693904073735" startOffset="50%"><tspan>Albania | 31.9%</tspan></textPath></text><defs><path d="M-51.24505479494216 -497.3670117318431L-10.249010958988434 -99.47340234636862" stroke="#aaa" stroke-width="2" fill="none" id="textpath-1781645800587481457"/></defs><text text-anchor="middle" dominant-baseline="middle" class="small-label-4"><textPath href="#textpath-1781645800587481457" startOffset="50%"><tspan>Lithuania | 65.0%</tspan></textPath></text></g><text y="654" class="legend">
            <tspan x="-654">* Showing percentage of population fully vaccinated, having received all shots according to each countries chosen vaccine(s).</tspan>
            <tspan x="-654" dy="1.2em">Countries where no data was available are not counted towards a region's percentage.</tspan>
            </text><text y="-654" class="title" text-anchor="middle">
                <tspan x="0">Covid Vaccinations* by Country</tspan>
            </text><text xmlns:xlink="http://www.w3.org/1999/xlink" y="654" class="sources" text-anchor="end">
    <tspan x="654">Data source:
        <a xlink:href="https://github.com/owid/covid-19-data/tree/master/public/data/vaccinations">
            <tspan>https://github.com/owid/covid-19-data/tree/master/public/data/vaccinations</tspan>
        </a>
    </tspan>
    <tspan x="654" dy="1.2em">Code source:
        <a xlink:href="https://github.com/WorldSEnder/vis_covid_vacc">
            <tspan>https://github.com/WorldSEnder/vis_covid_vacc</tspan>
        </a>
    </tspan>
    <tspan x="654" dy="1.2em">Timestamp: Sat Nov 13 22:00:15 2021 +0000</tspan>
</text><text text-anchor="middle" dominant-baseline="middle" class="label_all" x="0" y="0">
    <tspan>Europe | 56.0%</tspan>
</text></svg>