<svg xmlns="http://www.w3.org/2000/svg" viewBox="-664 -684 1328 1388"><style>
text {
    font-family: "Open Sans";
}
.legend, .sources {
    font-size: 10pt;
}
.title {
    font-size: 20pt;
    font-weight: bold;
}
.label_all {
    font-size: 18pt;
}
.label {
}
.small-label-9 {
   font-size: 9pt;
}
.small-label-8 {
   font-size: 8pt;
}
.small-label-7 {
   font-size: 7pt;
}
.small-label-6 {
   font-size: 6pt;
}
.small-label-5 {
   font-size: 5pt;
}
.small-label-4 {
   font-size: 4pt;
}
a {
    text-decoration: underline;
}
</style><style type="text/css">
@font-face{
  font-family:'Open Sans';src:local('Open Sans')
             , local('OpenSans')
             , url(https://fonts.gstatic.com/s/opensans/v18/mem5YaGs126MiZpBA-UN_r8OUuhp.woff2) format('woff2');
  }
</style><defs><pattern id="diagonalHatch" width="10" height="10" patternTransform="rotate(45 0 0)" patternUnits="userSpaceOnUse">
  <line x1="0" y1="0" x2="0" y2="10" style="stroke:#444; stroke-width:1"/>
</pattern></defs><circle cx="0" cy="0" r="199.0" stroke="#aaa" stroke-width="2" fill="none"/><path d="M2.4554168322904432e-14 -401.0A401.0 401.0 0 0 1 397.49542835726953 -52.89975836495645" stroke="#aaa" stroke-width="2" fill="none"/><path d="M397.49542835726953 -52.89975836495645A401.0 401.0 0 0 1 202.62724253332672 346.03930496887256" stroke="#aaa" stroke-width="2" fill="none"/><path d="M202.62724253332672 346.03930496887256A401.0 401.0 0 0 1 -240.57987159615914 320.81509531625153" stroke="#aaa" stroke-width="2" fill="none"/><path d="M-240.57987159615914 320.81509531625153A401.0 401.0 0 0 1 -375.4087736485131 140.95833663788545" stroke="#aaa" stroke-width="2" fill="none"/><path d="M-375.4087736485131 140.95833663788545A401.0 401.0 0 0 1 -397.69808584688803 -51.35399218874077" stroke="#aaa" stroke-width="2" fill="none"/><path d="M-397.69808584688803 -51.35399218874077A401.0 401.0 0 0 1 -342.0491128594839 -209.29262861371885" stroke="#aaa" stroke-width="2" fill="none"/><path d="M-342.0491128594839 -209.29262861371885A401.0 401.0 0 0 1 -279.01529731977587 -288.01295780147996" stroke="#aaa" stroke-width="2" fill="none"/><path d="M-279.01529731977587 -288.01295780147996A401.0 401.0 0 0 1 -235.54851942891642 -324.5271868347017" stroke="#aaa" stroke-width="2" fill="none"/><path d="M-235.54851942891642 -324.5271868347017A401.0 401.0 0 0 1 -188.71926904308089 -353.81638951841285" stroke="#aaa" stroke-width="2" fill="none"/><path d="M-188.71926904308089 -353.81638951841285A401.0 401.0 0 0 1 -141.93868037670933 -375.03921263371694" stroke="#aaa" stroke-width="2" fill="none"/><path d="M-141.93868037670933 -375.03921263371694A401.0 401.0 0 0 1 -106.34362101350861 -386.64199755036344" stroke="#aaa" stroke-width="2" fill="none"/><path d="M-106.34362101350861 -386.64199755036344A401.0 401.0 0 0 1 -78.22683371496679 -393.2957697292598" stroke="#aaa" stroke-width="2" fill="none"/><path d="M-78.22683371496679 -393.2957697292598A401.0 401.0 0 0 1 -49.70732202592359 -397.90725318472283" stroke="#aaa" stroke-width="2" fill="none"/><path d="M-49.70732202592359 -397.90725318472283A401.0 401.0 0 0 1 -25.868744340113096 -400.16472616444577" stroke="#aaa" stroke-width="2" fill="none"/><path d="M-25.868744340113096 -400.16472616444577A401.0 401.0 0 0 1 -9.671935469253686 -400.88334171461725" stroke="#aaa" stroke-width="2" fill="none"/><path d="M-9.671935469253686 -400.88334171461725A401.0 401.0 0 0 1 -7.366250496871329e-14 -401.0" stroke="#aaa" stroke-width="2" fill="none"/><g><circle fill="#279ee3" r="129.14316391042834"/><path d="M0.5000000000000009 -199.99937499902342L0.5000000000000369 -249.80088620568444A249.80138660372825 249.80138660372825 0 0 1 247.5517715390813 -33.44926242845716L198.18550463152252 -26.879467144063057A200 200 0 0 0 0.5000000000000009 -199.99937499902342" fill="#b80058"/><path d="M198.3174242284426 -25.888206724219494L341.6227417501152 -44.95966296873305A344.56852580456035 344.56852580456035 0 0 1 174.54343239999352 297.0893117921896L101.49212348360427 172.33499026833994A200 200 0 0 0 198.3174242284426 -25.888206724219494" fill="#008cf9"/><path d="M100.62918257345747 172.8402951125627L173.28784792539403 296.92407448993197A343.7914836791586 343.7914836791586 0 0 1 -205.85739645547935 275.34581270629263L-119.58956710453617 160.3070037139664A200 200 0 0 0 100.62918257345747 172.8402951125627" fill="#006e00"/><path d="M-120.38960474871641 159.70705390948717L-144.47118550814258 191.82002568656853A240.13922148729466 240.13922148729466 0 0 1 -224.6376460420867 84.88093824407304L-187.05995244522077 70.77128083616785A200 200 0 0 0 -120.38960474871641 159.70705390948717" fill="#00bbad"/><path d="M-187.41146949419308 69.83509935574756L-328.21349146510016 122.70338642154901A350.4000813627579 350.4000813627579 0 0 1 -347.57849566515597 -44.37799421080815L-198.41657257800486 -25.117000744462416A200 200 0 0 0 -187.41146949419308 69.83509935574756" fill="#d163e6"/><path d="M-198.28850775957906 -26.10876654457941L-201.50003141388726 -26.523464443630356A203.2381775796321 203.2381775796321 0 0 1 -173.6206341140526 -105.64862628413276L-170.85849153409995 -103.95852957161283A200 200 0 0 0 -198.28850775957906 -26.10876654457941" fill="#b24502"/><path d="M-170.33656477945223 -104.81151987799562L-181.28820624909213 -111.51259801164231A212.83907827351513 212.83907827351513 0 0 1 -148.45187361410115 -152.52053783272086L-139.51843281302402 -143.29901222757158A200 200 0 0 0 -170.33656477945223 -104.81151987799562" fill="#ff9287"/><path d="M-138.8001960105265 -143.99481097400496L-205.00536205994743 -212.3349553273746A295.1496768204368 295.1496768204368 0 0 1 -173.77614269387354 -238.56903394541126L-117.88483855647374 -161.56473884642688A200 200 0 0 0 -138.8001960105265 -143.99481097400496" fill="#5954d6"/><path d="M-117.0755438262126 -162.15214163802023L-232.70282414254305 -321.4577322372859A396.8446521991369 396.8446521991369 0 0 1 -187.2046918646559 -349.9143914201203L-94.5651971412667 -176.23116492162606A200 200 0 0 0 -117.0755438262126 -162.15214163802023" fill="#00c6f8"/><path d="M-93.6828620053105 -176.7017865401874L-163.12495240223078 -306.8938428650812A347.5537093525649 347.5537093525649 0 0 1 -123.48823796168264 -324.8757238850666L-71.25976800460072 -186.87441093935382A200 200 0 0 0 -93.6828620053105 -176.7017865401874" fill="#878500"/><path d="M-70.32450812272106 -187.2283727358045L-94.8482295153308 -252.02647525108034A269.283365378696 269.283365378696 0 0 1 -71.8948623132829 -259.50849628216486L-53.52114398157091 -192.70570086768052A200 200 0 0 0 -70.32450812272106 -187.2283727358045" fill="#00a76c"/><path d="M-52.55694947396394 -192.97089693005833L-87.86439410900701 -321.34099371619055A333.1368877723566 333.1368877723566 0 0 1 -65.47845999146307 -326.6385728474181L-39.50614896760732 -196.05933845075887A200 200 0 0 0 -52.55694947396394 -192.97089693005833" fill="#bdbdbd"/><path d="M-38.525361511923315 -196.25441783658175L-52.74189668166576 -267.72993176112334A272.8754734790125 272.8754734790125 0 0 1 -34.32129648284697 -270.70846428239327L-25.287748041526893 -198.39488350002438A200 200 0 0 0 -38.525361511923315 -196.25441783658175" fill="#ebac23"/><path d="M-24.295460627101086 -198.51884190906662L-34.620967223697264 -281.1745513727456A283.29796983241704 283.29796983241704 0 0 1 -18.774647637494308 -282.67517103073806L-13.401035070110675 -199.5505255794874A200 200 0 0 0 -24.295460627101086 -198.51884190906662" fill="#b80058"/><path d="M-12.40311804725663 -199.61503616387674L-23.348185876699674 -368.9247642757576A369.6628456846268 369.6628456846268 0 0 1 -9.415944112648885 -369.54290613692433L-5.323747430770438 -199.92913172745327A200 200 0 0 0 -12.40311804725663 -199.61503616387674" fill="#008cf9"/><path d="M-4.324038349187784 -199.95325126727687L-7.897314981576211 -348.05877593877307A348.1483578762296 348.1483578762296 0 0 1 -0.5000000000002075 -348.1479988337076L-0.5000000000000698 -199.99937499902342A200 200 0 0 0 -4.324038349187784 -199.95325126727687" fill="#006e00"/></g><g><defs><path d="M65.88172747734797 -75.23029964449466L329.4086373867398 -376.1514982224733" stroke="#aaa" stroke-width="2" fill="none" id="textpath-4606905986925625683"/></defs><text text-anchor="middle" dominant-baseline="middle" class="label"><textPath href="#textpath-4606905986925625683" startOffset="50%"><tspan>Egypt | 18.7%</tspan></textPath></text><defs><path d="M89.85342255767623 43.89034580259854L449.26711278838116 219.4517290129927" stroke="#aaa" stroke-width="2" fill="none" id="textpath--5902535664631404197"/></defs><text text-anchor="middle" dominant-baseline="middle" class="label"><textPath href="#textpath--5902535664631404197" startOffset="50%"><tspan>Turkey | 65.6%</tspan></textPath></text><defs><path d="M-28.41048372873607 499.19219186030864L-5.682096745747215 99.83843837206173" stroke="#aaa" stroke-width="2" fill="none" id="textpath--7814998151011033917"/></defs><text text-anchor="middle" dominant-baseline="middle" class="label"><textPath href="#textpath--7814998151011033917" startOffset="50%"><tspan>Iran | 65.2%</tspan></textPath></text><defs><path d="M-400.06796678599073 299.909356225716L-80.01359335719815 59.9818712451432" stroke="#aaa" stroke-width="2" fill="none" id="textpath--5598345666876542796"/></defs><text text-anchor="middle" dominant-baseline="middle" class="label"><textPath href="#textpath--5598345666876542796" startOffset="50%"><tspan>Iraq | 14.7%</tspan></textPath></text><defs><path d="M-496.6751632145785 57.56546052774888L-99.3350326429157 11.513092105549777" stroke="#aaa" stroke-width="2" fill="none" id="textpath-4452735956806114313"/></defs><text text-anchor="middle" dominant-baseline="middle" class="label"><textPath href="#textpath-4452735956806114313" startOffset="50%"><tspan>Saudi Arabia | 69.0%</tspan></textPath></text><defs><path d="M-471.5832586399987 -166.1602544848801L-94.31665172799974 -33.23205089697602" stroke="#aaa" stroke-width="2" fill="none" id="textpath-4229079220485662343"/></defs><text text-anchor="middle" dominant-baseline="middle" class="label"><textPath href="#textpath-4229079220485662343" startOffset="50%"><tspan>Yemen | 1.1%</tspan></textPath></text><defs><path d="M-390.2951739557034 -312.5214827606051L-78.05903479114068 -62.50429655212103" stroke="#aaa" stroke-width="2" fill="none" id="textpath--2668904979957733469"/></defs><text text-anchor="middle" dominant-baseline="middle" class="label"><textPath href="#textpath--2668904979957733469" startOffset="50%"><tspan>Syria | 4.4%</tspan></textPath></text><defs><path d="M-321.60707134275333 -382.8431684937543L-64.32141426855067 -76.56863369875086" stroke="#aaa" stroke-width="2" fill="none" id="textpath--1151484204691908500"/></defs><text text-anchor="middle" dominant-baseline="middle" class="label"><textPath href="#textpath--1151484204691908500" startOffset="50%"><tspan>Jordan | 39.3%</tspan></textPath></text><defs><path d="M-265.13564374522286 -423.9140129976907L-53.02712874904457 -84.78280259953814" stroke="#aaa" stroke-width="2" fill="none" id="textpath--7437234772904510264"/></defs><text text-anchor="middle" dominant-baseline="middle" class="label"><textPath href="#textpath--7437234772904510264" startOffset="50%"><tspan>United Arab Emirates | 97.9%</tspan></textPath></text><defs><path d="M-206.57003005092253 -455.33374867756174L-41.31400601018451 -91.06674973551236" stroke="#aaa" stroke-width="2" fill="none" id="textpath--1100559837592267317"/></defs><text text-anchor="middle" dominant-baseline="middle" class="label"><textPath href="#textpath--1100559837592267317" startOffset="50%"><tspan>Israel | 67.3%</tspan></textPath></text><defs><path d="M-154.95839496358326 -475.38184213357385L-30.991678992716654 -95.07636842671478" stroke="#aaa" stroke-width="2" fill="none" id="textpath-5952224281934614812"/></defs><text text-anchor="middle" dominant-baseline="middle" class="label"><textPath href="#textpath-5952224281934614812" startOffset="50%"><tspan>Lebanon | 27.1%</tspan></textPath></text><defs><path d="M-115.14360982655299 -486.56135185206654L-23.0287219653106 -97.31227037041332" stroke="#aaa" stroke-width="2" fill="none" id="textpath--5452134205955332029"/></defs><text text-anchor="middle" dominant-baseline="middle" class="label"><textPath href="#textpath--5452134205955332029" startOffset="50%"><tspan>Oman | 59.2%</tspan></textPath></text><defs><path d="M-79.81124748564004 -493.58906468314905L-15.962249497128008 -98.71781293662981" stroke="#aaa" stroke-width="2" fill="none" id="textpath--6034501715570562985"/></defs><text text-anchor="middle" dominant-baseline="middle" class="label"><textPath href="#textpath--6034501715570562985" startOffset="50%"><tspan>Palestine | 28.7%</tspan></textPath></text><defs><path d="M-47.138263369676174 -497.77302470753784L-9.427652673935235 -99.55460494150756" stroke="#aaa" stroke-width="2" fill="none" id="textpath-3889537145471914070"/></defs><text text-anchor="middle" dominant-baseline="middle" class="label"><textPath href="#textpath-3889537145471914070" startOffset="50%"><tspan>Kuwait | 33.5%</tspan></textPath></text><defs><path d="M-22.16205991170258 -499.5086016281102L-4.432411982340517 -99.90172032562205" stroke="#aaa" stroke-width="2" fill="none" id="textpath--3601769985183703520"/></defs><text text-anchor="middle" dominant-baseline="middle" class="small-label-8"><textPath href="#textpath--3601769985183703520" startOffset="50%"><tspan>Qatar | 80.5%</tspan></textPath></text><defs><path d="M-6.0303235548902805 -499.96363387532836L-1.206064710978056 -99.99272677506566" stroke="#aaa" stroke-width="2" fill="none" id="textpath-1230983038567819687"/></defs><text text-anchor="middle" dominant-baseline="middle" class="small-label-4"><textPath href="#textpath-1230983038567819687" startOffset="50%"><tspan>Bahrain | 67.7%</tspan></textPath></text></g><text y="654" class="legend">
            <tspan x="-654">* Showing percentage of population vaccinated, having received at least one shot of a countries chosen vaccine(s).</tspan>
            <tspan x="-654" dy="1.2em">Countries where no data was available are not counted towards a region's percentage.</tspan>
            </text><text y="-654" class="title" text-anchor="middle">
            <tspan x="0">Partial Covid Vaccinations* by Country</tspan>
            </text><text xmlns:xlink="http://www.w3.org/1999/xlink" y="654" class="sources" text-anchor="end">
    <tspan x="654">Data source:
        <a xlink:href="https://github.com/owid/covid-19-data/tree/master/public/data/vaccinations">
            <tspan>https://github.com/owid/covid-19-data/tree/master/public/data/vaccinations</tspan>
        </a>
    </tspan>
    <tspan x="654" dy="1.2em">Code source:
        <a xlink:href="https://github.com/WorldSEnder/vis_covid_vacc">
            <tspan>https://github.com/WorldSEnder/vis_covid_vacc</tspan>
        </a>
    </tspan>
    <tspan x="654" dy="1.2em">Timestamp: Sat Nov 13 22:00:15 2021 +0000</tspan>
</text><text text-anchor="middle" dominant-baseline="middle" class="label_all" x="0" y="0">
    <tspan>Middle East | 42.5%</tspan>
</text></svg>