<svg xmlns="http://www.w3.org/2000/svg" viewBox="-664 -684 1328 1388"><style>
text {
    font-family: "Open Sans";
}
.legend, .sources {
    font-size: 10pt;
}
.title {
    font-size: 20pt;
    font-weight: bold;
}
.label_all {
    font-size: 18pt;
}
.label {
}
.small-label-9 {
   font-size: 9pt;
}
.small-label-8 {
   font-size: 8pt;
}
.small-label-7 {
   font-size: 7pt;
}
.small-label-6 {
   font-size: 6pt;
}
.small-label-5 {
   font-size: 5pt;
}
.small-label-4 {
   font-size: 4pt;
}
a {
    text-decoration: underline;
}
</style><style type="text/css">
@font-face{
  font-family:'Open Sans';src:local('Open Sans')
             , local('OpenSans')
             , url(https://fonts.gstatic.com/s/opensans/v18/mem5YaGs126MiZpBA-UN_r8OUuhp.woff2) format('woff2');
  }
</style><defs><pattern id="diagonalHatch" width="10" height="10" patternTransform="rotate(45 0 0)" patternUnits="userSpaceOnUse">
  <line x1="0" y1="0" x2="0" y2="10" style="stroke:#444; stroke-width:1"/>
</pattern></defs><circle cx="0" cy="0" r="199.0" stroke="#aaa" stroke-width="2" fill="none"/><path d="M2.4554168322904432e-14 -401.0A401.0 401.0 0 0 1 397.578776014542 -52.26965527702138" stroke="#aaa" stroke-width="2" fill="none"/><path d="M397.578776014542 -52.26965527702138A401.0 401.0 0 0 1 201.63053724567092 346.621012706994" stroke="#aaa" stroke-width="2" fill="none"/><path d="M201.63053724567092 346.621012706994A401.0 401.0 0 0 1 -241.91575941955855 319.808951320094" stroke="#aaa" stroke-width="2" fill="none"/><path d="M-241.91575941955855 319.808951320094A401.0 401.0 0 0 1 -376.0805756751053 139.15602969286454" stroke="#aaa" stroke-width="2" fill="none"/><path d="M-376.0805756751053 139.15602969286454A401.0 401.0 0 0 1 -397.41851305725544 -53.47453112800634" stroke="#aaa" stroke-width="2" fill="none"/><path d="M-397.41851305725544 -53.47453112800634A401.0 401.0 0 0 1 -340.830010707514 -211.2721084315577" stroke="#aaa" stroke-width="2" fill="none"/><path d="M-340.830010707514 -211.2721084315577A401.0 401.0 0 0 1 -277.2604001255045 -289.7027278474353" stroke="#aaa" stroke-width="2" fill="none"/><path d="M-277.2604001255045 -289.7027278474353A401.0 401.0 0 0 1 -233.5217018895159 -325.98867272748004" stroke="#aaa" stroke-width="2" fill="none"/><path d="M-233.5217018895159 -325.98867272748004A401.0 401.0 0 0 1 -186.45692755337768 -355.013822501821" stroke="#aaa" stroke-width="2" fill="none"/><path d="M-186.45692755337768 -355.013822501821A401.0 401.0 0 0 1 -142.08818122668453 -374.9825979371481" stroke="#aaa" stroke-width="2" fill="none"/><path d="M-142.08818122668453 -374.9825979371481A401.0 401.0 0 0 1 -106.45796472686618 -386.61052979221006" stroke="#aaa" stroke-width="2" fill="none"/><path d="M-106.45796472686618 -386.61052979221006A401.0 401.0 0 0 1 -78.31191652643031 -393.27883712444714" stroke="#aaa" stroke-width="2" fill="none"/><path d="M-78.31191652643031 -393.27883712444714A401.0 401.0 0 0 1 -49.76180983389154 -397.9004426763755" stroke="#aaa" stroke-width="2" fill="none"/><path d="M-49.76180983389154 -397.9004426763755A401.0 401.0 0 0 1 -25.897208419852728 -400.1628850806365" stroke="#aaa" stroke-width="2" fill="none"/><path d="M-25.897208419852728 -400.1628850806365A401.0 401.0 0 0 1 -9.682590523961899 -400.883084503132" stroke="#aaa" stroke-width="2" fill="none"/><path d="M-9.682590523961899 -400.883084503132A401.0 401.0 0 0 1 -7.366250496871329e-14 -401.0" stroke="#aaa" stroke-width="2" fill="none"/><g><circle fill="#279ee3" r="94.2558091527044"/><path d="M0.5000000000000009 -199.99937499902342L0.5000000000000003 -211.8645412412006A211.86513124000464 211.86513124000464 0 0 1 209.99179591002613 -28.1119100351848L198.22786007019107 -26.565306171635793A200 200 0 0 0 0.5000000000000009 -199.99937499902342" fill="#bdbdbd"/><path d="M198.3582083377148 -25.573837902272846L311.85968250681793 -40.495869172965655A314.4779435720846 314.4779435720846 0 0 1 158.55757375489307 271.5803247628386L100.99574048928928 172.6263606840512A200 200 0 0 0 198.3582083377148 -25.573837902272846" fill="#ebac23"/><path d="M100.13134893640402 173.12917997892816L120.36017369509533 207.904347567688A240.23069984799932 240.23069984799932 0 0 1 -144.52758562850883 191.89206899153908L-120.2570977822089 159.80685352324616A200 200 0 0 0 100.13134893640402 173.12917997892816" fill="#b80058"/><path d="M-121.05462633911692 159.20357232768612L-131.45591354017066 172.95391567087879A217.24114285873722 217.24114285873722 0 0 1 -203.56703156033367 75.85629711688007L-187.39726201857246 69.87321509664842A200 200 0 0 0 -121.05462633911692 159.20357232768612" fill="#008cf9"/><path d="M-187.7442845365098 68.93535829945358L-296.14787309430096 109.04647800054917A315.58627521266266 315.58627521266266 0 0 1 -312.8339353839788 -41.58877222009567L-198.27977927694843 -26.174971439996135A200 200 0 0 0 -187.7442845365098 68.93535829945358" fill="#006e00"/><path d="M-198.14642633149205 -27.16604005111155L-198.29175427932302 -27.18559461038525A200.1466371675818 200.1466371675818 0 0 1 -170.37756528701922 -105.02457624936717L-170.25293061503504 -104.94731829347552A200 200 0 0 0 -198.14642633149205 -27.16604005111155" fill="#00bbad"/><path d="M-169.72606750173935 -105.79726844486589L-172.51289894051664 -107.52475644597116A203.27880742867987 203.27880742867987 0 0 1 -140.9123300640657 -146.51275980453755L-138.64528204739096 -144.14397582278426A200 200 0 0 0 -169.72606750173935 -105.79726844486589" fill="#d163e6"/><path d="M-137.92283135450452 -144.83539826698754L-191.33511088863827 -200.64460533220117A277.2496750362068 277.2496750362068 0 0 1 -161.86210726712721 -225.09562532116715L-116.87578245130972 -162.29618441723798A200 200 0 0 0 -137.92283135450452 -144.83539826698754" fill="#b24502"/><path d="M-116.06284311782468 -162.8785328010024L-214.1528417913768 -299.80896888766694A368.4384039060105 368.4384039060105 0 0 1 -171.7589437332027 -325.95355914679476L-93.4383438557722 -176.83120736309664A200 200 0 0 0 -116.06284311782468 -162.8785328010024" fill="#ff9287"/><path d="M-92.55302260265039 -177.29618723230706L-157.9729698579389 -301.8557080166384A340.693891445038 340.693891445038 0 0 1 -121.18706872194348 -318.4117178160161L-71.33426119464706 -186.845987861163A200 200 0 0 0 -92.55302260265039 -177.29618723230706" fill="#5954d6"/><path d="M-70.39914249654936 -187.20032247768842L-87.30010709999732 -231.80338207019486A247.69763147606346 247.69763147606346 0 0 1 -66.24099066258998 -238.67603104394544L-53.578133850218045 -192.68986370104713A200 200 0 0 0 -70.39914249654936 -187.20032247768842" fill="#00c6f8"/><path d="M-52.614017815823445 -192.95534490984232L-73.36489466701143 -268.3137975505032A278.1630847640896 278.1630847640896 0 0 1 -54.81318828370446 -272.7090319656635L-39.54856303946133 -196.05078719942378A200 200 0 0 0 -52.614017815823445 -192.95534490984232" fill="#878500"/><path d="M-38.56781780972449 -196.24607876183387L-44.20130675366033 -224.53720071486052A228.84647697440468 228.84647697440468 0 0 1 -28.894608251570997 -227.01500311121504L-25.31491542876999 -198.3914188084611A200 200 0 0 0 -38.56781780972449 -196.24607876183387" fill="#00a76c"/><path d="M-24.322644998155525 -198.51551309732372L-31.2866600936245 -254.20047910924652A256.1186027589259 256.1186027589259 0 0 1 -17.039465434194465 -255.55115984260638L-13.415229278629237 -199.5495718446968A200 200 0 0 0 -24.322644998155525 -198.51551309732372" fill="#bdbdbd"/><path d="M-12.417316847006637 -199.6141534118286L-22.860925494006796 -360.9884799061466A361.71163174467165 361.71163174467165 0 0 1 -9.233775097472156 -361.5937526241877L-5.329061335200564 -199.92899015721974A200 200 0 0 0 -12.417316847006637 -199.6141534118286" fill="#ebac23"/><path d="M-4.329352895043061 -199.95313626825205L-7.7145298004381715 -340.1077938534451A340.19527540796236 340.19527540796236 0 0 1 -0.4999999999999849 -340.1949079717381L-0.5000000000000698 -199.99937499902342A200 200 0 0 0 -4.329352895043061 -199.95313626825205" fill="#b80058"/></g><g><defs><path d="M65.94132742356102 -75.17806420505066L329.7066371178051 -375.89032102525334" stroke="#aaa" stroke-width="2" fill="none" id="textpath-4606905986925625683"/></defs><text text-anchor="middle" dominant-baseline="middle" class="label"><textPath href="#textpath-4606905986925625683" startOffset="50%"><tspan>Egypt | 4.1%</tspan></textPath></text><defs><path d="M89.75525938558519 44.09074066769939L448.77629692792596 220.45370333849695" stroke="#aaa" stroke-width="2" fill="none" id="textpath--5902535664631404197"/></defs><text text-anchor="middle" dominant-baseline="middle" class="label"><textPath href="#textpath--5902535664631404197" startOffset="50%"><tspan>Turkey | 49.1%</tspan></textPath></text><defs><path d="M-30.16957668735228 499.0889666607608L-6.0339153374704555 99.81779333215215" stroke="#aaa" stroke-width="2" fill="none" id="textpath--7814998151011033917"/></defs><text text-anchor="middle" dominant-baseline="middle" class="label"><textPath href="#textpath--7814998151011033917" startOffset="50%"><tspan>Iran | 14.8%</tspan></textPath></text><defs><path d="M-401.4086138105746 298.1126041593562L-80.28172276211491 59.62252083187124" stroke="#aaa" stroke-width="2" fill="none" id="textpath--5598345666876542796"/></defs><text text-anchor="middle" dominant-baseline="middle" class="label"><textPath href="#textpath--5598345666876542796" startOffset="50%"><tspan>Iraq | 6.0%</tspan></textPath></text><defs><path d="M-496.96037421603677 55.04894603038916L-99.39207484320735 11.009789206077832" stroke="#aaa" stroke-width="2" fill="none" id="textpath-4452735956806114313"/></defs><text text-anchor="middle" dominant-baseline="middle" class="label"><textPath href="#textpath-4452735956806114313" startOffset="50%"><tspan>Saudi Arabia | 49.7%</tspan></textPath></text><defs><path d="M-470.65116700766083 -168.7823420690889L-94.13023340153217 -33.75646841381778" stroke="#aaa" stroke-width="2" fill="none" id="textpath-4229079220485662343"/></defs><text text-anchor="middle" dominant-baseline="middle" class="label"><textPath href="#textpath-4229079220485662343" startOffset="50%"><tspan>Yemen | 0.0%</tspan></textPath></text><defs><path d="M-388.4330685376335 -314.8328941937899L-77.6866137075267 -62.96657883875798" stroke="#aaa" stroke-width="2" fill="none" id="textpath--2668904979957733469"/></defs><text text-anchor="middle" dominant-baseline="middle" class="label"><textPath href="#textpath--2668904979957733469" startOffset="50%"><tspan>Syria | 1.1%</tspan></textPath></text><defs><path d="M-319.24523452382283 -384.81486488158095L-63.84904690476456 -76.9629729763162" stroke="#aaa" stroke-width="2" fill="none" id="textpath--1151484204691908500"/></defs><text text-anchor="middle" dominant-baseline="middle" class="label"><textPath href="#textpath--1151484204691908500" startOffset="50%"><tspan>Jordan | 30.7%</tspan></textPath></text><defs><path d="M-262.45661686380936 -425.57787097592796L-52.49132337276187 -85.1155741951856" stroke="#aaa" stroke-width="2" fill="none" id="textpath--7437234772904510264"/></defs><text text-anchor="middle" dominant-baseline="middle" class="label"><textPath href="#textpath--7437234772904510264" startOffset="50%"><tspan>United Arab Emirates | 79.8%</tspan></textPath></text><defs><path d="M-205.20660504456694 -455.94983193996586L-41.04132100891339 -91.18996638799317" stroke="#aaa" stroke-width="2" fill="none" id="textpath--1100559837592267317"/></defs><text text-anchor="middle" dominant-baseline="middle" class="label"><textPath href="#textpath--1100559837592267317" startOffset="50%"><tspan>Israel | 63.4%</tspan></textPath></text><defs><path d="M-155.12343932134786 -475.32801155950835L-31.024687864269573 -95.06560231190167" stroke="#aaa" stroke-width="2" fill="none" id="textpath-5952224281934614812"/></defs><text text-anchor="middle" dominant-baseline="middle" class="label"><textPath href="#textpath-5952224281934614812" startOffset="50%"><tspan>Lebanon | 17.8%</tspan></textPath></text><defs><path d="M-115.26818642351925 -486.5318542486533L-23.05363728470385 -97.30637084973065" stroke="#aaa" stroke-width="2" fill="none" id="textpath--5452134205955332029"/></defs><text text-anchor="middle" dominant-baseline="middle" class="label"><textPath href="#textpath--5452134205955332029" startOffset="50%"><tspan>Oman | 31.1%</tspan></textPath></text><defs><path d="M-79.89843249729903 -493.5749593369527L-15.979686499459806 -98.71499186739055" stroke="#aaa" stroke-width="2" fill="none" id="textpath--6034501715570562985"/></defs><text text-anchor="middle" dominant-baseline="middle" class="label"><textPath href="#textpath--6034501715570562985" startOffset="50%"><tspan>Palestine | 10.3%</tspan></textPath></text><defs><path d="M-47.19004848123842 -497.76811802719783L-9.438009696247684 -99.55362360543957" stroke="#aaa" stroke-width="2" fill="none" id="textpath-3889537145471914070"/></defs><text text-anchor="middle" dominant-baseline="middle" class="label"><textPath href="#textpath-3889537145471914070" startOffset="50%"><tspan>Kuwait | 21.3%</tspan></textPath></text><defs><path d="M-22.186463382902602 -499.50751830433853L-4.437292676580521 -99.9015036608677" stroke="#aaa" stroke-width="2" fill="none" id="textpath--3601769985183703520"/></defs><text text-anchor="middle" dominant-baseline="middle" class="small-label-8"><textPath href="#textpath--3601769985183703520" startOffset="50%"><tspan>Qatar | 75.7%</tspan></textPath></text><defs><path d="M-6.036967808465414 -499.96355369134614L-1.2073935616930829 -99.99271073826922" stroke="#aaa" stroke-width="2" fill="none" id="textpath-1230983038567819687"/></defs><text text-anchor="middle" dominant-baseline="middle" class="small-label-4"><textPath href="#textpath-1230983038567819687" startOffset="50%"><tspan>Bahrain | 63.1%</tspan></textPath></text></g><text y="654" class="legend">
            <tspan x="-654">* Showing percentage of population fully vaccinated, having received all shots according to each countries chosen vaccine(s).</tspan>
            <tspan x="-654" dy="1.2em">Countries where no data was available are not counted towards a region's percentage.</tspan>
            </text><text y="-654" class="title" text-anchor="middle">
                <tspan x="0">Covid Vaccinations* by Country</tspan>
            </text><text xmlns:xlink="http://www.w3.org/1999/xlink" y="654" class="sources" text-anchor="end">
    <tspan x="654">Data source:
        <a xlink:href="https://github.com/owid/covid-19-data/tree/master/public/data/vaccinations">
            <tspan>https://github.com/owid/covid-19-data/tree/master/public/data/vaccinations</tspan>
        </a>
    </tspan>
    <tspan x="654" dy="1.2em">Code source:
        <a xlink:href="https://github.com/WorldSEnder/vis_covid_vacc">
            <tspan>https://github.com/WorldSEnder/vis_covid_vacc</tspan>
        </a>
    </tspan>
    <tspan x="654" dy="1.2em">Timestamp: Sun Sep 19 02:00:22 2021 +0000</tspan>
</text><text text-anchor="middle" dominant-baseline="middle" class="label_all" x="0" y="0">
    <tspan>Middle East | 22.7%</tspan>
</text></svg>