<svg xmlns="http://www.w3.org/2000/svg" viewBox="-664 -684 1328 1388"><style>
text {
    font-family: "Open Sans";
}
.legend, .sources {
    font-size: 10pt;
}
.title {
    font-size: 20pt;
    font-weight: bold;
}
.label_all {
    font-size: 18pt;
}
.label {
}
.small-label-9 {
   font-size: 9pt;
}
.small-label-8 {
   font-size: 8pt;
}
.small-label-7 {
   font-size: 7pt;
}
.small-label-6 {
   font-size: 6pt;
}
.small-label-5 {
   font-size: 5pt;
}
.small-label-4 {
   font-size: 4pt;
}
a {
    text-decoration: underline;
}
</style><style type="text/css">
@font-face{
  font-family:'Open Sans';src:local('Open Sans')
             , local('OpenSans')
             , url(https://fonts.gstatic.com/s/opensans/v18/mem5YaGs126MiZpBA-UN_r8OUuhp.woff2) format('woff2');
  }
</style><defs><pattern id="diagonalHatch" width="10" height="10" patternTransform="rotate(45 0 0)" patternUnits="userSpaceOnUse">
  <line x1="0" y1="0" x2="0" y2="10" style="stroke:#444; stroke-width:1"/>
</pattern></defs><circle cx="0" cy="0" r="199.0" stroke="#aaa" stroke-width="2" fill="none"/><path d="M2.4554168322904432e-14 -401.0A401.0 401.0 0 0 1 397.49542835726953 -52.89975836495645" stroke="#aaa" stroke-width="2" fill="none"/><path d="M397.49542835726953 -52.89975836495645A401.0 401.0 0 0 1 202.62724253332672 346.03930496887256" stroke="#aaa" stroke-width="2" fill="none"/><path d="M202.62724253332672 346.03930496887256A401.0 401.0 0 0 1 -240.57987159615914 320.81509531625153" stroke="#aaa" stroke-width="2" fill="none"/><path d="M-240.57987159615914 320.81509531625153A401.0 401.0 0 0 1 -375.4087736485131 140.95833663788545" stroke="#aaa" stroke-width="2" fill="none"/><path d="M-375.4087736485131 140.95833663788545A401.0 401.0 0 0 1 -397.69808584688803 -51.35399218874077" stroke="#aaa" stroke-width="2" fill="none"/><path d="M-397.69808584688803 -51.35399218874077A401.0 401.0 0 0 1 -342.0491128594839 -209.29262861371885" stroke="#aaa" stroke-width="2" fill="none"/><path d="M-342.0491128594839 -209.29262861371885A401.0 401.0 0 0 1 -279.01529731977587 -288.01295780147996" stroke="#aaa" stroke-width="2" fill="none"/><path d="M-279.01529731977587 -288.01295780147996A401.0 401.0 0 0 1 -235.54851942891642 -324.5271868347017" stroke="#aaa" stroke-width="2" fill="none"/><path d="M-235.54851942891642 -324.5271868347017A401.0 401.0 0 0 1 -188.71926904308089 -353.81638951841285" stroke="#aaa" stroke-width="2" fill="none"/><path d="M-188.71926904308089 -353.81638951841285A401.0 401.0 0 0 1 -141.93868037670933 -375.03921263371694" stroke="#aaa" stroke-width="2" fill="none"/><path d="M-141.93868037670933 -375.03921263371694A401.0 401.0 0 0 1 -106.34362101350861 -386.64199755036344" stroke="#aaa" stroke-width="2" fill="none"/><path d="M-106.34362101350861 -386.64199755036344A401.0 401.0 0 0 1 -78.22683371496679 -393.2957697292598" stroke="#aaa" stroke-width="2" fill="none"/><path d="M-78.22683371496679 -393.2957697292598A401.0 401.0 0 0 1 -49.70732202592359 -397.90725318472283" stroke="#aaa" stroke-width="2" fill="none"/><path d="M-49.70732202592359 -397.90725318472283A401.0 401.0 0 0 1 -25.868744340113096 -400.16472616444577" stroke="#aaa" stroke-width="2" fill="none"/><path d="M-25.868744340113096 -400.16472616444577A401.0 401.0 0 0 1 -9.671935469253686 -400.88334171461725" stroke="#aaa" stroke-width="2" fill="none"/><path d="M-9.671935469253686 -400.88334171461725A401.0 401.0 0 0 1 -7.366250496871329e-14 -401.0" stroke="#aaa" stroke-width="2" fill="none"/><g><circle fill="#279ee3" r="115.8443056252087"/><path d="M0.5000000000000009 -199.99937499902342L0.5000000000000282 -231.50449556511796A231.50503551080638 231.50503551080638 0 0 1 229.41528367109152 -31.035609950061108L198.18550463152252 -26.879467144063057A200 200 0 0 0 0.5000000000000009 -199.99937499902342" fill="#bdbdbd"/><path d="M198.3174242284426 -25.888206724219494L328.715305258959 -43.24190668078027A331.547303419708 331.547303419708 0 0 1 167.96373845185005 285.8527540013537L101.49212348360427 172.33499026833994A200 200 0 0 0 198.3174242284426 -25.888206724219494" fill="#ebac23"/><path d="M100.62918257345747 172.8402951125627L156.72068840581042 268.63129266163355A311.00505714771157 311.00505714771157 0 0 1 -186.1871632721059 249.11540659729883L-119.58956710453617 160.3070037139664A200 200 0 0 0 100.62918257345747 172.8402951125627" fill="#b80058"/><path d="M-120.38960474871641 159.70705390948717L-135.093458709075 179.3147554121594A224.5084053983349 224.5084053983349 0 0 1 -210.00433156780565 79.38642716020311L-187.05995244522077 70.77128083616785A200 200 0 0 0 -120.38960474871641 159.70705390948717" fill="#008cf9"/><path d="M-187.41146949419308 69.83509935574756L-317.0191596746224 118.50014318452293A338.4426561997707 338.4426561997707 0 0 1 -335.71951783109967 -42.846667114375855L-198.41657257800486 -25.117000744462416A200 200 0 0 0 -187.41146949419308 69.83509935574756" fill="#006e00"/><path d="M-198.28850775957906 -26.10876654457941L-200.3778467309152 -26.37855888462837A202.10667932888302 202.10667932888302 0 0 1 -172.65547413733884 -105.05806527705842L-170.85849153409995 -103.95852957161283A200 200 0 0 0 -198.28850775957906 -26.10876654457941" fill="#00bbad"/><path d="M-170.33656477945223 -104.81151987799562L-177.24523846145118 -109.03879140357321A208.09933346363377 208.09933346363377 0 0 1 -145.15395580957136 -149.11626906827323L-139.51843281302402 -143.29901222757158A200 200 0 0 0 -170.33656477945223 -104.81151987799562" fill="#d163e6"/><path d="M-138.8001960105265 -143.99481097400496L-198.97394513609967 -206.10903780723095A286.48135420799406 286.48135420799406 0 0 1 -168.68433826552132 -231.55379576411468L-117.88483855647374 -161.56473884642688A200 200 0 0 0 -138.8001960105265 -143.99481097400496" fill="#b24502"/><path d="M-117.0755438262126 -162.15214163802023L-223.9215264172906 -309.3592913112157A381.89530124580875 381.89530124580875 0 0 1 -180.16919831972905 -336.7240429349427L-94.5651971412667 -176.23116492162606A200 200 0 0 0 -117.0755438262126 -162.15214163802023" fill="#ff9287"/><path d="M-93.6828620053105 -176.7017865401874L-158.66152174551388 -298.5256728958298A338.0696020947612 338.0696020947612 0 0 1 -120.1312227476044 -316.00560941488936L-71.25976800460072 -186.87441093935382A200 200 0 0 0 -93.6828620053105 -176.7017865401874" fill="#5954d6"/><path d="M-70.32450812272106 -187.2283727358045L-92.12620917200219 -244.83418373741014A261.59322610260267 261.59322610260267 0 0 1 -69.8554640392271 -252.09369307190462L-53.52114398157091 -192.70570086768052A200 200 0 0 0 -70.32450812272106 -187.2283727358045" fill="#00c6f8"/><path d="M-52.55694947396394 -192.97089693005833L-84.54093973740248 -309.25764518284075A320.60483713711955 320.60483713711955 0 0 1 -63.03371238921834 -314.3472804052108L-39.50614896760732 -196.05933845075887A200 200 0 0 0 -52.55694947396394 -192.97089693005833" fill="#878500"/><path d="M-38.525361511923315 -196.25441783658175L-51.01144784121183 -259.02987097171143A264.0050034875819 264.0050034875819 0 0 1 -33.221725227346035 -261.9063932770578L-25.287748041526893 -198.39488350002438A200 200 0 0 0 -38.525361511923315 -196.25441783658175" fill="#00a76c"/><path d="M-24.295460627101086 -198.51884190906662L-31.25185031829971 -254.2047610310772A256.1186027589259 256.1186027589259 0 0 1 -17.02128776362645 -255.5523712315194L-13.401035070110675 -199.5505255794874A200 200 0 0 0 -24.295460627101086 -198.51884190906662" fill="#bdbdbd"/><path d="M-12.40311804725663 -199.61503616387674L-22.83524793930844 -360.99010511500626A361.71163174467165 361.71163174467165 0 0 1 -9.224164312093285 -361.5939979205082L-5.323747430770438 -199.92913172745327A200 200 0 0 0 -12.40311804725663 -199.61503616387674" fill="#ebac23"/><path d="M-4.324038349187784 -199.95325126727687L-7.812663642641156 -344.5501388370452A344.6387034066548 344.6387034066548 0 0 1 -0.5000000000001096 -344.6383407077921L-0.5000000000000698 -199.99937499902342A200 200 0 0 0 -4.324038349187784 -199.95325126727687" fill="#b80058"/></g><g><defs><path d="M65.88172747734797 -75.23029964449466L329.4086373867398 -376.1514982224733" stroke="#aaa" stroke-width="2" fill="none" id="textpath-4606905986925625683"/></defs><text text-anchor="middle" dominant-baseline="middle" class="label"><textPath href="#textpath-4606905986925625683" startOffset="50%"><tspan>Egypt | 11.3%</tspan></textPath></text><defs><path d="M89.85342255767623 43.89034580259854L449.26711278838116 219.4517290129927" stroke="#aaa" stroke-width="2" fill="none" id="textpath--5902535664631404197"/></defs><text text-anchor="middle" dominant-baseline="middle" class="label"><textPath href="#textpath--5902535664631404197" startOffset="50%"><tspan>Turkey | 58.3%</tspan></textPath></text><defs><path d="M-28.41048372873607 499.19219186030864L-5.682096745747215 99.83843837206173" stroke="#aaa" stroke-width="2" fill="none" id="textpath--7814998151011033917"/></defs><text text-anchor="middle" dominant-baseline="middle" class="label"><textPath href="#textpath--7814998151011033917" startOffset="50%"><tspan>Iran | 47.3%</tspan></textPath></text><defs><path d="M-400.06796678599073 299.909356225716L-80.01359335719815 59.9818712451432" stroke="#aaa" stroke-width="2" fill="none" id="textpath--5598345666876542796"/></defs><text text-anchor="middle" dominant-baseline="middle" class="label"><textPath href="#textpath--5598345666876542796" startOffset="50%"><tspan>Iraq | 8.7%</tspan></textPath></text><defs><path d="M-496.6751632145785 57.56546052774888L-99.3350326429157 11.513092105549777" stroke="#aaa" stroke-width="2" fill="none" id="textpath-4452735956806114313"/></defs><text text-anchor="middle" dominant-baseline="middle" class="label"><textPath href="#textpath-4452735956806114313" startOffset="50%"><tspan>Saudi Arabia | 62.1%</tspan></textPath></text><defs><path d="M-471.5832586399987 -166.1602544848801L-94.31665172799974 -33.23205089697602" stroke="#aaa" stroke-width="2" fill="none" id="textpath-4229079220485662343"/></defs><text text-anchor="middle" dominant-baseline="middle" class="label"><textPath href="#textpath-4229079220485662343" startOffset="50%"><tspan>Yemen | 0.7%</tspan></textPath></text><defs><path d="M-390.2951739557034 -312.5214827606051L-78.05903479114068 -62.50429655212103" stroke="#aaa" stroke-width="2" fill="none" id="textpath--2668904979957733469"/></defs><text text-anchor="middle" dominant-baseline="middle" class="label"><textPath href="#textpath--2668904979957733469" startOffset="50%"><tspan>Syria | 2.8%</tspan></textPath></text><defs><path d="M-321.60707134275333 -382.8431684937543L-64.32141426855067 -76.56863369875086" stroke="#aaa" stroke-width="2" fill="none" id="textpath--1151484204691908500"/></defs><text text-anchor="middle" dominant-baseline="middle" class="label"><textPath href="#textpath--1151484204691908500" startOffset="50%"><tspan>Jordan | 35.1%</tspan></textPath></text><defs><path d="M-265.13564374522286 -423.9140129976907L-53.02712874904457 -84.78280259953814" stroke="#aaa" stroke-width="2" fill="none" id="textpath--7437234772904510264"/></defs><text text-anchor="middle" dominant-baseline="middle" class="label"><textPath href="#textpath--7437234772904510264" startOffset="50%"><tspan>United Arab Emirates | 88.2%</tspan></textPath></text><defs><path d="M-206.57003005092253 -455.33374867756174L-41.31400601018451 -91.06674973551236" stroke="#aaa" stroke-width="2" fill="none" id="textpath--1100559837592267317"/></defs><text text-anchor="middle" dominant-baseline="middle" class="label"><textPath href="#textpath--1100559837592267317" startOffset="50%"><tspan>Israel | 61.9%</tspan></textPath></text><defs><path d="M-154.95839496358326 -475.38184213357385L-30.991678992716654 -95.07636842671478" stroke="#aaa" stroke-width="2" fill="none" id="textpath-5952224281934614812"/></defs><text text-anchor="middle" dominant-baseline="middle" class="label"><textPath href="#textpath-5952224281934614812" startOffset="50%"><tspan>Lebanon | 23.7%</tspan></textPath></text><defs><path d="M-115.14360982655299 -486.56135185206654L-23.0287219653106 -97.31227037041332" stroke="#aaa" stroke-width="2" fill="none" id="textpath--5452134205955332029"/></defs><text text-anchor="middle" dominant-baseline="middle" class="label"><textPath href="#textpath--5452134205955332029" startOffset="50%"><tspan>Oman | 52.3%</tspan></textPath></text><defs><path d="M-79.81124748564004 -493.58906468314905L-15.962249497128008 -98.71781293662981" stroke="#aaa" stroke-width="2" fill="none" id="textpath--6034501715570562985"/></defs><text text-anchor="middle" dominant-baseline="middle" class="label"><textPath href="#textpath--6034501715570562985" startOffset="50%"><tspan>Palestine | 24.7%</tspan></textPath></text><defs><path d="M-47.138263369676174 -497.77302470753784L-9.427652673935235 -99.55460494150756" stroke="#aaa" stroke-width="2" fill="none" id="textpath-3889537145471914070"/></defs><text text-anchor="middle" dominant-baseline="middle" class="label"><textPath href="#textpath-3889537145471914070" startOffset="50%"><tspan>Kuwait | 21.3%</tspan></textPath></text><defs><path d="M-22.16205991170258 -499.5086016281102L-4.432411982340517 -99.90172032562205" stroke="#aaa" stroke-width="2" fill="none" id="textpath--3601769985183703520"/></defs><text text-anchor="middle" dominant-baseline="middle" class="small-label-8"><textPath href="#textpath--3601769985183703520" startOffset="50%"><tspan>Qatar | 75.7%</tspan></textPath></text><defs><path d="M-6.0303235548902805 -499.96363387532836L-1.206064710978056 -99.99272677506566" stroke="#aaa" stroke-width="2" fill="none" id="textpath-1230983038567819687"/></defs><text text-anchor="middle" dominant-baseline="middle" class="small-label-4"><textPath href="#textpath-1230983038567819687" startOffset="50%"><tspan>Bahrain | 65.6%</tspan></textPath></text></g><text y="654" class="legend">
            <tspan x="-654">* Showing percentage of population fully vaccinated, having received all shots according to each countries chosen vaccine(s).</tspan>
            <tspan x="-654" dy="1.2em">Countries where no data was available are not counted towards a region's percentage.</tspan>
            </text><text y="-654" class="title" text-anchor="middle">
                <tspan x="0">Covid Vaccinations* by Country</tspan>
            </text><text xmlns:xlink="http://www.w3.org/1999/xlink" y="654" class="sources" text-anchor="end">
    <tspan x="654">Data source:
        <a xlink:href="https://github.com/owid/covid-19-data/tree/master/public/data/vaccinations">
            <tspan>https://github.com/owid/covid-19-data/tree/master/public/data/vaccinations</tspan>
        </a>
    </tspan>
    <tspan x="654" dy="1.2em">Code source:
        <a xlink:href="https://github.com/WorldSEnder/vis_covid_vacc">
            <tspan>https://github.com/WorldSEnder/vis_covid_vacc</tspan>
        </a>
    </tspan>
    <tspan x="654" dy="1.2em">Timestamp: Sat Nov 13 22:00:15 2021 +0000</tspan>
</text><text text-anchor="middle" dominant-baseline="middle" class="label_all" x="0" y="0">
    <tspan>Middle East | 34.2%</tspan>
</text></svg>