<svg xmlns="http://www.w3.org/2000/svg" viewBox="-664 -684 1328 1388"><style>
text {
    font-family: "Open Sans";
}
.legend, .sources {
    font-size: 10pt;
}
.title {
    font-size: 20pt;
    font-weight: bold;
}
.label_all {
    font-size: 18pt;
}
.label {
}
.small-label-9 {
   font-size: 9pt;
}
.small-label-8 {
   font-size: 8pt;
}
.small-label-7 {
   font-size: 7pt;
}
.small-label-6 {
   font-size: 6pt;
}
.small-label-5 {
   font-size: 5pt;
}
.small-label-4 {
   font-size: 4pt;
}
a {
    text-decoration: underline;
}
</style><style type="text/css">
@font-face{
  font-family:'Open Sans';src:local('Open Sans')
             , local('OpenSans')
             , url(https://fonts.gstatic.com/s/opensans/v18/mem5YaGs126MiZpBA-UN_r8OUuhp.woff2) format('woff2');
  }
</style><defs><pattern id="diagonalHatch" width="10" height="10" patternTransform="rotate(45 0 0)" patternUnits="userSpaceOnUse">
  <line x1="0" y1="0" x2="0" y2="10" style="stroke:#444; stroke-width:1"/>
</pattern></defs><circle cx="0" cy="0" r="199.0" stroke="#aaa" stroke-width="2" fill="none"/><path d="M2.4554168322904432e-14 -401.0A401.0 401.0 0 0 1 397.578776014542 -52.26965527702138" stroke="#aaa" stroke-width="2" fill="none"/><path d="M397.578776014542 -52.26965527702138A401.0 401.0 0 0 1 201.63053724567092 346.621012706994" stroke="#aaa" stroke-width="2" fill="none"/><path d="M201.63053724567092 346.621012706994A401.0 401.0 0 0 1 -241.91575941955855 319.808951320094" stroke="#aaa" stroke-width="2" fill="none"/><path d="M-241.91575941955855 319.808951320094A401.0 401.0 0 0 1 -376.0805756751053 139.15602969286454" stroke="#aaa" stroke-width="2" fill="none"/><path d="M-376.0805756751053 139.15602969286454A401.0 401.0 0 0 1 -397.41851305725544 -53.47453112800634" stroke="#aaa" stroke-width="2" fill="none"/><path d="M-397.41851305725544 -53.47453112800634A401.0 401.0 0 0 1 -340.830010707514 -211.2721084315577" stroke="#aaa" stroke-width="2" fill="none"/><path d="M-340.830010707514 -211.2721084315577A401.0 401.0 0 0 1 -277.2604001255045 -289.7027278474353" stroke="#aaa" stroke-width="2" fill="none"/><path d="M-277.2604001255045 -289.7027278474353A401.0 401.0 0 0 1 -233.5217018895159 -325.98867272748004" stroke="#aaa" stroke-width="2" fill="none"/><path d="M-233.5217018895159 -325.98867272748004A401.0 401.0 0 0 1 -186.45692755337768 -355.013822501821" stroke="#aaa" stroke-width="2" fill="none"/><path d="M-186.45692755337768 -355.013822501821A401.0 401.0 0 0 1 -142.08818122668453 -374.9825979371481" stroke="#aaa" stroke-width="2" fill="none"/><path d="M-142.08818122668453 -374.9825979371481A401.0 401.0 0 0 1 -106.45796472686618 -386.61052979221006" stroke="#aaa" stroke-width="2" fill="none"/><path d="M-106.45796472686618 -386.61052979221006A401.0 401.0 0 0 1 -78.31191652643031 -393.27883712444714" stroke="#aaa" stroke-width="2" fill="none"/><path d="M-78.31191652643031 -393.27883712444714A401.0 401.0 0 0 1 -49.76180983389154 -397.9004426763755" stroke="#aaa" stroke-width="2" fill="none"/><path d="M-49.76180983389154 -397.9004426763755A401.0 401.0 0 0 1 -25.897208419852728 -400.1628850806365" stroke="#aaa" stroke-width="2" fill="none"/><path d="M-25.897208419852728 -400.1628850806365A401.0 401.0 0 0 1 -9.682590523961899 -400.883084503132" stroke="#aaa" stroke-width="2" fill="none"/><path d="M-9.682590523961899 -400.883084503132A401.0 401.0 0 0 1 -7.366250496871329e-14 -401.0" stroke="#aaa" stroke-width="2" fill="none"/><g><circle fill="#279ee3" r="110.36255166729903"/><path d="M0.5000000000000009 -199.99937499902342L0.500000000000007 -221.16131513863021A221.161880336211 221.161880336211 0 0 1 219.2092522367693 -29.323728406274718L198.22786007019107 -26.565306171635793A200 200 0 0 0 0.5000000000000009 -199.99937499902342" fill="#b80058"/><path d="M198.3582083377148 -25.573837902272846L334.9368860751832 -43.52982759340201A337.7537024875546 337.7537024875546 0 0 1 170.26108821374092 291.69971783380987L100.99574048928928 172.6263606840512A200 200 0 0 0 198.3582083377148 -25.573837902272846" fill="#008cf9"/><path d="M100.13134893640402 173.12917997892816L134.84312022869037 232.80183414403618A269.03412618817777 269.03412618817777 0 0 1 -161.90418471497844 214.8636684635504L-120.2570977822089 159.80685352324616A200 200 0 0 0 100.13134893640402 173.12917997892816" fill="#006e00"/><path d="M-121.05462633911692 159.20357232768612L-138.29744507934632 181.998316218478A228.58164935496447 228.58164935496447 0 0 1 -214.20282943446165 79.79171814234147L-187.39726201857246 69.87321509664842A200 200 0 0 0 -121.05462633911692 159.20357232768612" fill="#00bbad"/><path d="M-187.7442845365098 68.93535829945358L-322.5760378712162 118.8253358312748A343.765560584692 343.765560584692 0 0 1 -340.76157277822523 -45.34656725506204L-198.27977927694843 -26.174971439996135A200 200 0 0 0 -187.7442845365098 68.93535829945358" fill="#d163e6"/><path d="M-198.14642633149205 -27.16604005111155L-201.12763248793703 -27.567175368602015A203.00806316007728 203.00806316007728 0 0 1 -172.80964222468285 -106.53216069423844L-170.25293061503504 -104.94731829347552A200 200 0 0 0 -198.14642633149205 -27.16604005111155" fill="#b24502"/><path d="M-169.72606750173935 -105.79726844486589L-172.51289894051664 -107.52475644597116A203.27880742867987 203.27880742867987 0 0 1 -140.9123300640657 -146.51275980453755L-138.64528204739096 -144.14397582278426A200 200 0 0 0 -169.72606750173935 -105.79726844486589" fill="#ff9287"/><path d="M-137.92283135450452 -144.83539826698754L-197.93069222981345 -207.53616974389934A286.78880849597624 286.78880849597624 0 0 1 -167.4172149530598 -232.8503743091316L-116.87578245130972 -162.29618441723798A200 200 0 0 0 -137.92283135450452 -144.83539826698754" fill="#5954d6"/><path d="M-116.06284311782468 -162.8785328010024L-224.2425177397801 -313.89382714305293A385.7642304319938 385.7642304319938 0 0 1 -179.81511137041244 -341.2924950883546L-93.4383438557722 -176.83120736309664A200 200 0 0 0 -116.06284311782468 -162.8785328010024" fill="#00c6f8"/><path d="M-92.55302260265039 -177.29618723230706L-162.44685473133703 -310.37398079512485A350.3155557018795 350.3155557018795 0 0 1 -124.5963610074057 -327.40912539272455L-71.33426119464706 -186.845987861163A200 200 0 0 0 -92.55302260265039 -177.29618723230706" fill="#878500"/><path d="M-70.39914249654936 -187.20032247768842L-90.96741734209783 -241.48172062131206A258.0474615494615 258.0474615494615 0 0 1 -68.98868143479532 -248.65448768523993L-53.578133850218045 -192.68986370104713A200 200 0 0 0 -70.39914249654936 -187.20032247768842" fill="#00a76c"/><path d="M-52.614017815823445 -192.95534490984232L-84.41334414714447 -308.4371168141746A319.77971745991806 319.77971745991806 0 0 1 -62.94057692629719 -313.52440331644027L-39.54856303946133 -196.05078719942378A200 200 0 0 0 -52.614017815823445 -192.95534490984232" fill="#bdbdbd"/><path d="M-38.56781780972449 -196.24607876183387L-50.890658050367286 -258.1308147620657A263.099556454448 263.099556454448 0 0 1 -33.14522861566962 -261.0033915996922L-25.31491542876999 -198.3914188084611A200 200 0 0 0 -38.56781780972449 -196.24607876183387" fill="#ebac23"/><path d="M-24.322644998155525 -198.51551309732372L-41.396798144389756 -335.0421611008636A337.58990596838703 337.58990596838703 0 0 1 -22.30101747838546 -336.85250367360067L-13.415229278629237 -199.5495718446968A200 200 0 0 0 -24.322644998155525 -198.51551309732372" fill="#b80058"/><path d="M-12.417316847006637 -199.6141534118286L-23.37442783089726 -368.92310256100035A369.6628456846268 369.6628456846268 0 0 1 -9.425766171590672 -369.54265574049055L-5.329061335200564 -199.92899015721974A200 200 0 0 0 -12.417316847006637 -199.6141534118286" fill="#008cf9"/><path d="M-4.329352895043061 -199.95313626825205L-7.851329710019798 -345.771646887105A345.86077425639974 345.86077425639974 0 0 1 -0.4999999999999775 -345.8604128391052L-0.5000000000000698 -199.99937499902342A200 200 0 0 0 -4.329352895043061 -199.95313626825205" fill="#006e00"/></g><g><defs><path d="M65.94132742356102 -75.17806420505066L329.7066371178051 -375.89032102525334" stroke="#aaa" stroke-width="2" fill="none" id="textpath-4606905986925625683"/></defs><text text-anchor="middle" dominant-baseline="middle" class="label"><textPath href="#textpath-4606905986925625683" startOffset="50%"><tspan>Egypt | 7.4%</tspan></textPath></text><defs><path d="M89.75525938558519 44.09074066769939L448.77629692792596 220.45370333849695" stroke="#aaa" stroke-width="2" fill="none" id="textpath--5902535664631404197"/></defs><text text-anchor="middle" dominant-baseline="middle" class="label"><textPath href="#textpath--5902535664631404197" startOffset="50%"><tspan>Turkey | 61.7%</tspan></textPath></text><defs><path d="M-30.16957668735228 499.0889666607608L-6.0339153374704555 99.81779333215215" stroke="#aaa" stroke-width="2" fill="none" id="textpath--7814998151011033917"/></defs><text text-anchor="middle" dominant-baseline="middle" class="label"><textPath href="#textpath--7814998151011033917" startOffset="50%"><tspan>Iran | 27.0%</tspan></textPath></text><defs><path d="M-401.4086138105746 298.1126041593562L-80.28172276211491 59.62252083187124" stroke="#aaa" stroke-width="2" fill="none" id="textpath--5598345666876542796"/></defs><text text-anchor="middle" dominant-baseline="middle" class="label"><textPath href="#textpath--5598345666876542796" startOffset="50%"><tspan>Iraq | 10.2%</tspan></textPath></text><defs><path d="M-496.96037421603677 55.04894603038916L-99.39207484320735 11.009789206077832" stroke="#aaa" stroke-width="2" fill="none" id="textpath-4452735956806114313"/></defs><text text-anchor="middle" dominant-baseline="middle" class="label"><textPath href="#textpath-4452735956806114313" startOffset="50%"><tspan>Saudi Arabia | 65.1%</tspan></textPath></text><defs><path d="M-470.65116700766083 -168.7823420690889L-94.13023340153217 -33.75646841381778" stroke="#aaa" stroke-width="2" fill="none" id="textpath-4229079220485662343"/></defs><text text-anchor="middle" dominant-baseline="middle" class="label"><textPath href="#textpath-4229079220485662343" startOffset="50%"><tspan>Yemen | 1.0%</tspan></textPath></text><defs><path d="M-388.4330685376335 -314.8328941937899L-77.6866137075267 -62.96657883875798" stroke="#aaa" stroke-width="2" fill="none" id="textpath--2668904979957733469"/></defs><text text-anchor="middle" dominant-baseline="middle" class="label"><textPath href="#textpath--2668904979957733469" startOffset="50%"><tspan>Syria | 1.1%</tspan></textPath></text><defs><path d="M-319.24523452382283 -384.81486488158095L-63.84904690476456 -76.9629729763162" stroke="#aaa" stroke-width="2" fill="none" id="textpath--1151484204691908500"/></defs><text text-anchor="middle" dominant-baseline="middle" class="label"><textPath href="#textpath--1151484204691908500" startOffset="50%"><tspan>Jordan | 35.2%</tspan></textPath></text><defs><path d="M-262.45661686380936 -425.57787097592796L-52.49132337276187 -85.1155741951856" stroke="#aaa" stroke-width="2" fill="none" id="textpath--7437234772904510264"/></defs><text text-anchor="middle" dominant-baseline="middle" class="label"><textPath href="#textpath--7437234772904510264" startOffset="50%"><tspan>United Arab Emirates | 90.7%</tspan></textPath></text><defs><path d="M-205.20660504456694 -455.94983193996586L-41.04132100891339 -91.18996638799317" stroke="#aaa" stroke-width="2" fill="none" id="textpath--1100559837592267317"/></defs><text text-anchor="middle" dominant-baseline="middle" class="label"><textPath href="#textpath--1100559837592267317" startOffset="50%"><tspan>Israel | 68.9%</tspan></textPath></text><defs><path d="M-155.12343932134786 -475.32801155950835L-31.024687864269573 -95.06560231190167" stroke="#aaa" stroke-width="2" fill="none" id="textpath-5952224281934614812"/></defs><text text-anchor="middle" dominant-baseline="middle" class="label"><textPath href="#textpath-5952224281934614812" startOffset="50%"><tspan>Lebanon | 22.2%</tspan></textPath></text><defs><path d="M-115.26818642351925 -486.5318542486533L-23.05363728470385 -97.30637084973065" stroke="#aaa" stroke-width="2" fill="none" id="textpath--5452134205955332029"/></defs><text text-anchor="middle" dominant-baseline="middle" class="label"><textPath href="#textpath--5452134205955332029" startOffset="50%"><tspan>Oman | 51.9%</tspan></textPath></text><defs><path d="M-79.89843249729903 -493.5749593369527L-15.979686499459806 -98.71499186739055" stroke="#aaa" stroke-width="2" fill="none" id="textpath--6034501715570562985"/></defs><text text-anchor="middle" dominant-baseline="middle" class="label"><textPath href="#textpath--6034501715570562985" startOffset="50%"><tspan>Palestine | 24.4%</tspan></textPath></text><defs><path d="M-47.19004848123842 -497.76811802719783L-9.438009696247684 -99.55362360543957" stroke="#aaa" stroke-width="2" fill="none" id="textpath-3889537145471914070"/></defs><text text-anchor="middle" dominant-baseline="middle" class="label"><textPath href="#textpath-3889537145471914070" startOffset="50%"><tspan>Kuwait | 61.6%</tspan></textPath></text><defs><path d="M-22.186463382902602 -499.50751830433853L-4.437292676580521 -99.9015036608677" stroke="#aaa" stroke-width="2" fill="none" id="textpath--3601769985183703520"/></defs><text text-anchor="middle" dominant-baseline="middle" class="small-label-8"><textPath href="#textpath--3601769985183703520" startOffset="50%"><tspan>Qatar | 80.5%</tspan></textPath></text><defs><path d="M-6.036967808465414 -499.96355369134614L-1.2073935616930829 -99.99271073826922" stroke="#aaa" stroke-width="2" fill="none" id="textpath-1230983038567819687"/></defs><text text-anchor="middle" dominant-baseline="middle" class="small-label-4"><textPath href="#textpath-1230983038567819687" startOffset="50%"><tspan>Bahrain | 66.3%</tspan></textPath></text></g><text y="654" class="legend">
            <tspan x="-654">* Showing percentage of population vaccinated, having received at least one shot of a countries chosen vaccine(s).</tspan>
            <tspan x="-654" dy="1.2em">Countries where no data was available are not counted towards a region's percentage.</tspan>
            </text><text y="-654" class="title" text-anchor="middle">
            <tspan x="0">Partial Covid Vaccinations* by Country</tspan>
            </text><text xmlns:xlink="http://www.w3.org/1999/xlink" y="654" class="sources" text-anchor="end">
    <tspan x="654">Data source:
        <a xlink:href="https://github.com/owid/covid-19-data/tree/master/public/data/vaccinations">
            <tspan>https://github.com/owid/covid-19-data/tree/master/public/data/vaccinations</tspan>
        </a>
    </tspan>
    <tspan x="654" dy="1.2em">Code source:
        <a xlink:href="https://github.com/WorldSEnder/vis_covid_vacc">
            <tspan>https://github.com/WorldSEnder/vis_covid_vacc</tspan>
        </a>
    </tspan>
    <tspan x="654" dy="1.2em">Timestamp: Sun Sep 19 02:00:22 2021 +0000</tspan>
</text><text text-anchor="middle" dominant-baseline="middle" class="label_all" x="0" y="0">
    <tspan>Middle East | 31.1%</tspan>
</text></svg>