<svg xmlns="http://www.w3.org/2000/svg" viewBox="-664 -684 1328 1388"><style>
text {
    font-family: "Open Sans";
}
.legend, .sources {
    font-size: 10pt;
}
.title {
    font-size: 20pt;
    font-weight: bold;
}
.label_all {
    font-size: 18pt;
}
.label {
}
.small-label-9 {
   font-size: 9pt;
}
.small-label-8 {
   font-size: 8pt;
}
.small-label-7 {
   font-size: 7pt;
}
.small-label-6 {
   font-size: 6pt;
}
.small-label-5 {
   font-size: 5pt;
}
.small-label-4 {
   font-size: 4pt;
}
a {
    text-decoration: underline;
}
</style><style type="text/css">
@font-face{
  font-family:'Open Sans';src:local('Open Sans')
             , local('OpenSans')
             , url(https://fonts.gstatic.com/s/opensans/v18/mem5YaGs126MiZpBA-UN_r8OUuhp.woff2) format('woff2');
  }
</style><defs><pattern id="diagonalHatch" width="10" height="10" patternTransform="rotate(45 0 0)" patternUnits="userSpaceOnUse">
  <line x1="0" y1="0" x2="0" y2="10" style="stroke:#444; stroke-width:1"/>
</pattern></defs><circle cx="0" cy="0" r="199.0" stroke="#aaa" stroke-width="2" fill="none"/><path d="M2.4554168322904432e-14 -401.0A401.0 401.0 0 1 1 -143.22333587177707 374.55049868043176" stroke="#aaa" stroke-width="2" fill="none"/><path d="M3.69231009942927e-14 -603.0A603.0 603.0 0 0 1 244.4171760170551 -551.2433619263346" stroke="#aaa" stroke-width="2" fill="none"/><path d="M244.4171760170551 -551.2433619263346A603.0 603.0 0 0 1 399.2442158576684 -451.89938714739975" stroke="#aaa" stroke-width="2" fill="none"/><path d="M399.2442158576684 -451.89938714739975A603.0 603.0 0 0 1 490.65442993449096 -350.52422225241395" stroke="#aaa" stroke-width="2" fill="none"/><path d="M490.65442993449096 -350.52422225241395A603.0 603.0 0 0 1 551.8518493715006 -243.04019491692014" stroke="#aaa" stroke-width="2" fill="none"/><path d="M551.8518493715006 -243.04019491692014A603.0 603.0 0 0 1 579.5782600104217 -166.4272829895748" stroke="#aaa" stroke-width="2" fill="none"/><path d="M579.5782600104217 -166.4272829895748A603.0 603.0 0 0 1 596.6036259391198 -87.59630994679439" stroke="#aaa" stroke-width="2" fill="none"/><path d="M596.6036259391198 -87.59630994679439A603.0 603.0 0 0 1 602.8498324135466 -13.456580507646546" stroke="#aaa" stroke-width="2" fill="none"/><path d="M602.8498324135466 -13.456580507646546A603.0 603.0 0 0 1 600.5688105207021 54.093473079004795" stroke="#aaa" stroke-width="2" fill="none"/><path d="M600.5688105207021 54.093473079004795A603.0 603.0 0 0 1 590.9072258151139 120.15677458839332" stroke="#aaa" stroke-width="2" fill="none"/><path d="M590.9072258151139 120.15677458839332A603.0 603.0 0 0 1 574.9713819246992 181.70555843892527" stroke="#aaa" stroke-width="2" fill="none"/><path d="M574.9713819246992 181.70555843892527A603.0 603.0 0 0 1 555.4206755718502 234.76983014712408" stroke="#aaa" stroke-width="2" fill="none"/><path d="M555.4206755718502 234.76983014712408A603.0 603.0 0 0 1 532.0277195745471 283.8230181016105" stroke="#aaa" stroke-width="2" fill="none"/><path d="M532.0277195745471 283.8230181016105A603.0 603.0 0 0 1 507.5039187134512 325.65130506492795" stroke="#aaa" stroke-width="2" fill="none"/><path d="M507.5039187134512 325.65130506492795A603.0 603.0 0 0 1 480.99305752166754 363.66836350713527" stroke="#aaa" stroke-width="2" fill="none"/><path d="M480.99305752166754 363.66836350713527A603.0 603.0 0 0 1 453.2666882843137 397.69122355386565" stroke="#aaa" stroke-width="2" fill="none"/><path d="M453.2666882843137 397.69122355386565A603.0 603.0 0 0 1 423.426302619207 429.3240806782537" stroke="#aaa" stroke-width="2" fill="none"/><path d="M423.426302619207 429.3240806782537A603.0 603.0 0 0 1 391.8532937154016 458.3230260464678" stroke="#aaa" stroke-width="2" fill="none"/><path d="M391.8532937154016 458.3230260464678A603.0 603.0 0 0 1 361.3396650430807 482.74490827615597" stroke="#aaa" stroke-width="2" fill="none"/><path d="M361.3396650430807 482.74490827615597A603.0 603.0 0 0 1 329.79742658483747 504.81943050760117" stroke="#aaa" stroke-width="2" fill="none"/><path d="M329.79742658483747 504.81943050760117A603.0 603.0 0 0 1 298.1475676117869 524.1345513579266" stroke="#aaa" stroke-width="2" fill="none"/><path d="M298.1475676117869 524.1345513579266A603.0 603.0 0 0 1 265.7346706047517 541.2892801807404" stroke="#aaa" stroke-width="2" fill="none"/><path d="M265.7346706047517 541.2892801807404A603.0 603.0 0 0 1 233.0387368817737 556.149212992833" stroke="#aaa" stroke-width="2" fill="none"/><path d="M233.0387368817737 556.149212992833A603.0 603.0 0 0 1 202.46406194550343 567.9941052691721" stroke="#aaa" stroke-width="2" fill="none"/><path d="M202.46406194550343 567.9941052691721A603.0 603.0 0 0 1 172.78955821218975 577.7133965668758" stroke="#aaa" stroke-width="2" fill="none"/><path d="M172.78955821218975 577.7133965668758A603.0 603.0 0 0 1 144.22545461258227 585.4980941401893" stroke="#aaa" stroke-width="2" fill="none"/><path d="M144.22545461258227 585.4980941401893A603.0 603.0 0 0 1 116.44576930752622 591.6497129301918" stroke="#aaa" stroke-width="2" fill="none"/><path d="M116.44576930752622 591.6497129301918A603.0 603.0 0 0 1 89.98119353642635 596.2485931302147" stroke="#aaa" stroke-width="2" fill="none"/><path d="M89.98119353642635 596.2485931302147A603.0 603.0 0 0 1 64.98949311147898 599.4875860141835" stroke="#aaa" stroke-width="2" fill="none"/><path d="M64.98949311147898 599.4875860141835A603.0 603.0 0 0 1 42.3731663311944 601.509363829915" stroke="#aaa" stroke-width="2" fill="none"/><path d="M42.3731663311944 601.509363829915A603.0 603.0 0 0 1 21.984008345517665 602.599123279369" stroke="#aaa" stroke-width="2" fill="none"/><path d="M21.984008345517665 602.599123279369A603.0 603.0 0 0 1 1.6477550330066315 602.9977486718761" stroke="#aaa" stroke-width="2" fill="none"/><path d="M1.6477550330066315 602.9977486718761A603.0 603.0 0 0 1 -18.44448763352458 602.7178451613464" stroke="#aaa" stroke-width="2" fill="none"/><path d="M-18.44448763352458 602.7178451613464A603.0 603.0 0 0 1 -38.040071907529025 601.7989306481609" stroke="#aaa" stroke-width="2" fill="none"/><path d="M-38.040071907529025 601.7989306481609A603.0 603.0 0 0 1 -57.20006967948168 600.2808942725584" stroke="#aaa" stroke-width="2" fill="none"/><path d="M-57.20006967948168 600.2808942725584A603.0 603.0 0 0 1 -76.03877297273887 598.1865135597762" stroke="#aaa" stroke-width="2" fill="none"/><path d="M-76.03877297273887 598.1865135597762A603.0 603.0 0 0 1 -94.40709254752585 595.5638512172502" stroke="#aaa" stroke-width="2" fill="none"/><path d="M-94.40709254752585 595.5638512172502A603.0 603.0 0 0 1 -107.5731916335349 593.3270670058587" stroke="#aaa" stroke-width="2" fill="none"/><path d="M-107.5731916335349 593.3270670058587A603.0 603.0 0 0 1 -119.67279622820406 591.005433006265" stroke="#aaa" stroke-width="2" fill="none"/><path d="M-119.67279622820406 591.005433006265A603.0 603.0 0 0 1 -130.83809501160468 588.6343456626824" stroke="#aaa" stroke-width="2" fill="none"/><path d="M-130.83809501160468 588.6343456626824A603.0 603.0 0 0 1 -141.92505424555978 586.0599619300016" stroke="#aaa" stroke-width="2" fill="none"/><path d="M-141.92505424555978 586.0599619300016A603.0 603.0 0 0 1 -150.67342214217362 583.8720064020592" stroke="#aaa" stroke-width="2" fill="none"/><path d="M-150.67342214217362 583.8720064020592A603.0 603.0 0 0 1 -159.04308798050081 581.6479142622508" stroke="#aaa" stroke-width="2" fill="none"/><path d="M-159.04308798050081 581.6479142622508A603.0 603.0 0 0 1 -167.28511112991964 579.3312451389537" stroke="#aaa" stroke-width="2" fill="none"/><path d="M-167.28511112991964 579.3312451389537A603.0 603.0 0 0 1 -173.81432874787401 577.4059049939877" stroke="#aaa" stroke-width="2" fill="none"/><path d="M-173.81432874787401 577.4059049939877A603.0 603.0 0 0 1 -180.26416118896745 575.4249144682892" stroke="#aaa" stroke-width="2" fill="none"/><path d="M-180.26416118896745 575.4249144682892A603.0 603.0 0 0 1 -186.17295475043585 573.5404352959713" stroke="#aaa" stroke-width="2" fill="none"/><path d="M-186.17295475043585 573.5404352959713A603.0 603.0 0 0 1 -191.52400237787117 571.7757921713381" stroke="#aaa" stroke-width="2" fill="none"/><path d="M-191.52400237787117 571.7757921713381A603.0 603.0 0 0 1 -196.12010638738496 570.2156643504287" stroke="#aaa" stroke-width="2" fill="none"/><path d="M-196.12010638738496 570.2156643504287A603.0 603.0 0 0 1 -200.520208252404 568.683256376001" stroke="#aaa" stroke-width="2" fill="none"/><path d="M-200.520208252404 568.683256376001A603.0 603.0 0 0 1 -204.75380887792267 567.1727053993194" stroke="#aaa" stroke-width="2" fill="none"/><path d="M-204.75380887792267 567.1727053993194A603.0 603.0 0 0 1 -208.4874835346325 565.8108952727902" stroke="#aaa" stroke-width="2" fill="none"/><path d="M-208.4874835346325 565.8108952727902A603.0 603.0 0 0 1 -211.94242973070982 564.5258244578747" stroke="#aaa" stroke-width="2" fill="none"/><path d="M-211.94242973070982 564.5258244578747A603.0 603.0 0 0 1 -212.94675494294333 564.1477462148281" stroke="#aaa" stroke-width="2" fill="none"/><path d="M-212.94675494294333 564.1477462148281A603.0 603.0 0 0 1 -213.5799791079235 563.9083192543438" stroke="#aaa" stroke-width="2" fill="none"/><path d="M-213.5799791079235 563.9083192543438A603.0 603.0 0 0 1 -214.18929764667726 563.6771636084108" stroke="#aaa" stroke-width="2" fill="none"/><path d="M-214.18929764667726 563.6771636084108A603.0 603.0 0 0 1 -214.6520803225564 563.5010953078962" stroke="#aaa" stroke-width="2" fill="none"/><path d="M-214.6520803225564 563.5010953078962A603.0 603.0 0 0 1 -214.96066255253064 563.3834516161945" stroke="#aaa" stroke-width="2" fill="none"/><path d="M-214.96066255253064 563.3834516161945A603.0 603.0 0 0 1 -215.24265142213974 563.2757770477683" stroke="#aaa" stroke-width="2" fill="none"/><path d="M-215.24265142213974 563.2757770477683A603.0 603.0 0 0 1 -215.3707519468371 563.2268097364098" stroke="#aaa" stroke-width="2" fill="none"/><path d="M1.2246467991473532e-14 -200.0L2.4492935982947064e-14 -400.0" stroke="#aaa" stroke-width="2" fill="none"/><path d="M-71.43308522283147 186.80822876829515L-142.86617044566293 373.6164575365903" stroke="#aaa" stroke-width="2" fill="none"/><path d="M-143.22333587177707 374.55049868043176A401.0 401.0 0 0 1 -395.19761208144723 -67.96945935581616" stroke="#aaa" stroke-width="2" fill="none"/><path d="M-395.19761208144723 -67.96945935581616A401.0 401.0 0 0 1 -337.0792999274433 -217.2062281805582" stroke="#aaa" stroke-width="2" fill="none"/><path d="M-337.0792999274433 -217.2062281805582A401.0 401.0 0 0 1 -289.22558340852265 -277.7580996154743" stroke="#aaa" stroke-width="2" fill="none"/><path d="M-289.22558340852265 -277.7580996154743A401.0 401.0 0 0 1 -253.30183522970577 -310.8684291935464" stroke="#aaa" stroke-width="2" fill="none"/><path d="M-253.30183522970577 -310.8684291935464A401.0 401.0 0 0 1 -214.4212597225953 -338.85767422175246" stroke="#aaa" stroke-width="2" fill="none"/><path d="M-214.4212597225953 -338.85767422175246A401.0 401.0 0 0 1 -173.8699998479376 -361.3450195490152" stroke="#aaa" stroke-width="2" fill="none"/><path d="M-173.8699998479376 -361.3450195490152A401.0 401.0 0 0 1 -134.55376481350623 -377.75161730231105" stroke="#aaa" stroke-width="2" fill="none"/><path d="M-134.55376481350623 -377.75161730231105A401.0 401.0 0 0 1 -107.49670958218836 -386.3229962466675" stroke="#aaa" stroke-width="2" fill="none"/><path d="M-107.49670958218836 -386.3229962466675A401.0 401.0 0 0 1 -80.66419440458317 -392.8031157476473" stroke="#aaa" stroke-width="2" fill="none"/><path d="M-80.66419440458317 -392.8031157476473A401.0 401.0 0 0 1 -59.23413111938466 -396.6009552567058" stroke="#aaa" stroke-width="2" fill="none"/><path d="M-59.23413111938466 -396.6009552567058A401.0 401.0 0 0 1 -40.822480372873414 -398.91668941798656" stroke="#aaa" stroke-width="2" fill="none"/><path d="M-40.822480372873414 -398.91668941798656A401.0 401.0 0 0 1 -28.275623564428557 -400.00186138572246" stroke="#aaa" stroke-width="2" fill="none"/><path d="M-28.275623564428557 -400.00186138572246A401.0 401.0 0 0 1 -16.315455656282708 -400.6679496874287" stroke="#aaa" stroke-width="2" fill="none"/><path d="M-16.315455656282708 -400.6679496874287A401.0 401.0 0 0 1 -10.374757082107664 -400.86576857532657" stroke="#aaa" stroke-width="2" fill="none"/><path d="M-10.374757082107664 -400.86576857532657A401.0 401.0 0 0 1 -8.660208140615028 -400.90647387509375" stroke="#aaa" stroke-width="2" fill="none"/><path d="M-8.660208140615028 -400.90647387509375A401.0 401.0 0 0 1 -6.979384229642832 -400.93925748893065" stroke="#aaa" stroke-width="2" fill="none"/><path d="M-6.979384229642832 -400.93925748893065A401.0 401.0 0 0 1 -5.760939942045045 -400.95861578345483" stroke="#aaa" stroke-width="2" fill="none"/><path d="M-5.760939942045045 -400.95861578345483A401.0 401.0 0 0 1 -4.979972440350278 -400.9690759578516" stroke="#aaa" stroke-width="2" fill="none"/><path d="M-4.979972440350278 -400.9690759578516A401.0 401.0 0 0 1 -4.282019150257958 -400.9771368943582" stroke="#aaa" stroke-width="2" fill="none"/><path d="M-4.282019150257958 -400.9771368943582A401.0 401.0 0 0 1 -3.803364036859243 -400.9819627140392" stroke="#aaa" stroke-width="2" fill="none"/><path d="M-3.803364036859243 -400.9819627140392A401.0 401.0 0 0 1 -3.3320985006219113 -400.98615577047315" stroke="#aaa" stroke-width="2" fill="none"/><path d="M-3.3320985006219113 -400.98615577047315A401.0 401.0 0 0 1 -2.8780835069841415 -400.9896714821054" stroke="#aaa" stroke-width="2" fill="none"/><path d="M-2.8780835069841415 -400.9896714821054A401.0 401.0 0 0 1 -2.436673792486811 -400.99259671573617" stroke="#aaa" stroke-width="2" fill="none"/><path d="M-2.436673792486811 -400.99259671573617A401.0 401.0 0 0 1 -2.0185139446045457 -400.9949196703812" stroke="#aaa" stroke-width="2" fill="none"/><path d="M-2.0185139446045457 -400.9949196703812A401.0 401.0 0 0 1 -1.7128299218140415 -400.9963418956075" stroke="#aaa" stroke-width="2" fill="none"/><path d="M-1.7128299218140415 -400.9963418956075A401.0 401.0 0 0 1 -1.431177202857036 -400.9974460415104" stroke="#aaa" stroke-width="2" fill="none"/><path d="M-1.431177202857036 -400.9974460415104A401.0 401.0 0 0 1 -1.1681854858463268 -400.9982984286475" stroke="#aaa" stroke-width="2" fill="none"/><path d="M-1.1681854858463268 -400.9982984286475A401.0 401.0 0 0 1 -0.9273196656387883 -400.99892777691775" stroke="#aaa" stroke-width="2" fill="none"/><path d="M-0.9273196656387883 -400.99892777691775A401.0 401.0 0 0 1 -0.7005239512001834 -400.9993881119942" stroke="#aaa" stroke-width="2" fill="none"/><path d="M-0.7005239512001834 -400.9993881119942A401.0 401.0 0 0 1 -0.5166128148623111 -400.99966722080893" stroke="#aaa" stroke-width="2" fill="none"/><path d="M-0.5166128148623111 -400.99966722080893A401.0 401.0 0 0 1 -0.3504696505611221 -400.9998468466341" stroke="#aaa" stroke-width="2" fill="none"/><path d="M-0.3504696505611221 -400.9998468466341A401.0 401.0 0 0 1 -0.22161187331868917 -400.99993876330905" stroke="#aaa" stroke-width="2" fill="none"/><path d="M-0.22161187331868917 -400.99993876330905A401.0 401.0 0 0 1 -0.10960304778849499 -400.99998502141113" stroke="#aaa" stroke-width="2" fill="none"/><path d="M-0.10960304778849499 -400.99998502141113A401.0 401.0 0 0 1 -0.04554051791048121 -400.99999741404145" stroke="#aaa" stroke-width="2" fill="none"/><path d="M-0.04554051791048121 -400.99999741404145A401.0 401.0 0 0 1 -0.021097220991306134 -400.9999994450215" stroke="#aaa" stroke-width="2" fill="none"/><path d="M-0.021097220991306134 -400.9999994450215A401.0 401.0 0 0 1 -4.298220512684635e-13 -401.0" stroke="#aaa" stroke-width="2" fill="none"/><g><circle fill="#279ee3" r="145.04095111922717"/><path d="M0.5000000000000009 -199.99937499902342L0.5000000000000043 -331.5617823346317A331.5621593380609 331.5621593380609 0 1 1 -117.95538469879749 309.8709291390149L-70.96584142217061 186.98622770472517A200 200 0 1 0 0.5000000000000009 -199.99937499902342" fill="#006e00"/><path d="M0.5000000000000013 -401.9996890546061L0.5000000000000873 -535.2464321434146A535.2466656806513 535.2466656806513 0 0 1 216.49718032625952 -489.50787943917095L162.48757392619888 -367.6979580030029A402 402 0 0 0 0.5000000000000013 -401.9996890546061" fill="#00bbad"/><path d="M163.40174202226243 -367.2926227193925L211.10152448217713 -474.87175801110936A519.679747724751 519.679747724751 0 0 1 343.70329627292404 -389.7885123068501L265.7878954196667 -301.597073341875A402 402 0 0 0 163.40174202226243 -367.2926227193925" fill="#d163e6"/><path d="M266.53731397215 -300.93497679816403L352.5866700078528 -398.33313489903264A531.9648919108454 531.9648919108454 0 0 1 432.5631067687785 -309.6381838343905L326.81205000962547 -234.08947855148477A402 402 0 0 0 266.53731397215 -300.93497679816403" fill="#b24502"/><path d="M327.3933505440408 -233.27578961295322L443.9152312433418 -316.5191868303477A545.2019150384325 545.2019150384325 0 0 1 498.7546243328495 -220.2020728062575L367.69942247776805 -162.48425988235243A402 402 0 0 0 327.3933505440408 -233.27578961295322" fill="#ff9287"/><path d="M368.1024742106319 -161.56908268604812L488.90799719180154 -214.77285084560484A534.002253907647 534.002253907647 0 0 1 513.1223015778063 -147.86450149356966L386.2472084005048 -111.4320151608909A402 402 0 0 0 368.1024742106319 -161.56908268604812" fill="#5954d6"/><path d="M386.52320721143275 -110.47085718409086L512.8267020022212 -146.73920767353272A533.4075565223379 533.4075565223379 0 0 1 527.6765246435007 -77.98145096936925L397.66280922289104 -58.89219100151212A402 402 0 0 0 386.52320721143275 -110.47085718409086" fill="#00c6f8"/><path d="M397.8080767352406 -57.90279858701938L511.1575184294699 -74.54532705190172A516.5646275464948 516.5646275464948 0 0 1 516.4245853686668 -12.027554159072068L401.88841938078497 -9.470922215620163A402 402 0 0 0 397.8080767352406 -57.90279858701938" fill="#878500"/><path d="M401.9107354346948 -8.47117124976022L509.38094988690136 -10.870079759297793A509.4969192661085 509.4969192661085 0 0 1 507.487326966054 45.20756253664702L400.4237509481864 35.564303403620706A402 402 0 0 0 401.9107354346948 -8.47117124976022" fill="#00a76c"/><path d="M400.3340436959824 36.56027158027195L516.428079315101 47.01690782308819A518.5639311852773 518.5639311852773 0 0 1 508.2638639027509 102.84160333724307L394.03747831689867 79.61448160767986A402 402 0 0 0 400.3340436959824 36.56027158027195" fill="#bdbdbd"/><path d="M393.8382133507488 80.59442725579778L509.15677694127226 104.0436356016427A519.6784598330316 519.6784598330316 0 0 1 495.6732283351464 156.12095415492993L383.4646260833262 120.66018623711305A402 402 0 0 0 393.8382133507488 80.59442725579778" fill="#ebac23"/><path d="M383.163290165517 121.61370428342268L518.8218461259254 164.48525309910346A544.2715374742552 544.2715374742552 0 0 1 501.52060098335454 211.44406658472232L370.4748321549861 156.05255121187503A402 402 0 0 0 383.163290165517 121.61370428342268" fill="#b80058"/><path d="M370.0854957865829 156.97364685958956L495.8634139571972 210.13850330785135A538.5524263001241 538.5524263001241 0 0 1 475.4006753884361 253.0472558910082L354.92021450489204 188.7740483641791A402 402 0 0 0 370.0854957865829 156.97364685958956" fill="#008cf9"/><path d="M354.44952956608336 189.65634972334087L475.33664247272026 254.14649557925483A539.0133253384881 539.0133253384881 0 0 1 453.920535336242 290.67423775167L338.6057100652304 216.67988626363342A402 402 0 0 0 354.44952956608336 189.65634972334087" fill="#006e00"/><path d="M338.06565814969986 217.52151796962593L436.82885233991067 280.8951430678445A519.3472129854057 519.3472129854057 0 0 1 414.56736700210814 312.81851903723293L320.96333954044474 242.04655475970978A402 402 0 0 0 338.06565814969986 217.52151796962593" fill="#00bbad"/><path d="M320.3602410935009 242.84422152176896L438.59508456097365 332.23900874570126A550.2257783250197 550.2257783250197 0 0 1 413.9266318224061 362.5095179461252L302.507319006438 264.75143426908403A402 402 0 0 0 320.3602410935009 242.84422152176896" fill="#d163e6"/><path d="M301.847797906017 265.50312031930684L382.713441619745 336.4537496578812A509.5789478140538 509.5789478140538 0 0 1 358.1819037132614 362.4588637454215L282.6399735170844 285.86473264511284A402 402 0 0 0 301.847797906017 265.50312031930684" fill="#b24502"/><path d="M281.9279932837871 286.566932151944L359.31735795347777 365.03423008683126A512.2098718901788 512.2098718901788 0 0 1 333.23414802421456 388.99094520609236L261.61536275561843 305.22352787792454A402 402 0 0 0 281.9279932837871 286.566932151944" fill="#ff9287"/><path d="M260.8552914023075 305.87336750265985L332.7569794089485 389.97167611350176A512.6452140770859 512.6452140770859 0 0 1 307.5959109253875 410.1095842553821L241.2932096924578 321.53007162054314A402 402 0 0 0 260.8552914023075 305.87336750265985" fill="#5954d6"/><path d="M240.4926377052668 322.1293082126544L325.2957163146542 435.42507495319063A543.5184439838778 543.5184439838778 0 0 1 297.6837777690142 454.74901583601456L220.28337090110736 336.2725628183857A402 402 0 0 0 240.4926377052668 322.1293082126544" fill="#00c6f8"/><path d="M219.44619108268677 336.81949055733236L288.91972931734256 443.1623215798331A529.0250024874381 529.0250024874381 0 0 1 262.0058284008184 459.58720515353207L199.1994970945347 349.17554375598024A402 402 0 0 0 219.44619108268677 336.81949055733236" fill="#878500"/><path d="M198.330285566578 349.66998416661335L264.3390909100903 465.71149961993865A535.5019662535565 535.5019662535565 0 0 1 236.4378461381791 480.47840822971835L177.60514028893652 360.63889715745745A402 402 0 0 0 198.330285566578 349.66998416661335" fill="#00a76c"/><path d="M176.7074797911244 361.0795848367356L235.0626722120412 479.946423057137A534.4184024458793 534.4184024458793 0 0 1 206.99537242336572 492.7026939931605L155.820189669399 370.57262242560836A402 402 0 0 0 176.7074797911244 361.0795848367356" fill="#bdbdbd"/><path d="M154.89788583359004 370.9590879925765L197.86657829030287 473.50429061807586A513.1836864496374 513.1836864496374 0 0 1 172.7781118071207 483.22377851095644L135.44691044686476 378.4945633036213A402 402 0 0 0 154.89788583359004 370.9590879925765" fill="#ebac23"/><path d="M134.50496334028244 378.83032460038L168.27345557849554 473.5646905457573A502.57285241448005 502.57285241448005 0 0 1 144.49113575483312 481.3541146311155L115.67198237390788 384.99869154802377A402 402 0 0 0 134.50496334028244 378.83032460038" fill="#b80058"/><path d="M114.71391703963451 385.28524139580514L145.20421448692338 487.2280525405411A508.40479845022384 508.40479845022384 0 0 1 122.08561653478087 493.52866312154066L96.63571634342846 390.2121709106373A402 402 0 0 0 114.71391703963451 385.28524139580514" fill="#008cf9"/><path d="M95.66474106293067 390.45135076903296L122.57782080908571 499.7077711501964A514.5222820269316 514.5222820269316 0 0 1 99.85031430044835 504.74061995871017L78.12104130980931 394.33628149673353A402 402 0 0 0 95.66474106293067 390.45135076903296" fill="#006e00"/><path d="M77.13986433977587 394.52939222527004L103.31417159987674 527.518520715526A537.5403312787475 537.5403312787475 0 0 1 80.70750241243675 531.4469934110195L60.481817776071004 397.4241433512842A402 402 0 0 0 77.13986433977587 394.52939222527004" fill="#00bbad"/><path d="M59.49301413903919 397.57336589446237L76.1250617191024 507.78345069927144A513.4579416328046 513.4579416328046 0 0 1 55.83598562563787 510.41297057873646L43.82338277883598 399.6041930733706A402 402 0 0 0 59.49301413903919 397.57336589446237" fill="#d163e6"/><path d="M42.82920767765164 399.7119700105372L59.009514368215356 548.9652190281378A552.1276432932732 552.1276432932732 0 0 1 39.29708383760319 550.7274041578504L28.74751968708822 400.9707970810848A402 402 0 0 0 42.82920767765164 399.7119700105372" fill="#b24502"/><path d="M27.749991720537828 401.04106767201546L36.08555809103331 519.3688127711022A520.6209092823736 520.6209092823736 0 0 1 19.480312931738588 520.256329697282L15.155661825392434 401.7142092515951A402 402 0 0 0 27.749991720537828 401.04106767201546" fill="#ff9287"/><path d="M14.156326629240958 401.7506669768779L19.814059132252858 556.8336069248749A557.1860216662498 557.1860216662498 0 0 1 2.022561486231151 557.1823507482061L1.5985006388768694 401.9968218726455A402 402 0 0 0 14.156326629240958 401.7506669768779" fill="#5954d6"/><path d="M0.5985043724227264 401.99955446805683L0.9311072658765286 523.7159455194844A523.716773220133 523.716773220133 0 0 1 -15.519608992108637 523.4867718374937L-11.796549537094112 401.82687991101204A402 402 0 0 0 0.5985043724227264 401.99955446805683" fill="#00c6f8"/><path d="M-12.796081618622004 401.79629203765626L-16.37798420653793 518.8435449763924A519.1019770048457 519.1019770048457 0 0 1 -32.24837132207534 518.099319703677L-24.86102423402564 401.23051912091034A402 402 0 0 0 -12.796081618622004 401.79629203765626" fill="#878500"/><path d="M-25.85903241088821 401.1674344245463L-32.62544593693441 508.21298455380145A509.2591259777936 509.2591259777936 0 0 1 -47.81012106746488 507.0099108648475L-37.63560493850277 400.234382881972A402 402 0 0 0 -25.85903241088821 401.1674344245463" fill="#00a76c"/><path d="M-38.63109564210564 400.1395237282747L-48.37699815365708 502.4170053451519A504.7407069083584 504.7407069083584 0 0 1 -63.152159095808585 500.774386337687L-50.196467386989944 398.8537509687816A402 402 0 0 0 -38.63109564210564 400.1395237282747" fill="#bdbdbd"/><path d="M-51.18848482241241 398.7276501844155L-65.994804367875 515.2069188691898A519.4164836181444 519.4164836181444 0 0 1 -80.82718970900073 513.0891236987812L-62.44417897685937 397.1205415385937A402 402 0 0 0 -51.18848482241241 398.7276501844155" fill="#ebac23"/><path d="M-63.431847055163225 396.9639791960605L-84.47550923630016 529.7171882412758A536.4106739979877 536.4106739979877 0 0 1 -95.20185676107077 527.894892614259L-71.22342629152516 395.64027038118314A402 402 0 0 0 -63.431847055163225 396.9639791960605" fill="#b80058"/><path d="M-72.20738494327613 395.46187371180747L-94.15551462117061 516.518237386619A525.0298567572678 525.0298567572678 0 0 1 -103.70855697018828 514.685229725624L-79.29174818495879 394.10254841826776A402 402 0 0 0 -72.20738494327613 395.46187371180747" fill="#008cf9"/><path d="M-80.27185669740696 393.90408606963064L-98.56954741841113 484.26743487081114A494.19723203861196 494.19723203861196 0 0 1 -106.74207982339557 482.53189796074776L-86.73724102542415 392.53108287025816A402 402 0 0 0 -80.27185669740696 393.90408606963064" fill="#006e00"/><path d="M-87.71341738639042 392.3141042715656L-109.20361083848023 488.9974590675321A501.0428560459324 501.0428560459324 0 0 1 -117.44190569698416 487.0845330955661L-94.13067611079295 390.8240215428486A402 402 0 0 0 -87.71341738639042 392.3141042715656" fill="#00bbad"/><path d="M-95.1025831786702 390.5886566104347L-125.65083258213507 516.7334446296574A531.790921817414 531.790921817414 0 0 1 -132.3959977357436 515.0464875241572L-99.96473108913132 389.37263968886884A402 402 0 0 0 -95.1025831786702 390.5886566104347" fill="#d163e6"/><path d="M-100.93300970671345 389.1227666836579L-134.8392042369784 520.5120823863583A537.6936292252724 537.6936292252724 0 0 1 -141.33597719543172 518.7856787341542L-105.54634818791803 387.8968527639722A402 402 0 0 0 -100.93300970671345 389.1227666836579" fill="#b24502"/><path d="M-106.51093842715886 387.6330997159117L-146.15441256552185 532.61609985431A552.3051893078583 552.3051893078583 0 0 1 -152.74084823840678 530.7647835113038L-111.0429469902545 386.35924205811295A402 402 0 0 0 -106.51093842715886 387.6330997159117" fill="#ff9287"/><path d="M-112.00369532381822 386.08182064662054L-143.12174595476893 493.84789078017076A514.168817989933 514.168817989933 0 0 1 -147.7299548148558 492.48901900810495L-115.39735183645679 385.0810968992544A402 402 0 0 0 -112.00369532381822 386.08182064662054" fill="#5954d6"/><path d="M-116.35490723445675 384.7928475978484L-159.78724904735063 529.0737639707393A552.676227714098 552.676227714098 0 0 1 -164.7428911608286 527.5516965115901L-119.69887941694888 383.765785690083A402 402 0 0 0 -116.35490723445675 384.7928475978484" fill="#00c6f8"/><path d="M-120.65314959019643 383.4668401491395L-159.5421707044585 507.6052795418238A532.0872334982523 532.0872334982523 0 0 1 -163.80338058245982 506.2462607877529L-123.63963466402072 382.51436671077795A402 402 0 0 0 -120.65314959019643 383.4668401491395" fill="#878500"/><path d="M-124.5907796645115 382.20562217553675L-160.71978338184164 493.50774200612284A519.019017175949 519.019017175949 0 0 1 -164.37589628064518 492.30204642294814L-127.20846020947296 381.3423758922354A402 402 0 0 0 -124.5907796645115 382.20562217553675" fill="#00a76c"/><path d="M-128.15667877028773 381.0247573144943L-161.90018318873956 481.7626216550242A508.2390116278653 508.2390116278653 0 0 1 -164.82708617459983 480.76909697240364L-130.27382081742923 380.3061025143146A402 402 0 0 0 -128.15667877028773 381.0247573144943" fill="#bdbdbd"/><path d="M-131.21945210159242 379.9808618735395L-169.03868780199505 489.93960607049695A518.2807111694724 518.2807111694724 0 0 1 -171.87622909922754 488.9513855599183L-133.20849044517956 379.2881464972462A402 402 0 0 0 -131.21945210159242 379.9808618735395" fill="#ebac23"/><path d="M-134.15158042258582 378.95560883845286L-179.22757972140673 506.7929290221082A537.5514842688101 537.5514842688101 0 0 1 -182.05983400780326 505.78237917176585L-136.03214120890797 378.2846237400084A402 402 0 0 0 -134.15158042258582 378.95560883845286" fill="#b80058"/><path d="M-136.97272612665142 377.9450651846553L-188.34415828644694 520.2451001289647A553.288790930041 553.288790930041 0 0 1 -190.8305723704974 519.3382123602836L-138.52238491718603 377.37984694052614A402 402 0 0 0 -136.97272612665142 377.9450651846553" fill="#008cf9"/><path d="M-139.46071144334323 377.0340965532382L-173.86963394826657 470.4159289674066A501.51948699484484 501.51948699484484 0 0 1 -175.80587544555738 469.69574193768625L-140.82674616416938 376.5259985244214A402 402 0 0 0 -139.46071144334323 377.0340965532382" fill="#006e00"/><path d="M-141.76294156128026 376.1745185414518L-195.30182233375712 518.7796629999563A554.3240393030368 554.3240393030368 0 0 1 -195.2891931407347 518.7844172598822L-141.496609285478 376.2747793311595A402 402 0 0 0 -141.76294156128026 376.1745185414518" fill="#00bbad"/><path d="M-142.4321776871609 375.9216338005742L-179.1323423072622 473.1492960004082A505.9235637585662 505.9235637585662 0 0 1 -178.72825414311242 473.30208486454296L-141.91895693208517 376.1156865424639A402 402 0 0 0 -142.4321776871609 375.9216338005742" fill="#d163e6"/><path d="M-142.85412827413214 375.76149088888525L-175.1203119980829 460.95285343383034A493.0970054290496 493.0970054290496 0 0 1 -174.683595996289 461.118529288188L-142.32536064839888 375.9620881369599A402 402 0 0 0 -142.85412827413214 375.76149088888525" fill="#b24502"/><path d="M-143.26014864774945 375.60688200487584L-165.3292062624796 433.68552522589334A464.13024167127975 464.13024167127975 0 0 1 -164.75076875186906 433.9055950659183L-142.63402818729364 375.84509309430433A402 402 0 0 0 -143.26014864774945 375.60688200487584" fill="#ff9287"/><path d="M-143.56852419941285 375.4891194950962L-194.70952187242307 509.7436217602276A545.6650601174878 545.6650601174878 0 0 1 -194.0543646533825 509.993393478772L-142.83984706348483 375.76691989966366A402 402 0 0 0 -143.56852419941285 375.4891194950962" fill="#5954d6"/><path d="M-143.77414797827117 375.41043455546384L-193.71296334101655 506.29346140607163A542.0865071452151 542.0865071452151 0 0 1 -193.03225468765712 506.5533830497027L-143.0279287802078 375.6953707311867A402 402 0 0 0 -143.77414797827117 375.41043455546384" fill="#00c6f8"/><path d="M-143.962051130204 375.33841774375367L-198.717144424756 518.6288739755122A555.3957259553201 555.3957259553201 0 0 1 -197.90105016552963 518.9408316492522L-143.11336966702657 375.66283210153887A402 402 0 0 0 -143.962051130204 375.33841774375367" fill="#878500"/><path d="M-71.89988256601208 186.62906227861103L-112.23625139201192 292.1147149257589A312.93447046097094 312.93447046097094 0 0 1 -308.490729012851 -52.549528216797704L-197.19017493035878 -33.40710868863845A200 200 0 0 0 -71.89988256601208 186.62906227861103" fill="#00a76c"/><path d="M-197.02067503171583 -34.39263889333041L-355.6188694915827 -61.6697104208377A360.9264932390823 360.9264932390823 0 0 1 -303.6641796492552 -195.07946975478018L-168.38965691941974 -107.91164646394809A200 200 0 0 0 -197.02067503171583 -34.39263889333041" fill="#bdbdbd"/><path d="M-167.84799550251057 -108.75224322187194L-211.16348088676094 -136.66375604436882A251.52931812488222 251.52931812488222 0 0 1 -181.76421220735207 -173.86422586894892L-144.59804230733215 -138.1716546940326A200 200 0 0 0 -167.84799550251057 -108.75224322187194" fill="#ebac23"/><path d="M-143.90537871726858 -138.8929155005377L-144.6667904546283 -139.6241380801641A201.05566441926493 201.05566441926493 0 0 1 -127.3891409293686 -155.54866430911432L-126.72230161257745 -154.7302758803556A200 200 0 0 0 -143.90537871726858 -138.8929155005377" fill="#b80058"/><path d="M-125.9470686220698 -155.36195127993096L-222.4772855348933 -273.8300897921881A352.81590192984817 352.81590192984817 0 0 1 -189.0787606264519 -297.8729308522967L-107.36545328711526 -168.73843498282267A200 200 0 0 0 -125.9470686220698 -155.36195127993096" fill="#008cf9"/><path d="M-106.52042168057719 -169.27315134123316L-168.40685827012507 -267.0745260544345A315.7367137024372 315.7367137024372 0 0 1 -137.35098762623534 -284.29628660556324L-87.16848830534249 -180.004596181768A200 200 0 0 0 -106.52042168057719 -169.27315134123316" fill="#006e00"/><path d="M-86.26737853090599 -180.4381872038327L-124.61794071674723 -260.1401752114139A288.4485082428194 288.4485082428194 0 0 1 -97.2584793971397 -271.5572317079109L-67.57991190802495 -188.23643511951556A200 200 0 0 0 -86.26737853090599 -180.4381872038327" fill="#00bbad"/><path d="M-66.63788792472735 -188.57198066767893L-74.62126983427206 -210.98484612746282A223.79217861021954 223.79217861021954 0 0 1 -60.47387602535469 -215.46658563586706L-54.095850945168465 -192.54516070397125A200 200 0 0 0 -66.63788792472735 -188.57198066767893" fill="#d163e6"/><path d="M-53.132451952034565 -192.8132322989393L-89.64196017416884 -324.0215517227391A336.19287173388875 336.19287173388875 0 0 1 -68.11745318965035 -329.2197739742174L-40.72117212865385 -195.81058740647438A200 200 0 0 0 -53.132451952034565 -192.8132322989393" fill="#b24502"/><path d="M-39.74161323651501 -196.01174499850578L-65.69220569608608 -322.3809928272263A329.00603402595067 329.00603402595067 0 0 1 -49.09392651177305 -325.3225427251263L-30.03763012497631 -197.73148655809757A200 200 0 0 0 -39.74161323651501 -196.01174499850578" fill="#ff9287"/><path d="M-29.0486003113685 -197.87920259580176L-47.47250467467979 -321.23609045696634A324.72490590061574 324.72490590061574 0 0 1 -33.55490954652253 -322.986582627651L-20.85767806781444 -198.90941975084894A200 200 0 0 0 -29.0486003113685 -197.87920259580176" fill="#5954d6"/><path d="M-19.862873356048823 -199.0112214475394L-24.213982729009153 -241.53019948372767A242.74091995839933 242.74091995839933 0 0 1 -17.615055477571747 -242.1009377155985L-14.601266761312331 -199.4662954209683A200 200 0 0 0 -19.862873356048823 -199.0112214475394" fill="#00c6f8"/><path d="M-13.603755885038646 -199.53680819793695L-27.706333314071834 -399.0392951756626A400 400 0 0 1 -16.774341991957243 -399.64812204079834L-8.636944910036286 -199.81342092717648A200 200 0 0 0 -13.603755885038646 -199.53680819793695" fill="url(#diagonalHatch)"/><path d="M-7.6377729656785425 -199.8541078490126L-11.937852847789602 -305.4536219633601A305.68681276945983 305.68681276945983 0 0 1 -8.408616128616824 -305.5711417590875L-5.674258893954866 -199.9194907606669A200 200 0 0 0 -7.6377729656785425 -199.8541078490126" fill="#00a76c"/><path d="M-4.674593635662215 -199.94536297284174L-7.680159509593614 -316.0761277244465A316.16942193604586 316.16942193604586 0 0 1 -7.328036944438827 -316.08448750597415L-4.819175691825488 -199.94193043394205A200 200 0 0 0 -4.674593635662215 -199.94536297284174" fill="#bdbdbd"/><path d="M-3.819408924057108 -199.963526962971L-5.561453789121082 -280.6079009601304A280.66300762569136 280.66300762569136 0 0 1 -5.38484161988221 -280.61134569049L-3.9809030238181693 -199.96037710285245A200 200 0 0 0 -3.819408924057108 -199.963526962971" fill="#ebac23"/><path d="M-2.981054501401817 -199.97778205105604L-4.856629923919124 -307.7225045832699A307.76082707391214 307.76082707391214 0 0 1 -4.921368103033222 -307.72147604158687L-3.3732261738345635 -199.97155133963471A200 200 0 0 0 -2.981054501401817 -199.97778205105604" fill="#b80058"/><path d="M-2.3733293763695227 -199.9859177734054L-3.2569691627036357 -261.4868167836362A261.50709971196903 261.50709971196903 0 0 1 -3.747581813164526 -261.4802455833315L-2.983730457758993 -199.9777421428581A200 200 0 0 0 -2.3733293763695227 -199.9859177734054" fill="#008cf9"/><path d="M-1.9838075750710176 -199.99016102674923L-3.5806020478973983 -328.5581826238294A328.5776926087634 328.5776926087634 0 0 1 -4.0086356896423885 -328.55323909528994L-2.635635217537739 -199.98263281345226A200 200 0 0 0 -1.9838075750710176 -199.99016102674923" fill="#006e00"/><path d="M-1.6356922327637122 -199.99331116544792L-2.4076840322078183 -272.2842212676038A272.29486608032914 272.29486608032914 0 0 1 -3.0826078215713917 -272.27741665941153L-2.3969112509292874 -199.9856365253644A200 200 0 0 0 -1.6356922327637122 -199.99331116544792" fill="#00bbad"/><path d="M-1.3969562316922157 -199.9951212237107L-1.8596065846427465 -248.7715319954767A248.77848232519253 248.77848232519253 0 0 1 -2.5671965376474684 -248.76523625692403L-2.1618720584658733 -199.9883154316842A200 200 0 0 0 -1.3969562316922157 -199.9951212237107" fill="#d163e6"/><path d="M-1.1619065827289663 -199.99662490425433L-2.4568465395952637 -355.830252019553A355.8387336241204 355.8387336241204 0 0 1 -3.0539337035142538 -355.82562841390757L-1.9354357564411266 -199.99063500182373A200 200 0 0 0 -1.1619065827289663 -199.99662490425433" fill="#b24502"/><path d="M-0.9354615133435407 -199.99781226742718L-2.3709168769357 -399.99297337973655A400 400 0 0 1 -2.930586169305925 -399.98926443681495L-1.7152856207774156 -199.99264435283402A200 200 0 0 0 -0.9354615133435407 -199.99781226742718" fill="url(#diagonalHatch)"/><path d="M-0.7153040828328704 -199.99872084608214L-1.460007129106496 -322.55119759864425A322.554501895628 322.554501895628 0 0 1 -2.1236345076519205 -322.5475110268479L-1.5067306413539312 -199.99432432640282A200 200 0 0 0 -0.7153040828328704 -199.99872084608214" fill="#5954d6"/><path d="M-0.5067433105050342 -199.99935802701282L-0.9485477082678102 -287.7675498021653A287.7691131130938 287.7691131130938 0 0 1 -1.72916951234161 -287.7639178818188L-1.354272031895889 -199.99541481559928A200 200 0 0 0 -0.5067433105050342 -199.99935802701282" fill="#00c6f8"/><path d="M-0.354281154350667 -199.99968621191303L-1.090728061748063 -372.4117348955772A372.4133321668793 372.4133321668793 0 0 1 -1.829146418167562 -372.40884011932275L-1.2137986760723845 -199.99631669801815A200 200 0 0 0 -0.354281154350667 -199.99968621191303" fill="#878500"/><path d="M-0.21380504504610798 -199.99988571847413L-0.7944220676575899 -362.68130820807556A362.68217826348 362.68217826348 0 0 1 -1.5565556189937015 -362.67883804345087L-1.0826322101409798 -199.99706974727795A200 200 0 0 0 -0.21380504504610798 -199.99988571847413" fill="#00a76c"/><path d="M-0.0826364534609947 -199.99998292804065L-0.5033368993738471 -344.41212038670903A344.4124881843038 344.4124881843038 0 0 1 -1.2964578571438852 -344.4100480739896L-0.9625007916222773 -199.9976839671553A200 200 0 0 0 -0.0826364534609947 -199.99998292804065" fill="#bdbdbd"/><path d="M0.03749653450476584 -199.99999648502472L-0.21373314138590324 -308.63872635438645A308.63880035976285 308.63880035976285 0 0 1 -1.0391727737216694 -308.63705093112185L-0.8493866495458691 -199.998196347666A200 200 0 0 0 0.03749653450476584 -199.99999648502472" fill="#ebac23"/><path d="M0.15061182454894592 -199.99994329018773L-0.0727491176549221 -327.8579572787809A327.857965350011 327.857965350011 0 0 1 -0.9223822019941508 -327.85666785124636L-0.7576610316692424 -199.99856486925373A200 200 0 0 0 0.15061182454894592 -199.99994329018773" fill="#b80058"/><path d="M0.24233813845752944 -199.99985318051273L0.0481623600835739 -350.7208966201334A350.7208999270548 350.7208999270548 0 0 1 -0.8065257599869349 -350.7199725733362L-0.6747970934954636 -199.99886161896674A200 200 0 0 0 0.24233813845752944 -199.99985318051273" fill="#008cf9"/><path d="M0.3252025245760094 -199.99973560812026L0.21755765488399406 -323.16468353220796A323.16475676318004 323.16475676318004 0 0 1 -0.6785960867808186 -323.1640442888972L-0.6105291908672529 -199.9990681330968A200 200 0 0 0 0.3252025245760094 -199.99973560812026" fill="#006e00"/><path d="M0.3894706564228609 -199.99962078115993L0.31182100333732554 -340.50430433434224A340.5044471112712 340.5044471112712 0 0 1 -0.5930680236011605 -340.5039306276388L-0.5546646722354263 -199.9992308662745A200 200 0 0 0 0.3894706564228609 -199.99962078115993" fill="#00bbad"/><path d="M0.44533529041155046 -199.99950419058322L0.4082597601939061 -335.64616148656074A335.6464097777514 335.6464097777514 0 0 1 -0.5381184366162506 -335.6459784136291L-0.5227134010629977 -199.9993169255844A200 200 0 0 0 0.44533529041155046 -199.99950419058322" fill="#d163e6"/><path d="M0.477286592488294 -199.99943049296073L0.4545730817311389 -399.9997417040583A400 400 0 0 1 -0.5210445923343895 -399.99966064052205L-0.5105222711596048 -199.99934841646524A200 200 0 0 0 0.477286592488294 -199.99943049296073" fill="url(#diagonalHatch)"/><path d="M0.48947772745647516 -199.9994010279889L0.48569346220759774 -271.92784901059747A271.92828276159423 271.92828276159423 0 0 1 -0.5000000000002026 -271.92782308118007L-0.5000000000002475 -199.99937499902342A200 200 0 0 0 0.48947772745647516 -199.9994010279889" fill="#ff9287"/></g><g><defs><path d="M98.33720414577272 18.160239007034605L491.6860207288636 90.80119503517304" stroke="#aaa" stroke-width="2" fill="none" id="textpath-2092821981621893704"/></defs><text text-anchor="middle" dominant-baseline="middle" class="label"><textPath href="#textpath-2092821981621893704" startOffset="50%"><tspan>United States | 58.3%</tspan></textPath></text><defs><path d="M62.56282029535545 -295.4486309270887L145.42748293821035 -686.7713208967426" stroke="#aaa" stroke-width="2" fill="none" id="textpath-CAA"/></defs><text text-anchor="middle" dominant-baseline="middle" class="label"><textPath href="#textpath-CAA" startOffset="50%"><tspan>California | 62.2%</tspan></textPath></text><defs><path d="M163.0907037373139 -254.17596730310225L379.104880872829 -590.832877638337" stroke="#aaa" stroke-width="2" fill="none" id="textpath-TXA"/></defs><text text-anchor="middle" dominant-baseline="middle" class="label"><textPath href="#textpath-TXA" startOffset="50%"><tspan>Texas | 54.0%</tspan></textPath></text><defs><path d="M224.28489347180235 -202.23819263517532L521.3509775404148 -470.10334844335455" stroke="#aaa" stroke-width="2" fill="none" id="textpath-FLA"/></defs><text text-anchor="middle" dominant-baseline="middle" class="label"><textPath href="#textpath-FLA" startOffset="50%"><tspan>Florida | 60.4%</tspan></textPath></text><defs><path d="M262.4426371462956 -149.42510568073158L610.048779061919 -347.33915293997865" stroke="#aaa" stroke-width="2" fill="none" id="textpath-NYA"/></defs><text text-anchor="middle" dominant-baseline="middle" class="label"><textPath href="#textpath-NYA" startOffset="50%"><tspan>New York State | 67.6%</tspan></textPath></text><defs><path d="M283.9754082085085 -102.77143344729093L660.1017766965992 -238.89253735098754" stroke="#aaa" stroke-width="2" fill="none" id="textpath-PAA"/></defs><text text-anchor="middle" dominant-baseline="middle" class="label"><textPath href="#textpath-PAA" startOffset="50%"><tspan>Pennsylvania | 61.5%</tspan></textPath></text><defs><path d="M295.19389690410287 -63.753927177624675L686.1791908168219 -148.1962148301077" stroke="#aaa" stroke-width="2" fill="none" id="textpath-ILA"/></defs><text text-anchor="middle" dominant-baseline="middle" class="label"><textPath href="#textpath-ILA" startOffset="50%"><tspan>Illinois | 61.2%</tspan></textPath></text><defs><path d="M300.9338871572441 -25.353413190950825L699.5218171668389 -58.9340929140645" stroke="#aaa" stroke-width="2" fill="none" id="textpath-OHA"/></defs><text text-anchor="middle" dominant-baseline="middle" class="label"><textPath href="#textpath-OHA" startOffset="50%"><tspan>Ohio | 52.4%</tspan></textPath></text><defs><path d="M301.8279664136473 10.192089609212623L701.6001073588754 23.69154604525583" stroke="#aaa" stroke-width="2" fill="none" id="textpath-GAA"/></defs><text text-anchor="middle" dominant-baseline="middle" class="label"><textPath href="#textpath-GAA" startOffset="50%"><tspan>Georgia | 48.8%</tspan></textPath></text><defs><path d="M298.82126813530766 43.70182730740844L694.6110272549205 101.58504228410837" stroke="#aaa" stroke-width="2" fill="none" id="textpath-NCA"/></defs><text text-anchor="middle" dominant-baseline="middle" class="label"><textPath href="#textpath-NCA" startOffset="50%"><tspan>North Carolina | 53.4%</tspan></textPath></text><defs><path d="M292.3595669382752 75.69599473990813L679.5907814260569 175.95559042190564" stroke="#aaa" stroke-width="2" fill="none" id="textpath-MIA"/></defs><text text-anchor="middle" dominant-baseline="middle" class="label"><textPath href="#textpath-MIA" startOffset="50%"><tspan>Michigan | 54.0%</tspan></textPath></text><defs><path d="M283.37838867896943 104.40636393300431L658.7140028232998 242.6929386787054" stroke="#aaa" stroke-width="2" fill="none" id="textpath-NJA"/></defs><text text-anchor="middle" dominant-baseline="middle" class="label"><textPath href="#textpath-NJA" startOffset="50%"><tspan>New Jersey | 67.0%</tspan></textPath></text><defs><path d="M272.58985552802517 129.99527169559036L633.6360217903102 302.1744395043193" stroke="#aaa" stroke-width="2" fill="none" id="textpath-VAA"/></defs><text text-anchor="middle" dominant-baseline="middle" class="label"><textPath href="#textpath-VAA" startOffset="50%"><tspan>Virginia | 64.0%</tspan></textPath></text><defs><path d="M260.5245403843536 152.74476703809304L605.590156787471 355.0557167574216" stroke="#aaa" stroke-width="2" fill="none" id="textpath-WAA"/></defs><text text-anchor="middle" dominant-baseline="middle" class="label"><textPath href="#textpath-WAA" startOffset="50%"><tspan>Washington | 64.2%</tspan></textPath></text><defs><path d="M247.71706855779462 172.74331809112874L575.8191461177875 401.54241490057075" stroke="#aaa" stroke-width="2" fill="none" id="textpath-AZA"/></defs><text text-anchor="middle" dominant-baseline="middle" class="label"><textPath href="#textpath-AZA" startOffset="50%"><tspan>Arizona | 53.8%</tspan></textPath></text><defs><path d="M234.10735605781474 190.7819326865612L544.1833243463111 443.4732342581654" stroke="#aaa" stroke-width="2" fill="none" id="textpath-MAA"/></defs><text text-anchor="middle" dominant-baseline="middle" class="label"><textPath href="#textpath-MAA" startOffset="50%"><tspan>Massachusetts | 70.3%</tspan></textPath></text><defs><path d="M219.6795814225498 207.23146842604123L510.6459144325495 481.71023455324814" stroke="#aaa" stroke-width="2" fill="none" id="textpath-TNA"/></defs><text text-anchor="middle" dominant-baseline="middle" class="label"><textPath href="#textpath-TNA" startOffset="50%"><tspan>Tennessee | 48.8%</tspan></textPath></text><defs><path d="M204.28701598071956 222.4203567610061L474.8658450942554 517.0168557822062" stroke="#aaa" stroke-width="2" fill="none" id="textpath-INA"/></defs><text text-anchor="middle" dominant-baseline="middle" class="label"><textPath href="#textpath-INA" startOffset="50%"><tspan>Indiana | 50.2%</tspan></textPath></text><defs><path d="M188.70963017177328 235.78099049845505L438.6561602006121 548.0736931454154" stroke="#aaa" stroke-width="2" fill="none" id="textpath-MOA"/></defs><text text-anchor="middle" dominant-baseline="middle" class="label"><textPath href="#textpath-MOA" startOffset="50%"><tspan>Missouri | 50.4%</tspan></textPath></text><defs><path d="M173.159068589009 247.42662945889006L402.50882830955067 575.144019470665" stroke="#aaa" stroke-width="2" fill="none" id="textpath-MDA"/></defs><text text-anchor="middle" dominant-baseline="middle" class="label"><textPath href="#textpath-MDA" startOffset="50%"><tspan>Maryland | 66.6%</tspan></textPath></text><defs><path d="M157.32096100203972 257.78695705833275L365.6930947795758 599.22663528129" stroke="#aaa" stroke-width="2" fill="none" id="textpath-WIA"/></defs><text text-anchor="middle" dominant-baseline="middle" class="label"><textPath href="#textpath-WIA" startOffset="50%"><tspan>Wisconsin | 58.9%</tspan></textPath></text><defs><path d="M141.26967094895343 266.9211120724144L328.3818179012096 620.4590088570693" stroke="#aaa" stroke-width="2" fill="none" id="textpath-COA"/></defs><text text-anchor="middle" dominant-baseline="middle" class="label"><textPath href="#textpath-COA" startOffset="50%"><tspan>Colorado | 62.3%</tspan></textPath></text><defs><path d="M124.95555982319969 274.9365528067717L290.45961256915956 639.0909273852773" stroke="#aaa" stroke-width="2" fill="none" id="textpath-MNA"/></defs><text text-anchor="middle" dominant-baseline="middle" class="label"><textPath href="#textpath-MNA" startOffset="50%"><tspan>Minnesota | 61.8%</tspan></textPath></text><defs><path d="M109.09658571733172 281.60599245190235L253.59537474691018 654.5940619246207" stroke="#aaa" stroke-width="2" fill="none" id="textpath-SCA"/></defs><text text-anchor="middle" dominant-baseline="middle" class="label"><textPath href="#textpath-SCA" startOffset="50%"><tspan>South Carolina | 50.7%</tspan></textPath></text><defs><path d="M94.00049665126382 286.9980951667027L218.50446572578542 667.1280225398189" stroke="#aaa" stroke-width="2" fill="none" id="textpath-ALA"/></defs><text text-anchor="middle" dominant-baseline="middle" class="label"><textPath href="#textpath-ALA" startOffset="50%"><tspan>Alabama | 45.3%</tspan></textPath></text><defs><path d="M79.40911701834646 291.3729433807583L184.58675545324246 677.2973716996433" stroke="#aaa" stroke-width="2" fill="none" id="textpath-LAA"/></defs><text text-anchor="middle" dominant-baseline="middle" class="label"><textPath href="#textpath-LAA" startOffset="50%"><tspan>Louisiana | 48.2%</tspan></textPath></text><defs><path d="M65.29405281089461 294.8570614171011L151.7762419643974 685.3962156119369" stroke="#aaa" stroke-width="2" fill="none" id="textpath-KYA"/></defs><text text-anchor="middle" dominant-baseline="middle" class="label"><textPath href="#textpath-KYA" startOffset="50%"><tspan>Kentucky | 51.4%</tspan></textPath></text><defs><path d="M51.70515068738589 297.5408835645863L120.18879398193673 691.6347690805947" stroke="#aaa" stroke-width="2" fill="none" id="textpath-ORA"/></defs><text text-anchor="middle" dominant-baseline="middle" class="label"><textPath href="#textpath-ORA" startOffset="50%"><tspan>Oregon | 63.4%</tspan></textPath></text><defs><path d="M38.81539678461523 299.49518355468234L90.22651835364202 696.1775458787649" stroke="#aaa" stroke-width="2" fill="none" id="textpath-OKA"/></defs><text text-anchor="middle" dominant-baseline="middle" class="label"><textPath href="#textpath-OKA" startOffset="50%"><tspan>Oklahoma | 50.8%</tspan></textPath></text><defs><path d="M26.889943299085683 300.8004836255619L62.50576223827201 699.2117202157102" stroke="#aaa" stroke-width="2" fill="none" id="textpath-CTA"/></defs><text text-anchor="middle" dominant-baseline="middle" class="label"><textPath href="#textpath-CTA" startOffset="50%"><tspan>Connecticut | 71.3%</tspan></textPath></text><defs><path d="M16.118286018712052 301.56956221710936L37.46700922230418 700.9994459483801" stroke="#aaa" stroke-width="2" fill="none" id="textpath-UTA"/></defs><text text-anchor="middle" dominant-baseline="middle" class="label"><textPath href="#textpath-UTA" startOffset="50%"><tspan>Utah | 54.5%</tspan></textPath></text><defs><path d="M5.918580270586094 301.94199841622003L13.757759436925292 701.8651751264453" stroke="#aaa" stroke-width="2" fill="none" id="textpath-PRA"/></defs><text text-anchor="middle" dominant-baseline="middle" class="label"><textPath href="#textpath-PRA" startOffset="50%"><tspan>Puerto Rico | 74.1%</tspan></textPath></text><defs><path d="M-9.778560001327826 701.9318911150144L-4.20673094074217 301.9706995964877" stroke="#aaa" stroke-width="2" fill="none" id="textpath-IAA"/></defs><text text-anchor="middle" dominant-baseline="middle" class="label"><textPath href="#textpath-IAA" startOffset="50%"><tspan>Iowa | 56.1%</tspan></textPath></text><defs><path d="M-32.88342259565761 701.2294064843512L-14.146429663658974 301.6684911086525" stroke="#aaa" stroke-width="2" fill="none" id="textpath-NVA"/></defs><text text-anchor="middle" dominant-baseline="middle" class="label"><textPath href="#textpath-NVA" startOffset="50%"><tspan>Nevada | 53.7%</tspan></textPath></text><defs><path d="M-55.4453330558722 699.8069841337134L-23.852550687853853 301.0565658239052" stroke="#aaa" stroke-width="2" fill="none" id="textpath-ARA"/></defs><text text-anchor="middle" dominant-baseline="middle" class="label"><textPath href="#textpath-ARA" startOffset="50%"><tspan>Arkansas | 48.7%</tspan></textPath></text><defs><path d="M-77.56651931654383 697.7015372500739L-33.36907241253025 300.1508037742483" stroke="#aaa" stroke-width="2" fill="none" id="textpath-MSA"/></defs><text text-anchor="middle" dominant-baseline="middle" class="label"><textPath href="#textpath-MSA" startOffset="50%"><tspan>Mississippi | 46.4%</tspan></textPath></text><defs><path d="M-99.22650198384285 694.9518697752028L-42.68718461413182 298.96789839332087" stroke="#aaa" stroke-width="2" fill="none" id="textpath-KSA"/></defs><text text-anchor="middle" dominant-baseline="middle" class="label"><textPath href="#textpath-KSA" startOffset="50%"><tspan>Kansas | 53.9%</tspan></textPath></text><defs><path d="M-117.57782235708024 692.0834167134528L-50.58191218210574 297.73389152060224" stroke="#aaa" stroke-width="2" fill="none" id="textpath-NMA"/></defs><text text-anchor="middle" dominant-baseline="middle" class="small-label-8"><textPath href="#textpath-NMA" startOffset="50%"><tspan>New Mexico | 62.8%</tspan></textPath></text><defs><path d="M-132.2844183525394 689.4235509910656L-56.9086813995255 296.5896188024242" stroke="#aaa" stroke-width="2" fill="none" id="textpath-NEA"/></defs><text text-anchor="middle" dominant-baseline="middle" class="small-label-8"><textPath href="#textpath-NEA" startOffset="50%"><tspan>Nebraska | 56.8%</tspan></textPath></text><defs><path d="M-145.82630409760324 686.6867473843029L-62.734392930877746 295.41224745022714" stroke="#aaa" stroke-width="2" fill="none" id="textpath-WVA"/></defs><text text-anchor="middle" dominant-baseline="middle" class="small-label-7"><textPath href="#textpath-WVA" startOffset="50%"><tspan>West Virginia | 41.1%</tspan></textPath></text><defs><path d="M-158.77965090956613 683.8077379329926L-68.30691534855978 294.1736992247347" stroke="#aaa" stroke-width="2" fill="none" id="textpath-IDA"/></defs><text text-anchor="middle" dominant-baseline="middle" class="small-label-7"><textPath href="#textpath-IDA" startOffset="50%"><tspan>Idaho | 44.5%</tspan></textPath></text><defs><path d="M-170.32327776932095 681.0242147309556L-73.27297704606116 292.97622912927153" stroke="#aaa" stroke-width="2" fill="none" id="textpath-HIA"/></defs><text text-anchor="middle" dominant-baseline="middle" class="small-label-6"><textPath href="#textpath-HIA" startOffset="50%"><tspan>Hawaii | 60.4%</tspan></textPath></text><defs><path d="M-180.2873930116935 678.4544611991635L-77.55953374577128 291.87072262414154" stroke="#aaa" stroke-width="2" fill="none" id="textpath-NHA"/></defs><text text-anchor="middle" dominant-baseline="middle" class="small-label-5"><textPath href="#textpath-NHA" startOffset="50%"><tspan>New Hampshire | 63.5%</tspan></textPath></text><defs><path d="M-189.95702190987961 675.810868384883L-81.7194025880109 290.73345050175874" stroke="#aaa" stroke-width="2" fill="none" id="textpath-MEA"/></defs><text text-anchor="middle" dominant-baseline="middle" class="small-label-5"><textPath href="#textpath-MEA" startOffset="50%"><tspan>Maine | 71.4%</tspan></textPath></text><defs><path d="M-198.5535831624369 673.3353359310332L-85.41763834053553 289.6684778506724" stroke="#aaa" stroke-width="2" fill="none" id="textpath-MTA"/></defs><text text-anchor="middle" dominant-baseline="middle" class="small-label-4"><textPath href="#textpath-MTA" startOffset="50%"><tspan>Montana | 51.2%</tspan></textPath></text><defs><path d="M-206.1086153475602 671.0612778871326L-88.66780888171394 288.69017937594595" stroke="#aaa" stroke-width="2" fill="none" id="textpath-RIA"/></defs><text text-anchor="middle" dominant-baseline="middle" class="small-label-4"><textPath href="#textpath-RIA" startOffset="50%"><tspan>Rhode Island | 71.6%</tspan></textPath></text><defs><path d="M-213.30203733216388 668.8095699599013L-91.76241492067449 287.7214959086755" stroke="#aaa" stroke-width="2" fill="none" id="textpath-DEA"/></defs><text text-anchor="middle" dominant-baseline="middle" class="small-label-4"><textPath href="#textpath-DEA" startOffset="50%"><tspan>Delaware | 60.5%</tspan></textPath></text><defs><path d="M-434.4993087906773 247.4072566850529L-86.89986175813546 49.481451337010576" stroke="#aaa" stroke-width="2" fill="none" id="textpath-7510733420364801679"/></defs><text text-anchor="middle" dominant-baseline="middle" class="label"><textPath href="#textpath-7510733420364801679" startOffset="50%"><tspan>Mexico | 48.3%</tspan></textPath></text><defs><path d="M-465.91602511009097 -181.44491600927563L-93.18320502201819 -36.288983201855125" stroke="#aaa" stroke-width="2" fill="none" id="textpath-5536426322498842060"/></defs><text text-anchor="middle" dominant-baseline="middle" class="label"><textPath href="#textpath-5536426322498842060" startOffset="50%"><tspan>Canada | 75.2%</tspan></textPath></text><defs><path d="M-392.2850293362076 -310.0200892824379L-78.45700586724152 -62.00401785648758" stroke="#aaa" stroke-width="2" fill="none" id="textpath--2120936324437554204"/></defs><text text-anchor="middle" dominant-baseline="middle" class="label"><textPath href="#textpath--2120936324437554204" startOffset="50%"><tspan>Guatemala | 19.4%</tspan></textPath></text><defs><path d="M-338.86336512789717 -367.65693217209633L-67.77267302557944 -73.53138643441926" stroke="#aaa" stroke-width="2" fill="none" id="textpath--8370242020546488715"/></defs><text text-anchor="middle" dominant-baseline="middle" class="label"><textPath href="#textpath--8370242020546488715" startOffset="50%"><tspan>Haiti | 0.4%</tspan></textPath></text><defs><path d="M-292.11957952790306 -405.79077275911675L-58.423915905580614 -81.15815455182334" stroke="#aaa" stroke-width="2" fill="none" id="textpath-9059021321826435430"/></defs><text text-anchor="middle" dominant-baseline="middle" class="label"><textPath href="#textpath-9059021321826435430" startOffset="50%"><tspan>Cuba | 70.4%</tspan></textPath></text><defs><path d="M-242.48246637611243 -437.2667989913681L-48.496493275222484 -87.45335979827362" stroke="#aaa" stroke-width="2" fill="none" id="textpath-2572273921072089437"/></defs><text text-anchor="middle" dominant-baseline="middle" class="label"><textPath href="#textpath-2572273921072089437" startOffset="50%"><tspan>Dominican Republic | 49.7%</tspan></textPath></text><defs><path d="M-192.55600421515047 -461.43491983235833L-38.51120084303009 -92.28698396647167" stroke="#aaa" stroke-width="2" fill="none" id="textpath--2072893925611359658"/></defs><text text-anchor="middle" dominant-baseline="middle" class="label"><textPath href="#textpath--2072893925611359658" startOffset="50%"><tspan>Honduras | 36.0%</tspan></textPath></text><defs><path d="M-150.99887137981025 -476.65432007066033L-30.19977427596205 -95.33086401413206" stroke="#aaa" stroke-width="2" fill="none" id="textpath--9053549367790842453"/></defs><text text-anchor="middle" dominant-baseline="middle" class="label"><textPath href="#textpath--9053549367790842453" startOffset="50%"><tspan>Nicaragua | 8.4%</tspan></textPath></text><defs><path d="M-117.37684297488072 -486.02744442392367L-23.475368594976143 -97.20548888478473" stroke="#aaa" stroke-width="2" fill="none" id="textpath-5465263849037993807"/></defs><text text-anchor="middle" dominant-baseline="middle" class="label"><textPath href="#textpath-5465263849037993807" startOffset="50%"><tspan>El Salvador | 60.9%</tspan></textPath></text><defs><path d="M-87.25054006937094 -492.32849121049566L-17.45010801387419 -98.46569824209914" stroke="#aaa" stroke-width="2" fill="none" id="textpath--4848587552269654531"/></defs><text text-anchor="middle" dominant-baseline="middle" class="label"><textPath href="#textpath--4848587552269654531" startOffset="50%"><tspan>Costa Rica | 56.9%</tspan></textPath></text><defs><path d="M-62.39613831509147 -496.09144512213066L-12.479227663018294 -99.21828902442613" stroke="#aaa" stroke-width="2" fill="none" id="textpath-1451292996986869909"/></defs><text text-anchor="middle" dominant-baseline="middle" class="small-label-9"><textPath href="#textpath-1451292996986869909" startOffset="50%"><tspan>Panama | 54.5%</tspan></textPath></text><defs><path d="M-43.08393055911325 -498.14031650487544L-8.61678611182265 -99.62806330097509" stroke="#aaa" stroke-width="2" fill="none" id="textpath--2659222353443374709"/></defs><text text-anchor="middle" dominant-baseline="middle" class="small-label-6"><textPath href="#textpath--2659222353443374709" startOffset="50%"><tspan>Jamaica | 15.8%</tspan></textPath></text><defs><path d="M-27.80302609592479 -499.2263932725405L-5.560605219184958 -99.8452786545081" stroke="#aaa" stroke-width="2" fill="none" id="textpath-1902334490250746541"/></defs><text text-anchor="middle" dominant-baseline="middle" class="small-label-5"><textPath href="#textpath-1902334490250746541" startOffset="50%"><tspan>Puerto Rico | (n/a)</tspan></textPath></text></g><text y="654" class="legend">
            <tspan x="-654">* Showing percentage of population fully vaccinated, having received all shots according to each countries chosen vaccine(s).</tspan>
            <tspan x="-654" dy="1.2em">Countries where no data was available are not counted towards a region's percentage.</tspan>
            </text><text y="-654" class="title" text-anchor="middle">
                <tspan x="0">Covid Vaccinations* by Country and US State</tspan>
            </text><text xmlns:xlink="http://www.w3.org/1999/xlink" y="654" class="sources" text-anchor="end">
    <tspan x="654">Data source:
        <a xlink:href="https://github.com/owid/covid-19-data/tree/master/public/data/vaccinations">
            <tspan>https://github.com/owid/covid-19-data/tree/master/public/data/vaccinations</tspan>
        </a>
    </tspan>
    <tspan x="654" dy="1.2em">Code source:
        <a xlink:href="https://github.com/WorldSEnder/vis_covid_vacc">
            <tspan>https://github.com/WorldSEnder/vis_covid_vacc</tspan>
        </a>
    </tspan>
    <tspan x="654" dy="1.2em">Timestamp: Sat Nov 13 22:00:15 2021 +0000</tspan>
</text><text text-anchor="middle" dominant-baseline="middle" class="label_all" x="0" y="0">
    <tspan>North America | 53.7%</tspan>
</text></svg>