<svg xmlns="http://www.w3.org/2000/svg" viewBox="-664 -684 1328 1388"><style>
text {
    font-family: "Open Sans";
}
.legend, .sources {
    font-size: 10pt;
}
.title {
    font-size: 20pt;
    font-weight: bold;
}
.label_all {
    font-size: 18pt;
}
.label {
}
.small-label-9 {
   font-size: 9pt;
}
.small-label-8 {
   font-size: 8pt;
}
.small-label-7 {
   font-size: 7pt;
}
.small-label-6 {
   font-size: 6pt;
}
.small-label-5 {
   font-size: 5pt;
}
.small-label-4 {
   font-size: 4pt;
}
a {
    text-decoration: underline;
}
</style><style type="text/css">
@font-face{
  font-family:'Open Sans';src:local('Open Sans')
             , local('OpenSans')
             , url(https://fonts.gstatic.com/s/opensans/v18/mem5YaGs126MiZpBA-UN_r8OUuhp.woff2) format('woff2');
  }
</style><defs><pattern id="diagonalHatch" width="10" height="10" patternTransform="rotate(45 0 0)" patternUnits="userSpaceOnUse">
  <line x1="0" y1="0" x2="0" y2="10" style="stroke:#444; stroke-width:1"/>
</pattern></defs><circle cx="0" cy="0" r="199.0" stroke="#aaa" stroke-width="2" fill="none"/><path d="M2.4554168322904432e-14 -401.0A401.0 401.0 0 1 1 -143.20125117496312 374.5589428406765" stroke="#aaa" stroke-width="2" fill="none"/><path d="M3.69231009942927e-14 -603.0A603.0 603.0 0 0 1 244.42206184883884 -551.2411955592238" stroke="#aaa" stroke-width="2" fill="none"/><path d="M244.42206184883884 -551.2411955592238A603.0 603.0 0 0 1 399.2511604263794 -451.8932516625906" stroke="#aaa" stroke-width="2" fill="none"/><path d="M399.2511604263794 -451.8932516625906A603.0 603.0 0 0 1 490.66150532810815 -350.51431809436104" stroke="#aaa" stroke-width="2" fill="none"/><path d="M490.66150532810815 -350.51431809436104A603.0 603.0 0 0 1 551.8578156598445 -243.02664729437598" stroke="#aaa" stroke-width="2" fill="none"/><path d="M551.8578156598445 -243.02664729437598A603.0 603.0 0 0 1 579.5828233900213 -166.41139032906173" stroke="#aaa" stroke-width="2" fill="none"/><path d="M579.5828233900213 -166.41139032906173A603.0 603.0 0 0 1 596.6062766359564 -87.57825459884782" stroke="#aaa" stroke-width="2" fill="none"/><path d="M596.6062766359564 -87.57825459884782A603.0 603.0 0 0 1 602.8502746148595 -13.43675544126988" stroke="#aaa" stroke-width="2" fill="none"/><path d="M602.8502746148595 -13.43675544126988A603.0 603.0 0 0 1 600.5669024192193 54.11465345526936" stroke="#aaa" stroke-width="2" fill="none"/><path d="M600.5669024192193 54.11465345526936A603.0 603.0 0 0 1 590.9027051090345 120.17900438439912" stroke="#aaa" stroke-width="2" fill="none"/><path d="M590.9027051090345 120.17900438439912A603.0 603.0 0 0 1 574.9641386568861 181.7284767408372" stroke="#aaa" stroke-width="2" fill="none"/><path d="M574.9641386568861 181.7284767408372A603.0 603.0 0 0 1 555.4108493603753 234.7930757343293" stroke="#aaa" stroke-width="2" fill="none"/><path d="M555.4108493603753 234.7930757343293A603.0 603.0 0 0 1 532.0152969089975 283.84630322558576" stroke="#aaa" stroke-width="2" fill="none"/><path d="M532.0152969089975 283.84630322558576A603.0 603.0 0 0 1 507.48910905891813 325.67438368190017" stroke="#aaa" stroke-width="2" fill="none"/><path d="M507.48910905891813 325.67438368190017A603.0 603.0 0 0 1 480.97592523743737 363.6910218055857" stroke="#aaa" stroke-width="2" fill="none"/><path d="M480.97592523743737 363.6910218055857A603.0 603.0 0 0 1 453.2473383667349 397.71327644858746" stroke="#aaa" stroke-width="2" fill="none"/><path d="M453.2473383667349 397.71327644858746A603.0 603.0 0 0 1 423.40475594590447 429.345330290652" stroke="#aaa" stroke-width="2" fill="none"/><path d="M423.40475594590447 429.345330290652A603.0 603.0 0 0 1 391.8295995643402 458.3432828189466" stroke="#aaa" stroke-width="2" fill="none"/><path d="M391.8295995643402 458.3432828189466A603.0 603.0 0 0 1 361.314043771865 482.7640850075975" stroke="#aaa" stroke-width="2" fill="none"/><path d="M361.314043771865 482.7640850075975A603.0 603.0 0 0 1 329.7699491570241 504.83738038399434" stroke="#aaa" stroke-width="2" fill="none"/><path d="M329.7699491570241 504.83738038399434A603.0 603.0 0 0 1 298.118354341421 524.1511678941133" stroke="#aaa" stroke-width="2" fill="none"/><path d="M298.118354341421 524.1511678941133A603.0 603.0 0 0 1 265.70380200934375 541.3044333808651" stroke="#aaa" stroke-width="2" fill="none"/><path d="M265.70380200934375 541.3044333808651A603.0 603.0 0 0 1 233.00631733463334 556.1627963844329" stroke="#aaa" stroke-width="2" fill="none"/><path d="M233.00631733463334 556.1627963844329A603.0 603.0 0 0 1 202.43029596696567 568.0061401734374" stroke="#aaa" stroke-width="2" fill="none"/><path d="M202.43029596696567 568.0061401734374A603.0 603.0 0 0 1 172.75457907893323 577.7238573983773" stroke="#aaa" stroke-width="2" fill="none"/><path d="M172.75457907893323 577.7238573983773A603.0 603.0 0 0 1 144.18939361960432 585.5069758488031" stroke="#aaa" stroke-width="2" fill="none"/><path d="M144.18939361960432 585.5069758488031A603.0 603.0 0 0 1 116.40873654318047 591.6570003443045" stroke="#aaa" stroke-width="2" fill="none"/><path d="M116.40873654318047 591.6570003443045A603.0 603.0 0 0 1 89.94330884560429 596.2543091617068" stroke="#aaa" stroke-width="2" fill="none"/><path d="M89.94330884560429 596.2543091617068A603.0 603.0 0 0 1 64.95087055036824 599.4917717656759" stroke="#aaa" stroke-width="2" fill="none"/><path d="M64.95087055036824 599.4917717656759A603.0 603.0 0 0 1 42.333932497908265 601.5121263609426" stroke="#aaa" stroke-width="2" fill="none"/><path d="M42.333932497908265 601.5121263609426A603.0 603.0 0 0 1 21.9442701124487 602.600571696735" stroke="#aaa" stroke-width="2" fill="none"/><path d="M21.9442701124487 602.600571696735A603.0 603.0 0 0 1 1.6075585670414114 602.9978571731856" stroke="#aaa" stroke-width="2" fill="none"/><path d="M1.6075585670414114 602.9978571731856A603.0 603.0 0 0 1 -18.48509196262629 602.7166012108288" stroke="#aaa" stroke-width="2" fill="none"/><path d="M-18.48509196262629 602.7166012108288A603.0 603.0 0 0 1 -38.081030088213566 601.796340257583" stroke="#aaa" stroke-width="2" fill="none"/><path d="M-38.081030088213566 601.796340257583A603.0 603.0 0 0 1 -57.241330855187265 600.2769611120578" stroke="#aaa" stroke-width="2" fill="none"/><path d="M-57.241330855187265 600.2769611120578A603.0 603.0 0 0 1 -76.08028949162829 598.1812347030539" stroke="#aaa" stroke-width="2" fill="none"/><path d="M-76.08028949162829 598.1812347030539A603.0 603.0 0 0 1 -94.4488162004516 595.5572358038589" stroke="#aaa" stroke-width="2" fill="none"/><path d="M-94.4488162004516 595.5572358038589A603.0 603.0 0 0 1 -107.61503762193827 593.3194785927973" stroke="#aaa" stroke-width="2" fill="none"/><path d="M-107.61503762193827 593.3194785927973A603.0 603.0 0 0 1 -119.714734893119 590.9969392894267" stroke="#aaa" stroke-width="2" fill="none"/><path d="M-119.714734893119 590.9969392894267A603.0 603.0 0 0 1 -130.88010202501025 588.6250070239311" stroke="#aaa" stroke-width="2" fill="none"/><path d="M-130.88010202501025 588.6250070239311A603.0 603.0 0 0 1 -141.96711244271413 586.0497751767147" stroke="#aaa" stroke-width="2" fill="none"/><path d="M-141.96711244271413 586.0497751767147A603.0 603.0 0 0 1 -150.71550873601953 583.8611439601395" stroke="#aaa" stroke-width="2" fill="none"/><path d="M-150.71550873601953 583.8611439601395A603.0 603.0 0 0 1 -159.08519163808614 581.6363999970027" stroke="#aaa" stroke-width="2" fill="none"/><path d="M-159.08519163808614 581.6363999970027A603.0 603.0 0 0 1 -167.32722175068358 579.31908380546" stroke="#aaa" stroke-width="2" fill="none"/><path d="M-167.32722175068358 579.31908380546A603.0 603.0 0 0 1 -173.8564378280927 577.3932273812419" stroke="#aaa" stroke-width="2" fill="none"/><path d="M-173.8564378280927 577.3932273812419A603.0 603.0 0 0 1 -180.30626251806657 575.4117236351428" stroke="#aaa" stroke-width="2" fill="none"/><path d="M-180.30626251806657 575.4117236351428A603.0 603.0 0 0 1 -186.21504346019938 573.526771466787" stroke="#aaa" stroke-width="2" fill="none"/><path d="M-186.21504346019938 573.526771466787A603.0 603.0 0 0 1 -191.566075038379 571.7616976454352" stroke="#aaa" stroke-width="2" fill="none"/><path d="M-191.566075038379 571.7616976454352A603.0 603.0 0 0 1 -196.16216170871078 570.2011980992022" stroke="#aaa" stroke-width="2" fill="none"/><path d="M-196.16216170871078 570.2011980992022A603.0 603.0 0 0 1 -200.56224385793743 568.6684326904996" stroke="#aaa" stroke-width="2" fill="none"/><path d="M-200.56224385793743 568.6684326904996A603.0 603.0 0 0 1 -204.79582260243228 567.1575363552821" stroke="#aaa" stroke-width="2" fill="none"/><path d="M-204.79582260243228 567.1575363552821A603.0 603.0 0 0 1 -208.52947556606048 565.795420465864" stroke="#aaa" stroke-width="2" fill="none"/><path d="M-208.52947556606048 565.795420465864A603.0 603.0 0 0 1 -211.98439966712272 564.5100657187342" stroke="#aaa" stroke-width="2" fill="none"/><path d="M-211.98439966712272 564.5100657187342A603.0 603.0 0 0 1 -212.97250427767415 564.1380260376853" stroke="#aaa" stroke-width="2" fill="none"/><path d="M-212.97250427767415 564.1380260376853A603.0 603.0 0 0 1 -213.59614132923704 563.9021975566867" stroke="#aaa" stroke-width="2" fill="none"/><path d="M-213.59614132923704 563.9021975566867A603.0 603.0 0 0 1 -214.2133431276888 563.6680260810073" stroke="#aaa" stroke-width="2" fill="none"/><path d="M-214.2133431276888 563.6680260810073A603.0 603.0 0 0 1 -214.56108382895064 563.5357498031034" stroke="#aaa" stroke-width="2" fill="none"/><path d="M-214.56108382895064 563.5357498031034A603.0 603.0 0 0 1 -214.8996317786409 563.4067343060469" stroke="#aaa" stroke-width="2" fill="none"/><path d="M-214.8996317786409 563.4067343060469A603.0 603.0 0 0 1 -215.2310041273758 563.2802276507863" stroke="#aaa" stroke-width="2" fill="none"/><path d="M-215.2310041273758 563.2802276507863A603.0 603.0 0 0 1 -215.33754229053005 563.2395075634114" stroke="#aaa" stroke-width="2" fill="none"/><path d="M1.2246467991473532e-14 -200.0L2.4492935982947064e-14 -400.0" stroke="#aaa" stroke-width="2" fill="none"/><path d="M-71.42207041145292 186.81244031953938L-142.84414082290584 373.62488063907875" stroke="#aaa" stroke-width="2" fill="none"/><path d="M-143.20125117496312 374.5589428406765A401.0 401.0 0 0 1 -395.1996334780887 -67.95770522011718" stroke="#aaa" stroke-width="2" fill="none"/><path d="M-395.1996334780887 -67.95770522011718A401.0 401.0 0 0 1 -337.08390528050353 -217.19908103130768" stroke="#aaa" stroke-width="2" fill="none"/><path d="M-337.08390528050353 -217.19908103130768A401.0 401.0 0 0 1 -289.23033559788337 -277.75315114312525" stroke="#aaa" stroke-width="2" fill="none"/><path d="M-289.23033559788337 -277.75315114312525A401.0 401.0 0 0 1 -253.306349086112 -310.8647511582244" stroke="#aaa" stroke-width="2" fill="none"/><path d="M-253.306349086112 -310.8647511582244A401.0 401.0 0 0 1 -214.42531973572093 -338.85510510575733" stroke="#aaa" stroke-width="2" fill="none"/><path d="M-214.42531973572093 -338.85510510575733A401.0 401.0 0 0 1 -173.8734414338778 -361.3433635255252" stroke="#aaa" stroke-width="2" fill="none"/><path d="M-173.8734414338778 -361.3433635255252A401.0 401.0 0 0 1 -134.55650996319477 -377.75063947864425" stroke="#aaa" stroke-width="2" fill="none"/><path d="M-134.55650996319477 -377.75063947864425A401.0 401.0 0 0 1 -107.49893619923347 -386.3223766700981" stroke="#aaa" stroke-width="2" fill="none"/><path d="M-107.49893619923347 -386.3223766700981A401.0 401.0 0 0 1 -80.66588400773176 -392.8027687749301" stroke="#aaa" stroke-width="2" fill="none"/><path d="M-80.66588400773176 -392.8027687749301A401.0 401.0 0 0 1 -59.23537986411597 -396.60076874907077" stroke="#aaa" stroke-width="2" fill="none"/><path d="M-59.23537986411597 -396.60076874907077A401.0 401.0 0 0 1 -40.82334432637944 -398.9166010057865" stroke="#aaa" stroke-width="2" fill="none"/><path d="M-40.82334432637944 -398.9166010057865A401.0 401.0 0 0 1 -28.276223066300727 -400.00181900724505" stroke="#aaa" stroke-width="2" fill="none"/><path d="M-28.276223066300727 -400.00181900724505A401.0 401.0 0 0 1 -16.315801961883764 -400.6679355854928" stroke="#aaa" stroke-width="2" fill="none"/><path d="M-16.315801961883764 -400.6679355854928A401.0 401.0 0 0 1 -10.374977365209977 -400.8657628741464" stroke="#aaa" stroke-width="2" fill="none"/><path d="M-10.374977365209977 -400.8657628741464A401.0 401.0 0 0 1 -8.660392031828746 -400.9064699027131" stroke="#aaa" stroke-width="2" fill="none"/><path d="M-8.660392031828746 -400.9064699027131A401.0 401.0 0 0 1 -6.979532438252781 -400.93925490894924" stroke="#aaa" stroke-width="2" fill="none"/><path d="M-6.979532438252781 -400.93925490894924A401.0 401.0 0 0 1 -5.761062280686649 -400.95861402568477" stroke="#aaa" stroke-width="2" fill="none"/><path d="M-5.761062280686649 -400.95861402568477A401.0 401.0 0 0 1 -4.980078196297375 -400.9690746443655" stroke="#aaa" stroke-width="2" fill="none"/><path d="M-4.980078196297375 -400.9690746443655A401.0 401.0 0 0 1 -4.282110085512251 -400.9771359232538" stroke="#aaa" stroke-width="2" fill="none"/><path d="M-4.282110085512251 -400.9771359232538A401.0 401.0 0 0 1 -3.803444807784807 -400.98196194790876" stroke="#aaa" stroke-width="2" fill="none"/><path d="M-3.803444807784807 -400.98196194790876A401.0 401.0 0 0 1 -3.3321692639128915 -400.986155182441" stroke="#aaa" stroke-width="2" fill="none"/><path d="M-3.3321692639128915 -400.986155182441A401.0 401.0 0 0 1 -2.878144628782037 -400.9896710434021" stroke="#aaa" stroke-width="2" fill="none"/><path d="M-2.878144628782037 -400.9896710434021A401.0 401.0 0 0 1 -2.436725540327824 -400.9925964012816" stroke="#aaa" stroke-width="2" fill="none"/><path d="M-2.436725540327824 -400.9925964012816A401.0 401.0 0 0 1 -2.018556812116087 -400.9949194545939" stroke="#aaa" stroke-width="2" fill="none"/><path d="M-2.018556812116087 -400.9949194545939A401.0 401.0 0 0 1 -1.7128662975496798 -400.99634174022924" stroke="#aaa" stroke-width="2" fill="none"/><path d="M-1.7128662975496798 -400.99634174022924A401.0 401.0 0 0 1 -1.4312075971292983 -400.99744593303075" stroke="#aaa" stroke-width="2" fill="none"/><path d="M-1.4312075971292983 -400.99744593303075A401.0 401.0 0 0 1 -1.168210294932127 -400.9982983563731" stroke="#aaa" stroke-width="2" fill="none"/><path d="M-1.168210294932127 -400.9982983563731A401.0 401.0 0 0 1 -0.9273393594097209 -400.998927731375" stroke="#aaa" stroke-width="2" fill="none"/><path d="M-0.9273393594097209 -400.998927731375A401.0 401.0 0 0 1 -0.7005388284525184 -400.9993880860042" stroke="#aaa" stroke-width="2" fill="none"/><path d="M-0.7005388284525184 -400.9993880860042A401.0 401.0 0 0 1 -0.5166237863398381 -400.99966720667413" stroke="#aaa" stroke-width="2" fill="none"/><path d="M-0.5166237863398381 -400.99966720667413A401.0 401.0 0 0 1 -0.3504770936032721 -400.9998468401289" stroke="#aaa" stroke-width="2" fill="none"/><path d="M-0.3504770936032721 -400.9998468401289A401.0 401.0 0 0 1 -0.22161657976550078 -400.999938760708" stroke="#aaa" stroke-width="2" fill="none"/><path d="M-0.22161657976550078 -400.999938760708A401.0 401.0 0 0 1 -0.10960537546591743 -400.9999850207749" stroke="#aaa" stroke-width="2" fill="none"/><path d="M-0.10960537546591743 -400.9999850207749A401.0 401.0 0 0 1 -0.045541485069914615 -400.99999741393157" stroke="#aaa" stroke-width="2" fill="none"/><path d="M-0.045541485069914615 -400.99999741393157A401.0 401.0 0 0 1 -0.021097669040014762 -400.99999944499797" stroke="#aaa" stroke-width="2" fill="none"/><path d="M-0.021097669040014762 -400.99999944499797A401.0 401.0 0 0 1 -4.298220512684635e-13 -401.0" stroke="#aaa" stroke-width="2" fill="none"/><g><circle fill="#279ee3" r="148.45707164673897"/><path d="M0.5000000000000009 -199.99937499902342L0.5000000000000336 -340.2403175233862A340.2406849105713 340.2406849105713 0 1 1 -121.03630847405307 317.9841752342222L-70.9548161163353 186.99041170577985A200 200 0 1 0 0.5000000000000009 -199.99937499902342" fill="#d163e6"/><path d="M0.5000000000000013 -401.9996890546061L0.5000000000000252 -550.7843957089364A550.784622657948 550.784622657948 0 0 1 222.7997297438895 -503.7102152850466L162.4908329411929 -367.6965178106496A402 402 0 0 0 0.5000000000000013 -401.9996890546061" fill="#b24502"/><path d="M163.40499744460783 -367.291174424499L215.03156362797824 -483.72374949678743A529.3649395110372 529.3649395110372 0 0 1 350.1219328142551 -397.0413975216366L265.79253021602636 -301.5929887801816A402 402 0 0 0 163.40499744460783 -367.291174424499" fill="#ff9287"/><path d="M266.5419385935763 -300.930880719773L359.463174812269 -406.1039741142395A542.3414163029547 542.3414163029547 0 0 1 441.0127454016753 -315.6611636403376L326.8167751474581 -234.0828816513839A402 402 0 0 0 266.5419385935763 -300.930880719773" fill="#5954d6"/><path d="M327.39805925706736 -233.26918097919796L447.4198587205368 -319.00926602472055A549.5010844276252 549.5010844276252 0 0 1 502.694575945547 -221.92252049321795L367.70341123377193 -162.47523308814675A402 402 0 0 0 327.39805925706736 -233.26918097919796" fill="#00c6f8"/><path d="M368.10644049960007 -161.56004599750023L505.2641922964113 -221.96145306964192A551.8684541317176 551.8684541317176 0 0 1 530.298739324977 -152.78101235451942L386.25026382921186 -111.42142384597433A402 402 0 0 0 368.10644049960007 -161.56004599750023" fill="#878500"/><path d="M386.5262362841522 -110.4602583013806L524.223893819276 -149.996382752838A545.261043620374 545.261043620374 0 0 1 539.4066917593157 -79.68705400032044L397.66459132401553 -58.880156310115964A402 402 0 0 0 386.5262362841522 -110.4602583013806" fill="#00a76c"/><path d="M397.80982889383125 -57.89075949977442L513.3756251313195 -74.85513135129798A518.8042243164497 518.8042243164497 0 0 1 518.6640223429898 -12.060476590233073L401.8887306201273 -9.457705881593215A402 402 0 0 0 397.80982889383125 -57.89075949977442" fill="#bdbdbd"/><path d="M401.9110137966469 -8.45795418239776L519.450600523928 -11.077760041375598A519.5687087885525 519.5687087885525 0 0 1 517.5168870164285 46.12932695182978L400.4224964440162 35.57842522571549A402 402 0 0 0 401.9110137966469 -8.45795418239776" fill="#ebac23"/><path d="M400.33275406681014 36.57439023801933L525.5297088765885 47.85538124151118A527.7040955172532 527.7040955172532 0 0 1 517.2167944780105 104.68237643258662L394.03448294784357 79.62930520873311A402 402 0 0 0 400.33275406681014 36.57439023801933" fill="#b80058"/><path d="M393.83518111636033 80.60924335982604L513.520022583605 104.95099194732663A524.1350248790802 524.1350248790802 0 0 1 499.9163685500881 157.48380475682742L383.4598162454197 120.6754710992626A402 402 0 0 0 393.83518111636033 80.60924335982604" fill="#008cf9"/><path d="M383.15844232047635 121.62897713351946L526.9809973694726 167.08686240456336A552.8354105669476 552.8354105669476 0 0 1 509.3997610198951 214.7996151057989L370.4683006273511 156.06805640579566A402 402 0 0 0 383.15844232047635 121.62897713351946" fill="#006e00"/><path d="M370.07892570905204 156.98913575796874L501.6434759975987 212.6064242128592A544.8372863778062 544.8372863778062 0 0 1 480.9346132216745 256.0264955680368L354.9119520419963 188.78958206887302A402 402 0 0 0 370.07892570905204 156.98913575796874" fill="#00bbad"/><path d="M354.441228487725 189.67186282659938L485.24677557408336 259.4605910785505A550.2583316296771 550.2583316296771 0 0 1 463.37119797433354 296.76819980534754L338.5958561063435 216.69528427635967A402 402 0 0 0 354.441228487725 189.67186282659938" fill="#d163e6"/><path d="M338.0557659178163 217.53689142239438L444.3242290884313 285.733263778229A528.2684152818412 528.2684152818412 0 0 1 421.66852655924646 318.2187491235265L320.9519368144347 242.06167448620016A402 402 0 0 0 338.0557659178163 217.53689142239438" fill="#b24502"/><path d="M320.3488007915398 242.85931283651107L447.7389213289323 339.1856374510113A561.7090335092046 561.7090335092046 0 0 1 422.5404314251098 370.10352894416826L302.4944373573459 264.76615223223445A402 402 0 0 0 320.3488007915398 242.85931283651107" fill="#ff9287"/><path d="M301.83487968496013 265.5178061930417L387.0521176958271 340.2938149421058A515.3728963582355 515.3728963582355 0 0 1 362.2320155473079 366.6022220516556L282.62562669923767 285.8789169086506A402 402 0 0 0 301.83487968496013 265.5178061930417" fill="#5954d6"/><path d="M281.91361122611886 286.5810806830219L361.07412471234625 366.8522546163261A514.7378947132887 514.7378947132887 0 0 1 334.8567490129146 390.92973523942976L261.5995834637895 305.2370520293561A402 402 0 0 0 281.91361122611886 286.5810806830219" fill="#00c6f8"/><path d="M260.8394785171577 305.8868523603086L337.4061977019213 395.45089107724164A519.8310778526544 519.8310778526544 0 0 1 311.8798739256255 415.87894120956446L241.27614475929664 321.54287734311725A402 402 0 0 0 260.8394785171577 305.8868523603086" fill="#878500"/><path d="M240.47554096989762 322.14207144555814L328.73579720628175 440.0696266540058A549.298189208963 549.298189208963 0 0 1 300.8198666238622 459.6040779982783L220.26506751387885 336.2845521773285A402 402 0 0 0 240.47554096989762 322.14207144555814" fill="#00a76c"/><path d="M219.4278579278357 336.83143434840156L290.28252872391374 445.30125242642765A531.5610518979873 531.5610518979873 0 0 1 263.23401576004295 461.8062416660652L199.18003537424408 349.1866456614784A402 402 0 0 0 219.4278579278357 336.83143434840156" fill="#bdbdbd"/><path d="M198.3107962898426 349.68103762556035L266.6058471946984 469.75727638062716A540.139404664155 540.139404664155 0 0 1 238.45387091437968 484.6548544241522L177.5845738060916 360.6490248789102A402 402 0 0 0 198.3107962898426 349.68103762556035" fill="#ebac23"/><path d="M176.68688817859436 361.0896613664879L236.03386325189723 481.99414399708576A536.6845809682804 536.6845809682804 0 0 1 207.84232986738658 494.8049164715274L155.7985879178668 370.5817048948838A402 402 0 0 0 176.68688817859436 361.0896613664879" fill="#b80058"/><path d="M154.87626155570362 370.9681166980921L200.421971812263 479.68117593770137A519.8682499769452 519.8682499769452 0 0 1 174.99342969034154 489.5306904569959L135.4244097911091 378.5026145652494A402 402 0 0 0 154.87626155570362 370.9681166980921" fill="#008cf9"/><path d="M134.48244272614494 378.83831986536046L172.51171132426416 485.5459545445177A515.2816361161856 515.2816361161856 0 0 1 148.10295551449408 493.53893370882594L115.64867164376402 385.0056944345536A402 402 0 0 0 134.48244272614494 378.83831986536046" fill="#006e00"/><path d="M114.69058896151135 385.2921862738221L146.7229634266983 492.41448101312176A513.808961685308 513.808961685308 0 0 1 123.34746439649673 498.7835724390783L96.61168306463934 390.21812194645406A402 402 0 0 0 114.69058896151135 385.2921862738221" fill="#00bbad"/><path d="M95.64069305493989 390.4572420022079L126.30746273486733 514.9851779592452A530.2483462116929 530.2483462116929 0 0 1 102.85462868117447 520.1771179310881L78.09635886197388 394.3411704761523A402 402 0 0 0 95.64069305493989 390.4572420022079" fill="#d163e6"/><path d="M77.11516980667658 394.5342197904859L104.16224349419697 532.0032015976522A542.1043990597166 542.1043990597166 0 0 1 81.3545104583366 535.9651323621536L60.45656607472001 397.4279854495063A402 402 0 0 0 77.11516980667658 394.5342197904859" fill="#b24502"/><path d="M59.467752958365644 397.5771451656682L77.46600838483783 516.8916054981072A522.6642462322161 522.6642462322161 0 0 1 56.79473988492693 519.5693137694856L43.7976378954508 399.607015597548A402 402 0 0 0 59.467752958365644 397.5771451656682" fill="#ff9287"/><path d="M42.8034558527217 399.71472848403283L59.72900754299067 555.9363292867856A559.1357228463729 559.1357228463729 0 0 1 39.75316840328536 557.7207564407443L28.721366109118186 400.9726712992121A402 402 0 0 0 42.8034558527217 399.71472848403283" fill="#5954d6"/><path d="M27.723833561255972 401.0428768257426L36.539245053184764 526.2988263295779A527.5657030408136 527.5657030408136 0 0 1 19.69873860036865 527.1978098612534L15.129170891514123 401.71520781286756A402 402 0 0 0 27.723833561255972 401.0428768257426" fill="#00c6f8"/><path d="M14.129833293343797 401.7515996372663L20.04203824752691 564.1036882290826A564.4596127011829 564.4596127011829 0 0 1 2.004810047658606 564.4560524145721L1.5717031055958446 401.9969275371988A402 402 0 0 0 14.129833293343797 401.7515996372663" fill="#878500"/><path d="M0.5717066592058654 401.9995934718042L0.9031360281029973 526.3192937593508A526.3200686255722 526.3200686255722 0 0 1 -15.63468023140864 526.0877981973052L-11.823620100358486 401.82608427990635A402 402 0 0 0 0.5717066592058654 401.9995934718042" fill="#00a76c"/><path d="M-12.823150118950194 401.7954290693547L-16.768959859224665 530.450728187752A530.7157177337757 530.7157177337757 0 0 1 -33.01707143601016 529.6876872681355L-24.888331814613892 401.22882615720135A402 402 0 0 0 -12.823150118950194 401.7954290693547" fill="#bdbdbd"/><path d="M-25.886335695638028 401.16567353682285L-33.43600480157911 520.473455589632A521.5463396386785 521.5463396386785 0 0 1 -49.0113671374328 519.238355942455L-37.66311562902338 400.23179499024667A402 402 0 0 0 -25.886335695638028 401.16567353682285" fill="#ebac23"/><path d="M-38.65859980997202 400.13686741005563L-48.956792601567976 508.1316987937687A510.4846627087578 510.4846627087578 0 0 1 -63.91162798198446 506.4680588838418L-50.224149422002455 398.8502661586631A402 402 0 0 0 -38.65859980997202 400.13686741005563" fill="#b80058"/><path d="M-51.216158103102 398.7240965243486L-67.26843409846865 524.9351077976323A529.227653873616 529.227653873616 0 0 1 -82.39987476422142 522.7735363074651L-62.472000209378564 397.11616586313806A402 402 0 0 0 -51.216158103102 398.7240965243486" fill="#008cf9"/><path d="M-63.45965731684759 396.9595343271506L-87.07343369317218 545.8587577512669A552.759953568342 552.759953568342 0 0 1 -98.15688080267523 543.9749930097569L-71.25132988776541 395.6352461412214A402 402 0 0 0 -63.45965731684759 396.9595343271506" fill="#006e00"/><path d="M-72.23527595508344 395.4567800755134L-94.84035138700126 520.086496007352A528.6630832396143 528.6630832396143 0 0 1 -104.46639151268573 518.238775686202L-79.31971431615878 394.0969207197678A402 402 0 0 0 -72.23527595508344 395.4567800755134" fill="#00bbad"/><path d="M-80.29980874284102 393.8983888211059L-101.25036796040655 497.32522583525866A507.5273561732498 507.5273561732498 0 0 1 -109.66979671339656 495.5366312928349L-86.7652534228479 392.52489194759227A402 402 0 0 0 -80.29980874284102 393.8983888211059" fill="#d163e6"/><path d="M-87.74141429685108 392.30784368552753L-109.8825405717231 491.88616313529235A504.0100893895437 504.0100893895437 0 0 1 -118.17545097120768 489.9599299883691L-94.15872333393538 390.8172652533706A402 402 0 0 0 -87.74141429685108 392.30784368552753" fill="#b24502"/><path d="M-95.13061350835775 390.5818305727027L-132.5053732496767 544.8673490058684A560.7478060168572 560.7478060168572 0 0 1 -139.67069102398074 543.0747646702088L-99.99279780365931 389.3654329641969A402 402 0 0 0 -95.13061350835775 390.5818305727027" fill="#ff9287"/><path d="M-100.9610584072416 389.11549016363966L-137.25645404616344 529.7212672064253A547.2147248641136 547.2147248641136 0 0 1 -143.88541431580293 527.9592244248388L-105.57442681874723 387.88921150489995A402 402 0 0 0 -100.9610584072416 389.11549016363966" fill="#5954d6"/><path d="M-106.5389979630208 387.625388633195L-147.05226884279028 535.7472394728372A555.5623046739023 555.5623046739023 0 0 1 -153.68325001726862 533.8828832606525L-111.07103079973999 386.35116942631765A402 402 0 0 0 -106.5389979630208 387.625388633195" fill="#00c6f8"/><path d="M-112.03175896525478 386.0736781796333L-144.6522970541477 499.01226666020955A519.5551263536926 519.5551263536926 0 0 1 -149.31884756431052 497.63582174363984L-115.42543504700517 385.0726800802799A402 402 0 0 0 -112.03175896525478 386.0736781796333" fill="#878500"/><path d="M-116.38296942077169 384.78436094623663L-161.05265172333657 533.1364861420575A556.9312969146362 556.9312969146362 0 0 1 -166.053821385567 531.600035634187L-119.72695788564407 383.7570267180123A402 402 0 0 0 -116.38296942077169 384.78436094623663" fill="#00a76c"/><path d="M-120.68120618354641 383.45801135728584L-162.34544420470067 516.4211745823847A541.3380393165359 541.3380393165359 0 0 1 -166.6973136541554 515.0328906308406L-123.66770511203438 382.50529239779536A402 402 0 0 0 -120.68120618354641 383.45801135728584" fill="#bdbdbd"/><path d="M-124.61882745277528 382.19647806369886L-163.42775541582267 501.72473284452684A527.6706726625669 527.6706726625669 0 0 1 -167.16065248072061 500.49341159538307L-127.2365203151194 381.33301443502137A402 402 0 0 0 -124.61882745277528 382.19647806369886" fill="#ebac23"/><path d="M-128.1847155019277 381.0153260850406L-163.1857629299942 485.48193528414A512.1740941420975 512.1740941420975 0 0 1 -166.1426683319728 484.4779834727376L-130.3018696718599 380.2964932260323A402 402 0 0 0 -128.1847155019277 381.0153260850406" fill="#b80058"/><path d="M-131.2474769655567 379.9711828417724L-171.02972915578323 495.6096304626545A524.2900667211134 524.2900667211134 0 0 1 -173.91112799350142 494.60589727828506L-133.2365264521388 379.2782989032836A402 402 0 0 0 -131.2474769655567 379.9711828417724" fill="#008cf9"/><path d="M-134.1795918463187 378.9456915337016L-182.98250499953707 517.3200714754671A548.7282145901448 548.7282145901448 0 0 1 -185.8932349445841 516.2812786545003L-136.0601629148962 378.27454588905647A402 402 0 0 0 -134.1795918463187 378.9456915337016" fill="#006e00"/><path d="M-137.0007226766794 377.9349176592017L-191.52679159162253 528.9383439984761A562.5462502312419 562.5462502312419 0 0 1 -194.07053150258548 528.0103336598015L-138.5503924146658 377.36956522981836A402 402 0 0 0 -137.0007226766794 377.9349176592017" fill="#00bbad"/><path d="M-139.48869327779323 377.023745204004L-175.79249703610174 475.5255318515961A506.97882939717624 506.97882939717624 0 0 1 -177.7600256952705 474.79354115420307L-140.85473916708344 376.5155275073963A402 402 0 0 0 -139.48869327779323 377.023745204004" fill="#d163e6"/><path d="M-141.79090843029854 376.1639779225421L-196.84260328207407 522.7655010888873A558.5971532290326 558.5971532290326 0 0 1 -196.8220861271077 522.7732261776159L-141.51378355520225 376.26832056910047A402 402 0 0 0 -141.79090843029854 376.1639779225421" fill="#b24502"/><path d="M-142.4493358371884 375.91513233646754L-181.71311427917513 479.92006264504835A513.1694870413319 513.1694870413319 0 0 1 -181.30848947344575 480.07307159964836L-141.92973681399448 376.11161881535946A402 402 0 0 0 -142.4493358371884 375.91513233646754" fill="#ff9287"/><path d="M-142.86489800397237 375.75739635876045L-176.26053240569192 463.9231820828663A496.2786456798542 496.2786456798542 0 0 1 -175.8335320829232 464.08518954290486L-142.34139853339641 375.95601639494583A402 402 0 0 0 -142.86489800397237 375.75739635876045" fill="#5954d6"/><path d="M-143.27617137930187 375.6007703864422L-174.08541647940316 456.670353247433A488.72645085563204 488.72645085563204 0 0 1 -173.43259409443326 456.918678838607L-142.57333517007612 375.86812062009346A402 402 0 0 0 -143.27617137930187 375.6007703864422" fill="#00c6f8"/><path d="M-143.5078886523366 375.5122979271765L-191.07137111708414 500.4358035121239A535.6717859822259 535.6717859822259 0 0 1 -190.43767172039404 500.67729675620706L-142.79914060665004 375.78239107494403A402 402 0 0 0 -143.5078886523366 375.5122979271765" fill="#878500"/><path d="M-143.73348013286235 375.4260069426412L-188.77391497897776 493.509430810547A528.381632227541 528.381632227541 0 0 1 -188.13004682496106 493.75523770090615L-143.02016023265395 375.69832813978024A402 402 0 0 0 -143.73348013286235 375.4260069426412" fill="#00a76c"/><path d="M-143.95428996341806 375.3413944679272L-213.9001260741242 558.396371363107A597.9630184936282 597.9630184936282 0 0 1 -213.07167829924248 558.7130134449665L-143.0912193844021 375.6712697759637A402 402 0 0 0 -143.95428996341806 375.3413944679272" fill="#bdbdbd"/><path d="M-71.88887831793298 186.63330135372257L-111.55211095058483 290.37693740881946A311.0669369066038 311.0669369066038 0 0 1 -306.65176931928454 -52.22386054103361L-197.19116844905471 -33.40124377469389A200 200 0 0 0 -71.88887831793298 186.63330135372257" fill="#ebac23"/><path d="M-197.0216978624709 -34.38677902027523L-355.59438519441545 -61.65460780550503A360.899788646994 360.899788646994 0 0 1 -303.6458677338741 -195.0585667269899L-168.391944934779 -107.90807606978431A200 200 0 0 0 -197.0216978624709 -34.38677902027523" fill="#b80058"/><path d="M-167.85030134118466 -108.74868431237917L-216.36606381942644 -140.00968153216175A257.71492873997323 257.71492873997323 0 0 1 -186.22870727557162 -178.1455951796702L-144.60040629901755 -138.1691807103127A200 200 0 0 0 -167.85030134118466 -108.74868431237917" fill="#008cf9"/><path d="M-143.90775504928405 -138.89045336766407L-144.6594252938151 -139.6122959731689A201.04214113771417 201.04214113771417 0 0 1 -127.38285701641125 -155.5363309698834L-126.72454831941637 -154.72843582625626A200 200 0 0 0 -143.90775504928405 -138.89045336766407" fill="#006e00"/><path d="M-125.94932450106664 -155.3601224823314L-217.62773307858683 -267.87047120376945A345.1324666672988 345.1324666672988 0 0 1 -184.97378904815727 -291.37796229814967L-107.36747502160308 -168.73714856985535A200 200 0 0 0 -125.94932450106664 -155.3601224823314" fill="#00bbad"/><path d="M-106.52244982183805 -169.27187505298687L-173.0668060703016 -274.4315402387939A324.4453569419851 324.4453569419851 0 0 1 -141.12976424375478 -292.142395563729L-87.17020273682702 -180.00376594621702A200 200 0 0 0 -106.52244982183805 -169.27187505298687" fill="#d163e6"/><path d="M-86.26909709212491 -180.4373655507903L-118.41437403749013 -247.24160199488833A274.13568490017747 274.13568490017747 0 0 1 -92.45774309561118 -258.0735156449715L-67.5812798364792 -188.2359440055578A200 200 0 0 0 -86.26909709212491 -180.4373655507903" fill="#b24502"/><path d="M-66.63925829164462 -188.571496399481L-73.64065996044194 -208.2270593919995A220.86524186129586 220.86524186129586 0 0 1 -59.69047105254156 -212.6464265582058L-54.09696070135075 -192.5448489128611A200 200 0 0 0 -66.63925829164462 -188.571496399481" fill="#ff9287"/><path d="M-53.13356325329558 -192.81292606049016L-88.9702759744384 -321.60047056992244A333.6803450576064 333.6803450576064 0 0 1 -67.61344432967343 -326.758312554771L-40.72201438822332 -195.81041224655377A200 200 0 0 0 -53.13356325329558 -192.81292606049016" fill="#5954d6"/><path d="M-39.742456361353106 -196.01157405205933L-67.26096989491542 -330.0130598290895A336.7976510146158 336.7976510146158 0 0 1 -50.24592317898873 -333.02853471264905L-30.03825270580419 -197.73139198008556A200 200 0 0 0 -39.742456361353106 -196.01157405205933" fill="#00c6f8"/><path d="M-29.0492233573027 -197.87911113186644L-50.50634913263866 -341.54177687597326A345.25595817350506 345.25595817350506 0 0 1 -35.64575157517419 -343.41091573936035L-20.85810885573248 -198.90937457787757A200 200 0 0 0 -29.0492233573027 -197.87911113186644" fill="#878500"/><path d="M-19.86330436444616 -199.01117842906558L-24.5332138734397 -244.64449091416068A245.8715223803049 245.8715223803049 0 0 1 -17.836170938797643 -245.22372748951267L-14.601565710964465 -199.46627353712805A200 200 0 0 0 -19.86330436444616 -199.01117842906558" fill="#00a76c"/><path d="M-13.604054940372764 -199.53678780911383L-27.706931373300662 -399.0392536504087A400 400 0 0 1 -16.77468741609997 -399.6481075422379L-8.637117612911103 -199.81341346201145A200 200 0 0 0 -13.604054940372764 -199.53678780911383" fill="url(#diagonalHatch)"/><path d="M-7.637945703720282 -199.85410124745258L-11.536193054894726 -295.5835494379537A295.8085841359899 295.8085841359899 0 0 1 -8.1532066387022 -295.6962016496757L-5.6743687533867755 -199.9194876425272A200 200 0 0 0 -7.637945703720282 -199.85410124745258" fill="#ebac23"/><path d="M-4.674703509311532 -199.94536040403645L-7.4073491504954125 -305.5286345701184A305.6184146345215 305.6184146345215 0 0 1 -7.100311660027336 -305.53592413666973L-4.8192674029018505 -199.94192822342023A200 200 0 0 0 -4.674703509311532 -199.94536040403645" fill="#b80058"/><path d="M-3.8195006450396565 -199.96352521103077L-5.294082393806476 -268.22479575263554A268.2770365963801 268.2770365963801 0 0 1 -5.169363228920469 -268.2272283880646L-3.980976939876444 -199.96037563128394A200 200 0 0 0 -3.8195006450396565 -199.96352521103077" fill="#008cf9"/><path d="M-2.9811284238939613 -199.97778094908506L-4.770697957685122 -302.7796064056969A302.8171884391508 302.8171884391508 0 0 1 -4.850437933069783 -302.77833949285343L-3.3732871882310076 -199.9715503104022A200 200 0 0 0 -2.9811284238939613 -199.97778094908506" fill="#006e00"/><path d="M-2.3733903951494333 -199.98591704925676L-3.2386634739266813 -260.20722303710585A260.22737723341004 260.22737723341004 0 0 1 -3.7317576872404743 -260.2006184588023L-2.9837832020646755 -199.9777413558896A200 200 0 0 0 -2.3733903951494333 -199.98591704925676" fill="#00bbad"/><path d="M-1.9838603226522267 -199.99016050351128L-3.6328681360040136 -332.75938840291A332.77921855364156 332.77921855364156 0 0 1 -4.053576577339401 -332.7545293727855L-2.635680570426696 -199.98263221572685A200 200 0 0 0 -1.9838603226522267 -199.99016050351128" fill="#d163e6"/><path d="M-1.6357375880743756 -199.9933107944937L-2.3308168108470593 -265.0805856242742A265.0908327006309 265.0908327006309 0 0 1 -3.0143330143039733 -265.07369424066354L-2.396951534599027 -199.98563604254377A200 200 0 0 0 -1.6357375880743756 -199.9933107944937" fill="#b24502"/><path d="M-1.396996517272505 -199.99512094231383L-1.8434417615075998 -247.06205604527182A247.0689333259953 247.0689333259953 0 0 1 -2.553034656947966 -247.0557423515704L-2.1619073510343343 -199.98831505016872A200 200 0 0 0 -1.396996517272505 -199.99512094231383" fill="#ff9287"/><path d="M-1.1619418767638416 -199.9966246992059L-2.498805495039517 -360.8719464006271A360.8805976051901 360.8805976051901 0 0 1 -3.090175541728129 -360.86736696880814L-1.9354662404860796 -199.99063470680804A200 200 0 0 0 -1.1619418767638416 -199.9966246992059" fill="#5954d6"/><path d="M-0.9354919984825171 -199.99781212483495L-2.370977846809538 -399.99297301833934A400 400 0 0 1 -2.930637787667538 -399.98926405862136L-1.715311429701687 -199.99264413147583A200 200 0 0 0 -0.9354919984825171 -199.99781212483495" fill="url(#diagonalHatch)"/><path d="M-0.7153298925413176 -199.99872075377093L-1.3572901473981647 -305.6410284823947A305.64404219339895 305.64404219339895 0 0 1 -2.0385448819072343 -305.6372439070289L-1.5067520213230643 -199.99432416532784A200 200 0 0 0 -0.7153298925413176 -199.99872075377093" fill="#878500"/><path d="M-0.50676469101229 -199.99935797283936L-0.9125301787398141 -280.6064026158741A280.60788638302586 280.60788638302586 0 0 1 -1.6986064819593976 -280.60274524025704L-1.3542901741569955 -199.99541469274783A200 200 0 0 0 -0.50676469101229 -199.99935797283936" fill="#00a76c"/><path d="M-0.35429929699925033 -199.99968617977416L-1.0853400962163438 -371.14245813356183A371.1440450721891 371.1440450721891 0 0 1 -1.8246444336090801 -371.1395598224986L-1.2138138351277865 -199.99631660601565A200 200 0 0 0 -0.35429929699925033 -199.99968617977416" fill="#bdbdbd"/><path d="M-0.2138202043720328 -199.99988570226785L-0.7576387050129552 -352.36759968416084A352.3684141968238 352.3684141968238 0 0 1 -1.5265315307679057 -352.3651075590061L-1.0826445836210725 -199.99706968029696A200 200 0 0 0 -0.2138202043720328 -199.99988570226785" fill="#ebac23"/><path d="M-0.08264882712132274 -199.9999829229277L-0.535541254750695 -355.4592299486435A355.4596333764471 355.4596333764471 0 0 1 -1.3220220610252371 -355.4571749420573L-0.962510613864438 -199.99768391988493A200 200 0 0 0 -0.08264882712132274 -199.9999829229277" fill="#b80058"/><path d="M0.037486712149032014 -199.999996486866L-0.21635467324564864 -309.76577136118345A309.7658469172055 309.7658469172055 0 0 1 -1.0411531542341694 -309.76409720373186L-0.8493940695662523 -199.99819631615327A200 200 0 0 0 0.037486712149032014 -199.999996486866" fill="#008cf9"/><path d="M0.15060440446374962 -199.99994329577535L-0.0807677913604573 -332.4410089118043A332.44101872322324 332.44101872322324 0 0 1 -0.9282957036828235 -332.439722651823L-0.7576665036931346 -199.9985648485238A200 200 0 0 0 0.15060440446374962 -199.99994329577535" fill="#006e00"/><path d="M0.2423326663983882 -199.99985318714312L0.047664190009490695 -351.100124432216A351.1001276675822 351.1001276675822 0 0 1 -0.8068637180811206 -351.09920053901146L-0.6748008057162254 -199.99886160644166A200 200 0 0 0 0.2423326663983882 -199.99985318714312" fill="#00bbad"/><path d="M0.3251988123390251 -199.99973561415638L0.20672347496622237 -335.5537932342256A335.5538569119308 335.5538569119308 0 0 1 -0.685446845187004 -335.55315681884883L-0.6105315382116924 -199.99906812593116A200 200 0 0 0 0.3251988123390251 -199.99973561415638" fill="#d163e6"/><path d="M0.3894683090719349 -199.99962078573105L0.30327241184799236 -355.96516066019194A355.9652898499965 355.9652898499965 0 0 1 -0.5972959183752398 -355.96478872997807L-0.5546658331673753 -199.99923086305486A200 200 0 0 0 0.3894683090719349 -199.99962078573105" fill="#b24502"/><path d="M0.44533412947801476 -199.99950419316826L0.40716595915062703 -339.6407915338394A339.64103559177187 339.64103559177187 0 0 1 -0.5385729154553108 -339.64060858069666L-0.5227138834351356 -199.9993169243237A200 200 0 0 0 0.44533412947801476 -199.99950419316826" fill="#ff9287"/><path d="M0.47728611011588223 -199.9994304941119L0.4545721169841912 -399.9997417051547A400 400 0 0 1 -0.521045039265391 -399.99966063993986L-0.5105224946245671 -199.9993484158948A200 200 0 0 0 0.47728611011588223 -199.9994304941119" fill="url(#diagonalHatch)"/><path d="M0.489477503991454 -199.9994010285358L0.4855609242295437 -274.4412021281237A274.4416316722752 274.4416316722752 0 0 1 -0.5000000000003009 -274.4411762016421L-0.5000000000002475 -199.99937499902342A200 200 0 0 0 0.489477503991454 -199.9994010285358" fill="#00c6f8"/></g><g><defs><path d="M98.33773948992565 18.157339893594425L491.6886974496283 90.78669946797213" stroke="#aaa" stroke-width="2" fill="none" id="textpath-2092821981621893704"/></defs><text text-anchor="middle" dominant-baseline="middle" class="label"><textPath href="#textpath-2092821981621893704" startOffset="50%"><tspan>United States | 63.1%</tspan></textPath></text><defs><path d="M62.56412962129954 -295.448353667319L145.43052647070292 -686.7706764054899" stroke="#aaa" stroke-width="2" fill="none" id="textpath-CAA"/></defs><text text-anchor="middle" dominant-baseline="middle" class="label"><textPath href="#textpath-CAA" startOffset="50%"><tspan>California | 70.6%</tspan></textPath></text><defs><path d="M163.09378318489394 -254.17399136504665L379.11203905892563 -590.828284563784" stroke="#aaa" stroke-width="2" fill="none" id="textpath-TXA"/></defs><text text-anchor="middle" dominant-baseline="middle" class="label"><textPath href="#textpath-TXA" startOffset="50%"><tspan>Texas | 59.1%</tspan></textPath></text><defs><path d="M224.28848853145442 -202.23420559409732L521.3593342684802 -470.09408055316663" stroke="#aaa" stroke-width="2" fill="none" id="textpath-FLA"/></defs><text text-anchor="middle" dominant-baseline="middle" class="label"><textPath href="#textpath-FLA" startOffset="50%"><tspan>Florida | 66.0%</tspan></textPath></text><defs><path d="M262.4459793252642 -149.41923549531023L610.0565479679983 -347.3255076745291" stroke="#aaa" stroke-width="2" fill="none" id="textpath-NYA"/></defs><text text-anchor="middle" dominant-baseline="middle" class="label"><textPath href="#textpath-NYA" startOffset="50%"><tspan>New York State | 69.9%</tspan></textPath></text><defs><path d="M283.97807863965306 -102.7640542803319L660.1079841226373 -238.87538445295695" stroke="#aaa" stroke-width="2" fill="none" id="textpath-PAA"/></defs><text text-anchor="middle" dominant-baseline="middle" class="label"><textPath href="#textpath-PAA" startOffset="50%"><tspan>Pennsylvania | 71.2%</tspan></textPath></text><defs><path d="M295.1957355867425 -63.74541310088138L686.183464840706 -148.17642383052558" stroke="#aaa" stroke-width="2" fill="none" id="textpath-ILA"/></defs><text text-anchor="middle" dominant-baseline="middle" class="label"><textPath href="#textpath-ILA" startOffset="50%"><tspan>Illinois | 67.6%</tspan></textPath></text><defs><path d="M300.93468752931403 -25.343911332588725L699.5236776343658 -58.91200581283869" stroke="#aaa" stroke-width="2" fill="none" id="textpath-OHA"/></defs><text text-anchor="middle" dominant-baseline="middle" class="label"><textPath href="#textpath-OHA" startOffset="50%"><tspan>Ohio | 53.6%</tspan></textPath></text><defs><path d="M301.82761892859617 10.202374816391782L701.5992996287234 23.71545404340076" stroke="#aaa" stroke-width="2" fill="none" id="textpath-GAA"/></defs><text text-anchor="middle" dominant-baseline="middle" class="label"><textPath href="#textpath-GAA" startOffset="50%"><tspan>Georgia | 54.0%</tspan></textPath></text><defs><path d="M298.81967528568606 43.712717396166695L694.6073246707008 101.61035633148683" stroke="#aaa" stroke-width="2" fill="none" id="textpath-NCA"/></defs><text text-anchor="middle" dominant-baseline="middle" class="label"><textPath href="#textpath-NCA" startOffset="50%"><tspan>North Carolina | 58.2%</tspan></textPath></text><defs><path d="M292.3566342534542 75.7073207027696L679.5839643904797 175.9819176600803" stroke="#aaa" stroke-width="2" fill="none" id="textpath-MIA"/></defs><text text-anchor="middle" dominant-baseline="middle" class="label"><textPath href="#textpath-MIA" startOffset="50%"><tspan>Michigan | 56.3%</tspan></textPath></text><defs><path d="M283.3741227774471 104.41794165809016L658.7040867210857 242.71985113900428" stroke="#aaa" stroke-width="2" fill="none" id="textpath-NJA"/></defs><text text-anchor="middle" dominant-baseline="middle" class="label"><textPath href="#textpath-NJA" startOffset="50%"><tspan>New Jersey | 71.7%</tspan></textPath></text><defs><path d="M272.5842901904881 130.00694112757125L633.623085144777 302.2015651375994" stroke="#aaa" stroke-width="2" fill="none" id="textpath-VAA"/></defs><text text-anchor="middle" dominant-baseline="middle" class="label"><textPath href="#textpath-VAA" startOffset="50%"><tspan>Virginia | 67.4%</tspan></textPath></text><defs><path d="M260.5177244487923 152.75639184015546L605.5743131226894 355.08273864830835" stroke="#aaa" stroke-width="2" fill="none" id="textpath-WAA"/></defs><text text-anchor="middle" dominant-baseline="middle" class="label"><textPath href="#textpath-WAA" startOffset="50%"><tspan>Washington | 70.3%</tspan></textPath></text><defs><path d="M247.70907169426698 172.7547851735647L575.8005573820378 401.5690701716636" stroke="#aaa" stroke-width="2" fill="none" id="textpath-AZA"/></defs><text text-anchor="middle" dominant-baseline="middle" class="label"><textPath href="#textpath-AZA" startOffset="50%"><tspan>Arizona | 58.5%</tspan></textPath></text><defs><path d="M234.09822091673453 190.79314181495033L544.1620896806213 443.4992899142223" stroke="#aaa" stroke-width="2" fill="none" id="textpath-MAA"/></defs><text text-anchor="middle" dominant-baseline="middle" class="label"><textPath href="#textpath-MAA" startOffset="50%"><tspan>Massachusetts | 76.6%</tspan></textPath></text><defs><path d="M219.66933972612284 207.24232478981997L510.62210757529215 481.7354702068001" stroke="#aaa" stroke-width="2" fill="none" id="textpath-TNA"/></defs><text text-anchor="middle" dominant-baseline="middle" class="label"><textPath href="#textpath-TNA" startOffset="50%"><tspan>Tennessee | 51.8%</tspan></textPath></text><defs><path d="M204.27568534019014 222.43076311246972L474.8395069828261 517.0410453806415" stroke="#aaa" stroke-width="2" fill="none" id="textpath-INA"/></defs><text text-anchor="middle" dominant-baseline="middle" class="label"><textPath href="#textpath-INA" startOffset="50%"><tspan>Indiana | 51.5%</tspan></textPath></text><defs><path d="M188.69727859211463 235.79087567573492L438.62744891279624 548.0966712727349" stroke="#aaa" stroke-width="2" fill="none" id="textpath-MOA"/></defs><text text-anchor="middle" dominant-baseline="middle" class="label"><textPath href="#textpath-MOA" startOffset="50%"><tspan>Missouri | 54.1%</tspan></textPath></text><defs><path d="M173.1457688693701 247.43593660306232L402.47791306721126 575.1656539581118" stroke="#aaa" stroke-width="2" fill="none" id="textpath-MDA"/></defs><text text-anchor="middle" dominant-baseline="middle" class="label"><textPath href="#textpath-MDA" startOffset="50%"><tspan>Maryland | 69.8%</tspan></textPath></text><defs><path d="M157.3067612696019 257.7956222647477L365.6600874545051 599.2467775822943" stroke="#aaa" stroke-width="2" fill="none" id="textpath-WIA"/></defs><text text-anchor="middle" dominant-baseline="middle" class="label"><textPath href="#textpath-WIA" startOffset="50%"><tspan>Wisconsin | 60.2%</tspan></textPath></text><defs><path d="M141.2546213877259 266.92907660389903L328.34683514630325 620.477522436878" stroke="#aaa" stroke-width="2" fill="none" id="textpath-COA"/></defs><text text-anchor="middle" dominant-baseline="middle" class="label"><textPath href="#textpath-COA" startOffset="50%"><tspan>Colorado | 64.8%</tspan></textPath></text><defs><path d="M124.93970687116288 274.9437572430913L290.4227623296568 639.1076741213578" stroke="#aaa" stroke-width="2" fill="none" id="textpath-MNA"/></defs><text text-anchor="middle" dominant-baseline="middle" class="label"><textPath href="#textpath-MNA" startOffset="50%"><tspan>Minnesota | 63.0%</tspan></textPath></text><defs><path d="M109.08000748002671 281.61241444254074L253.55683857939982 654.6089898631244" stroke="#aaa" stroke-width="2" fill="none" id="textpath-SCA"/></defs><text text-anchor="middle" dominant-baseline="middle" class="label"><textPath href="#textpath-SCA" startOffset="50%"><tspan>South Carolina | 54.1%</tspan></textPath></text><defs><path d="M93.98327743748872 287.00373440446384L218.46443960634795 667.1411309666677" stroke="#aaa" stroke-width="2" fill="none" id="textpath-ALA"/></defs><text text-anchor="middle" dominant-baseline="middle" class="label"><textPath href="#textpath-ALA" startOffset="50%"><tspan>Alabama | 51.7%</tspan></textPath></text><defs><path d="M79.39132318771404 291.3777922260101L184.5453936350174 677.3086428564872" stroke="#aaa" stroke-width="2" fill="none" id="textpath-LAA"/></defs><text text-anchor="middle" dominant-baseline="middle" class="label"><textPath href="#textpath-LAA" startOffset="50%"><tspan>Louisiana | 51.0%</tspan></textPath></text><defs><path d="M65.27574474311714 294.86111501558054L151.73368480022594 685.405638215025" stroke="#aaa" stroke-width="2" fill="none" id="textpath-KYA"/></defs><text text-anchor="middle" dominant-baseline="middle" class="label"><textPath href="#textpath-KYA" startOffset="50%"><tspan>Kentucky | 59.5%</tspan></textPath></text><defs><path d="M51.68638615290615 297.5441437609765L120.14517575940437 691.642347417899" stroke="#aaa" stroke-width="2" fill="none" id="textpath-ORA"/></defs><text text-anchor="middle" dominant-baseline="middle" class="label"><textPath href="#textpath-ORA" startOffset="50%"><tspan>Oregon | 65.9%</tspan></textPath></text><defs><path d="M38.796234427947745 299.4976664253191L90.18197539211695 696.1833173197815" stroke="#aaa" stroke-width="2" fill="none" id="textpath-OKA"/></defs><text text-anchor="middle" dominant-baseline="middle" class="label"><textPath href="#textpath-OKA" startOffset="50%"><tspan>Oklahoma | 55.6%</tspan></textPath></text><defs><path d="M26.87044366748597 300.80222615052645L62.46043528005017 699.2157707207601" stroke="#aaa" stroke-width="2" fill="none" id="textpath-CTA"/></defs><text text-anchor="middle" dominant-baseline="middle" class="label"><textPath href="#textpath-CTA" startOffset="50%"><tspan>Connecticut | 75.2%</tspan></textPath></text><defs><path d="M16.098507523912033 301.5706186874022L37.42103404564983 701.001901717074" stroke="#aaa" stroke-width="2" fill="none" id="textpath-UTA"/></defs><text text-anchor="middle" dominant-baseline="middle" class="label"><textPath href="#textpath-UTA" startOffset="50%"><tspan>Utah | 58.1%</tspan></textPath></text><defs><path d="M5.89856064349319 301.9423901712627L13.71122374745768 701.8660857623391" stroke="#aaa" stroke-width="2" fill="none" id="textpath-PRA"/></defs><text text-anchor="middle" dominant-baseline="middle" class="label"><textPath href="#textpath-PRA" startOffset="50%"><tspan>Puerto Rico | 78.2%</tspan></textPath></text><defs><path d="M-9.825599887878306 701.9312342294246L-4.226967473132833 301.9704170046812" stroke="#aaa" stroke-width="2" fill="none" id="textpath-IAA"/></defs><text text-anchor="middle" dominant-baseline="middle" class="label"><textPath href="#textpath-IAA" startOffset="50%"><tspan>Iowa | 57.5%</tspan></textPath></text><defs><path d="M-32.93090574774809 701.2271782002127L-14.166856888632369 301.6675325020858" stroke="#aaa" stroke-width="2" fill="none" id="textpath-NVA"/></defs><text text-anchor="middle" dominant-baseline="middle" class="label"><textPath href="#textpath-NVA" startOffset="50%"><tspan>Nevada | 59.8%</tspan></textPath></text><defs><path d="M-55.49319846258338 699.8031901359069L-23.873142358547266 301.0549336482107" stroke="#aaa" stroke-width="2" fill="none" id="textpath-ARA"/></defs><text text-anchor="middle" dominant-baseline="middle" class="label"><textPath href="#textpath-ARA" startOffset="50%"><tspan>Arkansas | 55.0%</tspan></textPath></text><defs><path d="M-77.6147097074288 697.6961780295428L-33.38980389123006 300.1484982406295" stroke="#aaa" stroke-width="2" fill="none" id="textpath-MSA"/></defs><text text-anchor="middle" dominant-baseline="middle" class="label"><textPath href="#textpath-MSA" startOffset="50%"><tspan>Mississippi | 49.3%</tspan></textPath></text><defs><path d="M-99.274961452923 694.944948919352L-42.70803185011787 298.96492104507735" stroke="#aaa" stroke-width="2" fill="none" id="textpath-KSA"/></defs><text text-anchor="middle" dominant-baseline="middle" class="label"><textPath href="#textpath-KSA" startOffset="50%"><tspan>Kansas | 59.0%</tspan></textPath></text><defs><path d="M-117.62647066134322 692.0751501099835L-50.60284065487985 297.7303352325" stroke="#aaa" stroke-width="2" fill="none" id="textpath-NMA"/></defs><text text-anchor="middle" dominant-baseline="middle" class="small-label-8"><textPath href="#textpath-NMA" startOffset="50%"><tspan>New Mexico | 71.7%</tspan></textPath></text><defs><path d="M-132.3331913623205 689.4141907908942L-56.929663520542434 296.58559204964394" stroke="#aaa" stroke-width="2" fill="none" id="textpath-NEA"/></defs><text text-anchor="middle" dominant-baseline="middle" class="small-label-8"><textPath href="#textpath-NEA" startOffset="50%"><tspan>Nebraska | 58.7%</tspan></textPath></text><defs><path d="M-145.87517046616284 686.6763681979073L-62.755415214788 295.40778233015385" stroke="#aaa" stroke-width="2" fill="none" id="textpath-WVA"/></defs><text text-anchor="middle" dominant-baseline="middle" class="small-label-7"><textPath href="#textpath-WVA" startOffset="50%"><tspan>West Virginia | 47.8%</tspan></textPath></text><defs><path d="M-158.82858687022969 683.796373193662L-68.32796757095352 294.1688101203503" stroke="#aaa" stroke-width="2" fill="none" id="textpath-IDA"/></defs><text text-anchor="middle" dominant-baseline="middle" class="small-label-7"><textPath href="#textpath-IDA" startOffset="50%"><tspan>Idaho | 46.0%</tspan></textPath></text><defs><path d="M-170.37225914470068 681.0119626804884L-73.29404880583989 292.97095830414173" stroke="#aaa" stroke-width="2" fill="none" id="textpath-HIA"/></defs><text text-anchor="middle" dominant-baseline="middle" class="small-label-6"><textPath href="#textpath-HIA" startOffset="50%"><tspan>Hawaii | 76.1%</tspan></textPath></text><defs><path d="M-180.33640073849875 678.4414363588677L-77.58061684191827 291.8651193452679" stroke="#aaa" stroke-width="2" fill="none" id="textpath-NHA"/></defs><text text-anchor="middle" dominant-baseline="middle" class="small-label-5"><textPath href="#textpath-NHA" startOffset="50%"><tspan>New Hampshire | 68.6%</tspan></textPath></text><defs><path d="M-190.006043600086 675.7970874422605L-81.7404916912051 290.727521948095" stroke="#aaa" stroke-width="2" fill="none" id="textpath-MEA"/></defs><text text-anchor="middle" dominant-baseline="middle" class="small-label-5"><textPath href="#textpath-MEA" startOffset="50%"><tspan>Maine | 73.2%</tspan></textPath></text><defs><path d="M-198.60260748580228 673.3208776652037L-85.43872857651323 289.6622579129509" stroke="#aaa" stroke-width="2" fill="none" id="textpath-MTA"/></defs><text text-anchor="middle" dominant-baseline="middle" class="small-label-4"><textPath href="#textpath-MTA" startOffset="50%"><tspan>Montana | 54.0%</tspan></textPath></text><defs><path d="M-206.1576342512231 671.0462203454684L-88.68889678613871 288.6837016301018" stroke="#aaa" stroke-width="2" fill="none" id="textpath-RIA"/></defs><text text-anchor="middle" dominant-baseline="middle" class="small-label-4"><textPath href="#textpath-RIA" startOffset="50%"><tspan>Rhode Island | 74.0%</tspan></textPath></text><defs><path d="M-213.35104424206153 668.7939383104649L-91.7834976653883 287.7147711819949" stroke="#aaa" stroke-width="2" fill="none" id="textpath-DEA"/></defs><text text-anchor="middle" dominant-baseline="middle" class="small-label-4"><textPath href="#textpath-DEA" startOffset="50%"><tspan>Delaware | 65.5%</tspan></textPath></text><defs><path d="M-434.4883352468909 247.4265275478467L-86.89766704937819 49.485305509569336" stroke="#aaa" stroke-width="2" fill="none" id="textpath-7510733420364801679"/></defs><text text-anchor="middle" dominant-baseline="middle" class="label"><textPath href="#textpath-7510733420364801679" startOffset="50%"><tspan>Mexico | 47.3%</tspan></textPath></text><defs><path d="M-465.92064684845724 -181.4330478174117L-93.18412936969145 -36.286609563482344" stroke="#aaa" stroke-width="2" fill="none" id="textpath-5536426322498842060"/></defs><text text-anchor="middle" dominant-baseline="middle" class="label"><textPath href="#textpath-5536426322498842060" startOffset="50%"><tspan>Canada | 75.2%</tspan></textPath></text><defs><path d="M-392.2909680509082 -310.0125745605835L-78.45819361018164 -62.0025149121167" stroke="#aaa" stroke-width="2" fill="none" id="textpath--2120936324437554204"/></defs><text text-anchor="middle" dominant-baseline="middle" class="label"><textPath href="#textpath--2120936324437554204" startOffset="50%"><tspan>Guatemala | 22.0%</tspan></textPath></text><defs><path d="M-338.8691794847952 -367.65157308966L-67.77383589695904 -73.530314617932" stroke="#aaa" stroke-width="2" fill="none" id="textpath--8370242020546488715"/></defs><text text-anchor="middle" dominant-baseline="middle" class="label"><textPath href="#textpath--8370242020546488715" startOffset="50%"><tspan>Haiti | 0.3%</tspan></textPath></text><defs><path d="M-292.124956585491 -405.7869018831497L-58.424991317098204 -81.15738037662994" stroke="#aaa" stroke-width="2" fill="none" id="textpath-9059021321826435430"/></defs><text text-anchor="middle" dominant-baseline="middle" class="label"><textPath href="#textpath-9059021321826435430" startOffset="50%"><tspan>Cuba | 65.9%</tspan></textPath></text><defs><path d="M-242.4871682731246 -437.2641915625853L-48.49743365462492 -87.45283831251707" stroke="#aaa" stroke-width="2" fill="none" id="textpath-2572273921072089437"/></defs><text text-anchor="middle" dominant-baseline="middle" class="label"><textPath href="#textpath-2572273921072089437" startOffset="50%"><tspan>Dominican Republic | 54.4%</tspan></textPath></text><defs><path d="M-192.55987829677778 -461.43330316561475L-38.511975659355556 -92.28666063312295" stroke="#aaa" stroke-width="2" fill="none" id="textpath--2072893925611359658"/></defs><text text-anchor="middle" dominant-baseline="middle" class="label"><textPath href="#textpath--2072893925611359658" startOffset="50%"><tspan>Honduras | 29.3%</tspan></textPath></text><defs><path d="M-151.001976947531 -476.65333624966615L-30.200395389506202 -95.33066724993323" stroke="#aaa" stroke-width="2" fill="none" id="textpath--9053549367790842453"/></defs><text text-anchor="middle" dominant-baseline="middle" class="label"><textPath href="#textpath--9053549367790842453" startOffset="50%"><tspan>Nicaragua | 7.3%</tspan></textPath></text><defs><path d="M-117.3792889116492 -486.02685371756525L-23.47585778232984 -97.20537074351306" stroke="#aaa" stroke-width="2" fill="none" id="textpath-5465263849037993807"/></defs><text text-anchor="middle" dominant-baseline="middle" class="label"><textPath href="#textpath-5465263849037993807" startOffset="50%"><tspan>El Salvador | 59.5%</tspan></textPath></text><defs><path d="M-87.25237399725874 -492.3281661979563L-17.450474799451747 -98.46563323959127" stroke="#aaa" stroke-width="2" fill="none" id="textpath--4848587552269654531"/></defs><text text-anchor="middle" dominant-baseline="middle" class="label"><textPath href="#textpath--4848587552269654531" startOffset="50%"><tspan>Costa Rica | 61.2%</tspan></textPath></text><defs><path d="M-62.39745652105999 -496.0912793223667L-12.479491304211997 -99.21825586447333" stroke="#aaa" stroke-width="2" fill="none" id="textpath-1451292996986869909"/></defs><text text-anchor="middle" dominant-baseline="middle" class="small-label-9"><textPath href="#textpath-1451292996986869909" startOffset="50%"><tspan>Panama | 66.0%</tspan></textPath></text><defs><path d="M-43.08484327594771 -498.14023756356704L-8.616968655189543 -99.62804751271341" stroke="#aaa" stroke-width="2" fill="none" id="textpath--2659222353443374709"/></defs><text text-anchor="middle" dominant-baseline="middle" class="small-label-6"><textPath href="#textpath--2659222353443374709" startOffset="50%"><tspan>Jamaica | 17.0%</tspan></textPath></text><defs><path d="M-27.803615948986646 -499.22636042196456L-5.560723189797329 -99.84527208439292" stroke="#aaa" stroke-width="2" fill="none" id="textpath-1902334490250746541"/></defs><text text-anchor="middle" dominant-baseline="middle" class="small-label-5"><textPath href="#textpath-1902334490250746541" startOffset="50%"><tspan>Puerto Rico | (n/a)</tspan></textPath></text></g><text y="654" class="legend">
            <tspan x="-654">* Showing percentage of population vaccinated, having received at least one shot of a countries chosen vaccine(s).</tspan>
            <tspan x="-654" dy="1.2em">Countries where no data was available are not counted towards a region's percentage.</tspan>
            </text><text y="-654" class="title" text-anchor="middle">
            <tspan x="0">Partial Covid Vaccinations* by Country and US State</tspan>
            </text><text xmlns:xlink="http://www.w3.org/1999/xlink" y="654" class="sources" text-anchor="end">
    <tspan x="654">Data source:
        <a xlink:href="https://github.com/owid/covid-19-data/tree/master/public/data/vaccinations">
            <tspan>https://github.com/owid/covid-19-data/tree/master/public/data/vaccinations</tspan>
        </a>
    </tspan>
    <tspan x="654" dy="1.2em">Code source:
        <a xlink:href="https://github.com/WorldSEnder/vis_covid_vacc">
            <tspan>https://github.com/WorldSEnder/vis_covid_vacc</tspan>
        </a>
    </tspan>
    <tspan x="654" dy="1.2em">Timestamp: Sun Sep 19 02:00:22 2021 +0000</tspan>
</text><text text-anchor="middle" dominant-baseline="middle" class="label_all" x="0" y="0">
    <tspan>North America | 56.2%</tspan>
</text></svg>