<svg xmlns="http://www.w3.org/2000/svg" viewBox="-664 -684 1328 1388"><style>
text {
    font-family: "Open Sans";
}
.legend, .sources {
    font-size: 10pt;
}
.title {
    font-size: 20pt;
    font-weight: bold;
}
.label_all {
    font-size: 18pt;
}
.label {
}
.small-label-9 {
   font-size: 9pt;
}
.small-label-8 {
   font-size: 8pt;
}
.small-label-7 {
   font-size: 7pt;
}
.small-label-6 {
   font-size: 6pt;
}
.small-label-5 {
   font-size: 5pt;
}
.small-label-4 {
   font-size: 4pt;
}
a {
    text-decoration: underline;
}
</style><style type="text/css">
@font-face{
  font-family:'Open Sans';src:local('Open Sans')
             , local('OpenSans')
             , url(https://fonts.gstatic.com/s/opensans/v18/mem5YaGs126MiZpBA-UN_r8OUuhp.woff2) format('woff2');
  }
</style><defs><pattern id="diagonalHatch" width="10" height="10" patternTransform="rotate(45 0 0)" patternUnits="userSpaceOnUse">
  <line x1="0" y1="0" x2="0" y2="10" style="stroke:#444; stroke-width:1"/>
</pattern></defs><circle cx="0" cy="0" r="199.0" stroke="#aaa" stroke-width="2" fill="none"/><path d="M2.4554168322904432e-14 -401.0A401.0 401.0 0 1 1 -143.20125117496312 374.5589428406765" stroke="#aaa" stroke-width="2" fill="none"/><path d="M3.69231009942927e-14 -603.0A603.0 603.0 0 0 1 244.42206184883884 -551.2411955592238" stroke="#aaa" stroke-width="2" fill="none"/><path d="M244.42206184883884 -551.2411955592238A603.0 603.0 0 0 1 399.2511604263794 -451.8932516625906" stroke="#aaa" stroke-width="2" fill="none"/><path d="M399.2511604263794 -451.8932516625906A603.0 603.0 0 0 1 490.66150532810815 -350.51431809436104" stroke="#aaa" stroke-width="2" fill="none"/><path d="M490.66150532810815 -350.51431809436104A603.0 603.0 0 0 1 551.8578156598445 -243.02664729437598" stroke="#aaa" stroke-width="2" fill="none"/><path d="M551.8578156598445 -243.02664729437598A603.0 603.0 0 0 1 579.5828233900213 -166.41139032906173" stroke="#aaa" stroke-width="2" fill="none"/><path d="M579.5828233900213 -166.41139032906173A603.0 603.0 0 0 1 596.6062766359564 -87.57825459884782" stroke="#aaa" stroke-width="2" fill="none"/><path d="M596.6062766359564 -87.57825459884782A603.0 603.0 0 0 1 602.8502746148595 -13.43675544126988" stroke="#aaa" stroke-width="2" fill="none"/><path d="M602.8502746148595 -13.43675544126988A603.0 603.0 0 0 1 600.5669024192193 54.11465345526936" stroke="#aaa" stroke-width="2" fill="none"/><path d="M600.5669024192193 54.11465345526936A603.0 603.0 0 0 1 590.9027051090345 120.17900438439912" stroke="#aaa" stroke-width="2" fill="none"/><path d="M590.9027051090345 120.17900438439912A603.0 603.0 0 0 1 574.9641386568861 181.7284767408372" stroke="#aaa" stroke-width="2" fill="none"/><path d="M574.9641386568861 181.7284767408372A603.0 603.0 0 0 1 555.4108493603753 234.7930757343293" stroke="#aaa" stroke-width="2" fill="none"/><path d="M555.4108493603753 234.7930757343293A603.0 603.0 0 0 1 532.0152969089975 283.84630322558576" stroke="#aaa" stroke-width="2" fill="none"/><path d="M532.0152969089975 283.84630322558576A603.0 603.0 0 0 1 507.48910905891813 325.67438368190017" stroke="#aaa" stroke-width="2" fill="none"/><path d="M507.48910905891813 325.67438368190017A603.0 603.0 0 0 1 480.97592523743737 363.6910218055857" stroke="#aaa" stroke-width="2" fill="none"/><path d="M480.97592523743737 363.6910218055857A603.0 603.0 0 0 1 453.2473383667349 397.71327644858746" stroke="#aaa" stroke-width="2" fill="none"/><path d="M453.2473383667349 397.71327644858746A603.0 603.0 0 0 1 423.40475594590447 429.345330290652" stroke="#aaa" stroke-width="2" fill="none"/><path d="M423.40475594590447 429.345330290652A603.0 603.0 0 0 1 391.8295995643402 458.3432828189466" stroke="#aaa" stroke-width="2" fill="none"/><path d="M391.8295995643402 458.3432828189466A603.0 603.0 0 0 1 361.314043771865 482.7640850075975" stroke="#aaa" stroke-width="2" fill="none"/><path d="M361.314043771865 482.7640850075975A603.0 603.0 0 0 1 329.7699491570241 504.83738038399434" stroke="#aaa" stroke-width="2" fill="none"/><path d="M329.7699491570241 504.83738038399434A603.0 603.0 0 0 1 298.118354341421 524.1511678941133" stroke="#aaa" stroke-width="2" fill="none"/><path d="M298.118354341421 524.1511678941133A603.0 603.0 0 0 1 265.70380200934375 541.3044333808651" stroke="#aaa" stroke-width="2" fill="none"/><path d="M265.70380200934375 541.3044333808651A603.0 603.0 0 0 1 233.00631733463334 556.1627963844329" stroke="#aaa" stroke-width="2" fill="none"/><path d="M233.00631733463334 556.1627963844329A603.0 603.0 0 0 1 202.43029596696567 568.0061401734374" stroke="#aaa" stroke-width="2" fill="none"/><path d="M202.43029596696567 568.0061401734374A603.0 603.0 0 0 1 172.75457907893323 577.7238573983773" stroke="#aaa" stroke-width="2" fill="none"/><path d="M172.75457907893323 577.7238573983773A603.0 603.0 0 0 1 144.18939361960432 585.5069758488031" stroke="#aaa" stroke-width="2" fill="none"/><path d="M144.18939361960432 585.5069758488031A603.0 603.0 0 0 1 116.40873654318047 591.6570003443045" stroke="#aaa" stroke-width="2" fill="none"/><path d="M116.40873654318047 591.6570003443045A603.0 603.0 0 0 1 89.94330884560429 596.2543091617068" stroke="#aaa" stroke-width="2" fill="none"/><path d="M89.94330884560429 596.2543091617068A603.0 603.0 0 0 1 64.95087055036824 599.4917717656759" stroke="#aaa" stroke-width="2" fill="none"/><path d="M64.95087055036824 599.4917717656759A603.0 603.0 0 0 1 42.333932497908265 601.5121263609426" stroke="#aaa" stroke-width="2" fill="none"/><path d="M42.333932497908265 601.5121263609426A603.0 603.0 0 0 1 21.9442701124487 602.600571696735" stroke="#aaa" stroke-width="2" fill="none"/><path d="M21.9442701124487 602.600571696735A603.0 603.0 0 0 1 1.6075585670414114 602.9978571731856" stroke="#aaa" stroke-width="2" fill="none"/><path d="M1.6075585670414114 602.9978571731856A603.0 603.0 0 0 1 -18.48509196262629 602.7166012108288" stroke="#aaa" stroke-width="2" fill="none"/><path d="M-18.48509196262629 602.7166012108288A603.0 603.0 0 0 1 -38.081030088213566 601.796340257583" stroke="#aaa" stroke-width="2" fill="none"/><path d="M-38.081030088213566 601.796340257583A603.0 603.0 0 0 1 -57.241330855187265 600.2769611120578" stroke="#aaa" stroke-width="2" fill="none"/><path d="M-57.241330855187265 600.2769611120578A603.0 603.0 0 0 1 -76.08028949162829 598.1812347030539" stroke="#aaa" stroke-width="2" fill="none"/><path d="M-76.08028949162829 598.1812347030539A603.0 603.0 0 0 1 -94.4488162004516 595.5572358038589" stroke="#aaa" stroke-width="2" fill="none"/><path d="M-94.4488162004516 595.5572358038589A603.0 603.0 0 0 1 -107.61503762193827 593.3194785927973" stroke="#aaa" stroke-width="2" fill="none"/><path d="M-107.61503762193827 593.3194785927973A603.0 603.0 0 0 1 -119.714734893119 590.9969392894267" stroke="#aaa" stroke-width="2" fill="none"/><path d="M-119.714734893119 590.9969392894267A603.0 603.0 0 0 1 -130.88010202501025 588.6250070239311" stroke="#aaa" stroke-width="2" fill="none"/><path d="M-130.88010202501025 588.6250070239311A603.0 603.0 0 0 1 -141.96711244271413 586.0497751767147" stroke="#aaa" stroke-width="2" fill="none"/><path d="M-141.96711244271413 586.0497751767147A603.0 603.0 0 0 1 -150.71550873601953 583.8611439601395" stroke="#aaa" stroke-width="2" fill="none"/><path d="M-150.71550873601953 583.8611439601395A603.0 603.0 0 0 1 -159.08519163808614 581.6363999970027" stroke="#aaa" stroke-width="2" fill="none"/><path d="M-159.08519163808614 581.6363999970027A603.0 603.0 0 0 1 -167.32722175068358 579.31908380546" stroke="#aaa" stroke-width="2" fill="none"/><path d="M-167.32722175068358 579.31908380546A603.0 603.0 0 0 1 -173.8564378280927 577.3932273812419" stroke="#aaa" stroke-width="2" fill="none"/><path d="M-173.8564378280927 577.3932273812419A603.0 603.0 0 0 1 -180.30626251806657 575.4117236351428" stroke="#aaa" stroke-width="2" fill="none"/><path d="M-180.30626251806657 575.4117236351428A603.0 603.0 0 0 1 -186.21504346019938 573.526771466787" stroke="#aaa" stroke-width="2" fill="none"/><path d="M-186.21504346019938 573.526771466787A603.0 603.0 0 0 1 -191.566075038379 571.7616976454352" stroke="#aaa" stroke-width="2" fill="none"/><path d="M-191.566075038379 571.7616976454352A603.0 603.0 0 0 1 -196.16216170871078 570.2011980992022" stroke="#aaa" stroke-width="2" fill="none"/><path d="M-196.16216170871078 570.2011980992022A603.0 603.0 0 0 1 -200.56224385793743 568.6684326904996" stroke="#aaa" stroke-width="2" fill="none"/><path d="M-200.56224385793743 568.6684326904996A603.0 603.0 0 0 1 -204.79582260243228 567.1575363552821" stroke="#aaa" stroke-width="2" fill="none"/><path d="M-204.79582260243228 567.1575363552821A603.0 603.0 0 0 1 -208.52947556606048 565.795420465864" stroke="#aaa" stroke-width="2" fill="none"/><path d="M-208.52947556606048 565.795420465864A603.0 603.0 0 0 1 -211.98439966712272 564.5100657187342" stroke="#aaa" stroke-width="2" fill="none"/><path d="M-211.98439966712272 564.5100657187342A603.0 603.0 0 0 1 -212.97250427767415 564.1380260376853" stroke="#aaa" stroke-width="2" fill="none"/><path d="M-212.97250427767415 564.1380260376853A603.0 603.0 0 0 1 -213.59614132923704 563.9021975566867" stroke="#aaa" stroke-width="2" fill="none"/><path d="M-213.59614132923704 563.9021975566867A603.0 603.0 0 0 1 -214.2133431276888 563.6680260810073" stroke="#aaa" stroke-width="2" fill="none"/><path d="M-214.2133431276888 563.6680260810073A603.0 603.0 0 0 1 -214.56108382895064 563.5357498031034" stroke="#aaa" stroke-width="2" fill="none"/><path d="M-214.56108382895064 563.5357498031034A603.0 603.0 0 0 1 -214.8996317786409 563.4067343060469" stroke="#aaa" stroke-width="2" fill="none"/><path d="M-214.8996317786409 563.4067343060469A603.0 603.0 0 0 1 -215.2310041273758 563.2802276507863" stroke="#aaa" stroke-width="2" fill="none"/><path d="M-215.2310041273758 563.2802276507863A603.0 603.0 0 0 1 -215.33754229053005 563.2395075634114" stroke="#aaa" stroke-width="2" fill="none"/><path d="M1.2246467991473532e-14 -200.0L2.4492935982947064e-14 -400.0" stroke="#aaa" stroke-width="2" fill="none"/><path d="M-71.42207041145292 186.81244031953938L-142.84414082290584 373.62488063907875" stroke="#aaa" stroke-width="2" fill="none"/><path d="M-143.20125117496312 374.5589428406765A401.0 401.0 0 0 1 -395.1996334780887 -67.95770522011718" stroke="#aaa" stroke-width="2" fill="none"/><path d="M-395.1996334780887 -67.95770522011718A401.0 401.0 0 0 1 -337.08390528050353 -217.19908103130768" stroke="#aaa" stroke-width="2" fill="none"/><path d="M-337.08390528050353 -217.19908103130768A401.0 401.0 0 0 1 -289.23033559788337 -277.75315114312525" stroke="#aaa" stroke-width="2" fill="none"/><path d="M-289.23033559788337 -277.75315114312525A401.0 401.0 0 0 1 -253.306349086112 -310.8647511582244" stroke="#aaa" stroke-width="2" fill="none"/><path d="M-253.306349086112 -310.8647511582244A401.0 401.0 0 0 1 -214.42531973572093 -338.85510510575733" stroke="#aaa" stroke-width="2" fill="none"/><path d="M-214.42531973572093 -338.85510510575733A401.0 401.0 0 0 1 -173.8734414338778 -361.3433635255252" stroke="#aaa" stroke-width="2" fill="none"/><path d="M-173.8734414338778 -361.3433635255252A401.0 401.0 0 0 1 -134.55650996319477 -377.75063947864425" stroke="#aaa" stroke-width="2" fill="none"/><path d="M-134.55650996319477 -377.75063947864425A401.0 401.0 0 0 1 -107.49893619923347 -386.3223766700981" stroke="#aaa" stroke-width="2" fill="none"/><path d="M-107.49893619923347 -386.3223766700981A401.0 401.0 0 0 1 -80.66588400773176 -392.8027687749301" stroke="#aaa" stroke-width="2" fill="none"/><path d="M-80.66588400773176 -392.8027687749301A401.0 401.0 0 0 1 -59.23537986411597 -396.60076874907077" stroke="#aaa" stroke-width="2" fill="none"/><path d="M-59.23537986411597 -396.60076874907077A401.0 401.0 0 0 1 -40.82334432637944 -398.9166010057865" stroke="#aaa" stroke-width="2" fill="none"/><path d="M-40.82334432637944 -398.9166010057865A401.0 401.0 0 0 1 -28.276223066300727 -400.00181900724505" stroke="#aaa" stroke-width="2" fill="none"/><path d="M-28.276223066300727 -400.00181900724505A401.0 401.0 0 0 1 -16.315801961883764 -400.6679355854928" stroke="#aaa" stroke-width="2" fill="none"/><path d="M-16.315801961883764 -400.6679355854928A401.0 401.0 0 0 1 -10.374977365209977 -400.8657628741464" stroke="#aaa" stroke-width="2" fill="none"/><path d="M-10.374977365209977 -400.8657628741464A401.0 401.0 0 0 1 -8.660392031828746 -400.9064699027131" stroke="#aaa" stroke-width="2" fill="none"/><path d="M-8.660392031828746 -400.9064699027131A401.0 401.0 0 0 1 -6.979532438252781 -400.93925490894924" stroke="#aaa" stroke-width="2" fill="none"/><path d="M-6.979532438252781 -400.93925490894924A401.0 401.0 0 0 1 -5.761062280686649 -400.95861402568477" stroke="#aaa" stroke-width="2" fill="none"/><path d="M-5.761062280686649 -400.95861402568477A401.0 401.0 0 0 1 -4.980078196297375 -400.9690746443655" stroke="#aaa" stroke-width="2" fill="none"/><path d="M-4.980078196297375 -400.9690746443655A401.0 401.0 0 0 1 -4.282110085512251 -400.9771359232538" stroke="#aaa" stroke-width="2" fill="none"/><path d="M-4.282110085512251 -400.9771359232538A401.0 401.0 0 0 1 -3.803444807784807 -400.98196194790876" stroke="#aaa" stroke-width="2" fill="none"/><path d="M-3.803444807784807 -400.98196194790876A401.0 401.0 0 0 1 -3.3321692639128915 -400.986155182441" stroke="#aaa" stroke-width="2" fill="none"/><path d="M-3.3321692639128915 -400.986155182441A401.0 401.0 0 0 1 -2.878144628782037 -400.9896710434021" stroke="#aaa" stroke-width="2" fill="none"/><path d="M-2.878144628782037 -400.9896710434021A401.0 401.0 0 0 1 -2.436725540327824 -400.9925964012816" stroke="#aaa" stroke-width="2" fill="none"/><path d="M-2.436725540327824 -400.9925964012816A401.0 401.0 0 0 1 -2.018556812116087 -400.9949194545939" stroke="#aaa" stroke-width="2" fill="none"/><path d="M-2.018556812116087 -400.9949194545939A401.0 401.0 0 0 1 -1.7128662975496798 -400.99634174022924" stroke="#aaa" stroke-width="2" fill="none"/><path d="M-1.7128662975496798 -400.99634174022924A401.0 401.0 0 0 1 -1.4312075971292983 -400.99744593303075" stroke="#aaa" stroke-width="2" fill="none"/><path d="M-1.4312075971292983 -400.99744593303075A401.0 401.0 0 0 1 -1.168210294932127 -400.9982983563731" stroke="#aaa" stroke-width="2" fill="none"/><path d="M-1.168210294932127 -400.9982983563731A401.0 401.0 0 0 1 -0.9273393594097209 -400.998927731375" stroke="#aaa" stroke-width="2" fill="none"/><path d="M-0.9273393594097209 -400.998927731375A401.0 401.0 0 0 1 -0.7005388284525184 -400.9993880860042" stroke="#aaa" stroke-width="2" fill="none"/><path d="M-0.7005388284525184 -400.9993880860042A401.0 401.0 0 0 1 -0.5166237863398381 -400.99966720667413" stroke="#aaa" stroke-width="2" fill="none"/><path d="M-0.5166237863398381 -400.99966720667413A401.0 401.0 0 0 1 -0.3504770936032721 -400.9998468401289" stroke="#aaa" stroke-width="2" fill="none"/><path d="M-0.3504770936032721 -400.9998468401289A401.0 401.0 0 0 1 -0.22161657976550078 -400.999938760708" stroke="#aaa" stroke-width="2" fill="none"/><path d="M-0.22161657976550078 -400.999938760708A401.0 401.0 0 0 1 -0.10960537546591743 -400.9999850207749" stroke="#aaa" stroke-width="2" fill="none"/><path d="M-0.10960537546591743 -400.9999850207749A401.0 401.0 0 0 1 -0.045541485069914615 -400.99999741393157" stroke="#aaa" stroke-width="2" fill="none"/><path d="M-0.045541485069914615 -400.99999741393157A401.0 401.0 0 0 1 -0.021097669040014762 -400.99999944499797" stroke="#aaa" stroke-width="2" fill="none"/><path d="M-0.021097669040014762 -400.99999944499797A401.0 401.0 0 0 1 -4.298220512684635e-13 -401.0" stroke="#aaa" stroke-width="2" fill="none"/><g><circle fill="#279ee3" r="133.42576516481628"/><path d="M0.5000000000000009 -199.99937499902342L0.5000000000000334 -323.94335345959564A323.9437393292985 323.9437393292985 0 1 1 -115.21649389976822 302.7617971014394L-70.9548161163353 186.99041170577985A200 200 0 1 0 0.5000000000000009 -199.99937499902342" fill="#006e00"/><path d="M0.5000000000000013 -401.9996890546061L0.4999999999999804 -526.8123042047857A526.8125414808912 526.8125414808912 0 0 1 213.08280100048404 -481.7957801593367L162.4908329411929 -367.6965178106496A402 402 0 0 0 0.5000000000000013 -401.9996890546061" fill="#00bbad"/><path d="M163.40499744460783 -367.291174424499L207.97555167718807 -467.8104377678357A511.9574550487226 511.9574550487226 0 0 1 338.5962917243048 -383.9960768165663L265.79253021602636 -301.5929887801816A402 402 0 0 0 163.40499744460783 -367.291174424499" fill="#d163e6"/><path d="M266.5419385935763 -300.930880719773L346.78080069877785 -391.7494027441113A523.1868865746287 523.1868865746287 0 0 1 425.42668482012505 -304.526934977206L326.8167751474581 -234.0828816513839A402 402 0 0 0 266.5419385935763 -300.930880719773" fill="#b24502"/><path d="M327.39805925706736 -233.26918097919796L436.1556144570399 -310.9624173235418A535.657861895164 535.657861895164 0 0 1 490.02543201065555 -216.34329430992085L367.70341123377193 -162.47523308814675A402 402 0 0 0 327.39805925706736 -233.26918097919796" fill="#ff9287"/><path d="M368.10644049960007 -161.56004599750023L480.70635390651773 -211.14669434133273A525.0347847689432 525.0347847689432 0 0 1 504.5071297717954 -145.37565555069813L386.25026382921186 -111.42142384597433A402 402 0 0 0 368.10644049960007 -161.56004599750023" fill="#5954d6"/><path d="M386.5262362841522 -110.4602583013806L497.0325692380288 -142.18913597836084A516.9711068073618 516.9711068073618 0 0 1 511.41670609974943 -75.57829050535076L397.66459132401553 -58.880156310115964A402 402 0 0 0 386.5262362841522 -110.4602583013806" fill="#00c6f8"/><path d="M397.80982889383125 -57.89075949977442L505.58467309482324 -73.7114659093804A510.92978174589615 510.92978174589615 0 0 1 510.79153129043794 -11.88500891369547L401.8887306201273 -9.457705881593215A402 402 0 0 0 397.80982889383125 -57.89075949977442" fill="#878500"/><path d="M401.9110137966469 -8.45795418239776L499.96176774481694 -10.643379083257901A500.0750450930662 500.0750450930662 0 0 1 498.10187067361545 44.37991838970703L400.4224964440162 35.57842522571549A402 402 0 0 0 401.9110137966469 -8.45795418239776" fill="#00a76c"/><path d="M400.33275406681014 36.57439023801933L506.82679467376187 46.17013732178696A508.9254182879769 508.9254182879769 0 0 1 498.8148436689431 100.93974992598376L394.03448294784357 79.62930520873311A402 402 0 0 0 400.33275406681014 36.57439023801933" fill="#bdbdbd"/><path d="M393.83518111636033 80.60924335982604L504.6112397020267 103.13910540876813A515.043860557659 515.043860557659 0 0 1 491.2478844972985 154.74396361430743L383.4598162454197 120.6754710992626A402 402 0 0 0 393.83518111636033 80.60924335982604" fill="#ebac23"/><path d="M383.15844232047635 121.62897713351946L512.3029271801839 162.4475759558022A537.441628580538 537.441628580538 0 0 1 495.22086031515215 208.80565998080968L370.4683006273511 156.06805640579566A402 402 0 0 0 383.15844232047635 121.62897713351946" fill="#b80058"/><path d="M370.07892570905204 156.98913575796874L487.78364066531816 206.74735003275438A529.7899082148305 529.7899082148305 0 0 1 467.65859526504886 248.9433371693239L354.9119520419963 188.78958206887302A402 402 0 0 0 370.07892570905204 156.98913575796874" fill="#008cf9"/><path d="M354.441228487725 189.67186282659938L472.01021243005266 252.39848301948874A535.2556724302906 535.2556724302906 0 0 1 450.7448474238994 288.66540733106245L338.5958561063435 216.69528427635967A402 402 0 0 0 354.441228487725 189.67186282659938" fill="#006e00"/><path d="M338.0557659178163 217.53689142239438L430.8449543557403 277.08311855799235A512.2523101789023 512.2523101789023 0 0 1 408.8934610054101 308.5588547273268L320.9519368144347 242.06167448620016A402 402 0 0 0 338.0557659178163 217.53689142239438" fill="#00bbad"/><path d="M320.3488007915398 242.85931283651107L434.021801334922 328.8134064825098A544.5118734395446 544.5118734395446 0 0 1 409.61411266128994 358.76100544143134L302.4944373573459 264.76615223223445A402 402 0 0 0 320.3488007915398 242.85931283651107" fill="#d163e6"/><path d="M301.83487968496013 265.5178061930417L375.6200525485892 330.26246185646926A500.16369079342485 500.16369079342485 0 0 1 351.5526571840218 355.77302710429626L282.62562669923767 285.8789169086506A402 402 0 0 0 301.83487968496013 265.5178061930417" fill="#b24502"/><path d="M281.91361122611886 286.5810806830219L355.63896745904555 361.3408394672763A506.9973150246971 506.9973150246971 0 0 1 329.82691536030876 385.0460795101746L261.5995834637895 305.2370520293561A402 402 0 0 0 281.91361122611886 286.5810806830219" fill="#ff9287"/><path d="M260.8394785171577 305.8868523603086L328.2421212792452 384.731198444926A505.7281732697594 505.7281732697594 0 0 1 303.4294926542948 404.58809699041444L241.27614475929664 321.54287734311725A402 402 0 0 0 260.8394785171577 305.8868523603086" fill="#5954d6"/><path d="M240.47554096989762 322.14207144555814L321.4273321579302 430.30453586194915A537.1010365299362 537.1010365299362 0 0 1 294.14945845967657 449.39250052644496L220.26506751387885 336.2845521773285A402 402 0 0 0 240.47554096989762 322.14207144555814" fill="#00c6f8"/><path d="M219.4278579278357 336.83143434840156L285.37084927385916 437.7820730918949A522.5798170001601 522.5798170001601 0 0 1 258.7937634009489 453.9993977536694L199.18003537424408 349.1866456614784A402 402 0 0 0 219.4278579278357 336.83143434840156" fill="#878500"/><path d="M198.3107962898426 349.68103762556035L260.7129360904838 459.39637040959514A528.2198975714855 528.2198975714855 0 0 1 233.20169887434588 473.9548795323765L177.5845738060916 360.6490248789102A402 402 0 0 0 198.3107962898426 349.68103762556035" fill="#00a76c"/><path d="M176.68688817859436 361.0896613664879L231.4333890987073 472.62183906225397A526.2440653805995 526.2440653805995 0 0 1 203.80798962715835 485.1753494484616L155.7985879178668 370.5817048948838A402 402 0 0 0 176.68688817859436 361.0896613664879" fill="#bdbdbd"/><path d="M154.87626155570362 370.9681166980921L194.09786218508606 464.58615819257676A503.5020143842114 503.5020143842114 0 0 1 169.49919503524242 474.1142281891185L135.4244097911091 378.5026145652494A402 402 0 0 0 154.87626155570362 370.9681166980921" fill="#ebac23"/><path d="M134.48244272614494 378.83831986536046L165.36982180398246 465.5062807368859A494.0073636788923 494.0073636788923 0 0 1 142.00804708188545 473.15641170014635L115.64867164376402 385.0056944345536A402 402 0 0 0 134.48244272614494 378.83831986536046" fill="#b80058"/><path d="M114.69058896151135 385.2921862738221L142.85023733335322 479.4633553803106A500.29121465276734 500.29121465276734 0 0 1 120.11509840057653 485.65796873412995L96.61168306463934 390.21812194645406A402 402 0 0 0 114.69058896151135 385.2921862738221" fill="#008cf9"/><path d="M95.64069305493989 390.4572420022079L122.28842010807939 498.6651322530668A513.4407188931344 513.4407188931344 0 0 1 99.60992626199472 503.6856503887903L78.09635886197388 394.3411704761523A402 402 0 0 0 95.64069305493989 390.4572420022079" fill="#006e00"/><path d="M77.11516980667658 394.5342197904859L101.94597512383756 520.7388348937114A530.6240816344564 530.6240816344564 0 0 1 79.64210882561179 524.6132389791737L60.45656607472001 397.4279854495063A402 402 0 0 0 77.11516980667658 394.5342197904859" fill="#00bbad"/><path d="M59.467752958365644 397.5771451656682L74.76478354088064 498.9845819085157A504.5546410849185 504.5546410849185 0 0 1 54.84410111680605 501.5650609970958L43.7976378954508 399.607015597548A402 402 0 0 0 59.467752958365644 397.5771451656682" fill="#d163e6"/><path d="M42.8034558527217 399.71472848403283L58.26272172202695 542.4026186948267A545.5228185048394 545.5228185048394 0 0 1 38.79746689472454 544.1414357242212L28.721366109118186 400.9726712992121A402 402 0 0 0 42.8034558527217 399.71472848403283" fill="#b24502"/><path d="M27.723833561255972 401.0428768257426L35.37321971369581 509.7310675610921A510.95697070289987 510.95697070289987 0 0 1 19.094316249362976 510.6000714814417L15.129170891514123 401.71520781286756A402 402 0 0 0 27.723833561255972 401.0428768257426" fill="#ff9287"/><path d="M14.129833293343797 401.7515996372663L19.40671573717799 546.6574161049141A547.0017835420693 547.0017835420693 0 0 1 1.9582685979265801 546.9982782260867L1.5717031055958446 401.9969275371988A402 402 0 0 0 14.129833293343797 401.7515996372663" fill="#5954d6"/><path d="M0.5717066592058654 401.9995934718042L0.8811000275904487 518.0535537967908A518.054303079072 518.054303079072 0 0 1 -15.381291332046137 517.8259136193376L-11.823620100358486 401.82608427990635A402 402 0 0 0 0.5717066592058654 401.9995934718042" fill="#00c6f8"/><path d="M-12.823150118950194 401.7954290693547L-16.17412676866564 511.05586775891203A511.31174673338325 511.31174673338325 0 0 1 -31.791659257112922 510.32243998204024L-24.888331814613892 401.22882615720135A402 402 0 0 0 -12.823150118950194 401.7954290693547" fill="#878500"/><path d="M-25.886335695638028 401.16567353682285L-32.12707380192051 499.7883563835561A500.81987784796496 500.81987784796496 0 0 1 -47.043853332146824 498.6054812287105L-37.66311562902338 400.23179499024667A402 402 0 0 0 -25.886335695638028 401.16567353682285" fill="#00a76c"/><path d="M-38.65859980997202 400.13686741005563L-47.59632251685839 493.8647550324625A496.153006823906 496.153006823906 0 0 1 -62.103407307464366 492.2509248149831L-50.224149422002455 398.8502661586631A402 402 0 0 0 -38.65859980997202 400.13686741005563" fill="#bdbdbd"/><path d="M-51.216158103102 398.7240965243486L-65.10075208818304 507.8917091720408A512.0469667600267 512.0469667600267 0 0 1 -79.70883611099687 505.8049007413572L-62.472000209378564 397.11616586313806A402 402 0 0 0 -51.216158103102 398.7240965243486" fill="#ebac23"/><path d="M-63.45965731684759 396.9595343271506L-84.27011088210975 528.182102271764A534.8623979569917 534.8623979569917 0 0 1 -94.96277311646912 526.3647561058143L-71.25132988776541 395.6352461412214A402 402 0 0 0 -63.45965731684759 396.9595343271506" fill="#b80058"/><path d="M-72.23527595508344 395.4567800755134L-93.11535941265682 510.5760097276338A518.9974295388572 518.9974295388572 0 0 1 -102.54745005743221 508.7655180480095L-79.31971431615878 394.0969207197678A402 402 0 0 0 -72.23527595508344 395.4567800755134" fill="#008cf9"/><path d="M-80.29980874284102 393.8983888211059L-98.19207295354501 482.2273100263736A492.12281162956316 492.12281162956316 0 0 1 -106.3262654189575 480.4993101017356L-86.7652534228479 392.52489194759227A402 402 0 0 0 -80.29980874284102 393.8983888211059" fill="#006e00"/><path d="M-87.74141429685108 392.30784368552753L-107.5403924422931 481.3524995928133A493.21918542458553 493.21918542458553 0 0 1 -115.63489666460477 479.47235117810277L-94.15872333393538 390.8172652533706A402 402 0 0 0 -87.74141429685108 392.30784368552753" fill="#00bbad"/><path d="M-95.13061350835775 390.5818305727027L-124.14435841611154 510.3525182175954A525.2347233167177 525.2347233167177 0 0 1 -130.79444791029024 508.68883118605163L-99.99279780365931 389.3654329641969A402 402 0 0 0 -95.13061350835775 390.5818305727027" fill="#d163e6"/><path d="M-100.9610584072416 389.11549016363966L-133.67794507174776 515.8583783703896A532.8974193346533 532.8974193346533 0 0 1 -140.10818003681004 514.1491587276071L-105.57442681874723 387.88921150489995A402 402 0 0 0 -100.9610584072416 389.11549016363966" fill="#b24502"/><path d="M-106.5389979630208 387.625388633195L-144.2750007571632 525.593181797717A545.0352911470297 545.0352911470297 0 0 1 -150.7620947039444 523.7692806916099L-111.07103079973999 386.35116942631765A402 402 0 0 0 -106.5389979630208 387.625388633195" fill="#ff9287"/><path d="M-112.03175896525478 386.0736781796333L-141.28052474391797 487.3385412189696A507.4042179853752 507.4042179853752 0 0 1 -145.81550652457585 486.0009037916818L-115.42543504700517 385.0726800802799A402 402 0 0 0 -112.03175896525478 386.0736781796333" fill="#5954d6"/><path d="M-116.38296942077169 384.78436094623663L-157.30041723332954 520.6749701398799A543.9171313646449 543.9171313646449 0 0 1 -162.1623843733033 519.1812851849625L-119.72695788564407 383.7570267180123A402 402 0 0 0 -116.38296942077169 384.78436094623663" fill="#00c6f8"/><path d="M-120.68120618354641 383.45801135728584L-157.46199758602023 500.8366219612377A525.0062881350314 525.0062881350314 0 0 1 -161.6538325701746 499.4993903867126L-123.66770511203438 382.50529239779536A402 402 0 0 0 -120.68120618354641 383.45801135728584" fill="#878500"/><path d="M-124.61882745277528 382.19647806369886L-158.99066403357116 488.05886220443705A513.3025270014999 513.3025270014999 0 0 1 -162.5960578868032 486.8695987487788L-127.2365203151194 381.33301443502137A402 402 0 0 0 -124.61882745277528 382.19647806369886" fill="#00a76c"/><path d="M-128.1847155019277 381.0153260850406L-158.7890825447111 472.35929109680035A498.3344987263704 498.3344987263704 0 0 1 -161.64050202436 471.3911546965807L-130.3018696718599 380.2964932260323A402 402 0 0 0 -128.1847155019277 381.0153260850406" fill="#bdbdbd"/><path d="M-131.2474769655567 379.9711828417724L-166.29205795187474 481.8382396238844A509.72653227168144 509.72653227168144 0 0 1 -169.06718684277132 480.8715254980117L-133.2365264521388 379.2782989032836A402 402 0 0 0 -131.2474769655567 379.9711828417724" fill="#ebac23"/><path d="M-134.1795918463187 378.9456915337016L-176.5365504773048 499.04339693871566A529.3481516757743 529.3481516757743 0 0 1 -179.31121564999788 498.05316345213436L-136.0601629148962 378.27454588905647A402 402 0 0 0 -134.1795918463187 378.9456915337016" fill="#b80058"/><path d="M-137.0007226766794 377.9349176592017L-186.47182720122711 514.9392247118197A547.6624393607565 547.6624393607565 0 0 1 -188.92340955478772 514.0448354071542L-138.5503924146658 377.36956522981836A402 402 0 0 0 -137.0007226766794 377.9349176592017" fill="#008cf9"/><path d="M-139.48869327779323 377.023745204004L-170.99688731771957 462.51377891049844A493.1114794388976 493.1114794388976 0 0 1 -172.88496213684795 461.8113478698407L-140.85473916708344 376.5155275073963A402 402 0 0 0 -139.48869327779323 377.023745204004" fill="#006e00"/><path d="M-141.79090843029854 376.1639779225421L-190.83766867955012 506.77448461583305A541.5158299114523 541.5158299114523 0 0 1 -190.78916124050573 506.7927485647691L-141.51378355520225 376.26832056910047A402 402 0 0 0 -141.79090843029854 376.1639779225421" fill="#00bbad"/><path d="M-142.4493358371884 375.91513233646754L-176.7002355004577 466.64156198326907A498.9762725782684 498.9762725782684 0 0 1 -176.28093172500863 466.8001217933274L-141.92973681399448 376.11161881535946A402 402 0 0 0 -142.4493358371884 375.91513233646754" fill="#d163e6"/><path d="M-142.86489800397237 375.75739635876045L-171.30508549092616 450.84060770805723A482.28900658590993 482.28900658590993 0 0 1 -170.86376603894038 451.0080479643508L-142.34139853339641 375.95601639494583A402 402 0 0 0 -142.86489800397237 375.75739635876045" fill="#b24502"/><path d="M-143.27617137930187 375.6007703864422L-170.37004380120197 446.89394645082837A478.2678655306243 478.2678655306243 0 0 1 -169.7111901098639 447.1445662766271L-142.57333517007612 375.86812062009346A402 402 0 0 0 -143.27617137930187 375.6007703864422" fill="#ff9287"/><path d="M-143.5078886523366 375.5122979271765L-188.81274940922856 494.5036276722933A529.3241843336938 529.3241843336938 0 0 1 -188.17548621739596 494.74647902473936L-142.79914060665004 375.78239107494403A402 402 0 0 0 -143.5078886523366 375.5122979271765" fill="#5954d6"/><path d="M-143.73348013286235 375.4260069426412L-181.57749886955537 474.64244036780184A508.18877820552643 508.18877820552643 0 0 1 -180.92253393845772 474.892483628993L-143.02016023265395 375.69832813978024A402 402 0 0 0 -143.73348013286235 375.4260069426412" fill="#00c6f8"/><path d="M-143.95428996341806 375.3413944679272L-205.5158089561734 536.4538074929836A574.4731806661034 574.4731806661034 0 0 1 -204.68321099043658 536.7720358245891L-143.0912193844021 375.6712697759637A402 402 0 0 0 -143.95428996341806 375.3413944679272" fill="#878500"/><path d="M-71.88887831793298 186.63330135372257L-100.12312243216404 260.48313535001193A279.06290231297095 279.06290231297095 0 0 1 -275.1106198080513 -46.80011021534695L-197.19116844905471 -33.40124377469389A200 200 0 0 0 -71.88887831793298 186.63330135372257" fill="#00a76c"/><path d="M-197.0216978624709 -34.38677902027523L-345.44131491596187 -59.9087070034473A350.5977113811407 350.5977113811407 0 0 1 -294.98584811308586 -189.47850706266678L-168.391944934779 -107.90807606978431A200 200 0 0 0 -197.0216978624709 -34.38677902027523" fill="#bdbdbd"/><path d="M-167.85030134118466 -108.74868431237917L-192.88563796515598 -124.8801341468383A229.78232577323598 229.78232577323598 0 0 1 -166.08164197988356 -158.79800198687428L-144.60040629901755 -138.1691807103127A200 200 0 0 0 -167.85030134118466 -108.74868431237917" fill="#ebac23"/><path d="M-143.90775504928405 -138.89045336766407L-144.23517199416696 -139.20487781415548A200.4539419603438 200.4539419603438 0 0 1 -127.01129829246383 -155.08034354328615L-126.72454831941637 -154.72843582625626A200 200 0 0 0 -143.90775504928405 -138.89045336766407" fill="#b80058"/><path d="M-125.94932450106664 -155.3601224823314L-186.06723200354932 -229.13852726112043A295.1702551085693 295.1702551085693 0 0 1 -158.25763859061834 -249.15858269098237L-107.36747502160308 -168.73714856985535A200 200 0 0 0 -125.94932450106664 -155.3601224823314" fill="#008cf9"/><path d="M-106.52244982183805 -169.27187505298687L-162.30464164442466 -257.42415341437095A304.3188976393525 304.3188976393525 0 0 1 -132.40292840034414 -274.0063065176494L-87.17020273682702 -180.00376594621702A200 200 0 0 0 -106.52244982183805 -169.27187505298687" fill="#006e00"/><path d="M-86.26909709212491 -180.4373655507903L-105.88911803017548 -221.2116453932495A245.24905173067887 245.24905173067887 0 0 1 -82.76474616151206 -230.86163424791414L-67.5812798364792 -188.2359440055578A200 200 0 0 0 -86.26909709212491 -180.4373655507903" fill="#00bbad"/><path d="M-66.63925829164462 -188.571496399481L-70.70124226786739 -199.9750103951236A212.10532864770153 212.10532864770153 0 0 1 -57.342132238734536 -204.20712600461562L-54.09696070135075 -192.5448489128611A200 200 0 0 0 -66.63925829164462 -188.571496399481" fill="#d163e6"/><path d="M-53.13356325329558 -192.81292606049016L-83.75370108027623 -302.8534979723962A314.22113817940453 314.22113817940453 0 0 1 -63.69899047358852 -307.6968675359015L-40.72201438822332 -195.81041224655377A200 200 0 0 0 -53.13356325329558 -192.81292606049016" fill="#b24502"/><path d="M-39.742456361353106 -196.01157405205933L-56.52574675796292 -277.7378579456337A283.43161041558926 283.43161041558926 0 0 1 -42.36272660505088 -280.2478852326277L-30.03825270580419 -197.73139198008556A200 200 0 0 0 -39.742456361353106 -196.01157405205933" fill="#ff9287"/><path d="M-29.0492233573027 -197.87911113186644L-45.96100140955393 -311.10914682713224A314.4857944169738 314.4857944169738 0 0 1 -32.5132267967687 -312.80058339673377L-20.85810885573248 -198.90937457787757A200 200 0 0 0 -29.0492233573027 -197.87911113186644" fill="#5954d6"/><path d="M-19.86330436444616 -199.01117842906558L-21.97359704373817 -219.63248706121027A220.72894767051574 220.72894767051574 0 0 1 -16.063256503805448 -220.1436806502204L-14.601565710964465 -199.46627353712805A200 200 0 0 0 -19.86330436444616 -199.01117842906558" fill="#00c6f8"/><path d="M-13.604054940372764 -199.53678780911383L-27.706931373300662 -399.0392536504087A400 400 0 0 1 -16.77468741609997 -399.6481075422379L-8.637117612911103 -199.81341346201145A200 200 0 0 0 -13.604054940372764 -199.53678780911383" fill="url(#diagonalHatch)"/><path d="M-7.637945703720282 -199.85410124745258L-10.956982009300004 -281.3598358596184A281.5731036333256 281.5731036333256 0 0 1 -7.784894893943441 -281.46546520167226L-5.6743687533867755 -199.9194876425272A200 200 0 0 0 -7.637945703720282 -199.85410124745258" fill="#00a76c"/><path d="M-4.674703509311532 -199.94536040403645L-6.262260096298421 -261.2849720433253A261.3600055807984 261.3600055807984 0 0 1 -6.144461852204729 -261.2877687641382L-4.8192674029018505 -199.94192822342023A200 200 0 0 0 -4.674703509311532 -199.94536040403645" fill="#bdbdbd"/><path d="M-3.8195006450396565 -199.96352521103077L-4.787101377127742 -244.7556538295779A244.80246408306246 244.80246408306246 0 0 1 -4.760780056417327 -244.75616722443075L-3.980976939876444 -199.96037563128394A200 200 0 0 0 -3.8195006450396565 -199.96352521103077" fill="#ebac23"/><path d="M-2.9811284238939613 -199.97778094908506L-4.437737420544973 -283.6526876821084A283.6873996896892 283.6873996896892 0 0 1 -4.575604853856065 -283.65049723721415L-3.3732871882310076 -199.9715503104022A200 200 0 0 0 -2.9811284238939613 -199.97778094908506" fill="#b80058"/><path d="M-2.3733903951494333 -199.98591704925676L-2.984439167082326 -242.5137108413283A242.53207380297852 242.53207380297852 0 0 1 -3.5119966664771725 -242.50664465657033L-2.9837832020646755 -199.9777413558896A200 200 0 0 0 -2.3733903951494333 -199.98591704925676" fill="#008cf9"/><path d="M-1.9838603226522267 -199.99016050351128L-3.5068800003620098 -322.6155022683202A322.6345618671029 322.6345618671029 0 0 1 -3.945245935726223 -322.61043930053484L-2.635680570426696 -199.98263221572685A200 200 0 0 0 -1.9838603226522267 -199.99016050351128" fill="#006e00"/><path d="M-1.6357375880743756 -199.9933107944937L-2.1340237071036685 -246.6528634189381A246.66209495977247 246.66209495977247 0 0 1 -2.839537949792823 -246.64575024552016L-2.396951534599027 -199.98563604254377A200 200 0 0 0 -1.6357375880743756 -199.9933107944937" fill="#00bbad"/><path d="M-1.396996517272505 -199.99512094231383L-1.6966706663420756 -231.58856696605102A231.59478198081044 231.59478198081044 0 0 1 -2.42444960921973 -231.58209145966248L-2.1619073510343343 -199.98831505016872A200 200 0 0 0 -1.396996517272505 -199.99512094231383" fill="#d163e6"/><path d="M-1.1619418767638416 -199.9966246992059L-2.410310252917541 -350.2226173660315A350.2309114144967 350.2309114144967 0 0 1 -3.01373821648668 -350.21794456051435L-1.9354662404860796 -199.99063470680804A200 200 0 0 0 -1.1619418767638416 -199.9966246992059" fill="#b24502"/><path d="M-0.9354919984825171 -199.99781212483495L-2.370977846809538 -399.99297301833934A400 400 0 0 1 -2.930637787667538 -399.98926405862136L-1.715311429701687 -199.99264413147583A200 200 0 0 0 -0.9354919984825171 -199.99781212483495" fill="url(#diagonalHatch)"/><path d="M-0.7153298925413176 -199.99872075377093L-1.2582808775236813 -289.34785818572044A289.3505941024323 289.3505941024323 0 0 1 -1.9565266845925395 -289.3439792198258L-1.5067520213230643 -199.99432416532784A200 200 0 0 0 -0.7153298925413176 -199.99872075377093" fill="#5954d6"/><path d="M-0.50676469101229 -199.99935797283936L-0.8727627603972771 -272.70643536228056A272.70783194260787 272.70783194260787 0 0 1 -1.66486144678817 -272.70274996633356L-1.3542901741569955 -199.99541469274783A200 200 0 0 0 -0.50676469101229 -199.99935797283936" fill="#00c6f8"/><path d="M-0.35429929699925033 -199.99968617977416L-1.0461745725591778 -361.97348112039697A361.97499294240566 361.97499294240566 0 0 1 -1.7919191735675797 -361.9705575614266L-1.2138138351277865 -199.99631660601565A200 200 0 0 0 -0.35429929699925033 -199.99968617977416" fill="#878500"/><path d="M-0.2138202043720328 -199.99988570226785L-0.7487593461674099 -349.8797703673895A349.8805715567752 349.8805715567752 0 0 1 -1.5192838341820545 -349.87727295371286L-1.0826445836210725 -199.99706968029696A200 200 0 0 0 -0.2138202043720328 -199.99988570226785" fill="#00a76c"/><path d="M-0.08264882712132274 -199.9999829229277L-0.49071289573955984 -340.07150758436075A340.07186162610685 340.07186162610685 0 0 1 -1.2864367713656644 -340.06942842643065L-0.962510613864438 -199.99768391988493A200 200 0 0 0 -0.08264882712132274 -199.9999829229277" fill="#bdbdbd"/><path d="M0.037486712149032014 -199.999996486866L-0.19035159361613965 -298.52155214051623A298.521612829142 298.521612829142 0 0 1 -1.021509679863097 -298.5198650744806L-0.8493940695662523 -199.99819631615327A200 200 0 0 0 0.037486712149032014 -199.999996486866" fill="#ebac23"/><path d="M0.15060440446374962 -199.99994329577535L-0.06493992763727914 -323.3808920275121A323.38089854798733 323.38089854798733 0 0 1 -0.9166231873933414 -323.37959946112244L-0.7576665036931346 -199.9985648485238A200 200 0 0 0 0.15060440446374962 -199.99994329577535" fill="#b80058"/><path d="M0.2423326663983882 -199.99985318714312L0.06251229715258523 -339.5751304606658A339.57513621460197 339.57513621460197 0 0 1 -0.796790776078008 -339.5742014046777L-0.6748008057162254 -199.99886160644166A200 200 0 0 0 0.2423326663983882 -199.99985318714312" fill="#008cf9"/><path d="M0.3251988123390251 -199.99973561415638L0.23128412667593037 -307.452619851764A307.4527068445821 307.4527068445821 0 0 1 -0.6699164503962511 -307.4519769947984L-0.6105315382116924 -199.99906812593116A200 200 0 0 0 0.3251988123390251 -199.99973561415638" fill="#006e00"/><path d="M0.3894683090719349 -199.99962078573105L0.3118170069142776 -340.504304338002A340.5044471112712 340.5044471112712 0 0 1 -0.5930700001182208 -340.50393062419624L-0.5546658331673753 -199.99923086305486A200 200 0 0 0 0.3894683090719349 -199.99962078573105" fill="#00bbad"/><path d="M0.44533412947801476 -199.99950419316826L0.4085522545133925 -334.5689196722779A334.56916911995916 334.56916911995916 0 0 1 -0.537996904020682 -334.56873656238577L-0.5227138834351356 -199.9993169243237A200 200 0 0 0 0.44533412947801476 -199.99950419316826" fill="#d163e6"/><path d="M0.47728611011588223 -199.9994304941119L0.4545721169841912 -399.9997417051547A400 400 0 0 1 -0.521045039265391 -399.99966063993986L-0.5105224946245671 -199.9993484158948A200 200 0 0 0 0.47728611011588223 -199.9994304941119" fill="url(#diagonalHatch)"/><path d="M0.489477503991454 -199.9994010285358L0.485774963897097 -270.3729846202939A270.37342101212766 270.37342101212766 0 0 1 -0.5000000000003142 -270.37295868818177L-0.5000000000002475 -199.99937499902342A200 200 0 0 0 0.489477503991454 -199.9994010285358" fill="#ff9287"/></g><g><defs><path d="M98.33773948992565 18.157339893594425L491.6886974496283 90.78669946797213" stroke="#aaa" stroke-width="2" fill="none" id="textpath-2092821981621893704"/></defs><text text-anchor="middle" dominant-baseline="middle" class="label"><textPath href="#textpath-2092821981621893704" startOffset="50%"><tspan>United States | 54.1%</tspan></textPath></text><defs><path d="M62.56412962129954 -295.448353667319L145.43052647070292 -686.7706764054899" stroke="#aaa" stroke-width="2" fill="none" id="textpath-CAA"/></defs><text text-anchor="middle" dominant-baseline="middle" class="label"><textPath href="#textpath-CAA" startOffset="50%"><tspan>California | 57.7%</tspan></textPath></text><defs><path d="M163.09378318489394 -254.17399136504665L379.11203905892563 -590.828284563784" stroke="#aaa" stroke-width="2" fill="none" id="textpath-TXA"/></defs><text text-anchor="middle" dominant-baseline="middle" class="label"><textPath href="#textpath-TXA" startOffset="50%"><tspan>Texas | 50.0%</tspan></textPath></text><defs><path d="M224.28848853145442 -202.23420559409732L521.3593342684802 -470.09408055316663" stroke="#aaa" stroke-width="2" fill="none" id="textpath-FLA"/></defs><text text-anchor="middle" dominant-baseline="middle" class="label"><textPath href="#textpath-FLA" startOffset="50%"><tspan>Florida | 55.8%</tspan></textPath></text><defs><path d="M262.4459793252642 -149.41923549531023L610.0565479679983 -347.3255076745291" stroke="#aaa" stroke-width="2" fill="none" id="textpath-NYA"/></defs><text text-anchor="middle" dominant-baseline="middle" class="label"><textPath href="#textpath-NYA" startOffset="50%"><tspan>New York State | 62.4%</tspan></textPath></text><defs><path d="M283.97807863965306 -102.7640542803319L660.1079841226373 -238.87538445295695" stroke="#aaa" stroke-width="2" fill="none" id="textpath-PAA"/></defs><text text-anchor="middle" dominant-baseline="middle" class="label"><textPath href="#textpath-PAA" startOffset="50%"><tspan>Pennsylvania | 56.8%</tspan></textPath></text><defs><path d="M295.1957355867425 -63.74541310088138L686.183464840706 -148.17642383052558" stroke="#aaa" stroke-width="2" fill="none" id="textpath-ILA"/></defs><text text-anchor="middle" dominant-baseline="middle" class="label"><textPath href="#textpath-ILA" startOffset="50%"><tspan>Illinois | 52.6%</tspan></textPath></text><defs><path d="M300.93468752931403 -25.343911332588725L699.5236776343658 -58.91200581283869" stroke="#aaa" stroke-width="2" fill="none" id="textpath-OHA"/></defs><text text-anchor="middle" dominant-baseline="middle" class="label"><textPath href="#textpath-OHA" startOffset="50%"><tspan>Ohio | 49.5%</tspan></textPath></text><defs><path d="M301.82761892859617 10.202374816391782L701.5992996287234 23.71545404340076" stroke="#aaa" stroke-width="2" fill="none" id="textpath-GAA"/></defs><text text-anchor="middle" dominant-baseline="middle" class="label"><textPath href="#textpath-GAA" startOffset="50%"><tspan>Georgia | 44.1%</tspan></textPath></text><defs><path d="M298.81967528568606 43.712717396166695L694.6073246707008 101.61035633148683" stroke="#aaa" stroke-width="2" fill="none" id="textpath-NCA"/></defs><text text-anchor="middle" dominant-baseline="middle" class="label"><textPath href="#textpath-NCA" startOffset="50%"><tspan>North Carolina | 48.5%</tspan></textPath></text><defs><path d="M292.3566342534542 75.7073207027696L679.5839643904797 175.9819176600803" stroke="#aaa" stroke-width="2" fill="none" id="textpath-MIA"/></defs><text text-anchor="middle" dominant-baseline="middle" class="label"><textPath href="#textpath-MIA" startOffset="50%"><tspan>Michigan | 51.6%</tspan></textPath></text><defs><path d="M283.3741227774471 104.41794165809016L658.7040867210857 242.71985113900428" stroke="#aaa" stroke-width="2" fill="none" id="textpath-NJA"/></defs><text text-anchor="middle" dominant-baseline="middle" class="label"><textPath href="#textpath-NJA" startOffset="50%"><tspan>New Jersey | 63.4%</tspan></textPath></text><defs><path d="M272.5842901904881 130.00694112757125L633.623085144777 302.2015651375994" stroke="#aaa" stroke-width="2" fill="none" id="textpath-VAA"/></defs><text text-anchor="middle" dominant-baseline="middle" class="label"><textPath href="#textpath-VAA" startOffset="50%"><tspan>Virginia | 59.3%</tspan></textPath></text><defs><path d="M260.5177244487923 152.75639184015546L605.5743131226894 355.08273864830835" stroke="#aaa" stroke-width="2" fill="none" id="textpath-WAA"/></defs><text text-anchor="middle" dominant-baseline="middle" class="label"><textPath href="#textpath-WAA" startOffset="50%"><tspan>Washington | 62.2%</tspan></textPath></text><defs><path d="M247.70907169426698 172.7547851735647L575.8005573820378 401.5690701716636" stroke="#aaa" stroke-width="2" fill="none" id="textpath-AZA"/></defs><text text-anchor="middle" dominant-baseline="middle" class="label"><textPath href="#textpath-AZA" startOffset="50%"><tspan>Arizona | 50.2%</tspan></textPath></text><defs><path d="M234.09822091673453 190.79314181495033L544.1620896806213 443.4992899142223" stroke="#aaa" stroke-width="2" fill="none" id="textpath-MAA"/></defs><text text-anchor="middle" dominant-baseline="middle" class="label"><textPath href="#textpath-MAA" startOffset="50%"><tspan>Massachusetts | 67.2%</tspan></textPath></text><defs><path d="M219.66933972612284 207.24232478981997L510.62210757529215 481.7354702068001" stroke="#aaa" stroke-width="2" fill="none" id="textpath-TNA"/></defs><text text-anchor="middle" dominant-baseline="middle" class="label"><textPath href="#textpath-TNA" startOffset="50%"><tspan>Tennessee | 44.1%</tspan></textPath></text><defs><path d="M204.27568534019014 222.43076311246972L474.8395069828261 517.0410453806415" stroke="#aaa" stroke-width="2" fill="none" id="textpath-INA"/></defs><text text-anchor="middle" dominant-baseline="middle" class="label"><textPath href="#textpath-INA" startOffset="50%"><tspan>Indiana | 47.5%</tspan></textPath></text><defs><path d="M188.69727859211463 235.79087567573492L438.62744891279624 548.0966712727349" stroke="#aaa" stroke-width="2" fill="none" id="textpath-MOA"/></defs><text text-anchor="middle" dominant-baseline="middle" class="label"><textPath href="#textpath-MOA" startOffset="50%"><tspan>Missouri | 46.9%</tspan></textPath></text><defs><path d="M173.1457688693701 247.43593660306232L402.47791306721126 575.1656539581118" stroke="#aaa" stroke-width="2" fill="none" id="textpath-MDA"/></defs><text text-anchor="middle" dominant-baseline="middle" class="label"><textPath href="#textpath-MDA" startOffset="50%"><tspan>Maryland | 63.2%</tspan></textPath></text><defs><path d="M157.3067612696019 257.7956222647477L365.6600874545051 599.2467775822943" stroke="#aaa" stroke-width="2" fill="none" id="textpath-WIA"/></defs><text text-anchor="middle" dominant-baseline="middle" class="label"><textPath href="#textpath-WIA" startOffset="50%"><tspan>Wisconsin | 55.5%</tspan></textPath></text><defs><path d="M141.2546213877259 266.92907660389903L328.34683514630325 620.477522436878" stroke="#aaa" stroke-width="2" fill="none" id="textpath-COA"/></defs><text text-anchor="middle" dominant-baseline="middle" class="label"><textPath href="#textpath-COA" startOffset="50%"><tspan>Colorado | 58.5%</tspan></textPath></text><defs><path d="M124.93970687116288 274.9437572430913L290.4227623296568 639.1076741213578" stroke="#aaa" stroke-width="2" fill="none" id="textpath-MNA"/></defs><text text-anchor="middle" dominant-baseline="middle" class="label"><textPath href="#textpath-MNA" startOffset="50%"><tspan>Minnesota | 57.4%</tspan></textPath></text><defs><path d="M109.08000748002671 281.61241444254074L253.55683857939982 654.6089898631244" stroke="#aaa" stroke-width="2" fill="none" id="textpath-SCA"/></defs><text text-anchor="middle" dominant-baseline="middle" class="label"><textPath href="#textpath-SCA" startOffset="50%"><tspan>South Carolina | 45.8%</tspan></textPath></text><defs><path d="M93.98327743748872 287.00373440446384L218.46443960634795 667.1411309666677" stroke="#aaa" stroke-width="2" fill="none" id="textpath-ALA"/></defs><text text-anchor="middle" dominant-baseline="middle" class="label"><textPath href="#textpath-ALA" startOffset="50%"><tspan>Alabama | 41.1%</tspan></textPath></text><defs><path d="M79.39132318771404 291.3777922260101L184.5453936350174 677.3086428564872" stroke="#aaa" stroke-width="2" fill="none" id="textpath-LAA"/></defs><text text-anchor="middle" dominant-baseline="middle" class="label"><textPath href="#textpath-LAA" startOffset="50%"><tspan>Louisiana | 44.2%</tspan></textPath></text><defs><path d="M65.27574474311714 294.86111501558054L151.73368480022594 685.405638215025" stroke="#aaa" stroke-width="2" fill="none" id="textpath-KYA"/></defs><text text-anchor="middle" dominant-baseline="middle" class="label"><textPath href="#textpath-KYA" startOffset="50%"><tspan>Kentucky | 50.8%</tspan></textPath></text><defs><path d="M51.68638615290615 297.5441437609765L120.14517575940437 691.642347417899" stroke="#aaa" stroke-width="2" fill="none" id="textpath-ORA"/></defs><text text-anchor="middle" dominant-baseline="middle" class="label"><textPath href="#textpath-ORA" startOffset="50%"><tspan>Oregon | 59.7%</tspan></textPath></text><defs><path d="M38.796234427947745 299.4976664253191L90.18197539211695 696.1833173197815" stroke="#aaa" stroke-width="2" fill="none" id="textpath-OKA"/></defs><text text-anchor="middle" dominant-baseline="middle" class="label"><textPath href="#textpath-OKA" startOffset="50%"><tspan>Oklahoma | 46.3%</tspan></textPath></text><defs><path d="M26.87044366748597 300.80222615052645L62.46043528005017 699.2157707207601" stroke="#aaa" stroke-width="2" fill="none" id="textpath-CTA"/></defs><text text-anchor="middle" dominant-baseline="middle" class="label"><textPath href="#textpath-CTA" startOffset="50%"><tspan>Connecticut | 67.7%</tspan></textPath></text><defs><path d="M16.098507523912033 301.5706186874022L37.42103404564983 701.001901717074" stroke="#aaa" stroke-width="2" fill="none" id="textpath-UTA"/></defs><text text-anchor="middle" dominant-baseline="middle" class="label"><textPath href="#textpath-UTA" startOffset="50%"><tspan>Utah | 49.5%</tspan></textPath></text><defs><path d="M5.89856064349319 301.9423901712627L13.71122374745768 701.8660857623391" stroke="#aaa" stroke-width="2" fill="none" id="textpath-PRA"/></defs><text text-anchor="middle" dominant-baseline="middle" class="label"><textPath href="#textpath-PRA" startOffset="50%"><tspan>Puerto Rico | 68.5%</tspan></textPath></text><defs><path d="M-9.825599887878306 701.9312342294246L-4.226967473132833 301.9704170046812" stroke="#aaa" stroke-width="2" fill="none" id="textpath-IAA"/></defs><text text-anchor="middle" dominant-baseline="middle" class="label"><textPath href="#textpath-IAA" startOffset="50%"><tspan>Iowa | 53.2%</tspan></textPath></text><defs><path d="M-32.93090574774809 701.2271782002127L-14.166856888632369 301.6675325020858" stroke="#aaa" stroke-width="2" fill="none" id="textpath-NVA"/></defs><text text-anchor="middle" dominant-baseline="middle" class="label"><textPath href="#textpath-NVA" startOffset="50%"><tspan>Nevada | 49.7%</tspan></textPath></text><defs><path d="M-55.49319846258338 699.8031901359069L-23.873142358547266 301.0549336482107" stroke="#aaa" stroke-width="2" fill="none" id="textpath-ARA"/></defs><text text-anchor="middle" dominant-baseline="middle" class="label"><textPath href="#textpath-ARA" startOffset="50%"><tspan>Arkansas | 44.4%</tspan></textPath></text><defs><path d="M-77.6147097074288 697.6961780295428L-33.38980389123006 300.1484982406295" stroke="#aaa" stroke-width="2" fill="none" id="textpath-MSA"/></defs><text text-anchor="middle" dominant-baseline="middle" class="label"><textPath href="#textpath-MSA" startOffset="50%"><tspan>Mississippi | 42.1%</tspan></textPath></text><defs><path d="M-99.274961452923 694.944948919352L-42.70803185011787 298.96492104507735" stroke="#aaa" stroke-width="2" fill="none" id="textpath-KSA"/></defs><text text-anchor="middle" dominant-baseline="middle" class="label"><textPath href="#textpath-KSA" startOffset="50%"><tspan>Kansas | 50.1%</tspan></textPath></text><defs><path d="M-117.62647066134322 692.0751501099835L-50.60284065487985 297.7303352325" stroke="#aaa" stroke-width="2" fill="none" id="textpath-NMA"/></defs><text text-anchor="middle" dominant-baseline="middle" class="small-label-8"><textPath href="#textpath-NMA" startOffset="50%"><tspan>New Mexico | 62.0%</tspan></textPath></text><defs><path d="M-132.3331913623205 689.4141907908942L-56.929663520542434 296.58559204964394" stroke="#aaa" stroke-width="2" fill="none" id="textpath-NEA"/></defs><text text-anchor="middle" dominant-baseline="middle" class="small-label-8"><textPath href="#textpath-NEA" startOffset="50%"><tspan>Nebraska | 53.7%</tspan></textPath></text><defs><path d="M-145.87517046616284 686.6763681979073L-62.755415214788 295.40778233015385" stroke="#aaa" stroke-width="2" fill="none" id="textpath-WVA"/></defs><text text-anchor="middle" dominant-baseline="middle" class="small-label-7"><textPath href="#textpath-WVA" startOffset="50%"><tspan>West Virginia | 40.1%</tspan></textPath></text><defs><path d="M-158.82858687022969 683.796373193662L-68.32796757095352 294.1688101203503" stroke="#aaa" stroke-width="2" fill="none" id="textpath-IDA"/></defs><text text-anchor="middle" dominant-baseline="middle" class="small-label-7"><textPath href="#textpath-IDA" startOffset="50%"><tspan>Idaho | 40.7%</tspan></textPath></text><defs><path d="M-170.37225914470068 681.0119626804884L-73.29404880583989 292.97095830414173" stroke="#aaa" stroke-width="2" fill="none" id="textpath-HIA"/></defs><text text-anchor="middle" dominant-baseline="middle" class="small-label-6"><textPath href="#textpath-HIA" startOffset="50%"><tspan>Hawaii | 56.9%</tspan></textPath></text><defs><path d="M-180.33640073849875 678.4414363588677L-77.58061684191827 291.8651193452679" stroke="#aaa" stroke-width="2" fill="none" id="textpath-NHA"/></defs><text text-anchor="middle" dominant-baseline="middle" class="small-label-5"><textPath href="#textpath-NHA" startOffset="50%"><tspan>New Hampshire | 60.9%</tspan></textPath></text><defs><path d="M-190.006043600086 675.7970874422605L-81.7404916912051 290.727521948095" stroke="#aaa" stroke-width="2" fill="none" id="textpath-MEA"/></defs><text text-anchor="middle" dominant-baseline="middle" class="small-label-5"><textPath href="#textpath-MEA" startOffset="50%"><tspan>Maine | 67.5%</tspan></textPath></text><defs><path d="M-198.60260748580228 673.3208776652037L-85.43872857651323 289.6622579129509" stroke="#aaa" stroke-width="2" fill="none" id="textpath-MTA"/></defs><text text-anchor="middle" dominant-baseline="middle" class="small-label-4"><textPath href="#textpath-MTA" startOffset="50%"><tspan>Montana | 47.7%</tspan></textPath></text><defs><path d="M-206.1576342512231 671.0462203454684L-88.68889678613871 288.6837016301018" stroke="#aaa" stroke-width="2" fill="none" id="textpath-RIA"/></defs><text text-anchor="middle" dominant-baseline="middle" class="small-label-4"><textPath href="#textpath-RIA" startOffset="50%"><tspan>Rhode Island | 66.9%</tspan></textPath></text><defs><path d="M-213.35104424206153 668.7939383104649L-91.7834976653883 287.7147711819949" stroke="#aaa" stroke-width="2" fill="none" id="textpath-DEA"/></defs><text text-anchor="middle" dominant-baseline="middle" class="small-label-4"><textPath href="#textpath-DEA" startOffset="50%"><tspan>Delaware | 56.8%</tspan></textPath></text><defs><path d="M-434.4883352468909 247.4265275478467L-86.89766704937819 49.485305509569336" stroke="#aaa" stroke-width="2" fill="none" id="textpath-7510733420364801679"/></defs><text text-anchor="middle" dominant-baseline="middle" class="label"><textPath href="#textpath-7510733420364801679" startOffset="50%"><tspan>Mexico | 31.6%</tspan></textPath></text><defs><path d="M-465.92064684845724 -181.4330478174117L-93.18412936969145 -36.286609563482344" stroke="#aaa" stroke-width="2" fill="none" id="textpath-5536426322498842060"/></defs><text text-anchor="middle" dominant-baseline="middle" class="label"><textPath href="#textpath-5536426322498842060" startOffset="50%"><tspan>Canada | 69.1%</tspan></textPath></text><defs><path d="M-392.2909680509082 -310.0125745605835L-78.45819361018164 -62.0025149121167" stroke="#aaa" stroke-width="2" fill="none" id="textpath--2120936324437554204"/></defs><text text-anchor="middle" dominant-baseline="middle" class="label"><textPath href="#textpath--2120936324437554204" startOffset="50%"><tspan>Guatemala | 10.7%</tspan></textPath></text><defs><path d="M-338.8691794847952 -367.65157308966L-67.77383589695904 -73.530314617932" stroke="#aaa" stroke-width="2" fill="none" id="textpath--8370242020546488715"/></defs><text text-anchor="middle" dominant-baseline="middle" class="label"><textPath href="#textpath--8370242020546488715" startOffset="50%"><tspan>Haiti | 0.2%</tspan></textPath></text><defs><path d="M-292.124956585491 -405.7869018831497L-58.424991317098204 -81.15738037662994" stroke="#aaa" stroke-width="2" fill="none" id="textpath-9059021321826435430"/></defs><text text-anchor="middle" dominant-baseline="middle" class="label"><textPath href="#textpath-9059021321826435430" startOffset="50%"><tspan>Cuba | 39.3%</tspan></textPath></text><defs><path d="M-242.4871682731246 -437.2641915625853L-48.49743365462492 -87.45283831251707" stroke="#aaa" stroke-width="2" fill="none" id="textpath-2572273921072089437"/></defs><text text-anchor="middle" dominant-baseline="middle" class="label"><textPath href="#textpath-2572273921072089437" startOffset="50%"><tspan>Dominican Republic | 43.8%</tspan></textPath></text><defs><path d="M-192.55987829677778 -461.43330316561475L-38.511975659355556 -92.28666063312295" stroke="#aaa" stroke-width="2" fill="none" id="textpath--2072893925611359658"/></defs><text text-anchor="middle" dominant-baseline="middle" class="label"><textPath href="#textpath--2072893925611359658" startOffset="50%"><tspan>Honduras | 16.8%</tspan></textPath></text><defs><path d="M-151.001976947531 -476.65333624966615L-30.200395389506202 -95.33066724993323" stroke="#aaa" stroke-width="2" fill="none" id="textpath--9053549367790842453"/></defs><text text-anchor="middle" dominant-baseline="middle" class="label"><textPath href="#textpath--9053549367790842453" startOffset="50%"><tspan>Nicaragua | 4.2%</tspan></textPath></text><defs><path d="M-117.3792889116492 -486.02685371756525L-23.47585778232984 -97.20537074351306" stroke="#aaa" stroke-width="2" fill="none" id="textpath-5465263849037993807"/></defs><text text-anchor="middle" dominant-baseline="middle" class="label"><textPath href="#textpath-5465263849037993807" startOffset="50%"><tspan>El Salvador | 48.9%</tspan></textPath></text><defs><path d="M-87.25237399725874 -492.3281661979563L-17.450474799451747 -98.46563323959127" stroke="#aaa" stroke-width="2" fill="none" id="textpath--4848587552269654531"/></defs><text text-anchor="middle" dominant-baseline="middle" class="label"><textPath href="#textpath--4848587552269654531" startOffset="50%"><tspan>Costa Rica | 33.6%</tspan></textPath></text><defs><path d="M-62.39745652105999 -496.0912793223667L-12.479491304211997 -99.21825586447333" stroke="#aaa" stroke-width="2" fill="none" id="textpath-1451292996986869909"/></defs><text text-anchor="middle" dominant-baseline="middle" class="small-label-9"><textPath href="#textpath-1451292996986869909" startOffset="50%"><tspan>Panama | 49.1%</tspan></textPath></text><defs><path d="M-43.08484327594771 -498.14023756356704L-8.616968655189543 -99.62804751271341" stroke="#aaa" stroke-width="2" fill="none" id="textpath--2659222353443374709"/></defs><text text-anchor="middle" dominant-baseline="middle" class="small-label-6"><textPath href="#textpath--2659222353443374709" startOffset="50%"><tspan>Jamaica | 7.3%</tspan></textPath></text><defs><path d="M-27.803615948986646 -499.22636042196456L-5.560723189797329 -99.84527208439292" stroke="#aaa" stroke-width="2" fill="none" id="textpath-1902334490250746541"/></defs><text text-anchor="middle" dominant-baseline="middle" class="small-label-5"><textPath href="#textpath-1902334490250746541" startOffset="50%"><tspan>Puerto Rico | (n/a)</tspan></textPath></text></g><text y="654" class="legend">
            <tspan x="-654">* Showing percentage of population fully vaccinated, having received all shots according to each countries chosen vaccine(s).</tspan>
            <tspan x="-654" dy="1.2em">Countries where no data was available are not counted towards a region's percentage.</tspan>
            </text><text y="-654" class="title" text-anchor="middle">
                <tspan x="0">Covid Vaccinations* by Country and US State</tspan>
            </text><text xmlns:xlink="http://www.w3.org/1999/xlink" y="654" class="sources" text-anchor="end">
    <tspan x="654">Data source:
        <a xlink:href="https://github.com/owid/covid-19-data/tree/master/public/data/vaccinations">
            <tspan>https://github.com/owid/covid-19-data/tree/master/public/data/vaccinations</tspan>
        </a>
    </tspan>
    <tspan x="654" dy="1.2em">Code source:
        <a xlink:href="https://github.com/WorldSEnder/vis_covid_vacc">
            <tspan>https://github.com/WorldSEnder/vis_covid_vacc</tspan>
        </a>
    </tspan>
    <tspan x="654" dy="1.2em">Timestamp: Sun Sep 19 02:00:22 2021 +0000</tspan>
</text><text text-anchor="middle" dominant-baseline="middle" class="label_all" x="0" y="0">
    <tspan>North America | 45.4%</tspan>
</text></svg>