<svg xmlns="http://www.w3.org/2000/svg" viewBox="-664 -684 1328 1388"><style>
text {
    font-family: "Open Sans";
}
.legend, .sources {
    font-size: 10pt;
}
.title {
    font-size: 20pt;
    font-weight: bold;
}
.label_all {
    font-size: 18pt;
}
.label {
}
.small-label-9 {
   font-size: 9pt;
}
.small-label-8 {
   font-size: 8pt;
}
.small-label-7 {
   font-size: 7pt;
}
.small-label-6 {
   font-size: 6pt;
}
.small-label-5 {
   font-size: 5pt;
}
.small-label-4 {
   font-size: 4pt;
}
a {
    text-decoration: underline;
}
</style><style type="text/css">
@font-face{
  font-family:'Open Sans';src:local('Open Sans')
             , local('OpenSans')
             , url(https://fonts.gstatic.com/s/opensans/v18/mem5YaGs126MiZpBA-UN_r8OUuhp.woff2) format('woff2');
  }
</style><defs><pattern id="diagonalHatch" width="10" height="10" patternTransform="rotate(45 0 0)" patternUnits="userSpaceOnUse">
  <line x1="0" y1="0" x2="0" y2="10" style="stroke:#444; stroke-width:1"/>
</pattern></defs><circle cx="0" cy="0" r="199.0" stroke="#aaa" stroke-width="2" fill="none"/><path d="M2.4554168322904432e-14 -401.0A401.0 401.0 0 1 1 -143.22333587177707 374.55049868043176" stroke="#aaa" stroke-width="2" fill="none"/><path d="M3.69231009942927e-14 -603.0A603.0 603.0 0 0 1 244.4171760170551 -551.2433619263346" stroke="#aaa" stroke-width="2" fill="none"/><path d="M244.4171760170551 -551.2433619263346A603.0 603.0 0 0 1 399.2442158576684 -451.89938714739975" stroke="#aaa" stroke-width="2" fill="none"/><path d="M399.2442158576684 -451.89938714739975A603.0 603.0 0 0 1 490.65442993449096 -350.52422225241395" stroke="#aaa" stroke-width="2" fill="none"/><path d="M490.65442993449096 -350.52422225241395A603.0 603.0 0 0 1 551.8518493715006 -243.04019491692014" stroke="#aaa" stroke-width="2" fill="none"/><path d="M551.8518493715006 -243.04019491692014A603.0 603.0 0 0 1 579.5782600104217 -166.4272829895748" stroke="#aaa" stroke-width="2" fill="none"/><path d="M579.5782600104217 -166.4272829895748A603.0 603.0 0 0 1 596.6036259391198 -87.59630994679439" stroke="#aaa" stroke-width="2" fill="none"/><path d="M596.6036259391198 -87.59630994679439A603.0 603.0 0 0 1 602.8498324135466 -13.456580507646546" stroke="#aaa" stroke-width="2" fill="none"/><path d="M602.8498324135466 -13.456580507646546A603.0 603.0 0 0 1 600.5688105207021 54.093473079004795" stroke="#aaa" stroke-width="2" fill="none"/><path d="M600.5688105207021 54.093473079004795A603.0 603.0 0 0 1 590.9072258151139 120.15677458839332" stroke="#aaa" stroke-width="2" fill="none"/><path d="M590.9072258151139 120.15677458839332A603.0 603.0 0 0 1 574.9713819246992 181.70555843892527" stroke="#aaa" stroke-width="2" fill="none"/><path d="M574.9713819246992 181.70555843892527A603.0 603.0 0 0 1 555.4206755718502 234.76983014712408" stroke="#aaa" stroke-width="2" fill="none"/><path d="M555.4206755718502 234.76983014712408A603.0 603.0 0 0 1 532.0277195745471 283.8230181016105" stroke="#aaa" stroke-width="2" fill="none"/><path d="M532.0277195745471 283.8230181016105A603.0 603.0 0 0 1 507.5039187134512 325.65130506492795" stroke="#aaa" stroke-width="2" fill="none"/><path d="M507.5039187134512 325.65130506492795A603.0 603.0 0 0 1 480.99305752166754 363.66836350713527" stroke="#aaa" stroke-width="2" fill="none"/><path d="M480.99305752166754 363.66836350713527A603.0 603.0 0 0 1 453.2666882843137 397.69122355386565" stroke="#aaa" stroke-width="2" fill="none"/><path d="M453.2666882843137 397.69122355386565A603.0 603.0 0 0 1 423.426302619207 429.3240806782537" stroke="#aaa" stroke-width="2" fill="none"/><path d="M423.426302619207 429.3240806782537A603.0 603.0 0 0 1 391.8532937154016 458.3230260464678" stroke="#aaa" stroke-width="2" fill="none"/><path d="M391.8532937154016 458.3230260464678A603.0 603.0 0 0 1 361.3396650430807 482.74490827615597" stroke="#aaa" stroke-width="2" fill="none"/><path d="M361.3396650430807 482.74490827615597A603.0 603.0 0 0 1 329.79742658483747 504.81943050760117" stroke="#aaa" stroke-width="2" fill="none"/><path d="M329.79742658483747 504.81943050760117A603.0 603.0 0 0 1 298.1475676117869 524.1345513579266" stroke="#aaa" stroke-width="2" fill="none"/><path d="M298.1475676117869 524.1345513579266A603.0 603.0 0 0 1 265.7346706047517 541.2892801807404" stroke="#aaa" stroke-width="2" fill="none"/><path d="M265.7346706047517 541.2892801807404A603.0 603.0 0 0 1 233.0387368817737 556.149212992833" stroke="#aaa" stroke-width="2" fill="none"/><path d="M233.0387368817737 556.149212992833A603.0 603.0 0 0 1 202.46406194550343 567.9941052691721" stroke="#aaa" stroke-width="2" fill="none"/><path d="M202.46406194550343 567.9941052691721A603.0 603.0 0 0 1 172.78955821218975 577.7133965668758" stroke="#aaa" stroke-width="2" fill="none"/><path d="M172.78955821218975 577.7133965668758A603.0 603.0 0 0 1 144.22545461258227 585.4980941401893" stroke="#aaa" stroke-width="2" fill="none"/><path d="M144.22545461258227 585.4980941401893A603.0 603.0 0 0 1 116.44576930752622 591.6497129301918" stroke="#aaa" stroke-width="2" fill="none"/><path d="M116.44576930752622 591.6497129301918A603.0 603.0 0 0 1 89.98119353642635 596.2485931302147" stroke="#aaa" stroke-width="2" fill="none"/><path d="M89.98119353642635 596.2485931302147A603.0 603.0 0 0 1 64.98949311147898 599.4875860141835" stroke="#aaa" stroke-width="2" fill="none"/><path d="M64.98949311147898 599.4875860141835A603.0 603.0 0 0 1 42.3731663311944 601.509363829915" stroke="#aaa" stroke-width="2" fill="none"/><path d="M42.3731663311944 601.509363829915A603.0 603.0 0 0 1 21.984008345517665 602.599123279369" stroke="#aaa" stroke-width="2" fill="none"/><path d="M21.984008345517665 602.599123279369A603.0 603.0 0 0 1 1.6477550330066315 602.9977486718761" stroke="#aaa" stroke-width="2" fill="none"/><path d="M1.6477550330066315 602.9977486718761A603.0 603.0 0 0 1 -18.44448763352458 602.7178451613464" stroke="#aaa" stroke-width="2" fill="none"/><path d="M-18.44448763352458 602.7178451613464A603.0 603.0 0 0 1 -38.040071907529025 601.7989306481609" stroke="#aaa" stroke-width="2" fill="none"/><path d="M-38.040071907529025 601.7989306481609A603.0 603.0 0 0 1 -57.20006967948168 600.2808942725584" stroke="#aaa" stroke-width="2" fill="none"/><path d="M-57.20006967948168 600.2808942725584A603.0 603.0 0 0 1 -76.03877297273887 598.1865135597762" stroke="#aaa" stroke-width="2" fill="none"/><path d="M-76.03877297273887 598.1865135597762A603.0 603.0 0 0 1 -94.40709254752585 595.5638512172502" stroke="#aaa" stroke-width="2" fill="none"/><path d="M-94.40709254752585 595.5638512172502A603.0 603.0 0 0 1 -107.5731916335349 593.3270670058587" stroke="#aaa" stroke-width="2" fill="none"/><path d="M-107.5731916335349 593.3270670058587A603.0 603.0 0 0 1 -119.67279622820406 591.005433006265" stroke="#aaa" stroke-width="2" fill="none"/><path d="M-119.67279622820406 591.005433006265A603.0 603.0 0 0 1 -130.83809501160468 588.6343456626824" stroke="#aaa" stroke-width="2" fill="none"/><path d="M-130.83809501160468 588.6343456626824A603.0 603.0 0 0 1 -141.92505424555978 586.0599619300016" stroke="#aaa" stroke-width="2" fill="none"/><path d="M-141.92505424555978 586.0599619300016A603.0 603.0 0 0 1 -150.67342214217362 583.8720064020592" stroke="#aaa" stroke-width="2" fill="none"/><path d="M-150.67342214217362 583.8720064020592A603.0 603.0 0 0 1 -159.04308798050081 581.6479142622508" stroke="#aaa" stroke-width="2" fill="none"/><path d="M-159.04308798050081 581.6479142622508A603.0 603.0 0 0 1 -167.28511112991964 579.3312451389537" stroke="#aaa" stroke-width="2" fill="none"/><path d="M-167.28511112991964 579.3312451389537A603.0 603.0 0 0 1 -173.81432874787401 577.4059049939877" stroke="#aaa" stroke-width="2" fill="none"/><path d="M-173.81432874787401 577.4059049939877A603.0 603.0 0 0 1 -180.26416118896745 575.4249144682892" stroke="#aaa" stroke-width="2" fill="none"/><path d="M-180.26416118896745 575.4249144682892A603.0 603.0 0 0 1 -186.17295475043585 573.5404352959713" stroke="#aaa" stroke-width="2" fill="none"/><path d="M-186.17295475043585 573.5404352959713A603.0 603.0 0 0 1 -191.52400237787117 571.7757921713381" stroke="#aaa" stroke-width="2" fill="none"/><path d="M-191.52400237787117 571.7757921713381A603.0 603.0 0 0 1 -196.12010638738496 570.2156643504287" stroke="#aaa" stroke-width="2" fill="none"/><path d="M-196.12010638738496 570.2156643504287A603.0 603.0 0 0 1 -200.520208252404 568.683256376001" stroke="#aaa" stroke-width="2" fill="none"/><path d="M-200.520208252404 568.683256376001A603.0 603.0 0 0 1 -204.75380887792267 567.1727053993194" stroke="#aaa" stroke-width="2" fill="none"/><path d="M-204.75380887792267 567.1727053993194A603.0 603.0 0 0 1 -208.4874835346325 565.8108952727902" stroke="#aaa" stroke-width="2" fill="none"/><path d="M-208.4874835346325 565.8108952727902A603.0 603.0 0 0 1 -211.94242973070982 564.5258244578747" stroke="#aaa" stroke-width="2" fill="none"/><path d="M-211.94242973070982 564.5258244578747A603.0 603.0 0 0 1 -212.94675494294333 564.1477462148281" stroke="#aaa" stroke-width="2" fill="none"/><path d="M-212.94675494294333 564.1477462148281A603.0 603.0 0 0 1 -213.5799791079235 563.9083192543438" stroke="#aaa" stroke-width="2" fill="none"/><path d="M-213.5799791079235 563.9083192543438A603.0 603.0 0 0 1 -214.18929764667726 563.6771636084108" stroke="#aaa" stroke-width="2" fill="none"/><path d="M-214.18929764667726 563.6771636084108A603.0 603.0 0 0 1 -214.6520803225564 563.5010953078962" stroke="#aaa" stroke-width="2" fill="none"/><path d="M-214.6520803225564 563.5010953078962A603.0 603.0 0 0 1 -214.96066255253064 563.3834516161945" stroke="#aaa" stroke-width="2" fill="none"/><path d="M-214.96066255253064 563.3834516161945A603.0 603.0 0 0 1 -215.24265142213974 563.2757770477683" stroke="#aaa" stroke-width="2" fill="none"/><path d="M-215.24265142213974 563.2757770477683A603.0 603.0 0 0 1 -215.3707519468371 563.2268097364098" stroke="#aaa" stroke-width="2" fill="none"/><path d="M1.2246467991473532e-14 -200.0L2.4492935982947064e-14 -400.0" stroke="#aaa" stroke-width="2" fill="none"/><path d="M-71.43308522283147 186.80822876829515L-142.86617044566293 373.6164575365903" stroke="#aaa" stroke-width="2" fill="none"/><path d="M-143.22333587177707 374.55049868043176A401.0 401.0 0 0 1 -395.19761208144723 -67.96945935581616" stroke="#aaa" stroke-width="2" fill="none"/><path d="M-395.19761208144723 -67.96945935581616A401.0 401.0 0 0 1 -337.0792999274433 -217.2062281805582" stroke="#aaa" stroke-width="2" fill="none"/><path d="M-337.0792999274433 -217.2062281805582A401.0 401.0 0 0 1 -289.22558340852265 -277.7580996154743" stroke="#aaa" stroke-width="2" fill="none"/><path d="M-289.22558340852265 -277.7580996154743A401.0 401.0 0 0 1 -253.30183522970577 -310.8684291935464" stroke="#aaa" stroke-width="2" fill="none"/><path d="M-253.30183522970577 -310.8684291935464A401.0 401.0 0 0 1 -214.4212597225953 -338.85767422175246" stroke="#aaa" stroke-width="2" fill="none"/><path d="M-214.4212597225953 -338.85767422175246A401.0 401.0 0 0 1 -173.8699998479376 -361.3450195490152" stroke="#aaa" stroke-width="2" fill="none"/><path d="M-173.8699998479376 -361.3450195490152A401.0 401.0 0 0 1 -134.55376481350623 -377.75161730231105" stroke="#aaa" stroke-width="2" fill="none"/><path d="M-134.55376481350623 -377.75161730231105A401.0 401.0 0 0 1 -107.49670958218836 -386.3229962466675" stroke="#aaa" stroke-width="2" fill="none"/><path d="M-107.49670958218836 -386.3229962466675A401.0 401.0 0 0 1 -80.66419440458317 -392.8031157476473" stroke="#aaa" stroke-width="2" fill="none"/><path d="M-80.66419440458317 -392.8031157476473A401.0 401.0 0 0 1 -59.23413111938466 -396.6009552567058" stroke="#aaa" stroke-width="2" fill="none"/><path d="M-59.23413111938466 -396.6009552567058A401.0 401.0 0 0 1 -40.822480372873414 -398.91668941798656" stroke="#aaa" stroke-width="2" fill="none"/><path d="M-40.822480372873414 -398.91668941798656A401.0 401.0 0 0 1 -28.275623564428557 -400.00186138572246" stroke="#aaa" stroke-width="2" fill="none"/><path d="M-28.275623564428557 -400.00186138572246A401.0 401.0 0 0 1 -16.315455656282708 -400.6679496874287" stroke="#aaa" stroke-width="2" fill="none"/><path d="M-16.315455656282708 -400.6679496874287A401.0 401.0 0 0 1 -10.374757082107664 -400.86576857532657" stroke="#aaa" stroke-width="2" fill="none"/><path d="M-10.374757082107664 -400.86576857532657A401.0 401.0 0 0 1 -8.660208140615028 -400.90647387509375" stroke="#aaa" stroke-width="2" fill="none"/><path d="M-8.660208140615028 -400.90647387509375A401.0 401.0 0 0 1 -6.979384229642832 -400.93925748893065" stroke="#aaa" stroke-width="2" fill="none"/><path d="M-6.979384229642832 -400.93925748893065A401.0 401.0 0 0 1 -5.760939942045045 -400.95861578345483" stroke="#aaa" stroke-width="2" fill="none"/><path d="M-5.760939942045045 -400.95861578345483A401.0 401.0 0 0 1 -4.979972440350278 -400.9690759578516" stroke="#aaa" stroke-width="2" fill="none"/><path d="M-4.979972440350278 -400.9690759578516A401.0 401.0 0 0 1 -4.282019150257958 -400.9771368943582" stroke="#aaa" stroke-width="2" fill="none"/><path d="M-4.282019150257958 -400.9771368943582A401.0 401.0 0 0 1 -3.803364036859243 -400.9819627140392" stroke="#aaa" stroke-width="2" fill="none"/><path d="M-3.803364036859243 -400.9819627140392A401.0 401.0 0 0 1 -3.3320985006219113 -400.98615577047315" stroke="#aaa" stroke-width="2" fill="none"/><path d="M-3.3320985006219113 -400.98615577047315A401.0 401.0 0 0 1 -2.8780835069841415 -400.9896714821054" stroke="#aaa" stroke-width="2" fill="none"/><path d="M-2.8780835069841415 -400.9896714821054A401.0 401.0 0 0 1 -2.436673792486811 -400.99259671573617" stroke="#aaa" stroke-width="2" fill="none"/><path d="M-2.436673792486811 -400.99259671573617A401.0 401.0 0 0 1 -2.0185139446045457 -400.9949196703812" stroke="#aaa" stroke-width="2" fill="none"/><path d="M-2.0185139446045457 -400.9949196703812A401.0 401.0 0 0 1 -1.7128299218140415 -400.9963418956075" stroke="#aaa" stroke-width="2" fill="none"/><path d="M-1.7128299218140415 -400.9963418956075A401.0 401.0 0 0 1 -1.431177202857036 -400.9974460415104" stroke="#aaa" stroke-width="2" fill="none"/><path d="M-1.431177202857036 -400.9974460415104A401.0 401.0 0 0 1 -1.1681854858463268 -400.9982984286475" stroke="#aaa" stroke-width="2" fill="none"/><path d="M-1.1681854858463268 -400.9982984286475A401.0 401.0 0 0 1 -0.9273196656387883 -400.99892777691775" stroke="#aaa" stroke-width="2" fill="none"/><path d="M-0.9273196656387883 -400.99892777691775A401.0 401.0 0 0 1 -0.7005239512001834 -400.9993881119942" stroke="#aaa" stroke-width="2" fill="none"/><path d="M-0.7005239512001834 -400.9993881119942A401.0 401.0 0 0 1 -0.5166128148623111 -400.99966722080893" stroke="#aaa" stroke-width="2" fill="none"/><path d="M-0.5166128148623111 -400.99966722080893A401.0 401.0 0 0 1 -0.3504696505611221 -400.9998468466341" stroke="#aaa" stroke-width="2" fill="none"/><path d="M-0.3504696505611221 -400.9998468466341A401.0 401.0 0 0 1 -0.22161187331868917 -400.99993876330905" stroke="#aaa" stroke-width="2" fill="none"/><path d="M-0.22161187331868917 -400.99993876330905A401.0 401.0 0 0 1 -0.10960304778849499 -400.99998502141113" stroke="#aaa" stroke-width="2" fill="none"/><path d="M-0.10960304778849499 -400.99998502141113A401.0 401.0 0 0 1 -0.04554051791048121 -400.99999741404145" stroke="#aaa" stroke-width="2" fill="none"/><path d="M-0.04554051791048121 -400.99999741404145A401.0 401.0 0 0 1 -0.021097220991306134 -400.9999994450215" stroke="#aaa" stroke-width="2" fill="none"/><path d="M-0.021097220991306134 -400.9999994450215A401.0 401.0 0 0 1 -4.298220512684635e-13 -401.0" stroke="#aaa" stroke-width="2" fill="none"/><g><circle fill="#279ee3" r="156.69492055847394"/><path d="M0.5000000000000009 -199.99937499902342L0.5000000000000292 -347.86794518282977A347.86830451440136 347.86830451440136 0 1 1 -123.77938230076097 325.1015561374112L-70.96584142217061 186.98622770472517A200 200 0 1 0 0.5000000000000009 -199.99937499902342" fill="#d163e6"/><path d="M0.5000000000000013 -401.9996890546061L0.5000000000000843 -561.1813923130995A561.1816150574331 561.1816150574331 0 0 1 227.00953476206254 -513.2167925989766L162.48757392619888 -367.6979580030029A402 402 0 0 0 0.5000000000000013 -401.9996890546061" fill="#b24502"/><path d="M163.40174202226243 -367.2926227193925L217.40626000603558 -489.0910680565934A535.2341120879266 535.2341120879266 0 0 1 354.0017917855193 -401.4452467712042L265.7878954196667 -301.597073341875A402 402 0 0 0 163.40174202226243 -367.2926227193925" fill="#ff9287"/><path d="M266.53731397215 -300.93497679816403L364.563047978786 -411.8890429130884A550.0534516057895 550.0534516057895 0 0 1 447.28157399412 -320.1530777437337L326.81205000962547 -234.08947855148477A402 402 0 0 0 266.53731397215 -300.93497679816403" fill="#5954d6"/><path d="M327.3933505440408 -233.27578961295322L455.9651407889908 -325.1276593397359A560.0108967533217 560.0108967533217 0 0 1 512.3074722474471 -226.17086099206233L367.69942247776805 -162.48425988235243A402 402 0 0 0 327.3933505440408 -233.27578961295322" fill="#00c6f8"/><path d="M368.1024742106319 -161.56908268604812L522.1334597500742 -229.40562394505915A570.3071892306849 570.3071892306849 0 0 1 548.0170940832521 -157.88462458628524L386.2472084005048 -111.4320151608909A402 402 0 0 0 368.1024742106319 -161.56908268604812" fill="#878500"/><path d="M386.52320721143275 -110.47085718409086L522.8298426404739 -149.61163342283024A543.8149365463494 543.8149365463494 0 0 1 537.9735119312109 -79.49330582702729L397.66280922289104 -58.89219100151212A402 402 0 0 0 386.52320721143275 -110.47085718409086" fill="#00a76c"/><path d="M397.8080767352406 -57.90279858701938L519.504022841685 -75.77080231835491A525.0006135545569 525.0006135545569 0 0 1 524.8584744155569 -12.215812164382719L401.88841938078497 -9.470922215620163A402 402 0 0 0 397.8080767352406 -57.90279858701938" fill="#bdbdbd"/><path d="M401.9107354346948 -8.47117124976022L526.3697258136771 -11.249296636691234A526.4899191133538 526.4899191133538 0 0 1 524.4118219264298 46.73195857000258L400.4237509481864 35.564303403620706A402 402 0 0 0 401.9107354346948 -8.47117124976022" fill="#ebac23"/><path d="M400.3340436959824 36.56027158027195L541.4429397409554 49.270006311249475A543.6800442514314 543.6800442514314 0 0 1 532.876300511935 107.84636697613988L394.03747831689867 79.61448160767986A402 402 0 0 0 400.3340436959824 36.56027158027195" fill="#b80058"/><path d="M393.8382133507488 80.59442725579778L519.2507981298862 106.09618289784083A529.9790480613511 529.9790480613511 0 0 1 505.4950295561226 159.22489277142157L383.4646260833262 120.66018623711305A402 402 0 0 0 393.8382133507488 80.59442725579778" fill="#008cf9"/><path d="M383.163290165517 121.61370428342268L535.6441481281842 169.80152774448916A561.9138833027091 561.9138833027091 0 0 1 517.7708955832202 218.31287624709805L370.4748321549861 156.05255121187503A402 402 0 0 0 383.163290165517 121.61370428342268" fill="#006e00"/><path d="M370.0854957865829 156.97364685958956L511.0594702999115 216.56169877642486A555.0502243582621 555.0502243582621 0 0 1 489.95671112516254 260.81252420765975L354.92021450489204 188.7740483641791A402 402 0 0 0 370.0854957865829 156.97364685958956" fill="#00bbad"/><path d="M354.44952956608336 189.65634972334087L485.55105342807207 259.59561944783155A550.5903296659086 550.5903296659086 0 0 1 463.66411334254605 296.92642374818126L338.6057100652304 216.67988626363342A402 402 0 0 0 354.44952956608336 189.65634972334087" fill="#d163e6"/><path d="M338.06565814969986 217.52151796962593L450.34689936028286 289.569302008869A535.4089188922093 535.4089188922093 0 0 1 427.37926170537196 322.50531327948L320.96333954044474 242.04655475970978A402 402 0 0 0 338.06565814969986 217.52151796962593" fill="#b24502"/><path d="M320.3602410935009 242.84422152176896L455.5845614509576 345.0843817938236A571.5247354143885 571.5247354143885 0 0 1 429.9367671147622 376.5566351472159L302.507319006438 264.75143426908403A402 402 0 0 0 320.3602410935009 242.84422152176896" fill="#ff9287"/><path d="M301.847797906017 265.50312031930684L392.4563986760086 345.0021133759486A522.5404128826909 522.5404128826909 0 0 1 367.2834423648813 371.68717500098927L282.6399735170844 285.86473264511284A402 402 0 0 0 301.847797906017 265.50312031930684" fill="#5954d6"/><path d="M281.9279932837871 286.566932151944L365.1261399134628 370.92392082971776A520.4821352282866 520.4821352282866 0 0 1 338.60979504806454 395.2784585444849L261.61536275561843 305.22352787792454A402 402 0 0 0 281.9279932837871 286.566932151944" fill="#00c6f8"/><path d="M260.8552914023075 305.87336750265985L342.4722147563179 401.33489835655354A527.5954117683007 527.5954117683007 0 0 1 316.5546205816162 422.07829926139505L241.2932096924578 321.53007162054314A402 402 0 0 0 260.8552914023075 305.87336750265985" fill="#878500"/><path d="M240.4926377052668 322.1293082126544L333.1801543738594 445.958577626489A556.6759095086027 556.6759095086027 0 0 1 304.8799636117265 465.76418498564516L220.28337090110736 336.2725628183857A402 402 0 0 0 240.4926377052668 322.1293082126544" fill="#00a76c"/><path d="M219.44619108268677 336.81949055733236L294.06199796425614 451.0335689595766A538.4270971776433 538.4270971776433 0 0 1 266.65460600032856 467.7596178315876L199.1994970945347 349.17554375598024A402 402 0 0 0 219.44619108268677 336.81949055733236" fill="#bdbdbd"/><path d="M198.330285566578 349.66998416661335L270.42019399812654 476.4018978825846A547.8009215290833 547.8009215290833 0 0 1 241.8578465056379 491.51869924934516L177.60514028893652 360.63889715745745A402 402 0 0 0 198.330285566578 349.66998416661335" fill="#ebac23"/><path d="M176.7074797911244 361.0795848367356L238.9637668303845 487.8927730500619A543.2706874590655 543.2706874590655 0 0 1 210.41647724286884 500.8671939316318L155.820189669399 370.57262242560836A402 402 0 0 0 176.7074797911244 361.0795848367356" fill="#b80058"/><path d="M154.89788583359004 370.9590879925765L203.87257386952916 487.83765750514294A528.7245090368818 528.7245090368818 0 0 1 177.99612095559027 497.86241812478136L135.44691044686476 378.4945633036213A402 402 0 0 0 154.89788583359004 370.9590879925765" fill="#008cf9"/><path d="M134.50496334028244 378.83032460038L174.77666739512776 491.8088467761018A521.9414001906596 521.9414001906596 0 0 1 150.04119281660752 499.9104576733276L115.67198237390788 384.99869154802377A402 402 0 0 0 134.50496334028244 378.83032460038" fill="#006e00"/><path d="M114.71391703963451 385.28524139580514L148.7154307281898 498.96763149317513A520.658214776815 520.658214776815 0 0 1 125.01638830061772 505.42643309471777L96.63571634342846 390.2121709106373A402 402 0 0 0 114.71391703963451 385.28524139580514" fill="#00bbad"/><path d="M95.66474106293067 390.45135076903296L125.90427858780072 513.2118692645491A528.4300427878105 528.4300427878105 0 0 1 102.5360533480525 518.3866007957117L78.12104130980931 394.33628149673353A402 402 0 0 0 95.66474106293067 390.45135076903296" fill="#d163e6"/><path d="M77.13986433977587 394.52939222527004L105.49912605737312 538.620063392695A548.8548426387621 548.8548426387621 0 0 1 82.39588328773534 542.6348281351412L60.481817776071004 397.4241433512842A402 402 0 0 0 77.13986433977587 394.52939222527004" fill="#b24502"/><path d="M59.49301413903919 397.57336589446237L79.01968605391521 526.9642997127262A532.8559692410166 532.8559692410166 0 0 1 57.92664658349112 529.6980154497226L43.82338277883598 399.6041930733706A402 402 0 0 0 59.49301413903919 397.57336589446237" fill="#ff9287"/><path d="M42.82920767765164 399.7119700105372L60.870918678724266 566.1355141524472A569.3985327742315 569.3985327742315 0 0 1 40.51071992987889 567.9556062723657L28.74751968708822 400.9707970810848A402 402 0 0 0 42.82920767765164 399.7119700105372" fill="#5954d6"/><path d="M27.749991720537828 401.04106767201546L37.08828599321625 533.6030622917139A534.890427139063 534.890427139063 0 0 1 20.000547327194866 534.5163675245333L15.155661825392434 401.7142092515951A402 402 0 0 0 27.749991720537828 401.04106767201546" fill="#00c6f8"/><path d="M14.156326629240958 401.7506669768779L20.41159026085213 573.2124095784636A573.575713844062 573.575713844062 0 0 1 2.0673479013859386 573.5719881448011L1.5985006388768694 401.9968218726455A402 402 0 0 0 14.156326629240958 401.7506669768779" fill="#878500"/><path d="M0.5985043724227264 401.99955446805683L0.9561196053379225 532.8692383829031A532.8700961580364 532.8700961580364 0 0 1 -15.799589800324187 532.6358158644764L-11.796549537094112 401.82687991101204A402 402 0 0 0 0.5985043724227264 401.99955446805683" fill="#00a76c"/><path d="M-12.796081618622004 401.79629203765626L-17.01400582240261 539.6270758288961A539.895228133913 539.895228133913 0 0 1 -33.56010784102631 538.8511636096451L-24.86102423402564 401.23051912091034A402 402 0 0 0 -12.796081618622004 401.79629203765626" fill="#bdbdbd"/><path d="M-25.85903241088821 401.1674344245463L-33.89056714361214 528.2273681009634A529.3134449002655 529.3134449002655 0 0 1 -49.71245767058323 526.973808176969L-37.63560493850277 400.234382881972A402 402 0 0 0 -25.85903241088821 401.1674344245463" fill="#ebac23"/><path d="M-38.63109564210564 400.1395237282747L-49.58497650668649 515.0940235740036A517.4751424144205 517.4751424144205 0 0 1 -64.7579821700929 513.4071744357325L-50.196467386989944 398.8537509687816A402 402 0 0 0 -38.63109564210564 400.1395237282747" fill="#b80058"/><path d="M-51.18848482241241 398.7276501844155L-68.43344030263385 534.3913305926399A538.7552598019125 538.7552598019125 0 0 1 -83.85491516250109 532.1894241407997L-62.44417897685937 397.1205415385937A402 402 0 0 0 -51.18848482241241 398.7276501844155" fill="#008cf9"/><path d="M-63.431847055163225 396.9639791960605L-87.6363656791733 549.6573408872723A556.5997888795151 556.5997888795151 0 0 1 -98.80352912148278 547.7601551900806L-71.22342629152516 395.64027038118314A402 402 0 0 0 -63.431847055163225 396.9639791960605" fill="#006e00"/><path d="M-72.20738494327613 395.46187371180747L-95.99493291287614 526.6636708672256A535.3406853175732 535.3406853175732 0 0 1 -105.75486913271676 524.7909650622911L-79.29174818495879 394.10254841826776A402 402 0 0 0 -72.20738494327613 395.46187371180747" fill="#00bbad"/><path d="M-80.27185669740696 393.90408606963064L-101.80387526694139 500.2401988643907A510.49415822245425 510.49415822245425 0 0 1 -110.27816578179278 498.44057994013247L-86.73724102542415 392.53108287025816A402 402 0 0 0 -80.27185669740696 393.90408606963064" fill="#d163e6"/><path d="M-87.71341738639042 392.3141042715656L-111.49351048055603 499.2996082797087A511.59642464304653 511.59642464304653 0 0 1 -119.92584686786158 497.34162600829484L-94.13067611079295 390.8240215428486A402 402 0 0 0 -87.71341738639042 392.3141042715656" fill="#b24502"/><path d="M-95.1025831786702 390.5886566104347L-134.21416588125862 552.0945499253792A568.1741232936511 568.1741232936511 0 0 1 -141.48718138884652 550.2755781271313L-99.96473108913132 389.37263968886884A402 402 0 0 0 -95.1025831786702 390.5886566104347" fill="#ff9287"/><path d="M-100.93300970671345 389.1227666836579L-142.58569616080138 550.5303810208188A568.6953324730108 568.6953324730108 0 0 1 -149.51277426464748 548.6896313110691L-105.54634818791803 387.8968527639722A402 402 0 0 0 -100.93300970671345 389.1227666836579" fill="#5954d6"/><path d="M-106.51093842715886 387.6330997159117L-149.6497209466753 545.3990434918896A565.557384905622 565.557384905622 0 0 1 -156.41729251774774 543.4968134430075L-111.0429469902545 386.35924205811295A402 402 0 0 0 -106.51093842715886 387.6330997159117" fill="#00c6f8"/><path d="M-112.00369532381822 386.08182064662054L-146.80284906659008 506.59605488665846A527.4378061163177 527.4378061163177 0 0 1 -151.5547331355995 505.1948160709802L-115.39735183645679 385.0810968992544A402 402 0 0 0 -112.00369532381822 386.08182064662054" fill="#878500"/><path d="M-116.35490723445675 384.7928475978484L-164.15166460435924 543.5722194928952A567.8173357663662 567.8173357663662 0 0 1 -169.26925970093606 542.0004100709808L-119.69887941694888 383.765785690083A402 402 0 0 0 -116.35490723445675 384.7928475978484" fill="#00a76c"/><path d="M-120.65314959019643 383.4668401491395L-164.91453110138383 524.7545010038368A550.058259543637 550.058259543637 0 0 1 -169.35183903633603 523.3393196647716L-123.63963466402072 382.51436671077795A402 402 0 0 0 -120.65314959019643 383.4668401491395" fill="#bdbdbd"/><path d="M-124.5907796645115 382.20562217553675L-166.68084033023126 511.8718873331735A538.3264173112974 538.3264173112974 0 0 1 -170.50828799505075 510.6096897829241L-127.20846020947296 381.3423758922354A402 402 0 0 0 -124.5907796645115 382.20562217553675" fill="#ebac23"/><path d="M-128.15667877028773 381.0247573144943L-166.9575594654515 496.8609137282043A524.1618015970697 524.1618015970697 0 0 1 -170.00582701708132 495.8261923635379L-130.27382081742923 380.3061025143146A402 402 0 0 0 -128.15667877028773 381.0247573144943" fill="#b80058"/><path d="M-131.21945210159242 379.9808618735395L-173.6591362588063 503.37347644171456A532.4869504421418 532.4869504421418 0 0 1 -176.6003407869361 502.3491535029297L-133.20849044517956 379.2881464972462A402 402 0 0 0 -131.21945210159242 379.9808618735395" fill="#008cf9"/><path d="M-134.15158042258582 378.95560883845286L-187.64208442174808 530.6567977836941A562.8553889589961 562.8553889589961 0 0 1 -190.65199487892772 529.5828601162126L-136.03214120890797 378.2846237400084A402 402 0 0 0 -134.15158042258582 378.95560883845286" fill="#006e00"/><path d="M-136.97272612665142 377.9450651846553L-194.1315929547508 536.2764257298513A570.3327802053235 570.3327802053235 0 0 1 -196.7235405976973 535.3310459439467L-138.52238491718603 377.37984694052614A402 402 0 0 0 -136.97272612665142 377.9450651846553" fill="#00bbad"/><path d="M-139.46071144334323 377.0340965532382L-178.84443945226684 483.9169752091529A515.9079107927804 515.9079107927804 0 0 1 -180.86312084024496 483.16612457673233L-140.82674616416938 376.5259985244214A402 402 0 0 0 -139.46071144334323 377.0340965532382" fill="#d163e6"/><path d="M-141.76294156128026 376.1745185414518L-199.37497466255104 529.6288340671962A565.9126102120985 565.9126102120985 0 0 1 -199.3816467938661 529.6263223432503L-141.496609285478 376.2747793311595A402 402 0 0 0 -141.76294156128026 376.1745185414518" fill="#b24502"/><path d="M-142.4321776871609 375.9216338005742L-183.58864021458214 484.9551130064011A518.5424287817638 518.5424287817638 0 0 1 -183.19780341705697 485.1028914261962L-141.91895693208517 376.1156865424639A402 402 0 0 0 -142.4321776871609 375.9216338005742" fill="#ff9287"/><path d="M-142.85412827413214 375.76149088888525L-179.15468092722318 471.6046673893597A504.4872267972339 504.4872267972339 0 0 1 -178.72947450507698 471.7659768833513L-142.32536064839888 375.9620881369599A402 402 0 0 0 -142.85412827413214 375.76149088888525" fill="#5954d6"/><path d="M-143.26014864774945 375.60688200487584L-168.92912165360187 443.1593417012867A474.26495788722906 474.26495788722906 0 0 1 -168.35846220891673 443.3764523319026L-142.63402818729364 375.84509309430433A402 402 0 0 0 -143.26014864774945 375.60688200487584" fill="#00c6f8"/><path d="M-143.56852419941285 375.4891194950962L-198.1440851139433 518.7599804444418A555.313421210364 555.313421210364 0 0 1 -197.49386539740667 519.0078697926942L-142.83984706348483 375.76691989966366A402 402 0 0 0 -143.56852419941285 375.4891194950962" fill="#878500"/><path d="M-143.77414797827117 375.41043455546384L-199.43224687977025 521.2829467499186A558.1300311466782 558.1300311466782 0 0 1 -198.7590408749463 521.5400035838703L-143.0279287802078 375.6953707311867A402 402 0 0 0 -143.77414797827117 375.41043455546384" fill="#00a76c"/><path d="M-143.962051130204 375.33841774375367L-205.4620840511138 536.279934692683A574.2915952167638 574.2915952167638 0 0 1 -204.65000400700464 536.5903579049369L-143.11336966702657 375.66283210153887A402 402 0 0 0 -143.962051130204 375.33841774375367" fill="#bdbdbd"/><path d="M-71.89988256601208 186.62906227861103L-118.56462842515327 308.664369764988A330.6527850722142 330.6527850722142 0 0 1 -325.9526843333692 -55.55278437560878L-197.19017493035878 -33.40710868863845A200 200 0 0 0 -71.89988256601208 186.62906227861103" fill="#ebac23"/><path d="M-197.02067503171583 -34.39263889333041L-361.58261070045387 -62.69540554983932A366.97778984294786 366.97778984294786 0 0 1 -308.75088475621936 -198.35722674071275L-168.38965691941974 -107.91164646394809A200 200 0 0 0 -197.02067503171583 -34.39263889333041" fill="#b80058"/><path d="M-167.84799550251057 -108.75224322187194L-231.9247875660738 -150.04186949388665A276.227568661763 276.227568661763 0 0 1 -199.57812435781656 -190.97183553237605L-144.59804230733215 -138.1716546940326A200 200 0 0 0 -167.84799550251057 -108.75224322187194" fill="#008cf9"/><path d="M-143.90537871726858 -138.8929155005377L-145.7301648775558 -140.64535084914272A202.52998709010487 202.52998709010487 0 0 1 -128.32043715043417 -156.69161139078096L-126.72230161257745 -154.7302758803556A200 200 0 0 0 -143.90537871726858 -138.8929155005377" fill="#006e00"/><path d="M-125.9470686220698 -155.36195127993096L-241.52074869017378 -297.2014620213654A382.9634200227212 382.9634200227212 0 0 1 -205.1991466297081 -323.3485600678295L-107.36545328711526 -168.73843498282267A200 200 0 0 0 -125.9470686220698 -155.36195127993096" fill="#00bbad"/><path d="M-106.52042168057719 -169.27315134123316L-180.5998541533679 -286.34355857544654A338.53942290059507 338.53942290059507 0 0 1 -147.2380491755801 -304.84405477692593L-87.16848830534249 -180.004596181768A200 200 0 0 0 -106.52042168057719 -169.27315134123316" fill="#d163e6"/><path d="M-86.26737853090599 -180.4381872038327L-127.58580798361693 -266.30814010762333A295.29335225570844 295.29335225570844 0 0 1 -99.55523970411278 -278.00524839267075L-67.57991190802495 -188.23643511951556A200 200 0 0 0 -86.26737853090599 -180.4381872038327" fill="#b24502"/><path d="M-66.63788792472735 -188.57198066767893L-83.32554850559256 -235.4215859697008A249.7327975542001 249.7327975542001 0 0 1 -67.42783467341069 -240.45780770335213L-54.095850945168465 -192.54516070397125A200 200 0 0 0 -66.63788792472735 -188.57198066767893" fill="#ff9287"/><path d="M-53.132451952034565 -192.8132322989393L-92.58426260627192 -334.59563437003044A347.168668260588 347.168668260588 0 0 1 -70.32532035416838 -339.9712245748363L-40.72117212865385 -195.81058740647438A200 200 0 0 0 -53.132451952034565 -192.8132322989393" fill="#5954d6"/><path d="M-39.74161323651501 -196.01174499850578L-71.62184234466864 -351.2560069274403A358.4835710370205 358.4835710370205 0 0 1 -53.44823609516506 -354.47673655935455L-30.03763012497631 -197.73148655809757A200 200 0 0 0 -39.74161323651501 -196.01174499850578" fill="#00c6f8"/><path d="M-29.0486003113685 -197.87920259580176L-51.051584812803064 -345.1997508482886A348.9543412792272 348.9543412792272 0 0 1 -36.021509898893754 -347.09016569505866L-20.85767806781444 -198.90941975084894A200 200 0 0 0 -29.0486003113685 -197.87920259580176" fill="#878500"/><path d="M-19.862873356048823 -199.0112214475394L-25.469690824787104 -253.80096088449528A255.07573952966078 255.07573952966078 0 0 1 -18.484819614848597 -254.4050792346919L-14.601266761312331 -199.4662954209683A200 200 0 0 0 -19.862873356048823 -199.0112214475394" fill="#00a76c"/><path d="M-13.603755885038646 -199.53680819793695L-27.706333314071834 -399.0392951756626A400 400 0 0 1 -16.774341991957243 -399.64812204079834L-8.636944910036286 -199.81342092717648A200 200 0 0 0 -13.603755885038646 -199.53680819793695" fill="url(#diagonalHatch)"/><path d="M-7.6377729656785425 -199.8541078490126L-11.971631785285238 -306.2831505964574A306.5170277601143 306.5170277601143 0 0 1 -8.43009565566078 -306.40107994935505L-5.674258893954866 -199.9194907606669A200 200 0 0 0 -7.6377729656785425 -199.8541078490126" fill="#ebac23"/><path d="M-4.674593635662215 -199.94536297284174L-7.951573718286885 -326.5631843860184A326.65997753158257 326.65997753158257 0 0 1 -7.554596807094165 -326.5726090596336L-4.819175691825488 -199.94193043394205A200 200 0 0 0 -4.674593635662215 -199.94536297284174" fill="#b80058"/><path d="M-3.819408924057108 -199.963526962971L-5.738964377981898 -288.8253875493829A288.8823985728154 288.8823985728154 0 0 1 -5.527899914137038 -288.82950425419193L-3.9809030238181693 -199.96037710285245A200 200 0 0 0 -3.819408924057108 -199.963526962971" fill="#008cf9"/><path d="M-2.981054501401817 -199.97778205105604L-5.086344912403384 -320.91876286143855A320.9590678904152 320.9590678904152 0 0 1 -5.110979995558688 -320.91837146627984L-3.3732261738345635 -199.97155133963471A200 200 0 0 0 -2.981054501401817 -199.97778205105604" fill="#006e00"/><path d="M-2.3733293763695227 -199.9859177734054L-3.4135647090255787 -272.3857905835326A272.4071793030403 272.4071793030403 0 0 1 -3.8829488735419546 -272.37950371473295L-2.983730457758993 -199.9777421428581A200 200 0 0 0 -2.3733293763695227 -199.9859177734054" fill="#00bbad"/><path d="M-1.9838075750710176 -199.99016102674923L-3.6942806135714465 -337.7111628823387A337.73136846404026 337.73136846404026 0 0 1 -4.106381972582422 -337.70640336198625L-2.635635217537739 -199.98263281345226A200 200 0 0 0 -1.9838075750710176 -199.99016102674923" fill="#d163e6"/><path d="M-1.6356922327637122 -199.99331116544792L-2.540939080563583 -284.7624998299946A284.77383601875863 284.77383601875863 0 0 1 -3.2009672779077007 -284.755845399747L-2.3969112509292874 -199.9856365253644A200 200 0 0 0 -1.6356922327637122 -199.99331116544792" fill="#b24502"/><path d="M-1.3969562316922157 -199.9951212237107L-2.0178812046525905 -265.458146046709A265.46581540211906 265.46581540211906 0 0 1 -2.705859736571109 -265.45202479958215L-2.1618720584658733 -199.9883154316842A200 200 0 0 0 -1.3969562316922157 -199.9951212237107" fill="#ff9287"/><path d="M-1.1619065827289663 -199.99662490425433L-2.531772390457785 -364.84686089220963A364.85564511781433 364.85564511781433 0 0 1 -3.118650534536853 -364.8423163411557L-1.9354357564411266 -199.99063500182373A200 200 0 0 0 -1.1619065827289663 -199.99662490425433" fill="#5954d6"/><path d="M-0.9354615133435407 -199.99781226742718L-2.3709168769357 -399.99297337973655A400 400 0 0 1 -2.930586169305925 -399.98926443681495L-1.7152856207774156 -199.99264435283402A200 200 0 0 0 -0.9354615133435407 -199.99781226742718" fill="url(#diagonalHatch)"/><path d="M-0.7153040828328704 -199.99872084608214L-1.5254107364153888 -333.314379116954A333.31786961402975 333.31786961402975 0 0 1 -2.177814141293622 -333.31075489638994L-1.5067306413539312 -199.99432432640282A200 200 0 0 0 -0.7153040828328704 -199.99872084608214" fill="#878500"/><path d="M-0.5067433105050342 -199.99935802701282L-0.9838758644312204 -294.78578773940166A294.7874296249014 294.7874296249014 0 0 1 -1.7591475677922999 -294.7821807109292L-1.354272031895889 -199.99541481559928A200 200 0 0 0 -0.5067433105050342 -199.99935802701282" fill="#00a76c"/><path d="M-0.354281154350667 -199.99968621191303L-1.1133040532226215 -377.6970757696264A377.6987165596963 377.6987165596963 0 0 1 -1.8480100799471266 -377.6941955465906L-1.2137986760723845 -199.99631669801815A200 200 0 0 0 -0.354281154350667 -199.99968621191303" fill="#bdbdbd"/><path d="M-0.21380504504610798 -199.99988571847413L-0.8048307058372474 -365.5976747617247A365.59856064219525 365.59856064219525 0 0 1 -1.5650515760451904 -365.5952107963249L-1.0826322101409798 -199.99706974727795A200 200 0 0 0 -0.21380504504610798 -199.99988571847413" fill="#ebac23"/><path d="M-0.0826364534609947 -199.99998292804065L-0.5286045905231784 -353.08565834689057A353.0860540336736 353.0860540336736 0 0 1 -1.3165156537793758 -353.08359964688765L-0.9625007916222773 -199.9976839671553A200 200 0 0 0 -0.0826364534609947 -199.99998292804065" fill="#b80058"/><path d="M0.03749653450476584 -199.99999648502472L-0.22669599950726868 -314.2442283190139A314.2443100883272 314.2443100883272 0 0 1 -1.0489652896430333 -314.2425593307022L-0.8493866495458691 -199.998196347666A200 200 0 0 0 0.03749653450476584 -199.99999648502472" fill="#008cf9"/><path d="M0.15061182454894592 -199.99994329018773L-0.08802932218406627 -336.60477122551845A336.60478273629025 336.60478273629025 0 0 1 -0.9336508380769758 -336.60348788605523L-0.7576610316692424 -199.99856486925373A200 200 0 0 0 0.15061182454894592 -199.99994329018773" fill="#006e00"/><path d="M0.24233813845752944 -199.99985318051273L0.03663923012066817 -359.66525716928277A359.6652590355086 359.6652590355086 0 0 1 -0.8143430405793377 -359.6643371290678L-0.6747970934954636 -199.99886161896674A200 200 0 0 0 0.24233813845752944 -199.99985318051273" fill="#00bbad"/><path d="M0.3252025245760094 -199.99973560812026L0.2086055010294408 -333.4075456998512A333.40761095969816 333.40761095969816 0 0 1 -0.6842567868807888 -333.4069088043963L-0.6105291908672529 -199.9990681330968A200 200 0 0 0 0.3252025245760094 -199.99973560812026" fill="#d163e6"/><path d="M0.3894706564228609 -199.99962078115993L0.30327658973166144 -355.96516065663246A355.9652898499965 355.9652898499965 0 0 1 -0.5972938521128136 -355.9647887334452L-0.5546646722354263 -199.9992308662745A200 200 0 0 0 0.3894706564228609 -199.99962078115993" fill="#b24502"/><path d="M0.44533529041155046 -199.99950419058322L0.40676655860223326 -341.10927431001585A341.1095168407631 341.1095168407631 0 0 1 -0.5387388680293306 -341.109091405918L-0.5227134010629977 -199.9993169255844A200 200 0 0 0 0.44533529041155046 -199.99950419058322" fill="#ff9287"/><path d="M0.477286592488294 -199.99943049296073L0.4545730817311389 -399.9997417040583A400 400 0 0 1 -0.5210445923343895 -399.99966064052205L-0.5105222711596048 -199.99934841646524A200 200 0 0 0 0.477286592488294 -199.99943049296073" fill="url(#diagonalHatch)"/><path d="M0.48947772745647516 -199.9994010279889L0.4854783367091677 -276.01679157159197A276.017218518503 276.017218518503 0 0 1 -0.500000000000404 -276.0167656478335L-0.5000000000002475 -199.99937499902342A200 200 0 0 0 0.48947772745647516 -199.9994010279889" fill="#00c6f8"/></g><g><defs><path d="M98.33720414577272 18.160239007034605L491.6860207288636 90.80119503517304" stroke="#aaa" stroke-width="2" fill="none" id="textpath-2092821981621893704"/></defs><text text-anchor="middle" dominant-baseline="middle" class="label"><textPath href="#textpath-2092821981621893704" startOffset="50%"><tspan>United States | 67.5%</tspan></textPath></text><defs><path d="M62.56282029535545 -295.4486309270887L145.42748293821035 -686.7713208967426" stroke="#aaa" stroke-width="2" fill="none" id="textpath-CAA"/></defs><text text-anchor="middle" dominant-baseline="middle" class="label"><textPath href="#textpath-CAA" startOffset="50%"><tspan>California | 76.4%</tspan></textPath></text><defs><path d="M163.0907037373139 -254.17596730310225L379.104880872829 -590.832877638337" stroke="#aaa" stroke-width="2" fill="none" id="textpath-TXA"/></defs><text text-anchor="middle" dominant-baseline="middle" class="label"><textPath href="#textpath-TXA" startOffset="50%"><tspan>Texas | 62.2%</tspan></textPath></text><defs><path d="M224.28489347180235 -202.23819263517532L521.3509775404148 -470.10334844335455" stroke="#aaa" stroke-width="2" fill="none" id="textpath-FLA"/></defs><text text-anchor="middle" dominant-baseline="middle" class="label"><textPath href="#textpath-FLA" startOffset="50%"><tspan>Florida | 70.2%</tspan></textPath></text><defs><path d="M262.4426371462956 -149.42510568073158L610.048779061919 -347.33915293997865" stroke="#aaa" stroke-width="2" fill="none" id="textpath-NYA"/></defs><text text-anchor="middle" dominant-baseline="middle" class="label"><textPath href="#textpath-NYA" startOffset="50%"><tspan>New York State | 75.7%</tspan></textPath></text><defs><path d="M283.9754082085085 -102.77143344729093L660.1017766965992 -238.89253735098754" stroke="#aaa" stroke-width="2" fill="none" id="textpath-PAA"/></defs><text text-anchor="middle" dominant-baseline="middle" class="label"><textPath href="#textpath-PAA" startOffset="50%"><tspan>Pennsylvania | 81.5%</tspan></textPath></text><defs><path d="M295.19389690410287 -63.753927177624675L686.1791908168219 -148.1962148301077" stroke="#aaa" stroke-width="2" fill="none" id="textpath-ILA"/></defs><text text-anchor="middle" dominant-baseline="middle" class="label"><textPath href="#textpath-ILA" startOffset="50%"><tspan>Illinois | 66.8%</tspan></textPath></text><defs><path d="M300.9338871572441 -25.353413190950825L699.5218171668389 -58.9340929140645" stroke="#aaa" stroke-width="2" fill="none" id="textpath-OHA"/></defs><text text-anchor="middle" dominant-baseline="middle" class="label"><textPath href="#textpath-OHA" startOffset="50%"><tspan>Ohio | 56.8%</tspan></textPath></text><defs><path d="M301.8279664136473 10.192089609212623L701.6001073588754 23.69154604525583" stroke="#aaa" stroke-width="2" fill="none" id="textpath-GAA"/></defs><text text-anchor="middle" dominant-baseline="middle" class="label"><textPath href="#textpath-GAA" startOffset="50%"><tspan>Georgia | 57.6%</tspan></textPath></text><defs><path d="M298.82126813530766 43.70182730740844L694.6110272549205 101.58504228410837" stroke="#aaa" stroke-width="2" fill="none" id="textpath-NCA"/></defs><text text-anchor="middle" dominant-baseline="middle" class="label"><textPath href="#textpath-NCA" startOffset="50%"><tspan>North Carolina | 66.7%</tspan></textPath></text><defs><path d="M292.3595669382752 75.69599473990813L679.5907814260569 175.95559042190564" stroke="#aaa" stroke-width="2" fill="none" id="textpath-MIA"/></defs><text text-anchor="middle" dominant-baseline="middle" class="label"><textPath href="#textpath-MIA" startOffset="50%"><tspan>Michigan | 59.4%</tspan></textPath></text><defs><path d="M283.37838867896943 104.40636393300431L658.7140028232998 242.6929386787054" stroke="#aaa" stroke-width="2" fill="none" id="textpath-NJA"/></defs><text text-anchor="middle" dominant-baseline="middle" class="label"><textPath href="#textpath-NJA" startOffset="50%"><tspan>New Jersey | 76.8%</tspan></textPath></text><defs><path d="M272.58985552802517 129.99527169559036L633.6360217903102 302.1744395043193" stroke="#aaa" stroke-width="2" fill="none" id="textpath-VAA"/></defs><text text-anchor="middle" dominant-baseline="middle" class="label"><textPath href="#textpath-VAA" startOffset="50%"><tspan>Virginia | 72.9%</tspan></textPath></text><defs><path d="M260.5245403843536 152.74476703809304L605.590156787471 355.0557167574216" stroke="#aaa" stroke-width="2" fill="none" id="textpath-WAA"/></defs><text text-anchor="middle" dominant-baseline="middle" class="label"><textPath href="#textpath-WAA" startOffset="50%"><tspan>Washington | 70.5%</tspan></textPath></text><defs><path d="M247.71706855779462 172.74331809112874L575.8191461177875 401.54241490057075" stroke="#aaa" stroke-width="2" fill="none" id="textpath-AZA"/></defs><text text-anchor="middle" dominant-baseline="middle" class="label"><textPath href="#textpath-AZA" startOffset="50%"><tspan>Arizona | 62.3%</tspan></textPath></text><defs><path d="M234.10735605781474 190.7819326865612L544.1833243463111 443.4732342581654" stroke="#aaa" stroke-width="2" fill="none" id="textpath-MAA"/></defs><text text-anchor="middle" dominant-baseline="middle" class="label"><textPath href="#textpath-MAA" startOffset="50%"><tspan>Massachusetts | 82.2%</tspan></textPath></text><defs><path d="M219.6795814225498 207.23146842604123L510.6459144325495 481.71023455324814" stroke="#aaa" stroke-width="2" fill="none" id="textpath-TNA"/></defs><text text-anchor="middle" dominant-baseline="middle" class="label"><textPath href="#textpath-TNA" startOffset="50%"><tspan>Tennessee | 55.5%</tspan></textPath></text><defs><path d="M204.28701598071956 222.4203567610061L474.8658450942554 517.0168557822062" stroke="#aaa" stroke-width="2" fill="none" id="textpath-INA"/></defs><text text-anchor="middle" dominant-baseline="middle" class="label"><textPath href="#textpath-INA" startOffset="50%"><tspan>Indiana | 54.4%</tspan></textPath></text><defs><path d="M188.70963017177328 235.78099049845505L438.6561602006121 548.0736931454154" stroke="#aaa" stroke-width="2" fill="none" id="textpath-MOA"/></defs><text text-anchor="middle" dominant-baseline="middle" class="label"><textPath href="#textpath-MOA" startOffset="50%"><tspan>Missouri | 58.1%</tspan></textPath></text><defs><path d="M173.159068589009 247.42662945889006L402.50882830955067 575.144019470665" stroke="#aaa" stroke-width="2" fill="none" id="textpath-MDA"/></defs><text text-anchor="middle" dominant-baseline="middle" class="label"><textPath href="#textpath-MDA" startOffset="50%"><tspan>Maryland | 73.8%</tspan></textPath></text><defs><path d="M157.32096100203972 257.78695705833275L365.6930947795758 599.22663528129" stroke="#aaa" stroke-width="2" fill="none" id="textpath-WIA"/></defs><text text-anchor="middle" dominant-baseline="middle" class="label"><textPath href="#textpath-WIA" startOffset="50%"><tspan>Wisconsin | 63.9%</tspan></textPath></text><defs><path d="M141.26967094895343 266.9211120724144L328.3818179012096 620.4590088570693" stroke="#aaa" stroke-width="2" fill="none" id="textpath-COA"/></defs><text text-anchor="middle" dominant-baseline="middle" class="label"><textPath href="#textpath-COA" startOffset="50%"><tspan>Colorado | 69.0%</tspan></textPath></text><defs><path d="M124.95555982319969 274.9365528067717L290.45961256915956 639.0909273852773" stroke="#aaa" stroke-width="2" fill="none" id="textpath-MNA"/></defs><text text-anchor="middle" dominant-baseline="middle" class="label"><textPath href="#textpath-MNA" startOffset="50%"><tspan>Minnesota | 66.5%</tspan></textPath></text><defs><path d="M109.09658571733172 281.60599245190235L253.59537474691018 654.5940619246207" stroke="#aaa" stroke-width="2" fill="none" id="textpath-SCA"/></defs><text text-anchor="middle" dominant-baseline="middle" class="label"><textPath href="#textpath-SCA" startOffset="50%"><tspan>South Carolina | 58.7%</tspan></textPath></text><defs><path d="M94.00049665126382 286.9980951667027L218.50446572578542 667.1280225398189" stroke="#aaa" stroke-width="2" fill="none" id="textpath-ALA"/></defs><text text-anchor="middle" dominant-baseline="middle" class="label"><textPath href="#textpath-ALA" startOffset="50%"><tspan>Alabama | 55.2%</tspan></textPath></text><defs><path d="M79.40911701834646 291.3729433807583L184.58675545324246 677.2973716996433" stroke="#aaa" stroke-width="2" fill="none" id="textpath-LAA"/></defs><text text-anchor="middle" dominant-baseline="middle" class="label"><textPath href="#textpath-LAA" startOffset="50%"><tspan>Louisiana | 54.5%</tspan></textPath></text><defs><path d="M65.29405281089461 294.8570614171011L151.7762419643974 685.3962156119369" stroke="#aaa" stroke-width="2" fill="none" id="textpath-KYA"/></defs><text text-anchor="middle" dominant-baseline="middle" class="label"><textPath href="#textpath-KYA" startOffset="50%"><tspan>Kentucky | 58.6%</tspan></textPath></text><defs><path d="M51.70515068738589 297.5408835645863L120.18879398193673 691.6347690805947" stroke="#aaa" stroke-width="2" fill="none" id="textpath-ORA"/></defs><text text-anchor="middle" dominant-baseline="middle" class="label"><textPath href="#textpath-ORA" startOffset="50%"><tspan>Oregon | 69.5%</tspan></textPath></text><defs><path d="M38.81539678461523 299.49518355468234L90.22651835364202 696.1775458787649" stroke="#aaa" stroke-width="2" fill="none" id="textpath-OKA"/></defs><text text-anchor="middle" dominant-baseline="middle" class="label"><textPath href="#textpath-OKA" startOffset="50%"><tspan>Oklahoma | 60.9%</tspan></textPath></text><defs><path d="M26.889943299085683 300.8004836255619L62.50576223827201 699.2117202157102" stroke="#aaa" stroke-width="2" fill="none" id="textpath-CTA"/></defs><text text-anchor="middle" dominant-baseline="middle" class="label"><textPath href="#textpath-CTA" startOffset="50%"><tspan>Connecticut | 81.0%</tspan></textPath></text><defs><path d="M16.118286018712052 301.56956221710936L37.46700922230418 700.9994459483801" stroke="#aaa" stroke-width="2" fill="none" id="textpath-UTA"/></defs><text text-anchor="middle" dominant-baseline="middle" class="label"><textPath href="#textpath-UTA" startOffset="50%"><tspan>Utah | 62.0%</tspan></textPath></text><defs><path d="M5.918580270586094 301.94199841622003L13.757759436925292 701.8651751264453" stroke="#aaa" stroke-width="2" fill="none" id="textpath-PRA"/></defs><text text-anchor="middle" dominant-baseline="middle" class="label"><textPath href="#textpath-PRA" startOffset="50%"><tspan>Puerto Rico | 83.4%</tspan></textPath></text><defs><path d="M-9.778560001327826 701.9318911150144L-4.20673094074217 301.9706995964877" stroke="#aaa" stroke-width="2" fill="none" id="textpath-IAA"/></defs><text text-anchor="middle" dominant-baseline="middle" class="label"><textPath href="#textpath-IAA" startOffset="50%"><tspan>Iowa | 60.9%</tspan></textPath></text><defs><path d="M-32.88342259565761 701.2294064843512L-14.146429663658974 301.6684911086525" stroke="#aaa" stroke-width="2" fill="none" id="textpath-NVA"/></defs><text text-anchor="middle" dominant-baseline="middle" class="label"><textPath href="#textpath-NVA" startOffset="50%"><tspan>Nevada | 64.7%</tspan></textPath></text><defs><path d="M-55.4453330558722 699.8069841337134L-23.852550687853853 301.0565658239052" stroke="#aaa" stroke-width="2" fill="none" id="textpath-ARA"/></defs><text text-anchor="middle" dominant-baseline="middle" class="label"><textPath href="#textpath-ARA" startOffset="50%"><tspan>Arkansas | 59.0%</tspan></textPath></text><defs><path d="M-77.56651931654383 697.7015372500739L-33.36907241253025 300.1508037742483" stroke="#aaa" stroke-width="2" fill="none" id="textpath-MSA"/></defs><text text-anchor="middle" dominant-baseline="middle" class="label"><textPath href="#textpath-MSA" startOffset="50%"><tspan>Mississippi | 52.9%</tspan></textPath></text><defs><path d="M-99.22650198384285 694.9518697752028L-42.68718461413182 298.96789839332087" stroke="#aaa" stroke-width="2" fill="none" id="textpath-KSA"/></defs><text text-anchor="middle" dominant-baseline="middle" class="label"><textPath href="#textpath-KSA" startOffset="50%"><tspan>Kansas | 64.1%</tspan></textPath></text><defs><path d="M-117.57782235708024 692.0834167134528L-50.58191218210574 297.73389152060224" stroke="#aaa" stroke-width="2" fill="none" id="textpath-NMA"/></defs><text text-anchor="middle" dominant-baseline="middle" class="small-label-8"><textPath href="#textpath-NMA" startOffset="50%"><tspan>New Mexico | 73.8%</tspan></textPath></text><defs><path d="M-132.2844183525394 689.4235509910656L-56.9086813995255 296.5896188024242" stroke="#aaa" stroke-width="2" fill="none" id="textpath-NEA"/></defs><text text-anchor="middle" dominant-baseline="middle" class="small-label-8"><textPath href="#textpath-NEA" startOffset="50%"><tspan>Nebraska | 62.2%</tspan></textPath></text><defs><path d="M-145.82630409760324 686.6867473843029L-62.734392930877746 295.41224745022714" stroke="#aaa" stroke-width="2" fill="none" id="textpath-WVA"/></defs><text text-anchor="middle" dominant-baseline="middle" class="small-label-7"><textPath href="#textpath-WVA" startOffset="50%"><tspan>West Virginia | 49.3%</tspan></textPath></text><defs><path d="M-158.77965090956613 683.8077379329926L-68.30691534855978 294.1736992247347" stroke="#aaa" stroke-width="2" fill="none" id="textpath-IDA"/></defs><text text-anchor="middle" dominant-baseline="middle" class="small-label-7"><textPath href="#textpath-IDA" startOffset="50%"><tspan>Idaho | 49.9%</tspan></textPath></text><defs><path d="M-170.32327776932095 681.0242147309556L-73.27297704606116 292.97622912927153" stroke="#aaa" stroke-width="2" fill="none" id="textpath-HIA"/></defs><text text-anchor="middle" dominant-baseline="middle" class="small-label-6"><textPath href="#textpath-HIA" startOffset="50%"><tspan>Hawaii | 80.3%</tspan></textPath></text><defs><path d="M-180.2873930116935 678.4544611991635L-77.55953374577128 291.87072262414154" stroke="#aaa" stroke-width="2" fill="none" id="textpath-NHA"/></defs><text text-anchor="middle" dominant-baseline="middle" class="small-label-5"><textPath href="#textpath-NHA" startOffset="50%"><tspan>New Hampshire | 80.6%</tspan></textPath></text><defs><path d="M-189.95702190987961 675.810868384883L-81.7194025880109 290.73345050175874" stroke="#aaa" stroke-width="2" fill="none" id="textpath-MEA"/></defs><text text-anchor="middle" dominant-baseline="middle" class="small-label-5"><textPath href="#textpath-MEA" startOffset="50%"><tspan>Maine | 78.8%</tspan></textPath></text><defs><path d="M-198.5535831624369 673.3353359310332L-85.41763834053553 289.6684778506724" stroke="#aaa" stroke-width="2" fill="none" id="textpath-MTA"/></defs><text text-anchor="middle" dominant-baseline="middle" class="small-label-4"><textPath href="#textpath-MTA" startOffset="50%"><tspan>Montana | 58.1%</tspan></textPath></text><defs><path d="M-206.1086153475602 671.0612778871326L-88.66780888171394 288.69017937594595" stroke="#aaa" stroke-width="2" fill="none" id="textpath-RIA"/></defs><text text-anchor="middle" dominant-baseline="middle" class="small-label-4"><textPath href="#textpath-RIA" startOffset="50%"><tspan>Rhode Island | 80.1%</tspan></textPath></text><defs><path d="M-213.30203733216388 668.8095699599013L-91.76241492067449 287.7214959086755" stroke="#aaa" stroke-width="2" fill="none" id="textpath-DEA"/></defs><text text-anchor="middle" dominant-baseline="middle" class="small-label-4"><textPath href="#textpath-DEA" startOffset="50%"><tspan>Delaware | 70.2%</tspan></textPath></text><defs><path d="M-434.4993087906773 247.4072566850529L-86.89986175813546 49.481451337010576" stroke="#aaa" stroke-width="2" fill="none" id="textpath-7510733420364801679"/></defs><text text-anchor="middle" dominant-baseline="middle" class="label"><textPath href="#textpath-7510733420364801679" startOffset="50%"><tspan>Mexico | 57.8%</tspan></textPath></text><defs><path d="M-465.91602511009097 -181.44491600927563L-93.18320502201819 -36.288983201855125" stroke="#aaa" stroke-width="2" fill="none" id="textpath-5536426322498842060"/></defs><text text-anchor="middle" dominant-baseline="middle" class="label"><textPath href="#textpath-5536426322498842060" startOffset="50%"><tspan>Canada | 78.9%</tspan></textPath></text><defs><path d="M-392.2850293362076 -310.0200892824379L-78.45700586724152 -62.00401785648758" stroke="#aaa" stroke-width="2" fill="none" id="textpath--2120936324437554204"/></defs><text text-anchor="middle" dominant-baseline="middle" class="label"><textPath href="#textpath--2120936324437554204" startOffset="50%"><tspan>Guatemala | 30.3%</tspan></textPath></text><defs><path d="M-338.86336512789717 -367.65693217209633L-67.77267302557944 -73.53138643441926" stroke="#aaa" stroke-width="2" fill="none" id="textpath--8370242020546488715"/></defs><text text-anchor="middle" dominant-baseline="middle" class="label"><textPath href="#textpath--8370242020546488715" startOffset="50%"><tspan>Haiti | 0.8%</tspan></textPath></text><defs><path d="M-292.11957952790306 -405.79077275911675L-58.423915905580614 -81.15815455182334" stroke="#aaa" stroke-width="2" fill="none" id="textpath-9059021321826435430"/></defs><text text-anchor="middle" dominant-baseline="middle" class="label"><textPath href="#textpath-9059021321826435430" startOffset="50%"><tspan>Cuba | 88.9%</tspan></textPath></text><defs><path d="M-242.48246637611243 -437.2667989913681L-48.496493275222484 -87.45335979827362" stroke="#aaa" stroke-width="2" fill="none" id="textpath-2572273921072089437"/></defs><text text-anchor="middle" dominant-baseline="middle" class="label"><textPath href="#textpath-2572273921072089437" startOffset="50%"><tspan>Dominican Republic | 62.2%</tspan></textPath></text><defs><path d="M-192.55600421515047 -461.43491983235833L-38.51120084303009 -92.28698396647167" stroke="#aaa" stroke-width="2" fill="none" id="textpath--2072893925611359658"/></defs><text text-anchor="middle" dominant-baseline="middle" class="label"><textPath href="#textpath--2072893925611359658" startOffset="50%"><tspan>Honduras | 39.3%</tspan></textPath></text><defs><path d="M-150.99887137981025 -476.65432007066033L-30.19977427596205 -95.33086401413206" stroke="#aaa" stroke-width="2" fill="none" id="textpath--9053549367790842453"/></defs><text text-anchor="middle" dominant-baseline="middle" class="label"><textPath href="#textpath--9053549367790842453" startOffset="50%"><tspan>Nicaragua | 18.6%</tspan></textPath></text><defs><path d="M-117.37684297488072 -486.02744442392367L-23.475368594976143 -97.20548888478473" stroke="#aaa" stroke-width="2" fill="none" id="textpath-5465263849037993807"/></defs><text text-anchor="middle" dominant-baseline="middle" class="label"><textPath href="#textpath-5465263849037993807" startOffset="50%"><tspan>El Salvador | 67.1%</tspan></textPath></text><defs><path d="M-87.25054006937094 -492.32849121049566L-17.45010801387419 -98.46569824209914" stroke="#aaa" stroke-width="2" fill="none" id="textpath--4848587552269654531"/></defs><text text-anchor="middle" dominant-baseline="middle" class="label"><textPath href="#textpath--4848587552269654531" startOffset="50%"><tspan>Costa Rica | 73.8%</tspan></textPath></text><defs><path d="M-62.39613831509147 -496.09144512213066L-12.479227663018294 -99.21828902442613" stroke="#aaa" stroke-width="2" fill="none" id="textpath-1451292996986869909"/></defs><text text-anchor="middle" dominant-baseline="middle" class="small-label-9"><textPath href="#textpath-1451292996986869909" startOffset="50%"><tspan>Panama | 68.1%</tspan></textPath></text><defs><path d="M-43.08393055911325 -498.14031650487544L-8.61678611182265 -99.62806330097509" stroke="#aaa" stroke-width="2" fill="none" id="textpath--2659222353443374709"/></defs><text text-anchor="middle" dominant-baseline="middle" class="small-label-6"><textPath href="#textpath--2659222353443374709" startOffset="50%"><tspan>Jamaica | 20.9%</tspan></textPath></text><defs><path d="M-27.80302609592479 -499.2263932725405L-5.560605219184958 -99.8452786545081" stroke="#aaa" stroke-width="2" fill="none" id="textpath-1902334490250746541"/></defs><text text-anchor="middle" dominant-baseline="middle" class="small-label-5"><textPath href="#textpath-1902334490250746541" startOffset="50%"><tspan>Puerto Rico | (n/a)</tspan></textPath></text></g><text y="654" class="legend">
            <tspan x="-654">* Showing percentage of population vaccinated, having received at least one shot of a countries chosen vaccine(s).</tspan>
            <tspan x="-654" dy="1.2em">Countries where no data was available are not counted towards a region's percentage.</tspan>
            </text><text y="-654" class="title" text-anchor="middle">
            <tspan x="0">Partial Covid Vaccinations* by Country and US State</tspan>
            </text><text xmlns:xlink="http://www.w3.org/1999/xlink" y="654" class="sources" text-anchor="end">
    <tspan x="654">Data source:
        <a xlink:href="https://github.com/owid/covid-19-data/tree/master/public/data/vaccinations">
            <tspan>https://github.com/owid/covid-19-data/tree/master/public/data/vaccinations</tspan>
        </a>
    </tspan>
    <tspan x="654" dy="1.2em">Code source:
        <a xlink:href="https://github.com/WorldSEnder/vis_covid_vacc">
            <tspan>https://github.com/WorldSEnder/vis_covid_vacc</tspan>
        </a>
    </tspan>
    <tspan x="654" dy="1.2em">Timestamp: Sat Nov 13 22:00:15 2021 +0000</tspan>
</text><text text-anchor="middle" dominant-baseline="middle" class="label_all" x="0" y="0">
    <tspan>North America | 62.6%</tspan>
</text></svg>