<svg xmlns="http://www.w3.org/2000/svg" viewBox="-664 -684 1328 1388"><style>
text {
    font-family: "Open Sans";
}
.legend, .sources {
    font-size: 10pt;
}
.title {
    font-size: 20pt;
    font-weight: bold;
}
.label_all {
    font-size: 18pt;
}
.label {
}
.small-label-9 {
   font-size: 9pt;
}
.small-label-8 {
   font-size: 8pt;
}
.small-label-7 {
   font-size: 7pt;
}
.small-label-6 {
   font-size: 6pt;
}
.small-label-5 {
   font-size: 5pt;
}
.small-label-4 {
   font-size: 4pt;
}
a {
    text-decoration: underline;
}
</style><style type="text/css">
@font-face{
  font-family:'Open Sans';src:local('Open Sans')
             , local('OpenSans')
             , url(https://fonts.gstatic.com/s/opensans/v18/mem5YaGs126MiZpBA-UN_r8OUuhp.woff2) format('woff2');
  }
</style><defs><pattern id="diagonalHatch" width="10" height="10" patternTransform="rotate(45 0 0)" patternUnits="userSpaceOnUse">
  <line x1="0" y1="0" x2="0" y2="10" style="stroke:#444; stroke-width:1"/>
</pattern></defs><circle cx="0" cy="0" r="199.0" stroke="#aaa" stroke-width="2" fill="none"/><path d="M2.4554168322904432e-14 -401.0A401.0 401.0 0 1 1 -228.8696909499094 329.2714147394106" stroke="#aaa" stroke-width="2" fill="none"/><path d="M-228.8696909499094 329.2714147394106A401.0 401.0 0 0 1 -374.96714775660007 -142.12894885729665" stroke="#aaa" stroke-width="2" fill="none"/><path d="M-374.96714775660007 -142.12894885729665A401.0 401.0 0 0 1 -192.90407956681136 -351.55229495265894" stroke="#aaa" stroke-width="2" fill="none"/><path d="M-192.90407956681136 -351.55229495265894A401.0 401.0 0 0 1 -145.23210060632871 -373.7761856425222" stroke="#aaa" stroke-width="2" fill="none"/><path d="M-145.23210060632871 -373.7761856425222A401.0 401.0 0 0 1 -106.2849495794417 -386.65812999715337" stroke="#aaa" stroke-width="2" fill="none"/><path d="M-106.2849495794417 -386.65812999715337A401.0 401.0 0 0 1 -88.50368743641683 -391.11136177584643" stroke="#aaa" stroke-width="2" fill="none"/><path d="M-88.50368743641683 -391.11136177584643A401.0 401.0 0 0 1 -72.04321301900347 -394.4753166649321" stroke="#aaa" stroke-width="2" fill="none"/><path d="M-72.04321301900347 -394.4753166649321A401.0 401.0 0 0 1 -55.78437127764972 -397.1008737350717" stroke="#aaa" stroke-width="2" fill="none"/><path d="M-55.78437127764972 -397.1008737350717A401.0 401.0 0 0 1 -44.20822616454614 -398.55568336103846" stroke="#aaa" stroke-width="2" fill="none"/><path d="M-44.20822616454614 -398.55568336103846A401.0 401.0 0 0 1 -34.33511432369933 -399.52734565280826" stroke="#aaa" stroke-width="2" fill="none"/><path d="M-34.33511432369933 -399.52734565280826A401.0 401.0 0 0 1 -27.279675615414785 -400.071017818484" stroke="#aaa" stroke-width="2" fill="none"/><path d="M-27.279675615414785 -400.071017818484A401.0 401.0 0 0 1 -20.514589493320265 -400.474907600864" stroke="#aaa" stroke-width="2" fill="none"/><path d="M-20.514589493320265 -400.474907600864A401.0 401.0 0 0 1 -14.296885018130784 -400.74505496484716" stroke="#aaa" stroke-width="2" fill="none"/><path d="M-14.296885018130784 -400.74505496484716A401.0 401.0 0 0 1 -10.82310453056782 -400.8539140488969" stroke="#aaa" stroke-width="2" fill="none"/><path d="M-10.82310453056782 -400.8539140488969A401.0 401.0 0 0 1 -7.448063819654138 -400.9308248879579" stroke="#aaa" stroke-width="2" fill="none"/><path d="M-7.448063819654138 -400.9308248879579A401.0 401.0 0 0 1 -4.236123582680672 -400.977624384444" stroke="#aaa" stroke-width="2" fill="none"/><path d="M-4.236123582680672 -400.977624384444A401.0 401.0 0 0 1 -3.176695907456498 -400.98741701344136" stroke="#aaa" stroke-width="2" fill="none"/><path d="M-3.176695907456498 -400.98741701344136A401.0 401.0 0 0 1 -2.15233980927633 -400.9942236907477" stroke="#aaa" stroke-width="2" fill="none"/><path d="M-2.15233980927633 -400.9942236907477A401.0 401.0 0 0 1 -1.4571659975592988 -400.997352444197" stroke="#aaa" stroke-width="2" fill="none"/><path d="M-1.4571659975592988 -400.997352444197A401.0 401.0 0 0 1 -0.8104317686953473 -400.9991810469796" stroke="#aaa" stroke-width="2" fill="none"/><path d="M-0.8104317686953473 -400.9991810469796A401.0 401.0 0 0 1 -0.17657886772932618 -400.9999611220723" stroke="#aaa" stroke-width="2" fill="none"/><path d="M-0.17657886772932618 -400.9999611220723A401.0 401.0 0 0 1 -0.0824889746285416 -400.99999151567204" stroke="#aaa" stroke-width="2" fill="none"/><path d="M-0.0824889746285416 -400.99999151567204A401.0 401.0 0 0 1 -0.0027399164911984762 -400.9999999906395" stroke="#aaa" stroke-width="2" fill="none"/><path d="M-0.0027399164911984762 -400.9999999906395A401.0 401.0 0 0 1 -7.366250496871329e-14 -401.0" stroke="#aaa" stroke-width="2" fill="none"/><g><circle fill="#279ee3" r="102.99616397915997"/><path d="M0.5000000000000009 -199.99937499902342L0.5000000000000244 -288.4564926804072A288.45692602099507 288.45692602099507 0 1 1 -164.22521851593493 237.14441965366854L-113.73855221653821 164.51000498354443A200 200 0 1 0 0.5000000000000009 -199.99937499902342" fill="#b80058"/><path d="M-114.55967793908042 163.93925762456706L-115.31371910645863 165.02408541860095A201.32114290955369 201.32114290955369 0 0 1 -188.42804587884328 -70.88775711425404L-187.19266750851656 -70.4194946804219A200 200 0 0 0 -114.55967793908042 163.93925762456706" fill="#008cf9"/><path d="M-186.8382312270769 -71.35457484939106L-261.5831565886804 -99.68617066417346A279.93406443765434 279.93406443765434 0 0 1 -135.10252630666585 -245.17419892423726L-96.64955485187157 -175.09672625990203A200 200 0 0 0 -186.8382312270769 -71.35457484939106" fill="#006e00"/><path d="M-95.77286583702698 -175.5777838149315L-140.20722453019152 -256.55585752083954A292.3678741563663 292.3678741563663 0 0 1 -106.35418083108038 -272.3375884053883L-72.9007916306292 -186.24036774992575A200 200 0 0 0 -95.77286583702698 -175.5777838149315" fill="#00bbad"/><path d="M-71.96868144199442 -186.6025425644054L-75.46066234845881 -195.58966936423533A209.64167124901243 209.64167124901243 0 0 1 -56.04743179644289 -202.01068217572578L-53.49190162765498 -192.7138201070626A200 200 0 0 0 -71.96868144199442 -186.6025425644054" fill="#d163e6"/><path d="M-52.52766688950741 -192.9788698566373L-55.30537489922955 -203.08400128838824A210.4799184531541 210.4799184531541 0 0 1 -46.94202502390554 -205.1785621323569L-44.62902207800555 -194.95704754730178A200 200 0 0 0 -52.52766688950741 -192.9788698566373" fill="#b24502"/><path d="M-43.65368202370163 -195.17775499726793L-58.52620433924218 -260.90171096296353A267.3855257446829 267.3855257446829 0 0 1 -48.529966005635515 -262.9445983040008L-36.42352926447552 -196.6553495736129A200 200 0 0 0 -43.65368202370163 -195.17775499726793" fill="#ff9287"/><path d="M-35.439800295236225 -196.8350084589471L-54.234713160816355 -299.7472592268829A304.61422081981686 304.61422081981686 0 0 1 -42.87092353145964 -301.58233940538344L-28.317680366860266 -197.9851231245427A200 200 0 0 0 -35.439800295236225 -196.8350084589471" fill="#5954d6"/><path d="M-27.327403873755284 -198.12423626987353L-35.594065022252444 -256.9704379882968A259.4238683404159 259.4238683404159 0 0 1 -29.097071283240325 -257.78693509843254L-22.545873926197594 -198.72514578911247A200 200 0 0 0 -27.327403873755284 -198.12423626987353" fill="#00c6f8"/><path d="M-21.551969478913144 -198.83539074214127L-43.60099453631402 -397.6165907950073A400 400 0 0 1 -34.74762761241561 -398.48789489181337L-17.62285555632494 -199.2220744848344A200 200 0 0 0 -21.551969478913144 -198.83539074214127" fill="url(#diagonalHatch)"/><path d="M-16.626528011056024 -199.30769821132742L-18.029793390973513 -215.63625582728193A216.38869720234968 216.38869720234968 0 0 1 -15.21953420678055 -215.8528064572217L-14.104622399422226 -199.50202912995576A200 200 0 0 0 -16.626528011056024 -199.30769821132742" fill="#00a76c"/><path d="M-13.106939063216464 -199.57005824620367L-26.71278357195704 -399.1070372642379A400 400 0 0 1 -20.962760200291168 -399.45032567865695L-10.731028755177135 -199.71190505789974A200 200 0 0 0 -13.106939063216464 -199.57005824620367" fill="url(#diagonalHatch)"/><path d="M-9.732338212531523 -199.76306363518984L-13.09926114770786 -265.4903428382686A265.813304375453 265.813304375453 0 0 1 -9.976728312324234 -265.62601091606086L-7.63027579935535 -199.85439422546048A200 200 0 0 0 -9.732338212531523 -199.76306363518984" fill="#ebac23"/><path d="M-6.6309115725102785 -199.89004730530618L-13.761538683270913 -399.7632049764821A400 400 0 0 1 -11.295923658429002 -399.8404708239311L-5.89785810146415 -199.91301926041484A200 200 0 0 0 -6.6309115725102785 -199.89004730530618" fill="url(#diagonalHatch)"/><path d="M-4.898222405581549 -199.94000954602723L-10.296287962546762 -399.86746110954357A400 400 0 0 1 -7.929398036869633 -399.9213980856399L-4.2146471853557586 -199.955586941458A200 200 0 0 0 -4.898222405581549 -199.94000954602723" fill="url(#diagonalHatch)"/><path d="M-3.214819691869513 -199.97416066669405L-6.929570543383747 -399.939971810876A400 400 0 0 1 -4.725528482482033 -399.972085751695L-2.6127453395186873 -199.98293317628588A200 200 0 0 0 -3.214819691869513 -199.97416066669405" fill="url(#diagonalHatch)"/><path d="M-1.612801139058661 -199.99349707549456L-3.7255842820223664 -399.9826496509037A400 400 0 0 1 -3.6687558074099806 -399.98317493467846L-2.0843663455361328 -199.9891382473998A200 200 0 0 0 -1.612801139058661 -199.99349707549456" fill="url(#diagonalHatch)"/><path d="M-1.084397724554916 -199.99706018233113L-2.1910541942604063 -339.6879000473609A339.6949663404921 339.6949663404921 0 0 1 -2.323280097003504 -339.6870214280477L-1.5734756321350882 -199.99381034030796A200 200 0 0 0 -1.084397724554916 -199.99706018233113" fill="#d163e6"/><path d="M-0.5734900368962499 -199.9991777712538L-1.0697797257829027 -292.46101751567994A292.462974058202 292.462974058202 0 0 1 -1.5627559969202447 -292.45879878824405L-1.2267605112314215 -199.9962376112313A200 200 0 0 0 -0.5734900368962499 -199.9991777712538" fill="#b24502"/><path d="M-0.22676711361490393 -199.99987144164913L-0.6113983516464025 -305.8465000181346A305.84711112136927 305.84711112136927 0 0 1 -1.118123377844122 -305.8450672830921L-0.9042030866382185 -199.99795603150076A200 200 0 0 0 -0.22676711361490393 -199.99987144164913" fill="#ff9287"/><path d="M0.0957948710849887 -199.99997705835537L-0.20017964782117278 -346.44727129899593A346.4473291315889 346.4473291315889 0 0 1 -0.6525565934072128 -346.44671456416484L-0.5880689370198251 -199.9991354354446A200 200 0 0 0 0.0957948710849887 -199.99997705835537" fill="#5954d6"/><path d="M0.4119309660278028 -199.99957578174815L0.34400196192719723 -354.26224805743794A354.2624150768177 354.2624150768177 0 0 1 -0.5728745885810542 -354.2619518813236L-0.5411414940844586 -199.99926791336858A200 200 0 0 0 0.4119309660278028 -199.99957578174815" fill="#00c6f8"/><path d="M0.4588584847576824 -199.99947362153472L0.4272967659207857 -353.42905669911784A353.42931500054493 353.42931500054493 0 0 1 -0.5024148773936845 -353.42895789825343L-0.5013665376087836 -199.99937157800014A200 200 0 0 0 0.4588584847576824 -199.99947362153472" fill="#878500"/><path d="M0.49863346236793965 -199.9993784107096L0.49726691834166004 -399.99969090689547A400.0 400.0 0 0 1 -0.49999999999992656 -399.9996874998779L-0.5000000000000698 -199.99937499902342A200 200 0 0 0 0.49863346236793965 -199.9993784107096" fill="#00a76c"/></g><g><defs><path d="M95.42341752793627 29.906042655108095L477.11708763968136 149.53021327554046" stroke="#aaa" stroke-width="2" fill="none" id="textpath--677662679484503826"/></defs><text text-anchor="middle" dominant-baseline="middle" class="label"><textPath href="#textpath--677662679484503826" startOffset="50%"><tspan>Australia | 36.0%</tspan></textPath></text><defs><path d="M-477.589165047149 148.01550401754236L-95.5178330094298 29.603100803508468" stroke="#aaa" stroke-width="2" fill="none" id="textpath-7219142041108582097"/></defs><text text-anchor="middle" dominant-baseline="middle" class="label"><textPath href="#textpath-7219142041108582097" startOffset="50%"><tspan>Papua New Guinea | 0.4%</tspan></textPath></text><defs><path d="M-377.3421831442108 -328.044016589178L-75.46843662884216 -65.6088033178356" stroke="#aaa" stroke-width="2" fill="none" id="textpath--8447650341193120934"/></defs><text text-anchor="middle" dominant-baseline="middle" class="label"><textPath href="#textpath--8447650341193120934" startOffset="50%"><tspan>New Zealand | 32.0%</tspan></textPath></text><defs><path d="M-211.26291905647082 -453.17543957251155L-42.252583811294166 -90.63508791450231" stroke="#aaa" stroke-width="2" fill="none" id="textpath--4486437331182547261"/></defs><text text-anchor="middle" dominant-baseline="middle" class="label"><textPath href="#textpath--4486437331182547261" startOffset="50%"><tspan>Fiji | 37.9%</tspan></textPath></text><defs><path d="M-157.01167162716254 -474.7076310455143L-31.402334325432506 -94.94152620910286" stroke="#aaa" stroke-width="2" fill="none" id="textpath-4289121258237619819"/></defs><text text-anchor="middle" dominant-baseline="middle" class="label"><textPath href="#textpath-4289121258237619819" startOffset="50%"><tspan>Solomon Islands | 3.3%</tspan></textPath></text><defs><path d="M-121.47103177111985 -485.0204000250501L-24.29420635422397 -97.00408000501002" stroke="#aaa" stroke-width="2" fill="none" id="textpath-8185678489720798997"/></defs><text text-anchor="middle" dominant-baseline="middle" class="small-label-9"><textPath href="#textpath-8185678489720798997" startOffset="50%"><tspan>Vanuatu | 3.6%</tspan></textPath></text><defs><path d="M-100.11355313329997 -489.8747559111675L-20.022710626659997 -97.9749511822335" stroke="#aaa" stroke-width="2" fill="none" id="textpath--5902417863537437286"/></defs><text text-anchor="middle" dominant-baseline="middle" class="small-label-8"><textPath href="#textpath--5902417863537437286" startOffset="50%"><tspan>New Caledonia | 26.2%</tspan></textPath></text><defs><path d="M-79.7098165233748 -493.60545494332814L-15.94196330467496 -98.72109098866562" stroke="#aaa" stroke-width="2" fill="none" id="textpath-6639053702355415852"/></defs><text text-anchor="middle" dominant-baseline="middle" class="small-label-8"><textPath href="#textpath-6639053702355415852" startOffset="50%"><tspan>French Polynesia | 44.0%</tspan></textPath></text><defs><path d="M-62.346122207519656 -496.0977333607613L-12.46922444150393 -99.21954667215226" stroke="#aaa" stroke-width="2" fill="none" id="textpath-7577735533788478340"/></defs><text text-anchor="middle" dominant-baseline="middle" class="small-label-5"><textPath href="#textpath-7577735533788478340" startOffset="50%"><tspan>Samoa | 22.8%</tspan></textPath></text><defs><path d="M-48.970916765374305 -497.5960704337995L-9.79418335307486 -99.51921408675992" stroke="#aaa" stroke-width="2" fill="none" id="textpath-1131375172568447345"/></defs><text text-anchor="middle" dominant-baseline="middle" class="small-label-4"><textPath href="#textpath-1131375172568447345" startOffset="50%"><tspan>Guam | (n/a)</tspan></textPath></text></g><text y="654" class="legend">
            <tspan x="-654">* Showing percentage of population fully vaccinated, having received all shots according to each countries chosen vaccine(s).</tspan>
            <tspan x="-654" dy="1.2em">Countries where no data was available are not counted towards a region's percentage.</tspan>
            </text><text y="-654" class="title" text-anchor="middle">
                <tspan x="0">Covid Vaccinations* by Country</tspan>
            </text><text xmlns:xlink="http://www.w3.org/1999/xlink" y="654" class="sources" text-anchor="end">
    <tspan x="654">Data source:
        <a xlink:href="https://github.com/owid/covid-19-data/tree/master/public/data/vaccinations">
            <tspan>https://github.com/owid/covid-19-data/tree/master/public/data/vaccinations</tspan>
        </a>
    </tspan>
    <tspan x="654" dy="1.2em">Code source:
        <a xlink:href="https://github.com/WorldSEnder/vis_covid_vacc">
            <tspan>https://github.com/WorldSEnder/vis_covid_vacc</tspan>
        </a>
    </tspan>
    <tspan x="654" dy="1.2em">Timestamp: Sun Sep 19 02:00:22 2021 +0000</tspan>
</text><text text-anchor="middle" dominant-baseline="middle" class="label_all" x="0" y="0">
    <tspan>Oceania | 27.1%</tspan>
</text></svg>