<svg xmlns="http://www.w3.org/2000/svg" viewBox="-664 -684 1328 1388"><style>
text {
    font-family: "Open Sans";
}
.legend, .sources {
    font-size: 10pt;
}
.title {
    font-size: 20pt;
    font-weight: bold;
}
.label_all {
    font-size: 18pt;
}
.label {
}
.small-label-9 {
   font-size: 9pt;
}
.small-label-8 {
   font-size: 8pt;
}
.small-label-7 {
   font-size: 7pt;
}
.small-label-6 {
   font-size: 6pt;
}
.small-label-5 {
   font-size: 5pt;
}
.small-label-4 {
   font-size: 4pt;
}
a {
    text-decoration: underline;
}
</style><style type="text/css">
@font-face{
  font-family:'Open Sans';src:local('Open Sans')
             , local('OpenSans')
             , url(https://fonts.gstatic.com/s/opensans/v18/mem5YaGs126MiZpBA-UN_r8OUuhp.woff2) format('woff2');
  }
</style><defs><pattern id="diagonalHatch" width="10" height="10" patternTransform="rotate(45 0 0)" patternUnits="userSpaceOnUse">
  <line x1="0" y1="0" x2="0" y2="10" style="stroke:#444; stroke-width:1"/>
</pattern></defs><circle cx="0" cy="0" r="199.0" stroke="#aaa" stroke-width="2" fill="none"/><path d="M2.4554168322904432e-14 -401.0A401.0 401.0 0 1 1 -221.37503124376332 334.35624047088277" stroke="#aaa" stroke-width="2" fill="none"/><path d="M-221.37503124376332 334.35624047088277A401.0 401.0 0 0 1 -379.1365034317886 -130.60058103055036" stroke="#aaa" stroke-width="2" fill="none"/><path d="M-379.1365034317886 -130.60058103055036A401.0 401.0 0 0 1 -191.84029162056575 -352.1339269524257" stroke="#aaa" stroke-width="2" fill="none"/><path d="M-191.84029162056575 -352.1339269524257A401.0 401.0 0 0 1 -144.39721370235353 -374.09951172782473" stroke="#aaa" stroke-width="2" fill="none"/><path d="M-144.39721370235353 -374.09951172782473A401.0 401.0 0 0 1 -105.65992853878994 -386.82939327457757" stroke="#aaa" stroke-width="2" fill="none"/><path d="M-105.65992853878994 -386.82939327457757A401.0 401.0 0 0 1 -87.97924680530544 -391.2296667324337" stroke="#aaa" stroke-width="2" fill="none"/><path d="M-87.97924680530544 -391.2296667324337A401.0 401.0 0 0 1 -71.61387570863198 -394.5534853552666" stroke="#aaa" stroke-width="2" fill="none"/><path d="M-71.61387570863198 -394.5534853552666A401.0 401.0 0 0 1 -55.45046237456548 -397.1476378155193" stroke="#aaa" stroke-width="2" fill="none"/><path d="M-55.45046237456548 -397.1476378155193A401.0 401.0 0 0 1 -43.942967264809674 -398.5850168131811" stroke="#aaa" stroke-width="2" fill="none"/><path d="M-43.942967264809674 -398.5850168131811A401.0 401.0 0 0 1 -34.12876411327585 -399.5450255729639" stroke="#aaa" stroke-width="2" fill="none"/><path d="M-34.12876411327585 -399.5450255729639A401.0 401.0 0 0 1 -27.11558033219405 -400.0821731885193" stroke="#aaa" stroke-width="2" fill="none"/><path d="M-27.11558033219405 -400.0821731885193A401.0 401.0 0 0 1 -20.39110586660017 -400.4812140432271" stroke="#aaa" stroke-width="2" fill="none"/><path d="M-20.39110586660017 -400.4812140432271A401.0 401.0 0 0 1 -14.21078931050588 -400.7481172347194" stroke="#aaa" stroke-width="2" fill="none"/><path d="M-14.21078931050588 -400.7481172347194A401.0 401.0 0 0 1 -10.757916198810022 -400.85566883737516" stroke="#aaa" stroke-width="2" fill="none"/><path d="M-10.757916198810022 -400.85566883737516A401.0 401.0 0 0 1 -7.403197912588761 -400.93165584756093" stroke="#aaa" stroke-width="2" fill="none"/><path d="M-7.403197912588761 -400.93165584756093A401.0 401.0 0 0 1 -4.210603905585927 -400.9778931746116" stroke="#aaa" stroke-width="2" fill="none"/><path d="M-4.210603905585927 -400.9778931746116A401.0 401.0 0 0 1 -3.157558231181382 -400.98756816891057" stroke="#aaa" stroke-width="2" fill="none"/><path d="M-3.157558231181382 -400.98756816891057A401.0 401.0 0 0 1 -2.1393731150637816 -400.9942930799322" stroke="#aaa" stroke-width="2" fill="none"/><path d="M-2.1393731150637816 -400.9942930799322A401.0 401.0 0 0 1 -1.4483873078636693 -400.9973842485839" stroke="#aaa" stroke-width="2" fill="none"/><path d="M-1.4483873078636693 -400.9973842485839A401.0 401.0 0 0 1 -0.8055493116089165 -400.99919088485274" stroke="#aaa" stroke-width="2" fill="none"/><path d="M-0.8055493116089165 -400.99919088485274A401.0 401.0 0 0 1 -0.1755150645990341 -400.999961589103" stroke="#aaa" stroke-width="2" fill="none"/><path d="M-0.1755150645990341 -400.999961589103A401.0 401.0 0 0 1 -0.08199201802783727 -400.9999916175922" stroke="#aaa" stroke-width="2" fill="none"/><path d="M-0.08199201802783727 -400.9999916175922A401.0 401.0 0 0 1 -0.0027234098047580384 -400.9999999907519" stroke="#aaa" stroke-width="2" fill="none"/><path d="M-0.0027234098047580384 -400.9999999907519A401.0 401.0 0 0 1 2.824970413310369e-13 -401.0" stroke="#aaa" stroke-width="2" fill="none"/><g><circle fill="#279ee3" r="142.8368456236349"/><path d="M0.5000000000000009 -199.99937499902342L0.5000000000000584 -350.3251276915953A350.3254845028157 350.3254845028157 0 1 1 -192.98268819941856 292.37925225203406L-109.99423882520325 167.03672478010384A200 200 0 1 0 0.5000000000000009 -199.99937499902342" fill="#b80058"/><path d="M-110.8280449111656 166.4846673455807L-112.74842972713773 169.38514191002596A203.4785853740264 203.4785853740264 0 0 1 -192.54670015655665 -65.7974388911607L-189.25776562640425 -64.66450456085656A200 200 0 0 0 -110.8280449111656 166.4846673455807" fill="#008cf9"/><path d="M-188.93207839191408 -65.60998212552443L-326.3564328118189 -112.94834277540278A345.3488806603622 345.3488806603622 0 0 1 -165.6554301821092 -303.0249623785893L-96.11971418259294 -175.38814254520355A200 200 0 0 0 -188.93207839191408 -65.60998212552443" fill="#006e00"/><path d="M-95.2415747138836 -175.86654726246184L-161.9879542074504 -298.38337895813925A339.5183914706118 339.5183914706118 0 0 1 -122.72445466927915 -316.5619155440522L-72.48479363574826 -186.40266814502144A200 200 0 0 0 -95.2415747138836 -175.86654726246184" fill="#00bbad"/><path d="M-71.55187714764888 -186.76276094727172L-76.81716691214822 -200.4038990239729A214.62199299330806 214.62199299330806 0 0 1 -57.03316109898587 -206.90533683662366L-53.180384954705154 -192.80001726158991A200 200 0 0 0 -71.55187714764888 -186.76276094727172" fill="#d163e6"/><path d="M-52.21572312609018 -193.06350835520288L-60.2419149804213 -222.44803443101245A230.46087811758682 230.46087811758682 0 0 1 -51.05072715460639 -224.73548807367993L-44.36760400825971 -195.01670624478882A200 200 0 0 0 -52.21572312609018 -193.06350835520288" fill="#b24502"/><path d="M-43.3919689291264 -195.2361058627572L-71.50694129972173 -320.25890010286764A328.1447938778557 328.1447938778557 0 0 1 -59.09468814472421 -322.77983763274034L-36.20949407895707 -196.69487166305575A200 200 0 0 0 -43.3919689291264 -195.2361058627572" fill="#ff9287"/><path d="M-35.22557017532792 -196.87345988178052L-56.68787170260675 -315.11906225339993A320.17735427983246 320.17735427983246 0 0 1 -44.769412736253436 -317.0319193344486L-28.151201090343474 -198.0088631278182A200 200 0 0 0 -35.22557017532792 -196.87345988178052" fill="#5954d6"/><path d="M-27.16080797858401 -198.14714358261762L-41.10736462176516 -298.0352561304464A300.8568252888532 300.8568252888532 0 0 1 -33.465875002572815 -298.98973984603504L-22.413612211897966 -198.74010664084554A200 200 0 0 0 -27.16080797858401 -198.14714358261762" fill="#00c6f8"/><path d="M-21.41963461386004 -198.8496901003588L-43.33636076143318 -397.6455203267791A400 400 0 0 1 -34.54181419664292 -398.5057880031413L-17.519960112046796 -199.2311496670947A200 200 0 0 0 -21.41963461386004 -198.8496901003588" fill="url(#diagonalHatch)"/><path d="M-16.523588477201432 -199.3162588045343L-18.745530052801417 -225.3285017529786A226.10689639903194 226.10689639903194 0 0 1 -15.788144162298794 -225.55501125692825L-14.022793530595749 -199.5077974957327A200 200 0 0 0 -16.523588477201432 -199.3162588045343" fill="#00a76c"/><path d="M-13.025082375512092 -199.57541739681048L-26.549083722347266 -399.11796019911685A400 400 0 0 1 -20.83959247241534 -399.4567703589259L-10.669448967283246 -199.71520437546698A200 200 0 0 0 -13.025082375512092 -199.57541739681048" fill="url(#diagonalHatch)"/><path d="M-9.670742697848697 -199.76605501353828L-14.043291602536708 -285.64289294811323A285.98789542706373 285.98789542706373 0 0 1 -10.634617393040813 -285.7900999749725L-7.58733924928018 -199.85602888858853A200 200 0 0 0 -9.670742697848697 -199.76605501353828" fill="#ebac23"/><path d="M-6.5879673858518855 -199.89146726592145L-13.675653926961736 -399.76615225612835A400 400 0 0 1 -11.230900129906516 -399.84230251722L-5.865347507412906 -199.91397574611256A200 200 0 0 0 -6.5879673858518855 -199.89146726592145" fill="url(#diagonalHatch)"/><path d="M-4.8657074354991865 -199.9408034673066L-10.231260057993156 -399.869130238414A400 400 0 0 1 -7.884645085932604 -399.9222829149045L-4.1922712803880815 -199.95605732638268A200 200 0 0 0 -4.8657074354991865 -199.9408034673066" fill="url(#diagonalHatch)"/><path d="M-3.1924417146833743 -199.9745191665637L-6.8848155202282575 -399.94074475508546A400 400 0 0 1 -4.700072800517165 -399.9723856913997L-2.600017695942523 -199.9830990558472A200 200 0 0 0 -3.1924417146833743 -199.9745191665637" fill="url(#diagonalHatch)"/><path d="M-1.6000728251828265 -199.99359931496338L-3.700127929757829 -399.9828859505159A400 400 0 0 1 -3.64966605940054 -399.98334957552277L-2.07482158813907 -199.9892374988649A200 200 0 0 0 -1.6000728251828265 -199.99359931496338" fill="url(#diagonalHatch)"/><path d="M-1.0748525902115456 -199.9971117089177L-2.2285985332126135 -346.5146882970808A346.5218548043475 346.5218548043475 0 0 1 -2.348717991917817 -346.513894931848L-1.5670085597068566 -199.99386111621976A200 200 0 0 0 -1.0748525902115456 -199.9971117089177" fill="#d163e6"/><path d="M-0.5670227914276579 -199.9991962112698L-1.180433441129847 -314.9740774571343A314.9762894141109 314.9762894141109 0 0 1 -1.6376702673047954 -314.97203197931293L-1.222382165719594 -199.9962644197159A200 200 0 0 0 -0.5670227914276579 -199.9991962112698" fill="#b24502"/><path d="M-0.22238868879039098 -199.99987635813952L-0.6582077859001936 -320.6598110301438A320.6604865701057 320.6604865701057 0 0 1 -1.144157395609478 -320.65844531406157L-0.9017679658232333 -199.99796702600707A200 200 0 0 0 -0.22238868879039098 -199.99987635813952" fill="#ff9287"/><path d="M0.09823001643332364 -199.99997587715822L-0.1959614000044314 -346.4472737106488A346.4473291315889 346.4473291315889 0 0 1 -0.6516375132678855 -346.44671629409737L-0.5875383641328799 -199.99913699481473A200 200 0 0 0 0.09823001643332364 -199.99997587715822" fill="#5954d6"/><path d="M0.4124615400794133 -199.99957468824266L0.34494177570340745 -354.2622471435968A354.2624150768177 354.2624150768177 0 0 1 -0.5724355541190974 -354.2619525910112L-0.5408936363323827 -199.99926858384802A200 200 0 0 0 0.4124615400794133 -199.99957468824266" fill="#00c6f8"/><path d="M0.45910634276392326 -199.9994730527209L0.42773476818056005 -353.42905616930045A353.42931500054493 353.42931500054493 0 0 1 -0.5024003289124195 -353.42895791893443L-0.5013583048733343 -199.9993715986381A200 200 0 0 0 0.45910634276392326 -199.9994730527209" fill="#878500"/><path d="M0.49864169510366935 -199.99937839018375L0.49728338385157034 -399.99969088642575A400.0 400.0 0 0 1 -0.4999999999995713 -399.9996874998779L-0.4999999999998922 -199.99937499902342A200 200 0 0 0 0.49864169510366935 -199.99937839018375" fill="#00a76c"/></g><g><defs><path d="M95.75505433036685 28.82654280673445L478.7752716518342 144.13271403367224" stroke="#aaa" stroke-width="2" fill="none" id="textpath--677662679484503826"/></defs><text text-anchor="middle" dominant-baseline="middle" class="label"><textPath href="#textpath--677662679484503826" startOffset="50%"><tspan>Australia | 68.9%</tspan></textPath></text><defs><path d="M-473.48678928083274 160.65572002430625L-94.69735785616655 32.13114400486125" stroke="#aaa" stroke-width="2" fill="none" id="textpath-7219142041108582097"/></defs><text text-anchor="middle" dominant-baseline="middle" class="label"><textPath href="#textpath-7219142041108582097" startOffset="50%"><tspan>Papua New Guinea | 1.2%</tspan></textPath></text><defs><path d="M-381.824912744434 -322.81532802471656L-76.3649825488868 -64.56306560494332" stroke="#aaa" stroke-width="2" fill="none" id="textpath--8447650341193120934"/></defs><text text-anchor="middle" dominant-baseline="middle" class="label"><textPath href="#textpath--8447650341193120934" startOffset="50%"><tspan>New Zealand | 66.1%</tspan></textPath></text><defs><path d="M-210.07120996152835 -453.7290895956523L-42.01424199230567 -90.74581791913046" stroke="#aaa" stroke-width="2" fill="none" id="textpath--4486437331182547261"/></defs><text text-anchor="middle" dominant-baseline="middle" class="label"><textPath href="#textpath--4486437331182547261" startOffset="50%"><tspan>Fiji | 62.7%</tspan></textPath></text><defs><path d="M-156.097854290261 -475.0089050596593L-31.219570858052204 -95.00178101193187" stroke="#aaa" stroke-width="2" fill="none" id="textpath-4289121258237619819"/></defs><text text-anchor="middle" dominant-baseline="middle" class="label"><textPath href="#textpath-4289121258237619819" startOffset="50%"><tspan>Solomon Islands | 5.1%</tspan></textPath></text><defs><path d="M-120.75384350984918 -485.19945308872605L-24.150768701969834 -97.0398906177452" stroke="#aaa" stroke-width="2" fill="none" id="textpath-8185678489720798997"/></defs><text text-anchor="middle" dominant-baseline="middle" class="small-label-9"><textPath href="#textpath-8185678489720798997" startOffset="50%"><tspan>Vanuatu | 10.9%</tspan></textPath></text><defs><path d="M-99.51853557478158 -489.9959806743836L-19.903707114956315 -97.99919613487673" stroke="#aaa" stroke-width="2" fill="none" id="textpath--5902417863537437286"/></defs><text text-anchor="middle" dominant-baseline="middle" class="small-label-8"><textPath href="#textpath--5902417863537437286" startOffset="50%"><tspan>New Caledonia | 56.4%</tspan></textPath></text><defs><path d="M-79.23367612433222 -493.68210881884755L-15.846735224866443 -98.73642176376951" stroke="#aaa" stroke-width="2" fill="none" id="textpath-6639053702355415852"/></defs><text text-anchor="middle" dominant-baseline="middle" class="small-label-8"><textPath href="#textpath-6639053702355415852" startOffset="50%"><tspan>French Polynesia | 52.1%</tspan></textPath></text><defs><path d="M-61.97245787458341 -496.1445499700495L-12.394491574916684 -99.22890999400991" stroke="#aaa" stroke-width="2" fill="none" id="textpath-7577735533788478340"/></defs><text text-anchor="middle" dominant-baseline="middle" class="small-label-5"><textPath href="#textpath-7577735533788478340" startOffset="50%"><tspan>Samoa | 42.1%</tspan></textPath></text><defs><path d="M-48.6768288822264 -497.62492535037916L-9.73536577644528 -99.52498507007583" stroke="#aaa" stroke-width="2" fill="none" id="textpath-1131375172568447345"/></defs><text text-anchor="middle" dominant-baseline="middle" class="small-label-4"><textPath href="#textpath-1131375172568447345" startOffset="50%"><tspan>Guam | (n/a)</tspan></textPath></text></g><text y="654" class="legend">
            <tspan x="-654">* Showing percentage of population fully vaccinated, having received all shots according to each countries chosen vaccine(s).</tspan>
            <tspan x="-654" dy="1.2em">Countries where no data was available are not counted towards a region's percentage.</tspan>
            </text><text y="-654" class="title" text-anchor="middle">
                <tspan x="0">Covid Vaccinations* by Country</tspan>
            </text><text xmlns:xlink="http://www.w3.org/1999/xlink" y="654" class="sources" text-anchor="end">
    <tspan x="654">Data source:
        <a xlink:href="https://github.com/owid/covid-19-data/tree/master/public/data/vaccinations">
            <tspan>https://github.com/owid/covid-19-data/tree/master/public/data/vaccinations</tspan>
        </a>
    </tspan>
    <tspan x="654" dy="1.2em">Code source:
        <a xlink:href="https://github.com/WorldSEnder/vis_covid_vacc">
            <tspan>https://github.com/WorldSEnder/vis_covid_vacc</tspan>
        </a>
    </tspan>
    <tspan x="654" dy="1.2em">Timestamp: Sat Nov 13 22:00:15 2021 +0000</tspan>
</text><text text-anchor="middle" dominant-baseline="middle" class="label_all" x="0" y="0">
    <tspan>Oceania | 52.0%</tspan>
</text></svg>