<svg xmlns="http://www.w3.org/2000/svg" viewBox="-664 -684 1328 1388"><style>
text {
    font-family: "Open Sans";
}
.legend, .sources {
    font-size: 10pt;
}
.title {
    font-size: 20pt;
    font-weight: bold;
}
.label_all {
    font-size: 18pt;
}
.label {
}
.small-label-9 {
   font-size: 9pt;
}
.small-label-8 {
   font-size: 8pt;
}
.small-label-7 {
   font-size: 7pt;
}
.small-label-6 {
   font-size: 6pt;
}
.small-label-5 {
   font-size: 5pt;
}
.small-label-4 {
   font-size: 4pt;
}
a {
    text-decoration: underline;
}
</style><style type="text/css">
@font-face{
  font-family:'Open Sans';src:local('Open Sans')
             , local('OpenSans')
             , url(https://fonts.gstatic.com/s/opensans/v18/mem5YaGs126MiZpBA-UN_r8OUuhp.woff2) format('woff2');
  }
</style><defs><pattern id="diagonalHatch" width="10" height="10" patternTransform="rotate(45 0 0)" patternUnits="userSpaceOnUse">
  <line x1="0" y1="0" x2="0" y2="10" style="stroke:#444; stroke-width:1"/>
</pattern></defs><circle cx="0" cy="0" r="199.0" stroke="#aaa" stroke-width="2" fill="none"/><path d="M2.4554168322904432e-14 -401.0A401.0 401.0 0 0 1 17.316401160836676 400.625938065469" stroke="#aaa" stroke-width="2" fill="none"/><path d="M17.316401160836676 400.625938065469A401.0 401.0 0 0 1 -258.04842687990015 306.9397487859936" stroke="#aaa" stroke-width="2" fill="none"/><path d="M-258.04842687990015 306.9397487859936A401.0 401.0 0 0 1 -392.07342849229315 84.13932891519079" stroke="#aaa" stroke-width="2" fill="none"/><path d="M-392.07342849229315 84.13932891519079A401.0 401.0 0 0 1 -386.2989995012068 -107.58291213927349" stroke="#aaa" stroke-width="2" fill="none"/><path d="M-386.2989995012068 -107.58291213927349A401.0 401.0 0 0 1 -309.97528665011714 -254.39402836186568" stroke="#aaa" stroke-width="2" fill="none"/><path d="M-309.97528665011714 -254.39402836186568A401.0 401.0 0 0 1 -228.20253251651997 -329.7341416248045" stroke="#aaa" stroke-width="2" fill="none"/><path d="M-228.20253251651997 -329.7341416248045A401.0 401.0 0 0 1 -136.13940259049735 -377.1830630639484" stroke="#aaa" stroke-width="2" fill="none"/><path d="M-136.13940259049735 -377.1830630639484A401.0 401.0 0 0 1 -69.83977509008126 -394.87137882526616" stroke="#aaa" stroke-width="2" fill="none"/><path d="M-69.83977509008126 -394.87137882526616A401.0 401.0 0 0 1 -28.256717889274004 -400.00319735487864" stroke="#aaa" stroke-width="2" fill="none"/><path d="M-28.256717889274004 -400.00319735487864A401.0 401.0 0 0 1 -8.044644112942027 -400.91929823980297" stroke="#aaa" stroke-width="2" fill="none"/><path d="M-8.044644112942027 -400.91929823980297A401.0 401.0 0 0 1 -3.456450411264949 -400.9851031529157" stroke="#aaa" stroke-width="2" fill="none"/><path d="M-3.456450411264949 -400.9851031529157A401.0 401.0 0 0 1 -0.02048374848677724 -400.999999476828" stroke="#aaa" stroke-width="2" fill="none"/><path d="M-0.02048374848677724 -400.999999476828A401.0 401.0 0 0 1 -7.366250496871329e-14 -401.0" stroke="#aaa" stroke-width="2" fill="none"/><g><circle fill="#279ee3" r="146.2972529841702"/><path d="M0.5000000000000009 -199.99937499902342L0.5000000000000173 -332.8205483110338A332.8209238885938 332.8209238885938 0 0 1 14.871738399392065 332.48849419947936L9.136115656938726 199.79121950351833A200 200 0 0 0 0.5000000000000009 -199.99937499902342" fill="#b80058"/><path d="M8.137048479718127 199.8344025488072L12.646123342630453 304.15471310197336A304.4174993947305 304.4174993947305 0 0 1 -195.5134189504749 233.33348869812244L-128.31933720964642 153.40843424687264A200 200 0 0 0 8.137048479718127 199.8344025488072" fill="#008cf9"/><path d="M-129.0847729921552 152.76492196038907L-215.051881385657 255.01984741451906A333.59021907549277 333.59021907549277 0 0 1 -326.0589634054075 70.48394601486484L-195.4423216651505 42.453491047684736A200 200 0 0 0 -129.0847729921552 152.76492196038907" fill="#006e00"/><path d="M-195.65214542803128 41.47575182451186L-307.24576689566646 65.42384863283004A314.1341134694506 314.1341134694506 0 0 1 -302.75145008135854 -83.79618558665024L-192.8013713692246 -53.17547553286517A200 200 0 0 0 -195.65214542803128 41.47575182451186" fill="#00bbad"/><path d="M-192.53308480528625 -54.13881468374107L-270.2201117229351 -75.77437833271365A280.6433059797877 280.6433059797877 0 0 1 -217.25573108971227 -177.65306780334356L-154.91785688116585 -126.49291529309703A200 200 0 0 0 -192.53308480528625 -54.13881468374107" fill="#d163e6"/><path d="M-154.28345780794416 -127.26592099546646L-286.65238367902936 -235.89995000529422A371.23897354853483 371.23897354853483 0 0 1 -211.6769679931044 -304.9774363827855L-114.22750859678486 -164.1708752482347A200 200 0 0 0 -154.28345780794416 -127.26592099546646" fill="#b24502"/><path d="M-113.40522894186012 -164.73995887047045L-187.80988311454556 -272.24864646465767A330.7444295786966 330.7444295786966 0 0 1 -112.75782826083109 -310.93013662756834L-68.37004230017928 -187.95089070252286A200 200 0 0 0 -113.40522894186012 -164.73995887047045" fill="#ff9287"/><path d="M-67.42943615787512 -188.2903904596064L-95.36590685778143 -265.6901982249038A282.28697742474003 282.28697742474003 0 0 1 -49.65651814891696 -277.88517022130196L-35.32505500623756 -196.85563362222146A200 200 0 0 0 -67.42943615787512 -188.2903904596064" fill="#5954d6"/><path d="M-34.34033835081289 -197.02979764987754L-49.28632543679339 -281.5338287830457A285.81539256013275 285.81539256013275 0 0 1 -20.638888171348622 -285.0692458322247L-14.591839192159547 -199.4669853108282A200 200 0 0 0 -34.34033835081289 -197.02979764987754" fill="#00c6f8"/><path d="M-13.594324984291953 -199.5374509414748L-24.97682404995436 -360.6685503846306A361.5323567485671 361.5323567485671 0 0 1 -7.752758137242031 -361.4492214923676L-4.512178164084522 -199.94909414202294A200 200 0 0 0 -13.594324984291953 -199.5374509414748" fill="#878500"/><path d="M-3.512379415356768 -199.96915559866372L-5.149618227803068 -281.5638944735563A281.6109820994346 281.6109820994346 0 0 1 -2.927345167677249 -281.595766817041L-2.2238914552233875 -199.9876353847792A200 200 0 0 0 -3.512379415356768 -199.96915559866372" fill="#00a76c"/><path d="M-1.2239286044679207 -199.99625496186465L-1.9771864842624711 -287.38220085760827A287.38900228811167 287.38900228811167 0 0 1 -0.5146802864580897 -287.3885414214683L-0.5102163008314711 -199.99934919725706A200 200 0 0 0 -1.2239286044679207 -199.99625496186465" fill="#bdbdbd"/><path d="M0.4897836978639268 -199.9994002789241L0.48381638723659864 -316.81842683399486A316.8187962540479 316.8187962540479 0 0 1 -0.5000000000000603 -316.8184017065043L-0.5000000000000698 -199.99937499902342A200 200 0 0 0 0.4897836978639268 -199.9994002789241" fill="#ebac23"/></g><g><defs><path d="M99.9766767106364 -2.159655967253974L499.88338355318194 -10.79827983626987" stroke="#aaa" stroke-width="2" fill="none" id="textpath-6339104733357941047"/></defs><text text-anchor="middle" dominant-baseline="middle" class="label"><textPath href="#textpath-6339104733357941047" startOffset="50%"><tspan>Brazil | 59.0%</tspan></textPath></text><defs><path d="M-161.04712556197686 473.35380356370314L-32.20942511239537 94.67076071274063" stroke="#aaa" stroke-width="2" fill="none" id="textpath--8542838484464530501"/></defs><text text-anchor="middle" dominant-baseline="middle" class="label"><textPath href="#textpath--8542838484464530501" startOffset="50%"><tspan>Colombia | 43.9%</tspan></textPath></text><defs><path d="M-428.45370038065414 257.7351870236671L-85.69074007613082 51.54703740473342" stroke="#aaa" stroke-width="2" fill="none" id="textpath--4919394361067779836"/></defs><text text-anchor="middle" dominant-baseline="middle" class="label"><textPath href="#textpath--4919394361067779836" startOffset="50%"><tspan>Argentina | 59.4%</tspan></textPath></text><defs><path d="M-499.77336981440556 -15.052535479227075L-99.95467396288112 -3.010507095845415" stroke="#aaa" stroke-width="2" fill="none" id="textpath-8886599259238151242"/></defs><text text-anchor="middle" dominant-baseline="middle" class="label"><textPath href="#textpath-8886599259238151242" startOffset="50%"><tspan>Peru | 48.9%</tspan></textPath></text><defs><path d="M-443.6307458661974 -230.63339160278022L-88.72614917323948 -46.12667832055604" stroke="#aaa" stroke-width="2" fill="none" id="textpath-5808961049398558248"/></defs><text text-anchor="middle" dominant-baseline="middle" class="label"><textPath href="#textpath-5808961049398558248" startOffset="50%"><tspan>Venezuela | 32.3%</tspan></textPath></text><defs><path d="M-338.7940809142047 -367.7207782237758L-67.75881618284095 -73.54415564475516" stroke="#aaa" stroke-width="2" fill="none" id="textpath-4669245909673096649"/></defs><text text-anchor="middle" dominant-baseline="middle" class="label"><textPath href="#textpath-4669245909673096649" startOffset="50%"><tspan>Chile | 81.5%</tspan></textPath></text><defs><path d="M-229.06398052601065 -444.4431266490454L-45.81279610520213 -88.88862532980907" stroke="#aaa" stroke-width="2" fill="none" id="textpath--5270010907457448793"/></defs><text text-anchor="middle" dominant-baseline="middle" class="label"><textPath href="#textpath--5270010907457448793" startOffset="50%"><tspan>Ecuador | 57.8%</tspan></textPath></text><defs><path d="M-128.88857133216874 -483.10220055382945L-25.777714266433748 -96.6204401107659" stroke="#aaa" stroke-width="2" fill="none" id="textpath-483756863960811019"/></defs><text text-anchor="middle" dominant-baseline="middle" class="label"><textPath href="#textpath-483756863960811019" startOffset="50%"><tspan>Bolivia | 33.1%</tspan></textPath></text><defs><path d="M-61.24104376855426 -496.23536205931356L-12.248208753710852 -99.24707241186272" stroke="#aaa" stroke-width="2" fill="none" id="textpath-8879401367463902397"/></defs><text text-anchor="middle" dominant-baseline="middle" class="label"><textPath href="#textpath-8879401367463902397" startOffset="50%"><tspan>Paraguay | 34.7%</tspan></textPath></text><defs><path d="M-22.638977256697295 -499.4872137590418L-4.527795451339459 -99.89744275180837" stroke="#aaa" stroke-width="2" fill="none" id="textpath-1394560195536306037"/></defs><text text-anchor="middle" dominant-baseline="middle" class="label"><textPath href="#textpath-1394560195536306037" startOffset="50%"><tspan>Uruguay | 75.6%</tspan></textPath></text></g><text y="654" class="legend">
            <tspan x="-654">* Showing percentage of population fully vaccinated, having received all shots according to each countries chosen vaccine(s).</tspan>
            <tspan x="-654" dy="1.2em">Countries where no data was available are not counted towards a region's percentage.</tspan>
            </text><text y="-654" class="title" text-anchor="middle">
                <tspan x="0">Covid Vaccinations* by Country</tspan>
            </text><text xmlns:xlink="http://www.w3.org/1999/xlink" y="654" class="sources" text-anchor="end">
    <tspan x="654">Data source:
        <a xlink:href="https://github.com/owid/covid-19-data/tree/master/public/data/vaccinations">
            <tspan>https://github.com/owid/covid-19-data/tree/master/public/data/vaccinations</tspan>
        </a>
    </tspan>
    <tspan x="654" dy="1.2em">Code source:
        <a xlink:href="https://github.com/WorldSEnder/vis_covid_vacc">
            <tspan>https://github.com/WorldSEnder/vis_covid_vacc</tspan>
        </a>
    </tspan>
    <tspan x="654" dy="1.2em">Timestamp: Sat Nov 13 22:00:15 2021 +0000</tspan>
</text><text text-anchor="middle" dominant-baseline="middle" class="label_all" x="0" y="0">
    <tspan>South America | 54.6%</tspan>
</text></svg>