<svg xmlns="http://www.w3.org/2000/svg" viewBox="-664 -684 1328 1388"><style>
text {
    font-family: "Open Sans";
}
.legend, .sources {
    font-size: 10pt;
}
.title {
    font-size: 20pt;
    font-weight: bold;
}
.label_all {
    font-size: 18pt;
}
.label {
}
.small-label-9 {
   font-size: 9pt;
}
.small-label-8 {
   font-size: 8pt;
}
.small-label-7 {
   font-size: 7pt;
}
.small-label-6 {
   font-size: 6pt;
}
.small-label-5 {
   font-size: 5pt;
}
.small-label-4 {
   font-size: 4pt;
}
a {
    text-decoration: underline;
}
</style><style type="text/css">
@font-face{
  font-family:'Open Sans';src:local('Open Sans')
             , local('OpenSans')
             , url(https://fonts.gstatic.com/s/opensans/v18/mem5YaGs126MiZpBA-UN_r8OUuhp.woff2) format('woff2');
  }
</style><defs><pattern id="diagonalHatch" width="10" height="10" patternTransform="rotate(45 0 0)" patternUnits="userSpaceOnUse">
  <line x1="0" y1="0" x2="0" y2="10" style="stroke:#444; stroke-width:1"/>
</pattern></defs><circle cx="0" cy="0" r="199.0" stroke="#aaa" stroke-width="2" fill="none"/><path d="M2.4554168322904432e-14 -401.0A401.0 401.0 0 0 1 272.68732082420496 -294.0112668958744" stroke="#aaa" stroke-width="2" fill="none"/><path d="M272.68732082420496 -294.0112668958744A401.0 401.0 0 0 1 386.0142793837844 -108.60007417961393" stroke="#aaa" stroke-width="2" fill="none"/><path d="M386.0142793837844 -108.60007417961393A401.0 401.0 0 0 1 397.49949619003894 52.86918316623818" stroke="#aaa" stroke-width="2" fill="none"/><path d="M397.49949619003894 52.86918316623818A401.0 401.0 0 0 1 351.83441248966176 192.3890490336042" stroke="#aaa" stroke-width="2" fill="none"/><path d="M351.83441248966176 192.3890490336042A401.0 401.0 0 0 1 295.40021441875365 271.1820667399568" stroke="#aaa" stroke-width="2" fill="none"/><path d="M295.40021441875365 271.1820667399568A401.0 401.0 0 0 1 222.53273434952783 333.5868434799587" stroke="#aaa" stroke-width="2" fill="none"/><path d="M222.53273434952783 333.5868434799587A401.0 401.0 0 0 1 143.91341906673063 374.28589048015635" stroke="#aaa" stroke-width="2" fill="none"/><path d="M143.91341906673063 374.28589048015635A401.0 401.0 0 0 1 66.31397937437761 395.4787682537896" stroke="#aaa" stroke-width="2" fill="none"/><path d="M66.31397937437761 395.4787682537896A401.0 401.0 0 0 1 -12.972993725401365 400.7900964766977" stroke="#aaa" stroke-width="2" fill="none"/><path d="M-12.972993725401365 400.7900964766977A401.0 401.0 0 0 1 -88.04348465768251 391.2152154624516" stroke="#aaa" stroke-width="2" fill="none"/><path d="M-88.04348465768251 391.2152154624516A401.0 401.0 0 0 1 -152.2563292152318 370.97036298591695" stroke="#aaa" stroke-width="2" fill="none"/><path d="M-152.2563292152318 370.97036298591695A401.0 401.0 0 0 1 -209.93989737067233 341.65222008936456" stroke="#aaa" stroke-width="2" fill="none"/><path d="M-209.93989737067233 341.65222008936456A401.0 401.0 0 0 1 -256.8306247281737 307.95946194545803" stroke="#aaa" stroke-width="2" fill="none"/><path d="M-256.8306247281737 307.95946194545803A401.0 401.0 0 0 1 -296.6860259478418 269.7747245523134" stroke="#aaa" stroke-width="2" fill="none"/><path d="M-296.6860259478418 269.7747245523134A401.0 401.0 0 0 1 -329.2562065213837 228.89156923562723" stroke="#aaa" stroke-width="2" fill="none"/><path d="M-329.2562065213837 228.89156923562723A401.0 401.0 0 0 1 -356.01090415702936 184.5460271078585" stroke="#aaa" stroke-width="2" fill="none"/><path d="M-356.01090415702936 184.5460271078585A401.0 401.0 0 0 1 -376.5746986621811 137.81326615201993" stroke="#aaa" stroke-width="2" fill="none"/><path d="M-376.5746986621811 137.81326615201993A401.0 401.0 0 0 1 -390.008793697804 93.24237683791519" stroke="#aaa" stroke-width="2" fill="none"/><path d="M-390.008793697804 93.24237683791519A401.0 401.0 0 0 1 -398.103994288051 48.10623381537419" stroke="#aaa" stroke-width="2" fill="none"/><path d="M-398.103994288051 48.10623381537419A401.0 401.0 0 0 1 -400.9796968187293 4.035187623882098" stroke="#aaa" stroke-width="2" fill="none"/><path d="M-400.9796968187293 4.035187623882098A401.0 401.0 0 0 1 -399.0395219712646 -39.603786497563846" stroke="#aaa" stroke-width="2" fill="none"/><path d="M-399.0395219712646 -39.603786497563846A401.0 401.0 0 0 1 -392.5497772695832 -81.88816987575582" stroke="#aaa" stroke-width="2" fill="none"/><path d="M-392.5497772695832 -81.88816987575582A401.0 401.0 0 0 1 -382.7209244640179 -119.68999113295774" stroke="#aaa" stroke-width="2" fill="none"/><path d="M-382.7209244640179 -119.68999113295774A401.0 401.0 0 0 1 -369.9836033357413 -154.6387185109242" stroke="#aaa" stroke-width="2" fill="none"/><path d="M-369.9836033357413 -154.6387185109242A401.0 401.0 0 0 1 -354.9649145767662 -186.55001854598964" stroke="#aaa" stroke-width="2" fill="none"/><path d="M-354.9649145767662 -186.55001854598964A401.0 401.0 0 0 1 -337.9422723283907 -215.8611140838568" stroke="#aaa" stroke-width="2" fill="none"/><path d="M-337.9422723283907 -215.8611140838568A401.0 401.0 0 0 1 -319.6538990054164 -242.1205998064498" stroke="#aaa" stroke-width="2" fill="none"/><path d="M-319.6538990054164 -242.1205998064498A401.0 401.0 0 0 1 -300.6431093860857 -265.35772228949" stroke="#aaa" stroke-width="2" fill="none"/><path d="M-300.6431093860857 -265.35772228949A401.0 401.0 0 0 1 -282.06761747236465 -285.0243133023282" stroke="#aaa" stroke-width="2" fill="none"/><path d="M-282.06761747236465 -285.0243133023282A401.0 401.0 0 0 1 -264.26554505445273 -301.6035836940155" stroke="#aaa" stroke-width="2" fill="none"/><path d="M-264.26554505445273 -301.6035836940155A401.0 401.0 0 0 1 -245.56449911175474 -317.0158935700117" stroke="#aaa" stroke-width="2" fill="none"/><path d="M-245.56449911175474 -317.0158935700117A401.0 401.0 0 0 1 -226.20870707157903 -331.10515073765396" stroke="#aaa" stroke-width="2" fill="none"/><path d="M-226.20870707157903 -331.10515073765396A401.0 401.0 0 0 1 -206.5341543235442 -343.721752436267" stroke="#aaa" stroke-width="2" fill="none"/><path d="M-206.5341543235442 -343.721752436267A401.0 401.0 0 0 1 -186.5769583834555 -354.95075517651503" stroke="#aaa" stroke-width="2" fill="none"/><path d="M-186.5769583834555 -354.95075517651503A401.0 401.0 0 0 1 -166.29903581177103 -364.89125871699815" stroke="#aaa" stroke-width="2" fill="none"/><path d="M-166.29903581177103 -364.89125871699815A401.0 401.0 0 0 1 -145.9379315261304 -373.5011648467438" stroke="#aaa" stroke-width="2" fill="none"/><path d="M-145.9379315261304 -373.5011648467438A401.0 401.0 0 0 1 -131.00509977922368 -378.99691797142054" stroke="#aaa" stroke-width="2" fill="none"/><path d="M-131.00509977922368 -378.99691797142054A401.0 401.0 0 0 1 -117.04549728088834 -383.53794019141" stroke="#aaa" stroke-width="2" fill="none"/><path d="M-117.04549728088834 -383.53794019141A401.0 401.0 0 0 1 -103.97212957255573 -387.2864524769072" stroke="#aaa" stroke-width="2" fill="none"/><path d="M-103.97212957255573 -387.2864524769072A401.0 401.0 0 0 1 -90.81673220909722 -390.58074856661983" stroke="#aaa" stroke-width="2" fill="none"/><path d="M-90.81673220909722 -390.58074856661983A401.0 401.0 0 0 1 -80.31936155004958 -392.87377128053794" stroke="#aaa" stroke-width="2" fill="none"/><path d="M-80.31936155004958 -392.87377128053794A401.0 401.0 0 0 1 -70.18399580003062 -394.8103427388159" stroke="#aaa" stroke-width="2" fill="none"/><path d="M-70.18399580003062 -394.8103427388159A401.0 401.0 0 0 1 -60.11845391927265 -396.46786944007994" stroke="#aaa" stroke-width="2" fill="none"/><path d="M-60.11845391927265 -396.46786944007994A401.0 401.0 0 0 1 -52.08729575532198 -397.60270826655295" stroke="#aaa" stroke-width="2" fill="none"/><path d="M-52.08729575532198 -397.60270826655295A401.0 401.0 0 0 1 -44.10586127692017 -398.56702447771704" stroke="#aaa" stroke-width="2" fill="none"/><path d="M-44.10586127692017 -398.56702447771704A401.0 401.0 0 0 1 -36.75361776948736 -399.3121230076222" stroke="#aaa" stroke-width="2" fill="none"/><path d="M-36.75361776948736 -399.3121230076222A401.0 401.0 0 0 1 -30.063259558395483 -399.87147988413045" stroke="#aaa" stroke-width="2" fill="none"/><path d="M-30.063259558395483 -399.87147988413045A401.0 401.0 0 0 1 -24.29323273933567 -400.26346178869795" stroke="#aaa" stroke-width="2" fill="none"/><path d="M-24.29323273933567 -400.26346178869795A401.0 401.0 0 0 1 -18.74949972655926 -400.56142632560585" stroke="#aaa" stroke-width="2" fill="none"/><path d="M-18.74949972655926 -400.56142632560585A401.0 401.0 0 0 1 -13.397833975619609 -400.7761196039027" stroke="#aaa" stroke-width="2" fill="none"/><path d="M-13.397833975619609 -400.7761196039027A401.0 401.0 0 0 1 -8.66412940329148 -400.9063891504886" stroke="#aaa" stroke-width="2" fill="none"/><path d="M-8.66412940329148 -400.9063891504886A401.0 401.0 0 0 1 -4.272454259732278 -400.9772389233564" stroke="#aaa" stroke-width="2" fill="none"/><path d="M-4.272454259732278 -400.9772389233564A401.0 401.0 0 0 1 -3.0144743023444436 -400.9886693470035" stroke="#aaa" stroke-width="2" fill="none"/><path d="M-3.0144743023444436 -400.9886693470035A401.0 401.0 0 0 1 -2.2200628035844563 -400.9938544680556" stroke="#aaa" stroke-width="2" fill="none"/><path d="M-2.2200628035844563 -400.9938544680556A401.0 401.0 0 0 1 -1.4335124536200732 -400.9974377000997" stroke="#aaa" stroke-width="2" fill="none"/><path d="M-1.4335124536200732 -400.9974377000997A401.0 401.0 0 0 1 -0.990211530569488 -400.99877740602244" stroke="#aaa" stroke-width="2" fill="none"/><path d="M-0.990211530569488 -400.99877740602244A401.0 401.0 0 0 1 -0.5585283212745696 -400.9996110298791" stroke="#aaa" stroke-width="2" fill="none"/><path d="M-0.5585283212745696 -400.9996110298791A401.0 401.0 0 0 1 -0.13589827832255022 -400.99997697214144" stroke="#aaa" stroke-width="2" fill="none"/><path d="M-0.13589827832255022 -400.99997697214144A401.0 401.0 0 0 1 6.386565876307872e-13 -401.0" stroke="#aaa" stroke-width="2" fill="none"/><g><circle fill="#279ee3" r="145.6562726424333"/><path d="M0.5000000000000009 -199.99937499902342L0.5000000000000198 -330.57390232343516A330.5742804534921 330.5742804534921 0 0 1 224.42969108611481 -242.71520071131752L135.63662868217267 -146.97858673879816A200 200 0 0 0 0.5000000000000009 -199.99937499902342" fill="#5954d6"/><path d="M136.36982386146417 -146.29856848237867L215.46893899877804 -231.58317570787153A316.31887541561923 316.31887541561923 0 0 1 304.3619704994313 -86.14767470979895L192.38981192111095 -54.64577082409542A200 200 0 0 0 136.36982386146417 -146.29856848237867" fill="#00c6f8"/><path d="M192.66063504874091 -53.683141698450065L315.02557398724076 -88.10891855551014A327.1151078672644 327.1151078672644 0 0 1 324.3251203715777 42.63226584376701L198.31941494268727 25.872952224093538A200 200 0 0 0 192.66063504874091 -53.683141698450065" fill="#878500"/><path d="M198.18757159314552 26.86422278815847L335.9373316788085 45.18554738574367A338.9625709544154 338.9625709544154 0 0 1 297.6427974698252 162.18628062312706L175.7178481935106 95.51564178836031A200 200 0 0 0 198.18757159314552 26.86422278815847" fill="#00a76c"/><path d="M175.2380750039006 96.39303433820984L288.3163926270388 158.22618431319884A328.8797160966045 328.8797160966045 0 0 1 242.61001848141788 222.041092125375L147.6694496052325 134.8841490067966A200 200 0 0 0 175.2380750039006 96.39303433820984" fill="#bdbdbd"/><path d="M146.99318509964655 135.62080789562143L236.24324247983031 217.5537715010853A321.1549674405338 321.1549674405338 0 0 1 178.63890239882335 266.88697169677283L111.40449179169394 166.09948587709232A200 200 0 0 0 146.99318509964655 135.62080789562143" fill="#ebac23"/><path d="M110.57260440146959 166.65443035177944L174.57132598963187 262.59146893512366A315.3243210018604 315.3243210018604 0 0 1 113.632137271111 294.13800297561636L72.24373269964774 186.4962280734435A200 200 0 0 0 110.57260440146959 166.65443035177944" fill="#b80058"/><path d="M71.31035142662991 186.85511440528072L108.90293762902989 284.62483382034844A304.74767571138807 304.74767571138807 0 0 1 50.889634077955165 300.46861898525304L33.56731624114849 197.16296630038494A200 200 0 0 0 71.31035142662991 186.85511440528072" fill="#008cf9"/><path d="M32.58108489886974 197.3283378200218L51.331154465346586 309.14871848154246A313.3812654858699 313.3812654858699 0 0 1 -9.638635830324287 313.23300314120104L-5.97056256535706 199.91086109227072A200 200 0 0 0 32.58108489886974 197.3283378200218" fill="#006e00"/><path d="M-6.970039115174238 199.87850948697044L-10.829563261280832 319.11537089417493A319.299075133889 319.299075133889 0 0 1 -69.61735947014213 311.6172694857618L-43.42402567716057 195.2289783664026A200 200 0 0 0 -6.970039115174238 199.87850948697044" fill="#00bbad"/><path d="M-44.39962471821404 195.00941855428871L-75.27984139840895 332.2235539220611A340.64577540544116 340.64577540544116 0 0 1 -128.87764158082564 315.32538401171973L-75.47552494064578 185.211892531052A200 200 0 0 0 -44.39962471821404 195.00941855428871" fill="#d163e6"/><path d="M-76.4006380652989 184.83220093699907L-127.05376150706661 308.2478099065287A333.40571474596237 333.40571474596237 0 0 1 -174.1253284690873 284.3233029682908L-104.28185075174285 170.66134771468091A200 200 0 0 0 -76.4006380652989 184.83220093699907" fill="#b24502"/><path d="M-105.1338513005942 170.1378068234822L-177.68768255818452 288.2105401895398A338.58267529400337 338.58267529400337 0 0 1 -216.4696395725371 260.344239714614L-127.7106850256128 153.91549931793327A200 200 0 0 0 -105.1338513005942 170.1378068234822" fill="#ff9287"/><path d="M-128.47866373370627 153.27502394454626L-203.1608140755721 242.82460495947677A316.60401947791996 316.60401947791996 0 0 1 -233.90769037304133 213.36658017113305L-147.6362403946041 134.92049704231997A200 200 0 0 0 -128.47866373370627 153.27502394454626" fill="#5954d6"/><path d="M-148.30899531867473 134.18063164095372L-257.2847331686317 233.27157995048296A347.29103635747435 347.29103635747435 0 0 1 -284.87073540278055 198.64472820925195L-163.9316452224646 114.57057080531632A200 200 0 0 0 -148.30899531867473 134.18063164095372" fill="#00c6f8"/><path d="M-164.50244714075797 113.74948300850482L-250.58103525921373 173.58939709905653A304.8346010819527 304.8346010819527 0 0 1 -270.40404725837004 140.73302825949006L-177.330886061569 92.48652252419717A200 200 0 0 0 -164.50244714075797 113.74948300850482" fill="#878500"/><path d="M-177.7911005930101 91.59871478315713L-276.7889413387221 142.91640755196983A311.5079735656397 311.5079735656397 0 0 1 -292.3615050713208 107.52659181524982L-187.6453808972713 69.20412580126974A200 200 0 0 0 -177.7911005930101 91.59871478315713" fill="#00a76c"/><path d="M-187.9890548777003 68.26503677717446L-291.5450947341023 106.1629522055877A310.27264572392227 310.27264572392227 0 0 1 -301.6515759707534 72.63223388333428L-194.40123140963817 46.99107602956452A200 200 0 0 0 -187.9890548777003 68.26503677717446" fill="#bdbdbd"/><path d="M-194.63375604015667 46.01848552158988L-331.11237692797 78.64747031571437A340.3245961460195 340.3245961460195 0 0 1 -337.8064382569738 41.3236132748405L-198.49500480129007 24.48944811415402A200 200 0 0 0 -194.63375604015667 46.01848552158988" fill="#ebac23"/><path d="M-198.61497047165258 23.496670073535377L-324.23606600284666 38.676517250337504A326.53468343135927 326.53468343135927 0 0 1 -326.5127363368526 3.7858279727129913L-199.98421734970532 2.512530800971551A200 200 0 0 0 -198.61497047165258 23.496670073535377" fill="#b80058"/><path d="M-199.99428016173493 1.5125814323462248L-331.901527143311 2.840006473422639A331.913677568176 331.913677568176 0 0 1 -330.33996719659655 -32.283051735897736L-199.0709648065107 -19.25489472848351A200 200 0 0 0 -199.99428016173493 1.5125814323462248" fill="#008cf9"/><path d="M-198.9722022466664 -20.250005755843336L-328.3694516240953 -33.0923954329358A330.0327307940818 330.0327307940818 0 0 1 -323.17972661194705 -66.90641002494475L-195.88691819167175 -40.352388793840944A200 200 0 0 0 -198.9722022466664 -20.250005755843336" fill="#006e00"/><path d="M-195.6827082917322 -41.33131591920156L-301.5062975463179 -63.40673298864125A308.10138144510427 308.10138144510427 0 0 1 -294.2058235831299 -91.48439548990784L-191.03189697610603 -59.21836149126729A200 200 0 0 0 -195.6827082917322 -41.33131591920156" fill="#00bbad"/><path d="M-190.73341819522582 -60.172777761751185L-285.0060802822212 -89.6550803170002A298.77499765623577 298.77499765623577 0 0 1 -275.85789223622436 -114.75592584032995L-184.72271517778137 -76.66497568869545A200 200 0 0 0 -190.73341819522582 -60.172777761751185" fill="#d163e6"/><path d="M-184.33708246329024 -77.58762806609137L-281.17853646323476 -118.06357946033894A304.9596336609067 304.9596336609067 0 0 1 -270.18229382618597 -141.42809574273042L-177.2719104020149 -92.59951286275752A200 200 0 0 0 -184.33708246329024 -77.58762806609137" fill="#b24502"/><path d="M-176.8066983856907 -93.48471215097895L-281.0412011143246 -148.26462875299967A317.75235146737634 317.75235146737634 0 0 1 -268.05423767346446 -170.62673450648023L-168.81838854980012 -107.2396926862844A200 200 0 0 0 -176.8066983856907 -93.48471215097895" fill="#ff9287"/><path d="M-168.2800815321346 -108.08244149508343L-281.3751123784708 -180.32205563875425A334.1975428033292 334.1975428033292 0 0 1 -266.7044596875641 -201.3870124872693L-159.72977635158975 -120.35945557649855A200 200 0 0 0 -168.2800815321346 -108.08244149508343" fill="#5954d6"/><path d="M-159.12598433212224 -121.15659746928019L-246.11726508245624 -187.0478039858797A309.12875820215777 309.12875820215777 0 0 1 -232.09473406208838 -204.18771649699352L-150.27708936689507 -131.9727108587765A200 200 0 0 0 -159.12598433212224 -121.15659746928019" fill="#00c6f8"/><path d="M-149.6153494110609 -132.7224442986421L-260.7544314396246 -230.81753693078795A348.2378624879804 348.2378624879804 0 0 1 -245.30931444904155 -247.16987906041223L-141.03705575707664 -141.80461524003815A200 200 0 0 0 -149.6153494110609 -132.7224442986421" fill="#878500"/><path d="M-140.32627193338 -142.50802575742563L-221.46529198764892 -224.49756316066072A315.3506483586952 315.3506483586952 0 0 1 -208.1970274635718 -236.85444723623445L-132.17891679928636 -150.09574928613847A200 200 0 0 0 -140.32627193338 -142.50802575742563" fill="#00a76c"/><path d="M-131.42678816164536 -150.75476560797006L-230.03000946205958 -263.2896210385226A349.6215522528954 349.6215522528954 0 0 1 -214.49641273779832 -276.0915042559987L-122.87095833188081 -157.8059808708314A200 200 0 0 0 -131.42678816164536 -150.75476560797006" fill="#bdbdbd"/><path d="M-122.08039500626977 -158.41836116786826L-196.91120250669928 -255.02253397021718A322.1963912045337 322.1963912045337 0 0 1 -182.16731643992316 -265.7547428105505L-113.234794536214 -164.8571542467642A200 200 0 0 0 -122.08039500626977 -158.41836116786826" fill="#ebac23"/><path d="M-112.40909590594548 -165.42126573572077L-177.6736010897198 -260.94992202150263A315.6941087939672 315.6941087939672 0 0 1 -163.02592240163364 -270.34296542043353L-103.4378121119173 -171.17423586947803A200 200 0 0 0 -112.40909590594548 -165.42126573572077" fill="#b80058"/><path d="M-102.58065063452007 -171.68928363587094L-156.90684775863247 -262.10094334347457A305.4777624886793 305.4777624886793 0 0 1 -142.57483992539542 -270.1649096299107L-93.49813078179096 -176.7996027719268A200 200 0 0 0 -102.58065063452007 -171.68928363587094" fill="#008cf9"/><path d="M-92.6129668037946 -177.26488196989058L-139.55612409289333 -266.57124259717915A300.8922384370112 300.8922384370112 0 0 1 -125.23806902452957 -273.59014093830643L-83.39687993679036 -181.7827285987549A200 200 0 0 0 -92.6129668037946 -177.26488196989058" fill="#006e00"/><path d="M-82.48692667315689 -182.19743941125307L-130.76162030708412 -288.12116673940824A316.40544886049594 316.40544886049594 0 0 1 -115.61658268839784 -294.52540446635294L-73.25248298329113 -186.10232061095488A200 200 0 0 0 -82.48692667315689 -182.19743941125307" fill="#00bbad"/><path d="M-72.3210586320523 -186.46625560229188L-122.62099403981594 -315.1996443111202A338.2110642086821 338.2110642086821 0 0 1 -110.96464901161701 -319.48954696969025L-65.8115624351999 -188.86195553853028A200 200 0 0 0 -72.3210586320523 -186.46625560229188" fill="#d163e6"/><path d="M-64.86643296394942 -189.18865154795478L-105.08350188001201 -305.53637537488027A323.10218050113224 323.10218050113224 0 0 1 -94.78648148988218 -308.8859692044209L-58.85485105417278 -191.14420343654456A200 200 0 0 0 -64.86643296394942 -189.18865154795478" fill="#b24502"/><path d="M-57.89839733798466 -191.43608746966402L-86.18510828919045 -284.1267684873162A296.9105815929511 296.9105815929511 0 0 1 -77.46639629566131 -286.62667514875164L-52.33916248894537 -193.03008073861383A200 200 0 0 0 -57.89839733798466 -191.43608746966402" fill="#ff9287"/><path d="M-51.37336086182085 -193.28936285724865L-76.7819711115486 -287.93405818512923A297.99579351180796 297.99579351180796 0 0 1 -67.97570189090081 -290.13927156310893L-45.78199515101358 -194.6895192864592A200 200 0 0 0 -51.37336086182085 -193.28936285724865" fill="#5954d6"/><path d="M-44.807978321670326 -194.91599492787842L-74.03934618903935 -320.6330215764055A329.0704473350898 329.0704473350898 0 0 1 -66.40183194669451 -322.30134350237984L-40.54927430416656 -195.84625692978014A200 200 0 0 0 -44.807978321670326 -194.91599492787842" fill="#00c6f8"/><path d="M-39.56953921369134 -196.04655458950597L-66.88063492726478 -329.63592785798335A336.3522918950719 336.3522918950719 0 0 1 -59.36141379122049 -331.0726307259106L-35.49665951698162 -196.82476257609324A200 200 0 0 0 -39.56953921369134 -196.04655458950597" fill="#878500"/><path d="M-34.51209507124885 -196.9997850095098L-60.377194618130794 -342.5003182959538A347.78135899266556 347.78135899266556 0 0 1 -52.634139479908804 -343.7753932788018L-30.47852155731216 -197.66400715274509A200 200 0 0 0 -34.51209507124885 -196.9997850095098" fill="#00a76c"/><path d="M-29.48982362853384 -197.81392848421459L-46.26660188786136 -308.45306004730935A311.9036529167283 311.9036529167283 0 0 1 -41.009970812980065 -309.19584569770245L-26.474383916675738 -198.2400236991321A200 200 0 0 0 -29.48982362853384 -197.81392848421459" fill="#bdbdbd"/><path d="M-25.482855965886266 -198.36991720475638L-44.54263600164425 -343.8606755804757A346.73363066284196 346.73363066284196 0 0 1 -38.634047445896485 -344.5745507297141L-22.494833419991362 -198.73092982574917A200 200 0 0 0 -25.482855965886266 -198.36991720475638" fill="#ebac23"/><path d="M-21.500900690620433 -198.840919504744L-35.673375891153434 -326.911908407903A328.8525286604448 328.8525286604448 0 0 1 -30.638808558624863 -327.4221266446063L-18.828819561980797 -199.11171626477025A200 200 0 0 0 -21.500900690620433 -198.840919504744" fill="#b80058"/><path d="M-17.833028731537784 -199.20337117192608L-28.613398993091863 -316.3274203729586A317.61889660684284 317.61889660684284 0 0 1 -24.310681390970323 -316.6871551737693L-15.49269042906382 -199.39903847127547A200 200 0 0 0 -17.833028731537784 -199.20337117192608" fill="#008cf9"/><path d="M-14.49550469369186 -199.47400919336624L-22.22042855256848 -302.2232380133872A303.0389959070553 303.0389959070553 0 0 1 -18.857652286486825 -302.4516853823074L-12.615369315379827 -199.60173460427785A200 200 0 0 0 -14.49550469369186 -199.47400919336624" fill="#006e00"/><path d="M-11.617206069023906 -199.66231623205675L-18.533121556113755 -313.61126259103037A314.1584005220199 314.1584005220199 0 0 1 -15.188494009058669 -313.79102961730865L-9.850795361643465 -199.75725726677123A200 200 0 0 0 -11.617206069023906 -199.66231623205675" fill="#00bbad"/><path d="M-8.851889061579545 -199.80401412394468L-15.069914050205565 -332.64494293252415A332.98612638976846 332.98612638976846 0 0 1 -11.625126852686984 -332.78313778453645L-7.181911424604906 -199.87100877388178A200 200 0 0 0 -8.851889061579545 -199.80401412394468" fill="#d163e6"/><path d="M-6.1824697298320155 -199.9044198311776L-11.202125467189758 -350.05989659156216A350.2390880765279 350.2390880765279 0 0 1 -8.067249086134293 -350.1461670629283L-4.821131322055399 -199.94188328805822A200 200 0 0 0 -6.1824697298320155 -199.9044198311776" fill="#b24502"/><path d="M-3.8213647655703245 -199.9634895957971L-5.936394513724963 -297.83009566893077A297.88925235057917 297.88925235057917 0 0 1 -3.6738280094539597 -297.86659707618105L-2.63086484069841 -199.98269562687162A200 200 0 0 0 -3.8213647655703245 -199.9634895957971" fill="#ff9287"/><path d="M-1.6309216014879786 -199.99335012627245L-3.1702880103750806 -344.4655562173956A344.480144777937 344.480144777937 0 0 1 -3.0895755235034272 -344.4662895978546L-2.0034596286609 -199.98996512204388A200 200 0 0 0 -1.6309216014879786 -199.99335012627245" fill="#5954d6"/><path d="M-1.003487884653344 -199.99748251431905L-1.7828133736918654 -303.6642116002718A303.66944500614494 303.66944500614494 0 0 1 -2.1812001317411522 -303.66161133130635L-1.6072521207219752 -199.99354174727853A200 200 0 0 0 -1.003487884653344 -199.99748251431905" fill="#00c6f8"/><path d="M-0.6072674462379799 -199.99907806349694L-1.0895113693260983 -287.1033028631864A287.1053701169214 287.1053701169214 0 0 1 -1.526352165312653 -287.1013127783324L-1.2149633756294123 -199.99630962594256A200 200 0 0 0 -0.6072674462379799 -199.99907806349694" fill="#878500"/><path d="M-0.21496976540465862 -199.99988446996653L-0.5118858663105561 -283.0564323042451A283.05689515704756 283.05689515704756 0 0 1 -1.1989654683533164 -283.0543558713653L-0.993868019784909 -199.99753055065267A200 200 0 0 0 -0.21496976540465862 -199.99988446996653" fill="#00a76c"/><path d="M0.006128931352370325 -199.9999999060905L-0.3222054727838747 -332.96320077211584A332.9633566697378 332.9633566697378 0 0 1 -0.963763243093949 -332.9619618592945L-0.7785663857584052 -199.99848458021617A200 200 0 0 0 0.006128931352370325 -199.9999999060905" fill="#bdbdbd"/><path d="M0.22143264424135944 -199.9998774189226L0.06450669184741292 -312.6660457644255A312.66605241867103 312.66605241867103 0 0 1 -0.6059618762324163 -312.6654652264616L-0.5677794494115646 -199.99919406461822A200 200 0 0 0 0.22143264424135944 -199.9998774189226" fill="#ebac23"/><path d="M0.43222049316242045 -199.9995329630679L0.3729033720586951 -375.028712804651A375.02889819964315 375.02889819964315 0 0 1 -0.4999999999995145 -375.02856489184705L-0.49999999999971456 -199.99937499902342A200 200 0 0 0 0.43222049316242045 -199.9995329630679" fill="#b80058"/></g><g><defs><path d="M36.52429470287844 -93.09122352003591L182.6214735143922 -465.45611760017954" stroke="#aaa" stroke-width="2" fill="none" id="textpath-CAA"/></defs><text text-anchor="middle" dominant-baseline="middle" class="label"><textPath href="#textpath-CAA" startOffset="50%"><tspan>California | 57.7%</tspan></textPath></text><defs><path d="M85.32406366263332 -52.151741678441546L426.6203183131666 -260.7587083922077" stroke="#aaa" stroke-width="2" fill="none" id="textpath-TXA"/></defs><text text-anchor="middle" dominant-baseline="middle" class="label"><textPath href="#textpath-TXA" startOffset="50%"><tspan>Texas | 50.0%</tspan></textPath></text><defs><path d="M99.74798606097025 -7.095017743493251L498.73993030485127 -35.47508871746626" stroke="#aaa" stroke-width="2" fill="none" id="textpath-FLA"/></defs><text text-anchor="middle" dominant-baseline="middle" class="label"><textPath href="#textpath-FLA" startOffset="50%"><tspan>Florida | 55.8%</tspan></textPath></text><defs><path d="M95.03890002144414 31.106389740918956L475.1945001072206 155.53194870459478" stroke="#aaa" stroke-width="2" fill="none" id="textpath-NYA"/></defs><text text-anchor="middle" dominant-baseline="middle" class="label"><textPath href="#textpath-NYA" startOffset="50%"><tspan>New York State | 62.4%</tspan></textPath></text><defs><path d="M81.29838380836215 58.228625178242346L406.4919190418108 291.1431258912117" stroke="#aaa" stroke-width="2" fill="none" id="textpath-PAA"/></defs><text text-anchor="middle" dominant-baseline="middle" class="label"><textPath href="#textpath-PAA" startOffset="50%"><tspan>Pennsylvania | 56.8%</tspan></textPath></text><defs><path d="M65.04724688367861 75.9529833045007L325.23623441839305 379.76491652250354" stroke="#aaa" stroke-width="2" fill="none" id="textpath-ILA"/></defs><text text-anchor="middle" dominant-baseline="middle" class="label"><textPath href="#textpath-ILA" startOffset="50%"><tspan>Illinois | 52.6%</tspan></textPath></text><defs><path d="M45.97248500998774 88.80614067735661L229.86242504993874 444.03070338678305" stroke="#aaa" stroke-width="2" fill="none" id="textpath-OHA"/></defs><text text-anchor="middle" dominant-baseline="middle" class="label"><textPath href="#textpath-OHA" startOffset="50%"><tspan>Ohio | 49.5%</tspan></textPath></text><defs><path d="M26.345750352433967 96.46710029003269L131.72875176216982 482.33550145016346" stroke="#aaa" stroke-width="2" fill="none" id="textpath-GAA"/></defs><text text-anchor="middle" dominant-baseline="middle" class="label"><textPath href="#textpath-GAA" startOffset="50%"><tspan>Georgia | 44.1%</tspan></textPath></text><defs><path d="M6.683886057686051 99.77637830252142L33.41943028843025 498.8818915126071" stroke="#aaa" stroke-width="2" fill="none" id="textpath-NCA"/></defs><text text-anchor="middle" dominant-baseline="middle" class="label"><textPath href="#textpath-NCA" startOffset="50%"><tspan>North Carolina | 48.5%</tspan></textPath></text><defs><path d="M-63.26012648599194 495.98201217078054L-12.652025297198389 99.19640243415611" stroke="#aaa" stroke-width="2" fill="none" id="textpath-MIA"/></defs><text text-anchor="middle" dominant-baseline="middle" class="label"><textPath href="#textpath-MIA" startOffset="50%"><tspan>Michigan | 51.6%</tspan></textPath></text><defs><path d="M-150.34358058039737 476.8614135975625L-30.068716116079475 95.3722827195125" stroke="#aaa" stroke-width="2" fill="none" id="textpath-NJA"/></defs><text text-anchor="middle" dominant-baseline="middle" class="label"><textPath href="#textpath-NJA" startOffset="50%"><tspan>New Jersey | 63.4%</tspan></textPath></text><defs><path d="M-226.54667995170223 445.7315355714256L-45.30933599034044 89.14630711428512" stroke="#aaa" stroke-width="2" fill="none" id="textpath-VAA"/></defs><text text-anchor="middle" dominant-baseline="middle" class="label"><textPath href="#textpath-VAA" startOffset="50%"><tspan>Virginia | 59.3%</tspan></textPath></text><defs><path d="M-291.7611966515032 406.0485243520568L-58.352239330300634 81.20970487041136" stroke="#aaa" stroke-width="2" fill="none" id="textpath-WAA"/></defs><text text-anchor="middle" dominant-baseline="middle" class="label"><textPath href="#textpath-WAA" startOffset="50%"><tspan>Washington | 62.2%</tspan></textPath></text><defs><path d="M-345.90535406106426 361.0394521820154L-69.18107081221285 72.20789043640308" stroke="#aaa" stroke-width="2" fill="none" id="textpath-AZA"/></defs><text text-anchor="middle" dominant-baseline="middle" class="label"><textPath href="#textpath-AZA" startOffset="50%"><tspan>Arizona | 50.2%</tspan></textPath></text><defs><path d="M-391.0697909491316 311.55163072435124L-78.21395818982631 62.310326144870245" stroke="#aaa" stroke-width="2" fill="none" id="textpath-MAA"/></defs><text text-anchor="middle" dominant-baseline="middle" class="label"><textPath href="#textpath-MAA" startOffset="50%"><tspan>Massachusetts | 67.2%</tspan></textPath></text><defs><path d="M-428.11750208173413 258.29325274055526L-85.62350041634683 51.658650548111055" stroke="#aaa" stroke-width="2" fill="none" id="textpath-TNA"/></defs><text text-anchor="middle" dominant-baseline="middle" class="label"><textPath href="#textpath-TNA" startOffset="50%"><tspan>Tennessee | 44.1%</tspan></textPath></text><defs><path d="M-457.65253539746254 201.38062678488788L-91.53050707949251 40.27612535697757" stroke="#aaa" stroke-width="2" fill="none" id="textpath-INA"/></defs><text text-anchor="middle" dominant-baseline="middle" class="label"><textPath href="#textpath-INA" startOffset="50%"><tspan>Indiana | 47.5%</tspan></textPath></text><defs><path d="M-478.7270106308036 144.29292876816413L-95.74540212616071 28.858585753632827" stroke="#aaa" stroke-width="2" fill="none" id="textpath-MOA"/></defs><text text-anchor="middle" dominant-baseline="middle" class="label"><textPath href="#textpath-MOA" startOffset="50%"><tspan>Missouri | 46.9%</tspan></textPath></text><defs><path d="M-492.14727542363744 88.26697736464268L-98.4294550847275 17.653395472928537" stroke="#aaa" stroke-width="2" fill="none" id="textpath-MDA"/></defs><text text-anchor="middle" dominant-baseline="middle" class="label"><textPath href="#textpath-MDA" startOffset="50%"><tspan>Maryland | 63.2%</tspan></textPath></text><defs><path d="M-498.93894703043406 32.5565221754679L-99.78778940608682 6.511304435093579" stroke="#aaa" stroke-width="2" fill="none" id="textpath-WIA"/></defs><text text-anchor="middle" dominant-baseline="middle" class="label"><textPath href="#textpath-WIA" startOffset="50%"><tspan>Wisconsin | 55.5%</tspan></textPath></text><defs><path d="M-499.50656559695324 -22.207902321846873L-99.90131311939065 -4.441580464369375" stroke="#aaa" stroke-width="2" fill="none" id="textpath-COA"/></defs><text text-anchor="middle" dominant-baseline="middle" class="label"><textPath href="#textpath-COA" startOffset="50%"><tspan>Colorado | 58.5%</tspan></textPath></text><defs><path d="M-494.21312267132095 -75.8511000543953L-98.84262453426419 -15.17022001087906" stroke="#aaa" stroke-width="2" fill="none" id="textpath-MNA"/></defs><text text-anchor="middle" dominant-baseline="middle" class="label"><textPath href="#textpath-MNA" startOffset="50%"><tspan>Minnesota | 57.4%</tspan></textPath></text><defs><path d="M-483.9100709435152 -125.82147368172907L-96.78201418870304 -25.164294736345816" stroke="#aaa" stroke-width="2" fill="none" id="textpath-SCA"/></defs><text text-anchor="middle" dominant-baseline="middle" class="label"><textPath href="#textpath-SCA" startOffset="50%"><tspan>South Carolina | 45.8%</tspan></textPath></text><defs><path d="M-469.7727187824961 -171.2121277471367L-93.95454375649922 -34.24242554942734" stroke="#aaa" stroke-width="2" fill="none" id="textpath-ALA"/></defs><text text-anchor="middle" dominant-baseline="middle" class="label"><textPath href="#textpath-ALA" startOffset="50%"><tspan>Alabama | 41.1%</tspan></textPath></text><defs><path d="M-452.40057679527905 -212.91716256633427L-90.48011535905582 -42.58343251326686" stroke="#aaa" stroke-width="2" fill="none" id="textpath-LAA"/></defs><text text-anchor="middle" dominant-baseline="middle" class="label"><textPath href="#textpath-LAA" startOffset="50%"><tspan>Louisiana | 44.2%</tspan></textPath></text><defs><path d="M-432.3733561126097 -251.1041236696809L-86.47467122252193 -50.220824733936176" stroke="#aaa" stroke-width="2" fill="none" id="textpath-KYA"/></defs><text text-anchor="middle" dominant-baseline="middle" class="label"><textPath href="#textpath-KYA" startOffset="50%"><tspan>Kentucky | 50.8%</tspan></textPath></text><defs><path d="M-410.29941800100454 -285.7523186048312L-82.0598836002009 -57.150463720966236" stroke="#aaa" stroke-width="2" fill="none" id="textpath-ORA"/></defs><text text-anchor="middle" dominant-baseline="middle" class="label"><textPath href="#textpath-ORA" startOffset="50%"><tspan>Oregon | 59.7%</tspan></textPath></text><defs><path d="M-386.99008854243834 -316.60491368567824L-77.39801770848767 -63.320982737135644" stroke="#aaa" stroke-width="2" fill="none" id="textpath-OKA"/></defs><text text-anchor="middle" dominant-baseline="middle" class="label"><textPath href="#textpath-OKA" startOffset="50%"><tspan>Oklahoma | 46.3%</tspan></textPath></text><defs><path d="M-363.4928353382462 -343.326315125658L-72.69856706764925 -68.66526302513161" stroke="#aaa" stroke-width="2" fill="none" id="textpath-CTA"/></defs><text text-anchor="middle" dominant-baseline="middle" class="label"><textPath href="#textpath-CTA" startOffset="50%"><tspan>Connecticut | 67.7%</tspan></textPath></text><defs><path d="M-340.76350724002464 -365.8964773449967L-68.15270144800493 -73.17929546899934" stroke="#aaa" stroke-width="2" fill="none" id="textpath-UTA"/></defs><text text-anchor="middle" dominant-baseline="middle" class="label"><textPath href="#textpath-UTA" startOffset="50%"><tspan>Utah | 49.5%</tspan></textPath></text><defs><path d="M-317.9943580188594 -385.8491781359311L-63.598871603771876 -77.16983562718622" stroke="#aaa" stroke-width="2" fill="none" id="textpath-PRA"/></defs><text text-anchor="middle" dominant-baseline="middle" class="label"><textPath href="#textpath-PRA" startOffset="50%"><tspan>Puerto Rico | 68.5%</tspan></textPath></text><defs><path d="M-294.2540794261819 -404.2456391119764L-58.85081588523637 -80.84912782239529" stroke="#aaa" stroke-width="2" fill="none" id="textpath-IAA"/></defs><text text-anchor="middle" dominant-baseline="middle" class="label"><textPath href="#textpath-IAA" startOffset="50%"><tspan>Iowa | 53.2%</tspan></textPath></text><defs><path d="M-269.90445174586654 -420.8937953068009L-53.98089034917331 -84.17875906136018" stroke="#aaa" stroke-width="2" fill="none" id="textpath-NVA"/></defs><text text-anchor="middle" dominant-baseline="middle" class="label"><textPath href="#textpath-NVA" startOffset="50%"><tspan>Nevada | 49.7%</tspan></textPath></text><defs><path d="M-245.1817052061143 -435.7590290885802L-49.03634104122286 -87.15180581771604" stroke="#aaa" stroke-width="2" fill="none" id="textpath-ARA"/></defs><text text-anchor="middle" dominant-baseline="middle" class="label"><textPath href="#textpath-ARA" startOffset="50%"><tspan>Arkansas | 44.4%</tspan></textPath></text><defs><path d="M-220.0847744613361 -448.957338786552L-44.01695489226722 -89.7914677573104" stroke="#aaa" stroke-width="2" fill="none" id="textpath-MSA"/></defs><text text-anchor="middle" dominant-baseline="middle" class="label"><textPath href="#textpath-MSA" startOffset="50%"><tspan>Mississippi | 42.1%</tspan></textPath></text><defs><path d="M-194.73544480799285 -460.5193877953817L-38.94708896159857 -92.10387755907634" stroke="#aaa" stroke-width="2" fill="none" id="textpath-KSA"/></defs><text text-anchor="middle" dominant-baseline="middle" class="label"><textPath href="#textpath-KSA" startOffset="50%"><tspan>Kansas | 50.1%</tspan></textPath></text><defs><path d="M-172.6917429857569 -469.23081943169643L-34.53834859715138 -93.84616388633928" stroke="#aaa" stroke-width="2" fill="none" id="textpath-NMA"/></defs><text text-anchor="middle" dominant-baseline="middle" class="small-label-7"><textPath href="#textpath-NMA" startOffset="50%"><tspan>New Mexico | 62.0%</tspan></textPath></text><defs><path d="M-154.67092235554603 -475.47545233974455L-30.934184471109205 -95.0950904679489" stroke="#aaa" stroke-width="2" fill="none" id="textpath-NEA"/></defs><text text-anchor="middle" dominant-baseline="middle" class="small-label-7"><textPath href="#textpath-NEA" startOffset="50%"><tspan>Nebraska | 53.7%</tspan></textPath></text><defs><path d="M-137.81135436676558 -480.6329479005759L-27.562270873353118 -96.12658958011518" stroke="#aaa" stroke-width="2" fill="none" id="textpath-WVA"/></defs><text text-anchor="middle" dominant-baseline="middle" class="small-label-6"><textPath href="#textpath-WVA" startOffset="50%"><tspan>West Virginia | 40.1%</tspan></textPath></text><defs><path d="M-121.4568058509309 -485.0239626167858L-24.291361170186182 -97.00479252335717" stroke="#aaa" stroke-width="2" fill="none" id="textpath-IDA"/></defs><text text-anchor="middle" dominant-baseline="middle" class="small-label-6"><textPath href="#textpath-IDA" startOffset="50%"><tspan>Idaho | 40.7%</tspan></textPath></text><defs><path d="M-106.70290210456403 -488.48182226410825L-21.340580420912804 -97.69636445282165" stroke="#aaa" stroke-width="2" fill="none" id="textpath-HIA"/></defs><text text-anchor="middle" dominant-baseline="middle" class="small-label-5"><textPath href="#textpath-HIA" startOffset="50%"><tspan>Hawaii | 56.9%</tspan></textPath></text><defs><path d="M-93.83779055788968 -491.11553535111636L-18.767558111577934 -98.22310707022326" stroke="#aaa" stroke-width="2" fill="none" id="textpath-NHA"/></defs><text text-anchor="middle" dominant-baseline="middle" class="small-label-5"><textPath href="#textpath-NHA" startOffset="50%"><tspan>New Hampshire | 60.9%</tspan></textPath></text><defs><path d="M-81.2425135090935 -493.35550468067623L-16.2485027018187 -98.67110093613525" stroke="#aaa" stroke-width="2" fill="none" id="textpath-MEA"/></defs><text text-anchor="middle" dominant-baseline="middle" class="small-label-5"><textPath href="#textpath-MEA" startOffset="50%"><tspan>Maine | 67.5%</tspan></textPath></text><defs><path d="M-69.95728700535162 -495.08178919735155L-13.991457401070322 -99.01635783947032" stroke="#aaa" stroke-width="2" fill="none" id="textpath-MTA"/></defs><text text-anchor="middle" dominant-baseline="middle" class="small-label-4"><textPath href="#textpath-MTA" startOffset="50%"><tspan>Montana | 47.7%</tspan></textPath></text><defs><path d="M-59.9738095041323 -496.3901108740605L-11.994761900826461 -99.2780221748121" stroke="#aaa" stroke-width="2" fill="none" id="textpath-RIA"/></defs><text text-anchor="middle" dominant-baseline="middle" class="small-label-4"><textPath href="#textpath-RIA" startOffset="50%"><tspan>Rhode Island | 66.9%</tspan></textPath></text></g><text y="654" class="legend">
            <tspan x="-654">* Showing percentage of population fully vaccinated, having received all shots according to each countries chosen vaccine(s).</tspan>
            <tspan x="-654" dy="1.2em">Countries where no data was available are not counted towards a region's percentage.</tspan>
            </text><text y="-654" class="title" text-anchor="middle">
                <tspan x="0">Covid Vaccinations* by State</tspan>
            </text><text xmlns:xlink="http://www.w3.org/1999/xlink" y="654" class="sources" text-anchor="end">
    <tspan x="654">Data source:
        <a xlink:href="https://github.com/owid/covid-19-data/tree/master/public/data/vaccinations">
            <tspan>https://github.com/owid/covid-19-data/tree/master/public/data/vaccinations</tspan>
        </a>
    </tspan>
    <tspan x="654" dy="1.2em">Code source:
        <a xlink:href="https://github.com/WorldSEnder/vis_covid_vacc">
            <tspan>https://github.com/WorldSEnder/vis_covid_vacc</tspan>
        </a>
    </tspan>
    <tspan x="654" dy="1.2em">Timestamp: Sun Sep 19 02:00:22 2021 +0000</tspan>
</text><text text-anchor="middle" dominant-baseline="middle" class="label_all" x="0" y="0">
    <tspan>United States | 54.1%</tspan>
</text></svg>