<svg xmlns="http://www.w3.org/2000/svg" viewBox="-664 -684 1328 1388"><style>
text {
    font-family: "Open Sans";
}
.legend, .sources {
    font-size: 10pt;
}
.title {
    font-size: 20pt;
    font-weight: bold;
}
.label_all {
    font-size: 18pt;
}
.label {
}
.small-label-9 {
   font-size: 9pt;
}
.small-label-8 {
   font-size: 8pt;
}
.small-label-7 {
   font-size: 7pt;
}
.small-label-6 {
   font-size: 6pt;
}
.small-label-5 {
   font-size: 5pt;
}
.small-label-4 {
   font-size: 4pt;
}
a {
    text-decoration: underline;
}
</style><style type="text/css">
@font-face{
  font-family:'Open Sans';src:local('Open Sans')
             , local('OpenSans')
             , url(https://fonts.gstatic.com/s/opensans/v18/mem5YaGs126MiZpBA-UN_r8OUuhp.woff2) format('woff2');
  }
</style><defs><pattern id="diagonalHatch" width="10" height="10" patternTransform="rotate(45 0 0)" patternUnits="userSpaceOnUse">
  <line x1="0" y1="0" x2="0" y2="10" style="stroke:#444; stroke-width:1"/>
</pattern></defs><circle cx="0" cy="0" r="199.0" stroke="#aaa" stroke-width="2" fill="none"/><path d="M2.4554168322904432e-14 -401.0A401.0 401.0 0 0 1 272.6789550760902 -294.0190256745498" stroke="#aaa" stroke-width="2" fill="none"/><path d="M272.6789550760902 -294.0190256745498A401.0 401.0 0 0 1 386.0089212474168 -108.61911764236338" stroke="#aaa" stroke-width="2" fill="none"/><path d="M386.0089212474168 -108.61911764236338A401.0 401.0 0 0 1 397.50292130054703 52.84342492241691" stroke="#aaa" stroke-width="2" fill="none"/><path d="M397.50292130054703 52.84342492241691A401.0 401.0 0 0 1 351.8495734383457 192.36132062151725" stroke="#aaa" stroke-width="2" fill="none"/><path d="M351.8495734383457 192.36132062151725A401.0 401.0 0 0 1 295.4240849476833 271.1560621354868" stroke="#aaa" stroke-width="2" fill="none"/><path d="M295.4240849476833 271.1560621354868A401.0 401.0 0 0 1 222.5651424023364 333.5652220892156" stroke="#aaa" stroke-width="2" fill="none"/><path d="M222.5651424023364 333.5652220892156A401.0 401.0 0 0 1 143.9529319822513 374.2706953178586" stroke="#aaa" stroke-width="2" fill="none"/><path d="M143.9529319822513 374.2706953178586A401.0 401.0 0 0 1 66.35875376930557 395.4712578660865" stroke="#aaa" stroke-width="2" fill="none"/><path d="M66.35875376930557 395.4712578660865A401.0 401.0 0 0 1 -12.924590449366015 400.7916602946176" stroke="#aaa" stroke-width="2" fill="none"/><path d="M-12.924590449366015 400.7916602946176A401.0 401.0 0 0 1 -87.99342359994615 391.22647840242155" stroke="#aaa" stroke-width="2" fill="none"/><path d="M-87.99342359994615 391.22647840242155A401.0 401.0 0 0 1 -152.20648524846214 370.99081639349197" stroke="#aaa" stroke-width="2" fill="none"/><path d="M-152.20648524846214 370.99081639349197A401.0 401.0 0 0 1 -209.89189182097283 341.68171409634" stroke="#aaa" stroke-width="2" fill="none"/><path d="M-209.89189182097283 341.68171409634A401.0 401.0 0 0 1 -256.7856637456892 307.99695273603896" stroke="#aaa" stroke-width="2" fill="none"/><path d="M-256.7856637456892 307.99695273603896A401.0 401.0 0 0 1 -296.64522477208493 269.81958902184846" stroke="#aaa" stroke-width="2" fill="none"/><path d="M-296.64522477208493 269.81958902184846A401.0 401.0 0 0 1 -329.2204513600952 228.94299379158824" stroke="#aaa" stroke-width="2" fill="none"/><path d="M-329.2204513600952 228.94299379158824A401.0 401.0 0 0 1 -355.98116727004526 184.60338173786542" stroke="#aaa" stroke-width="2" fill="none"/><path d="M-355.98116727004526 184.60338173786542A401.0 401.0 0 0 1 -376.5518222215621 137.87575994938743" stroke="#aaa" stroke-width="2" fill="none"/><path d="M-376.5518222215621 137.87575994938743A401.0 401.0 0 0 1 -389.992901590436 93.3088243901536" stroke="#aaa" stroke-width="2" fill="none"/><path d="M-389.992901590436 93.3088243901536A401.0 401.0 0 0 1 -398.0955825330114 48.175794416930074" stroke="#aaa" stroke-width="2" fill="none"/><path d="M-398.0955825330114 48.175794416930074A401.0 401.0 0 0 1 -400.97896840669796 4.106932614533967" stroke="#aaa" stroke-width="2" fill="none"/><path d="M-400.97896840669796 4.106932614533967A401.0 401.0 0 0 1 -399.04676560409507 -39.53073311880801" stroke="#aaa" stroke-width="2" fill="none"/><path d="M-399.04676560409507 -39.53073311880801A401.0 401.0 0 0 1 -392.56509434063094 -81.81470959021696" stroke="#aaa" stroke-width="2" fill="none"/><path d="M-392.56509434063094 -81.81470959021696A401.0 401.0 0 0 1 -382.74375916356786 -119.61695039308087" stroke="#aaa" stroke-width="2" fill="none"/><path d="M-382.74375916356786 -119.61695039308087A401.0 401.0 0 0 1 -370.01365364921963 -154.56680145864223" stroke="#aaa" stroke-width="2" fill="none"/><path d="M-370.01365364921963 -154.56680145864223A401.0 401.0 0 0 1 -355.00179208616737 -186.47983165910892" stroke="#aaa" stroke-width="2" fill="none"/><path d="M-355.00179208616737 -186.47983165910892A401.0 401.0 0 0 1 -337.98563978818635 -215.7932049369728" stroke="#aaa" stroke-width="2" fill="none"/><path d="M-337.98563978818635 -215.7932049369728A401.0 401.0 0 0 1 -319.70327850061676 -242.0553938997375" stroke="#aaa" stroke-width="2" fill="none"/><path d="M-319.70327850061676 -242.0553938997375A401.0 401.0 0 0 1 -300.6979849870559 -265.29553675990155" stroke="#aaa" stroke-width="2" fill="none"/><path d="M-300.6979849870559 -265.29553675990155A401.0 401.0 0 0 1 -282.12729259874374 -284.9652448473372" stroke="#aaa" stroke-width="2" fill="none"/><path d="M-282.12729259874374 -284.9652448473372A401.0 401.0 0 0 1 -264.3293882825402 -301.5476322078787" stroke="#aaa" stroke-width="2" fill="none"/><path d="M-264.3293882825402 -301.5476322078787A401.0 401.0 0 0 1 -245.6323344925201 -316.963335816234" stroke="#aaa" stroke-width="2" fill="none"/><path d="M-245.6323344925201 -316.963335816234A401.0 401.0 0 0 1 -226.28031014665618 -331.0562206633989" stroke="#aaa" stroke-width="2" fill="none"/><path d="M-226.28031014665618 -331.0562206633989A401.0 401.0 0 0 1 -206.60924876208588 -343.67661882351916" stroke="#aaa" stroke-width="2" fill="none"/><path d="M-206.60924876208588 -343.67661882351916A401.0 401.0 0 0 1 -186.65527799113607 -354.909576086715" stroke="#aaa" stroke-width="2" fill="none"/><path d="M-186.65527799113607 -354.909576086715A401.0 401.0 0 0 1 -166.3803313526603 -364.85419737064694" stroke="#aaa" stroke-width="2" fill="none"/><path d="M-166.3803313526603 -364.85419737064694A401.0 401.0 0 0 1 -146.02192941482735 -373.46833350362004" stroke="#aaa" stroke-width="2" fill="none"/><path d="M-146.02192941482735 -373.46833350362004A401.0 401.0 0 0 1 -131.0909062847392 -378.9672469877123" stroke="#aaa" stroke-width="2" fill="none"/><path d="M-131.0909062847392 -378.9672469877123A401.0 401.0 0 0 1 -117.13286652310285 -383.5112665621194" stroke="#aaa" stroke-width="2" fill="none"/><path d="M-117.13286652310285 -383.5112665621194A401.0 401.0 0 0 1 -104.06085287256846 -387.26262264700125" stroke="#aaa" stroke-width="2" fill="none"/><path d="M-104.06085287256846 -387.26262264700125A401.0 401.0 0 0 1 -90.90671317707236 -390.5598155204161" stroke="#aaa" stroke-width="2" fill="none"/><path d="M-90.90671317707236 -390.5598155204161A401.0 401.0 0 0 1 -80.41027162444506 -392.8551746092738" stroke="#aaa" stroke-width="2" fill="none"/><path d="M-80.41027162444506 -392.8551746092738A401.0 401.0 0 0 1 -70.27574083799658 -394.79402256071546" stroke="#aaa" stroke-width="2" fill="none"/><path d="M-70.27574083799658 -394.79402256071546A401.0 401.0 0 0 1 -60.210968172697214 -396.45382998743554" stroke="#aaa" stroke-width="2" fill="none"/><path d="M-60.210968172697214 -396.45382998743554A401.0 401.0 0 0 1 -52.18038104639696 -397.590502695742" stroke="#aaa" stroke-width="2" fill="none"/><path d="M-52.18038104639696 -397.590502695742A401.0 401.0 0 0 1 -44.199476597248896 -398.556653775256" stroke="#aaa" stroke-width="2" fill="none"/><path d="M-44.199476597248896 -398.556653775256A401.0 401.0 0 0 1 -36.84768830498767 -399.3034533616989" stroke="#aaa" stroke-width="2" fill="none"/><path d="M-36.84768830498767 -399.3034533616989A401.0 401.0 0 0 1 -30.157716792212618 -399.86436715201404" stroke="#aaa" stroke-width="2" fill="none"/><path d="M-30.157716792212618 -399.86436715201404A401.0 401.0 0 0 1 -24.388002379747917 -400.2576986641549" stroke="#aaa" stroke-width="2" fill="none"/><path d="M-24.388002379747917 -400.2576986641549A401.0 401.0 0 0 1 -18.844551084257862 -400.5569658543374" stroke="#aaa" stroke-width="2" fill="none"/><path d="M-18.844551084257862 -400.5569658543374A401.0 401.0 0 0 1 -13.493140111807863 -400.77292220149195" stroke="#aaa" stroke-width="2" fill="none"/><path d="M-13.493140111807863 -400.77292220149195A401.0 401.0 0 0 1 -8.759646796674833 -400.90431350634964" stroke="#aaa" stroke-width="2" fill="none"/><path d="M-8.759646796674833 -400.90431350634964A401.0 401.0 0 0 1 -4.3681557747690265 -400.97620779184314" stroke="#aaa" stroke-width="2" fill="none"/><path d="M-4.3681557747690265 -400.97620779184314A401.0 401.0 0 0 1 -3.08957786929225 -400.98809771437055" stroke="#aaa" stroke-width="2" fill="none"/><path d="M-3.08957786929225 -400.98809771437055A401.0 401.0 0 0 1 -2.282979772245378 -400.99350119841034" stroke="#aaa" stroke-width="2" fill="none"/><path d="M-2.282979772245378 -400.99350119841034A401.0 401.0 0 0 1 -1.5064998693029468 -400.9971701373263" stroke="#aaa" stroke-width="2" fill="none"/><path d="M-1.5064998693029468 -400.9971701373263A401.0 401.0 0 0 1 -0.9165396809237174 -400.99895256099273" stroke="#aaa" stroke-width="2" fill="none"/><path d="M-0.9165396809237174 -400.99895256099273A401.0 401.0 0 0 1 -0.5230521056319023 -400.9996588732898" stroke="#aaa" stroke-width="2" fill="none"/><path d="M-0.5230521056319023 -400.9996588732898A401.0 401.0 0 0 1 -0.16340260026115583 -400.99996670771714" stroke="#aaa" stroke-width="2" fill="none"/><path d="M-0.16340260026115583 -400.99996670771714A401.0 401.0 0 0 1 -4.298220512684635e-13 -401.0" stroke="#aaa" stroke-width="2" fill="none"/><g><circle fill="#279ee3" r="151.15311171278148"/><path d="M0.5000000000000009 -199.99937499902342L0.4999999999999861 -338.5737969916095A338.57416618713785 338.57416618713785 0 0 1 229.86269243635687 -248.58722540634392L135.63244657797392 -146.98244601064795A200 200 0 0 0 0.5000000000000009 -199.99937499902342" fill="#5954d6"/><path d="M136.36566110584067 -146.30244861644323L220.52021368207545 -237.0430030081005A323.75693030032045 323.75693030032045 0 0 1 311.5177177498467 -88.17744295120725L192.3871157972804 -54.655262099854816A200 200 0 0 0 136.36566110584067 -146.30244861644323" fill="#00c6f8"/><path d="M192.65798641484238 -53.69264633614554L323.06279564488136 -90.38727833872738A335.46897027201925 335.46897027201925 0 0 1 332.60890096397696 43.712115195953416L198.3210911043806 25.860100989129492A200 200 0 0 0 192.65798641484238 -53.69264633614554" fill="#878500"/><path d="M198.18931198986084 26.851380094617138L344.83683014640627 46.34647484866294A347.93740120360616 347.93740120360616 0 0 1 305.5303751907576 166.46809001161188L175.7253751662167 95.50179329568836A200 200 0 0 0 198.18931198986084 26.851380094617138" fill="#00a76c"/><path d="M175.24567112476655 96.37922365338999L295.80292084017395 162.28963968468145A337.3978291669375 337.3978291669375 0 0 1 248.90502126315147 227.77968635625098L147.68132264404693 134.87114940603462A200 200 0 0 0 175.24567112476655 96.37922365338999" fill="#bdbdbd"/><path d="M147.0051229878487 135.60786782236303L247.8143099509625 228.13594375374402A336.8351838049036 336.8351838049036 0 0 1 187.36775727287824 279.912958941552L111.42062839920335 166.0886617657167A200 200 0 0 0 147.0051229878487 135.60786782236303" fill="#ebac23"/><path d="M110.58879492765914 166.64368705849063L177.61591966329522 267.09929977086693A320.7638552828632 320.7638552828632 0 0 1 115.615901974607 299.2029646686738L72.26342088126214 186.48860019458982A200 200 0 0 0 110.58879492765914 166.64368705849063" fill="#b80058"/><path d="M71.33007750141714 186.84758506237597L112.23136264277957 293.1889580268332A313.9357320687074 313.9357320687074 0 0 1 52.444122569927785 309.5242444096838L33.589638175831034 197.1591646543897A200 200 0 0 0 71.33007750141714 186.84758506237597" fill="#008cf9"/><path d="M32.60342556269867 197.32464783087178L52.905926423856535 318.3193184255336A322.6859549680816 322.6859549680816 0 0 1 -9.900705673143106 322.5340316320691L-5.9464194060953774 199.9115806956836A200 200 0 0 0 32.60342556269867 197.32464783087178" fill="#006e00"/><path d="M-6.945899855707868 199.87934979680736L-10.934664843011571 323.5709861430023A323.75569488239734 323.75569488239734 0 0 1 -70.55542341586789 315.9741796340194L-43.3990436030233 195.2345333549956A200 200 0 0 0 -6.945899855707868 199.87934979680736" fill="#00bbad"/><path d="M-44.37467073120887 195.01509838342466L-76.64611342998026 338.4967628474221A347.06582252089487 347.06582252089487 0 0 1 -131.27211662972542 321.2823004114249L-75.45063968153059 185.22203155037425A200 200 0 0 0 -44.37467073120887 195.01509838342466" fill="#d163e6"/><path d="M-76.37580381218766 184.84246425549034L-130.15776872739065 315.9315899163753A341.69257274219706 341.69257274219706 0 0 1 -178.42289993279627 291.40879027021987L-104.25787113343897 170.67599803933544A200 200 0 0 0 -76.37580381218766 184.84246425549034" fill="#b24502"/><path d="M-105.1099452334299 170.1525768627245L-179.50215795553788 291.2552003980352A342.126608830115 342.126608830115 0 0 1 -218.70103749976968 263.0978385812374L-127.68821391890077 153.9341418470933A200 200 0 0 0 -105.1099452334299 170.1525768627245" fill="#ff9287"/><path d="M-128.45628612023756 153.2937785958571L-207.50152705515137 248.10317325252515A323.4378894133961 323.4378894133961 0 0 1 -238.9308752242064 218.00024122185496L-147.61583480386753 134.9428223921424A200 200 0 0 0 -128.45628612023756 153.2937785958571" fill="#5954d6"/><path d="M-148.28870160940832 134.20305873934416L-261.2004235337006 236.90417057678877A352.6318863785021 352.6318863785021 0 0 1 -289.22454014803026 201.73847592123133L-163.91374815964994 114.59617430025688A200 200 0 0 0 -148.28870160940832 134.20305873934416" fill="#00c6f8"/><path d="M-164.48467831873123 113.77517566843616L-258.09125869153365 178.8700707777984A314.01528630471915 314.01528630471915 0 0 1 -278.53138344908496 145.00299468277728L-177.31598322833648 92.51509115689339A200 200 0 0 0 -164.48467831873123 113.77517566843616" fill="#878500"/><path d="M-177.77634078878006 91.62735757267876L-281.25342120012704 145.28811474920897A316.5629846083641 316.5629846083641 0 0 1 -297.0904791385246 109.3131759185381L-187.63389331441672 69.23526615586948A200 200 0 0 0 -177.77634078878006 91.62735757267876" fill="#00a76c"/><path d="M-187.97772313972695 68.29623418025456L-297.82950534297913 108.51884647226524A316.98383916615484 316.98383916615484 0 0 1 -308.16618202210435 74.24525944754967L-194.3932223440094 47.02419703421343A200 200 0 0 0 -187.97772313972695 68.29623418025456" fill="#bdbdbd"/><path d="M-194.62591267914695 46.05164615742923L-336.96853235540493 80.10822115774737A346.3598113159409 346.3598113159409 0 0 1 -343.79072140475773 42.10770441154965L-198.49072269143633 24.52413108412463A200 200 0 0 0 -194.62591267914695 46.05164615742923" fill="#ebac23"/><path d="M-198.61086182963317 23.531374020451217L-330.32920346143817 39.4713543312516A332.6790803044451 332.6790803044451 0 0 1 -332.6561354158232 3.9071783195746965L-199.983764595475 2.548312818636561A200 200 0 0 0 -198.61086182963317 23.531374020451217" fill="#b80058"/><path d="M-199.99400632269334 1.5483652665000907L-338.8023152823128 2.9700766682222053A338.8153334724844 338.8153334724844 0 0 1 -337.2139179661149 -32.90294403261129L-199.07448649067385 -19.218450210006825A200 200 0 0 0 -199.99400632269334 1.5483652665000907" fill="#008cf9"/><path d="M-198.97590610883145 -20.213579301288924L-336.09635423277916 -33.797129669660855A337.7913635699907 337.7913635699907 0 0 1 -330.78768227668485 -68.42890147074289L-195.89446600836402 -40.31573126334082A200 200 0 0 0 -198.97590610883145 -20.213579301288924" fill="#006e00"/><path d="M-195.6904393011565 -41.2946965858861L-310.7231182442808 -65.268721166253A317.5041136333943 317.5041136333943 0 0 1 -303.1979446196459 -94.23305445834532L-191.04319474485501 -59.181903836218375A200 200 0 0 0 -195.6904393011565 -41.2946965858861" fill="#00bbad"/><path d="M-190.74489811045828 -60.136377051090186L-293.0583772343796 -92.11188563588055A307.1934438471066 307.1934438471066 0 0 1 -283.64813310082184 -117.94722773793322L-184.73761314633012 -76.62906947756103A200 200 0 0 0 -190.74489811045828 -60.136377051090186" fill="#d163e6"/><path d="M-184.35215977610903 -77.55179679339456L-288.50599902686736 -121.06026096452811A312.87585119227475 312.87585119227475 0 0 1 -277.21841885123996 -145.05601162622995L-177.29021560248452 -92.56446106160048A200 200 0 0 0 -184.35215977610903 -77.55179679339456" fill="#b24502"/><path d="M-176.82517861580342 -93.44975231368574L-281.9945744464213 -148.6944628120021A318.7961469154985 318.7961469154985 0 0 1 -268.96828866690373 -171.134575640825L-168.83993346321904 -107.20576881929335A200 200 0 0 0 -176.82517861580342 -93.44975231368574" fill="#ff9287"/><path d="M-168.30179579504698 -108.04862577637118L-286.92471855395695 -183.7856325236942A340.73883377067807 340.73883377067807 0 0 1 -271.9606800068332 -205.2811276508941L-159.75432314766073 -120.32687245845291A200 200 0 0 0 -168.30179579504698 -108.04862577637118" fill="#5954d6"/><path d="M-159.1506937364394 -121.12413749212033L-253.04397014664787 -192.21309883339754A317.76898242389086 317.76898242389086 0 0 1 -238.61601543574568 -209.85595861991396L-150.30438112034133 -131.94162730552924A200 200 0 0 0 -159.1506937364394 -121.12413749212033" fill="#00c6f8"/><path d="M-149.64279624064082 -132.69149759228006L-265.4259265528777 -234.8429892467678A354.40393914968143 354.40393914968143 0 0 1 -249.69926921029898 -251.50035196924424L-141.06674516792776 -141.77508034815895A200 200 0 0 0 -149.64279624064082 -132.69149759228006" fill="#878500"/><path d="M-140.3561086471114 -142.47863968132296L-228.06149469433961 -231.0662647181A324.6593045840383 324.6593045840383 0 0 1 -214.3832105365118 -243.8103834807882L-132.2106889438558 -150.06776379019914A200 200 0 0 0 -140.3561086471114 -142.47863968132296" fill="#00a76c"/><path d="M-131.45869983610544 -150.72693932207585L-236.33621098788737 -270.37146831357353A359.1037948868668 359.1037948868668 0 0 1 -220.36383947429553 -283.54067389758353L-122.90472580040701 -157.77968302644916A200 200 0 0 0 -131.45869983610544 -150.72693932207585" fill="#bdbdbd"/><path d="M-122.1142935415136 -158.39223248902405L-200.2888908391777 -259.2685327804783A327.6214460070189 327.6214460070189 0 0 1 -185.28609523424012 -270.1941427873263L-113.2704456714417 -164.8326610153248A200 200 0 0 0 -122.1142935415136 -158.39223248902405" fill="#ebac23"/><path d="M-112.44486906130848 -165.39695106556587L-181.96696762138043 -267.11027816401673A323.2025340342784 323.2025340342784 0 0 1 -166.9535939081148 -276.74243528476654L-103.47520930385711 -171.15163177581147A200 200 0 0 0 -112.44486906130848 -165.39695106556587" fill="#b80058"/><path d="M-102.61816037911014 -171.66686681013093L-161.20311274894982 -269.1178689556759A313.70507001193806 313.70507001193806 0 0 1 -146.46405851122168 -277.4151230838297L-93.53714146269216 -176.77896698133608A200 200 0 0 0 -102.61816037911014 -171.66686681013093" fill="#008cf9"/><path d="M-92.65208017569282 -177.2444414900422L-143.5333078965374 -273.99088849934753A309.3102285026864 309.3102285026864 0 0 1 -128.7917660080598 -281.22144026533476L-83.43738000336116 -181.76414282848722A200 200 0 0 0 -92.65208017569282 -177.2444414900422" fill="#006e00"/><path d="M-82.52751916203778 -182.17905637300763L-133.77124920003342 -294.55105275797587A323.5043582293279 323.5043582293279 0 0 1 -118.26785114099047 -301.11091840028297L-73.29433612436112 -186.0858411918789A200 200 0 0 0 -82.52751916203778 -182.17905637300763" fill="#00bbad"/><path d="M-72.36299364679593 -186.44998565426002L-123.224337518869 -316.5338806676958A339.67327679332567 339.67327679332567 0 0 1 -111.51499520565594 -320.84628844946576L-65.85432156732483 -188.84705009850532A200 200 0 0 0 -72.36299364679593 -186.44998565426002" fill="#d163e6"/><path d="M-64.90926608855241 -189.17396008924035L-107.03987596489804 -310.9682301210026A328.87501454377707 328.87501454377707 0 0 1 -96.54310297833733 -314.38543932326724L-58.898393341011655 -191.1307909831576A200 200 0 0 0 -64.90926608855241 -189.17396008924035" fill="#b24502"/><path d="M-57.942006142602324 -191.42289289468656L-86.84922719024385 -286.0696413765526A298.9625862559595 298.9625862559595 0 0 1 -78.06456235643809 -288.59063062571835L-52.38338366010608 -193.0180849462509A200 200 0 0 0 -57.942006142602324 -191.42289289468656" fill="#ff9287"/><path d="M-51.41764145899129 -193.27758831999796L-78.84621752022144 -295.3530759575286A305.69619803788817 305.69619803788817 0 0 1 -69.78822775582779 -297.62353529504423L-45.826847197980506 -194.67896670131816A200 200 0 0 0 -51.41764145899129 -193.27758831999796" fill="#5954d6"/><path d="M-44.85288257074748 -194.9056667341787L-75.5263822751185 -326.68731373498696A335.304093883372 335.304093883372 0 0 1 -67.72641116363272 -328.39300937420046L-40.59459265759444 -195.83686845679486A200 200 0 0 0 -44.85288257074748 -194.9056667341787" fill="#00c6f8"/><path d="M-39.614903942858035 -196.03739282493564L-67.86550024705961 -334.05947283653074A340.8833488388725 340.8833488388725 0 0 1 -60.23242174697759 -335.5197652689013L-35.54239714831181 -196.81650846651985A200 200 0 0 0 -39.614903942858035 -196.03739282493564" fill="#878500"/><path d="M-34.55787340127754 -196.99175969055474L-61.64636718312599 -349.16910136952896A354.5692258756831 354.5692258756831 0 0 1 -53.73357122792777 -350.4740208077831L-30.524645679848543 -197.65688959942608A200 200 0 0 0 -34.55787340127754 -196.99175969055474" fill="#00a76c"/><path d="M-29.535982762174072 -197.807041639757L-47.32230171344375 -314.91949612452646A318.4551605466362 318.4551605466362 0 0 1 -41.9348787855617 -315.6820476682576L-26.520795131765993 -198.23382008521878A200 200 0 0 0 -29.535982762174072 -197.807041639757" fill="#bdbdbd"/><path d="M-25.529297618808965 -198.3639457237385L-45.68769012646001 -351.9616245817867A354.914567476938 354.914567476938 0 0 1 -39.616710421838675 -352.6965642910264L-22.541511275863797 -198.72564069440085A200 200 0 0 0 -25.529297618808965 -198.3639457237385" fill="#ebac23"/><path d="M-21.547604408593767 -198.83586382805981L-36.49222486575794 -333.5948786377351A335.58490062721575 335.58490062721575 0 0 1 -31.33457810391887 -334.11879585564725L-18.875726578147685 -199.10727497042143A200 200 0 0 0 -21.547604408593767 -198.83586382805981" fill="#b80058"/><path d="M-17.879957367769318 -199.19916446744134L-29.193680883793878 -321.8013975556024A323.1229030450854 323.1229030450854 0 0 1 -24.799425227372478 -322.1698294078383L-15.539792252907974 -199.395373207947A200 200 0 0 0 -17.879957367769318 -199.19916446744134" fill="#008cf9"/><path d="M-14.542624255022588 -199.4705794842368L-23.019504874431227 -311.86643914620896A312.71484370013525 312.71484370013525 0 0 1 -19.517729309646928 -312.10516130464003L-12.662628635302669 -199.59874207029566A200 200 0 0 0 -14.542624255022588 -199.4705794842368" fill="#006e00"/><path d="M-11.664479760828401 -199.6595600313424L-19.10945907856057 -321.8471111852752A322.41391782083804 322.41391782083804 0 0 1 -15.650914517540047 -322.0338231915194L-9.898196812757915 -199.75491408187162A200 200 0 0 0 -11.664479760828401 -199.6595600313424" fill="#00bbad"/><path d="M-8.89930163606374 -199.80190797484983L-15.513673585975997 -340.39601114253486A340.7493484511466 340.7493484511466 0 0 1 -11.965486815343017 -340.53919832400027L-7.229441521786996 -199.86929522886464A200 200 0 0 0 -8.89930163606374 -199.80190797484983" fill="#d163e6"/><path d="M-6.230007800586201 -199.90294395732303L-11.46187201395065 -355.2996486514786A355.4844790450468 355.4844790450468 0 0 1 -8.265255747399399 -355.388379648742L-4.868768182793897 -199.9407289583146A200 200 0 0 0 -6.230007800586201 -199.90294395732303" fill="#b24502"/><path d="M-3.8690068024787436 -199.96257346404195L-6.1880880855906675 -306.10037917149987A306.1629216007239 306.1629216007239 0 0 1 -3.835046519893525 -306.1389014504384L-2.67859483478333 -199.98206201984985A200 200 0 0 0 -3.8690068024787436 -199.96257346404195" fill="#ff9287"/><path d="M-1.678654166973181 -199.9929551763954L-3.3828588578041474 -356.430950858135A356.44700372381595 356.44700372381595 0 0 1 -3.2462936151472523 -356.43222082389L-2.0409169369737232 -199.98958637403192A200 200 0 0 0 -1.678654166973181 -199.9929551763954" fill="#5954d6"/><path d="M-1.0409466184839549 -199.99729105699774L-1.8920303302106465 -310.4571833137877A310.46294859435517 310.46294859435517 0 0 1 -2.2675223518392467 -310.4546678539157L-1.6386316164182217 -199.99328710340674A200 200 0 0 0 -1.0409466184839549 -199.99729105699774" fill="#00c6f8"/><path d="M-0.6386478229059104 -199.99898031979637L-1.1958721690019565 -297.8725332134537A297.8749337444235 297.8749337444235 0 0 1 -1.6190685826343716 -297.87053357149887L-1.2513656293400903 -199.99608517183958A200 200 0 0 0 -0.6386478229059104 -199.99898031979637" fill="#878500"/><path d="M-0.25137268635417315 -199.999842029369L-0.509185548536959 -268.62396226118443A268.6244448497215 268.6244448497215 0 0 1 -1.1139750941501125 -268.62213503416035L-0.9571242883467767 -199.99770976962876A200 200 0 0 0 -0.25137268635417315 -199.999842029369" fill="#00a76c"/><path d="M0.04287309958593962 -199.99999540474326L-0.2962495144459247 -348.3708906827358A348.37101664584196 348.37101664584196 0 0 1 -0.9544035799411698 -348.3697092926767L-0.7608726275684833 -199.99855267687468A200 200 0 0 0 0.04287309958593962 -199.99999540474326" fill="#bdbdbd"/><path d="M0.23912652174153248 -199.99985704621542L0.04997159601435233 -345.01611809192A345.016121710824 345.016121710824 0 0 1 -0.6405896647689633 -345.0155270205379L-0.5814972600481751 -199.99915465055486A200 200 0 0 0 0.23912652174153248 -199.99985704621542" fill="#ebac23"/><path d="M0.4185026569287416 -199.99956213833605L0.3543466235990249 -357.4423885570053A357.4425641957975 357.4425641957975 0 0 1 -0.5000000000003183 -357.4422144890931L-0.5000000000002475 -199.99937499902342A200 200 0 0 0 0.4185026569287416 -199.99956213833605" fill="#b80058"/></g><g><defs><path d="M36.52297031549408 -93.09174313188866L182.61485157747038 -465.4587156594433" stroke="#aaa" stroke-width="2" fill="none" id="textpath-CAA"/></defs><text text-anchor="middle" dominant-baseline="middle" class="label"><textPath href="#textpath-CAA" startOffset="50%"><tspan>California | 62.2%</tspan></textPath></text><defs><path d="M85.32203522461226 -52.15506020636946L426.61017612306136 -260.77530103184733" stroke="#aaa" stroke-width="2" fill="none" id="textpath-TXA"/></defs><text text-anchor="middle" dominant-baseline="middle" class="label"><textPath href="#textpath-TXA" startOffset="50%"><tspan>Texas | 54.0%</tspan></textPath></text><defs><path d="M99.74758100600161 -7.1007100666868705L498.73790503000805 -35.503550333434355" stroke="#aaa" stroke-width="2" fill="none" id="textpath-FLA"/></defs><text text-anchor="middle" dominant-baseline="middle" class="label"><textPath href="#textpath-FLA" startOffset="50%"><tspan>Florida | 60.4%</tspan></textPath></text><defs><path d="M95.04113336593568 31.099565407227608L475.2056668296784 155.49782703613803" stroke="#aaa" stroke-width="2" fill="none" id="textpath-NYA"/></defs><text text-anchor="middle" dominant-baseline="middle" class="label"><textPath href="#textpath-NYA" startOffset="50%"><tspan>New York State | 67.6%</tspan></textPath></text><defs><path d="M81.30324088432391 58.22184316650926L406.5162044216196 291.1092158325463" stroke="#aaa" stroke-width="2" fill="none" id="textpath-PAA"/></defs><text text-anchor="middle" dominant-baseline="middle" class="label"><textPath href="#textpath-PAA" startOffset="50%"><tspan>Pennsylvania | 61.5%</tspan></textPath></text><defs><path d="M65.05427915372842 75.94696020110861L325.27139576864204 379.7348010055431" stroke="#aaa" stroke-width="2" fill="none" id="textpath-ILA"/></defs><text text-anchor="middle" dominant-baseline="middle" class="label"><textPath href="#textpath-ILA" startOffset="50%"><tspan>Illinois | 61.2%</tspan></textPath></text><defs><path d="M45.98148635837826 88.80148034956554L229.90743179189133 444.00740174782766" stroke="#aaa" stroke-width="2" fill="none" id="textpath-OHA"/></defs><text text-anchor="middle" dominant-baseline="middle" class="label"><textPath href="#textpath-OHA" startOffset="50%"><tspan>Ohio | 52.4%</tspan></textPath></text><defs><path d="M26.356303102243196 96.46421764977254L131.78151551121599 482.3210882488627" stroke="#aaa" stroke-width="2" fill="none" id="textpath-GAA"/></defs><text text-anchor="middle" dominant-baseline="middle" class="label"><textPath href="#textpath-GAA" startOffset="50%"><tspan>Georgia | 48.8%</tspan></textPath></text><defs><path d="M6.695559157382901 99.77559565129134L33.477795786914506 498.8779782564567" stroke="#aaa" stroke-width="2" fill="none" id="textpath-NCA"/></defs><text text-anchor="middle" dominant-baseline="middle" class="label"><textPath href="#textpath-NCA" startOffset="50%"><tspan>North Carolina | 53.4%</tspan></textPath></text><defs><path d="M-63.19844306380502 495.98987569738864L-12.639688612761004 99.19797513947772" stroke="#aaa" stroke-width="2" fill="none" id="textpath-MIA"/></defs><text text-anchor="middle" dominant-baseline="middle" class="label"><textPath href="#textpath-MIA" startOffset="50%"><tspan>Michigan | 54.0%</tspan></textPath></text><defs><path d="M-150.28103451068955 476.88112844439223L-30.056206902137912 95.37622568887845" stroke="#aaa" stroke-width="2" fill="none" id="textpath-NJA"/></defs><text text-anchor="middle" dominant-baseline="middle" class="label"><textPath href="#textpath-NJA" startOffset="50%"><tspan>New Jersey | 67.0%</tspan></textPath></text><defs><path d="M-226.4854206449328 445.7626658158889L-45.29708412898656 89.15253316317778" stroke="#aaa" stroke-width="2" fill="none" id="textpath-VAA"/></defs><text text-anchor="middle" dominant-baseline="middle" class="label"><textPath href="#textpath-VAA" startOffset="50%"><tspan>Virginia | 64.0%</tspan></textPath></text><defs><path d="M-291.7030289391885 406.09031373292186L-58.34060578783771 81.21806274658438" stroke="#aaa" stroke-width="2" fill="none" id="textpath-WAA"/></defs><text text-anchor="middle" dominant-baseline="middle" class="label"><textPath href="#textpath-WAA" startOffset="50%"><tspan>Washington | 64.2%</tspan></textPath></text><defs><path d="M-345.8516967780507 361.0908526060211L-69.17033935561014 72.21817052120421" stroke="#aaa" stroke-width="2" fill="none" id="textpath-AZA"/></defs><text text-anchor="middle" dominant-baseline="middle" class="label"><textPath href="#textpath-AZA" startOffset="50%"><tspan>Arizona | 53.8%</tspan></textPath></text><defs><path d="M-391.0218974830746 311.61173868892666L-78.20437949661492 62.322347737785336" stroke="#aaa" stroke-width="2" fill="none" id="textpath-MAA"/></defs><text text-anchor="middle" dominant-baseline="middle" class="label"><textPath href="#textpath-MAA" startOffset="50%"><tspan>Massachusetts | 70.3%</tspan></textPath></text><defs><path d="M-428.0765181079105 258.3611709305556L-85.6153036215821 51.67223418611112" stroke="#aaa" stroke-width="2" fill="none" id="textpath-TNA"/></defs><text text-anchor="middle" dominant-baseline="middle" class="label"><textPath href="#textpath-TNA" startOffset="50%"><tspan>Tennessee | 48.8%</tspan></textPath></text><defs><path d="M-457.6195966380194 201.45546597910032L-91.52391932760388 40.29109319582007" stroke="#aaa" stroke-width="2" fill="none" id="textpath-INA"/></defs><text text-anchor="middle" dominant-baseline="middle" class="label"><textPath href="#textpath-INA" startOffset="50%"><tspan>Indiana | 50.2%</tspan></textPath></text><defs><path d="M-478.7027383892407 144.37343335476294L-95.74054767784814 28.87468667095259" stroke="#aaa" stroke-width="2" fill="none" id="textpath-MOA"/></defs><text text-anchor="middle" dominant-baseline="middle" class="label"><textPath href="#textpath-MOA" startOffset="50%"><tspan>Missouri | 50.4%</tspan></textPath></text><defs><path d="M-492.13203720889186 88.35189840985794L-98.42640744177838 17.67037968197159" stroke="#aaa" stroke-width="2" fill="none" id="textpath-MDA"/></defs><text text-anchor="middle" dominant-baseline="middle" class="label"><textPath href="#textpath-MDA" startOffset="50%"><tspan>Maryland | 66.6%</tspan></textPath></text><defs><path d="M-498.93318232562876 32.644748037331375L-99.78663646512575 6.528949607466275" stroke="#aaa" stroke-width="2" fill="none" id="textpath-WIA"/></defs><text text-anchor="middle" dominant-baseline="middle" class="label"><textPath href="#textpath-WIA" startOffset="50%"><tspan>Wisconsin | 58.9%</tspan></textPath></text><defs><path d="M-499.51057699851276 -22.117492321979785L-99.90211539970255 -4.423498464395957" stroke="#aaa" stroke-width="2" fill="none" id="textpath-COA"/></defs><text text-anchor="middle" dominant-baseline="middle" class="label"><textPath href="#textpath-COA" startOffset="50%"><tspan>Colorado | 62.3%</tspan></textPath></text><defs><path d="M-494.2271543934116 -75.75961892849571L-98.84543087868232 -15.151923785699143" stroke="#aaa" stroke-width="2" fill="none" id="textpath-MNA"/></defs><text text-anchor="middle" dominant-baseline="middle" class="label"><textPath href="#textpath-MNA" startOffset="50%"><tspan>Minnesota | 61.8%</tspan></textPath></text><defs><path d="M-483.9338408515457 -125.7300190037002L-96.78676817030914 -25.14600380074004" stroke="#aaa" stroke-width="2" fill="none" id="textpath-SCA"/></defs><text text-anchor="middle" dominant-baseline="middle" class="label"><textPath href="#textpath-SCA" startOffset="50%"><tspan>South Carolina | 50.7%</tspan></textPath></text><defs><path d="M-469.8056864997126 -171.12164367061735L-93.96113729994252 -34.224328734123475" stroke="#aaa" stroke-width="2" fill="none" id="textpath-ALA"/></defs><text text-anchor="middle" dominant-baseline="middle" class="label"><textPath href="#textpath-ALA" startOffset="50%"><tspan>Alabama | 45.3%</tspan></textPath></text><defs><path d="M-452.4423094403539 -212.82846761718477L-90.48846188807079 -42.565693523436956" stroke="#aaa" stroke-width="2" fill="none" id="textpath-LAA"/></defs><text text-anchor="middle" dominant-baseline="middle" class="label"><textPath href="#textpath-LAA" startOffset="50%"><tspan>Louisiana | 48.2%</tspan></textPath></text><defs><path d="M-432.4233994642608 -251.0179348089939L-86.48467989285216 -50.203586961798784" stroke="#aaa" stroke-width="2" fill="none" id="textpath-KYA"/></defs><text text-anchor="middle" dominant-baseline="middle" class="label"><textPath href="#textpath-KYA" startOffset="50%"><tspan>Kentucky | 51.4%</tspan></textPath></text><defs><path d="M-410.3572614909362 -285.66924570499253L-82.07145229818724 -57.13384914099851" stroke="#aaa" stroke-width="2" fill="none" id="textpath-ORA"/></defs><text text-anchor="middle" dominant-baseline="middle" class="label"><textPath href="#textpath-ORA" startOffset="50%"><tspan>Oregon | 63.4%</tspan></textPath></text><defs><path d="M-387.05511041807523 -316.5254199890612L-77.41102208361504 -63.30508399781224" stroke="#aaa" stroke-width="2" fill="none" id="textpath-OKA"/></defs><text text-anchor="middle" dominant-baseline="middle" class="label"><textPath href="#textpath-OKA" startOffset="50%"><tspan>Oklahoma | 50.8%</tspan></textPath></text><defs><path d="M-363.5642759146567 -343.2506624591588L-72.71285518293135 -68.65013249183176" stroke="#aaa" stroke-width="2" fill="none" id="textpath-CTA"/></defs><text text-anchor="middle" dominant-baseline="middle" class="label"><textPath href="#textpath-CTA" startOffset="50%"><tspan>Connecticut | 71.3%</tspan></textPath></text><defs><path d="M-340.84053720576054 -365.8247233270171L-68.1681074411521 -73.16494466540343" stroke="#aaa" stroke-width="2" fill="none" id="textpath-UTA"/></defs><text text-anchor="middle" dominant-baseline="middle" class="label"><textPath href="#textpath-UTA" startOffset="50%"><tspan>Utah | 54.5%</tspan></textPath></text><defs><path d="M-318.07647836079946 -385.7814846692255L-63.61529567215989 -77.1562969338451" stroke="#aaa" stroke-width="2" fill="none" id="textpath-PRA"/></defs><text text-anchor="middle" dominant-baseline="middle" class="label"><textPath href="#textpath-PRA" startOffset="50%"><tspan>Puerto Rico | 74.1%</tspan></textPath></text><defs><path d="M-294.3410399040578 -404.18232547725023L-58.86820798081156 -80.83646509545005" stroke="#aaa" stroke-width="2" fill="none" id="textpath-IAA"/></defs><text text-anchor="middle" dominant-baseline="middle" class="label"><textPath href="#textpath-IAA" startOffset="50%"><tspan>Iowa | 56.1%</tspan></textPath></text><defs><path d="M-269.99593918038863 -420.83511358500004L-53.99918783607772 -84.16702271700001" stroke="#aaa" stroke-width="2" fill="none" id="textpath-NVA"/></defs><text text-anchor="middle" dominant-baseline="middle" class="label"><textPath href="#textpath-NVA" startOffset="50%"><tspan>Nevada | 53.7%</tspan></textPath></text><defs><path d="M-245.27738127223262 -435.7051827052736L-49.055476254446525 -87.14103654105472" stroke="#aaa" stroke-width="2" fill="none" id="textpath-ARA"/></defs><text text-anchor="middle" dominant-baseline="middle" class="label"><textPath href="#textpath-ARA" startOffset="50%"><tspan>Arkansas | 48.7%</tspan></textPath></text><defs><path d="M-220.18431798133415 -448.9085275588945L-44.03686359626683 -89.7817055117789" stroke="#aaa" stroke-width="2" fill="none" id="textpath-MSA"/></defs><text text-anchor="middle" dominant-baseline="middle" class="label"><textPath href="#textpath-MSA" startOffset="50%"><tspan>Mississippi | 46.4%</tspan></textPath></text><defs><path d="M-194.8385291101501 -460.4757839172362L-38.96770582203002 -92.09515678344724" stroke="#aaa" stroke-width="2" fill="none" id="textpath-KSA"/></defs><text text-anchor="middle" dominant-baseline="middle" class="label"><textPath href="#textpath-KSA" startOffset="50%"><tspan>Kansas | 53.9%</tspan></textPath></text><defs><path d="M-172.79762432787854 -469.1918381926963L-34.55952486557571 -93.83836763853927" stroke="#aaa" stroke-width="2" fill="none" id="textpath-NMA"/></defs><text text-anchor="middle" dominant-baseline="middle" class="small-label-7"><textPath href="#textpath-NMA" startOffset="50%"><tspan>New Mexico | 62.8%</tspan></textPath></text><defs><path d="M-154.7789034022315 -475.44031282759636L-30.9557806804463 -95.08806256551927" stroke="#aaa" stroke-width="2" fill="none" id="textpath-NEA"/></defs><text text-anchor="middle" dominant-baseline="middle" class="small-label-7"><textPath href="#textpath-NEA" startOffset="50%"><tspan>Nebraska | 56.8%</tspan></textPath></text><defs><path d="M-137.92115202626263 -480.6014521656677L-27.584230405252523 -96.12029043313353" stroke="#aaa" stroke-width="2" fill="none" id="textpath-WVA"/></defs><text text-anchor="middle" dominant-baseline="middle" class="small-label-6"><textPath href="#textpath-WVA" startOffset="50%"><tspan>West Virginia | 41.1%</tspan></textPath></text><defs><path d="M-121.56823209829754 -484.9960463184153L-24.31364641965951 -96.99920926368306" stroke="#aaa" stroke-width="2" fill="none" id="textpath-IDA"/></defs><text text-anchor="middle" dominant-baseline="middle" class="small-label-6"><textPath href="#textpath-IDA" startOffset="50%"><tspan>Idaho | 44.5%</tspan></textPath></text><defs><path d="M-106.81568646173257 -488.4571722533193L-21.36313729234651 -97.69143445066386" stroke="#aaa" stroke-width="2" fill="none" id="textpath-HIA"/></defs><text text-anchor="middle" dominant-baseline="middle" class="small-label-5"><textPath href="#textpath-HIA" startOffset="50%"><tspan>Hawaii | 60.4%</tspan></textPath></text><defs><path d="M-93.95167415096078 -491.09376184617906L-18.790334830192158 -98.21875236923582" stroke="#aaa" stroke-width="2" fill="none" id="textpath-NHA"/></defs><text text-anchor="middle" dominant-baseline="middle" class="small-label-5"><textPath href="#textpath-NHA" startOffset="50%"><tspan>New Hampshire | 63.5%</tspan></textPath></text><defs><path d="M-81.35739717195395 -493.3365726615096L-16.27147943439079 -98.66731453230192" stroke="#aaa" stroke-width="2" fill="none" id="textpath-MEA"/></defs><text text-anchor="middle" dominant-baseline="middle" class="small-label-5"><textPath href="#textpath-MEA" startOffset="50%"><tspan>Maine | 71.4%</tspan></textPath></text><defs><path d="M-70.07300308976926 -495.06542419965183L-14.014600617953851 -99.01308483993037" stroke="#aaa" stroke-width="2" fill="none" id="textpath-MTA"/></defs><text text-anchor="middle" dominant-baseline="middle" class="small-label-4"><textPath href="#textpath-MTA" startOffset="50%"><tspan>Montana | 51.2%</tspan></textPath></text><defs><path d="M-60.090212012855304 -496.37603328550233L-12.01804240257106 -99.27520665710047" stroke="#aaa" stroke-width="2" fill="none" id="textpath-RIA"/></defs><text text-anchor="middle" dominant-baseline="middle" class="small-label-4"><textPath href="#textpath-RIA" startOffset="50%"><tspan>Rhode Island | 71.6%</tspan></textPath></text></g><text y="654" class="legend">
            <tspan x="-654">* Showing percentage of population fully vaccinated, having received all shots according to each countries chosen vaccine(s).</tspan>
            <tspan x="-654" dy="1.2em">Countries where no data was available are not counted towards a region's percentage.</tspan>
            </text><text y="-654" class="title" text-anchor="middle">
                <tspan x="0">Covid Vaccinations* by State</tspan>
            </text><text xmlns:xlink="http://www.w3.org/1999/xlink" y="654" class="sources" text-anchor="end">
    <tspan x="654">Data source:
        <a xlink:href="https://github.com/owid/covid-19-data/tree/master/public/data/vaccinations">
            <tspan>https://github.com/owid/covid-19-data/tree/master/public/data/vaccinations</tspan>
        </a>
    </tspan>
    <tspan x="654" dy="1.2em">Code source:
        <a xlink:href="https://github.com/WorldSEnder/vis_covid_vacc">
            <tspan>https://github.com/WorldSEnder/vis_covid_vacc</tspan>
        </a>
    </tspan>
    <tspan x="654" dy="1.2em">Timestamp: Sat Nov 13 22:00:15 2021 +0000</tspan>
</text><text text-anchor="middle" dominant-baseline="middle" class="label_all" x="0" y="0">
    <tspan>United States | 58.3%</tspan>
</text></svg>