<svg xmlns="http://www.w3.org/2000/svg" viewBox="-664 -684 1328 1388"><style>
text {
    font-family: "Open Sans";
}
.legend, .sources {
    font-size: 10pt;
}
.title {
    font-size: 20pt;
    font-weight: bold;
}
.label_all {
    font-size: 18pt;
}
.label {
}
.small-label-9 {
   font-size: 9pt;
}
.small-label-8 {
   font-size: 8pt;
}
.small-label-7 {
   font-size: 7pt;
}
.small-label-6 {
   font-size: 6pt;
}
.small-label-5 {
   font-size: 5pt;
}
.small-label-4 {
   font-size: 4pt;
}
a {
    text-decoration: underline;
}
</style><style type="text/css">
@font-face{
  font-family:'Open Sans';src:local('Open Sans')
             , local('OpenSans')
             , url(https://fonts.gstatic.com/s/opensans/v18/mem5YaGs126MiZpBA-UN_r8OUuhp.woff2) format('woff2');
  }
</style><defs><pattern id="diagonalHatch" width="10" height="10" patternTransform="rotate(45 0 0)" patternUnits="userSpaceOnUse">
  <line x1="0" y1="0" x2="0" y2="10" style="stroke:#444; stroke-width:1"/>
</pattern></defs><circle cx="0" cy="0" r="199.0" stroke="#aaa" stroke-width="2" fill="none"/><path d="M2.4554168322904432e-14 -401.0A401.0 401.0 0 0 1 272.6789550760902 -294.0190256745498" stroke="#aaa" stroke-width="2" fill="none"/><path d="M272.6789550760902 -294.0190256745498A401.0 401.0 0 0 1 386.0089212474168 -108.61911764236338" stroke="#aaa" stroke-width="2" fill="none"/><path d="M386.0089212474168 -108.61911764236338A401.0 401.0 0 0 1 397.50292130054703 52.84342492241691" stroke="#aaa" stroke-width="2" fill="none"/><path d="M397.50292130054703 52.84342492241691A401.0 401.0 0 0 1 351.8495734383457 192.36132062151725" stroke="#aaa" stroke-width="2" fill="none"/><path d="M351.8495734383457 192.36132062151725A401.0 401.0 0 0 1 295.4240849476833 271.1560621354868" stroke="#aaa" stroke-width="2" fill="none"/><path d="M295.4240849476833 271.1560621354868A401.0 401.0 0 0 1 222.5651424023364 333.5652220892156" stroke="#aaa" stroke-width="2" fill="none"/><path d="M222.5651424023364 333.5652220892156A401.0 401.0 0 0 1 143.9529319822513 374.2706953178586" stroke="#aaa" stroke-width="2" fill="none"/><path d="M143.9529319822513 374.2706953178586A401.0 401.0 0 0 1 66.35875376930557 395.4712578660865" stroke="#aaa" stroke-width="2" fill="none"/><path d="M66.35875376930557 395.4712578660865A401.0 401.0 0 0 1 -12.924590449366015 400.7916602946176" stroke="#aaa" stroke-width="2" fill="none"/><path d="M-12.924590449366015 400.7916602946176A401.0 401.0 0 0 1 -87.99342359994615 391.22647840242155" stroke="#aaa" stroke-width="2" fill="none"/><path d="M-87.99342359994615 391.22647840242155A401.0 401.0 0 0 1 -152.20648524846214 370.99081639349197" stroke="#aaa" stroke-width="2" fill="none"/><path d="M-152.20648524846214 370.99081639349197A401.0 401.0 0 0 1 -209.89189182097283 341.68171409634" stroke="#aaa" stroke-width="2" fill="none"/><path d="M-209.89189182097283 341.68171409634A401.0 401.0 0 0 1 -256.7856637456892 307.99695273603896" stroke="#aaa" stroke-width="2" fill="none"/><path d="M-256.7856637456892 307.99695273603896A401.0 401.0 0 0 1 -296.64522477208493 269.81958902184846" stroke="#aaa" stroke-width="2" fill="none"/><path d="M-296.64522477208493 269.81958902184846A401.0 401.0 0 0 1 -329.2204513600952 228.94299379158824" stroke="#aaa" stroke-width="2" fill="none"/><path d="M-329.2204513600952 228.94299379158824A401.0 401.0 0 0 1 -355.98116727004526 184.60338173786542" stroke="#aaa" stroke-width="2" fill="none"/><path d="M-355.98116727004526 184.60338173786542A401.0 401.0 0 0 1 -376.5518222215621 137.87575994938743" stroke="#aaa" stroke-width="2" fill="none"/><path d="M-376.5518222215621 137.87575994938743A401.0 401.0 0 0 1 -389.992901590436 93.3088243901536" stroke="#aaa" stroke-width="2" fill="none"/><path d="M-389.992901590436 93.3088243901536A401.0 401.0 0 0 1 -398.0955825330114 48.175794416930074" stroke="#aaa" stroke-width="2" fill="none"/><path d="M-398.0955825330114 48.175794416930074A401.0 401.0 0 0 1 -400.97896840669796 4.106932614533967" stroke="#aaa" stroke-width="2" fill="none"/><path d="M-400.97896840669796 4.106932614533967A401.0 401.0 0 0 1 -399.04676560409507 -39.53073311880801" stroke="#aaa" stroke-width="2" fill="none"/><path d="M-399.04676560409507 -39.53073311880801A401.0 401.0 0 0 1 -392.56509434063094 -81.81470959021696" stroke="#aaa" stroke-width="2" fill="none"/><path d="M-392.56509434063094 -81.81470959021696A401.0 401.0 0 0 1 -382.74375916356786 -119.61695039308087" stroke="#aaa" stroke-width="2" fill="none"/><path d="M-382.74375916356786 -119.61695039308087A401.0 401.0 0 0 1 -370.01365364921963 -154.56680145864223" stroke="#aaa" stroke-width="2" fill="none"/><path d="M-370.01365364921963 -154.56680145864223A401.0 401.0 0 0 1 -355.00179208616737 -186.47983165910892" stroke="#aaa" stroke-width="2" fill="none"/><path d="M-355.00179208616737 -186.47983165910892A401.0 401.0 0 0 1 -337.98563978818635 -215.7932049369728" stroke="#aaa" stroke-width="2" fill="none"/><path d="M-337.98563978818635 -215.7932049369728A401.0 401.0 0 0 1 -319.70327850061676 -242.0553938997375" stroke="#aaa" stroke-width="2" fill="none"/><path d="M-319.70327850061676 -242.0553938997375A401.0 401.0 0 0 1 -300.6979849870559 -265.29553675990155" stroke="#aaa" stroke-width="2" fill="none"/><path d="M-300.6979849870559 -265.29553675990155A401.0 401.0 0 0 1 -282.12729259874374 -284.9652448473372" stroke="#aaa" stroke-width="2" fill="none"/><path d="M-282.12729259874374 -284.9652448473372A401.0 401.0 0 0 1 -264.3293882825402 -301.5476322078787" stroke="#aaa" stroke-width="2" fill="none"/><path d="M-264.3293882825402 -301.5476322078787A401.0 401.0 0 0 1 -245.6323344925201 -316.963335816234" stroke="#aaa" stroke-width="2" fill="none"/><path d="M-245.6323344925201 -316.963335816234A401.0 401.0 0 0 1 -226.28031014665618 -331.0562206633989" stroke="#aaa" stroke-width="2" fill="none"/><path d="M-226.28031014665618 -331.0562206633989A401.0 401.0 0 0 1 -206.60924876208588 -343.67661882351916" stroke="#aaa" stroke-width="2" fill="none"/><path d="M-206.60924876208588 -343.67661882351916A401.0 401.0 0 0 1 -186.65527799113607 -354.909576086715" stroke="#aaa" stroke-width="2" fill="none"/><path d="M-186.65527799113607 -354.909576086715A401.0 401.0 0 0 1 -166.3803313526603 -364.85419737064694" stroke="#aaa" stroke-width="2" fill="none"/><path d="M-166.3803313526603 -364.85419737064694A401.0 401.0 0 0 1 -146.02192941482735 -373.46833350362004" stroke="#aaa" stroke-width="2" fill="none"/><path d="M-146.02192941482735 -373.46833350362004A401.0 401.0 0 0 1 -131.0909062847392 -378.9672469877123" stroke="#aaa" stroke-width="2" fill="none"/><path d="M-131.0909062847392 -378.9672469877123A401.0 401.0 0 0 1 -117.13286652310285 -383.5112665621194" stroke="#aaa" stroke-width="2" fill="none"/><path d="M-117.13286652310285 -383.5112665621194A401.0 401.0 0 0 1 -104.06085287256846 -387.26262264700125" stroke="#aaa" stroke-width="2" fill="none"/><path d="M-104.06085287256846 -387.26262264700125A401.0 401.0 0 0 1 -90.90671317707236 -390.5598155204161" stroke="#aaa" stroke-width="2" fill="none"/><path d="M-90.90671317707236 -390.5598155204161A401.0 401.0 0 0 1 -80.41027162444506 -392.8551746092738" stroke="#aaa" stroke-width="2" fill="none"/><path d="M-80.41027162444506 -392.8551746092738A401.0 401.0 0 0 1 -70.27574083799658 -394.79402256071546" stroke="#aaa" stroke-width="2" fill="none"/><path d="M-70.27574083799658 -394.79402256071546A401.0 401.0 0 0 1 -60.210968172697214 -396.45382998743554" stroke="#aaa" stroke-width="2" fill="none"/><path d="M-60.210968172697214 -396.45382998743554A401.0 401.0 0 0 1 -52.18038104639696 -397.590502695742" stroke="#aaa" stroke-width="2" fill="none"/><path d="M-52.18038104639696 -397.590502695742A401.0 401.0 0 0 1 -44.199476597248896 -398.556653775256" stroke="#aaa" stroke-width="2" fill="none"/><path d="M-44.199476597248896 -398.556653775256A401.0 401.0 0 0 1 -36.84768830498767 -399.3034533616989" stroke="#aaa" stroke-width="2" fill="none"/><path d="M-36.84768830498767 -399.3034533616989A401.0 401.0 0 0 1 -30.157716792212618 -399.86436715201404" stroke="#aaa" stroke-width="2" fill="none"/><path d="M-30.157716792212618 -399.86436715201404A401.0 401.0 0 0 1 -24.388002379747917 -400.2576986641549" stroke="#aaa" stroke-width="2" fill="none"/><path d="M-24.388002379747917 -400.2576986641549A401.0 401.0 0 0 1 -18.844551084257862 -400.5569658543374" stroke="#aaa" stroke-width="2" fill="none"/><path d="M-18.844551084257862 -400.5569658543374A401.0 401.0 0 0 1 -13.493140111807863 -400.77292220149195" stroke="#aaa" stroke-width="2" fill="none"/><path d="M-13.493140111807863 -400.77292220149195A401.0 401.0 0 0 1 -8.759646796674833 -400.90431350634964" stroke="#aaa" stroke-width="2" fill="none"/><path d="M-8.759646796674833 -400.90431350634964A401.0 401.0 0 0 1 -4.3681557747690265 -400.97620779184314" stroke="#aaa" stroke-width="2" fill="none"/><path d="M-4.3681557747690265 -400.97620779184314A401.0 401.0 0 0 1 -3.08957786929225 -400.98809771437055" stroke="#aaa" stroke-width="2" fill="none"/><path d="M-3.08957786929225 -400.98809771437055A401.0 401.0 0 0 1 -2.282979772245378 -400.99350119841034" stroke="#aaa" stroke-width="2" fill="none"/><path d="M-2.282979772245378 -400.99350119841034A401.0 401.0 0 0 1 -1.5064998693029468 -400.9971701373263" stroke="#aaa" stroke-width="2" fill="none"/><path d="M-1.5064998693029468 -400.9971701373263A401.0 401.0 0 0 1 -0.9165396809237174 -400.99895256099273" stroke="#aaa" stroke-width="2" fill="none"/><path d="M-0.9165396809237174 -400.99895256099273A401.0 401.0 0 0 1 -0.5230521056319023 -400.9996588732898" stroke="#aaa" stroke-width="2" fill="none"/><path d="M-0.5230521056319023 -400.9996588732898A401.0 401.0 0 0 1 -0.16340260026115583 -400.99996670771714" stroke="#aaa" stroke-width="2" fill="none"/><path d="M-0.16340260026115583 -400.99996670771714A401.0 401.0 0 0 1 -4.298220512684635e-13 -401.0" stroke="#aaa" stroke-width="2" fill="none"/><g><circle fill="#279ee3" r="162.686007773398"/><path d="M0.5000000000000009 -199.99937499902342L0.5000000000000441 -362.8026035333252A362.80294807313675 362.80294807313675 0 0 1 246.33821774941367 -266.35213835560177L135.63244657797392 -146.98244601064795A200 200 0 0 0 0.5000000000000009 -199.99937499902342" fill="#878500"/><path d="M136.36566110584067 -146.30244861644323L230.5878421204123 -247.89853200727535A338.5623060901941 338.5623060901941 0 0 1 325.7696221255173 -92.18778880799756L192.3871157972804 -54.655262099854816A200 200 0 0 0 136.36566110584067 -146.30244861644323" fill="#00a76c"/><path d="M192.65798641484238 -53.69264633614554L339.4294125541488 -94.99268352400226A352.4711846803165 352.4711846803165 0 0 1 349.4628586710083 45.95265432412679L198.3210911043806 25.860100989129492A200 200 0 0 0 192.65798641484238 -53.69264633614554" fill="#bdbdbd"/><path d="M198.18931198986084 26.851380094617138L358.4995173149472 48.162771396288505A361.7202737801978 361.7202737801978 0 0 1 317.6238980170665 173.07979625613544L175.7253751662167 95.50179329568836A200 200 0 0 0 198.18931198986084 26.851380094617138" fill="#ebac23"/><path d="M175.24567112476655 96.37922365338999L325.470448936846 178.50931228079395A371.20962770665597 371.20962770665597 0 0 1 273.8148207975676 250.64323572302933L147.68132264404693 134.87114940603462A200 200 0 0 0 175.24567112476655 96.37922365338999" fill="#b80058"/><path d="M147.0051229878487 135.60786782236303L255.0361021578868 234.76449178406835A346.6378225273751 346.6378225273751 0 0 1 192.80847552446838 288.0671306700063L111.42062839920335 166.0886617657167A200 200 0 0 0 147.0051229878487 135.60786782236303" fill="#008cf9"/><path d="M110.58879492765914 166.64368705849063L182.10233839911874 273.8232334733643A328.8471146904527 328.8471146904527 0 0 1 118.51767322301933 306.7474302647658L72.26342088126214 186.48860019458982A200 200 0 0 0 110.58879492765914 166.64368705849063" fill="#006e00"/><path d="M71.33007750141714 186.84758506237597L118.09403938103473 308.4316354008593A330.26697663160024 330.26697663160024 0 0 1 55.146672054302805 325.63034320332184L33.589638175831034 197.1591646543897A200 200 0 0 0 71.33007750141714 186.84758506237597" fill="#00bbad"/><path d="M32.60342556269867 197.32464783087178L56.84863244680941 341.816247191164A346.5113473681971 346.5113473681971 0 0 1 -10.668620344748716 346.34707216152844L-5.9464194060953774 199.9115806956836A200 200 0 0 0 32.60342556269867 197.32464783087178" fill="#d163e6"/><path d="M-6.945899855707868 199.87934979680736L-11.251482499474164 333.3955043775833A333.5853087256978 333.5853087256978 0 0 1 -72.71238694660953 325.5642286587174L-43.3990436030233 195.2345333549956A200 200 0 0 0 -6.945899855707868 199.87934979680736" fill="#b24502"/><path d="M-44.37467073120887 195.01509838342466L-80.2478852344501 354.51055616768485A363.479652138772 363.479652138772 0 0 1 -137.50227570976946 336.4678018675149L-75.45063968153059 185.22203155037425A200 200 0 0 0 -44.37467073120887 195.01509838342466" fill="#ff9287"/><path d="M-76.37580381218766 184.84246425549034L-136.01416612920357 330.20607795593975A357.1216981742593 357.1216981742593 0 0 1 -186.49883919330398 304.55556190359897L-104.25787113343897 170.67599803933544A200 200 0 0 0 -76.37580381218766 184.84246425549034" fill="#5954d6"/><path d="M-105.1099452334299 170.1525768627245L-185.17875083254097 300.49609087557604A352.9717699638354 352.9717699638354 0 0 1 -225.64588733217096 271.42771398934184L-127.68821391890077 153.9341418470933A200 200 0 0 0 -105.1099452334299 170.1525768627245" fill="#00c6f8"/><path d="M-128.45628612023756 153.2937785958571L-217.2924069356039 259.8466682895785A338.7274437258698 338.7274437258698 0 0 1 -250.24154467703738 228.28808652821243L-147.61583480386753 134.9428223921424A200 200 0 0 0 -128.45628612023756 153.2937785958571" fill="#878500"/><path d="M-148.28870160940832 134.20305873934416L-275.77017590646767 250.15637984592672A372.32701258047837 372.32701258047837 0 0 1 -305.39422720789287 212.9830281623341L-163.91374815964994 114.59617430025688A200 200 0 0 0 -148.28870160940832 134.20305873934416" fill="#00a76c"/><path d="M-164.48467831873123 113.77517566843616L-268.33873815216515 185.99626423522955A326.49699646789645 326.49699646789645 0 0 1 -289.6118302588169 150.74905132933947L-177.31598322833648 92.51509115689339A200 200 0 0 0 -164.48467831873123 113.77517566843616" fill="#bdbdbd"/><path d="M-177.77634078878006 91.62735757267876L-288.32273665654935 148.95409390713834A324.52630488886183 324.52630488886183 0 0 1 -304.56830061259024 112.0512062709606L-187.63389331441672 69.23526615586948A200 200 0 0 0 -177.77634078878006 91.62735757267876" fill="#ebac23"/><path d="M-187.97772313972695 68.29623418025456L-311.29123526986933 113.44790572618993A331.31957453416425 331.31957453416425 0 0 1 -322.1084306179049 77.58105048508921L-194.3932223440094 47.02419703421343A200 200 0 0 0 -187.97772313972695 68.29623418025456" fill="#b80058"/><path d="M-194.62591267914695 46.05164615742923L-348.90260526364875 82.96354059744337A358.6306972753798 358.6306972753798 0 0 1 -355.9727423775088 43.581919559157576L-198.49072269143633 24.52413108412463A200 200 0 0 0 -194.62591267914695 46.05164615742923" fill="#008cf9"/><path d="M-198.61086182963317 23.531374020451217L-339.1602209614091 40.54004562610071A341.5745171729855 341.5745171729855 0 0 1 -341.55111552233114 3.9982830576865287L-199.983764595475 2.548312818636561A200 200 0 0 0 -198.61086182963317 23.531374020451217" fill="#006e00"/><path d="M-199.99400632269334 1.5483652665000907L-350.3548761555154 3.0884010512193933A350.3684881192938 350.3684881192938 0 0 1 -348.71081035728923 -34.04185962843922L-199.07448649067385 -19.218450210006825A200 200 0 0 0 -199.99400632269334 1.5483652665000907" fill="#00bbad"/><path d="M-198.97590610883145 -20.213579301288924L-344.3918386597912 -34.618904482141815A346.1274434121272 346.1274434121272 0 0 1 -338.9484240929012 -70.1296862102927L-195.89446600836402 -40.31573126334082A200 200 0 0 0 -198.97590610883145 -20.213579301288924" fill="#d163e6"/><path d="M-195.6904393011565 -41.2946965858861L-325.2993039061826 -68.30655212487312A332.3934749435298 332.3934749435298 0 0 1 -317.4094580092229 -98.67450608605206L-191.04319474485501 -59.181903836218375A200 200 0 0 0 -195.6904393011565 -41.2946965858861" fill="#b24502"/><path d="M-190.74489811045828 -60.136377051090186L-310.9361197046676 -97.6991250957272A325.923901519152 325.923901519152 0 0 1 -300.9312596105454 -125.16695478710197L-184.73761314633012 -76.62906947756103A200 200 0 0 0 -190.74489811045828 -60.136377051090186" fill="#ff9287"/><path d="M-184.35215977610903 -77.55179679339456L-299.4119142436713 -125.61601834108863A324.69505455877874 324.69505455877874 0 0 1 -287.6818690729325 -150.5523851077505L-177.29021560248452 -92.56446106160048A200 200 0 0 0 -184.35215977610903 -77.55179679339456" fill="#5954d6"/><path d="M-176.82517861580342 -93.44975231368574L-293.7843400610875 -154.88754001931272A332.11351751827704 332.11351751827704 0 0 1 -280.1929403815027 -178.30116286421296L-168.83993346321904 -107.20576881929335A200 200 0 0 0 -176.82517861580342 -93.44975231368574" fill="#00c6f8"/><path d="M-168.30179579504698 -108.04862577637118L-295.87078047884864 -189.49741180386363A351.3527968033357 351.3527968033357 0 0 1 -280.42283043680345 -211.68803459652105L-159.75432314766073 -120.32687245845291A200 200 0 0 0 -168.30179579504698 -108.04862577637118" fill="#878500"/><path d="M-159.1506937364394 -121.12413749212033L-267.82852044322794 -203.40685375030958A336.3130454136568 336.3130454136568 0 0 1 -252.52167353212596 -222.12444465196256L-150.30438112034133 -131.94162730552924A200 200 0 0 0 -159.1506937364394 -121.12413749212033" fill="#00a76c"/><path d="M-149.64279624064082 -132.69149759228006L-277.4022247407964 -245.40926708962493A370.37508375241737 370.37508375241737 0 0 1 -260.9359277574396 -262.85004141139956L-141.06674516792776 -141.77508034815895A200 200 0 0 0 -149.64279624064082 -132.69149759228006" fill="#bdbdbd"/><path d="M-140.3561086471114 -142.47863968132296L-237.61460958983892 -240.71547554125328A338.2375538812674 338.2375538812674 0 0 1 -223.33367042736543 -254.02109067757382L-132.2106889438558 -150.06776379019914A200 200 0 0 0 -140.3561086471114 -142.47863968132296" fill="#ebac23"/><path d="M-131.45869983610544 -150.72693932207585L-246.29193381629958 -281.72898200257987A374.20707631361336 374.20707631361336 0 0 1 -229.61535500116324 -295.4788058573275L-122.90472580040701 -157.77968302644916A200 200 0 0 0 -131.45869983610544 -150.72693932207585" fill="#b80058"/><path d="M-122.1142935415136 -158.39223248902405L-205.6211249313806 -266.14923400700644A336.3264214725966 336.3264214725966 0 0 1 -190.19823184952338 -277.38077507620756L-113.2704456714417 -164.8326610153248A200 200 0 0 0 -122.1142935415136 -158.39223248902405" fill="#008cf9"/><path d="M-112.44486906130848 -165.39695106556587L-193.11400963625087 -283.4188009808157A342.95661163942185 342.95661163942185 0 0 1 -177.13159823875716 -293.6726653479631L-103.47520930385711 -171.15163177581147A200 200 0 0 0 -112.44486906130848 -165.39695106556587" fill="#006e00"/><path d="M-102.61816037911014 -171.66686681013093L-171.12041167891147 -285.6144381292855A332.95315370344156 332.95315370344156 0 0 1 -155.42356153339634 -294.45087719574235L-93.53714146269216 -176.77896698133608A200 200 0 0 0 -102.61816037911014 -171.66686681013093" fill="#00bbad"/><path d="M-92.65208017569282 -177.2444414900422L-149.2723761429377 -284.90325219130443A321.6397136370767 321.6397136370767 0 0 1 -133.90744281488927 -292.4395700778502L-83.43738000336116 -181.76414282848722A200 200 0 0 0 -92.65208017569282 -177.2444414900422" fill="#d163e6"/><path d="M-82.52751916203778 -182.17905637300763L-141.3970568542934 -311.27362993027754A341.88360647598716 341.88360647598716 0 0 1 -124.96056017677888 -318.2283123440359L-73.29433612436112 -186.0858411918789A200 200 0 0 0 -82.52751916203778 -182.17905637300763" fill="#b24502"/><path d="M-72.36299364679593 -186.44998565426002L-130.10187074028644 -334.1239842987855A358.56008374304196 358.56008374304196 0 0 1 -117.68928742746118 -338.6953871528718L-65.85432156732483 -188.84705009850532A200 200 0 0 0 -72.36299364679593 -186.44998565426002" fill="#ff9287"/><path d="M-64.90926608855241 -189.17396008924035L-110.2396657212732 -320.2184180194611A338.6629875513774 338.6629875513774 0 0 1 -99.40219181262637 -323.7465419121419L-58.898393341011655 -191.1307909831576A200 200 0 0 0 -64.90926608855241 -189.17396008924035" fill="#5954d6"/><path d="M-57.942006142602324 -191.42289289468656L-91.5052814664884 -301.31428897776533A314.9023932561287 314.9023932561287 0 0 1 -82.20100154203121 -303.98439536253255L-52.38338366010608 -193.0180849462509A200 200 0 0 0 -57.942006142602324 -191.42289289468656" fill="#00c6f8"/><path d="M-51.41764145899129 -193.27758831999796L-81.51220579029854 -305.27455536996945A315.9696090593722 315.9696090593722 0 0 1 -72.11721338597762 -307.6294871799091L-45.826847197980506 -194.67896670131816A200 200 0 0 0 -51.41764145899129 -193.27758831999796" fill="#878500"/><path d="M-44.85288257074748 -194.9056667341787L-83.22185343622347 -359.74913823599564A369.24967075259764 369.24967075259764 0 0 1 -74.533333388807 -361.64914152373524L-40.59459265759444 -195.83686845679486A200 200 0 0 0 -44.85288257074748 -194.9056667341787" fill="#00a76c"/><path d="M-39.614903942858035 -196.03739282493564L-73.64973417194358 -362.3191240307733A369.728861440414 369.728861440414 0 0 1 -65.28763815204067 -363.9188855865453L-35.54239714831181 -196.81650846651985A200 200 0 0 0 -39.614903942858035 -196.03739282493564" fill="#bdbdbd"/><path d="M-34.55787340127754 -196.99175969055474L-63.797032864884 -361.251079382993A366.8411151407931 366.8411151407931 0 0 1 -55.57622221061856 -362.6067943138084L-30.524645679848543 -197.65688959942608A200 200 0 0 0 -34.55787340127754 -196.99175969055474" fill="#ebac23"/><path d="M-29.535982762174072 -197.807041639757L-49.231399933778924 -327.489785628978A331.1695795672568 331.1695795672568 0 0 1 -43.58935263999925 -328.28837744760233L-26.520795131765993 -198.23382008521878A200 200 0 0 0 -29.535982762174072 -197.807041639757" fill="#b80058"/><path d="M-25.529297618808965 -198.3639457237385L-47.510358283943006 -365.8495175877183A368.92154133831065 368.92154133831065 0 0 1 -41.1606044478246 -366.6182050920611L-22.541511275863797 -198.72564069440085A200 200 0 0 0 -25.529297618808965 -198.3639457237385" fill="#008cf9"/><path d="M-21.547604408593767 -198.83586382805981L-38.353980207891084 -350.3827466496142A352.4756685893581 352.4756685893581 0 0 1 -32.886663916431175 -350.9381203060772L-18.875726578147685 -199.10727497042143A200 200 0 0 0 -21.547604408593767 -198.83586382805981" fill="#006e00"/><path d="M-17.879957367769318 -199.19916446744134L-30.88047693897907 -340.08052226968056A341.47967067337623 341.47967067337623 0 0 1 -26.17997092938365 -340.47463136823296L-15.539792252907974 -199.395373207947A200 200 0 0 0 -17.879957367769318 -199.19916446744134" fill="#00bbad"/><path d="M-14.542624255022588 -199.4705794842368L-24.17254218740606 -327.15468323418236A328.0464884095852 328.0464884095852 0 0 1 -20.45016981654986 -327.40844386230236L-12.662628635302669 -199.59874207029566A200 200 0 0 0 -14.542624255022588 -199.4705794842368" fill="#d163e6"/><path d="M-11.664479760828401 -199.6595600313424L-19.93352269746249 -335.3717042420835A335.9635773910169 335.9635773910169 0 0 1 -16.28766650408134 -335.5685284010132L-9.898196812757915 -199.75491408187162A200 200 0 0 0 -11.664479760828401 -199.6595600313424" fill="#b24502"/><path d="M-8.89930163606374 -199.80190797484983L-16.622721829635303 -363.9697751170624A364.3491623152034 364.3491623152034 0 0 1 -12.75959134325336 -364.1256718614379L-7.229441521786996 -199.86929522886464A200 200 0 0 0 -8.89930163606374 -199.80190797484983" fill="#ff9287"/><path d="M-6.230007800586201 -199.90294395732303L-11.991794376500152 -371.0393898843619A371.2331234926752 371.2331234926752 0 0 1 -8.609277427092154 -371.13328107340516L-4.868768182793897 -199.9407289583146A200 200 0 0 0 -6.230007800586201 -199.90294395732303" fill="#5954d6"/><path d="M-3.8690068024787436 -199.96257346404195L-6.493227525642909 -320.0657502163922A320.1316080384468 320.1316080384468 0 0 1 -3.9872098020565745 -320.1067769093246L-2.67859483478333 -199.98206201984985A200 200 0 0 0 -3.8690068024787436 -199.96257346404195" fill="#00c6f8"/><path d="M-1.678654166973181 -199.9929551763954L-3.499648299422097 -367.1516737042803A367.1683524516703 367.1683524516703 0 0 1 -3.3288982869572488 -367.1532615656152L-2.0409169369737232 -199.98958637403192A200 200 0 0 0 -1.678654166973181 -199.9929551763954" fill="#878500"/><path d="M-1.0409466184839549 -199.99729105699774L-1.9860457305607613 -322.6591921761981A322.6653044153347 322.6653044153347 0 0 1 -2.3369930906776046 -322.65684114355105L-1.6386316164182217 -199.99328710340674A200 200 0 0 0 -1.0409466184839549 -199.99729105699774" fill="#00a76c"/><path d="M-0.6386478229059104 -199.99898031979637L-1.25956833289222 -309.06043250268783A309.06299916219945 309.06299916219945 0 0 1 -1.6611006075091128 -309.05853522578116L-1.2513656293400903 -199.99608517183958A200 200 0 0 0 -0.6386478229059104 -199.99898031979637" fill="#bdbdbd"/><path d="M-0.25137268635417315 -199.999842029369L-0.5481757326776519 -279.0022927358076A279.00283125529603 279.00283125529603 0 0 1 -1.1376963381143181 -279.00051164023597L-0.9571242883467767 -199.99770976962876A200 200 0 0 0 -0.25137268635417315 -199.999842029369" fill="#ebac23"/><path d="M0.04287309958593962 -199.99999540474326L-0.3168090960164411 -357.36599569185773A357.3661361192974 357.3661361192974 0 0 1 -0.96613654977917 -357.3648301456137L-0.7608726275684833 -199.99855267687468A200 200 0 0 0 0.04287309958593962 -199.99999540474326" fill="#b80058"/><path d="M0.23912652174153248 -199.99985704621542L0.030454711049881837 -359.97880369963974A359.97880498789533 359.97880498789533 0 0 1 -0.6466867815148111 -359.97822411462585L-0.5814972600481751 -199.99915465055486A200 200 0 0 0 0.23912652174153248 -199.99985704621542" fill="#008cf9"/><path d="M0.4185026569287416 -199.99956213833605L0.3472481408519344 -374.862499012251A374.86265984621787 374.86265984621787 0 0 1 -0.50000000000025 -374.8623263906114L-0.5000000000002475 -199.99937499902342A200 200 0 0 0 0.4185026569287416 -199.99956213833605" fill="#006e00"/></g><g><defs><path d="M36.52297031549408 -93.09174313188866L182.61485157747038 -465.4587156594433" stroke="#aaa" stroke-width="2" fill="none" id="textpath-CAA"/></defs><text text-anchor="middle" dominant-baseline="middle" class="label"><textPath href="#textpath-CAA" startOffset="50%"><tspan>California | 76.4%</tspan></textPath></text><defs><path d="M85.32203522461226 -52.15506020636946L426.61017612306136 -260.77530103184733" stroke="#aaa" stroke-width="2" fill="none" id="textpath-TXA"/></defs><text text-anchor="middle" dominant-baseline="middle" class="label"><textPath href="#textpath-TXA" startOffset="50%"><tspan>Texas | 62.2%</tspan></textPath></text><defs><path d="M99.74758100600161 -7.1007100666868705L498.73790503000805 -35.503550333434355" stroke="#aaa" stroke-width="2" fill="none" id="textpath-FLA"/></defs><text text-anchor="middle" dominant-baseline="middle" class="label"><textPath href="#textpath-FLA" startOffset="50%"><tspan>Florida | 70.2%</tspan></textPath></text><defs><path d="M95.04113336593568 31.099565407227608L475.2056668296784 155.49782703613803" stroke="#aaa" stroke-width="2" fill="none" id="textpath-NYA"/></defs><text text-anchor="middle" dominant-baseline="middle" class="label"><textPath href="#textpath-NYA" startOffset="50%"><tspan>New York State | 75.7%</tspan></textPath></text><defs><path d="M81.30324088432391 58.22184316650926L406.5162044216196 291.1092158325463" stroke="#aaa" stroke-width="2" fill="none" id="textpath-PAA"/></defs><text text-anchor="middle" dominant-baseline="middle" class="label"><textPath href="#textpath-PAA" startOffset="50%"><tspan>Pennsylvania | 81.5%</tspan></textPath></text><defs><path d="M65.05427915372842 75.94696020110861L325.27139576864204 379.7348010055431" stroke="#aaa" stroke-width="2" fill="none" id="textpath-ILA"/></defs><text text-anchor="middle" dominant-baseline="middle" class="label"><textPath href="#textpath-ILA" startOffset="50%"><tspan>Illinois | 66.8%</tspan></textPath></text><defs><path d="M45.98148635837826 88.80148034956554L229.90743179189133 444.00740174782766" stroke="#aaa" stroke-width="2" fill="none" id="textpath-OHA"/></defs><text text-anchor="middle" dominant-baseline="middle" class="label"><textPath href="#textpath-OHA" startOffset="50%"><tspan>Ohio | 56.8%</tspan></textPath></text><defs><path d="M26.356303102243196 96.46421764977254L131.78151551121599 482.3210882488627" stroke="#aaa" stroke-width="2" fill="none" id="textpath-GAA"/></defs><text text-anchor="middle" dominant-baseline="middle" class="label"><textPath href="#textpath-GAA" startOffset="50%"><tspan>Georgia | 57.6%</tspan></textPath></text><defs><path d="M6.695559157382901 99.77559565129134L33.477795786914506 498.8779782564567" stroke="#aaa" stroke-width="2" fill="none" id="textpath-NCA"/></defs><text text-anchor="middle" dominant-baseline="middle" class="label"><textPath href="#textpath-NCA" startOffset="50%"><tspan>North Carolina | 66.7%</tspan></textPath></text><defs><path d="M-63.19844306380502 495.98987569738864L-12.639688612761004 99.19797513947772" stroke="#aaa" stroke-width="2" fill="none" id="textpath-MIA"/></defs><text text-anchor="middle" dominant-baseline="middle" class="label"><textPath href="#textpath-MIA" startOffset="50%"><tspan>Michigan | 59.4%</tspan></textPath></text><defs><path d="M-150.28103451068955 476.88112844439223L-30.056206902137912 95.37622568887845" stroke="#aaa" stroke-width="2" fill="none" id="textpath-NJA"/></defs><text text-anchor="middle" dominant-baseline="middle" class="label"><textPath href="#textpath-NJA" startOffset="50%"><tspan>New Jersey | 76.8%</tspan></textPath></text><defs><path d="M-226.4854206449328 445.7626658158889L-45.29708412898656 89.15253316317778" stroke="#aaa" stroke-width="2" fill="none" id="textpath-VAA"/></defs><text text-anchor="middle" dominant-baseline="middle" class="label"><textPath href="#textpath-VAA" startOffset="50%"><tspan>Virginia | 72.9%</tspan></textPath></text><defs><path d="M-291.7030289391885 406.09031373292186L-58.34060578783771 81.21806274658438" stroke="#aaa" stroke-width="2" fill="none" id="textpath-WAA"/></defs><text text-anchor="middle" dominant-baseline="middle" class="label"><textPath href="#textpath-WAA" startOffset="50%"><tspan>Washington | 70.5%</tspan></textPath></text><defs><path d="M-345.8516967780507 361.0908526060211L-69.17033935561014 72.21817052120421" stroke="#aaa" stroke-width="2" fill="none" id="textpath-AZA"/></defs><text text-anchor="middle" dominant-baseline="middle" class="label"><textPath href="#textpath-AZA" startOffset="50%"><tspan>Arizona | 62.3%</tspan></textPath></text><defs><path d="M-391.0218974830746 311.61173868892666L-78.20437949661492 62.322347737785336" stroke="#aaa" stroke-width="2" fill="none" id="textpath-MAA"/></defs><text text-anchor="middle" dominant-baseline="middle" class="label"><textPath href="#textpath-MAA" startOffset="50%"><tspan>Massachusetts | 82.2%</tspan></textPath></text><defs><path d="M-428.0765181079105 258.3611709305556L-85.6153036215821 51.67223418611112" stroke="#aaa" stroke-width="2" fill="none" id="textpath-TNA"/></defs><text text-anchor="middle" dominant-baseline="middle" class="label"><textPath href="#textpath-TNA" startOffset="50%"><tspan>Tennessee | 55.5%</tspan></textPath></text><defs><path d="M-457.6195966380194 201.45546597910032L-91.52391932760388 40.29109319582007" stroke="#aaa" stroke-width="2" fill="none" id="textpath-INA"/></defs><text text-anchor="middle" dominant-baseline="middle" class="label"><textPath href="#textpath-INA" startOffset="50%"><tspan>Indiana | 54.4%</tspan></textPath></text><defs><path d="M-478.7027383892407 144.37343335476294L-95.74054767784814 28.87468667095259" stroke="#aaa" stroke-width="2" fill="none" id="textpath-MOA"/></defs><text text-anchor="middle" dominant-baseline="middle" class="label"><textPath href="#textpath-MOA" startOffset="50%"><tspan>Missouri | 58.1%</tspan></textPath></text><defs><path d="M-492.13203720889186 88.35189840985794L-98.42640744177838 17.67037968197159" stroke="#aaa" stroke-width="2" fill="none" id="textpath-MDA"/></defs><text text-anchor="middle" dominant-baseline="middle" class="label"><textPath href="#textpath-MDA" startOffset="50%"><tspan>Maryland | 73.8%</tspan></textPath></text><defs><path d="M-498.93318232562876 32.644748037331375L-99.78663646512575 6.528949607466275" stroke="#aaa" stroke-width="2" fill="none" id="textpath-WIA"/></defs><text text-anchor="middle" dominant-baseline="middle" class="label"><textPath href="#textpath-WIA" startOffset="50%"><tspan>Wisconsin | 63.9%</tspan></textPath></text><defs><path d="M-499.51057699851276 -22.117492321979785L-99.90211539970255 -4.423498464395957" stroke="#aaa" stroke-width="2" fill="none" id="textpath-COA"/></defs><text text-anchor="middle" dominant-baseline="middle" class="label"><textPath href="#textpath-COA" startOffset="50%"><tspan>Colorado | 69.0%</tspan></textPath></text><defs><path d="M-494.2271543934116 -75.75961892849571L-98.84543087868232 -15.151923785699143" stroke="#aaa" stroke-width="2" fill="none" id="textpath-MNA"/></defs><text text-anchor="middle" dominant-baseline="middle" class="label"><textPath href="#textpath-MNA" startOffset="50%"><tspan>Minnesota | 66.5%</tspan></textPath></text><defs><path d="M-483.9338408515457 -125.7300190037002L-96.78676817030914 -25.14600380074004" stroke="#aaa" stroke-width="2" fill="none" id="textpath-SCA"/></defs><text text-anchor="middle" dominant-baseline="middle" class="label"><textPath href="#textpath-SCA" startOffset="50%"><tspan>South Carolina | 58.7%</tspan></textPath></text><defs><path d="M-469.8056864997126 -171.12164367061735L-93.96113729994252 -34.224328734123475" stroke="#aaa" stroke-width="2" fill="none" id="textpath-ALA"/></defs><text text-anchor="middle" dominant-baseline="middle" class="label"><textPath href="#textpath-ALA" startOffset="50%"><tspan>Alabama | 55.2%</tspan></textPath></text><defs><path d="M-452.4423094403539 -212.82846761718477L-90.48846188807079 -42.565693523436956" stroke="#aaa" stroke-width="2" fill="none" id="textpath-LAA"/></defs><text text-anchor="middle" dominant-baseline="middle" class="label"><textPath href="#textpath-LAA" startOffset="50%"><tspan>Louisiana | 54.5%</tspan></textPath></text><defs><path d="M-432.4233994642608 -251.0179348089939L-86.48467989285216 -50.203586961798784" stroke="#aaa" stroke-width="2" fill="none" id="textpath-KYA"/></defs><text text-anchor="middle" dominant-baseline="middle" class="label"><textPath href="#textpath-KYA" startOffset="50%"><tspan>Kentucky | 58.6%</tspan></textPath></text><defs><path d="M-410.3572614909362 -285.66924570499253L-82.07145229818724 -57.13384914099851" stroke="#aaa" stroke-width="2" fill="none" id="textpath-ORA"/></defs><text text-anchor="middle" dominant-baseline="middle" class="label"><textPath href="#textpath-ORA" startOffset="50%"><tspan>Oregon | 69.5%</tspan></textPath></text><defs><path d="M-387.05511041807523 -316.5254199890612L-77.41102208361504 -63.30508399781224" stroke="#aaa" stroke-width="2" fill="none" id="textpath-OKA"/></defs><text text-anchor="middle" dominant-baseline="middle" class="label"><textPath href="#textpath-OKA" startOffset="50%"><tspan>Oklahoma | 60.9%</tspan></textPath></text><defs><path d="M-363.5642759146567 -343.2506624591588L-72.71285518293135 -68.65013249183176" stroke="#aaa" stroke-width="2" fill="none" id="textpath-CTA"/></defs><text text-anchor="middle" dominant-baseline="middle" class="label"><textPath href="#textpath-CTA" startOffset="50%"><tspan>Connecticut | 81.0%</tspan></textPath></text><defs><path d="M-340.84053720576054 -365.8247233270171L-68.1681074411521 -73.16494466540343" stroke="#aaa" stroke-width="2" fill="none" id="textpath-UTA"/></defs><text text-anchor="middle" dominant-baseline="middle" class="label"><textPath href="#textpath-UTA" startOffset="50%"><tspan>Utah | 62.0%</tspan></textPath></text><defs><path d="M-318.07647836079946 -385.7814846692255L-63.61529567215989 -77.1562969338451" stroke="#aaa" stroke-width="2" fill="none" id="textpath-PRA"/></defs><text text-anchor="middle" dominant-baseline="middle" class="label"><textPath href="#textpath-PRA" startOffset="50%"><tspan>Puerto Rico | 83.4%</tspan></textPath></text><defs><path d="M-294.3410399040578 -404.18232547725023L-58.86820798081156 -80.83646509545005" stroke="#aaa" stroke-width="2" fill="none" id="textpath-IAA"/></defs><text text-anchor="middle" dominant-baseline="middle" class="label"><textPath href="#textpath-IAA" startOffset="50%"><tspan>Iowa | 60.9%</tspan></textPath></text><defs><path d="M-269.99593918038863 -420.83511358500004L-53.99918783607772 -84.16702271700001" stroke="#aaa" stroke-width="2" fill="none" id="textpath-NVA"/></defs><text text-anchor="middle" dominant-baseline="middle" class="label"><textPath href="#textpath-NVA" startOffset="50%"><tspan>Nevada | 64.7%</tspan></textPath></text><defs><path d="M-245.27738127223262 -435.7051827052736L-49.055476254446525 -87.14103654105472" stroke="#aaa" stroke-width="2" fill="none" id="textpath-ARA"/></defs><text text-anchor="middle" dominant-baseline="middle" class="label"><textPath href="#textpath-ARA" startOffset="50%"><tspan>Arkansas | 59.0%</tspan></textPath></text><defs><path d="M-220.18431798133415 -448.9085275588945L-44.03686359626683 -89.7817055117789" stroke="#aaa" stroke-width="2" fill="none" id="textpath-MSA"/></defs><text text-anchor="middle" dominant-baseline="middle" class="label"><textPath href="#textpath-MSA" startOffset="50%"><tspan>Mississippi | 52.9%</tspan></textPath></text><defs><path d="M-194.8385291101501 -460.4757839172362L-38.96770582203002 -92.09515678344724" stroke="#aaa" stroke-width="2" fill="none" id="textpath-KSA"/></defs><text text-anchor="middle" dominant-baseline="middle" class="label"><textPath href="#textpath-KSA" startOffset="50%"><tspan>Kansas | 64.1%</tspan></textPath></text><defs><path d="M-172.79762432787854 -469.1918381926963L-34.55952486557571 -93.83836763853927" stroke="#aaa" stroke-width="2" fill="none" id="textpath-NMA"/></defs><text text-anchor="middle" dominant-baseline="middle" class="small-label-7"><textPath href="#textpath-NMA" startOffset="50%"><tspan>New Mexico | 73.8%</tspan></textPath></text><defs><path d="M-154.7789034022315 -475.44031282759636L-30.9557806804463 -95.08806256551927" stroke="#aaa" stroke-width="2" fill="none" id="textpath-NEA"/></defs><text text-anchor="middle" dominant-baseline="middle" class="small-label-7"><textPath href="#textpath-NEA" startOffset="50%"><tspan>Nebraska | 62.2%</tspan></textPath></text><defs><path d="M-137.92115202626263 -480.6014521656677L-27.584230405252523 -96.12029043313353" stroke="#aaa" stroke-width="2" fill="none" id="textpath-WVA"/></defs><text text-anchor="middle" dominant-baseline="middle" class="small-label-6"><textPath href="#textpath-WVA" startOffset="50%"><tspan>West Virginia | 49.3%</tspan></textPath></text><defs><path d="M-121.56823209829754 -484.9960463184153L-24.31364641965951 -96.99920926368306" stroke="#aaa" stroke-width="2" fill="none" id="textpath-IDA"/></defs><text text-anchor="middle" dominant-baseline="middle" class="small-label-6"><textPath href="#textpath-IDA" startOffset="50%"><tspan>Idaho | 49.9%</tspan></textPath></text><defs><path d="M-106.81568646173257 -488.4571722533193L-21.36313729234651 -97.69143445066386" stroke="#aaa" stroke-width="2" fill="none" id="textpath-HIA"/></defs><text text-anchor="middle" dominant-baseline="middle" class="small-label-5"><textPath href="#textpath-HIA" startOffset="50%"><tspan>Hawaii | 80.3%</tspan></textPath></text><defs><path d="M-93.95167415096078 -491.09376184617906L-18.790334830192158 -98.21875236923582" stroke="#aaa" stroke-width="2" fill="none" id="textpath-NHA"/></defs><text text-anchor="middle" dominant-baseline="middle" class="small-label-5"><textPath href="#textpath-NHA" startOffset="50%"><tspan>New Hampshire | 80.6%</tspan></textPath></text><defs><path d="M-81.35739717195395 -493.3365726615096L-16.27147943439079 -98.66731453230192" stroke="#aaa" stroke-width="2" fill="none" id="textpath-MEA"/></defs><text text-anchor="middle" dominant-baseline="middle" class="small-label-5"><textPath href="#textpath-MEA" startOffset="50%"><tspan>Maine | 78.8%</tspan></textPath></text><defs><path d="M-70.07300308976926 -495.06542419965183L-14.014600617953851 -99.01308483993037" stroke="#aaa" stroke-width="2" fill="none" id="textpath-MTA"/></defs><text text-anchor="middle" dominant-baseline="middle" class="small-label-4"><textPath href="#textpath-MTA" startOffset="50%"><tspan>Montana | 58.1%</tspan></textPath></text><defs><path d="M-60.090212012855304 -496.37603328550233L-12.01804240257106 -99.27520665710047" stroke="#aaa" stroke-width="2" fill="none" id="textpath-RIA"/></defs><text text-anchor="middle" dominant-baseline="middle" class="small-label-4"><textPath href="#textpath-RIA" startOffset="50%"><tspan>Rhode Island | 80.1%</tspan></textPath></text></g><text y="654" class="legend">
            <tspan x="-654">* Showing percentage of population vaccinated, having received at least one shot of a countries chosen vaccine(s).</tspan>
            <tspan x="-654" dy="1.2em">Countries where no data was available are not counted towards a region's percentage.</tspan>
            </text><text y="-654" class="title" text-anchor="middle">
            <tspan x="0">Partial Covid Vaccinations* by State</tspan>
            </text><text xmlns:xlink="http://www.w3.org/1999/xlink" y="654" class="sources" text-anchor="end">
    <tspan x="654">Data source:
        <a xlink:href="https://github.com/owid/covid-19-data/tree/master/public/data/vaccinations">
            <tspan>https://github.com/owid/covid-19-data/tree/master/public/data/vaccinations</tspan>
        </a>
    </tspan>
    <tspan x="654" dy="1.2em">Code source:
        <a xlink:href="https://github.com/WorldSEnder/vis_covid_vacc">
            <tspan>https://github.com/WorldSEnder/vis_covid_vacc</tspan>
        </a>
    </tspan>
    <tspan x="654" dy="1.2em">Timestamp: Sat Nov 13 22:00:15 2021 +0000</tspan>
</text><text text-anchor="middle" dominant-baseline="middle" class="label_all" x="0" y="0">
    <tspan>United States | 67.5%</tspan>
</text></svg>