<svg xmlns="http://www.w3.org/2000/svg" viewBox="-664 -684 1328 1388"><style>
text {
    font-family: "Open Sans";
}
.legend, .sources {
    font-size: 10pt;
}
.title {
    font-size: 20pt;
    font-weight: bold;
}
.label_all {
    font-size: 18pt;
}
.label {
}
.small-label-9 {
   font-size: 9pt;
}
.small-label-8 {
   font-size: 8pt;
}
.small-label-7 {
   font-size: 7pt;
}
.small-label-6 {
   font-size: 6pt;
}
.small-label-5 {
   font-size: 5pt;
}
.small-label-4 {
   font-size: 4pt;
}
a {
    text-decoration: underline;
}
</style><style type="text/css">
@font-face{
  font-family:'Open Sans';src:local('Open Sans')
             , local('OpenSans')
             , url(https://fonts.gstatic.com/s/opensans/v18/mem5YaGs126MiZpBA-UN_r8OUuhp.woff2) format('woff2');
  }
</style><defs><pattern id="diagonalHatch" width="10" height="10" patternTransform="rotate(45 0 0)" patternUnits="userSpaceOnUse">
  <line x1="0" y1="0" x2="0" y2="10" style="stroke:#444; stroke-width:1"/>
</pattern></defs><circle cx="0" cy="0" r="199.0" stroke="#aaa" stroke-width="2" fill="none"/><path d="M2.4554168322904432e-14 -401.0A401.0 401.0 0 0 1 272.68732082420496 -294.0112668958744" stroke="#aaa" stroke-width="2" fill="none"/><path d="M272.68732082420496 -294.0112668958744A401.0 401.0 0 0 1 386.0142793837844 -108.60007417961393" stroke="#aaa" stroke-width="2" fill="none"/><path d="M386.0142793837844 -108.60007417961393A401.0 401.0 0 0 1 397.49949619003894 52.86918316623818" stroke="#aaa" stroke-width="2" fill="none"/><path d="M397.49949619003894 52.86918316623818A401.0 401.0 0 0 1 351.83441248966176 192.3890490336042" stroke="#aaa" stroke-width="2" fill="none"/><path d="M351.83441248966176 192.3890490336042A401.0 401.0 0 0 1 295.40021441875365 271.1820667399568" stroke="#aaa" stroke-width="2" fill="none"/><path d="M295.40021441875365 271.1820667399568A401.0 401.0 0 0 1 222.53273434952783 333.5868434799587" stroke="#aaa" stroke-width="2" fill="none"/><path d="M222.53273434952783 333.5868434799587A401.0 401.0 0 0 1 143.91341906673063 374.28589048015635" stroke="#aaa" stroke-width="2" fill="none"/><path d="M143.91341906673063 374.28589048015635A401.0 401.0 0 0 1 66.31397937437761 395.4787682537896" stroke="#aaa" stroke-width="2" fill="none"/><path d="M66.31397937437761 395.4787682537896A401.0 401.0 0 0 1 -12.972993725401365 400.7900964766977" stroke="#aaa" stroke-width="2" fill="none"/><path d="M-12.972993725401365 400.7900964766977A401.0 401.0 0 0 1 -88.04348465768251 391.2152154624516" stroke="#aaa" stroke-width="2" fill="none"/><path d="M-88.04348465768251 391.2152154624516A401.0 401.0 0 0 1 -152.2563292152318 370.97036298591695" stroke="#aaa" stroke-width="2" fill="none"/><path d="M-152.2563292152318 370.97036298591695A401.0 401.0 0 0 1 -209.93989737067233 341.65222008936456" stroke="#aaa" stroke-width="2" fill="none"/><path d="M-209.93989737067233 341.65222008936456A401.0 401.0 0 0 1 -256.8306247281737 307.95946194545803" stroke="#aaa" stroke-width="2" fill="none"/><path d="M-256.8306247281737 307.95946194545803A401.0 401.0 0 0 1 -296.6860259478418 269.7747245523134" stroke="#aaa" stroke-width="2" fill="none"/><path d="M-296.6860259478418 269.7747245523134A401.0 401.0 0 0 1 -329.2562065213837 228.89156923562723" stroke="#aaa" stroke-width="2" fill="none"/><path d="M-329.2562065213837 228.89156923562723A401.0 401.0 0 0 1 -356.01090415702936 184.5460271078585" stroke="#aaa" stroke-width="2" fill="none"/><path d="M-356.01090415702936 184.5460271078585A401.0 401.0 0 0 1 -376.5746986621811 137.81326615201993" stroke="#aaa" stroke-width="2" fill="none"/><path d="M-376.5746986621811 137.81326615201993A401.0 401.0 0 0 1 -390.008793697804 93.24237683791519" stroke="#aaa" stroke-width="2" fill="none"/><path d="M-390.008793697804 93.24237683791519A401.0 401.0 0 0 1 -398.103994288051 48.10623381537419" stroke="#aaa" stroke-width="2" fill="none"/><path d="M-398.103994288051 48.10623381537419A401.0 401.0 0 0 1 -400.9796968187293 4.035187623882098" stroke="#aaa" stroke-width="2" fill="none"/><path d="M-400.9796968187293 4.035187623882098A401.0 401.0 0 0 1 -399.0395219712646 -39.603786497563846" stroke="#aaa" stroke-width="2" fill="none"/><path d="M-399.0395219712646 -39.603786497563846A401.0 401.0 0 0 1 -392.5497772695832 -81.88816987575582" stroke="#aaa" stroke-width="2" fill="none"/><path d="M-392.5497772695832 -81.88816987575582A401.0 401.0 0 0 1 -382.7209244640179 -119.68999113295774" stroke="#aaa" stroke-width="2" fill="none"/><path d="M-382.7209244640179 -119.68999113295774A401.0 401.0 0 0 1 -369.9836033357413 -154.6387185109242" stroke="#aaa" stroke-width="2" fill="none"/><path d="M-369.9836033357413 -154.6387185109242A401.0 401.0 0 0 1 -354.9649145767662 -186.55001854598964" stroke="#aaa" stroke-width="2" fill="none"/><path d="M-354.9649145767662 -186.55001854598964A401.0 401.0 0 0 1 -337.9422723283907 -215.8611140838568" stroke="#aaa" stroke-width="2" fill="none"/><path d="M-337.9422723283907 -215.8611140838568A401.0 401.0 0 0 1 -319.6538990054164 -242.1205998064498" stroke="#aaa" stroke-width="2" fill="none"/><path d="M-319.6538990054164 -242.1205998064498A401.0 401.0 0 0 1 -300.6431093860857 -265.35772228949" stroke="#aaa" stroke-width="2" fill="none"/><path d="M-300.6431093860857 -265.35772228949A401.0 401.0 0 0 1 -282.06761747236465 -285.0243133023282" stroke="#aaa" stroke-width="2" fill="none"/><path d="M-282.06761747236465 -285.0243133023282A401.0 401.0 0 0 1 -264.26554505445273 -301.6035836940155" stroke="#aaa" stroke-width="2" fill="none"/><path d="M-264.26554505445273 -301.6035836940155A401.0 401.0 0 0 1 -245.56449911175474 -317.0158935700117" stroke="#aaa" stroke-width="2" fill="none"/><path d="M-245.56449911175474 -317.0158935700117A401.0 401.0 0 0 1 -226.20870707157903 -331.10515073765396" stroke="#aaa" stroke-width="2" fill="none"/><path d="M-226.20870707157903 -331.10515073765396A401.0 401.0 0 0 1 -206.5341543235442 -343.721752436267" stroke="#aaa" stroke-width="2" fill="none"/><path d="M-206.5341543235442 -343.721752436267A401.0 401.0 0 0 1 -186.5769583834555 -354.95075517651503" stroke="#aaa" stroke-width="2" fill="none"/><path d="M-186.5769583834555 -354.95075517651503A401.0 401.0 0 0 1 -166.29903581177103 -364.89125871699815" stroke="#aaa" stroke-width="2" fill="none"/><path d="M-166.29903581177103 -364.89125871699815A401.0 401.0 0 0 1 -145.9379315261304 -373.5011648467438" stroke="#aaa" stroke-width="2" fill="none"/><path d="M-145.9379315261304 -373.5011648467438A401.0 401.0 0 0 1 -131.00509977922368 -378.99691797142054" stroke="#aaa" stroke-width="2" fill="none"/><path d="M-131.00509977922368 -378.99691797142054A401.0 401.0 0 0 1 -117.04549728088834 -383.53794019141" stroke="#aaa" stroke-width="2" fill="none"/><path d="M-117.04549728088834 -383.53794019141A401.0 401.0 0 0 1 -103.97212957255573 -387.2864524769072" stroke="#aaa" stroke-width="2" fill="none"/><path d="M-103.97212957255573 -387.2864524769072A401.0 401.0 0 0 1 -90.81673220909722 -390.58074856661983" stroke="#aaa" stroke-width="2" fill="none"/><path d="M-90.81673220909722 -390.58074856661983A401.0 401.0 0 0 1 -80.31936155004958 -392.87377128053794" stroke="#aaa" stroke-width="2" fill="none"/><path d="M-80.31936155004958 -392.87377128053794A401.0 401.0 0 0 1 -70.18399580003062 -394.8103427388159" stroke="#aaa" stroke-width="2" fill="none"/><path d="M-70.18399580003062 -394.8103427388159A401.0 401.0 0 0 1 -60.11845391927265 -396.46786944007994" stroke="#aaa" stroke-width="2" fill="none"/><path d="M-60.11845391927265 -396.46786944007994A401.0 401.0 0 0 1 -52.08729575532198 -397.60270826655295" stroke="#aaa" stroke-width="2" fill="none"/><path d="M-52.08729575532198 -397.60270826655295A401.0 401.0 0 0 1 -44.10586127692017 -398.56702447771704" stroke="#aaa" stroke-width="2" fill="none"/><path d="M-44.10586127692017 -398.56702447771704A401.0 401.0 0 0 1 -36.75361776948736 -399.3121230076222" stroke="#aaa" stroke-width="2" fill="none"/><path d="M-36.75361776948736 -399.3121230076222A401.0 401.0 0 0 1 -30.063259558395483 -399.87147988413045" stroke="#aaa" stroke-width="2" fill="none"/><path d="M-30.063259558395483 -399.87147988413045A401.0 401.0 0 0 1 -24.29323273933567 -400.26346178869795" stroke="#aaa" stroke-width="2" fill="none"/><path d="M-24.29323273933567 -400.26346178869795A401.0 401.0 0 0 1 -18.74949972655926 -400.56142632560585" stroke="#aaa" stroke-width="2" fill="none"/><path d="M-18.74949972655926 -400.56142632560585A401.0 401.0 0 0 1 -13.397833975619609 -400.7761196039027" stroke="#aaa" stroke-width="2" fill="none"/><path d="M-13.397833975619609 -400.7761196039027A401.0 401.0 0 0 1 -8.66412940329148 -400.9063891504886" stroke="#aaa" stroke-width="2" fill="none"/><path d="M-8.66412940329148 -400.9063891504886A401.0 401.0 0 0 1 -4.272454259732278 -400.9772389233564" stroke="#aaa" stroke-width="2" fill="none"/><path d="M-4.272454259732278 -400.9772389233564A401.0 401.0 0 0 1 -3.0144743023444436 -400.9886693470035" stroke="#aaa" stroke-width="2" fill="none"/><path d="M-3.0144743023444436 -400.9886693470035A401.0 401.0 0 0 1 -2.2200628035844563 -400.9938544680556" stroke="#aaa" stroke-width="2" fill="none"/><path d="M-2.2200628035844563 -400.9938544680556A401.0 401.0 0 0 1 -1.4335124536200732 -400.9974377000997" stroke="#aaa" stroke-width="2" fill="none"/><path d="M-1.4335124536200732 -400.9974377000997A401.0 401.0 0 0 1 -0.990211530569488 -400.99877740602244" stroke="#aaa" stroke-width="2" fill="none"/><path d="M-0.990211530569488 -400.99877740602244A401.0 401.0 0 0 1 -0.5585283212745696 -400.9996110298791" stroke="#aaa" stroke-width="2" fill="none"/><path d="M-0.5585283212745696 -400.9996110298791A401.0 401.0 0 0 1 -0.13589827832255022 -400.99997697214144" stroke="#aaa" stroke-width="2" fill="none"/><path d="M-0.13589827832255022 -400.99997697214144A401.0 401.0 0 0 1 6.386565876307872e-13 -401.0" stroke="#aaa" stroke-width="2" fill="none"/><g><circle fill="#279ee3" r="157.32771059947152"/><path d="M0.5000000000000009 -199.99937499902342L0.499999999999987 -353.1525202002384A353.15287415477707 353.15287415477707 0 0 1 239.78356344705986 -259.2697344936536L135.63662868217267 -146.97858673879816A200 200 0 0 0 0.5000000000000009 -199.99937499902342" fill="#878500"/><path d="M136.36982386146417 -146.29856848237867L226.81383278301445 -243.81523176467965A333.0020750418617 333.0020750418617 0 0 1 320.4217234265974 -90.66587637316925L192.38981192111095 -54.64577082409542A200 200 0 0 0 136.36982386146417 -146.29856848237867" fill="#00a76c"/><path d="M192.66063504874091 -53.683141698450065L332.4880095088643 -93.02174664060692A345.2554442948524 345.2554442948524 0 0 1 342.3071217969582 45.02395120731143L198.31941494268727 25.872952224093538A200 200 0 0 0 192.66063504874091 -53.683141698450065" fill="#bdbdbd"/><path d="M198.18757159314552 26.86422278815847L348.81727462006563 46.898636506758464A351.95592505250335 351.95592505250335 0 0 1 309.04308149803705 168.42015009422414L175.7178481935106 95.51564178836031A200 200 0 0 0 198.18757159314552 26.86422278815847" fill="#ebac23"/><path d="M175.2380750039006 96.39303433820984L310.49943358173584 170.35624891872706A354.16260361624586 354.16260361624586 0 0 1 261.23490229567534 239.13902990270543L147.6694496052325 134.8841490067966A200 200 0 0 0 175.2380750039006 96.39303433820984" fill="#b80058"/><path d="M146.99318509964655 135.62080789562143L256.0135699508587 235.70324466334597A347.992769384383 347.992769384383 0 0 1 193.5324089582899 289.2130256862813L111.40449179169394 166.09948587709232A200 200 0 0 0 146.99318509964655 135.62080789562143" fill="#008cf9"/><path d="M110.57260440146959 166.65443035177944L178.78467820941162 268.9074784497418A322.91669688735703 322.91669688735703 0 0 1 116.35694054759664 301.224593144458L72.24373269964774 186.4962280734435A200 200 0 0 0 110.57260440146959 166.65443035177944" fill="#006e00"/><path d="M71.31035142662991 186.85511440528072L115.68687900196852 302.26831386690446A323.6504094561871 323.6504094561871 0 0 1 54.01561184430538 319.11111108553223L33.56731624114849 197.16296630038494A200 200 0 0 0 71.31035142662991 186.85511440528072" fill="#00bbad"/><path d="M32.58108489886974 197.3283378200218L54.3147465397854 326.94206054460005A331.42299655399603 331.42299655399603 0 0 1 -10.222315495245821 331.2653119642105L-5.97056256535706 199.91086109227072A200 200 0 0 0 32.58108489886974 197.3283378200218" fill="#d163e6"/><path d="M-6.970039115174238 199.87850948697044L-11.111729267350515 327.83266030237525A328.02091958935097 328.02091958935097 0 0 1 -71.5323282855257 320.12630272799396L-43.42402567716057 195.2289783664026A200 200 0 0 0 -6.970039115174238 199.87850948697044" fill="#b24502"/><path d="M-44.39962471821404 195.00941855428871L-78.44522059804557 346.28870037123846A355.06269395626094 355.06269395626094 0 0 1 -134.35163002397692 328.6626783639692L-75.47552494064578 185.211892531052A200 200 0 0 0 -44.39962471821404 195.00941855428871" fill="#ff9287"/><path d="M-76.4006380652989 184.83220093699907L-132.44166129095888 321.37535047488694A347.5958997720852 347.5958997720852 0 0 1 -181.55447859705882 296.41336143925025L-104.28185075174285 170.66134771468091A200 200 0 0 0 -76.4006380652989 184.83220093699907" fill="#5954d6"/><path d="M-105.1338513005942 170.1378068234822L-185.05891870002299 300.2063505343241A352.66224109132975 352.66224109132975 0 0 1 -225.48726417385174 271.157057785614L-127.7106850256128 153.91549931793327A200 200 0 0 0 -105.1338513005942 170.1378068234822" fill="#00c6f8"/><path d="M-128.47866373370627 153.27502394454626L-212.99583762276947 254.6175465645579A331.95981965168613 331.95981965168613 0 0 1 -245.2689291443513 223.69728263786124L-147.6362403946041 134.92049704231997A200 200 0 0 0 -128.47866373370627 153.27502394454626" fill="#878500"/><path d="M-148.30899531867473 134.18063164095372L-269.12210894175183 244.03523077769492A363.2903843786386 363.2903843786386 0 0 1 -298.007617835224 207.77719579913972L-163.9316452224646 114.57057080531632A200 200 0 0 0 -148.30899531867473 134.18063164095372" fill="#00a76c"/><path d="M-164.50244714075797 113.74948300850482L-262.7180413410622 182.02677295674206A319.61620002610846 319.61620002610846 0 0 1 -283.5272820626853 147.53574361921883L-177.330886061569 92.48652252419717A200 200 0 0 0 -164.50244714075797 113.74948300850482" fill="#bdbdbd"/><path d="M-177.7911005930101 91.59871478315713L-283.44405474947285 146.3662309297519A319.00408418922103 319.00408418922103 0 0 1 -299.40102913632154 110.10281323161168L-187.6453808972713 69.20412580126974A200 200 0 0 0 -177.7911005930101 91.59871478315713" fill="#ebac23"/><path d="M-187.9890548777003 68.26503677717446L-304.34436573681074 110.8470410397938A323.9020831409075 323.9020831409075 0 0 1 -314.9074539193026 75.80141772474735L-194.40123140963817 46.99107602956452A200 200 0 0 0 -187.9890548777003 68.26503677717446" fill="#b80058"/><path d="M-194.63375604015667 46.01848552158988L-342.24077366193586 81.30802099723125A351.76660079548003 351.76660079548003 0 0 1 -349.1658210744974 42.69626246615392L-198.49500480129007 24.48944811415402A200 200 0 0 0 -194.63375604015667 46.01848552158988" fill="#008cf9"/><path d="M-198.61497047165258 23.496670073535377L-332.72583158903296 39.70240660132766A335.08619800963254 335.08619800963254 0 0 1 -335.0638277090932 3.871880354790541L-199.98421734970532 2.512530800971551A200 200 0 0 0 -198.61497047165258 23.496670073535377" fill="#006e00"/><path d="M-199.99428016173493 1.5125814323462248L-343.17359414042477 2.9534409081414243A343.18630294412225 343.18630294412225 0 0 1 -341.5574933253315 -33.39636629591586L-199.0709648065107 -19.25489472848351A200 200 0 0 0 -199.99428016173493 1.5125814323462248" fill="#00bbad"/><path d="M-198.9722022466664 -20.250005755843336L-338.2200779467942 -34.07004822237439A339.9317421368744 339.9317421368744 0 0 1 -332.8701481266856 -68.92788839307956L-195.88691819167175 -40.352388793840944A200 200 0 0 0 -198.9722022466664 -20.250005755843336" fill="#d163e6"/><path d="M-195.6827082917322 -41.33131591920156L-317.00895245052374 -66.64067709415276A323.9377344141086 323.9377344141086 0 0 1 -309.3203154517871 -96.21121673771975L-191.03189697610603 -59.21836149126729A200 200 0 0 0 -195.6827082917322 -41.33131591920156" fill="#b24502"/><path d="M-190.73341819522582 -60.172777761751185L-304.81335231178195 -95.84949526022884A319.528254602292 319.528254602292 0 0 1 -295.0059591677911 -122.75907112991163L-184.72271517778137 -76.66497568869545A200 200 0 0 0 -190.73341819522582 -60.172777761751185" fill="#ff9287"/><path d="M-184.33708246329024 -77.58762806609137L-293.30980655980926 -123.13397729616361A318.107873195438 318.107873195438 0 0 1 -281.82112110046006 -147.54482264927054L-177.2719104020149 -92.59951286275752A200 200 0 0 0 -184.33708246329024 -77.58762806609137" fill="#5954d6"/><path d="M-176.8066983856907 -93.48471215097895L-295.2828420260292 -155.74925122441076A333.84095921850803 333.84095921850803 0 0 1 -281.61290866810316 -179.28735516880198L-168.81838854980012 -107.2396926862844A200 200 0 0 0 -176.8066983856907 -93.48471215097895" fill="#00c6f8"/><path d="M-168.2800815321346 -108.08244149508343L-290.50662464703595 -186.15482227662383A345.03292135773836 345.03292135773836 0 0 1 -275.3418032206815 -207.92933467848817L-159.72977635158975 -120.35945557649855A200 200 0 0 0 -168.2800815321346 -108.08244149508343" fill="#878500"/><path d="M-159.12598433212224 -121.15659746928019L-260.05663966216537 -197.6061289262826A326.6154283275791 326.6154283275791 0 0 1 -245.20509163814307 -215.75935913961604L-150.27708936689507 -131.9727108587765A200 200 0 0 0 -159.12598433212224 -121.15659746928019" fill="#00a76c"/><path d="M-149.6153494110609 -132.7224442986421L-270.25537482772506 -239.20338918669336A360.9102783541567 360.9102783541567 0 0 1 -254.22323391552686 -256.17723622368584L-141.03705575707664 -141.80461524003815A200 200 0 0 0 -149.6153494110609 -132.7224442986421" fill="#bdbdbd"/><path d="M-140.32627193338 -142.50802575742563L-232.67812896321948 -235.82793560033303A331.29130219089575 331.29130219089575 0 0 1 -218.70219108890763 -248.84388383130963L-132.17891679928636 -150.09574928613847A200 200 0 0 0 -140.32627193338 -142.50802575742563" fill="#ebac23"/><path d="M-131.42678816164536 -150.75476560797006L-240.71118264989084 -275.4799355603893A365.8292885336894 365.8292885336894 0 0 1 -224.4217207958551 -288.90475867332583L-122.87095833188081 -157.8059808708314A200 200 0 0 0 -131.42678816164536 -150.75476560797006" fill="#b80058"/><path d="M-122.08039500626977 -158.41836116786826L-201.7543772624648 -261.27491726857016A330.1051516384789 330.1051516384789 0 0 1 -186.6287443074947 -272.2850031427932L-113.234794536214 -164.8571542467642A200 200 0 0 0 -122.08039500626977 -158.41836116786826" fill="#008cf9"/><path d="M-112.40909590594548 -165.42126573572077L-188.16066037262303 -276.2999913871422A334.28448865060494 334.28448865060494 0 0 1 -172.60086736451657 -286.2779417583775L-103.4378121119173 -171.17423586947803A200 200 0 0 0 -112.40909590594548 -165.42126573572077" fill="#006e00"/><path d="M-102.58065063452007 -171.68928363587094L-167.24282907274474 -279.3024644287944A325.5457425804449 325.5457425804449 0 0 1 -151.91206534368754 -287.928385046123L-93.49813078179096 -176.7996027719268A200 200 0 0 0 -102.58065063452007 -171.68928363587094" fill="#00bbad"/><path d="M-92.6129668037946 -177.26488196989058L-146.07048605816303 -278.9644004613643A314.89319399129033 314.89319399129033 0 0 1 -131.04442433838753 -286.330372946806L-83.39687993679036 -181.7827285987549A200 200 0 0 0 -92.6129668037946 -177.26488196989058" fill="#d163e6"/><path d="M-82.48692667315689 -182.19743941125307L-137.5903377441849 -303.10465289663836A332.8716444038911 332.8716444038911 0 0 1 -121.60921453308801 -309.86243817022404L-73.25248298329113 -186.10232061095488A200 200 0 0 0 -82.48692667315689 -182.19743941125307" fill="#b24502"/><path d="M-72.3210586320523 -186.46625560229188L-128.7283449424055 -330.83028024237285A354.99248036663806 354.99248036663806 0 0 1 -116.44707641081054 -335.3501744628035L-65.8115624351999 -188.86195553853028A200 200 0 0 0 -72.3210586320523 -186.46625560229188" fill="#ff9287"/><path d="M-64.86643296394942 -189.18865154795478L-108.0998575611487 -314.2626731188836A332.33508228979815 332.33508228979815 0 0 1 -97.48142123856098 -317.71682271147864L-58.85485105417278 -191.14420343654456A200 200 0 0 0 -64.86643296394942 -189.18865154795478" fill="#5954d6"/><path d="M-57.89839733798466 -191.43608746966402L-90.59629242496153 -298.58145932585785A312.02335818702426 312.02335818702426 0 0 1 -81.38487431649544 -301.22263906751147L-52.33916248894537 -193.03008073861383A200 200 0 0 0 -57.89839733798466 -191.43608746966402" fill="#00c6f8"/><path d="M-51.37336086182085 -193.28936285724865L-79.5307891264021 -298.17314804366924A308.5974281055177 308.5974281055177 0 0 1 -70.3767171492471 -300.46545611207125L-45.78199515101358 -194.6895192864592A200 200 0 0 0 -51.37336086182085 -193.28936285724865" fill="#878500"/><path d="M-44.807978321670326 -194.91599492787842L-81.58811108785747 -353.09842936211317A362.40187732526414 362.40187732526414 0 0 1 -73.0780463668357 -354.957349308452L-40.54927430416656 -195.84625692978014A200 200 0 0 0 -44.807978321670326 -194.91599492787842" fill="#00a76c"/><path d="M-39.56953921369134 -196.04655458950597L-69.57831496586131 -342.8313481155407A349.8206328451878 349.8206328451878 0 0 1 -61.718678102649186 -344.33309445574537L-35.49665951698162 -196.82476257609324A200 200 0 0 0 -39.56953921369134 -196.04655458950597" fill="#bdbdbd"/><path d="M-34.51209507124885 -196.9997850095098L-62.09519460976885 -352.1646891798305A357.59723362849394 357.59723362849394 0 0 1 -54.105749953967454 -353.4803379548436L-30.47852155731216 -197.66400715274509A200 200 0 0 0 -34.51209507124885 -196.9997850095098" fill="#ebac23"/><path d="M-29.48982362853384 -197.81392848421459L-48.02573987925589 -320.05418492713017A323.6373788367462 323.6373788367462 0 0 1 -42.53410749412649 -320.8301773212702L-26.474383916675738 -198.2400236991321A200 200 0 0 0 -29.48982362853384 -197.81392848421459" fill="#b80058"/><path d="M-25.482855965886266 -198.36991720475638L-46.11875843278986 -355.89183477382124A358.86757716190925 358.86757716190925 0 0 1 -39.96865766697801 -356.634889407022L-22.494833419991362 -198.73092982574917A200 200 0 0 0 -25.482855965886266 -198.36991720475638" fill="#008cf9"/><path d="M-21.500900690620433 -198.840919504744L-37.37388213082188 -342.278703034018A344.3131098523233 344.3131098523233 0 0 1 -32.055848256704365 -342.81764862492304L-18.828819561980797 -199.11171626477025A200 200 0 0 0 -21.500900690620433 -198.840919504744" fill="#006e00"/><path d="M-17.833028731537784 -199.20337117192608L-29.875699037172772 -330.0417630979641A331.3911929755714 331.3911929755714 0 0 1 -25.34320162078264 -330.42070896567725L-15.49269042906382 -199.39903847127547A200 200 0 0 0 -17.833028731537784 -199.20337117192608" fill="#00bbad"/><path d="M-14.49550469369186 -199.47400919336624L-23.231739375719368 -315.67468544178956A316.5283885265177 316.5283885265177 0 0 1 -19.6748627140817 -315.9163188573458L-12.615369315379827 -199.60173460427785A200 200 0 0 0 -14.49550469369186 -199.47400919336624" fill="#d163e6"/><path d="M-11.617206069023906 -199.66231623205675L-19.381904961734442 -327.5961030561899A328.16895797370523 328.16895797370523 0 0 1 -15.843584437012773 -327.78628069175613L-9.850795361643465 -199.75725726677123A200 200 0 0 0 -11.617206069023906 -199.66231623205675" fill="#b24502"/><path d="M-8.851889061579545 -199.80401412394468L-15.923155233853276 -350.8734562532035A351.23457855921606 351.23457855921606 0 0 1 -12.234827585313926 -351.0214212403963L-7.181911424604906 -199.87100877388178A200 200 0 0 0 -8.851889061579545 -199.80401412394468" fill="#ff9287"/><path d="M-6.1824697298320155 -199.9044198311776L-11.664021873213215 -363.8768351804371A364.0637314910534 364.0637314910534 0 0 1 -8.365948878950459 -363.967596753536L-4.821131322055399 -199.94188328805822A200 200 0 0 0 -6.1824697298320155 -199.9044198311776" fill="#5954d6"/><path d="M-3.8213647655703245 -199.9634895957971L-6.230256706943686 -311.42768006630973A311.48999343497087 311.48999343497087 0 0 1 -3.818737292400685 -311.46658449279886L-2.63086484069841 -199.98269562687162A200 200 0 0 0 -3.8213647655703245 -199.9634895957971" fill="#00c6f8"/><path d="M-1.6309216014879786 -199.99335012627245L-3.3400292762904806 -360.39606828385496A360.41154508426547 360.41154508426547 0 0 1 -3.2093382296770248 -360.39725578610484L-2.0034596286609 -199.98996512204388A200 200 0 0 0 -1.6309216014879786 -199.99335012627245" fill="#878500"/><path d="M-1.003487884653344 -199.99748251431905L-1.8867110339594053 -317.48479202671336A317.49039803869834 317.49039803869834 0 0 1 -2.2577173973753673 -317.4823704694872L-1.6072521207219752 -199.99354174727853A200 200 0 0 0 -1.003487884653344 -199.99748251431905" fill="#00a76c"/><path d="M-0.6072674462379799 -199.99907806349694L-1.1665253253944625 -301.01377559481665A301.01603591699467 301.01603591699467 0 0 1 -1.576080697743826 -301.01190981224585L-1.2149633756294123 -199.99630962594256A200 200 0 0 0 -0.6072674462379799 -199.99907806349694" fill="#bdbdbd"/><path d="M-0.21496976540465862 -199.99988446996653L-0.5493573343820465 -293.53835218264464A293.53886624360865 293.53886624360865 0 0 1 -1.2248492195952985 -293.53631076916605L-0.993868019784909 -199.99753055065267A200 200 0 0 0 -0.21496976540465862 -199.99988446996653" fill="#ebac23"/><path d="M0.006128931352370325 -199.9999999060905L-0.3370521530297321 -338.97555312646443A338.9757206962563 338.9757206962563 0 0 1 -0.97213750570169 -338.9743267125349L-0.7785663857584052 -199.99848458021617A200 200 0 0 0 0.006128931352370325 -199.9999999060905" fill="#b80058"/><path d="M0.22143264424135944 -199.9998774189226L0.037483593654149494 -332.0674824535102A332.0674845690738 332.0674845690738 0 0 1 -0.6125369994256966 -332.0669196208144L-0.5677794494115646 -199.99919406461822A200 200 0 0 0 0.22143264424135944 -199.9998774189226" fill="#008cf9"/><path d="M0.43222049316242045 -199.9995329630679L0.3656726670478384 -396.3646162363945A396.364784915012 396.364784915012 0 0 1 -0.4999999999994413 -396.3644695488279L-0.49999999999971456 -199.99937499902342A200 200 0 0 0 0.43222049316242045 -199.9995329630679" fill="#006e00"/></g><g><defs><path d="M36.52429470287844 -93.09122352003591L182.6214735143922 -465.45611760017954" stroke="#aaa" stroke-width="2" fill="none" id="textpath-CAA"/></defs><text text-anchor="middle" dominant-baseline="middle" class="label"><textPath href="#textpath-CAA" startOffset="50%"><tspan>California | 70.6%</tspan></textPath></text><defs><path d="M85.32406366263332 -52.151741678441546L426.6203183131666 -260.7587083922077" stroke="#aaa" stroke-width="2" fill="none" id="textpath-TXA"/></defs><text text-anchor="middle" dominant-baseline="middle" class="label"><textPath href="#textpath-TXA" startOffset="50%"><tspan>Texas | 59.1%</tspan></textPath></text><defs><path d="M99.74798606097025 -7.095017743493251L498.73993030485127 -35.47508871746626" stroke="#aaa" stroke-width="2" fill="none" id="textpath-FLA"/></defs><text text-anchor="middle" dominant-baseline="middle" class="label"><textPath href="#textpath-FLA" startOffset="50%"><tspan>Florida | 66.0%</tspan></textPath></text><defs><path d="M95.03890002144414 31.106389740918956L475.1945001072206 155.53194870459478" stroke="#aaa" stroke-width="2" fill="none" id="textpath-NYA"/></defs><text text-anchor="middle" dominant-baseline="middle" class="label"><textPath href="#textpath-NYA" startOffset="50%"><tspan>New York State | 69.9%</tspan></textPath></text><defs><path d="M81.29838380836215 58.228625178242346L406.4919190418108 291.1431258912117" stroke="#aaa" stroke-width="2" fill="none" id="textpath-PAA"/></defs><text text-anchor="middle" dominant-baseline="middle" class="label"><textPath href="#textpath-PAA" startOffset="50%"><tspan>Pennsylvania | 71.2%</tspan></textPath></text><defs><path d="M65.04724688367861 75.9529833045007L325.23623441839305 379.76491652250354" stroke="#aaa" stroke-width="2" fill="none" id="textpath-ILA"/></defs><text text-anchor="middle" dominant-baseline="middle" class="label"><textPath href="#textpath-ILA" startOffset="50%"><tspan>Illinois | 67.6%</tspan></textPath></text><defs><path d="M45.97248500998774 88.80614067735661L229.86242504993874 444.03070338678305" stroke="#aaa" stroke-width="2" fill="none" id="textpath-OHA"/></defs><text text-anchor="middle" dominant-baseline="middle" class="label"><textPath href="#textpath-OHA" startOffset="50%"><tspan>Ohio | 53.6%</tspan></textPath></text><defs><path d="M26.345750352433967 96.46710029003269L131.72875176216982 482.33550145016346" stroke="#aaa" stroke-width="2" fill="none" id="textpath-GAA"/></defs><text text-anchor="middle" dominant-baseline="middle" class="label"><textPath href="#textpath-GAA" startOffset="50%"><tspan>Georgia | 54.0%</tspan></textPath></text><defs><path d="M6.683886057686051 99.77637830252142L33.41943028843025 498.8818915126071" stroke="#aaa" stroke-width="2" fill="none" id="textpath-NCA"/></defs><text text-anchor="middle" dominant-baseline="middle" class="label"><textPath href="#textpath-NCA" startOffset="50%"><tspan>North Carolina | 58.2%</tspan></textPath></text><defs><path d="M-63.26012648599194 495.98201217078054L-12.652025297198389 99.19640243415611" stroke="#aaa" stroke-width="2" fill="none" id="textpath-MIA"/></defs><text text-anchor="middle" dominant-baseline="middle" class="label"><textPath href="#textpath-MIA" startOffset="50%"><tspan>Michigan | 56.3%</tspan></textPath></text><defs><path d="M-150.34358058039737 476.8614135975625L-30.068716116079475 95.3722827195125" stroke="#aaa" stroke-width="2" fill="none" id="textpath-NJA"/></defs><text text-anchor="middle" dominant-baseline="middle" class="label"><textPath href="#textpath-NJA" startOffset="50%"><tspan>New Jersey | 71.7%</tspan></textPath></text><defs><path d="M-226.54667995170223 445.7315355714256L-45.30933599034044 89.14630711428512" stroke="#aaa" stroke-width="2" fill="none" id="textpath-VAA"/></defs><text text-anchor="middle" dominant-baseline="middle" class="label"><textPath href="#textpath-VAA" startOffset="50%"><tspan>Virginia | 67.4%</tspan></textPath></text><defs><path d="M-291.7611966515032 406.0485243520568L-58.352239330300634 81.20970487041136" stroke="#aaa" stroke-width="2" fill="none" id="textpath-WAA"/></defs><text text-anchor="middle" dominant-baseline="middle" class="label"><textPath href="#textpath-WAA" startOffset="50%"><tspan>Washington | 70.3%</tspan></textPath></text><defs><path d="M-345.90535406106426 361.0394521820154L-69.18107081221285 72.20789043640308" stroke="#aaa" stroke-width="2" fill="none" id="textpath-AZA"/></defs><text text-anchor="middle" dominant-baseline="middle" class="label"><textPath href="#textpath-AZA" startOffset="50%"><tspan>Arizona | 58.5%</tspan></textPath></text><defs><path d="M-391.0697909491316 311.55163072435124L-78.21395818982631 62.310326144870245" stroke="#aaa" stroke-width="2" fill="none" id="textpath-MAA"/></defs><text text-anchor="middle" dominant-baseline="middle" class="label"><textPath href="#textpath-MAA" startOffset="50%"><tspan>Massachusetts | 76.6%</tspan></textPath></text><defs><path d="M-428.11750208173413 258.29325274055526L-85.62350041634683 51.658650548111055" stroke="#aaa" stroke-width="2" fill="none" id="textpath-TNA"/></defs><text text-anchor="middle" dominant-baseline="middle" class="label"><textPath href="#textpath-TNA" startOffset="50%"><tspan>Tennessee | 51.8%</tspan></textPath></text><defs><path d="M-457.65253539746254 201.38062678488788L-91.53050707949251 40.27612535697757" stroke="#aaa" stroke-width="2" fill="none" id="textpath-INA"/></defs><text text-anchor="middle" dominant-baseline="middle" class="label"><textPath href="#textpath-INA" startOffset="50%"><tspan>Indiana | 51.5%</tspan></textPath></text><defs><path d="M-478.7270106308036 144.29292876816413L-95.74540212616071 28.858585753632827" stroke="#aaa" stroke-width="2" fill="none" id="textpath-MOA"/></defs><text text-anchor="middle" dominant-baseline="middle" class="label"><textPath href="#textpath-MOA" startOffset="50%"><tspan>Missouri | 54.1%</tspan></textPath></text><defs><path d="M-492.14727542363744 88.26697736464268L-98.4294550847275 17.653395472928537" stroke="#aaa" stroke-width="2" fill="none" id="textpath-MDA"/></defs><text text-anchor="middle" dominant-baseline="middle" class="label"><textPath href="#textpath-MDA" startOffset="50%"><tspan>Maryland | 69.8%</tspan></textPath></text><defs><path d="M-498.93894703043406 32.5565221754679L-99.78778940608682 6.511304435093579" stroke="#aaa" stroke-width="2" fill="none" id="textpath-WIA"/></defs><text text-anchor="middle" dominant-baseline="middle" class="label"><textPath href="#textpath-WIA" startOffset="50%"><tspan>Wisconsin | 60.2%</tspan></textPath></text><defs><path d="M-499.50656559695324 -22.207902321846873L-99.90131311939065 -4.441580464369375" stroke="#aaa" stroke-width="2" fill="none" id="textpath-COA"/></defs><text text-anchor="middle" dominant-baseline="middle" class="label"><textPath href="#textpath-COA" startOffset="50%"><tspan>Colorado | 64.8%</tspan></textPath></text><defs><path d="M-494.21312267132095 -75.8511000543953L-98.84262453426419 -15.17022001087906" stroke="#aaa" stroke-width="2" fill="none" id="textpath-MNA"/></defs><text text-anchor="middle" dominant-baseline="middle" class="label"><textPath href="#textpath-MNA" startOffset="50%"><tspan>Minnesota | 63.0%</tspan></textPath></text><defs><path d="M-483.9100709435152 -125.82147368172907L-96.78201418870304 -25.164294736345816" stroke="#aaa" stroke-width="2" fill="none" id="textpath-SCA"/></defs><text text-anchor="middle" dominant-baseline="middle" class="label"><textPath href="#textpath-SCA" startOffset="50%"><tspan>South Carolina | 54.1%</tspan></textPath></text><defs><path d="M-469.7727187824961 -171.2121277471367L-93.95454375649922 -34.24242554942734" stroke="#aaa" stroke-width="2" fill="none" id="textpath-ALA"/></defs><text text-anchor="middle" dominant-baseline="middle" class="label"><textPath href="#textpath-ALA" startOffset="50%"><tspan>Alabama | 51.7%</tspan></textPath></text><defs><path d="M-452.40057679527905 -212.91716256633427L-90.48011535905582 -42.58343251326686" stroke="#aaa" stroke-width="2" fill="none" id="textpath-LAA"/></defs><text text-anchor="middle" dominant-baseline="middle" class="label"><textPath href="#textpath-LAA" startOffset="50%"><tspan>Louisiana | 51.0%</tspan></textPath></text><defs><path d="M-432.3733561126097 -251.1041236696809L-86.47467122252193 -50.220824733936176" stroke="#aaa" stroke-width="2" fill="none" id="textpath-KYA"/></defs><text text-anchor="middle" dominant-baseline="middle" class="label"><textPath href="#textpath-KYA" startOffset="50%"><tspan>Kentucky | 59.5%</tspan></textPath></text><defs><path d="M-410.29941800100454 -285.7523186048312L-82.0598836002009 -57.150463720966236" stroke="#aaa" stroke-width="2" fill="none" id="textpath-ORA"/></defs><text text-anchor="middle" dominant-baseline="middle" class="label"><textPath href="#textpath-ORA" startOffset="50%"><tspan>Oregon | 65.9%</tspan></textPath></text><defs><path d="M-386.99008854243834 -316.60491368567824L-77.39801770848767 -63.320982737135644" stroke="#aaa" stroke-width="2" fill="none" id="textpath-OKA"/></defs><text text-anchor="middle" dominant-baseline="middle" class="label"><textPath href="#textpath-OKA" startOffset="50%"><tspan>Oklahoma | 55.6%</tspan></textPath></text><defs><path d="M-363.4928353382462 -343.326315125658L-72.69856706764925 -68.66526302513161" stroke="#aaa" stroke-width="2" fill="none" id="textpath-CTA"/></defs><text text-anchor="middle" dominant-baseline="middle" class="label"><textPath href="#textpath-CTA" startOffset="50%"><tspan>Connecticut | 75.2%</tspan></textPath></text><defs><path d="M-340.76350724002464 -365.8964773449967L-68.15270144800493 -73.17929546899934" stroke="#aaa" stroke-width="2" fill="none" id="textpath-UTA"/></defs><text text-anchor="middle" dominant-baseline="middle" class="label"><textPath href="#textpath-UTA" startOffset="50%"><tspan>Utah | 58.1%</tspan></textPath></text><defs><path d="M-317.9943580188594 -385.8491781359311L-63.598871603771876 -77.16983562718622" stroke="#aaa" stroke-width="2" fill="none" id="textpath-PRA"/></defs><text text-anchor="middle" dominant-baseline="middle" class="label"><textPath href="#textpath-PRA" startOffset="50%"><tspan>Puerto Rico | 78.2%</tspan></textPath></text><defs><path d="M-294.2540794261819 -404.2456391119764L-58.85081588523637 -80.84912782239529" stroke="#aaa" stroke-width="2" fill="none" id="textpath-IAA"/></defs><text text-anchor="middle" dominant-baseline="middle" class="label"><textPath href="#textpath-IAA" startOffset="50%"><tspan>Iowa | 57.5%</tspan></textPath></text><defs><path d="M-269.90445174586654 -420.8937953068009L-53.98089034917331 -84.17875906136018" stroke="#aaa" stroke-width="2" fill="none" id="textpath-NVA"/></defs><text text-anchor="middle" dominant-baseline="middle" class="label"><textPath href="#textpath-NVA" startOffset="50%"><tspan>Nevada | 59.8%</tspan></textPath></text><defs><path d="M-245.1817052061143 -435.7590290885802L-49.03634104122286 -87.15180581771604" stroke="#aaa" stroke-width="2" fill="none" id="textpath-ARA"/></defs><text text-anchor="middle" dominant-baseline="middle" class="label"><textPath href="#textpath-ARA" startOffset="50%"><tspan>Arkansas | 55.0%</tspan></textPath></text><defs><path d="M-220.0847744613361 -448.957338786552L-44.01695489226722 -89.7914677573104" stroke="#aaa" stroke-width="2" fill="none" id="textpath-MSA"/></defs><text text-anchor="middle" dominant-baseline="middle" class="label"><textPath href="#textpath-MSA" startOffset="50%"><tspan>Mississippi | 49.3%</tspan></textPath></text><defs><path d="M-194.73544480799285 -460.5193877953817L-38.94708896159857 -92.10387755907634" stroke="#aaa" stroke-width="2" fill="none" id="textpath-KSA"/></defs><text text-anchor="middle" dominant-baseline="middle" class="label"><textPath href="#textpath-KSA" startOffset="50%"><tspan>Kansas | 59.0%</tspan></textPath></text><defs><path d="M-172.6917429857569 -469.23081943169643L-34.53834859715138 -93.84616388633928" stroke="#aaa" stroke-width="2" fill="none" id="textpath-NMA"/></defs><text text-anchor="middle" dominant-baseline="middle" class="small-label-7"><textPath href="#textpath-NMA" startOffset="50%"><tspan>New Mexico | 71.7%</tspan></textPath></text><defs><path d="M-154.67092235554603 -475.47545233974455L-30.934184471109205 -95.0950904679489" stroke="#aaa" stroke-width="2" fill="none" id="textpath-NEA"/></defs><text text-anchor="middle" dominant-baseline="middle" class="small-label-7"><textPath href="#textpath-NEA" startOffset="50%"><tspan>Nebraska | 58.7%</tspan></textPath></text><defs><path d="M-137.81135436676558 -480.6329479005759L-27.562270873353118 -96.12658958011518" stroke="#aaa" stroke-width="2" fill="none" id="textpath-WVA"/></defs><text text-anchor="middle" dominant-baseline="middle" class="small-label-6"><textPath href="#textpath-WVA" startOffset="50%"><tspan>West Virginia | 47.8%</tspan></textPath></text><defs><path d="M-121.4568058509309 -485.0239626167858L-24.291361170186182 -97.00479252335717" stroke="#aaa" stroke-width="2" fill="none" id="textpath-IDA"/></defs><text text-anchor="middle" dominant-baseline="middle" class="small-label-6"><textPath href="#textpath-IDA" startOffset="50%"><tspan>Idaho | 46.0%</tspan></textPath></text><defs><path d="M-106.70290210456403 -488.48182226410825L-21.340580420912804 -97.69636445282165" stroke="#aaa" stroke-width="2" fill="none" id="textpath-HIA"/></defs><text text-anchor="middle" dominant-baseline="middle" class="small-label-5"><textPath href="#textpath-HIA" startOffset="50%"><tspan>Hawaii | 76.1%</tspan></textPath></text><defs><path d="M-93.83779055788968 -491.11553535111636L-18.767558111577934 -98.22310707022326" stroke="#aaa" stroke-width="2" fill="none" id="textpath-NHA"/></defs><text text-anchor="middle" dominant-baseline="middle" class="small-label-5"><textPath href="#textpath-NHA" startOffset="50%"><tspan>New Hampshire | 68.6%</tspan></textPath></text><defs><path d="M-81.2425135090935 -493.35550468067623L-16.2485027018187 -98.67110093613525" stroke="#aaa" stroke-width="2" fill="none" id="textpath-MEA"/></defs><text text-anchor="middle" dominant-baseline="middle" class="small-label-5"><textPath href="#textpath-MEA" startOffset="50%"><tspan>Maine | 73.2%</tspan></textPath></text><defs><path d="M-69.95728700535162 -495.08178919735155L-13.991457401070322 -99.01635783947032" stroke="#aaa" stroke-width="2" fill="none" id="textpath-MTA"/></defs><text text-anchor="middle" dominant-baseline="middle" class="small-label-4"><textPath href="#textpath-MTA" startOffset="50%"><tspan>Montana | 54.0%</tspan></textPath></text><defs><path d="M-59.9738095041323 -496.3901108740605L-11.994761900826461 -99.2780221748121" stroke="#aaa" stroke-width="2" fill="none" id="textpath-RIA"/></defs><text text-anchor="middle" dominant-baseline="middle" class="small-label-4"><textPath href="#textpath-RIA" startOffset="50%"><tspan>Rhode Island | 74.0%</tspan></textPath></text></g><text y="654" class="legend">
            <tspan x="-654">* Showing percentage of population vaccinated, having received at least one shot of a countries chosen vaccine(s).</tspan>
            <tspan x="-654" dy="1.2em">Countries where no data was available are not counted towards a region's percentage.</tspan>
            </text><text y="-654" class="title" text-anchor="middle">
            <tspan x="0">Partial Covid Vaccinations* by State</tspan>
            </text><text xmlns:xlink="http://www.w3.org/1999/xlink" y="654" class="sources" text-anchor="end">
    <tspan x="654">Data source:
        <a xlink:href="https://github.com/owid/covid-19-data/tree/master/public/data/vaccinations">
            <tspan>https://github.com/owid/covid-19-data/tree/master/public/data/vaccinations</tspan>
        </a>
    </tspan>
    <tspan x="654" dy="1.2em">Code source:
        <a xlink:href="https://github.com/WorldSEnder/vis_covid_vacc">
            <tspan>https://github.com/WorldSEnder/vis_covid_vacc</tspan>
        </a>
    </tspan>
    <tspan x="654" dy="1.2em">Timestamp: Sun Sep 19 02:00:22 2021 +0000</tspan>
</text><text text-anchor="middle" dominant-baseline="middle" class="label_all" x="0" y="0">
    <tspan>United States | 63.1%</tspan>
</text></svg>